G75*
%MOIN*%
%OFA0B0*%
%FSLAX25Y25*%
%IPPOS*%
%LPD*%
%AMOC8*
5,1,8,0,0,1.08239X$1,22.5*
%
%ADD10OC8,0.05200*%
%ADD11C,0.05600*%
%ADD12C,0.12583*%
%ADD13OC8,0.06496*%
%ADD14R,0.06496X0.06496*%
%ADD15C,0.05150*%
%ADD16C,0.00787*%
%ADD17C,0.02578*%
%ADD18C,0.01969*%
D10*
X0138874Y0056551D03*
X0148874Y0056551D03*
D11*
X0087654Y0111980D02*
X0087654Y0117580D01*
X0077654Y0117580D02*
X0077654Y0111980D01*
X0067654Y0111980D02*
X0067654Y0117580D01*
X0057654Y0117580D02*
X0057654Y0111980D01*
D12*
X0061827Y0144307D03*
X0111827Y0144307D03*
X0111827Y0053756D03*
X0061827Y0053756D03*
D13*
X0098008Y0032102D03*
X0108008Y0032102D03*
X0118008Y0032102D03*
X0148008Y0032102D03*
X0115961Y0119661D03*
D14*
X0115961Y0109661D03*
X0138008Y0032102D03*
X0088008Y0032102D03*
D15*
X0066354Y0027181D03*
X0066354Y0037024D03*
X0050606Y0037024D03*
X0050606Y0027181D03*
X0034858Y0027181D03*
X0034858Y0037024D03*
D16*
X0012019Y0012425D02*
X0161635Y0012425D01*
X0162205Y0012995D02*
X0159084Y0009874D01*
X0014569Y0009874D01*
X0011449Y0012995D01*
X0011449Y0167352D01*
X0014569Y0170472D01*
X0159084Y0170472D01*
X0162205Y0167352D01*
X0162205Y0012995D01*
X0162205Y0013211D02*
X0011449Y0013211D01*
X0011449Y0013997D02*
X0162205Y0013997D01*
X0162205Y0014783D02*
X0011449Y0014783D01*
X0011449Y0015568D02*
X0162205Y0015568D01*
X0162205Y0016354D02*
X0011449Y0016354D01*
X0011449Y0017140D02*
X0162205Y0017140D01*
X0162205Y0017926D02*
X0011449Y0017926D01*
X0011449Y0018712D02*
X0162205Y0018712D01*
X0162205Y0019498D02*
X0081484Y0019498D01*
X0081347Y0019361D02*
X0089847Y0027861D01*
X0091668Y0027861D01*
X0092250Y0028443D01*
X0092250Y0035762D01*
X0091668Y0036344D01*
X0084348Y0036344D01*
X0083766Y0035762D01*
X0083766Y0028443D01*
X0084300Y0027909D01*
X0079708Y0023317D01*
X0065205Y0023317D01*
X0064389Y0024133D01*
X0065645Y0023613D01*
X0067064Y0023613D01*
X0068376Y0024156D01*
X0069380Y0025160D01*
X0069923Y0026471D01*
X0069923Y0027891D01*
X0069380Y0029202D01*
X0068376Y0030206D01*
X0067064Y0030750D01*
X0065645Y0030750D01*
X0064333Y0030206D01*
X0063329Y0029202D01*
X0062786Y0027891D01*
X0062786Y0026471D01*
X0063306Y0025216D01*
X0061639Y0026882D01*
X0061639Y0029378D01*
X0060481Y0030537D01*
X0054175Y0036843D01*
X0054175Y0037733D01*
X0053632Y0039045D01*
X0052628Y0040049D01*
X0051316Y0040592D01*
X0049896Y0040592D01*
X0048585Y0040049D01*
X0047581Y0039045D01*
X0047038Y0037733D01*
X0047038Y0036314D01*
X0047581Y0035002D01*
X0048585Y0033998D01*
X0049896Y0033455D01*
X0051316Y0033455D01*
X0051777Y0033646D01*
X0057683Y0027740D01*
X0057683Y0025244D01*
X0063567Y0019361D01*
X0081347Y0019361D01*
X0082270Y0020284D02*
X0162205Y0020284D01*
X0162205Y0021070D02*
X0083056Y0021070D01*
X0083842Y0021856D02*
X0162205Y0021856D01*
X0162205Y0022642D02*
X0084628Y0022642D01*
X0085414Y0023428D02*
X0162205Y0023428D01*
X0162205Y0024213D02*
X0086200Y0024213D01*
X0086986Y0024999D02*
X0162205Y0024999D01*
X0162205Y0025785D02*
X0087771Y0025785D01*
X0088557Y0026571D02*
X0162205Y0026571D01*
X0162205Y0027357D02*
X0089343Y0027357D01*
X0091950Y0028143D02*
X0115968Y0028143D01*
X0116251Y0027861D02*
X0113766Y0030345D01*
X0113766Y0033859D01*
X0116251Y0036344D01*
X0119765Y0036344D01*
X0122250Y0033859D01*
X0122250Y0030345D01*
X0119765Y0027861D01*
X0116251Y0027861D01*
X0115183Y0028929D02*
X0092250Y0028929D01*
X0092250Y0029715D02*
X0114397Y0029715D01*
X0113766Y0030501D02*
X0092250Y0030501D01*
X0092250Y0031287D02*
X0113766Y0031287D01*
X0113766Y0032073D02*
X0092250Y0032073D01*
X0092250Y0032859D02*
X0113766Y0032859D01*
X0113766Y0033644D02*
X0092250Y0033644D01*
X0092250Y0034430D02*
X0114337Y0034430D01*
X0115123Y0035216D02*
X0092250Y0035216D01*
X0092009Y0036002D02*
X0115909Y0036002D01*
X0120107Y0036002D02*
X0134006Y0036002D01*
X0133766Y0035762D02*
X0133766Y0028443D01*
X0134348Y0027861D01*
X0141668Y0027861D01*
X0142250Y0028443D01*
X0142250Y0035762D01*
X0141668Y0036344D01*
X0134348Y0036344D01*
X0133766Y0035762D01*
X0133766Y0035216D02*
X0120893Y0035216D01*
X0121679Y0034430D02*
X0133766Y0034430D01*
X0133766Y0033644D02*
X0122250Y0033644D01*
X0122250Y0032859D02*
X0133766Y0032859D01*
X0133766Y0032073D02*
X0122250Y0032073D01*
X0122250Y0031287D02*
X0133766Y0031287D01*
X0133766Y0030501D02*
X0122250Y0030501D01*
X0121619Y0029715D02*
X0133766Y0029715D01*
X0133766Y0028929D02*
X0120833Y0028929D01*
X0120047Y0028143D02*
X0134066Y0028143D01*
X0141950Y0028143D02*
X0162205Y0028143D01*
X0162205Y0028929D02*
X0142250Y0028929D01*
X0142250Y0029715D02*
X0162205Y0029715D01*
X0162205Y0030501D02*
X0142250Y0030501D01*
X0142250Y0031287D02*
X0162205Y0031287D01*
X0162205Y0032073D02*
X0142250Y0032073D01*
X0142250Y0032859D02*
X0162205Y0032859D01*
X0162205Y0033644D02*
X0142250Y0033644D01*
X0142250Y0034430D02*
X0162205Y0034430D01*
X0162205Y0035216D02*
X0142250Y0035216D01*
X0142009Y0036002D02*
X0162205Y0036002D01*
X0162205Y0036788D02*
X0069923Y0036788D01*
X0069923Y0036314D02*
X0069380Y0035002D01*
X0068376Y0033998D01*
X0067064Y0033455D01*
X0065645Y0033455D01*
X0064333Y0033998D01*
X0063329Y0035002D01*
X0062786Y0036314D01*
X0062786Y0037733D01*
X0063329Y0039045D01*
X0064333Y0040049D01*
X0065645Y0040592D01*
X0067064Y0040592D01*
X0068376Y0040049D01*
X0069380Y0039045D01*
X0069923Y0037733D01*
X0069923Y0036314D01*
X0069794Y0036002D02*
X0084006Y0036002D01*
X0083766Y0035216D02*
X0076820Y0035216D01*
X0076750Y0035286D02*
X0075369Y0035858D01*
X0073875Y0035858D01*
X0072494Y0035286D01*
X0071438Y0034230D01*
X0070866Y0032849D01*
X0070866Y0031355D01*
X0071438Y0029975D01*
X0072494Y0028918D01*
X0073875Y0028346D01*
X0075369Y0028346D01*
X0076750Y0028918D01*
X0077806Y0029975D01*
X0078378Y0031355D01*
X0078378Y0032849D01*
X0077806Y0034230D01*
X0076750Y0035286D01*
X0077606Y0034430D02*
X0083766Y0034430D01*
X0083766Y0033644D02*
X0078049Y0033644D01*
X0078374Y0032859D02*
X0083766Y0032859D01*
X0083766Y0032073D02*
X0078378Y0032073D01*
X0078350Y0031287D02*
X0083766Y0031287D01*
X0083766Y0030501D02*
X0078024Y0030501D01*
X0077546Y0029715D02*
X0083766Y0029715D01*
X0083766Y0028929D02*
X0076760Y0028929D01*
X0072484Y0028929D02*
X0069493Y0028929D01*
X0069818Y0028143D02*
X0084066Y0028143D01*
X0083749Y0027357D02*
X0069923Y0027357D01*
X0069923Y0026571D02*
X0082963Y0026571D01*
X0082177Y0025785D02*
X0069639Y0025785D01*
X0069219Y0024999D02*
X0081391Y0024999D01*
X0080605Y0024213D02*
X0068433Y0024213D01*
X0065094Y0023428D02*
X0079819Y0023428D01*
X0071698Y0029715D02*
X0068867Y0029715D01*
X0067665Y0030501D02*
X0071220Y0030501D01*
X0070895Y0031287D02*
X0059731Y0031287D01*
X0058945Y0032073D02*
X0070866Y0032073D01*
X0070870Y0032859D02*
X0058159Y0032859D01*
X0057373Y0033644D02*
X0065187Y0033644D01*
X0063901Y0034430D02*
X0056587Y0034430D01*
X0055801Y0035216D02*
X0063240Y0035216D01*
X0062915Y0036002D02*
X0055016Y0036002D01*
X0054230Y0036788D02*
X0062786Y0036788D01*
X0062786Y0037574D02*
X0054175Y0037574D01*
X0053915Y0038360D02*
X0063045Y0038360D01*
X0063430Y0039146D02*
X0053531Y0039146D01*
X0052745Y0039932D02*
X0064216Y0039932D01*
X0068493Y0039932D02*
X0162205Y0039932D01*
X0162205Y0040718D02*
X0011449Y0040718D01*
X0011449Y0041504D02*
X0162205Y0041504D01*
X0162205Y0042289D02*
X0011449Y0042289D01*
X0011449Y0043075D02*
X0099397Y0043075D01*
X0100054Y0042418D02*
X0101946Y0042418D01*
X0103283Y0043755D01*
X0103283Y0045646D01*
X0101946Y0046983D01*
X0100679Y0046983D01*
X0099238Y0048425D01*
X0099238Y0052309D01*
X0100133Y0053204D01*
X0100133Y0055095D01*
X0098796Y0056432D01*
X0096905Y0056432D01*
X0095568Y0055095D01*
X0095568Y0053204D01*
X0096463Y0052309D01*
X0096463Y0047276D01*
X0097276Y0046463D01*
X0098717Y0045021D01*
X0098717Y0043755D01*
X0100054Y0042418D01*
X0098717Y0043861D02*
X0011449Y0043861D01*
X0011449Y0044647D02*
X0098717Y0044647D01*
X0098306Y0045433D02*
X0011449Y0045433D01*
X0011449Y0046219D02*
X0097520Y0046219D01*
X0096734Y0047005D02*
X0064565Y0047005D01*
X0063276Y0046471D02*
X0065953Y0047580D01*
X0068003Y0049629D01*
X0069112Y0052307D01*
X0069112Y0055205D01*
X0068003Y0057883D01*
X0065953Y0059932D01*
X0063276Y0061041D01*
X0060378Y0061041D01*
X0057700Y0059932D01*
X0055651Y0057883D01*
X0054542Y0055205D01*
X0054542Y0052307D01*
X0055651Y0049629D01*
X0057700Y0047580D01*
X0060378Y0046471D01*
X0063276Y0046471D01*
X0066164Y0047791D02*
X0096463Y0047791D01*
X0096463Y0048577D02*
X0066950Y0048577D01*
X0067736Y0049363D02*
X0096463Y0049363D01*
X0096463Y0050149D02*
X0068218Y0050149D01*
X0068543Y0050934D02*
X0096463Y0050934D01*
X0096463Y0051720D02*
X0068869Y0051720D01*
X0069112Y0052506D02*
X0096265Y0052506D01*
X0095568Y0053292D02*
X0069112Y0053292D01*
X0069112Y0054078D02*
X0095568Y0054078D01*
X0095568Y0054864D02*
X0069112Y0054864D01*
X0068927Y0055650D02*
X0096123Y0055650D01*
X0097850Y0054150D02*
X0097850Y0047850D01*
X0101000Y0044701D01*
X0102603Y0043075D02*
X0162205Y0043075D01*
X0162205Y0043861D02*
X0103283Y0043861D01*
X0103283Y0044647D02*
X0162205Y0044647D01*
X0162205Y0045433D02*
X0103283Y0045433D01*
X0102710Y0046219D02*
X0162205Y0046219D01*
X0162205Y0047005D02*
X0100658Y0047005D01*
X0099872Y0047791D02*
X0162205Y0047791D01*
X0162205Y0048577D02*
X0099238Y0048577D01*
X0099238Y0049363D02*
X0162205Y0049363D01*
X0162205Y0050149D02*
X0099238Y0050149D01*
X0099238Y0050934D02*
X0162205Y0050934D01*
X0162205Y0051720D02*
X0099238Y0051720D01*
X0099435Y0052506D02*
X0162205Y0052506D01*
X0162205Y0053292D02*
X0140697Y0053292D01*
X0140363Y0052957D02*
X0142468Y0055063D01*
X0142468Y0058040D01*
X0140363Y0060145D01*
X0137385Y0060145D01*
X0135280Y0058040D01*
X0135280Y0055063D01*
X0137385Y0052957D01*
X0140363Y0052957D01*
X0141483Y0054078D02*
X0162205Y0054078D01*
X0162205Y0054864D02*
X0142269Y0054864D01*
X0142468Y0055650D02*
X0162205Y0055650D01*
X0162205Y0056436D02*
X0142468Y0056436D01*
X0142468Y0057222D02*
X0162205Y0057222D01*
X0162205Y0058008D02*
X0142468Y0058008D01*
X0141714Y0058794D02*
X0162205Y0058794D01*
X0162205Y0059580D02*
X0140928Y0059580D01*
X0136820Y0059580D02*
X0066306Y0059580D01*
X0067092Y0058794D02*
X0136034Y0058794D01*
X0135280Y0058008D02*
X0067878Y0058008D01*
X0068276Y0057222D02*
X0135280Y0057222D01*
X0135280Y0056436D02*
X0068602Y0056436D01*
X0064907Y0060365D02*
X0162205Y0060365D01*
X0162205Y0061151D02*
X0011449Y0061151D01*
X0011449Y0060365D02*
X0058747Y0060365D01*
X0057348Y0059580D02*
X0011449Y0059580D01*
X0011449Y0058794D02*
X0056562Y0058794D01*
X0055776Y0058008D02*
X0011449Y0058008D01*
X0011449Y0057222D02*
X0055377Y0057222D01*
X0055052Y0056436D02*
X0011449Y0056436D01*
X0011449Y0055650D02*
X0054726Y0055650D01*
X0054542Y0054864D02*
X0011449Y0054864D01*
X0011449Y0054078D02*
X0054542Y0054078D01*
X0054542Y0053292D02*
X0011449Y0053292D01*
X0011449Y0052506D02*
X0054542Y0052506D01*
X0054785Y0051720D02*
X0011449Y0051720D01*
X0011449Y0050934D02*
X0055110Y0050934D01*
X0055436Y0050149D02*
X0011449Y0050149D01*
X0011449Y0049363D02*
X0055917Y0049363D01*
X0056703Y0048577D02*
X0011449Y0048577D01*
X0011449Y0047791D02*
X0057489Y0047791D01*
X0059088Y0047005D02*
X0011449Y0047005D01*
X0011449Y0039932D02*
X0032720Y0039932D01*
X0032837Y0040049D02*
X0031833Y0039045D01*
X0031290Y0037733D01*
X0031290Y0036314D01*
X0031833Y0035002D01*
X0032837Y0033998D01*
X0034148Y0033455D01*
X0035568Y0033455D01*
X0036880Y0033998D01*
X0037883Y0035002D01*
X0038427Y0036314D01*
X0038427Y0037733D01*
X0037883Y0039045D01*
X0036880Y0040049D01*
X0035568Y0040592D01*
X0034148Y0040592D01*
X0032837Y0040049D01*
X0031934Y0039146D02*
X0011449Y0039146D01*
X0011449Y0038360D02*
X0031549Y0038360D01*
X0031290Y0037574D02*
X0011449Y0037574D01*
X0011449Y0036788D02*
X0031290Y0036788D01*
X0031419Y0036002D02*
X0011449Y0036002D01*
X0011449Y0035216D02*
X0024393Y0035216D01*
X0024463Y0035286D02*
X0023406Y0034230D01*
X0022835Y0032849D01*
X0022835Y0031355D01*
X0023406Y0029975D01*
X0024463Y0028918D01*
X0025843Y0028346D01*
X0027338Y0028346D01*
X0028718Y0028918D01*
X0029775Y0029975D01*
X0030346Y0031355D01*
X0030346Y0032849D01*
X0029775Y0034230D01*
X0028718Y0035286D01*
X0027338Y0035858D01*
X0025843Y0035858D01*
X0024463Y0035286D01*
X0023607Y0034430D02*
X0011449Y0034430D01*
X0011449Y0033644D02*
X0023164Y0033644D01*
X0022838Y0032859D02*
X0011449Y0032859D01*
X0011449Y0032073D02*
X0022835Y0032073D01*
X0022863Y0031287D02*
X0011449Y0031287D01*
X0011449Y0030501D02*
X0023189Y0030501D01*
X0023666Y0029715D02*
X0011449Y0029715D01*
X0011449Y0028929D02*
X0024452Y0028929D01*
X0028729Y0028929D02*
X0031720Y0028929D01*
X0031833Y0029202D02*
X0031290Y0027891D01*
X0031290Y0026471D01*
X0031833Y0025160D01*
X0032837Y0024156D01*
X0034148Y0023613D01*
X0035568Y0023613D01*
X0036880Y0024156D01*
X0037883Y0025160D01*
X0038427Y0026471D01*
X0038427Y0027891D01*
X0037883Y0029202D01*
X0036880Y0030206D01*
X0035568Y0030750D01*
X0034148Y0030750D01*
X0032837Y0030206D01*
X0031833Y0029202D01*
X0032345Y0029715D02*
X0029515Y0029715D01*
X0029992Y0030501D02*
X0033548Y0030501D01*
X0031394Y0028143D02*
X0011449Y0028143D01*
X0011449Y0027357D02*
X0031290Y0027357D01*
X0031290Y0026571D02*
X0011449Y0026571D01*
X0011449Y0025785D02*
X0031574Y0025785D01*
X0031993Y0024999D02*
X0011449Y0024999D01*
X0011449Y0024213D02*
X0032779Y0024213D01*
X0036937Y0024213D02*
X0048527Y0024213D01*
X0048585Y0024156D02*
X0049896Y0023613D01*
X0051316Y0023613D01*
X0052628Y0024156D01*
X0053632Y0025160D01*
X0054175Y0026471D01*
X0054175Y0027891D01*
X0053632Y0029202D01*
X0052628Y0030206D01*
X0051316Y0030750D01*
X0049896Y0030750D01*
X0048585Y0030206D01*
X0047581Y0029202D01*
X0047038Y0027891D01*
X0047038Y0026471D01*
X0047581Y0025160D01*
X0048585Y0024156D01*
X0047741Y0024999D02*
X0037723Y0024999D01*
X0038143Y0025785D02*
X0047322Y0025785D01*
X0047038Y0026571D02*
X0038427Y0026571D01*
X0038427Y0027357D02*
X0047038Y0027357D01*
X0047142Y0028143D02*
X0038322Y0028143D01*
X0037997Y0028929D02*
X0047468Y0028929D01*
X0048093Y0029715D02*
X0037371Y0029715D01*
X0036169Y0030501D02*
X0049296Y0030501D01*
X0051917Y0030501D02*
X0054922Y0030501D01*
X0054137Y0031287D02*
X0030318Y0031287D01*
X0030346Y0032073D02*
X0053351Y0032073D01*
X0052565Y0032859D02*
X0030343Y0032859D01*
X0030017Y0033644D02*
X0033691Y0033644D01*
X0032405Y0034430D02*
X0029574Y0034430D01*
X0028788Y0035216D02*
X0031744Y0035216D01*
X0036025Y0033644D02*
X0049439Y0033644D01*
X0048153Y0034430D02*
X0037312Y0034430D01*
X0037972Y0035216D02*
X0047492Y0035216D01*
X0047167Y0036002D02*
X0038298Y0036002D01*
X0038427Y0036788D02*
X0047038Y0036788D01*
X0047038Y0037574D02*
X0038427Y0037574D01*
X0038167Y0038360D02*
X0047297Y0038360D01*
X0047682Y0039146D02*
X0037783Y0039146D01*
X0036997Y0039932D02*
X0048468Y0039932D01*
X0051773Y0033644D02*
X0051779Y0033644D01*
X0053119Y0029715D02*
X0055708Y0029715D01*
X0056494Y0028929D02*
X0053745Y0028929D01*
X0054070Y0028143D02*
X0057280Y0028143D01*
X0057683Y0027357D02*
X0054175Y0027357D01*
X0054175Y0026571D02*
X0057683Y0026571D01*
X0057683Y0025785D02*
X0053891Y0025785D01*
X0053471Y0024999D02*
X0057928Y0024999D01*
X0058714Y0024213D02*
X0052685Y0024213D01*
X0059500Y0023428D02*
X0011449Y0023428D01*
X0011449Y0022642D02*
X0060286Y0022642D01*
X0061071Y0021856D02*
X0011449Y0021856D01*
X0011449Y0021070D02*
X0061857Y0021070D01*
X0062643Y0020284D02*
X0011449Y0020284D01*
X0011449Y0019498D02*
X0063429Y0019498D01*
X0063070Y0025785D02*
X0062736Y0025785D01*
X0062786Y0026571D02*
X0061950Y0026571D01*
X0061639Y0027357D02*
X0062786Y0027357D01*
X0062890Y0028143D02*
X0061639Y0028143D01*
X0061639Y0028929D02*
X0063216Y0028929D01*
X0063841Y0029715D02*
X0061303Y0029715D01*
X0060517Y0030501D02*
X0065044Y0030501D01*
X0067521Y0033644D02*
X0071195Y0033644D01*
X0071638Y0034430D02*
X0068808Y0034430D01*
X0069468Y0035216D02*
X0072424Y0035216D01*
X0069923Y0037574D02*
X0162205Y0037574D01*
X0162205Y0038360D02*
X0069663Y0038360D01*
X0069279Y0039146D02*
X0162205Y0039146D01*
X0162205Y0061937D02*
X0011449Y0061937D01*
X0011449Y0062723D02*
X0162205Y0062723D01*
X0162205Y0063509D02*
X0011449Y0063509D01*
X0011449Y0064295D02*
X0162205Y0064295D01*
X0162205Y0065081D02*
X0011449Y0065081D01*
X0011449Y0065867D02*
X0162205Y0065867D01*
X0162205Y0066653D02*
X0011449Y0066653D01*
X0011449Y0067439D02*
X0162205Y0067439D01*
X0162205Y0068225D02*
X0011449Y0068225D01*
X0011449Y0069010D02*
X0162205Y0069010D01*
X0162205Y0069796D02*
X0011449Y0069796D01*
X0011449Y0070582D02*
X0162205Y0070582D01*
X0162205Y0071368D02*
X0011449Y0071368D01*
X0011449Y0072154D02*
X0162205Y0072154D01*
X0162205Y0072940D02*
X0011449Y0072940D01*
X0011449Y0073726D02*
X0162205Y0073726D01*
X0162205Y0074512D02*
X0011449Y0074512D01*
X0011449Y0075298D02*
X0162205Y0075298D01*
X0162205Y0076084D02*
X0011449Y0076084D01*
X0011449Y0076870D02*
X0162205Y0076870D01*
X0162205Y0077656D02*
X0011449Y0077656D01*
X0011449Y0078441D02*
X0162205Y0078441D01*
X0162205Y0079227D02*
X0011449Y0079227D01*
X0011449Y0080013D02*
X0162205Y0080013D01*
X0162205Y0080799D02*
X0011449Y0080799D01*
X0011449Y0081585D02*
X0063250Y0081585D01*
X0063834Y0081001D02*
X0065725Y0081001D01*
X0067062Y0082338D01*
X0067062Y0083604D01*
X0072333Y0088875D01*
X0073599Y0088875D01*
X0074936Y0090212D01*
X0074936Y0092103D01*
X0073599Y0093440D01*
X0071708Y0093440D01*
X0070371Y0092103D01*
X0070371Y0090837D01*
X0065100Y0085566D01*
X0063834Y0085566D01*
X0062497Y0084229D01*
X0062497Y0082338D01*
X0063834Y0081001D01*
X0062497Y0082371D02*
X0011449Y0082371D01*
X0011449Y0083157D02*
X0062497Y0083157D01*
X0062497Y0083943D02*
X0011449Y0083943D01*
X0011449Y0084729D02*
X0062997Y0084729D01*
X0063783Y0085515D02*
X0052302Y0085515D01*
X0053724Y0086104D02*
X0050679Y0084843D01*
X0047384Y0084843D01*
X0044339Y0086104D01*
X0042009Y0088434D01*
X0040748Y0091478D01*
X0040748Y0094774D01*
X0042009Y0097818D01*
X0044339Y0100148D01*
X0047384Y0101409D01*
X0050679Y0101409D01*
X0053724Y0100148D01*
X0056054Y0097818D01*
X0057315Y0094774D01*
X0057315Y0091478D01*
X0056054Y0088434D01*
X0053724Y0086104D01*
X0053921Y0086301D02*
X0065835Y0086301D01*
X0066620Y0087086D02*
X0054707Y0087086D01*
X0055492Y0087872D02*
X0067406Y0087872D01*
X0068192Y0088658D02*
X0056147Y0088658D01*
X0056472Y0089444D02*
X0068978Y0089444D01*
X0069764Y0090230D02*
X0056798Y0090230D01*
X0057123Y0091016D02*
X0070371Y0091016D01*
X0070371Y0091802D02*
X0057315Y0091802D01*
X0057315Y0092588D02*
X0070856Y0092588D01*
X0071642Y0093374D02*
X0057315Y0093374D01*
X0057315Y0094160D02*
X0098038Y0094160D01*
X0098038Y0094946D02*
X0057244Y0094946D01*
X0056918Y0095732D02*
X0098038Y0095732D01*
X0098038Y0096517D02*
X0056593Y0096517D01*
X0056267Y0097303D02*
X0098038Y0097303D01*
X0098038Y0098089D02*
X0055783Y0098089D01*
X0054997Y0098875D02*
X0098000Y0098875D01*
X0098038Y0098837D02*
X0098038Y0091338D01*
X0095415Y0088716D01*
X0094149Y0088716D01*
X0092812Y0087379D01*
X0092812Y0085488D01*
X0094149Y0084150D01*
X0096040Y0084150D01*
X0097377Y0085488D01*
X0097377Y0086754D01*
X0100000Y0089376D01*
X0100813Y0090189D01*
X0100813Y0098837D01*
X0101708Y0099732D01*
X0101708Y0101623D01*
X0100371Y0102961D01*
X0098480Y0102961D01*
X0097143Y0101623D01*
X0097143Y0099732D01*
X0098038Y0098837D01*
X0097214Y0099661D02*
X0054211Y0099661D01*
X0053003Y0100447D02*
X0097143Y0100447D01*
X0097143Y0101233D02*
X0051105Y0101233D01*
X0046958Y0101233D02*
X0011449Y0101233D01*
X0011449Y0102019D02*
X0097538Y0102019D01*
X0098324Y0102805D02*
X0011449Y0102805D01*
X0011449Y0103591D02*
X0162205Y0103591D01*
X0162205Y0104377D02*
X0011449Y0104377D01*
X0011449Y0105162D02*
X0162205Y0105162D01*
X0162205Y0105948D02*
X0120149Y0105948D01*
X0120202Y0106002D02*
X0120202Y0113321D01*
X0119620Y0113903D01*
X0112301Y0113903D01*
X0111719Y0113321D01*
X0111719Y0106002D01*
X0112301Y0105420D01*
X0119620Y0105420D01*
X0120202Y0106002D01*
X0120202Y0106734D02*
X0162205Y0106734D01*
X0162205Y0107520D02*
X0120202Y0107520D01*
X0120202Y0108306D02*
X0162205Y0108306D01*
X0162205Y0109092D02*
X0120202Y0109092D01*
X0120202Y0109878D02*
X0162205Y0109878D01*
X0162205Y0110664D02*
X0120202Y0110664D01*
X0120202Y0111450D02*
X0162205Y0111450D01*
X0162205Y0112236D02*
X0120202Y0112236D01*
X0120202Y0113022D02*
X0162205Y0113022D01*
X0162205Y0113808D02*
X0119716Y0113808D01*
X0112205Y0113808D02*
X0091447Y0113808D01*
X0091447Y0114593D02*
X0162205Y0114593D01*
X0162205Y0115379D02*
X0091447Y0115379D01*
X0091447Y0116165D02*
X0162205Y0116165D01*
X0162205Y0116951D02*
X0091447Y0116951D01*
X0091447Y0117737D02*
X0162205Y0117737D01*
X0162205Y0118523D02*
X0091369Y0118523D01*
X0091447Y0118334D02*
X0090870Y0119728D01*
X0089802Y0120796D01*
X0088408Y0121373D01*
X0086899Y0121373D01*
X0085505Y0120796D01*
X0084437Y0119728D01*
X0083860Y0118334D01*
X0083860Y0111225D01*
X0084437Y0109831D01*
X0085505Y0108763D01*
X0086899Y0108186D01*
X0088408Y0108186D01*
X0089802Y0108763D01*
X0090870Y0109831D01*
X0091447Y0111225D01*
X0091447Y0118334D01*
X0091043Y0119309D02*
X0162205Y0119309D01*
X0162205Y0120095D02*
X0090503Y0120095D01*
X0089597Y0120881D02*
X0162205Y0120881D01*
X0162205Y0121667D02*
X0011449Y0121667D01*
X0011449Y0122453D02*
X0162205Y0122453D01*
X0162205Y0123238D02*
X0011449Y0123238D01*
X0011449Y0124024D02*
X0162205Y0124024D01*
X0162205Y0124810D02*
X0011449Y0124810D01*
X0011449Y0125596D02*
X0162205Y0125596D01*
X0162205Y0126382D02*
X0011449Y0126382D01*
X0011449Y0127168D02*
X0162205Y0127168D01*
X0162205Y0127954D02*
X0011449Y0127954D01*
X0011449Y0128740D02*
X0162205Y0128740D01*
X0162205Y0129526D02*
X0011449Y0129526D01*
X0011449Y0130312D02*
X0162205Y0130312D01*
X0162205Y0131098D02*
X0011449Y0131098D01*
X0011449Y0131884D02*
X0162205Y0131884D01*
X0162205Y0132669D02*
X0011449Y0132669D01*
X0011449Y0133455D02*
X0162205Y0133455D01*
X0162205Y0134241D02*
X0011449Y0134241D01*
X0011449Y0135027D02*
X0162205Y0135027D01*
X0162205Y0135813D02*
X0011449Y0135813D01*
X0011449Y0136599D02*
X0162205Y0136599D01*
X0162205Y0137385D02*
X0064152Y0137385D01*
X0063276Y0137022D02*
X0065953Y0138131D01*
X0068003Y0140180D01*
X0069112Y0142858D01*
X0069112Y0145756D01*
X0068003Y0148434D01*
X0065953Y0150483D01*
X0063276Y0151592D01*
X0060378Y0151592D01*
X0057700Y0150483D01*
X0055651Y0148434D01*
X0054542Y0145756D01*
X0054542Y0142858D01*
X0055651Y0140180D01*
X0057700Y0138131D01*
X0060378Y0137022D01*
X0063276Y0137022D01*
X0065993Y0138171D02*
X0162205Y0138171D01*
X0162205Y0138957D02*
X0066779Y0138957D01*
X0067565Y0139743D02*
X0162205Y0139743D01*
X0162205Y0140529D02*
X0068147Y0140529D01*
X0068472Y0141314D02*
X0162205Y0141314D01*
X0162205Y0142100D02*
X0068798Y0142100D01*
X0069112Y0142886D02*
X0162205Y0142886D01*
X0162205Y0143672D02*
X0069112Y0143672D01*
X0069112Y0144458D02*
X0162205Y0144458D01*
X0162205Y0145244D02*
X0069112Y0145244D01*
X0068998Y0146030D02*
X0162205Y0146030D01*
X0162205Y0146816D02*
X0068673Y0146816D01*
X0068347Y0147602D02*
X0162205Y0147602D01*
X0162205Y0148388D02*
X0068022Y0148388D01*
X0067263Y0149174D02*
X0162205Y0149174D01*
X0162205Y0149960D02*
X0066477Y0149960D01*
X0065320Y0150745D02*
X0162205Y0150745D01*
X0162205Y0151531D02*
X0063423Y0151531D01*
X0060231Y0151531D02*
X0011449Y0151531D01*
X0011449Y0150745D02*
X0058334Y0150745D01*
X0057177Y0149960D02*
X0011449Y0149960D01*
X0011449Y0149174D02*
X0056391Y0149174D01*
X0055632Y0148388D02*
X0011449Y0148388D01*
X0011449Y0147602D02*
X0055306Y0147602D01*
X0054981Y0146816D02*
X0011449Y0146816D01*
X0011449Y0146030D02*
X0054655Y0146030D01*
X0054542Y0145244D02*
X0011449Y0145244D01*
X0011449Y0144458D02*
X0054542Y0144458D01*
X0054542Y0143672D02*
X0011449Y0143672D01*
X0011449Y0142886D02*
X0054542Y0142886D01*
X0054856Y0142100D02*
X0011449Y0142100D01*
X0011449Y0141314D02*
X0055181Y0141314D01*
X0055507Y0140529D02*
X0011449Y0140529D01*
X0011449Y0139743D02*
X0056089Y0139743D01*
X0056875Y0138957D02*
X0011449Y0138957D01*
X0011449Y0138171D02*
X0057660Y0138171D01*
X0059502Y0137385D02*
X0011449Y0137385D01*
X0011449Y0152317D02*
X0019458Y0152317D01*
X0019825Y0152165D02*
X0023120Y0152165D01*
X0026165Y0153426D01*
X0028495Y0155757D01*
X0029756Y0158801D01*
X0029756Y0162097D01*
X0028495Y0165141D01*
X0026165Y0167471D01*
X0023120Y0168732D01*
X0019825Y0168732D01*
X0016780Y0167471D01*
X0014450Y0165141D01*
X0013189Y0162097D01*
X0013189Y0158801D01*
X0014450Y0155757D01*
X0016780Y0153426D01*
X0019825Y0152165D01*
X0017561Y0153103D02*
X0011449Y0153103D01*
X0011449Y0153889D02*
X0016318Y0153889D01*
X0015532Y0154675D02*
X0011449Y0154675D01*
X0011449Y0155461D02*
X0014746Y0155461D01*
X0014247Y0156247D02*
X0011449Y0156247D01*
X0011449Y0157033D02*
X0013921Y0157033D01*
X0013596Y0157819D02*
X0011449Y0157819D01*
X0011449Y0158605D02*
X0013270Y0158605D01*
X0013189Y0159390D02*
X0011449Y0159390D01*
X0011449Y0160176D02*
X0013189Y0160176D01*
X0013189Y0160962D02*
X0011449Y0160962D01*
X0011449Y0161748D02*
X0013189Y0161748D01*
X0013370Y0162534D02*
X0011449Y0162534D01*
X0011449Y0163320D02*
X0013696Y0163320D01*
X0014021Y0164106D02*
X0011449Y0164106D01*
X0011449Y0164892D02*
X0014347Y0164892D01*
X0014987Y0165678D02*
X0011449Y0165678D01*
X0011449Y0166464D02*
X0015773Y0166464D01*
X0016559Y0167250D02*
X0011449Y0167250D01*
X0012132Y0168036D02*
X0018143Y0168036D01*
X0014490Y0170393D02*
X0159163Y0170393D01*
X0159949Y0169607D02*
X0013704Y0169607D01*
X0012918Y0168821D02*
X0160735Y0168821D01*
X0161521Y0168036D02*
X0155511Y0168036D01*
X0156873Y0167471D02*
X0153829Y0168732D01*
X0150533Y0168732D01*
X0147489Y0167471D01*
X0145159Y0165141D01*
X0143898Y0162097D01*
X0143898Y0158801D01*
X0145159Y0155757D01*
X0147489Y0153426D01*
X0150533Y0152165D01*
X0153829Y0152165D01*
X0156873Y0153426D01*
X0159203Y0155757D01*
X0160465Y0158801D01*
X0160465Y0162097D01*
X0159203Y0165141D01*
X0156873Y0167471D01*
X0157095Y0167250D02*
X0162205Y0167250D01*
X0162205Y0166464D02*
X0157881Y0166464D01*
X0158667Y0165678D02*
X0162205Y0165678D01*
X0162205Y0164892D02*
X0159307Y0164892D01*
X0159632Y0164106D02*
X0162205Y0164106D01*
X0162205Y0163320D02*
X0159958Y0163320D01*
X0160283Y0162534D02*
X0162205Y0162534D01*
X0162205Y0161748D02*
X0160465Y0161748D01*
X0160465Y0160962D02*
X0162205Y0160962D01*
X0162205Y0160176D02*
X0160465Y0160176D01*
X0160465Y0159390D02*
X0162205Y0159390D01*
X0162205Y0158605D02*
X0160383Y0158605D01*
X0160058Y0157819D02*
X0162205Y0157819D01*
X0162205Y0157033D02*
X0159732Y0157033D01*
X0159407Y0156247D02*
X0162205Y0156247D01*
X0162205Y0155461D02*
X0158908Y0155461D01*
X0158122Y0154675D02*
X0162205Y0154675D01*
X0162205Y0153889D02*
X0157336Y0153889D01*
X0156093Y0153103D02*
X0162205Y0153103D01*
X0162205Y0152317D02*
X0154196Y0152317D01*
X0150167Y0152317D02*
X0023487Y0152317D01*
X0025384Y0153103D02*
X0148269Y0153103D01*
X0147026Y0153889D02*
X0026627Y0153889D01*
X0027413Y0154675D02*
X0146240Y0154675D01*
X0145454Y0155461D02*
X0028199Y0155461D01*
X0028698Y0156247D02*
X0144956Y0156247D01*
X0144630Y0157033D02*
X0029023Y0157033D01*
X0029349Y0157819D02*
X0144305Y0157819D01*
X0143979Y0158605D02*
X0029674Y0158605D01*
X0029756Y0159390D02*
X0143898Y0159390D01*
X0143898Y0160176D02*
X0029756Y0160176D01*
X0029756Y0160962D02*
X0143898Y0160962D01*
X0143898Y0161748D02*
X0029756Y0161748D01*
X0029575Y0162534D02*
X0144079Y0162534D01*
X0144404Y0163320D02*
X0029249Y0163320D01*
X0028924Y0164106D02*
X0144730Y0164106D01*
X0145056Y0164892D02*
X0028598Y0164892D01*
X0027958Y0165678D02*
X0145695Y0165678D01*
X0146481Y0166464D02*
X0027172Y0166464D01*
X0026386Y0167250D02*
X0147267Y0167250D01*
X0148851Y0168036D02*
X0024802Y0168036D01*
X0011449Y0120881D02*
X0075710Y0120881D01*
X0075505Y0120796D02*
X0074437Y0119728D01*
X0073860Y0118334D01*
X0073860Y0111225D01*
X0074437Y0109831D01*
X0075505Y0108763D01*
X0076899Y0108186D01*
X0078408Y0108186D01*
X0079802Y0108763D01*
X0080870Y0109831D01*
X0081447Y0111225D01*
X0081447Y0118334D01*
X0080870Y0119728D01*
X0079802Y0120796D01*
X0078408Y0121373D01*
X0076899Y0121373D01*
X0075505Y0120796D01*
X0074804Y0120095D02*
X0011449Y0120095D01*
X0011449Y0119309D02*
X0074264Y0119309D01*
X0073938Y0118523D02*
X0011449Y0118523D01*
X0011449Y0117737D02*
X0073860Y0117737D01*
X0073860Y0116951D02*
X0011449Y0116951D01*
X0011449Y0116165D02*
X0073860Y0116165D01*
X0073860Y0115379D02*
X0011449Y0115379D01*
X0011449Y0114593D02*
X0073860Y0114593D01*
X0073860Y0113808D02*
X0011449Y0113808D01*
X0011449Y0113022D02*
X0073860Y0113022D01*
X0073860Y0112236D02*
X0011449Y0112236D01*
X0011449Y0111450D02*
X0073860Y0111450D01*
X0074092Y0110664D02*
X0011449Y0110664D01*
X0011449Y0109878D02*
X0074418Y0109878D01*
X0075176Y0109092D02*
X0011449Y0109092D01*
X0011449Y0108306D02*
X0076608Y0108306D01*
X0078699Y0108306D02*
X0086608Y0108306D01*
X0085176Y0109092D02*
X0080131Y0109092D01*
X0080889Y0109878D02*
X0084418Y0109878D01*
X0084092Y0110664D02*
X0081215Y0110664D01*
X0081447Y0111450D02*
X0083860Y0111450D01*
X0083860Y0112236D02*
X0081447Y0112236D01*
X0081447Y0113022D02*
X0083860Y0113022D01*
X0083860Y0113808D02*
X0081447Y0113808D01*
X0081447Y0114593D02*
X0083860Y0114593D01*
X0083860Y0115379D02*
X0081447Y0115379D01*
X0081447Y0116165D02*
X0083860Y0116165D01*
X0083860Y0116951D02*
X0081447Y0116951D01*
X0081447Y0117737D02*
X0083860Y0117737D01*
X0083938Y0118523D02*
X0081369Y0118523D01*
X0081043Y0119309D02*
X0084264Y0119309D01*
X0084804Y0120095D02*
X0080503Y0120095D01*
X0079597Y0120881D02*
X0085710Y0120881D01*
X0091447Y0113022D02*
X0111719Y0113022D01*
X0111719Y0112236D02*
X0091447Y0112236D01*
X0091447Y0111450D02*
X0111719Y0111450D01*
X0111719Y0110664D02*
X0091215Y0110664D01*
X0090889Y0109878D02*
X0111719Y0109878D01*
X0111719Y0109092D02*
X0090131Y0109092D01*
X0088699Y0108306D02*
X0111719Y0108306D01*
X0111719Y0107520D02*
X0011449Y0107520D01*
X0011449Y0106734D02*
X0111719Y0106734D01*
X0111772Y0105948D02*
X0011449Y0105948D01*
X0011449Y0100447D02*
X0045060Y0100447D01*
X0043852Y0099661D02*
X0011449Y0099661D01*
X0011449Y0098875D02*
X0043066Y0098875D01*
X0042280Y0098089D02*
X0011449Y0098089D01*
X0011449Y0097303D02*
X0041796Y0097303D01*
X0041470Y0096517D02*
X0011449Y0096517D01*
X0011449Y0095732D02*
X0041145Y0095732D01*
X0040819Y0094946D02*
X0011449Y0094946D01*
X0011449Y0094160D02*
X0040748Y0094160D01*
X0040748Y0093374D02*
X0011449Y0093374D01*
X0011449Y0092588D02*
X0040748Y0092588D01*
X0040748Y0091802D02*
X0011449Y0091802D01*
X0011449Y0091016D02*
X0040939Y0091016D01*
X0041265Y0090230D02*
X0011449Y0090230D01*
X0011449Y0089444D02*
X0041591Y0089444D01*
X0041916Y0088658D02*
X0011449Y0088658D01*
X0011449Y0087872D02*
X0042570Y0087872D01*
X0043356Y0087086D02*
X0011449Y0087086D01*
X0011449Y0086301D02*
X0044142Y0086301D01*
X0045761Y0085515D02*
X0011449Y0085515D01*
X0064780Y0083283D02*
X0072654Y0091157D01*
X0074168Y0089444D02*
X0096144Y0089444D01*
X0096929Y0090230D02*
X0074936Y0090230D01*
X0074936Y0091016D02*
X0097715Y0091016D01*
X0098038Y0091802D02*
X0074936Y0091802D01*
X0074451Y0092588D02*
X0098038Y0092588D01*
X0098038Y0093374D02*
X0073665Y0093374D01*
X0072116Y0088658D02*
X0094092Y0088658D01*
X0093306Y0087872D02*
X0071331Y0087872D01*
X0070545Y0087086D02*
X0092812Y0087086D01*
X0092812Y0086301D02*
X0069759Y0086301D01*
X0068973Y0085515D02*
X0092812Y0085515D01*
X0093571Y0084729D02*
X0068187Y0084729D01*
X0067401Y0083943D02*
X0162205Y0083943D01*
X0162205Y0084729D02*
X0096618Y0084729D01*
X0097377Y0085515D02*
X0162205Y0085515D01*
X0162205Y0086301D02*
X0097377Y0086301D01*
X0097710Y0087086D02*
X0162205Y0087086D01*
X0162205Y0087872D02*
X0098496Y0087872D01*
X0099282Y0088658D02*
X0162205Y0088658D01*
X0162205Y0089444D02*
X0100068Y0089444D01*
X0100000Y0089376D02*
X0100000Y0089376D01*
X0100813Y0090230D02*
X0162205Y0090230D01*
X0162205Y0091016D02*
X0100813Y0091016D01*
X0100813Y0091802D02*
X0162205Y0091802D01*
X0162205Y0092588D02*
X0100813Y0092588D01*
X0100813Y0093374D02*
X0162205Y0093374D01*
X0162205Y0094160D02*
X0100813Y0094160D01*
X0100813Y0094946D02*
X0162205Y0094946D01*
X0162205Y0095732D02*
X0100813Y0095732D01*
X0100813Y0096517D02*
X0162205Y0096517D01*
X0162205Y0097303D02*
X0100813Y0097303D01*
X0100813Y0098089D02*
X0162205Y0098089D01*
X0162205Y0098875D02*
X0100851Y0098875D01*
X0101637Y0099661D02*
X0162205Y0099661D01*
X0162205Y0100447D02*
X0101708Y0100447D01*
X0101708Y0101233D02*
X0162205Y0101233D01*
X0162205Y0102019D02*
X0101312Y0102019D01*
X0100527Y0102805D02*
X0162205Y0102805D01*
X0162205Y0083157D02*
X0067062Y0083157D01*
X0067062Y0082371D02*
X0162205Y0082371D01*
X0162205Y0081585D02*
X0066309Y0081585D01*
X0095094Y0086433D02*
X0099425Y0090764D01*
X0099425Y0100678D01*
X0099578Y0055650D02*
X0135280Y0055650D01*
X0135479Y0054864D02*
X0100133Y0054864D01*
X0100133Y0054078D02*
X0136265Y0054078D01*
X0137051Y0053292D02*
X0100133Y0053292D01*
X0159277Y0010067D02*
X0014376Y0010067D01*
X0013590Y0010853D02*
X0160063Y0010853D01*
X0160849Y0011639D02*
X0012805Y0011639D01*
D17*
X0026984Y0012811D03*
X0015961Y0028559D03*
X0015961Y0052181D03*
X0047850Y0068717D03*
X0064780Y0083283D03*
X0072654Y0091157D03*
X0079740Y0093913D03*
X0088008Y0082496D03*
X0095094Y0086433D03*
X0098244Y0082496D03*
X0099425Y0100678D03*
X0117535Y0083677D03*
X0130134Y0087614D03*
X0157693Y0069504D03*
X0154937Y0036433D03*
X0128165Y0013992D03*
X0101000Y0044701D03*
X0097850Y0054150D03*
X0089189Y0049425D03*
X0079346Y0072260D03*
X0068717Y0071079D03*
X0063205Y0095094D03*
X0054937Y0103362D03*
X0040370Y0118323D03*
X0015173Y0127378D03*
X0053362Y0163992D03*
X0090764Y0163205D03*
X0091551Y0141945D03*
X0133677Y0160055D03*
X0141945Y0142732D03*
X0157693Y0143126D03*
X0078953Y0013205D03*
X0013992Y0086827D03*
D18*
X0050606Y0037024D02*
X0051197Y0037024D01*
X0059661Y0028559D01*
X0059661Y0026063D01*
X0064386Y0021339D01*
X0080528Y0021339D01*
X0088008Y0028819D01*
X0088008Y0032102D01*
M02*
