G75*
%MOIN*%
%OFA0B0*%
%FSLAX25Y25*%
%IPPOS*%
%LPD*%
%AMOC8*
5,1,8,0,0,1.08239X$1,22.5*
%
%ADD10C,0.00787*%
%ADD11C,0.00600*%
%ADD12C,0.00700*%
D10*
X0039976Y0043548D02*
X0039976Y0056090D01*
X0039976Y0054937D02*
X0042732Y0054937D01*
X0042732Y0044701D01*
X0039976Y0044701D01*
X0039976Y0043548D02*
X0039978Y0043386D01*
X0039984Y0043223D01*
X0039994Y0043061D01*
X0040007Y0042899D01*
X0040025Y0042738D01*
X0040047Y0042577D01*
X0040072Y0042416D01*
X0040101Y0042257D01*
X0040134Y0042098D01*
X0040171Y0041940D01*
X0040212Y0041782D01*
X0040257Y0041626D01*
X0040305Y0041471D01*
X0040357Y0041317D01*
X0040413Y0041165D01*
X0040472Y0041014D01*
X0040535Y0040864D01*
X0040602Y0040716D01*
X0040672Y0040569D01*
X0040746Y0040425D01*
X0040823Y0040282D01*
X0040904Y0040141D01*
X0040988Y0040002D01*
X0041075Y0039865D01*
X0041166Y0039730D01*
X0041260Y0039597D01*
X0041357Y0039467D01*
X0041457Y0039339D01*
X0041560Y0039214D01*
X0041666Y0039091D01*
X0041775Y0038971D01*
X0041887Y0038853D01*
X0042002Y0038738D01*
X0042120Y0038626D01*
X0042240Y0038517D01*
X0042363Y0038411D01*
X0042488Y0038308D01*
X0042616Y0038208D01*
X0042746Y0038111D01*
X0042879Y0038017D01*
X0043014Y0037926D01*
X0043151Y0037839D01*
X0043290Y0037755D01*
X0043431Y0037674D01*
X0043574Y0037597D01*
X0043718Y0037523D01*
X0043865Y0037453D01*
X0044013Y0037386D01*
X0044163Y0037323D01*
X0044314Y0037264D01*
X0044466Y0037208D01*
X0044620Y0037156D01*
X0044775Y0037108D01*
X0044931Y0037063D01*
X0045089Y0037022D01*
X0045247Y0036985D01*
X0045406Y0036952D01*
X0045565Y0036923D01*
X0045726Y0036898D01*
X0045887Y0036876D01*
X0046048Y0036858D01*
X0046210Y0036845D01*
X0046372Y0036835D01*
X0046535Y0036829D01*
X0046697Y0036827D01*
X0047457Y0036827D01*
X0047457Y0039583D01*
X0057693Y0039583D01*
X0057693Y0036827D01*
X0047457Y0036827D01*
X0057693Y0036827D02*
X0058509Y0036827D01*
X0058509Y0036826D02*
X0058670Y0036828D01*
X0058831Y0036834D01*
X0058992Y0036844D01*
X0059152Y0036857D01*
X0059312Y0036875D01*
X0059472Y0036896D01*
X0059631Y0036921D01*
X0059790Y0036950D01*
X0059947Y0036983D01*
X0060104Y0037020D01*
X0060260Y0037060D01*
X0060415Y0037104D01*
X0060569Y0037152D01*
X0060721Y0037204D01*
X0060872Y0037259D01*
X0061022Y0037318D01*
X0061171Y0037381D01*
X0061318Y0037447D01*
X0061463Y0037516D01*
X0061606Y0037589D01*
X0061748Y0037666D01*
X0061888Y0037746D01*
X0062026Y0037829D01*
X0062162Y0037916D01*
X0062295Y0038006D01*
X0062427Y0038099D01*
X0062556Y0038195D01*
X0062683Y0038294D01*
X0062807Y0038397D01*
X0062929Y0038502D01*
X0063048Y0038610D01*
X0063165Y0038722D01*
X0063278Y0038835D01*
X0063390Y0038952D01*
X0063498Y0039071D01*
X0063603Y0039193D01*
X0063706Y0039317D01*
X0063805Y0039444D01*
X0063901Y0039573D01*
X0063994Y0039705D01*
X0064084Y0039838D01*
X0064171Y0039974D01*
X0064254Y0040112D01*
X0064334Y0040252D01*
X0064411Y0040394D01*
X0064484Y0040537D01*
X0064553Y0040682D01*
X0064619Y0040829D01*
X0064682Y0040978D01*
X0064741Y0041128D01*
X0064796Y0041279D01*
X0064848Y0041431D01*
X0064896Y0041585D01*
X0064940Y0041740D01*
X0064980Y0041896D01*
X0065017Y0042053D01*
X0065050Y0042210D01*
X0065079Y0042369D01*
X0065104Y0042528D01*
X0065125Y0042688D01*
X0065143Y0042848D01*
X0065156Y0043008D01*
X0065166Y0043169D01*
X0065172Y0043330D01*
X0065174Y0043491D01*
X0065173Y0043491D02*
X0065173Y0056090D01*
X0065173Y0054937D02*
X0062417Y0054937D01*
X0062417Y0044701D01*
X0065173Y0044701D01*
X0065173Y0056090D02*
X0065171Y0056252D01*
X0065165Y0056415D01*
X0065155Y0056577D01*
X0065142Y0056739D01*
X0065124Y0056900D01*
X0065102Y0057061D01*
X0065077Y0057222D01*
X0065048Y0057381D01*
X0065015Y0057540D01*
X0064978Y0057698D01*
X0064937Y0057856D01*
X0064892Y0058012D01*
X0064844Y0058167D01*
X0064792Y0058321D01*
X0064736Y0058473D01*
X0064677Y0058624D01*
X0064614Y0058774D01*
X0064547Y0058922D01*
X0064477Y0059069D01*
X0064403Y0059213D01*
X0064326Y0059356D01*
X0064245Y0059497D01*
X0064161Y0059636D01*
X0064074Y0059773D01*
X0063983Y0059908D01*
X0063889Y0060041D01*
X0063792Y0060171D01*
X0063692Y0060299D01*
X0063589Y0060424D01*
X0063483Y0060547D01*
X0063374Y0060667D01*
X0063262Y0060785D01*
X0063147Y0060900D01*
X0063029Y0061012D01*
X0062909Y0061121D01*
X0062786Y0061227D01*
X0062661Y0061330D01*
X0062533Y0061430D01*
X0062403Y0061527D01*
X0062270Y0061621D01*
X0062135Y0061712D01*
X0061998Y0061799D01*
X0061859Y0061883D01*
X0061718Y0061964D01*
X0061575Y0062041D01*
X0061431Y0062115D01*
X0061284Y0062185D01*
X0061136Y0062252D01*
X0060986Y0062315D01*
X0060835Y0062374D01*
X0060683Y0062430D01*
X0060529Y0062482D01*
X0060374Y0062530D01*
X0060218Y0062575D01*
X0060060Y0062616D01*
X0059902Y0062653D01*
X0059743Y0062686D01*
X0059584Y0062715D01*
X0059423Y0062740D01*
X0059262Y0062762D01*
X0059101Y0062780D01*
X0058939Y0062793D01*
X0058777Y0062803D01*
X0058614Y0062809D01*
X0058452Y0062811D01*
X0046697Y0062811D01*
X0047850Y0062811D02*
X0047850Y0060055D01*
X0058087Y0060055D01*
X0058087Y0062811D01*
X0046697Y0062811D02*
X0046535Y0062809D01*
X0046372Y0062803D01*
X0046210Y0062793D01*
X0046048Y0062780D01*
X0045887Y0062762D01*
X0045726Y0062740D01*
X0045565Y0062715D01*
X0045406Y0062686D01*
X0045247Y0062653D01*
X0045089Y0062616D01*
X0044931Y0062575D01*
X0044775Y0062530D01*
X0044620Y0062482D01*
X0044466Y0062430D01*
X0044314Y0062374D01*
X0044163Y0062315D01*
X0044013Y0062252D01*
X0043865Y0062185D01*
X0043718Y0062115D01*
X0043574Y0062041D01*
X0043431Y0061964D01*
X0043290Y0061883D01*
X0043151Y0061799D01*
X0043014Y0061712D01*
X0042879Y0061621D01*
X0042746Y0061527D01*
X0042616Y0061430D01*
X0042488Y0061330D01*
X0042363Y0061227D01*
X0042240Y0061121D01*
X0042120Y0061012D01*
X0042002Y0060900D01*
X0041887Y0060785D01*
X0041775Y0060667D01*
X0041666Y0060547D01*
X0041560Y0060424D01*
X0041457Y0060299D01*
X0041357Y0060171D01*
X0041260Y0060041D01*
X0041166Y0059908D01*
X0041075Y0059773D01*
X0040988Y0059636D01*
X0040904Y0059497D01*
X0040823Y0059356D01*
X0040746Y0059213D01*
X0040672Y0059069D01*
X0040602Y0058922D01*
X0040535Y0058774D01*
X0040472Y0058624D01*
X0040413Y0058473D01*
X0040357Y0058321D01*
X0040305Y0058167D01*
X0040257Y0058012D01*
X0040212Y0057856D01*
X0040171Y0057698D01*
X0040134Y0057540D01*
X0040101Y0057381D01*
X0040072Y0057222D01*
X0040047Y0057061D01*
X0040025Y0056900D01*
X0040007Y0056739D01*
X0039994Y0056577D01*
X0039984Y0056415D01*
X0039978Y0056252D01*
X0039976Y0056090D01*
X0026197Y0051986D02*
X0026204Y0052552D01*
X0026224Y0053118D01*
X0026259Y0053683D01*
X0026306Y0054247D01*
X0026368Y0054809D01*
X0026443Y0055370D01*
X0026531Y0055929D01*
X0026633Y0056486D01*
X0026749Y0057040D01*
X0026878Y0057591D01*
X0027020Y0058139D01*
X0027175Y0058684D01*
X0027343Y0059224D01*
X0027525Y0059760D01*
X0027719Y0060292D01*
X0027926Y0060819D01*
X0028146Y0061340D01*
X0028378Y0061856D01*
X0028623Y0062367D01*
X0028880Y0062871D01*
X0029149Y0063369D01*
X0029430Y0063861D01*
X0029723Y0064345D01*
X0030027Y0064822D01*
X0030343Y0065292D01*
X0030670Y0065754D01*
X0031009Y0066208D01*
X0031358Y0066653D01*
X0031717Y0067090D01*
X0032088Y0067518D01*
X0032468Y0067937D01*
X0032859Y0068347D01*
X0033259Y0068747D01*
X0033669Y0069138D01*
X0034088Y0069518D01*
X0034516Y0069889D01*
X0034953Y0070248D01*
X0035398Y0070597D01*
X0035852Y0070936D01*
X0036314Y0071263D01*
X0036784Y0071579D01*
X0037261Y0071883D01*
X0037745Y0072176D01*
X0038237Y0072457D01*
X0038735Y0072726D01*
X0039239Y0072983D01*
X0039750Y0073228D01*
X0040266Y0073460D01*
X0040787Y0073680D01*
X0041314Y0073887D01*
X0041846Y0074081D01*
X0042382Y0074263D01*
X0042922Y0074431D01*
X0043467Y0074586D01*
X0044015Y0074728D01*
X0044566Y0074857D01*
X0045120Y0074973D01*
X0045677Y0075075D01*
X0046236Y0075163D01*
X0046797Y0075238D01*
X0047359Y0075300D01*
X0047923Y0075347D01*
X0048488Y0075382D01*
X0049054Y0075402D01*
X0049620Y0075409D01*
X0105136Y0075409D01*
X0105702Y0075402D01*
X0106268Y0075382D01*
X0106833Y0075347D01*
X0107397Y0075300D01*
X0107959Y0075238D01*
X0108520Y0075163D01*
X0109079Y0075075D01*
X0109636Y0074973D01*
X0110190Y0074857D01*
X0110741Y0074728D01*
X0111289Y0074586D01*
X0111834Y0074431D01*
X0112374Y0074263D01*
X0112910Y0074081D01*
X0113442Y0073887D01*
X0113969Y0073680D01*
X0114490Y0073460D01*
X0115006Y0073228D01*
X0115517Y0072983D01*
X0116021Y0072726D01*
X0116519Y0072457D01*
X0117011Y0072176D01*
X0117495Y0071883D01*
X0117972Y0071579D01*
X0118442Y0071263D01*
X0118904Y0070936D01*
X0119358Y0070597D01*
X0119803Y0070248D01*
X0120240Y0069889D01*
X0120668Y0069518D01*
X0121087Y0069138D01*
X0121497Y0068747D01*
X0121897Y0068347D01*
X0122288Y0067937D01*
X0122668Y0067518D01*
X0123039Y0067090D01*
X0123398Y0066653D01*
X0123747Y0066208D01*
X0124086Y0065754D01*
X0124413Y0065292D01*
X0124729Y0064822D01*
X0125033Y0064345D01*
X0125326Y0063861D01*
X0125607Y0063369D01*
X0125876Y0062871D01*
X0126133Y0062367D01*
X0126378Y0061856D01*
X0126610Y0061340D01*
X0126830Y0060819D01*
X0127037Y0060292D01*
X0127231Y0059760D01*
X0127413Y0059224D01*
X0127581Y0058684D01*
X0127736Y0058139D01*
X0127878Y0057591D01*
X0128007Y0057040D01*
X0128123Y0056486D01*
X0128225Y0055929D01*
X0128313Y0055370D01*
X0128388Y0054809D01*
X0128450Y0054247D01*
X0128497Y0053683D01*
X0128532Y0053118D01*
X0128552Y0052552D01*
X0128559Y0051986D01*
X0128559Y0047652D01*
X0128552Y0047086D01*
X0128532Y0046520D01*
X0128497Y0045955D01*
X0128450Y0045391D01*
X0128388Y0044829D01*
X0128313Y0044268D01*
X0128225Y0043709D01*
X0128123Y0043152D01*
X0128007Y0042598D01*
X0127878Y0042047D01*
X0127736Y0041499D01*
X0127581Y0040954D01*
X0127413Y0040414D01*
X0127231Y0039878D01*
X0127037Y0039346D01*
X0126830Y0038819D01*
X0126610Y0038298D01*
X0126378Y0037782D01*
X0126133Y0037271D01*
X0125876Y0036767D01*
X0125607Y0036269D01*
X0125326Y0035777D01*
X0125033Y0035293D01*
X0124729Y0034816D01*
X0124413Y0034346D01*
X0124086Y0033884D01*
X0123747Y0033430D01*
X0123398Y0032985D01*
X0123039Y0032548D01*
X0122668Y0032120D01*
X0122288Y0031701D01*
X0121897Y0031291D01*
X0121497Y0030891D01*
X0121087Y0030500D01*
X0120668Y0030120D01*
X0120240Y0029749D01*
X0119803Y0029390D01*
X0119358Y0029041D01*
X0118904Y0028702D01*
X0118442Y0028375D01*
X0117972Y0028059D01*
X0117495Y0027755D01*
X0117011Y0027462D01*
X0116519Y0027181D01*
X0116021Y0026912D01*
X0115517Y0026655D01*
X0115006Y0026410D01*
X0114490Y0026178D01*
X0113969Y0025958D01*
X0113442Y0025751D01*
X0112910Y0025557D01*
X0112374Y0025375D01*
X0111834Y0025207D01*
X0111289Y0025052D01*
X0110741Y0024910D01*
X0110190Y0024781D01*
X0109636Y0024665D01*
X0109079Y0024563D01*
X0108520Y0024475D01*
X0107959Y0024400D01*
X0107397Y0024338D01*
X0106833Y0024291D01*
X0106268Y0024256D01*
X0105702Y0024236D01*
X0105136Y0024229D01*
X0105136Y0024228D02*
X0049620Y0024228D01*
X0049620Y0024229D02*
X0049054Y0024236D01*
X0048488Y0024256D01*
X0047923Y0024291D01*
X0047359Y0024338D01*
X0046797Y0024400D01*
X0046236Y0024475D01*
X0045677Y0024563D01*
X0045120Y0024665D01*
X0044566Y0024781D01*
X0044015Y0024910D01*
X0043467Y0025052D01*
X0042922Y0025207D01*
X0042382Y0025375D01*
X0041846Y0025557D01*
X0041314Y0025751D01*
X0040787Y0025958D01*
X0040266Y0026178D01*
X0039750Y0026410D01*
X0039239Y0026655D01*
X0038735Y0026912D01*
X0038237Y0027181D01*
X0037745Y0027462D01*
X0037261Y0027755D01*
X0036784Y0028059D01*
X0036314Y0028375D01*
X0035852Y0028702D01*
X0035398Y0029041D01*
X0034953Y0029390D01*
X0034516Y0029749D01*
X0034088Y0030120D01*
X0033669Y0030500D01*
X0033259Y0030891D01*
X0032859Y0031291D01*
X0032468Y0031701D01*
X0032088Y0032120D01*
X0031717Y0032548D01*
X0031358Y0032985D01*
X0031009Y0033430D01*
X0030670Y0033884D01*
X0030343Y0034346D01*
X0030027Y0034816D01*
X0029723Y0035293D01*
X0029430Y0035777D01*
X0029149Y0036269D01*
X0028880Y0036767D01*
X0028623Y0037271D01*
X0028378Y0037782D01*
X0028146Y0038298D01*
X0027926Y0038819D01*
X0027719Y0039346D01*
X0027525Y0039878D01*
X0027343Y0040414D01*
X0027175Y0040954D01*
X0027020Y0041499D01*
X0026878Y0042047D01*
X0026749Y0042598D01*
X0026633Y0043152D01*
X0026531Y0043709D01*
X0026443Y0044268D01*
X0026368Y0044829D01*
X0026306Y0045391D01*
X0026259Y0045955D01*
X0026224Y0046520D01*
X0026204Y0047086D01*
X0026197Y0047652D01*
X0026197Y0051986D01*
X0049620Y0114780D02*
X0105136Y0114780D01*
X0106906Y0127378D02*
X0106906Y0130134D01*
X0096669Y0130134D01*
X0096669Y0127378D01*
X0096304Y0127378D02*
X0108059Y0127378D01*
X0108221Y0127380D01*
X0108384Y0127386D01*
X0108546Y0127396D01*
X0108708Y0127409D01*
X0108869Y0127427D01*
X0109030Y0127449D01*
X0109191Y0127474D01*
X0109350Y0127503D01*
X0109509Y0127536D01*
X0109667Y0127573D01*
X0109825Y0127614D01*
X0109981Y0127659D01*
X0110136Y0127707D01*
X0110290Y0127759D01*
X0110442Y0127815D01*
X0110593Y0127874D01*
X0110743Y0127937D01*
X0110891Y0128004D01*
X0111038Y0128074D01*
X0111182Y0128148D01*
X0111325Y0128225D01*
X0111466Y0128306D01*
X0111605Y0128390D01*
X0111742Y0128477D01*
X0111877Y0128568D01*
X0112010Y0128662D01*
X0112140Y0128759D01*
X0112268Y0128859D01*
X0112393Y0128962D01*
X0112516Y0129068D01*
X0112636Y0129177D01*
X0112754Y0129289D01*
X0112869Y0129404D01*
X0112981Y0129522D01*
X0113090Y0129642D01*
X0113196Y0129765D01*
X0113299Y0129890D01*
X0113399Y0130018D01*
X0113496Y0130148D01*
X0113590Y0130281D01*
X0113681Y0130416D01*
X0113768Y0130553D01*
X0113852Y0130692D01*
X0113933Y0130833D01*
X0114010Y0130976D01*
X0114084Y0131120D01*
X0114154Y0131267D01*
X0114221Y0131415D01*
X0114284Y0131565D01*
X0114343Y0131716D01*
X0114399Y0131868D01*
X0114451Y0132022D01*
X0114499Y0132177D01*
X0114544Y0132333D01*
X0114585Y0132491D01*
X0114622Y0132649D01*
X0114655Y0132808D01*
X0114684Y0132967D01*
X0114709Y0133128D01*
X0114731Y0133289D01*
X0114749Y0133450D01*
X0114762Y0133612D01*
X0114772Y0133774D01*
X0114778Y0133937D01*
X0114780Y0134099D01*
X0114780Y0146641D01*
X0114780Y0145488D02*
X0112024Y0145488D01*
X0112024Y0135252D01*
X0114780Y0135252D01*
X0128559Y0138203D02*
X0128552Y0137637D01*
X0128532Y0137071D01*
X0128497Y0136506D01*
X0128450Y0135942D01*
X0128388Y0135380D01*
X0128313Y0134819D01*
X0128225Y0134260D01*
X0128123Y0133703D01*
X0128007Y0133149D01*
X0127878Y0132598D01*
X0127736Y0132050D01*
X0127581Y0131505D01*
X0127413Y0130965D01*
X0127231Y0130429D01*
X0127037Y0129897D01*
X0126830Y0129370D01*
X0126610Y0128849D01*
X0126378Y0128333D01*
X0126133Y0127822D01*
X0125876Y0127318D01*
X0125607Y0126820D01*
X0125326Y0126328D01*
X0125033Y0125844D01*
X0124729Y0125367D01*
X0124413Y0124897D01*
X0124086Y0124435D01*
X0123747Y0123981D01*
X0123398Y0123536D01*
X0123039Y0123099D01*
X0122668Y0122671D01*
X0122288Y0122252D01*
X0121897Y0121842D01*
X0121497Y0121442D01*
X0121087Y0121051D01*
X0120668Y0120671D01*
X0120240Y0120300D01*
X0119803Y0119941D01*
X0119358Y0119592D01*
X0118904Y0119253D01*
X0118442Y0118926D01*
X0117972Y0118610D01*
X0117495Y0118306D01*
X0117011Y0118013D01*
X0116519Y0117732D01*
X0116021Y0117463D01*
X0115517Y0117206D01*
X0115006Y0116961D01*
X0114490Y0116729D01*
X0113969Y0116509D01*
X0113442Y0116302D01*
X0112910Y0116108D01*
X0112374Y0115926D01*
X0111834Y0115758D01*
X0111289Y0115603D01*
X0110741Y0115461D01*
X0110190Y0115332D01*
X0109636Y0115216D01*
X0109079Y0115114D01*
X0108520Y0115026D01*
X0107959Y0114951D01*
X0107397Y0114889D01*
X0106833Y0114842D01*
X0106268Y0114807D01*
X0105702Y0114787D01*
X0105136Y0114780D01*
X0096304Y0127378D02*
X0096142Y0127380D01*
X0095979Y0127386D01*
X0095817Y0127396D01*
X0095655Y0127409D01*
X0095494Y0127427D01*
X0095333Y0127449D01*
X0095172Y0127474D01*
X0095013Y0127503D01*
X0094854Y0127536D01*
X0094696Y0127573D01*
X0094538Y0127614D01*
X0094382Y0127659D01*
X0094227Y0127707D01*
X0094073Y0127759D01*
X0093921Y0127815D01*
X0093770Y0127874D01*
X0093620Y0127937D01*
X0093472Y0128004D01*
X0093325Y0128074D01*
X0093181Y0128148D01*
X0093038Y0128225D01*
X0092897Y0128306D01*
X0092758Y0128390D01*
X0092621Y0128477D01*
X0092486Y0128568D01*
X0092353Y0128662D01*
X0092223Y0128759D01*
X0092095Y0128859D01*
X0091970Y0128962D01*
X0091847Y0129068D01*
X0091727Y0129177D01*
X0091609Y0129289D01*
X0091494Y0129404D01*
X0091382Y0129522D01*
X0091273Y0129642D01*
X0091167Y0129765D01*
X0091064Y0129890D01*
X0090964Y0130018D01*
X0090867Y0130148D01*
X0090773Y0130281D01*
X0090682Y0130416D01*
X0090595Y0130553D01*
X0090511Y0130692D01*
X0090430Y0130833D01*
X0090353Y0130976D01*
X0090279Y0131120D01*
X0090209Y0131267D01*
X0090142Y0131415D01*
X0090079Y0131565D01*
X0090020Y0131716D01*
X0089964Y0131868D01*
X0089912Y0132022D01*
X0089864Y0132177D01*
X0089819Y0132333D01*
X0089778Y0132491D01*
X0089741Y0132649D01*
X0089708Y0132808D01*
X0089679Y0132967D01*
X0089654Y0133128D01*
X0089632Y0133289D01*
X0089614Y0133450D01*
X0089601Y0133612D01*
X0089591Y0133774D01*
X0089585Y0133937D01*
X0089583Y0134099D01*
X0089583Y0146698D01*
X0089583Y0145488D02*
X0092339Y0145488D01*
X0092339Y0135252D01*
X0089583Y0135252D01*
X0089582Y0146698D02*
X0089584Y0146859D01*
X0089590Y0147020D01*
X0089600Y0147181D01*
X0089613Y0147341D01*
X0089631Y0147501D01*
X0089652Y0147661D01*
X0089677Y0147820D01*
X0089706Y0147979D01*
X0089739Y0148136D01*
X0089776Y0148293D01*
X0089816Y0148449D01*
X0089860Y0148604D01*
X0089908Y0148758D01*
X0089960Y0148910D01*
X0090015Y0149061D01*
X0090074Y0149211D01*
X0090137Y0149360D01*
X0090203Y0149507D01*
X0090272Y0149652D01*
X0090345Y0149795D01*
X0090422Y0149937D01*
X0090502Y0150077D01*
X0090585Y0150215D01*
X0090672Y0150351D01*
X0090762Y0150484D01*
X0090855Y0150616D01*
X0090951Y0150745D01*
X0091050Y0150872D01*
X0091153Y0150996D01*
X0091258Y0151118D01*
X0091366Y0151237D01*
X0091478Y0151354D01*
X0091591Y0151467D01*
X0091708Y0151579D01*
X0091827Y0151687D01*
X0091949Y0151792D01*
X0092073Y0151895D01*
X0092200Y0151994D01*
X0092329Y0152090D01*
X0092461Y0152183D01*
X0092594Y0152273D01*
X0092730Y0152360D01*
X0092868Y0152443D01*
X0093008Y0152523D01*
X0093150Y0152600D01*
X0093293Y0152673D01*
X0093438Y0152742D01*
X0093585Y0152808D01*
X0093734Y0152871D01*
X0093884Y0152930D01*
X0094035Y0152985D01*
X0094187Y0153037D01*
X0094341Y0153085D01*
X0094496Y0153129D01*
X0094652Y0153169D01*
X0094809Y0153206D01*
X0094966Y0153239D01*
X0095125Y0153268D01*
X0095284Y0153293D01*
X0095444Y0153314D01*
X0095604Y0153332D01*
X0095764Y0153345D01*
X0095925Y0153355D01*
X0096086Y0153361D01*
X0096247Y0153363D01*
X0096247Y0153362D02*
X0097063Y0153362D01*
X0097063Y0150606D01*
X0107299Y0150606D01*
X0107299Y0153362D01*
X0108059Y0153362D01*
X0107299Y0153362D02*
X0097063Y0153362D01*
X0105136Y0165960D02*
X0105702Y0165953D01*
X0106268Y0165933D01*
X0106833Y0165898D01*
X0107397Y0165851D01*
X0107959Y0165789D01*
X0108520Y0165714D01*
X0109079Y0165626D01*
X0109636Y0165524D01*
X0110190Y0165408D01*
X0110741Y0165279D01*
X0111289Y0165137D01*
X0111834Y0164982D01*
X0112374Y0164814D01*
X0112910Y0164632D01*
X0113442Y0164438D01*
X0113969Y0164231D01*
X0114490Y0164011D01*
X0115006Y0163779D01*
X0115517Y0163534D01*
X0116021Y0163277D01*
X0116519Y0163008D01*
X0117011Y0162727D01*
X0117495Y0162434D01*
X0117972Y0162130D01*
X0118442Y0161814D01*
X0118904Y0161487D01*
X0119358Y0161148D01*
X0119803Y0160799D01*
X0120240Y0160440D01*
X0120668Y0160069D01*
X0121087Y0159689D01*
X0121497Y0159298D01*
X0121897Y0158898D01*
X0122288Y0158488D01*
X0122668Y0158069D01*
X0123039Y0157641D01*
X0123398Y0157204D01*
X0123747Y0156759D01*
X0124086Y0156305D01*
X0124413Y0155843D01*
X0124729Y0155373D01*
X0125033Y0154896D01*
X0125326Y0154412D01*
X0125607Y0153920D01*
X0125876Y0153422D01*
X0126133Y0152918D01*
X0126378Y0152407D01*
X0126610Y0151891D01*
X0126830Y0151370D01*
X0127037Y0150843D01*
X0127231Y0150311D01*
X0127413Y0149775D01*
X0127581Y0149235D01*
X0127736Y0148690D01*
X0127878Y0148142D01*
X0128007Y0147591D01*
X0128123Y0147037D01*
X0128225Y0146480D01*
X0128313Y0145921D01*
X0128388Y0145360D01*
X0128450Y0144798D01*
X0128497Y0144234D01*
X0128532Y0143669D01*
X0128552Y0143103D01*
X0128559Y0142537D01*
X0128559Y0138203D01*
X0114780Y0146641D02*
X0114778Y0146803D01*
X0114772Y0146966D01*
X0114762Y0147128D01*
X0114749Y0147290D01*
X0114731Y0147451D01*
X0114709Y0147612D01*
X0114684Y0147773D01*
X0114655Y0147932D01*
X0114622Y0148091D01*
X0114585Y0148249D01*
X0114544Y0148407D01*
X0114499Y0148563D01*
X0114451Y0148718D01*
X0114399Y0148872D01*
X0114343Y0149024D01*
X0114284Y0149175D01*
X0114221Y0149325D01*
X0114154Y0149473D01*
X0114084Y0149620D01*
X0114010Y0149764D01*
X0113933Y0149907D01*
X0113852Y0150048D01*
X0113768Y0150187D01*
X0113681Y0150324D01*
X0113590Y0150459D01*
X0113496Y0150592D01*
X0113399Y0150722D01*
X0113299Y0150850D01*
X0113196Y0150975D01*
X0113090Y0151098D01*
X0112981Y0151218D01*
X0112869Y0151336D01*
X0112754Y0151451D01*
X0112636Y0151563D01*
X0112516Y0151672D01*
X0112393Y0151778D01*
X0112268Y0151881D01*
X0112140Y0151981D01*
X0112010Y0152078D01*
X0111877Y0152172D01*
X0111742Y0152263D01*
X0111605Y0152350D01*
X0111466Y0152434D01*
X0111325Y0152515D01*
X0111182Y0152592D01*
X0111038Y0152666D01*
X0110891Y0152736D01*
X0110743Y0152803D01*
X0110593Y0152866D01*
X0110442Y0152925D01*
X0110290Y0152981D01*
X0110136Y0153033D01*
X0109981Y0153081D01*
X0109825Y0153126D01*
X0109667Y0153167D01*
X0109509Y0153204D01*
X0109350Y0153237D01*
X0109191Y0153266D01*
X0109030Y0153291D01*
X0108869Y0153313D01*
X0108708Y0153331D01*
X0108546Y0153344D01*
X0108384Y0153354D01*
X0108221Y0153360D01*
X0108059Y0153362D01*
X0105136Y0165961D02*
X0049620Y0165961D01*
X0049620Y0165960D02*
X0049054Y0165953D01*
X0048488Y0165933D01*
X0047923Y0165898D01*
X0047359Y0165851D01*
X0046797Y0165789D01*
X0046236Y0165714D01*
X0045677Y0165626D01*
X0045120Y0165524D01*
X0044566Y0165408D01*
X0044015Y0165279D01*
X0043467Y0165137D01*
X0042922Y0164982D01*
X0042382Y0164814D01*
X0041846Y0164632D01*
X0041314Y0164438D01*
X0040787Y0164231D01*
X0040266Y0164011D01*
X0039750Y0163779D01*
X0039239Y0163534D01*
X0038735Y0163277D01*
X0038237Y0163008D01*
X0037745Y0162727D01*
X0037261Y0162434D01*
X0036784Y0162130D01*
X0036314Y0161814D01*
X0035852Y0161487D01*
X0035398Y0161148D01*
X0034953Y0160799D01*
X0034516Y0160440D01*
X0034088Y0160069D01*
X0033669Y0159689D01*
X0033259Y0159298D01*
X0032859Y0158898D01*
X0032468Y0158488D01*
X0032088Y0158069D01*
X0031717Y0157641D01*
X0031358Y0157204D01*
X0031009Y0156759D01*
X0030670Y0156305D01*
X0030343Y0155843D01*
X0030027Y0155373D01*
X0029723Y0154896D01*
X0029430Y0154412D01*
X0029149Y0153920D01*
X0028880Y0153422D01*
X0028623Y0152918D01*
X0028378Y0152407D01*
X0028146Y0151891D01*
X0027926Y0151370D01*
X0027719Y0150843D01*
X0027525Y0150311D01*
X0027343Y0149775D01*
X0027175Y0149235D01*
X0027020Y0148690D01*
X0026878Y0148142D01*
X0026749Y0147591D01*
X0026633Y0147037D01*
X0026531Y0146480D01*
X0026443Y0145921D01*
X0026368Y0145360D01*
X0026306Y0144798D01*
X0026259Y0144234D01*
X0026224Y0143669D01*
X0026204Y0143103D01*
X0026197Y0142537D01*
X0026197Y0138203D01*
X0026204Y0137637D01*
X0026224Y0137071D01*
X0026259Y0136506D01*
X0026306Y0135942D01*
X0026368Y0135380D01*
X0026443Y0134819D01*
X0026531Y0134260D01*
X0026633Y0133703D01*
X0026749Y0133149D01*
X0026878Y0132598D01*
X0027020Y0132050D01*
X0027175Y0131505D01*
X0027343Y0130965D01*
X0027525Y0130429D01*
X0027719Y0129897D01*
X0027926Y0129370D01*
X0028146Y0128849D01*
X0028378Y0128333D01*
X0028623Y0127822D01*
X0028880Y0127318D01*
X0029149Y0126820D01*
X0029430Y0126328D01*
X0029723Y0125844D01*
X0030027Y0125367D01*
X0030343Y0124897D01*
X0030670Y0124435D01*
X0031009Y0123981D01*
X0031358Y0123536D01*
X0031717Y0123099D01*
X0032088Y0122671D01*
X0032468Y0122252D01*
X0032859Y0121842D01*
X0033259Y0121442D01*
X0033669Y0121051D01*
X0034088Y0120671D01*
X0034516Y0120300D01*
X0034953Y0119941D01*
X0035398Y0119592D01*
X0035852Y0119253D01*
X0036314Y0118926D01*
X0036784Y0118610D01*
X0037261Y0118306D01*
X0037745Y0118013D01*
X0038237Y0117732D01*
X0038735Y0117463D01*
X0039239Y0117206D01*
X0039750Y0116961D01*
X0040266Y0116729D01*
X0040787Y0116509D01*
X0041314Y0116302D01*
X0041846Y0116108D01*
X0042382Y0115926D01*
X0042922Y0115758D01*
X0043467Y0115603D01*
X0044015Y0115461D01*
X0044566Y0115332D01*
X0045120Y0115216D01*
X0045677Y0115114D01*
X0046236Y0115026D01*
X0046797Y0114951D01*
X0047359Y0114889D01*
X0047923Y0114842D01*
X0048488Y0114807D01*
X0049054Y0114787D01*
X0049620Y0114780D01*
X0038598Y0140370D02*
X0038602Y0140708D01*
X0038615Y0141046D01*
X0038635Y0141384D01*
X0038664Y0141721D01*
X0038702Y0142057D01*
X0038747Y0142392D01*
X0038801Y0142726D01*
X0038863Y0143058D01*
X0038933Y0143389D01*
X0039011Y0143718D01*
X0039097Y0144045D01*
X0039191Y0144370D01*
X0039294Y0144693D01*
X0039404Y0145012D01*
X0039521Y0145329D01*
X0039647Y0145643D01*
X0039780Y0145954D01*
X0039921Y0146262D01*
X0040069Y0146566D01*
X0040225Y0146866D01*
X0040388Y0147162D01*
X0040558Y0147454D01*
X0040736Y0147742D01*
X0040920Y0148026D01*
X0041112Y0148305D01*
X0041310Y0148579D01*
X0041515Y0148848D01*
X0041726Y0149112D01*
X0041944Y0149371D01*
X0042168Y0149624D01*
X0042398Y0149872D01*
X0042634Y0150114D01*
X0042876Y0150350D01*
X0043124Y0150580D01*
X0043377Y0150804D01*
X0043636Y0151022D01*
X0043900Y0151233D01*
X0044169Y0151438D01*
X0044443Y0151636D01*
X0044722Y0151828D01*
X0045006Y0152012D01*
X0045294Y0152190D01*
X0045586Y0152360D01*
X0045882Y0152523D01*
X0046182Y0152679D01*
X0046486Y0152827D01*
X0046794Y0152968D01*
X0047105Y0153101D01*
X0047419Y0153227D01*
X0047736Y0153344D01*
X0048055Y0153454D01*
X0048378Y0153557D01*
X0048703Y0153651D01*
X0049030Y0153737D01*
X0049359Y0153815D01*
X0049690Y0153885D01*
X0050022Y0153947D01*
X0050356Y0154001D01*
X0050691Y0154046D01*
X0051027Y0154084D01*
X0051364Y0154113D01*
X0051702Y0154133D01*
X0052040Y0154146D01*
X0052378Y0154150D01*
X0052716Y0154146D01*
X0053054Y0154133D01*
X0053392Y0154113D01*
X0053729Y0154084D01*
X0054065Y0154046D01*
X0054400Y0154001D01*
X0054734Y0153947D01*
X0055066Y0153885D01*
X0055397Y0153815D01*
X0055726Y0153737D01*
X0056053Y0153651D01*
X0056378Y0153557D01*
X0056701Y0153454D01*
X0057020Y0153344D01*
X0057337Y0153227D01*
X0057651Y0153101D01*
X0057962Y0152968D01*
X0058270Y0152827D01*
X0058574Y0152679D01*
X0058874Y0152523D01*
X0059170Y0152360D01*
X0059462Y0152190D01*
X0059750Y0152012D01*
X0060034Y0151828D01*
X0060313Y0151636D01*
X0060587Y0151438D01*
X0060856Y0151233D01*
X0061120Y0151022D01*
X0061379Y0150804D01*
X0061632Y0150580D01*
X0061880Y0150350D01*
X0062122Y0150114D01*
X0062358Y0149872D01*
X0062588Y0149624D01*
X0062812Y0149371D01*
X0063030Y0149112D01*
X0063241Y0148848D01*
X0063446Y0148579D01*
X0063644Y0148305D01*
X0063836Y0148026D01*
X0064020Y0147742D01*
X0064198Y0147454D01*
X0064368Y0147162D01*
X0064531Y0146866D01*
X0064687Y0146566D01*
X0064835Y0146262D01*
X0064976Y0145954D01*
X0065109Y0145643D01*
X0065235Y0145329D01*
X0065352Y0145012D01*
X0065462Y0144693D01*
X0065565Y0144370D01*
X0065659Y0144045D01*
X0065745Y0143718D01*
X0065823Y0143389D01*
X0065893Y0143058D01*
X0065955Y0142726D01*
X0066009Y0142392D01*
X0066054Y0142057D01*
X0066092Y0141721D01*
X0066121Y0141384D01*
X0066141Y0141046D01*
X0066154Y0140708D01*
X0066158Y0140370D01*
X0066154Y0140032D01*
X0066141Y0139694D01*
X0066121Y0139356D01*
X0066092Y0139019D01*
X0066054Y0138683D01*
X0066009Y0138348D01*
X0065955Y0138014D01*
X0065893Y0137682D01*
X0065823Y0137351D01*
X0065745Y0137022D01*
X0065659Y0136695D01*
X0065565Y0136370D01*
X0065462Y0136047D01*
X0065352Y0135728D01*
X0065235Y0135411D01*
X0065109Y0135097D01*
X0064976Y0134786D01*
X0064835Y0134478D01*
X0064687Y0134174D01*
X0064531Y0133874D01*
X0064368Y0133578D01*
X0064198Y0133286D01*
X0064020Y0132998D01*
X0063836Y0132714D01*
X0063644Y0132435D01*
X0063446Y0132161D01*
X0063241Y0131892D01*
X0063030Y0131628D01*
X0062812Y0131369D01*
X0062588Y0131116D01*
X0062358Y0130868D01*
X0062122Y0130626D01*
X0061880Y0130390D01*
X0061632Y0130160D01*
X0061379Y0129936D01*
X0061120Y0129718D01*
X0060856Y0129507D01*
X0060587Y0129302D01*
X0060313Y0129104D01*
X0060034Y0128912D01*
X0059750Y0128728D01*
X0059462Y0128550D01*
X0059170Y0128380D01*
X0058874Y0128217D01*
X0058574Y0128061D01*
X0058270Y0127913D01*
X0057962Y0127772D01*
X0057651Y0127639D01*
X0057337Y0127513D01*
X0057020Y0127396D01*
X0056701Y0127286D01*
X0056378Y0127183D01*
X0056053Y0127089D01*
X0055726Y0127003D01*
X0055397Y0126925D01*
X0055066Y0126855D01*
X0054734Y0126793D01*
X0054400Y0126739D01*
X0054065Y0126694D01*
X0053729Y0126656D01*
X0053392Y0126627D01*
X0053054Y0126607D01*
X0052716Y0126594D01*
X0052378Y0126590D01*
X0052040Y0126594D01*
X0051702Y0126607D01*
X0051364Y0126627D01*
X0051027Y0126656D01*
X0050691Y0126694D01*
X0050356Y0126739D01*
X0050022Y0126793D01*
X0049690Y0126855D01*
X0049359Y0126925D01*
X0049030Y0127003D01*
X0048703Y0127089D01*
X0048378Y0127183D01*
X0048055Y0127286D01*
X0047736Y0127396D01*
X0047419Y0127513D01*
X0047105Y0127639D01*
X0046794Y0127772D01*
X0046486Y0127913D01*
X0046182Y0128061D01*
X0045882Y0128217D01*
X0045586Y0128380D01*
X0045294Y0128550D01*
X0045006Y0128728D01*
X0044722Y0128912D01*
X0044443Y0129104D01*
X0044169Y0129302D01*
X0043900Y0129507D01*
X0043636Y0129718D01*
X0043377Y0129936D01*
X0043124Y0130160D01*
X0042876Y0130390D01*
X0042634Y0130626D01*
X0042398Y0130868D01*
X0042168Y0131116D01*
X0041944Y0131369D01*
X0041726Y0131628D01*
X0041515Y0131892D01*
X0041310Y0132161D01*
X0041112Y0132435D01*
X0040920Y0132714D01*
X0040736Y0132998D01*
X0040558Y0133286D01*
X0040388Y0133578D01*
X0040225Y0133874D01*
X0040069Y0134174D01*
X0039921Y0134478D01*
X0039780Y0134786D01*
X0039647Y0135097D01*
X0039521Y0135411D01*
X0039404Y0135728D01*
X0039294Y0136047D01*
X0039191Y0136370D01*
X0039097Y0136695D01*
X0039011Y0137022D01*
X0038933Y0137351D01*
X0038863Y0137682D01*
X0038801Y0138014D01*
X0038747Y0138348D01*
X0038702Y0138683D01*
X0038664Y0139019D01*
X0038635Y0139356D01*
X0038615Y0139694D01*
X0038602Y0140032D01*
X0038598Y0140370D01*
X0040567Y0140370D02*
X0040571Y0140660D01*
X0040581Y0140950D01*
X0040599Y0141239D01*
X0040624Y0141528D01*
X0040656Y0141816D01*
X0040695Y0142103D01*
X0040741Y0142389D01*
X0040794Y0142674D01*
X0040854Y0142958D01*
X0040921Y0143240D01*
X0040995Y0143520D01*
X0041076Y0143799D01*
X0041163Y0144075D01*
X0041257Y0144349D01*
X0041358Y0144621D01*
X0041466Y0144890D01*
X0041580Y0145156D01*
X0041701Y0145420D01*
X0041828Y0145680D01*
X0041962Y0145938D01*
X0042101Y0146192D01*
X0042247Y0146442D01*
X0042399Y0146689D01*
X0042558Y0146932D01*
X0042722Y0147171D01*
X0042891Y0147406D01*
X0043067Y0147637D01*
X0043248Y0147863D01*
X0043435Y0148085D01*
X0043627Y0148302D01*
X0043824Y0148514D01*
X0044026Y0148722D01*
X0044234Y0148924D01*
X0044446Y0149121D01*
X0044663Y0149313D01*
X0044885Y0149500D01*
X0045111Y0149681D01*
X0045342Y0149857D01*
X0045577Y0150026D01*
X0045816Y0150190D01*
X0046059Y0150349D01*
X0046306Y0150501D01*
X0046556Y0150647D01*
X0046810Y0150786D01*
X0047068Y0150920D01*
X0047328Y0151047D01*
X0047592Y0151168D01*
X0047858Y0151282D01*
X0048127Y0151390D01*
X0048399Y0151491D01*
X0048673Y0151585D01*
X0048949Y0151672D01*
X0049228Y0151753D01*
X0049508Y0151827D01*
X0049790Y0151894D01*
X0050074Y0151954D01*
X0050359Y0152007D01*
X0050645Y0152053D01*
X0050932Y0152092D01*
X0051220Y0152124D01*
X0051509Y0152149D01*
X0051798Y0152167D01*
X0052088Y0152177D01*
X0052378Y0152181D01*
X0052668Y0152177D01*
X0052958Y0152167D01*
X0053247Y0152149D01*
X0053536Y0152124D01*
X0053824Y0152092D01*
X0054111Y0152053D01*
X0054397Y0152007D01*
X0054682Y0151954D01*
X0054966Y0151894D01*
X0055248Y0151827D01*
X0055528Y0151753D01*
X0055807Y0151672D01*
X0056083Y0151585D01*
X0056357Y0151491D01*
X0056629Y0151390D01*
X0056898Y0151282D01*
X0057164Y0151168D01*
X0057428Y0151047D01*
X0057688Y0150920D01*
X0057946Y0150786D01*
X0058200Y0150647D01*
X0058450Y0150501D01*
X0058697Y0150349D01*
X0058940Y0150190D01*
X0059179Y0150026D01*
X0059414Y0149857D01*
X0059645Y0149681D01*
X0059871Y0149500D01*
X0060093Y0149313D01*
X0060310Y0149121D01*
X0060522Y0148924D01*
X0060730Y0148722D01*
X0060932Y0148514D01*
X0061129Y0148302D01*
X0061321Y0148085D01*
X0061508Y0147863D01*
X0061689Y0147637D01*
X0061865Y0147406D01*
X0062034Y0147171D01*
X0062198Y0146932D01*
X0062357Y0146689D01*
X0062509Y0146442D01*
X0062655Y0146192D01*
X0062794Y0145938D01*
X0062928Y0145680D01*
X0063055Y0145420D01*
X0063176Y0145156D01*
X0063290Y0144890D01*
X0063398Y0144621D01*
X0063499Y0144349D01*
X0063593Y0144075D01*
X0063680Y0143799D01*
X0063761Y0143520D01*
X0063835Y0143240D01*
X0063902Y0142958D01*
X0063962Y0142674D01*
X0064015Y0142389D01*
X0064061Y0142103D01*
X0064100Y0141816D01*
X0064132Y0141528D01*
X0064157Y0141239D01*
X0064175Y0140950D01*
X0064185Y0140660D01*
X0064189Y0140370D01*
X0064185Y0140080D01*
X0064175Y0139790D01*
X0064157Y0139501D01*
X0064132Y0139212D01*
X0064100Y0138924D01*
X0064061Y0138637D01*
X0064015Y0138351D01*
X0063962Y0138066D01*
X0063902Y0137782D01*
X0063835Y0137500D01*
X0063761Y0137220D01*
X0063680Y0136941D01*
X0063593Y0136665D01*
X0063499Y0136391D01*
X0063398Y0136119D01*
X0063290Y0135850D01*
X0063176Y0135584D01*
X0063055Y0135320D01*
X0062928Y0135060D01*
X0062794Y0134802D01*
X0062655Y0134548D01*
X0062509Y0134298D01*
X0062357Y0134051D01*
X0062198Y0133808D01*
X0062034Y0133569D01*
X0061865Y0133334D01*
X0061689Y0133103D01*
X0061508Y0132877D01*
X0061321Y0132655D01*
X0061129Y0132438D01*
X0060932Y0132226D01*
X0060730Y0132018D01*
X0060522Y0131816D01*
X0060310Y0131619D01*
X0060093Y0131427D01*
X0059871Y0131240D01*
X0059645Y0131059D01*
X0059414Y0130883D01*
X0059179Y0130714D01*
X0058940Y0130550D01*
X0058697Y0130391D01*
X0058450Y0130239D01*
X0058200Y0130093D01*
X0057946Y0129954D01*
X0057688Y0129820D01*
X0057428Y0129693D01*
X0057164Y0129572D01*
X0056898Y0129458D01*
X0056629Y0129350D01*
X0056357Y0129249D01*
X0056083Y0129155D01*
X0055807Y0129068D01*
X0055528Y0128987D01*
X0055248Y0128913D01*
X0054966Y0128846D01*
X0054682Y0128786D01*
X0054397Y0128733D01*
X0054111Y0128687D01*
X0053824Y0128648D01*
X0053536Y0128616D01*
X0053247Y0128591D01*
X0052958Y0128573D01*
X0052668Y0128563D01*
X0052378Y0128559D01*
X0052088Y0128563D01*
X0051798Y0128573D01*
X0051509Y0128591D01*
X0051220Y0128616D01*
X0050932Y0128648D01*
X0050645Y0128687D01*
X0050359Y0128733D01*
X0050074Y0128786D01*
X0049790Y0128846D01*
X0049508Y0128913D01*
X0049228Y0128987D01*
X0048949Y0129068D01*
X0048673Y0129155D01*
X0048399Y0129249D01*
X0048127Y0129350D01*
X0047858Y0129458D01*
X0047592Y0129572D01*
X0047328Y0129693D01*
X0047068Y0129820D01*
X0046810Y0129954D01*
X0046556Y0130093D01*
X0046306Y0130239D01*
X0046059Y0130391D01*
X0045816Y0130550D01*
X0045577Y0130714D01*
X0045342Y0130883D01*
X0045111Y0131059D01*
X0044885Y0131240D01*
X0044663Y0131427D01*
X0044446Y0131619D01*
X0044234Y0131816D01*
X0044026Y0132018D01*
X0043824Y0132226D01*
X0043627Y0132438D01*
X0043435Y0132655D01*
X0043248Y0132877D01*
X0043067Y0133103D01*
X0042891Y0133334D01*
X0042722Y0133569D01*
X0042558Y0133808D01*
X0042399Y0134051D01*
X0042247Y0134298D01*
X0042101Y0134548D01*
X0041962Y0134802D01*
X0041828Y0135060D01*
X0041701Y0135320D01*
X0041580Y0135584D01*
X0041466Y0135850D01*
X0041358Y0136119D01*
X0041257Y0136391D01*
X0041163Y0136665D01*
X0041076Y0136941D01*
X0040995Y0137220D01*
X0040921Y0137500D01*
X0040854Y0137782D01*
X0040794Y0138066D01*
X0040741Y0138351D01*
X0040695Y0138637D01*
X0040656Y0138924D01*
X0040624Y0139212D01*
X0040599Y0139501D01*
X0040581Y0139790D01*
X0040571Y0140080D01*
X0040567Y0140370D01*
X0088598Y0049819D02*
X0088602Y0050157D01*
X0088615Y0050495D01*
X0088635Y0050833D01*
X0088664Y0051170D01*
X0088702Y0051506D01*
X0088747Y0051841D01*
X0088801Y0052175D01*
X0088863Y0052507D01*
X0088933Y0052838D01*
X0089011Y0053167D01*
X0089097Y0053494D01*
X0089191Y0053819D01*
X0089294Y0054142D01*
X0089404Y0054461D01*
X0089521Y0054778D01*
X0089647Y0055092D01*
X0089780Y0055403D01*
X0089921Y0055711D01*
X0090069Y0056015D01*
X0090225Y0056315D01*
X0090388Y0056611D01*
X0090558Y0056903D01*
X0090736Y0057191D01*
X0090920Y0057475D01*
X0091112Y0057754D01*
X0091310Y0058028D01*
X0091515Y0058297D01*
X0091726Y0058561D01*
X0091944Y0058820D01*
X0092168Y0059073D01*
X0092398Y0059321D01*
X0092634Y0059563D01*
X0092876Y0059799D01*
X0093124Y0060029D01*
X0093377Y0060253D01*
X0093636Y0060471D01*
X0093900Y0060682D01*
X0094169Y0060887D01*
X0094443Y0061085D01*
X0094722Y0061277D01*
X0095006Y0061461D01*
X0095294Y0061639D01*
X0095586Y0061809D01*
X0095882Y0061972D01*
X0096182Y0062128D01*
X0096486Y0062276D01*
X0096794Y0062417D01*
X0097105Y0062550D01*
X0097419Y0062676D01*
X0097736Y0062793D01*
X0098055Y0062903D01*
X0098378Y0063006D01*
X0098703Y0063100D01*
X0099030Y0063186D01*
X0099359Y0063264D01*
X0099690Y0063334D01*
X0100022Y0063396D01*
X0100356Y0063450D01*
X0100691Y0063495D01*
X0101027Y0063533D01*
X0101364Y0063562D01*
X0101702Y0063582D01*
X0102040Y0063595D01*
X0102378Y0063599D01*
X0102716Y0063595D01*
X0103054Y0063582D01*
X0103392Y0063562D01*
X0103729Y0063533D01*
X0104065Y0063495D01*
X0104400Y0063450D01*
X0104734Y0063396D01*
X0105066Y0063334D01*
X0105397Y0063264D01*
X0105726Y0063186D01*
X0106053Y0063100D01*
X0106378Y0063006D01*
X0106701Y0062903D01*
X0107020Y0062793D01*
X0107337Y0062676D01*
X0107651Y0062550D01*
X0107962Y0062417D01*
X0108270Y0062276D01*
X0108574Y0062128D01*
X0108874Y0061972D01*
X0109170Y0061809D01*
X0109462Y0061639D01*
X0109750Y0061461D01*
X0110034Y0061277D01*
X0110313Y0061085D01*
X0110587Y0060887D01*
X0110856Y0060682D01*
X0111120Y0060471D01*
X0111379Y0060253D01*
X0111632Y0060029D01*
X0111880Y0059799D01*
X0112122Y0059563D01*
X0112358Y0059321D01*
X0112588Y0059073D01*
X0112812Y0058820D01*
X0113030Y0058561D01*
X0113241Y0058297D01*
X0113446Y0058028D01*
X0113644Y0057754D01*
X0113836Y0057475D01*
X0114020Y0057191D01*
X0114198Y0056903D01*
X0114368Y0056611D01*
X0114531Y0056315D01*
X0114687Y0056015D01*
X0114835Y0055711D01*
X0114976Y0055403D01*
X0115109Y0055092D01*
X0115235Y0054778D01*
X0115352Y0054461D01*
X0115462Y0054142D01*
X0115565Y0053819D01*
X0115659Y0053494D01*
X0115745Y0053167D01*
X0115823Y0052838D01*
X0115893Y0052507D01*
X0115955Y0052175D01*
X0116009Y0051841D01*
X0116054Y0051506D01*
X0116092Y0051170D01*
X0116121Y0050833D01*
X0116141Y0050495D01*
X0116154Y0050157D01*
X0116158Y0049819D01*
X0116154Y0049481D01*
X0116141Y0049143D01*
X0116121Y0048805D01*
X0116092Y0048468D01*
X0116054Y0048132D01*
X0116009Y0047797D01*
X0115955Y0047463D01*
X0115893Y0047131D01*
X0115823Y0046800D01*
X0115745Y0046471D01*
X0115659Y0046144D01*
X0115565Y0045819D01*
X0115462Y0045496D01*
X0115352Y0045177D01*
X0115235Y0044860D01*
X0115109Y0044546D01*
X0114976Y0044235D01*
X0114835Y0043927D01*
X0114687Y0043623D01*
X0114531Y0043323D01*
X0114368Y0043027D01*
X0114198Y0042735D01*
X0114020Y0042447D01*
X0113836Y0042163D01*
X0113644Y0041884D01*
X0113446Y0041610D01*
X0113241Y0041341D01*
X0113030Y0041077D01*
X0112812Y0040818D01*
X0112588Y0040565D01*
X0112358Y0040317D01*
X0112122Y0040075D01*
X0111880Y0039839D01*
X0111632Y0039609D01*
X0111379Y0039385D01*
X0111120Y0039167D01*
X0110856Y0038956D01*
X0110587Y0038751D01*
X0110313Y0038553D01*
X0110034Y0038361D01*
X0109750Y0038177D01*
X0109462Y0037999D01*
X0109170Y0037829D01*
X0108874Y0037666D01*
X0108574Y0037510D01*
X0108270Y0037362D01*
X0107962Y0037221D01*
X0107651Y0037088D01*
X0107337Y0036962D01*
X0107020Y0036845D01*
X0106701Y0036735D01*
X0106378Y0036632D01*
X0106053Y0036538D01*
X0105726Y0036452D01*
X0105397Y0036374D01*
X0105066Y0036304D01*
X0104734Y0036242D01*
X0104400Y0036188D01*
X0104065Y0036143D01*
X0103729Y0036105D01*
X0103392Y0036076D01*
X0103054Y0036056D01*
X0102716Y0036043D01*
X0102378Y0036039D01*
X0102040Y0036043D01*
X0101702Y0036056D01*
X0101364Y0036076D01*
X0101027Y0036105D01*
X0100691Y0036143D01*
X0100356Y0036188D01*
X0100022Y0036242D01*
X0099690Y0036304D01*
X0099359Y0036374D01*
X0099030Y0036452D01*
X0098703Y0036538D01*
X0098378Y0036632D01*
X0098055Y0036735D01*
X0097736Y0036845D01*
X0097419Y0036962D01*
X0097105Y0037088D01*
X0096794Y0037221D01*
X0096486Y0037362D01*
X0096182Y0037510D01*
X0095882Y0037666D01*
X0095586Y0037829D01*
X0095294Y0037999D01*
X0095006Y0038177D01*
X0094722Y0038361D01*
X0094443Y0038553D01*
X0094169Y0038751D01*
X0093900Y0038956D01*
X0093636Y0039167D01*
X0093377Y0039385D01*
X0093124Y0039609D01*
X0092876Y0039839D01*
X0092634Y0040075D01*
X0092398Y0040317D01*
X0092168Y0040565D01*
X0091944Y0040818D01*
X0091726Y0041077D01*
X0091515Y0041341D01*
X0091310Y0041610D01*
X0091112Y0041884D01*
X0090920Y0042163D01*
X0090736Y0042447D01*
X0090558Y0042735D01*
X0090388Y0043027D01*
X0090225Y0043323D01*
X0090069Y0043623D01*
X0089921Y0043927D01*
X0089780Y0044235D01*
X0089647Y0044546D01*
X0089521Y0044860D01*
X0089404Y0045177D01*
X0089294Y0045496D01*
X0089191Y0045819D01*
X0089097Y0046144D01*
X0089011Y0046471D01*
X0088933Y0046800D01*
X0088863Y0047131D01*
X0088801Y0047463D01*
X0088747Y0047797D01*
X0088702Y0048132D01*
X0088664Y0048468D01*
X0088635Y0048805D01*
X0088615Y0049143D01*
X0088602Y0049481D01*
X0088598Y0049819D01*
X0090567Y0049819D02*
X0090571Y0050109D01*
X0090581Y0050399D01*
X0090599Y0050688D01*
X0090624Y0050977D01*
X0090656Y0051265D01*
X0090695Y0051552D01*
X0090741Y0051838D01*
X0090794Y0052123D01*
X0090854Y0052407D01*
X0090921Y0052689D01*
X0090995Y0052969D01*
X0091076Y0053248D01*
X0091163Y0053524D01*
X0091257Y0053798D01*
X0091358Y0054070D01*
X0091466Y0054339D01*
X0091580Y0054605D01*
X0091701Y0054869D01*
X0091828Y0055129D01*
X0091962Y0055387D01*
X0092101Y0055641D01*
X0092247Y0055891D01*
X0092399Y0056138D01*
X0092558Y0056381D01*
X0092722Y0056620D01*
X0092891Y0056855D01*
X0093067Y0057086D01*
X0093248Y0057312D01*
X0093435Y0057534D01*
X0093627Y0057751D01*
X0093824Y0057963D01*
X0094026Y0058171D01*
X0094234Y0058373D01*
X0094446Y0058570D01*
X0094663Y0058762D01*
X0094885Y0058949D01*
X0095111Y0059130D01*
X0095342Y0059306D01*
X0095577Y0059475D01*
X0095816Y0059639D01*
X0096059Y0059798D01*
X0096306Y0059950D01*
X0096556Y0060096D01*
X0096810Y0060235D01*
X0097068Y0060369D01*
X0097328Y0060496D01*
X0097592Y0060617D01*
X0097858Y0060731D01*
X0098127Y0060839D01*
X0098399Y0060940D01*
X0098673Y0061034D01*
X0098949Y0061121D01*
X0099228Y0061202D01*
X0099508Y0061276D01*
X0099790Y0061343D01*
X0100074Y0061403D01*
X0100359Y0061456D01*
X0100645Y0061502D01*
X0100932Y0061541D01*
X0101220Y0061573D01*
X0101509Y0061598D01*
X0101798Y0061616D01*
X0102088Y0061626D01*
X0102378Y0061630D01*
X0102668Y0061626D01*
X0102958Y0061616D01*
X0103247Y0061598D01*
X0103536Y0061573D01*
X0103824Y0061541D01*
X0104111Y0061502D01*
X0104397Y0061456D01*
X0104682Y0061403D01*
X0104966Y0061343D01*
X0105248Y0061276D01*
X0105528Y0061202D01*
X0105807Y0061121D01*
X0106083Y0061034D01*
X0106357Y0060940D01*
X0106629Y0060839D01*
X0106898Y0060731D01*
X0107164Y0060617D01*
X0107428Y0060496D01*
X0107688Y0060369D01*
X0107946Y0060235D01*
X0108200Y0060096D01*
X0108450Y0059950D01*
X0108697Y0059798D01*
X0108940Y0059639D01*
X0109179Y0059475D01*
X0109414Y0059306D01*
X0109645Y0059130D01*
X0109871Y0058949D01*
X0110093Y0058762D01*
X0110310Y0058570D01*
X0110522Y0058373D01*
X0110730Y0058171D01*
X0110932Y0057963D01*
X0111129Y0057751D01*
X0111321Y0057534D01*
X0111508Y0057312D01*
X0111689Y0057086D01*
X0111865Y0056855D01*
X0112034Y0056620D01*
X0112198Y0056381D01*
X0112357Y0056138D01*
X0112509Y0055891D01*
X0112655Y0055641D01*
X0112794Y0055387D01*
X0112928Y0055129D01*
X0113055Y0054869D01*
X0113176Y0054605D01*
X0113290Y0054339D01*
X0113398Y0054070D01*
X0113499Y0053798D01*
X0113593Y0053524D01*
X0113680Y0053248D01*
X0113761Y0052969D01*
X0113835Y0052689D01*
X0113902Y0052407D01*
X0113962Y0052123D01*
X0114015Y0051838D01*
X0114061Y0051552D01*
X0114100Y0051265D01*
X0114132Y0050977D01*
X0114157Y0050688D01*
X0114175Y0050399D01*
X0114185Y0050109D01*
X0114189Y0049819D01*
X0114185Y0049529D01*
X0114175Y0049239D01*
X0114157Y0048950D01*
X0114132Y0048661D01*
X0114100Y0048373D01*
X0114061Y0048086D01*
X0114015Y0047800D01*
X0113962Y0047515D01*
X0113902Y0047231D01*
X0113835Y0046949D01*
X0113761Y0046669D01*
X0113680Y0046390D01*
X0113593Y0046114D01*
X0113499Y0045840D01*
X0113398Y0045568D01*
X0113290Y0045299D01*
X0113176Y0045033D01*
X0113055Y0044769D01*
X0112928Y0044509D01*
X0112794Y0044251D01*
X0112655Y0043997D01*
X0112509Y0043747D01*
X0112357Y0043500D01*
X0112198Y0043257D01*
X0112034Y0043018D01*
X0111865Y0042783D01*
X0111689Y0042552D01*
X0111508Y0042326D01*
X0111321Y0042104D01*
X0111129Y0041887D01*
X0110932Y0041675D01*
X0110730Y0041467D01*
X0110522Y0041265D01*
X0110310Y0041068D01*
X0110093Y0040876D01*
X0109871Y0040689D01*
X0109645Y0040508D01*
X0109414Y0040332D01*
X0109179Y0040163D01*
X0108940Y0039999D01*
X0108697Y0039840D01*
X0108450Y0039688D01*
X0108200Y0039542D01*
X0107946Y0039403D01*
X0107688Y0039269D01*
X0107428Y0039142D01*
X0107164Y0039021D01*
X0106898Y0038907D01*
X0106629Y0038799D01*
X0106357Y0038698D01*
X0106083Y0038604D01*
X0105807Y0038517D01*
X0105528Y0038436D01*
X0105248Y0038362D01*
X0104966Y0038295D01*
X0104682Y0038235D01*
X0104397Y0038182D01*
X0104111Y0038136D01*
X0103824Y0038097D01*
X0103536Y0038065D01*
X0103247Y0038040D01*
X0102958Y0038022D01*
X0102668Y0038012D01*
X0102378Y0038008D01*
X0102088Y0038012D01*
X0101798Y0038022D01*
X0101509Y0038040D01*
X0101220Y0038065D01*
X0100932Y0038097D01*
X0100645Y0038136D01*
X0100359Y0038182D01*
X0100074Y0038235D01*
X0099790Y0038295D01*
X0099508Y0038362D01*
X0099228Y0038436D01*
X0098949Y0038517D01*
X0098673Y0038604D01*
X0098399Y0038698D01*
X0098127Y0038799D01*
X0097858Y0038907D01*
X0097592Y0039021D01*
X0097328Y0039142D01*
X0097068Y0039269D01*
X0096810Y0039403D01*
X0096556Y0039542D01*
X0096306Y0039688D01*
X0096059Y0039840D01*
X0095816Y0039999D01*
X0095577Y0040163D01*
X0095342Y0040332D01*
X0095111Y0040508D01*
X0094885Y0040689D01*
X0094663Y0040876D01*
X0094446Y0041068D01*
X0094234Y0041265D01*
X0094026Y0041467D01*
X0093824Y0041675D01*
X0093627Y0041887D01*
X0093435Y0042104D01*
X0093248Y0042326D01*
X0093067Y0042552D01*
X0092891Y0042783D01*
X0092722Y0043018D01*
X0092558Y0043257D01*
X0092399Y0043500D01*
X0092247Y0043747D01*
X0092101Y0043997D01*
X0091962Y0044251D01*
X0091828Y0044509D01*
X0091701Y0044769D01*
X0091580Y0045033D01*
X0091466Y0045299D01*
X0091358Y0045568D01*
X0091257Y0045840D01*
X0091163Y0046114D01*
X0091076Y0046390D01*
X0090995Y0046669D01*
X0090921Y0046949D01*
X0090854Y0047231D01*
X0090794Y0047515D01*
X0090741Y0047800D01*
X0090695Y0048086D01*
X0090656Y0048373D01*
X0090624Y0048661D01*
X0090599Y0048950D01*
X0090581Y0049239D01*
X0090571Y0049529D01*
X0090567Y0049819D01*
D11*
X0076500Y0045582D02*
X0076500Y0043172D01*
X0076498Y0043113D01*
X0076492Y0043053D01*
X0076483Y0042995D01*
X0076470Y0042937D01*
X0076453Y0042880D01*
X0076432Y0042824D01*
X0076408Y0042770D01*
X0076381Y0042717D01*
X0076350Y0042666D01*
X0076316Y0042618D01*
X0076279Y0042571D01*
X0076239Y0042527D01*
X0076196Y0042486D01*
X0076151Y0042447D01*
X0076103Y0042412D01*
X0076054Y0042379D01*
X0076002Y0042350D01*
X0075948Y0042324D01*
X0075893Y0042302D01*
X0075837Y0042283D01*
X0075779Y0042268D01*
X0075721Y0042257D01*
X0075662Y0042249D01*
X0075603Y0042245D01*
X0075543Y0042245D01*
X0075484Y0042249D01*
X0075425Y0042257D01*
X0075367Y0042268D01*
X0075309Y0042283D01*
X0075253Y0042302D01*
X0075198Y0042324D01*
X0075144Y0042350D01*
X0075092Y0042379D01*
X0075043Y0042412D01*
X0074995Y0042447D01*
X0074950Y0042486D01*
X0074907Y0042527D01*
X0074867Y0042571D01*
X0074830Y0042618D01*
X0074796Y0042666D01*
X0074765Y0042717D01*
X0074738Y0042770D01*
X0074714Y0042824D01*
X0074693Y0042880D01*
X0074676Y0042937D01*
X0074663Y0042995D01*
X0074654Y0043053D01*
X0074648Y0043113D01*
X0074646Y0043172D01*
X0074646Y0045582D01*
X0072839Y0044840D02*
X0071912Y0045582D01*
X0071912Y0042245D01*
X0072839Y0042245D02*
X0070985Y0042245D01*
X0075500Y0144607D02*
X0077354Y0144607D01*
X0075778Y0146461D01*
X0076334Y0147944D02*
X0076398Y0147942D01*
X0076462Y0147936D01*
X0076526Y0147927D01*
X0076588Y0147913D01*
X0076650Y0147896D01*
X0076711Y0147876D01*
X0076770Y0147851D01*
X0076828Y0147823D01*
X0076884Y0147792D01*
X0076938Y0147757D01*
X0076990Y0147720D01*
X0077040Y0147679D01*
X0077087Y0147635D01*
X0077131Y0147589D01*
X0077173Y0147540D01*
X0077211Y0147488D01*
X0077246Y0147435D01*
X0077278Y0147379D01*
X0077307Y0147322D01*
X0077332Y0147263D01*
X0077354Y0147202D01*
X0075778Y0146461D02*
X0075739Y0146501D01*
X0075702Y0146543D01*
X0075668Y0146587D01*
X0075637Y0146634D01*
X0075609Y0146682D01*
X0075584Y0146732D01*
X0075562Y0146783D01*
X0075543Y0146835D01*
X0075528Y0146889D01*
X0075516Y0146944D01*
X0075507Y0146999D01*
X0075502Y0147054D01*
X0075500Y0147110D01*
X0075502Y0147167D01*
X0075508Y0147224D01*
X0075517Y0147280D01*
X0075531Y0147335D01*
X0075548Y0147389D01*
X0075569Y0147442D01*
X0075594Y0147494D01*
X0075621Y0147543D01*
X0075653Y0147591D01*
X0075687Y0147636D01*
X0075724Y0147679D01*
X0075765Y0147720D01*
X0075808Y0147757D01*
X0075853Y0147791D01*
X0075901Y0147823D01*
X0075950Y0147850D01*
X0076002Y0147875D01*
X0076055Y0147896D01*
X0076109Y0147913D01*
X0076164Y0147927D01*
X0076220Y0147936D01*
X0076277Y0147942D01*
X0076334Y0147944D01*
X0079161Y0147944D02*
X0079161Y0145534D01*
X0079163Y0145475D01*
X0079169Y0145415D01*
X0079178Y0145357D01*
X0079191Y0145299D01*
X0079208Y0145242D01*
X0079229Y0145186D01*
X0079253Y0145132D01*
X0079280Y0145079D01*
X0079311Y0145028D01*
X0079345Y0144980D01*
X0079382Y0144933D01*
X0079422Y0144889D01*
X0079465Y0144848D01*
X0079510Y0144809D01*
X0079558Y0144774D01*
X0079607Y0144741D01*
X0079659Y0144712D01*
X0079713Y0144686D01*
X0079768Y0144664D01*
X0079824Y0144645D01*
X0079882Y0144630D01*
X0079940Y0144619D01*
X0079999Y0144611D01*
X0080058Y0144607D01*
X0080118Y0144607D01*
X0080177Y0144611D01*
X0080236Y0144619D01*
X0080294Y0144630D01*
X0080352Y0144645D01*
X0080408Y0144664D01*
X0080463Y0144686D01*
X0080517Y0144712D01*
X0080569Y0144741D01*
X0080618Y0144774D01*
X0080666Y0144809D01*
X0080711Y0144848D01*
X0080754Y0144889D01*
X0080794Y0144933D01*
X0080831Y0144980D01*
X0080865Y0145028D01*
X0080896Y0145079D01*
X0080923Y0145132D01*
X0080947Y0145186D01*
X0080968Y0145242D01*
X0080985Y0145299D01*
X0080998Y0145357D01*
X0081007Y0145415D01*
X0081013Y0145475D01*
X0081015Y0145534D01*
X0081015Y0147944D01*
D12*
X0073581Y0139743D02*
X0073579Y0139691D01*
X0073574Y0139639D01*
X0073564Y0139587D01*
X0073551Y0139536D01*
X0073535Y0139487D01*
X0073515Y0139439D01*
X0073491Y0139392D01*
X0073465Y0139347D01*
X0073435Y0139304D01*
X0073402Y0139263D01*
X0073366Y0139225D01*
X0073328Y0139189D01*
X0073287Y0139156D01*
X0073244Y0139126D01*
X0073199Y0139100D01*
X0073152Y0139076D01*
X0073104Y0139056D01*
X0073055Y0139040D01*
X0073004Y0139027D01*
X0072952Y0139017D01*
X0072900Y0139012D01*
X0072848Y0139010D01*
X0072796Y0139012D01*
X0072744Y0139017D01*
X0072692Y0139027D01*
X0072641Y0139040D01*
X0072592Y0139056D01*
X0072544Y0139076D01*
X0072497Y0139100D01*
X0072452Y0139126D01*
X0072409Y0139156D01*
X0072368Y0139189D01*
X0072330Y0139225D01*
X0072294Y0139263D01*
X0072261Y0139304D01*
X0072231Y0139347D01*
X0072205Y0139392D01*
X0072181Y0139439D01*
X0072161Y0139487D01*
X0072145Y0139536D01*
X0072132Y0139587D01*
X0072122Y0139639D01*
X0072117Y0139691D01*
X0072115Y0139743D01*
X0072117Y0139795D01*
X0072122Y0139847D01*
X0072132Y0139899D01*
X0072145Y0139950D01*
X0072161Y0139999D01*
X0072181Y0140047D01*
X0072205Y0140094D01*
X0072231Y0140139D01*
X0072261Y0140182D01*
X0072294Y0140223D01*
X0072330Y0140261D01*
X0072368Y0140297D01*
X0072409Y0140330D01*
X0072452Y0140360D01*
X0072497Y0140386D01*
X0072544Y0140410D01*
X0072592Y0140430D01*
X0072641Y0140446D01*
X0072692Y0140459D01*
X0072744Y0140469D01*
X0072796Y0140474D01*
X0072848Y0140476D01*
X0072900Y0140474D01*
X0072952Y0140469D01*
X0073004Y0140459D01*
X0073055Y0140446D01*
X0073104Y0140430D01*
X0073152Y0140410D01*
X0073199Y0140386D01*
X0073244Y0140360D01*
X0073287Y0140330D01*
X0073328Y0140297D01*
X0073366Y0140261D01*
X0073402Y0140223D01*
X0073435Y0140182D01*
X0073465Y0140139D01*
X0073491Y0140094D01*
X0073515Y0140047D01*
X0073535Y0139999D01*
X0073551Y0139950D01*
X0073564Y0139899D01*
X0073574Y0139847D01*
X0073579Y0139795D01*
X0073581Y0139743D01*
X0073765Y0138093D02*
X0073763Y0138034D01*
X0073757Y0137976D01*
X0073748Y0137918D01*
X0073735Y0137860D01*
X0073718Y0137804D01*
X0073698Y0137749D01*
X0073674Y0137695D01*
X0073647Y0137643D01*
X0073617Y0137593D01*
X0073583Y0137545D01*
X0073546Y0137499D01*
X0073507Y0137455D01*
X0073464Y0137414D01*
X0073420Y0137376D01*
X0073373Y0137341D01*
X0073323Y0137309D01*
X0073272Y0137280D01*
X0073219Y0137254D01*
X0073165Y0137232D01*
X0073109Y0137214D01*
X0073052Y0137199D01*
X0072994Y0137188D01*
X0072936Y0137180D01*
X0072877Y0137176D01*
X0072819Y0137176D01*
X0072760Y0137180D01*
X0072702Y0137188D01*
X0072644Y0137199D01*
X0072587Y0137214D01*
X0072531Y0137232D01*
X0072477Y0137254D01*
X0072424Y0137280D01*
X0072373Y0137309D01*
X0072323Y0137341D01*
X0072276Y0137376D01*
X0072232Y0137414D01*
X0072189Y0137455D01*
X0072150Y0137499D01*
X0072113Y0137545D01*
X0072079Y0137593D01*
X0072049Y0137643D01*
X0072022Y0137695D01*
X0071998Y0137749D01*
X0071978Y0137804D01*
X0071961Y0137860D01*
X0071948Y0137918D01*
X0071939Y0137976D01*
X0071933Y0138034D01*
X0071931Y0138093D01*
X0071933Y0138152D01*
X0071939Y0138210D01*
X0071948Y0138268D01*
X0071961Y0138326D01*
X0071978Y0138382D01*
X0071998Y0138437D01*
X0072022Y0138491D01*
X0072049Y0138543D01*
X0072079Y0138593D01*
X0072113Y0138641D01*
X0072150Y0138687D01*
X0072189Y0138731D01*
X0072232Y0138772D01*
X0072276Y0138810D01*
X0072323Y0138845D01*
X0072373Y0138877D01*
X0072424Y0138906D01*
X0072477Y0138932D01*
X0072531Y0138954D01*
X0072587Y0138972D01*
X0072644Y0138987D01*
X0072702Y0138998D01*
X0072760Y0139006D01*
X0072819Y0139010D01*
X0072877Y0139010D01*
X0072936Y0139006D01*
X0072994Y0138998D01*
X0073052Y0138987D01*
X0073109Y0138972D01*
X0073165Y0138954D01*
X0073219Y0138932D01*
X0073272Y0138906D01*
X0073323Y0138877D01*
X0073373Y0138845D01*
X0073420Y0138810D01*
X0073464Y0138772D01*
X0073507Y0138731D01*
X0073546Y0138687D01*
X0073583Y0138641D01*
X0073617Y0138593D01*
X0073647Y0138543D01*
X0073674Y0138491D01*
X0073698Y0138437D01*
X0073718Y0138382D01*
X0073735Y0138326D01*
X0073748Y0138268D01*
X0073757Y0138210D01*
X0073763Y0138152D01*
X0073765Y0138093D01*
X0075532Y0138093D02*
X0075532Y0138277D01*
X0075534Y0138329D01*
X0075539Y0138381D01*
X0075549Y0138433D01*
X0075562Y0138484D01*
X0075578Y0138533D01*
X0075598Y0138582D01*
X0075622Y0138628D01*
X0075648Y0138673D01*
X0075678Y0138716D01*
X0075711Y0138757D01*
X0075747Y0138795D01*
X0075785Y0138831D01*
X0075826Y0138864D01*
X0075869Y0138894D01*
X0075914Y0138920D01*
X0075961Y0138944D01*
X0076009Y0138964D01*
X0076058Y0138980D01*
X0076109Y0138993D01*
X0076161Y0139003D01*
X0076213Y0139008D01*
X0076265Y0139010D01*
X0077365Y0139010D01*
X0077365Y0138093D01*
X0077363Y0138034D01*
X0077357Y0137976D01*
X0077348Y0137918D01*
X0077335Y0137860D01*
X0077318Y0137804D01*
X0077298Y0137749D01*
X0077274Y0137695D01*
X0077247Y0137643D01*
X0077217Y0137593D01*
X0077183Y0137545D01*
X0077146Y0137499D01*
X0077107Y0137455D01*
X0077064Y0137414D01*
X0077020Y0137376D01*
X0076973Y0137341D01*
X0076923Y0137309D01*
X0076872Y0137280D01*
X0076819Y0137254D01*
X0076765Y0137232D01*
X0076709Y0137214D01*
X0076652Y0137199D01*
X0076594Y0137188D01*
X0076536Y0137180D01*
X0076477Y0137176D01*
X0076419Y0137176D01*
X0076360Y0137180D01*
X0076302Y0137188D01*
X0076244Y0137199D01*
X0076187Y0137214D01*
X0076131Y0137232D01*
X0076077Y0137254D01*
X0076024Y0137280D01*
X0075973Y0137309D01*
X0075923Y0137341D01*
X0075876Y0137376D01*
X0075832Y0137414D01*
X0075789Y0137455D01*
X0075750Y0137499D01*
X0075713Y0137545D01*
X0075679Y0137593D01*
X0075649Y0137643D01*
X0075622Y0137695D01*
X0075598Y0137749D01*
X0075578Y0137804D01*
X0075561Y0137860D01*
X0075548Y0137918D01*
X0075539Y0137976D01*
X0075533Y0138034D01*
X0075531Y0138093D01*
X0077365Y0139010D02*
X0077363Y0139084D01*
X0077357Y0139158D01*
X0077348Y0139232D01*
X0077335Y0139305D01*
X0077318Y0139378D01*
X0077298Y0139449D01*
X0077274Y0139519D01*
X0077246Y0139589D01*
X0077215Y0139656D01*
X0077181Y0139722D01*
X0077143Y0139786D01*
X0077102Y0139848D01*
X0077058Y0139908D01*
X0077011Y0139966D01*
X0076961Y0140021D01*
X0076909Y0140073D01*
X0076854Y0140123D01*
X0076796Y0140170D01*
X0076736Y0140214D01*
X0076674Y0140255D01*
X0076610Y0140293D01*
X0076544Y0140327D01*
X0076477Y0140358D01*
X0076407Y0140386D01*
X0076337Y0140410D01*
X0076266Y0140430D01*
X0076193Y0140447D01*
X0076120Y0140460D01*
X0076046Y0140469D01*
X0075972Y0140475D01*
X0075898Y0140477D01*
X0079132Y0139560D02*
X0079132Y0138643D01*
X0080232Y0138643D01*
X0079131Y0138643D02*
X0079133Y0138569D01*
X0079139Y0138495D01*
X0079148Y0138421D01*
X0079161Y0138348D01*
X0079178Y0138275D01*
X0079198Y0138204D01*
X0079222Y0138134D01*
X0079250Y0138064D01*
X0079281Y0137997D01*
X0079315Y0137931D01*
X0079353Y0137867D01*
X0079394Y0137805D01*
X0079438Y0137745D01*
X0079485Y0137687D01*
X0079535Y0137632D01*
X0079587Y0137580D01*
X0079642Y0137530D01*
X0079700Y0137483D01*
X0079760Y0137439D01*
X0079822Y0137398D01*
X0079886Y0137360D01*
X0079952Y0137326D01*
X0080019Y0137295D01*
X0080089Y0137267D01*
X0080159Y0137243D01*
X0080230Y0137223D01*
X0080303Y0137206D01*
X0080376Y0137193D01*
X0080450Y0137184D01*
X0080524Y0137178D01*
X0080598Y0137176D01*
X0080232Y0138644D02*
X0080284Y0138646D01*
X0080336Y0138651D01*
X0080388Y0138661D01*
X0080439Y0138674D01*
X0080488Y0138690D01*
X0080537Y0138710D01*
X0080583Y0138734D01*
X0080628Y0138760D01*
X0080671Y0138790D01*
X0080712Y0138823D01*
X0080750Y0138859D01*
X0080786Y0138897D01*
X0080819Y0138938D01*
X0080849Y0138981D01*
X0080875Y0139026D01*
X0080899Y0139073D01*
X0080919Y0139121D01*
X0080935Y0139170D01*
X0080948Y0139221D01*
X0080958Y0139273D01*
X0080963Y0139325D01*
X0080965Y0139377D01*
X0080965Y0139560D01*
X0080963Y0139619D01*
X0080957Y0139677D01*
X0080948Y0139735D01*
X0080935Y0139793D01*
X0080918Y0139849D01*
X0080898Y0139904D01*
X0080874Y0139958D01*
X0080847Y0140010D01*
X0080817Y0140060D01*
X0080783Y0140108D01*
X0080746Y0140154D01*
X0080707Y0140198D01*
X0080664Y0140239D01*
X0080620Y0140277D01*
X0080573Y0140312D01*
X0080523Y0140344D01*
X0080472Y0140373D01*
X0080419Y0140399D01*
X0080365Y0140421D01*
X0080309Y0140439D01*
X0080252Y0140454D01*
X0080194Y0140465D01*
X0080136Y0140473D01*
X0080077Y0140477D01*
X0080019Y0140477D01*
X0079960Y0140473D01*
X0079902Y0140465D01*
X0079844Y0140454D01*
X0079787Y0140439D01*
X0079731Y0140421D01*
X0079677Y0140399D01*
X0079624Y0140373D01*
X0079573Y0140344D01*
X0079523Y0140312D01*
X0079476Y0140277D01*
X0079432Y0140239D01*
X0079389Y0140198D01*
X0079350Y0140154D01*
X0079313Y0140108D01*
X0079279Y0140060D01*
X0079249Y0140010D01*
X0079222Y0139958D01*
X0079198Y0139904D01*
X0079178Y0139849D01*
X0079161Y0139793D01*
X0079148Y0139735D01*
X0079139Y0139677D01*
X0079133Y0139619D01*
X0079131Y0139560D01*
X0079022Y0038316D02*
X0079022Y0037399D01*
X0080122Y0037399D01*
X0079022Y0037399D02*
X0079024Y0037325D01*
X0079030Y0037251D01*
X0079039Y0037177D01*
X0079052Y0037104D01*
X0079069Y0037031D01*
X0079089Y0036960D01*
X0079113Y0036890D01*
X0079141Y0036820D01*
X0079172Y0036753D01*
X0079206Y0036687D01*
X0079244Y0036623D01*
X0079285Y0036561D01*
X0079329Y0036501D01*
X0079376Y0036443D01*
X0079426Y0036388D01*
X0079478Y0036336D01*
X0079533Y0036286D01*
X0079591Y0036239D01*
X0079651Y0036195D01*
X0079713Y0036154D01*
X0079777Y0036116D01*
X0079843Y0036082D01*
X0079910Y0036051D01*
X0079980Y0036023D01*
X0080050Y0035999D01*
X0080121Y0035979D01*
X0080194Y0035962D01*
X0080267Y0035949D01*
X0080341Y0035940D01*
X0080415Y0035934D01*
X0080489Y0035932D01*
X0080122Y0037400D02*
X0080174Y0037402D01*
X0080226Y0037407D01*
X0080278Y0037417D01*
X0080329Y0037430D01*
X0080378Y0037446D01*
X0080427Y0037466D01*
X0080473Y0037490D01*
X0080518Y0037516D01*
X0080561Y0037546D01*
X0080602Y0037579D01*
X0080640Y0037615D01*
X0080676Y0037653D01*
X0080709Y0037694D01*
X0080739Y0037737D01*
X0080765Y0037782D01*
X0080789Y0037829D01*
X0080809Y0037877D01*
X0080825Y0037926D01*
X0080838Y0037977D01*
X0080848Y0038029D01*
X0080853Y0038081D01*
X0080855Y0038133D01*
X0080856Y0038133D02*
X0080856Y0038316D01*
X0080854Y0038375D01*
X0080848Y0038433D01*
X0080839Y0038491D01*
X0080826Y0038549D01*
X0080809Y0038605D01*
X0080789Y0038660D01*
X0080765Y0038714D01*
X0080738Y0038766D01*
X0080708Y0038816D01*
X0080674Y0038864D01*
X0080637Y0038910D01*
X0080598Y0038954D01*
X0080555Y0038995D01*
X0080511Y0039033D01*
X0080464Y0039068D01*
X0080414Y0039100D01*
X0080363Y0039129D01*
X0080310Y0039155D01*
X0080256Y0039177D01*
X0080200Y0039195D01*
X0080143Y0039210D01*
X0080085Y0039221D01*
X0080027Y0039229D01*
X0079968Y0039233D01*
X0079910Y0039233D01*
X0079851Y0039229D01*
X0079793Y0039221D01*
X0079735Y0039210D01*
X0079678Y0039195D01*
X0079622Y0039177D01*
X0079568Y0039155D01*
X0079515Y0039129D01*
X0079464Y0039100D01*
X0079414Y0039068D01*
X0079367Y0039033D01*
X0079323Y0038995D01*
X0079280Y0038954D01*
X0079241Y0038910D01*
X0079204Y0038864D01*
X0079170Y0038816D01*
X0079140Y0038766D01*
X0079113Y0038714D01*
X0079089Y0038660D01*
X0079069Y0038605D01*
X0079052Y0038549D01*
X0079039Y0038491D01*
X0079030Y0038433D01*
X0079024Y0038375D01*
X0079022Y0038316D01*
X0077256Y0037766D02*
X0077256Y0036849D01*
X0077254Y0036790D01*
X0077248Y0036732D01*
X0077239Y0036674D01*
X0077226Y0036616D01*
X0077209Y0036560D01*
X0077189Y0036505D01*
X0077165Y0036451D01*
X0077138Y0036399D01*
X0077108Y0036349D01*
X0077074Y0036301D01*
X0077037Y0036255D01*
X0076998Y0036211D01*
X0076955Y0036170D01*
X0076911Y0036132D01*
X0076864Y0036097D01*
X0076814Y0036065D01*
X0076763Y0036036D01*
X0076710Y0036010D01*
X0076656Y0035988D01*
X0076600Y0035970D01*
X0076543Y0035955D01*
X0076485Y0035944D01*
X0076427Y0035936D01*
X0076368Y0035932D01*
X0076310Y0035932D01*
X0076251Y0035936D01*
X0076193Y0035944D01*
X0076135Y0035955D01*
X0076078Y0035970D01*
X0076022Y0035988D01*
X0075968Y0036010D01*
X0075915Y0036036D01*
X0075864Y0036065D01*
X0075814Y0036097D01*
X0075767Y0036132D01*
X0075723Y0036170D01*
X0075680Y0036211D01*
X0075641Y0036255D01*
X0075604Y0036301D01*
X0075570Y0036349D01*
X0075540Y0036399D01*
X0075513Y0036451D01*
X0075489Y0036505D01*
X0075469Y0036560D01*
X0075452Y0036616D01*
X0075439Y0036674D01*
X0075430Y0036732D01*
X0075424Y0036790D01*
X0075422Y0036849D01*
X0075422Y0037033D01*
X0075423Y0037033D02*
X0075425Y0037085D01*
X0075430Y0037137D01*
X0075440Y0037189D01*
X0075453Y0037240D01*
X0075469Y0037289D01*
X0075489Y0037338D01*
X0075513Y0037384D01*
X0075539Y0037429D01*
X0075569Y0037472D01*
X0075602Y0037513D01*
X0075638Y0037551D01*
X0075676Y0037587D01*
X0075717Y0037620D01*
X0075760Y0037650D01*
X0075805Y0037676D01*
X0075852Y0037700D01*
X0075900Y0037720D01*
X0075949Y0037736D01*
X0076000Y0037749D01*
X0076052Y0037759D01*
X0076104Y0037764D01*
X0076156Y0037766D01*
X0077256Y0037766D01*
X0077254Y0037840D01*
X0077248Y0037914D01*
X0077239Y0037988D01*
X0077226Y0038061D01*
X0077209Y0038134D01*
X0077189Y0038205D01*
X0077165Y0038275D01*
X0077137Y0038345D01*
X0077106Y0038412D01*
X0077072Y0038478D01*
X0077034Y0038542D01*
X0076993Y0038604D01*
X0076949Y0038664D01*
X0076902Y0038722D01*
X0076852Y0038777D01*
X0076800Y0038829D01*
X0076745Y0038879D01*
X0076687Y0038926D01*
X0076627Y0038970D01*
X0076565Y0039011D01*
X0076501Y0039049D01*
X0076435Y0039083D01*
X0076368Y0039114D01*
X0076298Y0039142D01*
X0076228Y0039166D01*
X0076157Y0039186D01*
X0076084Y0039203D01*
X0076011Y0039216D01*
X0075937Y0039225D01*
X0075863Y0039231D01*
X0075789Y0039233D01*
X0073472Y0038499D02*
X0073470Y0038447D01*
X0073465Y0038395D01*
X0073455Y0038343D01*
X0073442Y0038292D01*
X0073426Y0038243D01*
X0073406Y0038195D01*
X0073382Y0038148D01*
X0073356Y0038103D01*
X0073326Y0038060D01*
X0073293Y0038019D01*
X0073257Y0037981D01*
X0073219Y0037945D01*
X0073178Y0037912D01*
X0073135Y0037882D01*
X0073090Y0037856D01*
X0073043Y0037832D01*
X0072995Y0037812D01*
X0072946Y0037796D01*
X0072895Y0037783D01*
X0072843Y0037773D01*
X0072791Y0037768D01*
X0072739Y0037766D01*
X0072687Y0037768D01*
X0072635Y0037773D01*
X0072583Y0037783D01*
X0072532Y0037796D01*
X0072483Y0037812D01*
X0072435Y0037832D01*
X0072388Y0037856D01*
X0072343Y0037882D01*
X0072300Y0037912D01*
X0072259Y0037945D01*
X0072221Y0037981D01*
X0072185Y0038019D01*
X0072152Y0038060D01*
X0072122Y0038103D01*
X0072096Y0038148D01*
X0072072Y0038195D01*
X0072052Y0038243D01*
X0072036Y0038292D01*
X0072023Y0038343D01*
X0072013Y0038395D01*
X0072008Y0038447D01*
X0072006Y0038499D01*
X0072008Y0038551D01*
X0072013Y0038603D01*
X0072023Y0038655D01*
X0072036Y0038706D01*
X0072052Y0038755D01*
X0072072Y0038803D01*
X0072096Y0038850D01*
X0072122Y0038895D01*
X0072152Y0038938D01*
X0072185Y0038979D01*
X0072221Y0039017D01*
X0072259Y0039053D01*
X0072300Y0039086D01*
X0072343Y0039116D01*
X0072388Y0039142D01*
X0072435Y0039166D01*
X0072483Y0039186D01*
X0072532Y0039202D01*
X0072583Y0039215D01*
X0072635Y0039225D01*
X0072687Y0039230D01*
X0072739Y0039232D01*
X0072791Y0039230D01*
X0072843Y0039225D01*
X0072895Y0039215D01*
X0072946Y0039202D01*
X0072995Y0039186D01*
X0073043Y0039166D01*
X0073090Y0039142D01*
X0073135Y0039116D01*
X0073178Y0039086D01*
X0073219Y0039053D01*
X0073257Y0039017D01*
X0073293Y0038979D01*
X0073326Y0038938D01*
X0073356Y0038895D01*
X0073382Y0038850D01*
X0073406Y0038803D01*
X0073426Y0038755D01*
X0073442Y0038706D01*
X0073455Y0038655D01*
X0073465Y0038603D01*
X0073470Y0038551D01*
X0073472Y0038499D01*
X0073656Y0036849D02*
X0073654Y0036790D01*
X0073648Y0036732D01*
X0073639Y0036674D01*
X0073626Y0036616D01*
X0073609Y0036560D01*
X0073589Y0036505D01*
X0073565Y0036451D01*
X0073538Y0036399D01*
X0073508Y0036349D01*
X0073474Y0036301D01*
X0073437Y0036255D01*
X0073398Y0036211D01*
X0073355Y0036170D01*
X0073311Y0036132D01*
X0073264Y0036097D01*
X0073214Y0036065D01*
X0073163Y0036036D01*
X0073110Y0036010D01*
X0073056Y0035988D01*
X0073000Y0035970D01*
X0072943Y0035955D01*
X0072885Y0035944D01*
X0072827Y0035936D01*
X0072768Y0035932D01*
X0072710Y0035932D01*
X0072651Y0035936D01*
X0072593Y0035944D01*
X0072535Y0035955D01*
X0072478Y0035970D01*
X0072422Y0035988D01*
X0072368Y0036010D01*
X0072315Y0036036D01*
X0072264Y0036065D01*
X0072214Y0036097D01*
X0072167Y0036132D01*
X0072123Y0036170D01*
X0072080Y0036211D01*
X0072041Y0036255D01*
X0072004Y0036301D01*
X0071970Y0036349D01*
X0071940Y0036399D01*
X0071913Y0036451D01*
X0071889Y0036505D01*
X0071869Y0036560D01*
X0071852Y0036616D01*
X0071839Y0036674D01*
X0071830Y0036732D01*
X0071824Y0036790D01*
X0071822Y0036849D01*
X0071824Y0036908D01*
X0071830Y0036966D01*
X0071839Y0037024D01*
X0071852Y0037082D01*
X0071869Y0037138D01*
X0071889Y0037193D01*
X0071913Y0037247D01*
X0071940Y0037299D01*
X0071970Y0037349D01*
X0072004Y0037397D01*
X0072041Y0037443D01*
X0072080Y0037487D01*
X0072123Y0037528D01*
X0072167Y0037566D01*
X0072214Y0037601D01*
X0072264Y0037633D01*
X0072315Y0037662D01*
X0072368Y0037688D01*
X0072422Y0037710D01*
X0072478Y0037728D01*
X0072535Y0037743D01*
X0072593Y0037754D01*
X0072651Y0037762D01*
X0072710Y0037766D01*
X0072768Y0037766D01*
X0072827Y0037762D01*
X0072885Y0037754D01*
X0072943Y0037743D01*
X0073000Y0037728D01*
X0073056Y0037710D01*
X0073110Y0037688D01*
X0073163Y0037662D01*
X0073214Y0037633D01*
X0073264Y0037601D01*
X0073311Y0037566D01*
X0073355Y0037528D01*
X0073398Y0037487D01*
X0073437Y0037443D01*
X0073474Y0037397D01*
X0073508Y0037349D01*
X0073538Y0037299D01*
X0073565Y0037247D01*
X0073589Y0037193D01*
X0073609Y0037138D01*
X0073626Y0037082D01*
X0073639Y0037024D01*
X0073648Y0036966D01*
X0073654Y0036908D01*
X0073656Y0036849D01*
M02*
