G75*
%MOIN*%
%OFA0B0*%
%FSLAX25Y25*%
%IPPOS*%
%LPD*%
%AMOC8*
5,1,8,0,0,1.08239X$1,22.5*
%
%ADD10C,0.00000*%
D10*
X0008480Y0008480D02*
X0012417Y0004543D01*
X0146276Y0004543D01*
X0150213Y0008480D01*
X0150213Y0163992D01*
X0146276Y0167929D01*
X0012417Y0167929D01*
X0008480Y0163992D01*
X0008480Y0008480D01*
X0014780Y0028165D02*
X0014782Y0028262D01*
X0014788Y0028359D01*
X0014798Y0028455D01*
X0014812Y0028551D01*
X0014830Y0028647D01*
X0014851Y0028741D01*
X0014877Y0028835D01*
X0014906Y0028927D01*
X0014940Y0029018D01*
X0014976Y0029108D01*
X0015017Y0029196D01*
X0015061Y0029282D01*
X0015109Y0029367D01*
X0015160Y0029449D01*
X0015214Y0029530D01*
X0015272Y0029608D01*
X0015333Y0029683D01*
X0015396Y0029756D01*
X0015463Y0029827D01*
X0015533Y0029894D01*
X0015605Y0029959D01*
X0015680Y0030020D01*
X0015758Y0030079D01*
X0015837Y0030134D01*
X0015919Y0030186D01*
X0016003Y0030234D01*
X0016089Y0030279D01*
X0016177Y0030321D01*
X0016266Y0030359D01*
X0016357Y0030393D01*
X0016449Y0030423D01*
X0016542Y0030450D01*
X0016637Y0030472D01*
X0016732Y0030491D01*
X0016828Y0030506D01*
X0016924Y0030517D01*
X0017021Y0030524D01*
X0017118Y0030527D01*
X0017215Y0030526D01*
X0017312Y0030521D01*
X0017408Y0030512D01*
X0017504Y0030499D01*
X0017600Y0030482D01*
X0017695Y0030461D01*
X0017788Y0030437D01*
X0017881Y0030408D01*
X0017973Y0030376D01*
X0018063Y0030340D01*
X0018151Y0030301D01*
X0018238Y0030257D01*
X0018323Y0030211D01*
X0018406Y0030160D01*
X0018487Y0030107D01*
X0018565Y0030050D01*
X0018642Y0029990D01*
X0018715Y0029927D01*
X0018786Y0029861D01*
X0018854Y0029792D01*
X0018920Y0029720D01*
X0018982Y0029646D01*
X0019041Y0029569D01*
X0019097Y0029490D01*
X0019150Y0029408D01*
X0019200Y0029325D01*
X0019245Y0029239D01*
X0019288Y0029152D01*
X0019327Y0029063D01*
X0019362Y0028973D01*
X0019393Y0028881D01*
X0019420Y0028788D01*
X0019444Y0028694D01*
X0019464Y0028599D01*
X0019480Y0028503D01*
X0019492Y0028407D01*
X0019500Y0028310D01*
X0019504Y0028213D01*
X0019504Y0028117D01*
X0019500Y0028020D01*
X0019492Y0027923D01*
X0019480Y0027827D01*
X0019464Y0027731D01*
X0019444Y0027636D01*
X0019420Y0027542D01*
X0019393Y0027449D01*
X0019362Y0027357D01*
X0019327Y0027267D01*
X0019288Y0027178D01*
X0019245Y0027091D01*
X0019200Y0027005D01*
X0019150Y0026922D01*
X0019097Y0026840D01*
X0019041Y0026761D01*
X0018982Y0026684D01*
X0018920Y0026610D01*
X0018854Y0026538D01*
X0018786Y0026469D01*
X0018715Y0026403D01*
X0018642Y0026340D01*
X0018565Y0026280D01*
X0018487Y0026223D01*
X0018406Y0026170D01*
X0018323Y0026119D01*
X0018238Y0026073D01*
X0018151Y0026029D01*
X0018063Y0025990D01*
X0017973Y0025954D01*
X0017881Y0025922D01*
X0017788Y0025893D01*
X0017695Y0025869D01*
X0017600Y0025848D01*
X0017504Y0025831D01*
X0017408Y0025818D01*
X0017312Y0025809D01*
X0017215Y0025804D01*
X0017118Y0025803D01*
X0017021Y0025806D01*
X0016924Y0025813D01*
X0016828Y0025824D01*
X0016732Y0025839D01*
X0016637Y0025858D01*
X0016542Y0025880D01*
X0016449Y0025907D01*
X0016357Y0025937D01*
X0016266Y0025971D01*
X0016177Y0026009D01*
X0016089Y0026051D01*
X0016003Y0026096D01*
X0015919Y0026144D01*
X0015837Y0026196D01*
X0015758Y0026251D01*
X0015680Y0026310D01*
X0015605Y0026371D01*
X0015533Y0026436D01*
X0015463Y0026503D01*
X0015396Y0026574D01*
X0015333Y0026647D01*
X0015272Y0026722D01*
X0015214Y0026800D01*
X0015160Y0026881D01*
X0015109Y0026963D01*
X0015061Y0027048D01*
X0015017Y0027134D01*
X0014976Y0027222D01*
X0014940Y0027312D01*
X0014906Y0027403D01*
X0014877Y0027495D01*
X0014851Y0027589D01*
X0014830Y0027683D01*
X0014812Y0027779D01*
X0014798Y0027875D01*
X0014788Y0027971D01*
X0014782Y0028068D01*
X0014780Y0028165D01*
X0062811Y0028165D02*
X0062813Y0028262D01*
X0062819Y0028359D01*
X0062829Y0028455D01*
X0062843Y0028551D01*
X0062861Y0028647D01*
X0062882Y0028741D01*
X0062908Y0028835D01*
X0062937Y0028927D01*
X0062971Y0029018D01*
X0063007Y0029108D01*
X0063048Y0029196D01*
X0063092Y0029282D01*
X0063140Y0029367D01*
X0063191Y0029449D01*
X0063245Y0029530D01*
X0063303Y0029608D01*
X0063364Y0029683D01*
X0063427Y0029756D01*
X0063494Y0029827D01*
X0063564Y0029894D01*
X0063636Y0029959D01*
X0063711Y0030020D01*
X0063789Y0030079D01*
X0063868Y0030134D01*
X0063950Y0030186D01*
X0064034Y0030234D01*
X0064120Y0030279D01*
X0064208Y0030321D01*
X0064297Y0030359D01*
X0064388Y0030393D01*
X0064480Y0030423D01*
X0064573Y0030450D01*
X0064668Y0030472D01*
X0064763Y0030491D01*
X0064859Y0030506D01*
X0064955Y0030517D01*
X0065052Y0030524D01*
X0065149Y0030527D01*
X0065246Y0030526D01*
X0065343Y0030521D01*
X0065439Y0030512D01*
X0065535Y0030499D01*
X0065631Y0030482D01*
X0065726Y0030461D01*
X0065819Y0030437D01*
X0065912Y0030408D01*
X0066004Y0030376D01*
X0066094Y0030340D01*
X0066182Y0030301D01*
X0066269Y0030257D01*
X0066354Y0030211D01*
X0066437Y0030160D01*
X0066518Y0030107D01*
X0066596Y0030050D01*
X0066673Y0029990D01*
X0066746Y0029927D01*
X0066817Y0029861D01*
X0066885Y0029792D01*
X0066951Y0029720D01*
X0067013Y0029646D01*
X0067072Y0029569D01*
X0067128Y0029490D01*
X0067181Y0029408D01*
X0067231Y0029325D01*
X0067276Y0029239D01*
X0067319Y0029152D01*
X0067358Y0029063D01*
X0067393Y0028973D01*
X0067424Y0028881D01*
X0067451Y0028788D01*
X0067475Y0028694D01*
X0067495Y0028599D01*
X0067511Y0028503D01*
X0067523Y0028407D01*
X0067531Y0028310D01*
X0067535Y0028213D01*
X0067535Y0028117D01*
X0067531Y0028020D01*
X0067523Y0027923D01*
X0067511Y0027827D01*
X0067495Y0027731D01*
X0067475Y0027636D01*
X0067451Y0027542D01*
X0067424Y0027449D01*
X0067393Y0027357D01*
X0067358Y0027267D01*
X0067319Y0027178D01*
X0067276Y0027091D01*
X0067231Y0027005D01*
X0067181Y0026922D01*
X0067128Y0026840D01*
X0067072Y0026761D01*
X0067013Y0026684D01*
X0066951Y0026610D01*
X0066885Y0026538D01*
X0066817Y0026469D01*
X0066746Y0026403D01*
X0066673Y0026340D01*
X0066596Y0026280D01*
X0066518Y0026223D01*
X0066437Y0026170D01*
X0066354Y0026119D01*
X0066269Y0026073D01*
X0066182Y0026029D01*
X0066094Y0025990D01*
X0066004Y0025954D01*
X0065912Y0025922D01*
X0065819Y0025893D01*
X0065726Y0025869D01*
X0065631Y0025848D01*
X0065535Y0025831D01*
X0065439Y0025818D01*
X0065343Y0025809D01*
X0065246Y0025804D01*
X0065149Y0025803D01*
X0065052Y0025806D01*
X0064955Y0025813D01*
X0064859Y0025824D01*
X0064763Y0025839D01*
X0064668Y0025858D01*
X0064573Y0025880D01*
X0064480Y0025907D01*
X0064388Y0025937D01*
X0064297Y0025971D01*
X0064208Y0026009D01*
X0064120Y0026051D01*
X0064034Y0026096D01*
X0063950Y0026144D01*
X0063868Y0026196D01*
X0063789Y0026251D01*
X0063711Y0026310D01*
X0063636Y0026371D01*
X0063564Y0026436D01*
X0063494Y0026503D01*
X0063427Y0026574D01*
X0063364Y0026647D01*
X0063303Y0026722D01*
X0063245Y0026800D01*
X0063191Y0026881D01*
X0063140Y0026963D01*
X0063092Y0027048D01*
X0063048Y0027134D01*
X0063007Y0027222D01*
X0062971Y0027312D01*
X0062937Y0027403D01*
X0062908Y0027495D01*
X0062882Y0027589D01*
X0062861Y0027683D01*
X0062843Y0027779D01*
X0062829Y0027875D01*
X0062819Y0027971D01*
X0062813Y0028068D01*
X0062811Y0028165D01*
X0035449Y0089976D02*
X0035451Y0090145D01*
X0035457Y0090314D01*
X0035468Y0090483D01*
X0035482Y0090651D01*
X0035501Y0090819D01*
X0035524Y0090987D01*
X0035550Y0091154D01*
X0035581Y0091320D01*
X0035616Y0091486D01*
X0035655Y0091650D01*
X0035699Y0091814D01*
X0035746Y0091976D01*
X0035797Y0092137D01*
X0035852Y0092297D01*
X0035911Y0092456D01*
X0035973Y0092613D01*
X0036040Y0092768D01*
X0036111Y0092922D01*
X0036185Y0093074D01*
X0036263Y0093224D01*
X0036344Y0093372D01*
X0036429Y0093518D01*
X0036518Y0093662D01*
X0036610Y0093804D01*
X0036706Y0093943D01*
X0036805Y0094080D01*
X0036907Y0094215D01*
X0037013Y0094347D01*
X0037122Y0094476D01*
X0037234Y0094603D01*
X0037349Y0094727D01*
X0037467Y0094848D01*
X0037588Y0094966D01*
X0037712Y0095081D01*
X0037839Y0095193D01*
X0037968Y0095302D01*
X0038100Y0095408D01*
X0038235Y0095510D01*
X0038372Y0095609D01*
X0038511Y0095705D01*
X0038653Y0095797D01*
X0038797Y0095886D01*
X0038943Y0095971D01*
X0039091Y0096052D01*
X0039241Y0096130D01*
X0039393Y0096204D01*
X0039547Y0096275D01*
X0039702Y0096342D01*
X0039859Y0096404D01*
X0040018Y0096463D01*
X0040178Y0096518D01*
X0040339Y0096569D01*
X0040501Y0096616D01*
X0040665Y0096660D01*
X0040829Y0096699D01*
X0040995Y0096734D01*
X0041161Y0096765D01*
X0041328Y0096791D01*
X0041496Y0096814D01*
X0041664Y0096833D01*
X0041832Y0096847D01*
X0042001Y0096858D01*
X0042170Y0096864D01*
X0042339Y0096866D01*
X0042508Y0096864D01*
X0042677Y0096858D01*
X0042846Y0096847D01*
X0043014Y0096833D01*
X0043182Y0096814D01*
X0043350Y0096791D01*
X0043517Y0096765D01*
X0043683Y0096734D01*
X0043849Y0096699D01*
X0044013Y0096660D01*
X0044177Y0096616D01*
X0044339Y0096569D01*
X0044500Y0096518D01*
X0044660Y0096463D01*
X0044819Y0096404D01*
X0044976Y0096342D01*
X0045131Y0096275D01*
X0045285Y0096204D01*
X0045437Y0096130D01*
X0045587Y0096052D01*
X0045735Y0095971D01*
X0045881Y0095886D01*
X0046025Y0095797D01*
X0046167Y0095705D01*
X0046306Y0095609D01*
X0046443Y0095510D01*
X0046578Y0095408D01*
X0046710Y0095302D01*
X0046839Y0095193D01*
X0046966Y0095081D01*
X0047090Y0094966D01*
X0047211Y0094848D01*
X0047329Y0094727D01*
X0047444Y0094603D01*
X0047556Y0094476D01*
X0047665Y0094347D01*
X0047771Y0094215D01*
X0047873Y0094080D01*
X0047972Y0093943D01*
X0048068Y0093804D01*
X0048160Y0093662D01*
X0048249Y0093518D01*
X0048334Y0093372D01*
X0048415Y0093224D01*
X0048493Y0093074D01*
X0048567Y0092922D01*
X0048638Y0092768D01*
X0048705Y0092613D01*
X0048767Y0092456D01*
X0048826Y0092297D01*
X0048881Y0092137D01*
X0048932Y0091976D01*
X0048979Y0091814D01*
X0049023Y0091650D01*
X0049062Y0091486D01*
X0049097Y0091320D01*
X0049128Y0091154D01*
X0049154Y0090987D01*
X0049177Y0090819D01*
X0049196Y0090651D01*
X0049210Y0090483D01*
X0049221Y0090314D01*
X0049227Y0090145D01*
X0049229Y0089976D01*
X0049227Y0089807D01*
X0049221Y0089638D01*
X0049210Y0089469D01*
X0049196Y0089301D01*
X0049177Y0089133D01*
X0049154Y0088965D01*
X0049128Y0088798D01*
X0049097Y0088632D01*
X0049062Y0088466D01*
X0049023Y0088302D01*
X0048979Y0088138D01*
X0048932Y0087976D01*
X0048881Y0087815D01*
X0048826Y0087655D01*
X0048767Y0087496D01*
X0048705Y0087339D01*
X0048638Y0087184D01*
X0048567Y0087030D01*
X0048493Y0086878D01*
X0048415Y0086728D01*
X0048334Y0086580D01*
X0048249Y0086434D01*
X0048160Y0086290D01*
X0048068Y0086148D01*
X0047972Y0086009D01*
X0047873Y0085872D01*
X0047771Y0085737D01*
X0047665Y0085605D01*
X0047556Y0085476D01*
X0047444Y0085349D01*
X0047329Y0085225D01*
X0047211Y0085104D01*
X0047090Y0084986D01*
X0046966Y0084871D01*
X0046839Y0084759D01*
X0046710Y0084650D01*
X0046578Y0084544D01*
X0046443Y0084442D01*
X0046306Y0084343D01*
X0046167Y0084247D01*
X0046025Y0084155D01*
X0045881Y0084066D01*
X0045735Y0083981D01*
X0045587Y0083900D01*
X0045437Y0083822D01*
X0045285Y0083748D01*
X0045131Y0083677D01*
X0044976Y0083610D01*
X0044819Y0083548D01*
X0044660Y0083489D01*
X0044500Y0083434D01*
X0044339Y0083383D01*
X0044177Y0083336D01*
X0044013Y0083292D01*
X0043849Y0083253D01*
X0043683Y0083218D01*
X0043517Y0083187D01*
X0043350Y0083161D01*
X0043182Y0083138D01*
X0043014Y0083119D01*
X0042846Y0083105D01*
X0042677Y0083094D01*
X0042508Y0083088D01*
X0042339Y0083086D01*
X0042170Y0083088D01*
X0042001Y0083094D01*
X0041832Y0083105D01*
X0041664Y0083119D01*
X0041496Y0083138D01*
X0041328Y0083161D01*
X0041161Y0083187D01*
X0040995Y0083218D01*
X0040829Y0083253D01*
X0040665Y0083292D01*
X0040501Y0083336D01*
X0040339Y0083383D01*
X0040178Y0083434D01*
X0040018Y0083489D01*
X0039859Y0083548D01*
X0039702Y0083610D01*
X0039547Y0083677D01*
X0039393Y0083748D01*
X0039241Y0083822D01*
X0039091Y0083900D01*
X0038943Y0083981D01*
X0038797Y0084066D01*
X0038653Y0084155D01*
X0038511Y0084247D01*
X0038372Y0084343D01*
X0038235Y0084442D01*
X0038100Y0084544D01*
X0037968Y0084650D01*
X0037839Y0084759D01*
X0037712Y0084871D01*
X0037588Y0084986D01*
X0037467Y0085104D01*
X0037349Y0085225D01*
X0037234Y0085349D01*
X0037122Y0085476D01*
X0037013Y0085605D01*
X0036907Y0085737D01*
X0036805Y0085872D01*
X0036706Y0086009D01*
X0036610Y0086148D01*
X0036518Y0086290D01*
X0036429Y0086434D01*
X0036344Y0086580D01*
X0036263Y0086728D01*
X0036185Y0086878D01*
X0036111Y0087030D01*
X0036040Y0087184D01*
X0035973Y0087339D01*
X0035911Y0087496D01*
X0035852Y0087655D01*
X0035797Y0087815D01*
X0035746Y0087976D01*
X0035699Y0088138D01*
X0035655Y0088302D01*
X0035616Y0088466D01*
X0035581Y0088632D01*
X0035550Y0088798D01*
X0035524Y0088965D01*
X0035501Y0089133D01*
X0035482Y0089301D01*
X0035468Y0089469D01*
X0035457Y0089638D01*
X0035451Y0089807D01*
X0035449Y0089976D01*
X0013008Y0156512D02*
X0013010Y0156681D01*
X0013016Y0156850D01*
X0013027Y0157019D01*
X0013041Y0157187D01*
X0013060Y0157355D01*
X0013083Y0157523D01*
X0013109Y0157690D01*
X0013140Y0157856D01*
X0013175Y0158022D01*
X0013214Y0158186D01*
X0013258Y0158350D01*
X0013305Y0158512D01*
X0013356Y0158673D01*
X0013411Y0158833D01*
X0013470Y0158992D01*
X0013532Y0159149D01*
X0013599Y0159304D01*
X0013670Y0159458D01*
X0013744Y0159610D01*
X0013822Y0159760D01*
X0013903Y0159908D01*
X0013988Y0160054D01*
X0014077Y0160198D01*
X0014169Y0160340D01*
X0014265Y0160479D01*
X0014364Y0160616D01*
X0014466Y0160751D01*
X0014572Y0160883D01*
X0014681Y0161012D01*
X0014793Y0161139D01*
X0014908Y0161263D01*
X0015026Y0161384D01*
X0015147Y0161502D01*
X0015271Y0161617D01*
X0015398Y0161729D01*
X0015527Y0161838D01*
X0015659Y0161944D01*
X0015794Y0162046D01*
X0015931Y0162145D01*
X0016070Y0162241D01*
X0016212Y0162333D01*
X0016356Y0162422D01*
X0016502Y0162507D01*
X0016650Y0162588D01*
X0016800Y0162666D01*
X0016952Y0162740D01*
X0017106Y0162811D01*
X0017261Y0162878D01*
X0017418Y0162940D01*
X0017577Y0162999D01*
X0017737Y0163054D01*
X0017898Y0163105D01*
X0018060Y0163152D01*
X0018224Y0163196D01*
X0018388Y0163235D01*
X0018554Y0163270D01*
X0018720Y0163301D01*
X0018887Y0163327D01*
X0019055Y0163350D01*
X0019223Y0163369D01*
X0019391Y0163383D01*
X0019560Y0163394D01*
X0019729Y0163400D01*
X0019898Y0163402D01*
X0020067Y0163400D01*
X0020236Y0163394D01*
X0020405Y0163383D01*
X0020573Y0163369D01*
X0020741Y0163350D01*
X0020909Y0163327D01*
X0021076Y0163301D01*
X0021242Y0163270D01*
X0021408Y0163235D01*
X0021572Y0163196D01*
X0021736Y0163152D01*
X0021898Y0163105D01*
X0022059Y0163054D01*
X0022219Y0162999D01*
X0022378Y0162940D01*
X0022535Y0162878D01*
X0022690Y0162811D01*
X0022844Y0162740D01*
X0022996Y0162666D01*
X0023146Y0162588D01*
X0023294Y0162507D01*
X0023440Y0162422D01*
X0023584Y0162333D01*
X0023726Y0162241D01*
X0023865Y0162145D01*
X0024002Y0162046D01*
X0024137Y0161944D01*
X0024269Y0161838D01*
X0024398Y0161729D01*
X0024525Y0161617D01*
X0024649Y0161502D01*
X0024770Y0161384D01*
X0024888Y0161263D01*
X0025003Y0161139D01*
X0025115Y0161012D01*
X0025224Y0160883D01*
X0025330Y0160751D01*
X0025432Y0160616D01*
X0025531Y0160479D01*
X0025627Y0160340D01*
X0025719Y0160198D01*
X0025808Y0160054D01*
X0025893Y0159908D01*
X0025974Y0159760D01*
X0026052Y0159610D01*
X0026126Y0159458D01*
X0026197Y0159304D01*
X0026264Y0159149D01*
X0026326Y0158992D01*
X0026385Y0158833D01*
X0026440Y0158673D01*
X0026491Y0158512D01*
X0026538Y0158350D01*
X0026582Y0158186D01*
X0026621Y0158022D01*
X0026656Y0157856D01*
X0026687Y0157690D01*
X0026713Y0157523D01*
X0026736Y0157355D01*
X0026755Y0157187D01*
X0026769Y0157019D01*
X0026780Y0156850D01*
X0026786Y0156681D01*
X0026788Y0156512D01*
X0026786Y0156343D01*
X0026780Y0156174D01*
X0026769Y0156005D01*
X0026755Y0155837D01*
X0026736Y0155669D01*
X0026713Y0155501D01*
X0026687Y0155334D01*
X0026656Y0155168D01*
X0026621Y0155002D01*
X0026582Y0154838D01*
X0026538Y0154674D01*
X0026491Y0154512D01*
X0026440Y0154351D01*
X0026385Y0154191D01*
X0026326Y0154032D01*
X0026264Y0153875D01*
X0026197Y0153720D01*
X0026126Y0153566D01*
X0026052Y0153414D01*
X0025974Y0153264D01*
X0025893Y0153116D01*
X0025808Y0152970D01*
X0025719Y0152826D01*
X0025627Y0152684D01*
X0025531Y0152545D01*
X0025432Y0152408D01*
X0025330Y0152273D01*
X0025224Y0152141D01*
X0025115Y0152012D01*
X0025003Y0151885D01*
X0024888Y0151761D01*
X0024770Y0151640D01*
X0024649Y0151522D01*
X0024525Y0151407D01*
X0024398Y0151295D01*
X0024269Y0151186D01*
X0024137Y0151080D01*
X0024002Y0150978D01*
X0023865Y0150879D01*
X0023726Y0150783D01*
X0023584Y0150691D01*
X0023440Y0150602D01*
X0023294Y0150517D01*
X0023146Y0150436D01*
X0022996Y0150358D01*
X0022844Y0150284D01*
X0022690Y0150213D01*
X0022535Y0150146D01*
X0022378Y0150084D01*
X0022219Y0150025D01*
X0022059Y0149970D01*
X0021898Y0149919D01*
X0021736Y0149872D01*
X0021572Y0149828D01*
X0021408Y0149789D01*
X0021242Y0149754D01*
X0021076Y0149723D01*
X0020909Y0149697D01*
X0020741Y0149674D01*
X0020573Y0149655D01*
X0020405Y0149641D01*
X0020236Y0149630D01*
X0020067Y0149624D01*
X0019898Y0149622D01*
X0019729Y0149624D01*
X0019560Y0149630D01*
X0019391Y0149641D01*
X0019223Y0149655D01*
X0019055Y0149674D01*
X0018887Y0149697D01*
X0018720Y0149723D01*
X0018554Y0149754D01*
X0018388Y0149789D01*
X0018224Y0149828D01*
X0018060Y0149872D01*
X0017898Y0149919D01*
X0017737Y0149970D01*
X0017577Y0150025D01*
X0017418Y0150084D01*
X0017261Y0150146D01*
X0017106Y0150213D01*
X0016952Y0150284D01*
X0016800Y0150358D01*
X0016650Y0150436D01*
X0016502Y0150517D01*
X0016356Y0150602D01*
X0016212Y0150691D01*
X0016070Y0150783D01*
X0015931Y0150879D01*
X0015794Y0150978D01*
X0015659Y0151080D01*
X0015527Y0151186D01*
X0015398Y0151295D01*
X0015271Y0151407D01*
X0015147Y0151522D01*
X0015026Y0151640D01*
X0014908Y0151761D01*
X0014793Y0151885D01*
X0014681Y0152012D01*
X0014572Y0152141D01*
X0014466Y0152273D01*
X0014364Y0152408D01*
X0014265Y0152545D01*
X0014169Y0152684D01*
X0014077Y0152826D01*
X0013988Y0152970D01*
X0013903Y0153116D01*
X0013822Y0153264D01*
X0013744Y0153414D01*
X0013670Y0153566D01*
X0013599Y0153720D01*
X0013532Y0153875D01*
X0013470Y0154032D01*
X0013411Y0154191D01*
X0013356Y0154351D01*
X0013305Y0154512D01*
X0013258Y0154674D01*
X0013214Y0154838D01*
X0013175Y0155002D01*
X0013140Y0155168D01*
X0013109Y0155334D01*
X0013083Y0155501D01*
X0013060Y0155669D01*
X0013041Y0155837D01*
X0013027Y0156005D01*
X0013016Y0156174D01*
X0013010Y0156343D01*
X0013008Y0156512D01*
X0131905Y0156512D02*
X0131907Y0156681D01*
X0131913Y0156850D01*
X0131924Y0157019D01*
X0131938Y0157187D01*
X0131957Y0157355D01*
X0131980Y0157523D01*
X0132006Y0157690D01*
X0132037Y0157856D01*
X0132072Y0158022D01*
X0132111Y0158186D01*
X0132155Y0158350D01*
X0132202Y0158512D01*
X0132253Y0158673D01*
X0132308Y0158833D01*
X0132367Y0158992D01*
X0132429Y0159149D01*
X0132496Y0159304D01*
X0132567Y0159458D01*
X0132641Y0159610D01*
X0132719Y0159760D01*
X0132800Y0159908D01*
X0132885Y0160054D01*
X0132974Y0160198D01*
X0133066Y0160340D01*
X0133162Y0160479D01*
X0133261Y0160616D01*
X0133363Y0160751D01*
X0133469Y0160883D01*
X0133578Y0161012D01*
X0133690Y0161139D01*
X0133805Y0161263D01*
X0133923Y0161384D01*
X0134044Y0161502D01*
X0134168Y0161617D01*
X0134295Y0161729D01*
X0134424Y0161838D01*
X0134556Y0161944D01*
X0134691Y0162046D01*
X0134828Y0162145D01*
X0134967Y0162241D01*
X0135109Y0162333D01*
X0135253Y0162422D01*
X0135399Y0162507D01*
X0135547Y0162588D01*
X0135697Y0162666D01*
X0135849Y0162740D01*
X0136003Y0162811D01*
X0136158Y0162878D01*
X0136315Y0162940D01*
X0136474Y0162999D01*
X0136634Y0163054D01*
X0136795Y0163105D01*
X0136957Y0163152D01*
X0137121Y0163196D01*
X0137285Y0163235D01*
X0137451Y0163270D01*
X0137617Y0163301D01*
X0137784Y0163327D01*
X0137952Y0163350D01*
X0138120Y0163369D01*
X0138288Y0163383D01*
X0138457Y0163394D01*
X0138626Y0163400D01*
X0138795Y0163402D01*
X0138964Y0163400D01*
X0139133Y0163394D01*
X0139302Y0163383D01*
X0139470Y0163369D01*
X0139638Y0163350D01*
X0139806Y0163327D01*
X0139973Y0163301D01*
X0140139Y0163270D01*
X0140305Y0163235D01*
X0140469Y0163196D01*
X0140633Y0163152D01*
X0140795Y0163105D01*
X0140956Y0163054D01*
X0141116Y0162999D01*
X0141275Y0162940D01*
X0141432Y0162878D01*
X0141587Y0162811D01*
X0141741Y0162740D01*
X0141893Y0162666D01*
X0142043Y0162588D01*
X0142191Y0162507D01*
X0142337Y0162422D01*
X0142481Y0162333D01*
X0142623Y0162241D01*
X0142762Y0162145D01*
X0142899Y0162046D01*
X0143034Y0161944D01*
X0143166Y0161838D01*
X0143295Y0161729D01*
X0143422Y0161617D01*
X0143546Y0161502D01*
X0143667Y0161384D01*
X0143785Y0161263D01*
X0143900Y0161139D01*
X0144012Y0161012D01*
X0144121Y0160883D01*
X0144227Y0160751D01*
X0144329Y0160616D01*
X0144428Y0160479D01*
X0144524Y0160340D01*
X0144616Y0160198D01*
X0144705Y0160054D01*
X0144790Y0159908D01*
X0144871Y0159760D01*
X0144949Y0159610D01*
X0145023Y0159458D01*
X0145094Y0159304D01*
X0145161Y0159149D01*
X0145223Y0158992D01*
X0145282Y0158833D01*
X0145337Y0158673D01*
X0145388Y0158512D01*
X0145435Y0158350D01*
X0145479Y0158186D01*
X0145518Y0158022D01*
X0145553Y0157856D01*
X0145584Y0157690D01*
X0145610Y0157523D01*
X0145633Y0157355D01*
X0145652Y0157187D01*
X0145666Y0157019D01*
X0145677Y0156850D01*
X0145683Y0156681D01*
X0145685Y0156512D01*
X0145683Y0156343D01*
X0145677Y0156174D01*
X0145666Y0156005D01*
X0145652Y0155837D01*
X0145633Y0155669D01*
X0145610Y0155501D01*
X0145584Y0155334D01*
X0145553Y0155168D01*
X0145518Y0155002D01*
X0145479Y0154838D01*
X0145435Y0154674D01*
X0145388Y0154512D01*
X0145337Y0154351D01*
X0145282Y0154191D01*
X0145223Y0154032D01*
X0145161Y0153875D01*
X0145094Y0153720D01*
X0145023Y0153566D01*
X0144949Y0153414D01*
X0144871Y0153264D01*
X0144790Y0153116D01*
X0144705Y0152970D01*
X0144616Y0152826D01*
X0144524Y0152684D01*
X0144428Y0152545D01*
X0144329Y0152408D01*
X0144227Y0152273D01*
X0144121Y0152141D01*
X0144012Y0152012D01*
X0143900Y0151885D01*
X0143785Y0151761D01*
X0143667Y0151640D01*
X0143546Y0151522D01*
X0143422Y0151407D01*
X0143295Y0151295D01*
X0143166Y0151186D01*
X0143034Y0151080D01*
X0142899Y0150978D01*
X0142762Y0150879D01*
X0142623Y0150783D01*
X0142481Y0150691D01*
X0142337Y0150602D01*
X0142191Y0150517D01*
X0142043Y0150436D01*
X0141893Y0150358D01*
X0141741Y0150284D01*
X0141587Y0150213D01*
X0141432Y0150146D01*
X0141275Y0150084D01*
X0141116Y0150025D01*
X0140956Y0149970D01*
X0140795Y0149919D01*
X0140633Y0149872D01*
X0140469Y0149828D01*
X0140305Y0149789D01*
X0140139Y0149754D01*
X0139973Y0149723D01*
X0139806Y0149697D01*
X0139638Y0149674D01*
X0139470Y0149655D01*
X0139302Y0149641D01*
X0139133Y0149630D01*
X0138964Y0149624D01*
X0138795Y0149622D01*
X0138626Y0149624D01*
X0138457Y0149630D01*
X0138288Y0149641D01*
X0138120Y0149655D01*
X0137952Y0149674D01*
X0137784Y0149697D01*
X0137617Y0149723D01*
X0137451Y0149754D01*
X0137285Y0149789D01*
X0137121Y0149828D01*
X0136957Y0149872D01*
X0136795Y0149919D01*
X0136634Y0149970D01*
X0136474Y0150025D01*
X0136315Y0150084D01*
X0136158Y0150146D01*
X0136003Y0150213D01*
X0135849Y0150284D01*
X0135697Y0150358D01*
X0135547Y0150436D01*
X0135399Y0150517D01*
X0135253Y0150602D01*
X0135109Y0150691D01*
X0134967Y0150783D01*
X0134828Y0150879D01*
X0134691Y0150978D01*
X0134556Y0151080D01*
X0134424Y0151186D01*
X0134295Y0151295D01*
X0134168Y0151407D01*
X0134044Y0151522D01*
X0133923Y0151640D01*
X0133805Y0151761D01*
X0133690Y0151885D01*
X0133578Y0152012D01*
X0133469Y0152141D01*
X0133363Y0152273D01*
X0133261Y0152408D01*
X0133162Y0152545D01*
X0133066Y0152684D01*
X0132974Y0152826D01*
X0132885Y0152970D01*
X0132800Y0153116D01*
X0132719Y0153264D01*
X0132641Y0153414D01*
X0132567Y0153566D01*
X0132496Y0153720D01*
X0132429Y0153875D01*
X0132367Y0154032D01*
X0132308Y0154191D01*
X0132253Y0154351D01*
X0132202Y0154512D01*
X0132155Y0154674D01*
X0132111Y0154838D01*
X0132072Y0155002D01*
X0132037Y0155168D01*
X0132006Y0155334D01*
X0131980Y0155501D01*
X0131957Y0155669D01*
X0131938Y0155837D01*
X0131924Y0156005D01*
X0131913Y0156174D01*
X0131907Y0156343D01*
X0131905Y0156512D01*
M02*
