G75*
%MOIN*%
%OFA0B0*%
%FSLAX25Y25*%
%IPPOS*%
%LPD*%
%AMOC8*
5,1,8,0,0,1.08239X$1,22.5*
%
%ADD10C,0.00787*%
%ADD11C,0.00600*%
%ADD12C,0.00700*%
D10*
X0041551Y0047485D02*
X0041551Y0060027D01*
X0041551Y0058874D02*
X0044307Y0058874D01*
X0044307Y0048638D01*
X0041551Y0048638D01*
X0041551Y0047485D02*
X0041553Y0047323D01*
X0041559Y0047160D01*
X0041569Y0046998D01*
X0041582Y0046836D01*
X0041600Y0046675D01*
X0041622Y0046514D01*
X0041647Y0046353D01*
X0041676Y0046194D01*
X0041709Y0046035D01*
X0041746Y0045877D01*
X0041787Y0045719D01*
X0041832Y0045563D01*
X0041880Y0045408D01*
X0041932Y0045254D01*
X0041988Y0045102D01*
X0042047Y0044951D01*
X0042110Y0044801D01*
X0042177Y0044653D01*
X0042247Y0044506D01*
X0042321Y0044362D01*
X0042398Y0044219D01*
X0042479Y0044078D01*
X0042563Y0043939D01*
X0042650Y0043802D01*
X0042741Y0043667D01*
X0042835Y0043534D01*
X0042932Y0043404D01*
X0043032Y0043276D01*
X0043135Y0043151D01*
X0043241Y0043028D01*
X0043350Y0042908D01*
X0043462Y0042790D01*
X0043577Y0042675D01*
X0043695Y0042563D01*
X0043815Y0042454D01*
X0043938Y0042348D01*
X0044063Y0042245D01*
X0044191Y0042145D01*
X0044321Y0042048D01*
X0044454Y0041954D01*
X0044589Y0041863D01*
X0044726Y0041776D01*
X0044865Y0041692D01*
X0045006Y0041611D01*
X0045149Y0041534D01*
X0045293Y0041460D01*
X0045440Y0041390D01*
X0045588Y0041323D01*
X0045738Y0041260D01*
X0045889Y0041201D01*
X0046041Y0041145D01*
X0046195Y0041093D01*
X0046350Y0041045D01*
X0046506Y0041000D01*
X0046664Y0040959D01*
X0046822Y0040922D01*
X0046981Y0040889D01*
X0047140Y0040860D01*
X0047301Y0040835D01*
X0047462Y0040813D01*
X0047623Y0040795D01*
X0047785Y0040782D01*
X0047947Y0040772D01*
X0048110Y0040766D01*
X0048272Y0040764D01*
X0049031Y0040764D01*
X0049031Y0043520D01*
X0059268Y0043520D01*
X0059268Y0040764D01*
X0049031Y0040764D01*
X0059268Y0040764D02*
X0060083Y0040764D01*
X0060083Y0040763D02*
X0060244Y0040765D01*
X0060405Y0040771D01*
X0060566Y0040781D01*
X0060726Y0040794D01*
X0060886Y0040812D01*
X0061046Y0040833D01*
X0061205Y0040858D01*
X0061364Y0040887D01*
X0061521Y0040920D01*
X0061678Y0040957D01*
X0061834Y0040997D01*
X0061989Y0041041D01*
X0062143Y0041089D01*
X0062295Y0041141D01*
X0062446Y0041196D01*
X0062596Y0041255D01*
X0062745Y0041318D01*
X0062892Y0041384D01*
X0063037Y0041453D01*
X0063180Y0041526D01*
X0063322Y0041603D01*
X0063462Y0041683D01*
X0063600Y0041766D01*
X0063736Y0041853D01*
X0063869Y0041943D01*
X0064001Y0042036D01*
X0064130Y0042132D01*
X0064257Y0042231D01*
X0064381Y0042334D01*
X0064503Y0042439D01*
X0064622Y0042547D01*
X0064739Y0042659D01*
X0064852Y0042772D01*
X0064964Y0042889D01*
X0065072Y0043008D01*
X0065177Y0043130D01*
X0065280Y0043254D01*
X0065379Y0043381D01*
X0065475Y0043510D01*
X0065568Y0043642D01*
X0065658Y0043775D01*
X0065745Y0043911D01*
X0065828Y0044049D01*
X0065908Y0044189D01*
X0065985Y0044331D01*
X0066058Y0044474D01*
X0066127Y0044619D01*
X0066193Y0044766D01*
X0066256Y0044915D01*
X0066315Y0045065D01*
X0066370Y0045216D01*
X0066422Y0045368D01*
X0066470Y0045522D01*
X0066514Y0045677D01*
X0066554Y0045833D01*
X0066591Y0045990D01*
X0066624Y0046147D01*
X0066653Y0046306D01*
X0066678Y0046465D01*
X0066699Y0046625D01*
X0066717Y0046785D01*
X0066730Y0046945D01*
X0066740Y0047106D01*
X0066746Y0047267D01*
X0066748Y0047428D01*
X0066748Y0060027D01*
X0066748Y0058874D02*
X0063992Y0058874D01*
X0063992Y0048638D01*
X0066748Y0048638D01*
X0066748Y0060027D02*
X0066746Y0060189D01*
X0066740Y0060352D01*
X0066730Y0060514D01*
X0066717Y0060676D01*
X0066699Y0060837D01*
X0066677Y0060998D01*
X0066652Y0061159D01*
X0066623Y0061318D01*
X0066590Y0061477D01*
X0066553Y0061635D01*
X0066512Y0061793D01*
X0066467Y0061949D01*
X0066419Y0062104D01*
X0066367Y0062258D01*
X0066311Y0062410D01*
X0066252Y0062561D01*
X0066189Y0062711D01*
X0066122Y0062859D01*
X0066052Y0063006D01*
X0065978Y0063150D01*
X0065901Y0063293D01*
X0065820Y0063434D01*
X0065736Y0063573D01*
X0065649Y0063710D01*
X0065558Y0063845D01*
X0065464Y0063978D01*
X0065367Y0064108D01*
X0065267Y0064236D01*
X0065164Y0064361D01*
X0065058Y0064484D01*
X0064949Y0064604D01*
X0064837Y0064722D01*
X0064722Y0064837D01*
X0064604Y0064949D01*
X0064484Y0065058D01*
X0064361Y0065164D01*
X0064236Y0065267D01*
X0064108Y0065367D01*
X0063978Y0065464D01*
X0063845Y0065558D01*
X0063710Y0065649D01*
X0063573Y0065736D01*
X0063434Y0065820D01*
X0063293Y0065901D01*
X0063150Y0065978D01*
X0063006Y0066052D01*
X0062859Y0066122D01*
X0062711Y0066189D01*
X0062561Y0066252D01*
X0062410Y0066311D01*
X0062258Y0066367D01*
X0062104Y0066419D01*
X0061949Y0066467D01*
X0061793Y0066512D01*
X0061635Y0066553D01*
X0061477Y0066590D01*
X0061318Y0066623D01*
X0061159Y0066652D01*
X0060998Y0066677D01*
X0060837Y0066699D01*
X0060676Y0066717D01*
X0060514Y0066730D01*
X0060352Y0066740D01*
X0060189Y0066746D01*
X0060027Y0066748D01*
X0048272Y0066748D01*
X0049425Y0066748D02*
X0049425Y0063992D01*
X0059661Y0063992D01*
X0059661Y0066748D01*
X0048272Y0066748D02*
X0048110Y0066746D01*
X0047947Y0066740D01*
X0047785Y0066730D01*
X0047623Y0066717D01*
X0047462Y0066699D01*
X0047301Y0066677D01*
X0047140Y0066652D01*
X0046981Y0066623D01*
X0046822Y0066590D01*
X0046664Y0066553D01*
X0046506Y0066512D01*
X0046350Y0066467D01*
X0046195Y0066419D01*
X0046041Y0066367D01*
X0045889Y0066311D01*
X0045738Y0066252D01*
X0045588Y0066189D01*
X0045440Y0066122D01*
X0045293Y0066052D01*
X0045149Y0065978D01*
X0045006Y0065901D01*
X0044865Y0065820D01*
X0044726Y0065736D01*
X0044589Y0065649D01*
X0044454Y0065558D01*
X0044321Y0065464D01*
X0044191Y0065367D01*
X0044063Y0065267D01*
X0043938Y0065164D01*
X0043815Y0065058D01*
X0043695Y0064949D01*
X0043577Y0064837D01*
X0043462Y0064722D01*
X0043350Y0064604D01*
X0043241Y0064484D01*
X0043135Y0064361D01*
X0043032Y0064236D01*
X0042932Y0064108D01*
X0042835Y0063978D01*
X0042741Y0063845D01*
X0042650Y0063710D01*
X0042563Y0063573D01*
X0042479Y0063434D01*
X0042398Y0063293D01*
X0042321Y0063150D01*
X0042247Y0063006D01*
X0042177Y0062859D01*
X0042110Y0062711D01*
X0042047Y0062561D01*
X0041988Y0062410D01*
X0041932Y0062258D01*
X0041880Y0062104D01*
X0041832Y0061949D01*
X0041787Y0061793D01*
X0041746Y0061635D01*
X0041709Y0061477D01*
X0041676Y0061318D01*
X0041647Y0061159D01*
X0041622Y0060998D01*
X0041600Y0060837D01*
X0041582Y0060676D01*
X0041569Y0060514D01*
X0041559Y0060352D01*
X0041553Y0060189D01*
X0041551Y0060027D01*
X0027772Y0055923D02*
X0027779Y0056489D01*
X0027799Y0057055D01*
X0027834Y0057620D01*
X0027881Y0058184D01*
X0027943Y0058746D01*
X0028018Y0059307D01*
X0028106Y0059866D01*
X0028208Y0060423D01*
X0028324Y0060977D01*
X0028453Y0061528D01*
X0028595Y0062076D01*
X0028750Y0062621D01*
X0028918Y0063161D01*
X0029100Y0063697D01*
X0029294Y0064229D01*
X0029501Y0064756D01*
X0029721Y0065277D01*
X0029953Y0065793D01*
X0030198Y0066304D01*
X0030455Y0066808D01*
X0030724Y0067306D01*
X0031005Y0067798D01*
X0031298Y0068282D01*
X0031602Y0068759D01*
X0031918Y0069229D01*
X0032245Y0069691D01*
X0032584Y0070145D01*
X0032933Y0070590D01*
X0033292Y0071027D01*
X0033663Y0071455D01*
X0034043Y0071874D01*
X0034434Y0072284D01*
X0034834Y0072684D01*
X0035244Y0073075D01*
X0035663Y0073455D01*
X0036091Y0073826D01*
X0036528Y0074185D01*
X0036973Y0074534D01*
X0037427Y0074873D01*
X0037889Y0075200D01*
X0038359Y0075516D01*
X0038836Y0075820D01*
X0039320Y0076113D01*
X0039812Y0076394D01*
X0040310Y0076663D01*
X0040814Y0076920D01*
X0041325Y0077165D01*
X0041841Y0077397D01*
X0042362Y0077617D01*
X0042889Y0077824D01*
X0043421Y0078018D01*
X0043957Y0078200D01*
X0044497Y0078368D01*
X0045042Y0078523D01*
X0045590Y0078665D01*
X0046141Y0078794D01*
X0046695Y0078910D01*
X0047252Y0079012D01*
X0047811Y0079100D01*
X0048372Y0079175D01*
X0048934Y0079237D01*
X0049498Y0079284D01*
X0050063Y0079319D01*
X0050629Y0079339D01*
X0051195Y0079346D01*
X0106711Y0079346D01*
X0107277Y0079339D01*
X0107843Y0079319D01*
X0108408Y0079284D01*
X0108972Y0079237D01*
X0109534Y0079175D01*
X0110095Y0079100D01*
X0110654Y0079012D01*
X0111211Y0078910D01*
X0111765Y0078794D01*
X0112316Y0078665D01*
X0112864Y0078523D01*
X0113409Y0078368D01*
X0113949Y0078200D01*
X0114485Y0078018D01*
X0115017Y0077824D01*
X0115544Y0077617D01*
X0116065Y0077397D01*
X0116581Y0077165D01*
X0117092Y0076920D01*
X0117596Y0076663D01*
X0118094Y0076394D01*
X0118586Y0076113D01*
X0119070Y0075820D01*
X0119547Y0075516D01*
X0120017Y0075200D01*
X0120479Y0074873D01*
X0120933Y0074534D01*
X0121378Y0074185D01*
X0121815Y0073826D01*
X0122243Y0073455D01*
X0122662Y0073075D01*
X0123072Y0072684D01*
X0123472Y0072284D01*
X0123863Y0071874D01*
X0124243Y0071455D01*
X0124614Y0071027D01*
X0124973Y0070590D01*
X0125322Y0070145D01*
X0125661Y0069691D01*
X0125988Y0069229D01*
X0126304Y0068759D01*
X0126608Y0068282D01*
X0126901Y0067798D01*
X0127182Y0067306D01*
X0127451Y0066808D01*
X0127708Y0066304D01*
X0127953Y0065793D01*
X0128185Y0065277D01*
X0128405Y0064756D01*
X0128612Y0064229D01*
X0128806Y0063697D01*
X0128988Y0063161D01*
X0129156Y0062621D01*
X0129311Y0062076D01*
X0129453Y0061528D01*
X0129582Y0060977D01*
X0129698Y0060423D01*
X0129800Y0059866D01*
X0129888Y0059307D01*
X0129963Y0058746D01*
X0130025Y0058184D01*
X0130072Y0057620D01*
X0130107Y0057055D01*
X0130127Y0056489D01*
X0130134Y0055923D01*
X0130134Y0051589D01*
X0130127Y0051023D01*
X0130107Y0050457D01*
X0130072Y0049892D01*
X0130025Y0049328D01*
X0129963Y0048766D01*
X0129888Y0048205D01*
X0129800Y0047646D01*
X0129698Y0047089D01*
X0129582Y0046535D01*
X0129453Y0045984D01*
X0129311Y0045436D01*
X0129156Y0044891D01*
X0128988Y0044351D01*
X0128806Y0043815D01*
X0128612Y0043283D01*
X0128405Y0042756D01*
X0128185Y0042235D01*
X0127953Y0041719D01*
X0127708Y0041208D01*
X0127451Y0040704D01*
X0127182Y0040206D01*
X0126901Y0039714D01*
X0126608Y0039230D01*
X0126304Y0038753D01*
X0125988Y0038283D01*
X0125661Y0037821D01*
X0125322Y0037367D01*
X0124973Y0036922D01*
X0124614Y0036485D01*
X0124243Y0036057D01*
X0123863Y0035638D01*
X0123472Y0035228D01*
X0123072Y0034828D01*
X0122662Y0034437D01*
X0122243Y0034057D01*
X0121815Y0033686D01*
X0121378Y0033327D01*
X0120933Y0032978D01*
X0120479Y0032639D01*
X0120017Y0032312D01*
X0119547Y0031996D01*
X0119070Y0031692D01*
X0118586Y0031399D01*
X0118094Y0031118D01*
X0117596Y0030849D01*
X0117092Y0030592D01*
X0116581Y0030347D01*
X0116065Y0030115D01*
X0115544Y0029895D01*
X0115017Y0029688D01*
X0114485Y0029494D01*
X0113949Y0029312D01*
X0113409Y0029144D01*
X0112864Y0028989D01*
X0112316Y0028847D01*
X0111765Y0028718D01*
X0111211Y0028602D01*
X0110654Y0028500D01*
X0110095Y0028412D01*
X0109534Y0028337D01*
X0108972Y0028275D01*
X0108408Y0028228D01*
X0107843Y0028193D01*
X0107277Y0028173D01*
X0106711Y0028166D01*
X0106711Y0028165D02*
X0051195Y0028165D01*
X0051195Y0028166D02*
X0050629Y0028173D01*
X0050063Y0028193D01*
X0049498Y0028228D01*
X0048934Y0028275D01*
X0048372Y0028337D01*
X0047811Y0028412D01*
X0047252Y0028500D01*
X0046695Y0028602D01*
X0046141Y0028718D01*
X0045590Y0028847D01*
X0045042Y0028989D01*
X0044497Y0029144D01*
X0043957Y0029312D01*
X0043421Y0029494D01*
X0042889Y0029688D01*
X0042362Y0029895D01*
X0041841Y0030115D01*
X0041325Y0030347D01*
X0040814Y0030592D01*
X0040310Y0030849D01*
X0039812Y0031118D01*
X0039320Y0031399D01*
X0038836Y0031692D01*
X0038359Y0031996D01*
X0037889Y0032312D01*
X0037427Y0032639D01*
X0036973Y0032978D01*
X0036528Y0033327D01*
X0036091Y0033686D01*
X0035663Y0034057D01*
X0035244Y0034437D01*
X0034834Y0034828D01*
X0034434Y0035228D01*
X0034043Y0035638D01*
X0033663Y0036057D01*
X0033292Y0036485D01*
X0032933Y0036922D01*
X0032584Y0037367D01*
X0032245Y0037821D01*
X0031918Y0038283D01*
X0031602Y0038753D01*
X0031298Y0039230D01*
X0031005Y0039714D01*
X0030724Y0040206D01*
X0030455Y0040704D01*
X0030198Y0041208D01*
X0029953Y0041719D01*
X0029721Y0042235D01*
X0029501Y0042756D01*
X0029294Y0043283D01*
X0029100Y0043815D01*
X0028918Y0044351D01*
X0028750Y0044891D01*
X0028595Y0045436D01*
X0028453Y0045984D01*
X0028324Y0046535D01*
X0028208Y0047089D01*
X0028106Y0047646D01*
X0028018Y0048205D01*
X0027943Y0048766D01*
X0027881Y0049328D01*
X0027834Y0049892D01*
X0027799Y0050457D01*
X0027779Y0051023D01*
X0027772Y0051589D01*
X0027772Y0055923D01*
X0051195Y0118717D02*
X0106711Y0118717D01*
X0108480Y0131315D02*
X0108480Y0134071D01*
X0098244Y0134071D01*
X0098244Y0131315D01*
X0097878Y0131315D02*
X0109633Y0131315D01*
X0109795Y0131317D01*
X0109958Y0131323D01*
X0110120Y0131333D01*
X0110282Y0131346D01*
X0110443Y0131364D01*
X0110604Y0131386D01*
X0110765Y0131411D01*
X0110924Y0131440D01*
X0111083Y0131473D01*
X0111241Y0131510D01*
X0111399Y0131551D01*
X0111555Y0131596D01*
X0111710Y0131644D01*
X0111864Y0131696D01*
X0112016Y0131752D01*
X0112167Y0131811D01*
X0112317Y0131874D01*
X0112465Y0131941D01*
X0112612Y0132011D01*
X0112756Y0132085D01*
X0112899Y0132162D01*
X0113040Y0132243D01*
X0113179Y0132327D01*
X0113316Y0132414D01*
X0113451Y0132505D01*
X0113584Y0132599D01*
X0113714Y0132696D01*
X0113842Y0132796D01*
X0113967Y0132899D01*
X0114090Y0133005D01*
X0114210Y0133114D01*
X0114328Y0133226D01*
X0114443Y0133341D01*
X0114555Y0133459D01*
X0114664Y0133579D01*
X0114770Y0133702D01*
X0114873Y0133827D01*
X0114973Y0133955D01*
X0115070Y0134085D01*
X0115164Y0134218D01*
X0115255Y0134353D01*
X0115342Y0134490D01*
X0115426Y0134629D01*
X0115507Y0134770D01*
X0115584Y0134913D01*
X0115658Y0135057D01*
X0115728Y0135204D01*
X0115795Y0135352D01*
X0115858Y0135502D01*
X0115917Y0135653D01*
X0115973Y0135805D01*
X0116025Y0135959D01*
X0116073Y0136114D01*
X0116118Y0136270D01*
X0116159Y0136428D01*
X0116196Y0136586D01*
X0116229Y0136745D01*
X0116258Y0136904D01*
X0116283Y0137065D01*
X0116305Y0137226D01*
X0116323Y0137387D01*
X0116336Y0137549D01*
X0116346Y0137711D01*
X0116352Y0137874D01*
X0116354Y0138036D01*
X0116354Y0150578D01*
X0116354Y0149425D02*
X0113598Y0149425D01*
X0113598Y0139189D01*
X0116354Y0139189D01*
X0130134Y0142140D02*
X0130127Y0141574D01*
X0130107Y0141008D01*
X0130072Y0140443D01*
X0130025Y0139879D01*
X0129963Y0139317D01*
X0129888Y0138756D01*
X0129800Y0138197D01*
X0129698Y0137640D01*
X0129582Y0137086D01*
X0129453Y0136535D01*
X0129311Y0135987D01*
X0129156Y0135442D01*
X0128988Y0134902D01*
X0128806Y0134366D01*
X0128612Y0133834D01*
X0128405Y0133307D01*
X0128185Y0132786D01*
X0127953Y0132270D01*
X0127708Y0131759D01*
X0127451Y0131255D01*
X0127182Y0130757D01*
X0126901Y0130265D01*
X0126608Y0129781D01*
X0126304Y0129304D01*
X0125988Y0128834D01*
X0125661Y0128372D01*
X0125322Y0127918D01*
X0124973Y0127473D01*
X0124614Y0127036D01*
X0124243Y0126608D01*
X0123863Y0126189D01*
X0123472Y0125779D01*
X0123072Y0125379D01*
X0122662Y0124988D01*
X0122243Y0124608D01*
X0121815Y0124237D01*
X0121378Y0123878D01*
X0120933Y0123529D01*
X0120479Y0123190D01*
X0120017Y0122863D01*
X0119547Y0122547D01*
X0119070Y0122243D01*
X0118586Y0121950D01*
X0118094Y0121669D01*
X0117596Y0121400D01*
X0117092Y0121143D01*
X0116581Y0120898D01*
X0116065Y0120666D01*
X0115544Y0120446D01*
X0115017Y0120239D01*
X0114485Y0120045D01*
X0113949Y0119863D01*
X0113409Y0119695D01*
X0112864Y0119540D01*
X0112316Y0119398D01*
X0111765Y0119269D01*
X0111211Y0119153D01*
X0110654Y0119051D01*
X0110095Y0118963D01*
X0109534Y0118888D01*
X0108972Y0118826D01*
X0108408Y0118779D01*
X0107843Y0118744D01*
X0107277Y0118724D01*
X0106711Y0118717D01*
X0097878Y0131315D02*
X0097716Y0131317D01*
X0097553Y0131323D01*
X0097391Y0131333D01*
X0097229Y0131346D01*
X0097068Y0131364D01*
X0096907Y0131386D01*
X0096746Y0131411D01*
X0096587Y0131440D01*
X0096428Y0131473D01*
X0096270Y0131510D01*
X0096112Y0131551D01*
X0095956Y0131596D01*
X0095801Y0131644D01*
X0095647Y0131696D01*
X0095495Y0131752D01*
X0095344Y0131811D01*
X0095194Y0131874D01*
X0095046Y0131941D01*
X0094899Y0132011D01*
X0094755Y0132085D01*
X0094612Y0132162D01*
X0094471Y0132243D01*
X0094332Y0132327D01*
X0094195Y0132414D01*
X0094060Y0132505D01*
X0093927Y0132599D01*
X0093797Y0132696D01*
X0093669Y0132796D01*
X0093544Y0132899D01*
X0093421Y0133005D01*
X0093301Y0133114D01*
X0093183Y0133226D01*
X0093068Y0133341D01*
X0092956Y0133459D01*
X0092847Y0133579D01*
X0092741Y0133702D01*
X0092638Y0133827D01*
X0092538Y0133955D01*
X0092441Y0134085D01*
X0092347Y0134218D01*
X0092256Y0134353D01*
X0092169Y0134490D01*
X0092085Y0134629D01*
X0092004Y0134770D01*
X0091927Y0134913D01*
X0091853Y0135057D01*
X0091783Y0135204D01*
X0091716Y0135352D01*
X0091653Y0135502D01*
X0091594Y0135653D01*
X0091538Y0135805D01*
X0091486Y0135959D01*
X0091438Y0136114D01*
X0091393Y0136270D01*
X0091352Y0136428D01*
X0091315Y0136586D01*
X0091282Y0136745D01*
X0091253Y0136904D01*
X0091228Y0137065D01*
X0091206Y0137226D01*
X0091188Y0137387D01*
X0091175Y0137549D01*
X0091165Y0137711D01*
X0091159Y0137874D01*
X0091157Y0138036D01*
X0091157Y0150635D01*
X0091157Y0149425D02*
X0093913Y0149425D01*
X0093913Y0139189D01*
X0091157Y0139189D01*
X0091157Y0150635D02*
X0091159Y0150796D01*
X0091165Y0150957D01*
X0091175Y0151118D01*
X0091188Y0151278D01*
X0091206Y0151438D01*
X0091227Y0151598D01*
X0091252Y0151757D01*
X0091281Y0151916D01*
X0091314Y0152073D01*
X0091351Y0152230D01*
X0091391Y0152386D01*
X0091435Y0152541D01*
X0091483Y0152695D01*
X0091535Y0152847D01*
X0091590Y0152998D01*
X0091649Y0153148D01*
X0091712Y0153297D01*
X0091778Y0153444D01*
X0091847Y0153589D01*
X0091920Y0153732D01*
X0091997Y0153874D01*
X0092077Y0154014D01*
X0092160Y0154152D01*
X0092247Y0154288D01*
X0092337Y0154421D01*
X0092430Y0154553D01*
X0092526Y0154682D01*
X0092625Y0154809D01*
X0092728Y0154933D01*
X0092833Y0155055D01*
X0092941Y0155174D01*
X0093053Y0155291D01*
X0093166Y0155404D01*
X0093283Y0155516D01*
X0093402Y0155624D01*
X0093524Y0155729D01*
X0093648Y0155832D01*
X0093775Y0155931D01*
X0093904Y0156027D01*
X0094036Y0156120D01*
X0094169Y0156210D01*
X0094305Y0156297D01*
X0094443Y0156380D01*
X0094583Y0156460D01*
X0094725Y0156537D01*
X0094868Y0156610D01*
X0095013Y0156679D01*
X0095160Y0156745D01*
X0095309Y0156808D01*
X0095459Y0156867D01*
X0095610Y0156922D01*
X0095762Y0156974D01*
X0095916Y0157022D01*
X0096071Y0157066D01*
X0096227Y0157106D01*
X0096384Y0157143D01*
X0096541Y0157176D01*
X0096700Y0157205D01*
X0096859Y0157230D01*
X0097019Y0157251D01*
X0097179Y0157269D01*
X0097339Y0157282D01*
X0097500Y0157292D01*
X0097661Y0157298D01*
X0097822Y0157300D01*
X0097822Y0157299D02*
X0098638Y0157299D01*
X0098638Y0154543D01*
X0108874Y0154543D01*
X0108874Y0157299D01*
X0109633Y0157299D01*
X0108874Y0157299D02*
X0098638Y0157299D01*
X0109633Y0157299D02*
X0109795Y0157297D01*
X0109958Y0157291D01*
X0110120Y0157281D01*
X0110282Y0157268D01*
X0110443Y0157250D01*
X0110604Y0157228D01*
X0110765Y0157203D01*
X0110924Y0157174D01*
X0111083Y0157141D01*
X0111241Y0157104D01*
X0111399Y0157063D01*
X0111555Y0157018D01*
X0111710Y0156970D01*
X0111864Y0156918D01*
X0112016Y0156862D01*
X0112167Y0156803D01*
X0112317Y0156740D01*
X0112465Y0156673D01*
X0112612Y0156603D01*
X0112756Y0156529D01*
X0112899Y0156452D01*
X0113040Y0156371D01*
X0113179Y0156287D01*
X0113316Y0156200D01*
X0113451Y0156109D01*
X0113584Y0156015D01*
X0113714Y0155918D01*
X0113842Y0155818D01*
X0113967Y0155715D01*
X0114090Y0155609D01*
X0114210Y0155500D01*
X0114328Y0155388D01*
X0114443Y0155273D01*
X0114555Y0155155D01*
X0114664Y0155035D01*
X0114770Y0154912D01*
X0114873Y0154787D01*
X0114973Y0154659D01*
X0115070Y0154529D01*
X0115164Y0154396D01*
X0115255Y0154261D01*
X0115342Y0154124D01*
X0115426Y0153985D01*
X0115507Y0153844D01*
X0115584Y0153701D01*
X0115658Y0153557D01*
X0115728Y0153410D01*
X0115795Y0153262D01*
X0115858Y0153112D01*
X0115917Y0152961D01*
X0115973Y0152809D01*
X0116025Y0152655D01*
X0116073Y0152500D01*
X0116118Y0152344D01*
X0116159Y0152186D01*
X0116196Y0152028D01*
X0116229Y0151869D01*
X0116258Y0151710D01*
X0116283Y0151549D01*
X0116305Y0151388D01*
X0116323Y0151227D01*
X0116336Y0151065D01*
X0116346Y0150903D01*
X0116352Y0150740D01*
X0116354Y0150578D01*
X0130134Y0146474D02*
X0130127Y0147040D01*
X0130107Y0147606D01*
X0130072Y0148171D01*
X0130025Y0148735D01*
X0129963Y0149297D01*
X0129888Y0149858D01*
X0129800Y0150417D01*
X0129698Y0150974D01*
X0129582Y0151528D01*
X0129453Y0152079D01*
X0129311Y0152627D01*
X0129156Y0153172D01*
X0128988Y0153712D01*
X0128806Y0154248D01*
X0128612Y0154780D01*
X0128405Y0155307D01*
X0128185Y0155828D01*
X0127953Y0156344D01*
X0127708Y0156855D01*
X0127451Y0157359D01*
X0127182Y0157857D01*
X0126901Y0158349D01*
X0126608Y0158833D01*
X0126304Y0159310D01*
X0125988Y0159780D01*
X0125661Y0160242D01*
X0125322Y0160696D01*
X0124973Y0161141D01*
X0124614Y0161578D01*
X0124243Y0162006D01*
X0123863Y0162425D01*
X0123472Y0162835D01*
X0123072Y0163235D01*
X0122662Y0163626D01*
X0122243Y0164006D01*
X0121815Y0164377D01*
X0121378Y0164736D01*
X0120933Y0165085D01*
X0120479Y0165424D01*
X0120017Y0165751D01*
X0119547Y0166067D01*
X0119070Y0166371D01*
X0118586Y0166664D01*
X0118094Y0166945D01*
X0117596Y0167214D01*
X0117092Y0167471D01*
X0116581Y0167716D01*
X0116065Y0167948D01*
X0115544Y0168168D01*
X0115017Y0168375D01*
X0114485Y0168569D01*
X0113949Y0168751D01*
X0113409Y0168919D01*
X0112864Y0169074D01*
X0112316Y0169216D01*
X0111765Y0169345D01*
X0111211Y0169461D01*
X0110654Y0169563D01*
X0110095Y0169651D01*
X0109534Y0169726D01*
X0108972Y0169788D01*
X0108408Y0169835D01*
X0107843Y0169870D01*
X0107277Y0169890D01*
X0106711Y0169897D01*
X0106711Y0169898D02*
X0051195Y0169898D01*
X0051195Y0169897D02*
X0050629Y0169890D01*
X0050063Y0169870D01*
X0049498Y0169835D01*
X0048934Y0169788D01*
X0048372Y0169726D01*
X0047811Y0169651D01*
X0047252Y0169563D01*
X0046695Y0169461D01*
X0046141Y0169345D01*
X0045590Y0169216D01*
X0045042Y0169074D01*
X0044497Y0168919D01*
X0043957Y0168751D01*
X0043421Y0168569D01*
X0042889Y0168375D01*
X0042362Y0168168D01*
X0041841Y0167948D01*
X0041325Y0167716D01*
X0040814Y0167471D01*
X0040310Y0167214D01*
X0039812Y0166945D01*
X0039320Y0166664D01*
X0038836Y0166371D01*
X0038359Y0166067D01*
X0037889Y0165751D01*
X0037427Y0165424D01*
X0036973Y0165085D01*
X0036528Y0164736D01*
X0036091Y0164377D01*
X0035663Y0164006D01*
X0035244Y0163626D01*
X0034834Y0163235D01*
X0034434Y0162835D01*
X0034043Y0162425D01*
X0033663Y0162006D01*
X0033292Y0161578D01*
X0032933Y0161141D01*
X0032584Y0160696D01*
X0032245Y0160242D01*
X0031918Y0159780D01*
X0031602Y0159310D01*
X0031298Y0158833D01*
X0031005Y0158349D01*
X0030724Y0157857D01*
X0030455Y0157359D01*
X0030198Y0156855D01*
X0029953Y0156344D01*
X0029721Y0155828D01*
X0029501Y0155307D01*
X0029294Y0154780D01*
X0029100Y0154248D01*
X0028918Y0153712D01*
X0028750Y0153172D01*
X0028595Y0152627D01*
X0028453Y0152079D01*
X0028324Y0151528D01*
X0028208Y0150974D01*
X0028106Y0150417D01*
X0028018Y0149858D01*
X0027943Y0149297D01*
X0027881Y0148735D01*
X0027834Y0148171D01*
X0027799Y0147606D01*
X0027779Y0147040D01*
X0027772Y0146474D01*
X0027772Y0142140D01*
X0027779Y0141574D01*
X0027799Y0141008D01*
X0027834Y0140443D01*
X0027881Y0139879D01*
X0027943Y0139317D01*
X0028018Y0138756D01*
X0028106Y0138197D01*
X0028208Y0137640D01*
X0028324Y0137086D01*
X0028453Y0136535D01*
X0028595Y0135987D01*
X0028750Y0135442D01*
X0028918Y0134902D01*
X0029100Y0134366D01*
X0029294Y0133834D01*
X0029501Y0133307D01*
X0029721Y0132786D01*
X0029953Y0132270D01*
X0030198Y0131759D01*
X0030455Y0131255D01*
X0030724Y0130757D01*
X0031005Y0130265D01*
X0031298Y0129781D01*
X0031602Y0129304D01*
X0031918Y0128834D01*
X0032245Y0128372D01*
X0032584Y0127918D01*
X0032933Y0127473D01*
X0033292Y0127036D01*
X0033663Y0126608D01*
X0034043Y0126189D01*
X0034434Y0125779D01*
X0034834Y0125379D01*
X0035244Y0124988D01*
X0035663Y0124608D01*
X0036091Y0124237D01*
X0036528Y0123878D01*
X0036973Y0123529D01*
X0037427Y0123190D01*
X0037889Y0122863D01*
X0038359Y0122547D01*
X0038836Y0122243D01*
X0039320Y0121950D01*
X0039812Y0121669D01*
X0040310Y0121400D01*
X0040814Y0121143D01*
X0041325Y0120898D01*
X0041841Y0120666D01*
X0042362Y0120446D01*
X0042889Y0120239D01*
X0043421Y0120045D01*
X0043957Y0119863D01*
X0044497Y0119695D01*
X0045042Y0119540D01*
X0045590Y0119398D01*
X0046141Y0119269D01*
X0046695Y0119153D01*
X0047252Y0119051D01*
X0047811Y0118963D01*
X0048372Y0118888D01*
X0048934Y0118826D01*
X0049498Y0118779D01*
X0050063Y0118744D01*
X0050629Y0118724D01*
X0051195Y0118717D01*
X0040173Y0144307D02*
X0040177Y0144645D01*
X0040190Y0144983D01*
X0040210Y0145321D01*
X0040239Y0145658D01*
X0040277Y0145994D01*
X0040322Y0146329D01*
X0040376Y0146663D01*
X0040438Y0146995D01*
X0040508Y0147326D01*
X0040586Y0147655D01*
X0040672Y0147982D01*
X0040766Y0148307D01*
X0040869Y0148630D01*
X0040979Y0148949D01*
X0041096Y0149266D01*
X0041222Y0149580D01*
X0041355Y0149891D01*
X0041496Y0150199D01*
X0041644Y0150503D01*
X0041800Y0150803D01*
X0041963Y0151099D01*
X0042133Y0151391D01*
X0042311Y0151679D01*
X0042495Y0151963D01*
X0042687Y0152242D01*
X0042885Y0152516D01*
X0043090Y0152785D01*
X0043301Y0153049D01*
X0043519Y0153308D01*
X0043743Y0153561D01*
X0043973Y0153809D01*
X0044209Y0154051D01*
X0044451Y0154287D01*
X0044699Y0154517D01*
X0044952Y0154741D01*
X0045211Y0154959D01*
X0045475Y0155170D01*
X0045744Y0155375D01*
X0046018Y0155573D01*
X0046297Y0155765D01*
X0046581Y0155949D01*
X0046869Y0156127D01*
X0047161Y0156297D01*
X0047457Y0156460D01*
X0047757Y0156616D01*
X0048061Y0156764D01*
X0048369Y0156905D01*
X0048680Y0157038D01*
X0048994Y0157164D01*
X0049311Y0157281D01*
X0049630Y0157391D01*
X0049953Y0157494D01*
X0050278Y0157588D01*
X0050605Y0157674D01*
X0050934Y0157752D01*
X0051265Y0157822D01*
X0051597Y0157884D01*
X0051931Y0157938D01*
X0052266Y0157983D01*
X0052602Y0158021D01*
X0052939Y0158050D01*
X0053277Y0158070D01*
X0053615Y0158083D01*
X0053953Y0158087D01*
X0054291Y0158083D01*
X0054629Y0158070D01*
X0054967Y0158050D01*
X0055304Y0158021D01*
X0055640Y0157983D01*
X0055975Y0157938D01*
X0056309Y0157884D01*
X0056641Y0157822D01*
X0056972Y0157752D01*
X0057301Y0157674D01*
X0057628Y0157588D01*
X0057953Y0157494D01*
X0058276Y0157391D01*
X0058595Y0157281D01*
X0058912Y0157164D01*
X0059226Y0157038D01*
X0059537Y0156905D01*
X0059845Y0156764D01*
X0060149Y0156616D01*
X0060449Y0156460D01*
X0060745Y0156297D01*
X0061037Y0156127D01*
X0061325Y0155949D01*
X0061609Y0155765D01*
X0061888Y0155573D01*
X0062162Y0155375D01*
X0062431Y0155170D01*
X0062695Y0154959D01*
X0062954Y0154741D01*
X0063207Y0154517D01*
X0063455Y0154287D01*
X0063697Y0154051D01*
X0063933Y0153809D01*
X0064163Y0153561D01*
X0064387Y0153308D01*
X0064605Y0153049D01*
X0064816Y0152785D01*
X0065021Y0152516D01*
X0065219Y0152242D01*
X0065411Y0151963D01*
X0065595Y0151679D01*
X0065773Y0151391D01*
X0065943Y0151099D01*
X0066106Y0150803D01*
X0066262Y0150503D01*
X0066410Y0150199D01*
X0066551Y0149891D01*
X0066684Y0149580D01*
X0066810Y0149266D01*
X0066927Y0148949D01*
X0067037Y0148630D01*
X0067140Y0148307D01*
X0067234Y0147982D01*
X0067320Y0147655D01*
X0067398Y0147326D01*
X0067468Y0146995D01*
X0067530Y0146663D01*
X0067584Y0146329D01*
X0067629Y0145994D01*
X0067667Y0145658D01*
X0067696Y0145321D01*
X0067716Y0144983D01*
X0067729Y0144645D01*
X0067733Y0144307D01*
X0067729Y0143969D01*
X0067716Y0143631D01*
X0067696Y0143293D01*
X0067667Y0142956D01*
X0067629Y0142620D01*
X0067584Y0142285D01*
X0067530Y0141951D01*
X0067468Y0141619D01*
X0067398Y0141288D01*
X0067320Y0140959D01*
X0067234Y0140632D01*
X0067140Y0140307D01*
X0067037Y0139984D01*
X0066927Y0139665D01*
X0066810Y0139348D01*
X0066684Y0139034D01*
X0066551Y0138723D01*
X0066410Y0138415D01*
X0066262Y0138111D01*
X0066106Y0137811D01*
X0065943Y0137515D01*
X0065773Y0137223D01*
X0065595Y0136935D01*
X0065411Y0136651D01*
X0065219Y0136372D01*
X0065021Y0136098D01*
X0064816Y0135829D01*
X0064605Y0135565D01*
X0064387Y0135306D01*
X0064163Y0135053D01*
X0063933Y0134805D01*
X0063697Y0134563D01*
X0063455Y0134327D01*
X0063207Y0134097D01*
X0062954Y0133873D01*
X0062695Y0133655D01*
X0062431Y0133444D01*
X0062162Y0133239D01*
X0061888Y0133041D01*
X0061609Y0132849D01*
X0061325Y0132665D01*
X0061037Y0132487D01*
X0060745Y0132317D01*
X0060449Y0132154D01*
X0060149Y0131998D01*
X0059845Y0131850D01*
X0059537Y0131709D01*
X0059226Y0131576D01*
X0058912Y0131450D01*
X0058595Y0131333D01*
X0058276Y0131223D01*
X0057953Y0131120D01*
X0057628Y0131026D01*
X0057301Y0130940D01*
X0056972Y0130862D01*
X0056641Y0130792D01*
X0056309Y0130730D01*
X0055975Y0130676D01*
X0055640Y0130631D01*
X0055304Y0130593D01*
X0054967Y0130564D01*
X0054629Y0130544D01*
X0054291Y0130531D01*
X0053953Y0130527D01*
X0053615Y0130531D01*
X0053277Y0130544D01*
X0052939Y0130564D01*
X0052602Y0130593D01*
X0052266Y0130631D01*
X0051931Y0130676D01*
X0051597Y0130730D01*
X0051265Y0130792D01*
X0050934Y0130862D01*
X0050605Y0130940D01*
X0050278Y0131026D01*
X0049953Y0131120D01*
X0049630Y0131223D01*
X0049311Y0131333D01*
X0048994Y0131450D01*
X0048680Y0131576D01*
X0048369Y0131709D01*
X0048061Y0131850D01*
X0047757Y0131998D01*
X0047457Y0132154D01*
X0047161Y0132317D01*
X0046869Y0132487D01*
X0046581Y0132665D01*
X0046297Y0132849D01*
X0046018Y0133041D01*
X0045744Y0133239D01*
X0045475Y0133444D01*
X0045211Y0133655D01*
X0044952Y0133873D01*
X0044699Y0134097D01*
X0044451Y0134327D01*
X0044209Y0134563D01*
X0043973Y0134805D01*
X0043743Y0135053D01*
X0043519Y0135306D01*
X0043301Y0135565D01*
X0043090Y0135829D01*
X0042885Y0136098D01*
X0042687Y0136372D01*
X0042495Y0136651D01*
X0042311Y0136935D01*
X0042133Y0137223D01*
X0041963Y0137515D01*
X0041800Y0137811D01*
X0041644Y0138111D01*
X0041496Y0138415D01*
X0041355Y0138723D01*
X0041222Y0139034D01*
X0041096Y0139348D01*
X0040979Y0139665D01*
X0040869Y0139984D01*
X0040766Y0140307D01*
X0040672Y0140632D01*
X0040586Y0140959D01*
X0040508Y0141288D01*
X0040438Y0141619D01*
X0040376Y0141951D01*
X0040322Y0142285D01*
X0040277Y0142620D01*
X0040239Y0142956D01*
X0040210Y0143293D01*
X0040190Y0143631D01*
X0040177Y0143969D01*
X0040173Y0144307D01*
X0042142Y0144307D02*
X0042146Y0144597D01*
X0042156Y0144887D01*
X0042174Y0145176D01*
X0042199Y0145465D01*
X0042231Y0145753D01*
X0042270Y0146040D01*
X0042316Y0146326D01*
X0042369Y0146611D01*
X0042429Y0146895D01*
X0042496Y0147177D01*
X0042570Y0147457D01*
X0042651Y0147736D01*
X0042738Y0148012D01*
X0042832Y0148286D01*
X0042933Y0148558D01*
X0043041Y0148827D01*
X0043155Y0149093D01*
X0043276Y0149357D01*
X0043403Y0149617D01*
X0043537Y0149875D01*
X0043676Y0150129D01*
X0043822Y0150379D01*
X0043974Y0150626D01*
X0044133Y0150869D01*
X0044297Y0151108D01*
X0044466Y0151343D01*
X0044642Y0151574D01*
X0044823Y0151800D01*
X0045010Y0152022D01*
X0045202Y0152239D01*
X0045399Y0152451D01*
X0045601Y0152659D01*
X0045809Y0152861D01*
X0046021Y0153058D01*
X0046238Y0153250D01*
X0046460Y0153437D01*
X0046686Y0153618D01*
X0046917Y0153794D01*
X0047152Y0153963D01*
X0047391Y0154127D01*
X0047634Y0154286D01*
X0047881Y0154438D01*
X0048131Y0154584D01*
X0048385Y0154723D01*
X0048643Y0154857D01*
X0048903Y0154984D01*
X0049167Y0155105D01*
X0049433Y0155219D01*
X0049702Y0155327D01*
X0049974Y0155428D01*
X0050248Y0155522D01*
X0050524Y0155609D01*
X0050803Y0155690D01*
X0051083Y0155764D01*
X0051365Y0155831D01*
X0051649Y0155891D01*
X0051934Y0155944D01*
X0052220Y0155990D01*
X0052507Y0156029D01*
X0052795Y0156061D01*
X0053084Y0156086D01*
X0053373Y0156104D01*
X0053663Y0156114D01*
X0053953Y0156118D01*
X0054243Y0156114D01*
X0054533Y0156104D01*
X0054822Y0156086D01*
X0055111Y0156061D01*
X0055399Y0156029D01*
X0055686Y0155990D01*
X0055972Y0155944D01*
X0056257Y0155891D01*
X0056541Y0155831D01*
X0056823Y0155764D01*
X0057103Y0155690D01*
X0057382Y0155609D01*
X0057658Y0155522D01*
X0057932Y0155428D01*
X0058204Y0155327D01*
X0058473Y0155219D01*
X0058739Y0155105D01*
X0059003Y0154984D01*
X0059263Y0154857D01*
X0059521Y0154723D01*
X0059775Y0154584D01*
X0060025Y0154438D01*
X0060272Y0154286D01*
X0060515Y0154127D01*
X0060754Y0153963D01*
X0060989Y0153794D01*
X0061220Y0153618D01*
X0061446Y0153437D01*
X0061668Y0153250D01*
X0061885Y0153058D01*
X0062097Y0152861D01*
X0062305Y0152659D01*
X0062507Y0152451D01*
X0062704Y0152239D01*
X0062896Y0152022D01*
X0063083Y0151800D01*
X0063264Y0151574D01*
X0063440Y0151343D01*
X0063609Y0151108D01*
X0063773Y0150869D01*
X0063932Y0150626D01*
X0064084Y0150379D01*
X0064230Y0150129D01*
X0064369Y0149875D01*
X0064503Y0149617D01*
X0064630Y0149357D01*
X0064751Y0149093D01*
X0064865Y0148827D01*
X0064973Y0148558D01*
X0065074Y0148286D01*
X0065168Y0148012D01*
X0065255Y0147736D01*
X0065336Y0147457D01*
X0065410Y0147177D01*
X0065477Y0146895D01*
X0065537Y0146611D01*
X0065590Y0146326D01*
X0065636Y0146040D01*
X0065675Y0145753D01*
X0065707Y0145465D01*
X0065732Y0145176D01*
X0065750Y0144887D01*
X0065760Y0144597D01*
X0065764Y0144307D01*
X0065760Y0144017D01*
X0065750Y0143727D01*
X0065732Y0143438D01*
X0065707Y0143149D01*
X0065675Y0142861D01*
X0065636Y0142574D01*
X0065590Y0142288D01*
X0065537Y0142003D01*
X0065477Y0141719D01*
X0065410Y0141437D01*
X0065336Y0141157D01*
X0065255Y0140878D01*
X0065168Y0140602D01*
X0065074Y0140328D01*
X0064973Y0140056D01*
X0064865Y0139787D01*
X0064751Y0139521D01*
X0064630Y0139257D01*
X0064503Y0138997D01*
X0064369Y0138739D01*
X0064230Y0138485D01*
X0064084Y0138235D01*
X0063932Y0137988D01*
X0063773Y0137745D01*
X0063609Y0137506D01*
X0063440Y0137271D01*
X0063264Y0137040D01*
X0063083Y0136814D01*
X0062896Y0136592D01*
X0062704Y0136375D01*
X0062507Y0136163D01*
X0062305Y0135955D01*
X0062097Y0135753D01*
X0061885Y0135556D01*
X0061668Y0135364D01*
X0061446Y0135177D01*
X0061220Y0134996D01*
X0060989Y0134820D01*
X0060754Y0134651D01*
X0060515Y0134487D01*
X0060272Y0134328D01*
X0060025Y0134176D01*
X0059775Y0134030D01*
X0059521Y0133891D01*
X0059263Y0133757D01*
X0059003Y0133630D01*
X0058739Y0133509D01*
X0058473Y0133395D01*
X0058204Y0133287D01*
X0057932Y0133186D01*
X0057658Y0133092D01*
X0057382Y0133005D01*
X0057103Y0132924D01*
X0056823Y0132850D01*
X0056541Y0132783D01*
X0056257Y0132723D01*
X0055972Y0132670D01*
X0055686Y0132624D01*
X0055399Y0132585D01*
X0055111Y0132553D01*
X0054822Y0132528D01*
X0054533Y0132510D01*
X0054243Y0132500D01*
X0053953Y0132496D01*
X0053663Y0132500D01*
X0053373Y0132510D01*
X0053084Y0132528D01*
X0052795Y0132553D01*
X0052507Y0132585D01*
X0052220Y0132624D01*
X0051934Y0132670D01*
X0051649Y0132723D01*
X0051365Y0132783D01*
X0051083Y0132850D01*
X0050803Y0132924D01*
X0050524Y0133005D01*
X0050248Y0133092D01*
X0049974Y0133186D01*
X0049702Y0133287D01*
X0049433Y0133395D01*
X0049167Y0133509D01*
X0048903Y0133630D01*
X0048643Y0133757D01*
X0048385Y0133891D01*
X0048131Y0134030D01*
X0047881Y0134176D01*
X0047634Y0134328D01*
X0047391Y0134487D01*
X0047152Y0134651D01*
X0046917Y0134820D01*
X0046686Y0134996D01*
X0046460Y0135177D01*
X0046238Y0135364D01*
X0046021Y0135556D01*
X0045809Y0135753D01*
X0045601Y0135955D01*
X0045399Y0136163D01*
X0045202Y0136375D01*
X0045010Y0136592D01*
X0044823Y0136814D01*
X0044642Y0137040D01*
X0044466Y0137271D01*
X0044297Y0137506D01*
X0044133Y0137745D01*
X0043974Y0137988D01*
X0043822Y0138235D01*
X0043676Y0138485D01*
X0043537Y0138739D01*
X0043403Y0138997D01*
X0043276Y0139257D01*
X0043155Y0139521D01*
X0043041Y0139787D01*
X0042933Y0140056D01*
X0042832Y0140328D01*
X0042738Y0140602D01*
X0042651Y0140878D01*
X0042570Y0141157D01*
X0042496Y0141437D01*
X0042429Y0141719D01*
X0042369Y0142003D01*
X0042316Y0142288D01*
X0042270Y0142574D01*
X0042231Y0142861D01*
X0042199Y0143149D01*
X0042174Y0143438D01*
X0042156Y0143727D01*
X0042146Y0144017D01*
X0042142Y0144307D01*
X0130134Y0146474D02*
X0130134Y0142140D01*
X0090173Y0053756D02*
X0090177Y0054094D01*
X0090190Y0054432D01*
X0090210Y0054770D01*
X0090239Y0055107D01*
X0090277Y0055443D01*
X0090322Y0055778D01*
X0090376Y0056112D01*
X0090438Y0056444D01*
X0090508Y0056775D01*
X0090586Y0057104D01*
X0090672Y0057431D01*
X0090766Y0057756D01*
X0090869Y0058079D01*
X0090979Y0058398D01*
X0091096Y0058715D01*
X0091222Y0059029D01*
X0091355Y0059340D01*
X0091496Y0059648D01*
X0091644Y0059952D01*
X0091800Y0060252D01*
X0091963Y0060548D01*
X0092133Y0060840D01*
X0092311Y0061128D01*
X0092495Y0061412D01*
X0092687Y0061691D01*
X0092885Y0061965D01*
X0093090Y0062234D01*
X0093301Y0062498D01*
X0093519Y0062757D01*
X0093743Y0063010D01*
X0093973Y0063258D01*
X0094209Y0063500D01*
X0094451Y0063736D01*
X0094699Y0063966D01*
X0094952Y0064190D01*
X0095211Y0064408D01*
X0095475Y0064619D01*
X0095744Y0064824D01*
X0096018Y0065022D01*
X0096297Y0065214D01*
X0096581Y0065398D01*
X0096869Y0065576D01*
X0097161Y0065746D01*
X0097457Y0065909D01*
X0097757Y0066065D01*
X0098061Y0066213D01*
X0098369Y0066354D01*
X0098680Y0066487D01*
X0098994Y0066613D01*
X0099311Y0066730D01*
X0099630Y0066840D01*
X0099953Y0066943D01*
X0100278Y0067037D01*
X0100605Y0067123D01*
X0100934Y0067201D01*
X0101265Y0067271D01*
X0101597Y0067333D01*
X0101931Y0067387D01*
X0102266Y0067432D01*
X0102602Y0067470D01*
X0102939Y0067499D01*
X0103277Y0067519D01*
X0103615Y0067532D01*
X0103953Y0067536D01*
X0104291Y0067532D01*
X0104629Y0067519D01*
X0104967Y0067499D01*
X0105304Y0067470D01*
X0105640Y0067432D01*
X0105975Y0067387D01*
X0106309Y0067333D01*
X0106641Y0067271D01*
X0106972Y0067201D01*
X0107301Y0067123D01*
X0107628Y0067037D01*
X0107953Y0066943D01*
X0108276Y0066840D01*
X0108595Y0066730D01*
X0108912Y0066613D01*
X0109226Y0066487D01*
X0109537Y0066354D01*
X0109845Y0066213D01*
X0110149Y0066065D01*
X0110449Y0065909D01*
X0110745Y0065746D01*
X0111037Y0065576D01*
X0111325Y0065398D01*
X0111609Y0065214D01*
X0111888Y0065022D01*
X0112162Y0064824D01*
X0112431Y0064619D01*
X0112695Y0064408D01*
X0112954Y0064190D01*
X0113207Y0063966D01*
X0113455Y0063736D01*
X0113697Y0063500D01*
X0113933Y0063258D01*
X0114163Y0063010D01*
X0114387Y0062757D01*
X0114605Y0062498D01*
X0114816Y0062234D01*
X0115021Y0061965D01*
X0115219Y0061691D01*
X0115411Y0061412D01*
X0115595Y0061128D01*
X0115773Y0060840D01*
X0115943Y0060548D01*
X0116106Y0060252D01*
X0116262Y0059952D01*
X0116410Y0059648D01*
X0116551Y0059340D01*
X0116684Y0059029D01*
X0116810Y0058715D01*
X0116927Y0058398D01*
X0117037Y0058079D01*
X0117140Y0057756D01*
X0117234Y0057431D01*
X0117320Y0057104D01*
X0117398Y0056775D01*
X0117468Y0056444D01*
X0117530Y0056112D01*
X0117584Y0055778D01*
X0117629Y0055443D01*
X0117667Y0055107D01*
X0117696Y0054770D01*
X0117716Y0054432D01*
X0117729Y0054094D01*
X0117733Y0053756D01*
X0117729Y0053418D01*
X0117716Y0053080D01*
X0117696Y0052742D01*
X0117667Y0052405D01*
X0117629Y0052069D01*
X0117584Y0051734D01*
X0117530Y0051400D01*
X0117468Y0051068D01*
X0117398Y0050737D01*
X0117320Y0050408D01*
X0117234Y0050081D01*
X0117140Y0049756D01*
X0117037Y0049433D01*
X0116927Y0049114D01*
X0116810Y0048797D01*
X0116684Y0048483D01*
X0116551Y0048172D01*
X0116410Y0047864D01*
X0116262Y0047560D01*
X0116106Y0047260D01*
X0115943Y0046964D01*
X0115773Y0046672D01*
X0115595Y0046384D01*
X0115411Y0046100D01*
X0115219Y0045821D01*
X0115021Y0045547D01*
X0114816Y0045278D01*
X0114605Y0045014D01*
X0114387Y0044755D01*
X0114163Y0044502D01*
X0113933Y0044254D01*
X0113697Y0044012D01*
X0113455Y0043776D01*
X0113207Y0043546D01*
X0112954Y0043322D01*
X0112695Y0043104D01*
X0112431Y0042893D01*
X0112162Y0042688D01*
X0111888Y0042490D01*
X0111609Y0042298D01*
X0111325Y0042114D01*
X0111037Y0041936D01*
X0110745Y0041766D01*
X0110449Y0041603D01*
X0110149Y0041447D01*
X0109845Y0041299D01*
X0109537Y0041158D01*
X0109226Y0041025D01*
X0108912Y0040899D01*
X0108595Y0040782D01*
X0108276Y0040672D01*
X0107953Y0040569D01*
X0107628Y0040475D01*
X0107301Y0040389D01*
X0106972Y0040311D01*
X0106641Y0040241D01*
X0106309Y0040179D01*
X0105975Y0040125D01*
X0105640Y0040080D01*
X0105304Y0040042D01*
X0104967Y0040013D01*
X0104629Y0039993D01*
X0104291Y0039980D01*
X0103953Y0039976D01*
X0103615Y0039980D01*
X0103277Y0039993D01*
X0102939Y0040013D01*
X0102602Y0040042D01*
X0102266Y0040080D01*
X0101931Y0040125D01*
X0101597Y0040179D01*
X0101265Y0040241D01*
X0100934Y0040311D01*
X0100605Y0040389D01*
X0100278Y0040475D01*
X0099953Y0040569D01*
X0099630Y0040672D01*
X0099311Y0040782D01*
X0098994Y0040899D01*
X0098680Y0041025D01*
X0098369Y0041158D01*
X0098061Y0041299D01*
X0097757Y0041447D01*
X0097457Y0041603D01*
X0097161Y0041766D01*
X0096869Y0041936D01*
X0096581Y0042114D01*
X0096297Y0042298D01*
X0096018Y0042490D01*
X0095744Y0042688D01*
X0095475Y0042893D01*
X0095211Y0043104D01*
X0094952Y0043322D01*
X0094699Y0043546D01*
X0094451Y0043776D01*
X0094209Y0044012D01*
X0093973Y0044254D01*
X0093743Y0044502D01*
X0093519Y0044755D01*
X0093301Y0045014D01*
X0093090Y0045278D01*
X0092885Y0045547D01*
X0092687Y0045821D01*
X0092495Y0046100D01*
X0092311Y0046384D01*
X0092133Y0046672D01*
X0091963Y0046964D01*
X0091800Y0047260D01*
X0091644Y0047560D01*
X0091496Y0047864D01*
X0091355Y0048172D01*
X0091222Y0048483D01*
X0091096Y0048797D01*
X0090979Y0049114D01*
X0090869Y0049433D01*
X0090766Y0049756D01*
X0090672Y0050081D01*
X0090586Y0050408D01*
X0090508Y0050737D01*
X0090438Y0051068D01*
X0090376Y0051400D01*
X0090322Y0051734D01*
X0090277Y0052069D01*
X0090239Y0052405D01*
X0090210Y0052742D01*
X0090190Y0053080D01*
X0090177Y0053418D01*
X0090173Y0053756D01*
X0092142Y0053756D02*
X0092146Y0054046D01*
X0092156Y0054336D01*
X0092174Y0054625D01*
X0092199Y0054914D01*
X0092231Y0055202D01*
X0092270Y0055489D01*
X0092316Y0055775D01*
X0092369Y0056060D01*
X0092429Y0056344D01*
X0092496Y0056626D01*
X0092570Y0056906D01*
X0092651Y0057185D01*
X0092738Y0057461D01*
X0092832Y0057735D01*
X0092933Y0058007D01*
X0093041Y0058276D01*
X0093155Y0058542D01*
X0093276Y0058806D01*
X0093403Y0059066D01*
X0093537Y0059324D01*
X0093676Y0059578D01*
X0093822Y0059828D01*
X0093974Y0060075D01*
X0094133Y0060318D01*
X0094297Y0060557D01*
X0094466Y0060792D01*
X0094642Y0061023D01*
X0094823Y0061249D01*
X0095010Y0061471D01*
X0095202Y0061688D01*
X0095399Y0061900D01*
X0095601Y0062108D01*
X0095809Y0062310D01*
X0096021Y0062507D01*
X0096238Y0062699D01*
X0096460Y0062886D01*
X0096686Y0063067D01*
X0096917Y0063243D01*
X0097152Y0063412D01*
X0097391Y0063576D01*
X0097634Y0063735D01*
X0097881Y0063887D01*
X0098131Y0064033D01*
X0098385Y0064172D01*
X0098643Y0064306D01*
X0098903Y0064433D01*
X0099167Y0064554D01*
X0099433Y0064668D01*
X0099702Y0064776D01*
X0099974Y0064877D01*
X0100248Y0064971D01*
X0100524Y0065058D01*
X0100803Y0065139D01*
X0101083Y0065213D01*
X0101365Y0065280D01*
X0101649Y0065340D01*
X0101934Y0065393D01*
X0102220Y0065439D01*
X0102507Y0065478D01*
X0102795Y0065510D01*
X0103084Y0065535D01*
X0103373Y0065553D01*
X0103663Y0065563D01*
X0103953Y0065567D01*
X0104243Y0065563D01*
X0104533Y0065553D01*
X0104822Y0065535D01*
X0105111Y0065510D01*
X0105399Y0065478D01*
X0105686Y0065439D01*
X0105972Y0065393D01*
X0106257Y0065340D01*
X0106541Y0065280D01*
X0106823Y0065213D01*
X0107103Y0065139D01*
X0107382Y0065058D01*
X0107658Y0064971D01*
X0107932Y0064877D01*
X0108204Y0064776D01*
X0108473Y0064668D01*
X0108739Y0064554D01*
X0109003Y0064433D01*
X0109263Y0064306D01*
X0109521Y0064172D01*
X0109775Y0064033D01*
X0110025Y0063887D01*
X0110272Y0063735D01*
X0110515Y0063576D01*
X0110754Y0063412D01*
X0110989Y0063243D01*
X0111220Y0063067D01*
X0111446Y0062886D01*
X0111668Y0062699D01*
X0111885Y0062507D01*
X0112097Y0062310D01*
X0112305Y0062108D01*
X0112507Y0061900D01*
X0112704Y0061688D01*
X0112896Y0061471D01*
X0113083Y0061249D01*
X0113264Y0061023D01*
X0113440Y0060792D01*
X0113609Y0060557D01*
X0113773Y0060318D01*
X0113932Y0060075D01*
X0114084Y0059828D01*
X0114230Y0059578D01*
X0114369Y0059324D01*
X0114503Y0059066D01*
X0114630Y0058806D01*
X0114751Y0058542D01*
X0114865Y0058276D01*
X0114973Y0058007D01*
X0115074Y0057735D01*
X0115168Y0057461D01*
X0115255Y0057185D01*
X0115336Y0056906D01*
X0115410Y0056626D01*
X0115477Y0056344D01*
X0115537Y0056060D01*
X0115590Y0055775D01*
X0115636Y0055489D01*
X0115675Y0055202D01*
X0115707Y0054914D01*
X0115732Y0054625D01*
X0115750Y0054336D01*
X0115760Y0054046D01*
X0115764Y0053756D01*
X0115760Y0053466D01*
X0115750Y0053176D01*
X0115732Y0052887D01*
X0115707Y0052598D01*
X0115675Y0052310D01*
X0115636Y0052023D01*
X0115590Y0051737D01*
X0115537Y0051452D01*
X0115477Y0051168D01*
X0115410Y0050886D01*
X0115336Y0050606D01*
X0115255Y0050327D01*
X0115168Y0050051D01*
X0115074Y0049777D01*
X0114973Y0049505D01*
X0114865Y0049236D01*
X0114751Y0048970D01*
X0114630Y0048706D01*
X0114503Y0048446D01*
X0114369Y0048188D01*
X0114230Y0047934D01*
X0114084Y0047684D01*
X0113932Y0047437D01*
X0113773Y0047194D01*
X0113609Y0046955D01*
X0113440Y0046720D01*
X0113264Y0046489D01*
X0113083Y0046263D01*
X0112896Y0046041D01*
X0112704Y0045824D01*
X0112507Y0045612D01*
X0112305Y0045404D01*
X0112097Y0045202D01*
X0111885Y0045005D01*
X0111668Y0044813D01*
X0111446Y0044626D01*
X0111220Y0044445D01*
X0110989Y0044269D01*
X0110754Y0044100D01*
X0110515Y0043936D01*
X0110272Y0043777D01*
X0110025Y0043625D01*
X0109775Y0043479D01*
X0109521Y0043340D01*
X0109263Y0043206D01*
X0109003Y0043079D01*
X0108739Y0042958D01*
X0108473Y0042844D01*
X0108204Y0042736D01*
X0107932Y0042635D01*
X0107658Y0042541D01*
X0107382Y0042454D01*
X0107103Y0042373D01*
X0106823Y0042299D01*
X0106541Y0042232D01*
X0106257Y0042172D01*
X0105972Y0042119D01*
X0105686Y0042073D01*
X0105399Y0042034D01*
X0105111Y0042002D01*
X0104822Y0041977D01*
X0104533Y0041959D01*
X0104243Y0041949D01*
X0103953Y0041945D01*
X0103663Y0041949D01*
X0103373Y0041959D01*
X0103084Y0041977D01*
X0102795Y0042002D01*
X0102507Y0042034D01*
X0102220Y0042073D01*
X0101934Y0042119D01*
X0101649Y0042172D01*
X0101365Y0042232D01*
X0101083Y0042299D01*
X0100803Y0042373D01*
X0100524Y0042454D01*
X0100248Y0042541D01*
X0099974Y0042635D01*
X0099702Y0042736D01*
X0099433Y0042844D01*
X0099167Y0042958D01*
X0098903Y0043079D01*
X0098643Y0043206D01*
X0098385Y0043340D01*
X0098131Y0043479D01*
X0097881Y0043625D01*
X0097634Y0043777D01*
X0097391Y0043936D01*
X0097152Y0044100D01*
X0096917Y0044269D01*
X0096686Y0044445D01*
X0096460Y0044626D01*
X0096238Y0044813D01*
X0096021Y0045005D01*
X0095809Y0045202D01*
X0095601Y0045404D01*
X0095399Y0045612D01*
X0095202Y0045824D01*
X0095010Y0046041D01*
X0094823Y0046263D01*
X0094642Y0046489D01*
X0094466Y0046720D01*
X0094297Y0046955D01*
X0094133Y0047194D01*
X0093974Y0047437D01*
X0093822Y0047684D01*
X0093676Y0047934D01*
X0093537Y0048188D01*
X0093403Y0048446D01*
X0093276Y0048706D01*
X0093155Y0048970D01*
X0093041Y0049236D01*
X0092933Y0049505D01*
X0092832Y0049777D01*
X0092738Y0050051D01*
X0092651Y0050327D01*
X0092570Y0050606D01*
X0092496Y0050886D01*
X0092429Y0051168D01*
X0092369Y0051452D01*
X0092316Y0051737D01*
X0092270Y0052023D01*
X0092231Y0052310D01*
X0092199Y0052598D01*
X0092174Y0052887D01*
X0092156Y0053176D01*
X0092146Y0053466D01*
X0092142Y0053756D01*
D11*
X0078075Y0049519D02*
X0078075Y0047109D01*
X0078073Y0047050D01*
X0078067Y0046990D01*
X0078058Y0046932D01*
X0078045Y0046874D01*
X0078028Y0046817D01*
X0078007Y0046761D01*
X0077983Y0046707D01*
X0077956Y0046654D01*
X0077925Y0046603D01*
X0077891Y0046555D01*
X0077854Y0046508D01*
X0077814Y0046464D01*
X0077771Y0046423D01*
X0077726Y0046384D01*
X0077678Y0046349D01*
X0077629Y0046316D01*
X0077577Y0046287D01*
X0077523Y0046261D01*
X0077468Y0046239D01*
X0077412Y0046220D01*
X0077354Y0046205D01*
X0077296Y0046194D01*
X0077237Y0046186D01*
X0077178Y0046182D01*
X0077118Y0046182D01*
X0077059Y0046186D01*
X0077000Y0046194D01*
X0076942Y0046205D01*
X0076884Y0046220D01*
X0076828Y0046239D01*
X0076773Y0046261D01*
X0076719Y0046287D01*
X0076667Y0046316D01*
X0076618Y0046349D01*
X0076570Y0046384D01*
X0076525Y0046423D01*
X0076482Y0046464D01*
X0076442Y0046508D01*
X0076405Y0046555D01*
X0076371Y0046603D01*
X0076340Y0046654D01*
X0076313Y0046707D01*
X0076289Y0046761D01*
X0076268Y0046817D01*
X0076251Y0046874D01*
X0076238Y0046932D01*
X0076229Y0046990D01*
X0076223Y0047050D01*
X0076221Y0047109D01*
X0076221Y0049519D01*
X0074414Y0048777D02*
X0073487Y0049519D01*
X0073487Y0046182D01*
X0074414Y0046182D02*
X0072560Y0046182D01*
X0077074Y0148544D02*
X0078928Y0148544D01*
X0077353Y0150398D01*
X0077909Y0151881D02*
X0077973Y0151879D01*
X0078037Y0151873D01*
X0078101Y0151864D01*
X0078163Y0151850D01*
X0078225Y0151833D01*
X0078286Y0151813D01*
X0078345Y0151788D01*
X0078403Y0151760D01*
X0078459Y0151729D01*
X0078513Y0151694D01*
X0078565Y0151657D01*
X0078615Y0151616D01*
X0078662Y0151572D01*
X0078706Y0151526D01*
X0078748Y0151477D01*
X0078786Y0151425D01*
X0078821Y0151372D01*
X0078853Y0151316D01*
X0078882Y0151259D01*
X0078907Y0151200D01*
X0078929Y0151139D01*
X0077353Y0150398D02*
X0077314Y0150438D01*
X0077277Y0150480D01*
X0077243Y0150524D01*
X0077212Y0150571D01*
X0077184Y0150619D01*
X0077159Y0150669D01*
X0077137Y0150720D01*
X0077118Y0150772D01*
X0077103Y0150826D01*
X0077091Y0150881D01*
X0077082Y0150936D01*
X0077077Y0150991D01*
X0077075Y0151047D01*
X0077077Y0151104D01*
X0077083Y0151161D01*
X0077092Y0151217D01*
X0077106Y0151272D01*
X0077123Y0151326D01*
X0077144Y0151379D01*
X0077169Y0151431D01*
X0077196Y0151480D01*
X0077228Y0151528D01*
X0077262Y0151573D01*
X0077299Y0151616D01*
X0077340Y0151657D01*
X0077383Y0151694D01*
X0077428Y0151728D01*
X0077476Y0151760D01*
X0077525Y0151787D01*
X0077577Y0151812D01*
X0077630Y0151833D01*
X0077684Y0151850D01*
X0077739Y0151864D01*
X0077795Y0151873D01*
X0077852Y0151879D01*
X0077909Y0151881D01*
X0080736Y0151881D02*
X0080736Y0149471D01*
X0080738Y0149412D01*
X0080744Y0149352D01*
X0080753Y0149294D01*
X0080766Y0149236D01*
X0080783Y0149179D01*
X0080804Y0149123D01*
X0080828Y0149069D01*
X0080855Y0149016D01*
X0080886Y0148965D01*
X0080920Y0148917D01*
X0080957Y0148870D01*
X0080997Y0148826D01*
X0081040Y0148785D01*
X0081085Y0148746D01*
X0081133Y0148711D01*
X0081182Y0148678D01*
X0081234Y0148649D01*
X0081288Y0148623D01*
X0081343Y0148601D01*
X0081399Y0148582D01*
X0081457Y0148567D01*
X0081515Y0148556D01*
X0081574Y0148548D01*
X0081633Y0148544D01*
X0081693Y0148544D01*
X0081752Y0148548D01*
X0081811Y0148556D01*
X0081869Y0148567D01*
X0081927Y0148582D01*
X0081983Y0148601D01*
X0082038Y0148623D01*
X0082092Y0148649D01*
X0082144Y0148678D01*
X0082193Y0148711D01*
X0082241Y0148746D01*
X0082286Y0148785D01*
X0082329Y0148826D01*
X0082369Y0148870D01*
X0082406Y0148917D01*
X0082440Y0148965D01*
X0082471Y0149016D01*
X0082498Y0149069D01*
X0082522Y0149123D01*
X0082543Y0149179D01*
X0082560Y0149236D01*
X0082573Y0149294D01*
X0082582Y0149352D01*
X0082588Y0149412D01*
X0082590Y0149471D01*
X0082590Y0151881D01*
D12*
X0082540Y0143497D02*
X0082540Y0143314D01*
X0082539Y0143314D02*
X0082537Y0143262D01*
X0082532Y0143210D01*
X0082522Y0143158D01*
X0082509Y0143107D01*
X0082493Y0143058D01*
X0082473Y0143010D01*
X0082449Y0142963D01*
X0082423Y0142918D01*
X0082393Y0142875D01*
X0082360Y0142834D01*
X0082324Y0142796D01*
X0082286Y0142760D01*
X0082245Y0142727D01*
X0082202Y0142697D01*
X0082157Y0142671D01*
X0082111Y0142647D01*
X0082062Y0142627D01*
X0082013Y0142611D01*
X0081962Y0142598D01*
X0081910Y0142588D01*
X0081858Y0142583D01*
X0081806Y0142581D01*
X0081806Y0142580D02*
X0080706Y0142580D01*
X0080706Y0143497D01*
X0080708Y0143556D01*
X0080714Y0143614D01*
X0080723Y0143672D01*
X0080736Y0143730D01*
X0080753Y0143786D01*
X0080773Y0143841D01*
X0080797Y0143895D01*
X0080824Y0143947D01*
X0080854Y0143997D01*
X0080888Y0144045D01*
X0080925Y0144091D01*
X0080964Y0144135D01*
X0081007Y0144176D01*
X0081051Y0144214D01*
X0081098Y0144249D01*
X0081148Y0144281D01*
X0081199Y0144310D01*
X0081252Y0144336D01*
X0081306Y0144358D01*
X0081362Y0144376D01*
X0081419Y0144391D01*
X0081477Y0144402D01*
X0081535Y0144410D01*
X0081594Y0144414D01*
X0081652Y0144414D01*
X0081711Y0144410D01*
X0081769Y0144402D01*
X0081827Y0144391D01*
X0081884Y0144376D01*
X0081940Y0144358D01*
X0081994Y0144336D01*
X0082047Y0144310D01*
X0082098Y0144281D01*
X0082148Y0144249D01*
X0082195Y0144214D01*
X0082239Y0144176D01*
X0082282Y0144135D01*
X0082321Y0144091D01*
X0082358Y0144045D01*
X0082392Y0143997D01*
X0082422Y0143947D01*
X0082449Y0143895D01*
X0082473Y0143841D01*
X0082493Y0143786D01*
X0082510Y0143730D01*
X0082523Y0143672D01*
X0082532Y0143614D01*
X0082538Y0143556D01*
X0082540Y0143497D01*
X0080706Y0142580D02*
X0080708Y0142506D01*
X0080714Y0142432D01*
X0080723Y0142358D01*
X0080736Y0142285D01*
X0080753Y0142212D01*
X0080773Y0142141D01*
X0080797Y0142071D01*
X0080825Y0142001D01*
X0080856Y0141934D01*
X0080890Y0141868D01*
X0080928Y0141804D01*
X0080969Y0141742D01*
X0081013Y0141682D01*
X0081060Y0141624D01*
X0081110Y0141569D01*
X0081162Y0141517D01*
X0081217Y0141467D01*
X0081275Y0141420D01*
X0081335Y0141376D01*
X0081397Y0141335D01*
X0081461Y0141297D01*
X0081527Y0141263D01*
X0081594Y0141232D01*
X0081664Y0141204D01*
X0081734Y0141180D01*
X0081805Y0141160D01*
X0081878Y0141143D01*
X0081951Y0141130D01*
X0082025Y0141121D01*
X0082099Y0141115D01*
X0082173Y0141113D01*
X0078940Y0142030D02*
X0078940Y0142947D01*
X0077840Y0142947D01*
X0078940Y0142947D02*
X0078938Y0143021D01*
X0078932Y0143095D01*
X0078923Y0143169D01*
X0078910Y0143242D01*
X0078893Y0143315D01*
X0078873Y0143386D01*
X0078849Y0143456D01*
X0078821Y0143526D01*
X0078790Y0143593D01*
X0078756Y0143659D01*
X0078718Y0143723D01*
X0078677Y0143785D01*
X0078633Y0143845D01*
X0078586Y0143903D01*
X0078536Y0143958D01*
X0078484Y0144010D01*
X0078429Y0144060D01*
X0078371Y0144107D01*
X0078311Y0144151D01*
X0078249Y0144192D01*
X0078185Y0144230D01*
X0078119Y0144264D01*
X0078052Y0144295D01*
X0077982Y0144323D01*
X0077912Y0144347D01*
X0077841Y0144367D01*
X0077768Y0144384D01*
X0077695Y0144397D01*
X0077621Y0144406D01*
X0077547Y0144412D01*
X0077473Y0144414D01*
X0077106Y0142214D02*
X0077106Y0142030D01*
X0077107Y0142214D02*
X0077109Y0142266D01*
X0077114Y0142318D01*
X0077124Y0142370D01*
X0077137Y0142421D01*
X0077153Y0142470D01*
X0077173Y0142519D01*
X0077197Y0142565D01*
X0077223Y0142610D01*
X0077253Y0142653D01*
X0077286Y0142694D01*
X0077322Y0142732D01*
X0077360Y0142768D01*
X0077401Y0142801D01*
X0077444Y0142831D01*
X0077489Y0142857D01*
X0077536Y0142881D01*
X0077584Y0142901D01*
X0077633Y0142917D01*
X0077684Y0142930D01*
X0077736Y0142940D01*
X0077788Y0142945D01*
X0077840Y0142947D01*
X0077106Y0142030D02*
X0077108Y0141971D01*
X0077114Y0141913D01*
X0077123Y0141855D01*
X0077136Y0141797D01*
X0077153Y0141741D01*
X0077173Y0141686D01*
X0077197Y0141632D01*
X0077224Y0141580D01*
X0077254Y0141530D01*
X0077288Y0141482D01*
X0077325Y0141436D01*
X0077364Y0141392D01*
X0077407Y0141351D01*
X0077451Y0141313D01*
X0077498Y0141278D01*
X0077548Y0141246D01*
X0077599Y0141217D01*
X0077652Y0141191D01*
X0077706Y0141169D01*
X0077762Y0141151D01*
X0077819Y0141136D01*
X0077877Y0141125D01*
X0077935Y0141117D01*
X0077994Y0141113D01*
X0078052Y0141113D01*
X0078111Y0141117D01*
X0078169Y0141125D01*
X0078227Y0141136D01*
X0078284Y0141151D01*
X0078340Y0141169D01*
X0078394Y0141191D01*
X0078447Y0141217D01*
X0078498Y0141246D01*
X0078548Y0141278D01*
X0078595Y0141313D01*
X0078639Y0141351D01*
X0078682Y0141392D01*
X0078721Y0141436D01*
X0078758Y0141482D01*
X0078792Y0141530D01*
X0078822Y0141580D01*
X0078849Y0141632D01*
X0078873Y0141686D01*
X0078893Y0141741D01*
X0078910Y0141797D01*
X0078923Y0141855D01*
X0078932Y0141913D01*
X0078938Y0141971D01*
X0078940Y0142030D01*
X0075340Y0142030D02*
X0075338Y0141971D01*
X0075332Y0141913D01*
X0075323Y0141855D01*
X0075310Y0141797D01*
X0075293Y0141741D01*
X0075273Y0141686D01*
X0075249Y0141632D01*
X0075222Y0141580D01*
X0075192Y0141530D01*
X0075158Y0141482D01*
X0075121Y0141436D01*
X0075082Y0141392D01*
X0075039Y0141351D01*
X0074995Y0141313D01*
X0074948Y0141278D01*
X0074898Y0141246D01*
X0074847Y0141217D01*
X0074794Y0141191D01*
X0074740Y0141169D01*
X0074684Y0141151D01*
X0074627Y0141136D01*
X0074569Y0141125D01*
X0074511Y0141117D01*
X0074452Y0141113D01*
X0074394Y0141113D01*
X0074335Y0141117D01*
X0074277Y0141125D01*
X0074219Y0141136D01*
X0074162Y0141151D01*
X0074106Y0141169D01*
X0074052Y0141191D01*
X0073999Y0141217D01*
X0073948Y0141246D01*
X0073898Y0141278D01*
X0073851Y0141313D01*
X0073807Y0141351D01*
X0073764Y0141392D01*
X0073725Y0141436D01*
X0073688Y0141482D01*
X0073654Y0141530D01*
X0073624Y0141580D01*
X0073597Y0141632D01*
X0073573Y0141686D01*
X0073553Y0141741D01*
X0073536Y0141797D01*
X0073523Y0141855D01*
X0073514Y0141913D01*
X0073508Y0141971D01*
X0073506Y0142030D01*
X0073508Y0142089D01*
X0073514Y0142147D01*
X0073523Y0142205D01*
X0073536Y0142263D01*
X0073553Y0142319D01*
X0073573Y0142374D01*
X0073597Y0142428D01*
X0073624Y0142480D01*
X0073654Y0142530D01*
X0073688Y0142578D01*
X0073725Y0142624D01*
X0073764Y0142668D01*
X0073807Y0142709D01*
X0073851Y0142747D01*
X0073898Y0142782D01*
X0073948Y0142814D01*
X0073999Y0142843D01*
X0074052Y0142869D01*
X0074106Y0142891D01*
X0074162Y0142909D01*
X0074219Y0142924D01*
X0074277Y0142935D01*
X0074335Y0142943D01*
X0074394Y0142947D01*
X0074452Y0142947D01*
X0074511Y0142943D01*
X0074569Y0142935D01*
X0074627Y0142924D01*
X0074684Y0142909D01*
X0074740Y0142891D01*
X0074794Y0142869D01*
X0074847Y0142843D01*
X0074898Y0142814D01*
X0074948Y0142782D01*
X0074995Y0142747D01*
X0075039Y0142709D01*
X0075082Y0142668D01*
X0075121Y0142624D01*
X0075158Y0142578D01*
X0075192Y0142530D01*
X0075222Y0142480D01*
X0075249Y0142428D01*
X0075273Y0142374D01*
X0075293Y0142319D01*
X0075310Y0142263D01*
X0075323Y0142205D01*
X0075332Y0142147D01*
X0075338Y0142089D01*
X0075340Y0142030D01*
X0075156Y0143680D02*
X0075154Y0143628D01*
X0075149Y0143576D01*
X0075139Y0143524D01*
X0075126Y0143473D01*
X0075110Y0143424D01*
X0075090Y0143376D01*
X0075066Y0143329D01*
X0075040Y0143284D01*
X0075010Y0143241D01*
X0074977Y0143200D01*
X0074941Y0143162D01*
X0074903Y0143126D01*
X0074862Y0143093D01*
X0074819Y0143063D01*
X0074774Y0143037D01*
X0074727Y0143013D01*
X0074679Y0142993D01*
X0074630Y0142977D01*
X0074579Y0142964D01*
X0074527Y0142954D01*
X0074475Y0142949D01*
X0074423Y0142947D01*
X0074371Y0142949D01*
X0074319Y0142954D01*
X0074267Y0142964D01*
X0074216Y0142977D01*
X0074167Y0142993D01*
X0074119Y0143013D01*
X0074072Y0143037D01*
X0074027Y0143063D01*
X0073984Y0143093D01*
X0073943Y0143126D01*
X0073905Y0143162D01*
X0073869Y0143200D01*
X0073836Y0143241D01*
X0073806Y0143284D01*
X0073780Y0143329D01*
X0073756Y0143376D01*
X0073736Y0143424D01*
X0073720Y0143473D01*
X0073707Y0143524D01*
X0073697Y0143576D01*
X0073692Y0143628D01*
X0073690Y0143680D01*
X0073692Y0143732D01*
X0073697Y0143784D01*
X0073707Y0143836D01*
X0073720Y0143887D01*
X0073736Y0143936D01*
X0073756Y0143984D01*
X0073780Y0144031D01*
X0073806Y0144076D01*
X0073836Y0144119D01*
X0073869Y0144160D01*
X0073905Y0144198D01*
X0073943Y0144234D01*
X0073984Y0144267D01*
X0074027Y0144297D01*
X0074072Y0144323D01*
X0074119Y0144347D01*
X0074167Y0144367D01*
X0074216Y0144383D01*
X0074267Y0144396D01*
X0074319Y0144406D01*
X0074371Y0144411D01*
X0074423Y0144413D01*
X0074475Y0144411D01*
X0074527Y0144406D01*
X0074579Y0144396D01*
X0074630Y0144383D01*
X0074679Y0144367D01*
X0074727Y0144347D01*
X0074774Y0144323D01*
X0074819Y0144297D01*
X0074862Y0144267D01*
X0074903Y0144234D01*
X0074941Y0144198D01*
X0074977Y0144160D01*
X0075010Y0144119D01*
X0075040Y0144076D01*
X0075066Y0144031D01*
X0075090Y0143984D01*
X0075110Y0143936D01*
X0075126Y0143887D01*
X0075139Y0143836D01*
X0075149Y0143784D01*
X0075154Y0143732D01*
X0075156Y0143680D01*
X0075047Y0042436D02*
X0075045Y0042384D01*
X0075040Y0042332D01*
X0075030Y0042280D01*
X0075017Y0042229D01*
X0075001Y0042180D01*
X0074981Y0042132D01*
X0074957Y0042085D01*
X0074931Y0042040D01*
X0074901Y0041997D01*
X0074868Y0041956D01*
X0074832Y0041918D01*
X0074794Y0041882D01*
X0074753Y0041849D01*
X0074710Y0041819D01*
X0074665Y0041793D01*
X0074618Y0041769D01*
X0074570Y0041749D01*
X0074521Y0041733D01*
X0074470Y0041720D01*
X0074418Y0041710D01*
X0074366Y0041705D01*
X0074314Y0041703D01*
X0074262Y0041705D01*
X0074210Y0041710D01*
X0074158Y0041720D01*
X0074107Y0041733D01*
X0074058Y0041749D01*
X0074010Y0041769D01*
X0073963Y0041793D01*
X0073918Y0041819D01*
X0073875Y0041849D01*
X0073834Y0041882D01*
X0073796Y0041918D01*
X0073760Y0041956D01*
X0073727Y0041997D01*
X0073697Y0042040D01*
X0073671Y0042085D01*
X0073647Y0042132D01*
X0073627Y0042180D01*
X0073611Y0042229D01*
X0073598Y0042280D01*
X0073588Y0042332D01*
X0073583Y0042384D01*
X0073581Y0042436D01*
X0073583Y0042488D01*
X0073588Y0042540D01*
X0073598Y0042592D01*
X0073611Y0042643D01*
X0073627Y0042692D01*
X0073647Y0042740D01*
X0073671Y0042787D01*
X0073697Y0042832D01*
X0073727Y0042875D01*
X0073760Y0042916D01*
X0073796Y0042954D01*
X0073834Y0042990D01*
X0073875Y0043023D01*
X0073918Y0043053D01*
X0073963Y0043079D01*
X0074010Y0043103D01*
X0074058Y0043123D01*
X0074107Y0043139D01*
X0074158Y0043152D01*
X0074210Y0043162D01*
X0074262Y0043167D01*
X0074314Y0043169D01*
X0074366Y0043167D01*
X0074418Y0043162D01*
X0074470Y0043152D01*
X0074521Y0043139D01*
X0074570Y0043123D01*
X0074618Y0043103D01*
X0074665Y0043079D01*
X0074710Y0043053D01*
X0074753Y0043023D01*
X0074794Y0042990D01*
X0074832Y0042954D01*
X0074868Y0042916D01*
X0074901Y0042875D01*
X0074931Y0042832D01*
X0074957Y0042787D01*
X0074981Y0042740D01*
X0075001Y0042692D01*
X0075017Y0042643D01*
X0075030Y0042592D01*
X0075040Y0042540D01*
X0075045Y0042488D01*
X0075047Y0042436D01*
X0075231Y0040786D02*
X0075229Y0040727D01*
X0075223Y0040669D01*
X0075214Y0040611D01*
X0075201Y0040553D01*
X0075184Y0040497D01*
X0075164Y0040442D01*
X0075140Y0040388D01*
X0075113Y0040336D01*
X0075083Y0040286D01*
X0075049Y0040238D01*
X0075012Y0040192D01*
X0074973Y0040148D01*
X0074930Y0040107D01*
X0074886Y0040069D01*
X0074839Y0040034D01*
X0074789Y0040002D01*
X0074738Y0039973D01*
X0074685Y0039947D01*
X0074631Y0039925D01*
X0074575Y0039907D01*
X0074518Y0039892D01*
X0074460Y0039881D01*
X0074402Y0039873D01*
X0074343Y0039869D01*
X0074285Y0039869D01*
X0074226Y0039873D01*
X0074168Y0039881D01*
X0074110Y0039892D01*
X0074053Y0039907D01*
X0073997Y0039925D01*
X0073943Y0039947D01*
X0073890Y0039973D01*
X0073839Y0040002D01*
X0073789Y0040034D01*
X0073742Y0040069D01*
X0073698Y0040107D01*
X0073655Y0040148D01*
X0073616Y0040192D01*
X0073579Y0040238D01*
X0073545Y0040286D01*
X0073515Y0040336D01*
X0073488Y0040388D01*
X0073464Y0040442D01*
X0073444Y0040497D01*
X0073427Y0040553D01*
X0073414Y0040611D01*
X0073405Y0040669D01*
X0073399Y0040727D01*
X0073397Y0040786D01*
X0073399Y0040845D01*
X0073405Y0040903D01*
X0073414Y0040961D01*
X0073427Y0041019D01*
X0073444Y0041075D01*
X0073464Y0041130D01*
X0073488Y0041184D01*
X0073515Y0041236D01*
X0073545Y0041286D01*
X0073579Y0041334D01*
X0073616Y0041380D01*
X0073655Y0041424D01*
X0073698Y0041465D01*
X0073742Y0041503D01*
X0073789Y0041538D01*
X0073839Y0041570D01*
X0073890Y0041599D01*
X0073943Y0041625D01*
X0073997Y0041647D01*
X0074053Y0041665D01*
X0074110Y0041680D01*
X0074168Y0041691D01*
X0074226Y0041699D01*
X0074285Y0041703D01*
X0074343Y0041703D01*
X0074402Y0041699D01*
X0074460Y0041691D01*
X0074518Y0041680D01*
X0074575Y0041665D01*
X0074631Y0041647D01*
X0074685Y0041625D01*
X0074738Y0041599D01*
X0074789Y0041570D01*
X0074839Y0041538D01*
X0074886Y0041503D01*
X0074930Y0041465D01*
X0074973Y0041424D01*
X0075012Y0041380D01*
X0075049Y0041334D01*
X0075083Y0041286D01*
X0075113Y0041236D01*
X0075140Y0041184D01*
X0075164Y0041130D01*
X0075184Y0041075D01*
X0075201Y0041019D01*
X0075214Y0040961D01*
X0075223Y0040903D01*
X0075229Y0040845D01*
X0075231Y0040786D01*
X0076997Y0040786D02*
X0076997Y0040970D01*
X0076998Y0040970D02*
X0077000Y0041022D01*
X0077005Y0041074D01*
X0077015Y0041126D01*
X0077028Y0041177D01*
X0077044Y0041226D01*
X0077064Y0041275D01*
X0077088Y0041321D01*
X0077114Y0041366D01*
X0077144Y0041409D01*
X0077177Y0041450D01*
X0077213Y0041488D01*
X0077251Y0041524D01*
X0077292Y0041557D01*
X0077335Y0041587D01*
X0077380Y0041613D01*
X0077427Y0041637D01*
X0077475Y0041657D01*
X0077524Y0041673D01*
X0077575Y0041686D01*
X0077627Y0041696D01*
X0077679Y0041701D01*
X0077731Y0041703D01*
X0078831Y0041703D01*
X0078831Y0040786D01*
X0078829Y0040727D01*
X0078823Y0040669D01*
X0078814Y0040611D01*
X0078801Y0040553D01*
X0078784Y0040497D01*
X0078764Y0040442D01*
X0078740Y0040388D01*
X0078713Y0040336D01*
X0078683Y0040286D01*
X0078649Y0040238D01*
X0078612Y0040192D01*
X0078573Y0040148D01*
X0078530Y0040107D01*
X0078486Y0040069D01*
X0078439Y0040034D01*
X0078389Y0040002D01*
X0078338Y0039973D01*
X0078285Y0039947D01*
X0078231Y0039925D01*
X0078175Y0039907D01*
X0078118Y0039892D01*
X0078060Y0039881D01*
X0078002Y0039873D01*
X0077943Y0039869D01*
X0077885Y0039869D01*
X0077826Y0039873D01*
X0077768Y0039881D01*
X0077710Y0039892D01*
X0077653Y0039907D01*
X0077597Y0039925D01*
X0077543Y0039947D01*
X0077490Y0039973D01*
X0077439Y0040002D01*
X0077389Y0040034D01*
X0077342Y0040069D01*
X0077298Y0040107D01*
X0077255Y0040148D01*
X0077216Y0040192D01*
X0077179Y0040238D01*
X0077145Y0040286D01*
X0077115Y0040336D01*
X0077088Y0040388D01*
X0077064Y0040442D01*
X0077044Y0040497D01*
X0077027Y0040553D01*
X0077014Y0040611D01*
X0077005Y0040669D01*
X0076999Y0040727D01*
X0076997Y0040786D01*
X0078831Y0041703D02*
X0078829Y0041777D01*
X0078823Y0041851D01*
X0078814Y0041925D01*
X0078801Y0041998D01*
X0078784Y0042071D01*
X0078764Y0042142D01*
X0078740Y0042212D01*
X0078712Y0042282D01*
X0078681Y0042349D01*
X0078647Y0042415D01*
X0078609Y0042479D01*
X0078568Y0042541D01*
X0078524Y0042601D01*
X0078477Y0042659D01*
X0078427Y0042714D01*
X0078375Y0042766D01*
X0078320Y0042816D01*
X0078262Y0042863D01*
X0078202Y0042907D01*
X0078140Y0042948D01*
X0078076Y0042986D01*
X0078010Y0043020D01*
X0077943Y0043051D01*
X0077873Y0043079D01*
X0077803Y0043103D01*
X0077732Y0043123D01*
X0077659Y0043140D01*
X0077586Y0043153D01*
X0077512Y0043162D01*
X0077438Y0043168D01*
X0077364Y0043170D01*
X0080597Y0042253D02*
X0080597Y0041336D01*
X0081697Y0041336D01*
X0080597Y0041336D02*
X0080599Y0041262D01*
X0080605Y0041188D01*
X0080614Y0041114D01*
X0080627Y0041041D01*
X0080644Y0040968D01*
X0080664Y0040897D01*
X0080688Y0040827D01*
X0080716Y0040757D01*
X0080747Y0040690D01*
X0080781Y0040624D01*
X0080819Y0040560D01*
X0080860Y0040498D01*
X0080904Y0040438D01*
X0080951Y0040380D01*
X0081001Y0040325D01*
X0081053Y0040273D01*
X0081108Y0040223D01*
X0081166Y0040176D01*
X0081226Y0040132D01*
X0081288Y0040091D01*
X0081352Y0040053D01*
X0081418Y0040019D01*
X0081485Y0039988D01*
X0081555Y0039960D01*
X0081625Y0039936D01*
X0081696Y0039916D01*
X0081769Y0039899D01*
X0081842Y0039886D01*
X0081916Y0039877D01*
X0081990Y0039871D01*
X0082064Y0039869D01*
X0082431Y0042070D02*
X0082431Y0042253D01*
X0082430Y0042070D02*
X0082428Y0042018D01*
X0082423Y0041966D01*
X0082413Y0041914D01*
X0082400Y0041863D01*
X0082384Y0041814D01*
X0082364Y0041766D01*
X0082340Y0041719D01*
X0082314Y0041674D01*
X0082284Y0041631D01*
X0082251Y0041590D01*
X0082215Y0041552D01*
X0082177Y0041516D01*
X0082136Y0041483D01*
X0082093Y0041453D01*
X0082048Y0041427D01*
X0082002Y0041403D01*
X0081953Y0041383D01*
X0081904Y0041367D01*
X0081853Y0041354D01*
X0081801Y0041344D01*
X0081749Y0041339D01*
X0081697Y0041337D01*
X0082431Y0042253D02*
X0082429Y0042312D01*
X0082423Y0042370D01*
X0082414Y0042428D01*
X0082401Y0042486D01*
X0082384Y0042542D01*
X0082364Y0042597D01*
X0082340Y0042651D01*
X0082313Y0042703D01*
X0082283Y0042753D01*
X0082249Y0042801D01*
X0082212Y0042847D01*
X0082173Y0042891D01*
X0082130Y0042932D01*
X0082086Y0042970D01*
X0082039Y0043005D01*
X0081989Y0043037D01*
X0081938Y0043066D01*
X0081885Y0043092D01*
X0081831Y0043114D01*
X0081775Y0043132D01*
X0081718Y0043147D01*
X0081660Y0043158D01*
X0081602Y0043166D01*
X0081543Y0043170D01*
X0081485Y0043170D01*
X0081426Y0043166D01*
X0081368Y0043158D01*
X0081310Y0043147D01*
X0081253Y0043132D01*
X0081197Y0043114D01*
X0081143Y0043092D01*
X0081090Y0043066D01*
X0081039Y0043037D01*
X0080989Y0043005D01*
X0080942Y0042970D01*
X0080898Y0042932D01*
X0080855Y0042891D01*
X0080816Y0042847D01*
X0080779Y0042801D01*
X0080745Y0042753D01*
X0080715Y0042703D01*
X0080688Y0042651D01*
X0080664Y0042597D01*
X0080644Y0042542D01*
X0080627Y0042486D01*
X0080614Y0042428D01*
X0080605Y0042370D01*
X0080599Y0042312D01*
X0080597Y0042253D01*
M02*
