G75*
%MOIN*%
%OFA0B0*%
%FSLAX25Y25*%
%IPPOS*%
%LPD*%
%AMOC8*
5,1,8,0,0,1.08239X$1,22.5*
%
%ADD10C,0.00787*%
%ADD11C,0.00600*%
%ADD12C,0.00700*%
D10*
X0049425Y0047485D02*
X0049425Y0060027D01*
X0049425Y0058874D02*
X0052181Y0058874D01*
X0052181Y0048638D01*
X0049425Y0048638D01*
X0049425Y0047485D02*
X0049427Y0047323D01*
X0049433Y0047160D01*
X0049443Y0046998D01*
X0049456Y0046836D01*
X0049474Y0046675D01*
X0049496Y0046514D01*
X0049521Y0046353D01*
X0049550Y0046194D01*
X0049583Y0046035D01*
X0049620Y0045877D01*
X0049661Y0045719D01*
X0049706Y0045563D01*
X0049754Y0045408D01*
X0049806Y0045254D01*
X0049862Y0045102D01*
X0049921Y0044951D01*
X0049984Y0044801D01*
X0050051Y0044653D01*
X0050121Y0044506D01*
X0050195Y0044362D01*
X0050272Y0044219D01*
X0050353Y0044078D01*
X0050437Y0043939D01*
X0050524Y0043802D01*
X0050615Y0043667D01*
X0050709Y0043534D01*
X0050806Y0043404D01*
X0050906Y0043276D01*
X0051009Y0043151D01*
X0051115Y0043028D01*
X0051224Y0042908D01*
X0051336Y0042790D01*
X0051451Y0042675D01*
X0051569Y0042563D01*
X0051689Y0042454D01*
X0051812Y0042348D01*
X0051937Y0042245D01*
X0052065Y0042145D01*
X0052195Y0042048D01*
X0052328Y0041954D01*
X0052463Y0041863D01*
X0052600Y0041776D01*
X0052739Y0041692D01*
X0052880Y0041611D01*
X0053023Y0041534D01*
X0053167Y0041460D01*
X0053314Y0041390D01*
X0053462Y0041323D01*
X0053612Y0041260D01*
X0053763Y0041201D01*
X0053915Y0041145D01*
X0054069Y0041093D01*
X0054224Y0041045D01*
X0054380Y0041000D01*
X0054538Y0040959D01*
X0054696Y0040922D01*
X0054855Y0040889D01*
X0055014Y0040860D01*
X0055175Y0040835D01*
X0055336Y0040813D01*
X0055497Y0040795D01*
X0055659Y0040782D01*
X0055821Y0040772D01*
X0055984Y0040766D01*
X0056146Y0040764D01*
X0056906Y0040764D01*
X0056906Y0043520D01*
X0067142Y0043520D01*
X0067142Y0040764D01*
X0056906Y0040764D01*
X0067142Y0040764D02*
X0067957Y0040764D01*
X0067957Y0040763D02*
X0068118Y0040765D01*
X0068279Y0040771D01*
X0068440Y0040781D01*
X0068600Y0040794D01*
X0068760Y0040812D01*
X0068920Y0040833D01*
X0069079Y0040858D01*
X0069238Y0040887D01*
X0069395Y0040920D01*
X0069552Y0040957D01*
X0069708Y0040997D01*
X0069863Y0041041D01*
X0070017Y0041089D01*
X0070169Y0041141D01*
X0070320Y0041196D01*
X0070470Y0041255D01*
X0070619Y0041318D01*
X0070766Y0041384D01*
X0070911Y0041453D01*
X0071054Y0041526D01*
X0071196Y0041603D01*
X0071336Y0041683D01*
X0071474Y0041766D01*
X0071610Y0041853D01*
X0071743Y0041943D01*
X0071875Y0042036D01*
X0072004Y0042132D01*
X0072131Y0042231D01*
X0072255Y0042334D01*
X0072377Y0042439D01*
X0072496Y0042547D01*
X0072613Y0042659D01*
X0072726Y0042772D01*
X0072838Y0042889D01*
X0072946Y0043008D01*
X0073051Y0043130D01*
X0073154Y0043254D01*
X0073253Y0043381D01*
X0073349Y0043510D01*
X0073442Y0043642D01*
X0073532Y0043775D01*
X0073619Y0043911D01*
X0073702Y0044049D01*
X0073782Y0044189D01*
X0073859Y0044331D01*
X0073932Y0044474D01*
X0074001Y0044619D01*
X0074067Y0044766D01*
X0074130Y0044915D01*
X0074189Y0045065D01*
X0074244Y0045216D01*
X0074296Y0045368D01*
X0074344Y0045522D01*
X0074388Y0045677D01*
X0074428Y0045833D01*
X0074465Y0045990D01*
X0074498Y0046147D01*
X0074527Y0046306D01*
X0074552Y0046465D01*
X0074573Y0046625D01*
X0074591Y0046785D01*
X0074604Y0046945D01*
X0074614Y0047106D01*
X0074620Y0047267D01*
X0074622Y0047428D01*
X0074622Y0060027D01*
X0074622Y0058874D02*
X0071866Y0058874D01*
X0071866Y0048638D01*
X0074622Y0048638D01*
X0074622Y0060027D02*
X0074620Y0060189D01*
X0074614Y0060352D01*
X0074604Y0060514D01*
X0074591Y0060676D01*
X0074573Y0060837D01*
X0074551Y0060998D01*
X0074526Y0061159D01*
X0074497Y0061318D01*
X0074464Y0061477D01*
X0074427Y0061635D01*
X0074386Y0061793D01*
X0074341Y0061949D01*
X0074293Y0062104D01*
X0074241Y0062258D01*
X0074185Y0062410D01*
X0074126Y0062561D01*
X0074063Y0062711D01*
X0073996Y0062859D01*
X0073926Y0063006D01*
X0073852Y0063150D01*
X0073775Y0063293D01*
X0073694Y0063434D01*
X0073610Y0063573D01*
X0073523Y0063710D01*
X0073432Y0063845D01*
X0073338Y0063978D01*
X0073241Y0064108D01*
X0073141Y0064236D01*
X0073038Y0064361D01*
X0072932Y0064484D01*
X0072823Y0064604D01*
X0072711Y0064722D01*
X0072596Y0064837D01*
X0072478Y0064949D01*
X0072358Y0065058D01*
X0072235Y0065164D01*
X0072110Y0065267D01*
X0071982Y0065367D01*
X0071852Y0065464D01*
X0071719Y0065558D01*
X0071584Y0065649D01*
X0071447Y0065736D01*
X0071308Y0065820D01*
X0071167Y0065901D01*
X0071024Y0065978D01*
X0070880Y0066052D01*
X0070733Y0066122D01*
X0070585Y0066189D01*
X0070435Y0066252D01*
X0070284Y0066311D01*
X0070132Y0066367D01*
X0069978Y0066419D01*
X0069823Y0066467D01*
X0069667Y0066512D01*
X0069509Y0066553D01*
X0069351Y0066590D01*
X0069192Y0066623D01*
X0069033Y0066652D01*
X0068872Y0066677D01*
X0068711Y0066699D01*
X0068550Y0066717D01*
X0068388Y0066730D01*
X0068226Y0066740D01*
X0068063Y0066746D01*
X0067901Y0066748D01*
X0056146Y0066748D01*
X0057299Y0066748D02*
X0057299Y0063992D01*
X0067535Y0063992D01*
X0067535Y0066748D01*
X0056146Y0066748D02*
X0055984Y0066746D01*
X0055821Y0066740D01*
X0055659Y0066730D01*
X0055497Y0066717D01*
X0055336Y0066699D01*
X0055175Y0066677D01*
X0055014Y0066652D01*
X0054855Y0066623D01*
X0054696Y0066590D01*
X0054538Y0066553D01*
X0054380Y0066512D01*
X0054224Y0066467D01*
X0054069Y0066419D01*
X0053915Y0066367D01*
X0053763Y0066311D01*
X0053612Y0066252D01*
X0053462Y0066189D01*
X0053314Y0066122D01*
X0053167Y0066052D01*
X0053023Y0065978D01*
X0052880Y0065901D01*
X0052739Y0065820D01*
X0052600Y0065736D01*
X0052463Y0065649D01*
X0052328Y0065558D01*
X0052195Y0065464D01*
X0052065Y0065367D01*
X0051937Y0065267D01*
X0051812Y0065164D01*
X0051689Y0065058D01*
X0051569Y0064949D01*
X0051451Y0064837D01*
X0051336Y0064722D01*
X0051224Y0064604D01*
X0051115Y0064484D01*
X0051009Y0064361D01*
X0050906Y0064236D01*
X0050806Y0064108D01*
X0050709Y0063978D01*
X0050615Y0063845D01*
X0050524Y0063710D01*
X0050437Y0063573D01*
X0050353Y0063434D01*
X0050272Y0063293D01*
X0050195Y0063150D01*
X0050121Y0063006D01*
X0050051Y0062859D01*
X0049984Y0062711D01*
X0049921Y0062561D01*
X0049862Y0062410D01*
X0049806Y0062258D01*
X0049754Y0062104D01*
X0049706Y0061949D01*
X0049661Y0061793D01*
X0049620Y0061635D01*
X0049583Y0061477D01*
X0049550Y0061318D01*
X0049521Y0061159D01*
X0049496Y0060998D01*
X0049474Y0060837D01*
X0049456Y0060676D01*
X0049443Y0060514D01*
X0049433Y0060352D01*
X0049427Y0060189D01*
X0049425Y0060027D01*
X0035646Y0055923D02*
X0035653Y0056489D01*
X0035673Y0057055D01*
X0035708Y0057620D01*
X0035755Y0058184D01*
X0035817Y0058746D01*
X0035892Y0059307D01*
X0035980Y0059866D01*
X0036082Y0060423D01*
X0036198Y0060977D01*
X0036327Y0061528D01*
X0036469Y0062076D01*
X0036624Y0062621D01*
X0036792Y0063161D01*
X0036974Y0063697D01*
X0037168Y0064229D01*
X0037375Y0064756D01*
X0037595Y0065277D01*
X0037827Y0065793D01*
X0038072Y0066304D01*
X0038329Y0066808D01*
X0038598Y0067306D01*
X0038879Y0067798D01*
X0039172Y0068282D01*
X0039476Y0068759D01*
X0039792Y0069229D01*
X0040119Y0069691D01*
X0040458Y0070145D01*
X0040807Y0070590D01*
X0041166Y0071027D01*
X0041537Y0071455D01*
X0041917Y0071874D01*
X0042308Y0072284D01*
X0042708Y0072684D01*
X0043118Y0073075D01*
X0043537Y0073455D01*
X0043965Y0073826D01*
X0044402Y0074185D01*
X0044847Y0074534D01*
X0045301Y0074873D01*
X0045763Y0075200D01*
X0046233Y0075516D01*
X0046710Y0075820D01*
X0047194Y0076113D01*
X0047686Y0076394D01*
X0048184Y0076663D01*
X0048688Y0076920D01*
X0049199Y0077165D01*
X0049715Y0077397D01*
X0050236Y0077617D01*
X0050763Y0077824D01*
X0051295Y0078018D01*
X0051831Y0078200D01*
X0052371Y0078368D01*
X0052916Y0078523D01*
X0053464Y0078665D01*
X0054015Y0078794D01*
X0054569Y0078910D01*
X0055126Y0079012D01*
X0055685Y0079100D01*
X0056246Y0079175D01*
X0056808Y0079237D01*
X0057372Y0079284D01*
X0057937Y0079319D01*
X0058503Y0079339D01*
X0059069Y0079346D01*
X0114585Y0079346D01*
X0115151Y0079339D01*
X0115717Y0079319D01*
X0116282Y0079284D01*
X0116846Y0079237D01*
X0117408Y0079175D01*
X0117969Y0079100D01*
X0118528Y0079012D01*
X0119085Y0078910D01*
X0119639Y0078794D01*
X0120190Y0078665D01*
X0120738Y0078523D01*
X0121283Y0078368D01*
X0121823Y0078200D01*
X0122359Y0078018D01*
X0122891Y0077824D01*
X0123418Y0077617D01*
X0123939Y0077397D01*
X0124455Y0077165D01*
X0124966Y0076920D01*
X0125470Y0076663D01*
X0125968Y0076394D01*
X0126460Y0076113D01*
X0126944Y0075820D01*
X0127421Y0075516D01*
X0127891Y0075200D01*
X0128353Y0074873D01*
X0128807Y0074534D01*
X0129252Y0074185D01*
X0129689Y0073826D01*
X0130117Y0073455D01*
X0130536Y0073075D01*
X0130946Y0072684D01*
X0131346Y0072284D01*
X0131737Y0071874D01*
X0132117Y0071455D01*
X0132488Y0071027D01*
X0132847Y0070590D01*
X0133196Y0070145D01*
X0133535Y0069691D01*
X0133862Y0069229D01*
X0134178Y0068759D01*
X0134482Y0068282D01*
X0134775Y0067798D01*
X0135056Y0067306D01*
X0135325Y0066808D01*
X0135582Y0066304D01*
X0135827Y0065793D01*
X0136059Y0065277D01*
X0136279Y0064756D01*
X0136486Y0064229D01*
X0136680Y0063697D01*
X0136862Y0063161D01*
X0137030Y0062621D01*
X0137185Y0062076D01*
X0137327Y0061528D01*
X0137456Y0060977D01*
X0137572Y0060423D01*
X0137674Y0059866D01*
X0137762Y0059307D01*
X0137837Y0058746D01*
X0137899Y0058184D01*
X0137946Y0057620D01*
X0137981Y0057055D01*
X0138001Y0056489D01*
X0138008Y0055923D01*
X0138008Y0051589D01*
X0138001Y0051023D01*
X0137981Y0050457D01*
X0137946Y0049892D01*
X0137899Y0049328D01*
X0137837Y0048766D01*
X0137762Y0048205D01*
X0137674Y0047646D01*
X0137572Y0047089D01*
X0137456Y0046535D01*
X0137327Y0045984D01*
X0137185Y0045436D01*
X0137030Y0044891D01*
X0136862Y0044351D01*
X0136680Y0043815D01*
X0136486Y0043283D01*
X0136279Y0042756D01*
X0136059Y0042235D01*
X0135827Y0041719D01*
X0135582Y0041208D01*
X0135325Y0040704D01*
X0135056Y0040206D01*
X0134775Y0039714D01*
X0134482Y0039230D01*
X0134178Y0038753D01*
X0133862Y0038283D01*
X0133535Y0037821D01*
X0133196Y0037367D01*
X0132847Y0036922D01*
X0132488Y0036485D01*
X0132117Y0036057D01*
X0131737Y0035638D01*
X0131346Y0035228D01*
X0130946Y0034828D01*
X0130536Y0034437D01*
X0130117Y0034057D01*
X0129689Y0033686D01*
X0129252Y0033327D01*
X0128807Y0032978D01*
X0128353Y0032639D01*
X0127891Y0032312D01*
X0127421Y0031996D01*
X0126944Y0031692D01*
X0126460Y0031399D01*
X0125968Y0031118D01*
X0125470Y0030849D01*
X0124966Y0030592D01*
X0124455Y0030347D01*
X0123939Y0030115D01*
X0123418Y0029895D01*
X0122891Y0029688D01*
X0122359Y0029494D01*
X0121823Y0029312D01*
X0121283Y0029144D01*
X0120738Y0028989D01*
X0120190Y0028847D01*
X0119639Y0028718D01*
X0119085Y0028602D01*
X0118528Y0028500D01*
X0117969Y0028412D01*
X0117408Y0028337D01*
X0116846Y0028275D01*
X0116282Y0028228D01*
X0115717Y0028193D01*
X0115151Y0028173D01*
X0114585Y0028166D01*
X0114585Y0028165D02*
X0059069Y0028165D01*
X0059069Y0028166D02*
X0058503Y0028173D01*
X0057937Y0028193D01*
X0057372Y0028228D01*
X0056808Y0028275D01*
X0056246Y0028337D01*
X0055685Y0028412D01*
X0055126Y0028500D01*
X0054569Y0028602D01*
X0054015Y0028718D01*
X0053464Y0028847D01*
X0052916Y0028989D01*
X0052371Y0029144D01*
X0051831Y0029312D01*
X0051295Y0029494D01*
X0050763Y0029688D01*
X0050236Y0029895D01*
X0049715Y0030115D01*
X0049199Y0030347D01*
X0048688Y0030592D01*
X0048184Y0030849D01*
X0047686Y0031118D01*
X0047194Y0031399D01*
X0046710Y0031692D01*
X0046233Y0031996D01*
X0045763Y0032312D01*
X0045301Y0032639D01*
X0044847Y0032978D01*
X0044402Y0033327D01*
X0043965Y0033686D01*
X0043537Y0034057D01*
X0043118Y0034437D01*
X0042708Y0034828D01*
X0042308Y0035228D01*
X0041917Y0035638D01*
X0041537Y0036057D01*
X0041166Y0036485D01*
X0040807Y0036922D01*
X0040458Y0037367D01*
X0040119Y0037821D01*
X0039792Y0038283D01*
X0039476Y0038753D01*
X0039172Y0039230D01*
X0038879Y0039714D01*
X0038598Y0040206D01*
X0038329Y0040704D01*
X0038072Y0041208D01*
X0037827Y0041719D01*
X0037595Y0042235D01*
X0037375Y0042756D01*
X0037168Y0043283D01*
X0036974Y0043815D01*
X0036792Y0044351D01*
X0036624Y0044891D01*
X0036469Y0045436D01*
X0036327Y0045984D01*
X0036198Y0046535D01*
X0036082Y0047089D01*
X0035980Y0047646D01*
X0035892Y0048205D01*
X0035817Y0048766D01*
X0035755Y0049328D01*
X0035708Y0049892D01*
X0035673Y0050457D01*
X0035653Y0051023D01*
X0035646Y0051589D01*
X0035646Y0055923D01*
X0059069Y0118717D02*
X0114585Y0118717D01*
X0116354Y0131315D02*
X0116354Y0134071D01*
X0106118Y0134071D01*
X0106118Y0131315D01*
X0105752Y0131315D02*
X0117507Y0131315D01*
X0117669Y0131317D01*
X0117832Y0131323D01*
X0117994Y0131333D01*
X0118156Y0131346D01*
X0118317Y0131364D01*
X0118478Y0131386D01*
X0118639Y0131411D01*
X0118798Y0131440D01*
X0118957Y0131473D01*
X0119115Y0131510D01*
X0119273Y0131551D01*
X0119429Y0131596D01*
X0119584Y0131644D01*
X0119738Y0131696D01*
X0119890Y0131752D01*
X0120041Y0131811D01*
X0120191Y0131874D01*
X0120339Y0131941D01*
X0120486Y0132011D01*
X0120630Y0132085D01*
X0120773Y0132162D01*
X0120914Y0132243D01*
X0121053Y0132327D01*
X0121190Y0132414D01*
X0121325Y0132505D01*
X0121458Y0132599D01*
X0121588Y0132696D01*
X0121716Y0132796D01*
X0121841Y0132899D01*
X0121964Y0133005D01*
X0122084Y0133114D01*
X0122202Y0133226D01*
X0122317Y0133341D01*
X0122429Y0133459D01*
X0122538Y0133579D01*
X0122644Y0133702D01*
X0122747Y0133827D01*
X0122847Y0133955D01*
X0122944Y0134085D01*
X0123038Y0134218D01*
X0123129Y0134353D01*
X0123216Y0134490D01*
X0123300Y0134629D01*
X0123381Y0134770D01*
X0123458Y0134913D01*
X0123532Y0135057D01*
X0123602Y0135204D01*
X0123669Y0135352D01*
X0123732Y0135502D01*
X0123791Y0135653D01*
X0123847Y0135805D01*
X0123899Y0135959D01*
X0123947Y0136114D01*
X0123992Y0136270D01*
X0124033Y0136428D01*
X0124070Y0136586D01*
X0124103Y0136745D01*
X0124132Y0136904D01*
X0124157Y0137065D01*
X0124179Y0137226D01*
X0124197Y0137387D01*
X0124210Y0137549D01*
X0124220Y0137711D01*
X0124226Y0137874D01*
X0124228Y0138036D01*
X0124228Y0150578D01*
X0124228Y0149425D02*
X0121472Y0149425D01*
X0121472Y0139189D01*
X0124228Y0139189D01*
X0138008Y0142140D02*
X0138001Y0141574D01*
X0137981Y0141008D01*
X0137946Y0140443D01*
X0137899Y0139879D01*
X0137837Y0139317D01*
X0137762Y0138756D01*
X0137674Y0138197D01*
X0137572Y0137640D01*
X0137456Y0137086D01*
X0137327Y0136535D01*
X0137185Y0135987D01*
X0137030Y0135442D01*
X0136862Y0134902D01*
X0136680Y0134366D01*
X0136486Y0133834D01*
X0136279Y0133307D01*
X0136059Y0132786D01*
X0135827Y0132270D01*
X0135582Y0131759D01*
X0135325Y0131255D01*
X0135056Y0130757D01*
X0134775Y0130265D01*
X0134482Y0129781D01*
X0134178Y0129304D01*
X0133862Y0128834D01*
X0133535Y0128372D01*
X0133196Y0127918D01*
X0132847Y0127473D01*
X0132488Y0127036D01*
X0132117Y0126608D01*
X0131737Y0126189D01*
X0131346Y0125779D01*
X0130946Y0125379D01*
X0130536Y0124988D01*
X0130117Y0124608D01*
X0129689Y0124237D01*
X0129252Y0123878D01*
X0128807Y0123529D01*
X0128353Y0123190D01*
X0127891Y0122863D01*
X0127421Y0122547D01*
X0126944Y0122243D01*
X0126460Y0121950D01*
X0125968Y0121669D01*
X0125470Y0121400D01*
X0124966Y0121143D01*
X0124455Y0120898D01*
X0123939Y0120666D01*
X0123418Y0120446D01*
X0122891Y0120239D01*
X0122359Y0120045D01*
X0121823Y0119863D01*
X0121283Y0119695D01*
X0120738Y0119540D01*
X0120190Y0119398D01*
X0119639Y0119269D01*
X0119085Y0119153D01*
X0118528Y0119051D01*
X0117969Y0118963D01*
X0117408Y0118888D01*
X0116846Y0118826D01*
X0116282Y0118779D01*
X0115717Y0118744D01*
X0115151Y0118724D01*
X0114585Y0118717D01*
X0105752Y0131315D02*
X0105590Y0131317D01*
X0105427Y0131323D01*
X0105265Y0131333D01*
X0105103Y0131346D01*
X0104942Y0131364D01*
X0104781Y0131386D01*
X0104620Y0131411D01*
X0104461Y0131440D01*
X0104302Y0131473D01*
X0104144Y0131510D01*
X0103986Y0131551D01*
X0103830Y0131596D01*
X0103675Y0131644D01*
X0103521Y0131696D01*
X0103369Y0131752D01*
X0103218Y0131811D01*
X0103068Y0131874D01*
X0102920Y0131941D01*
X0102773Y0132011D01*
X0102629Y0132085D01*
X0102486Y0132162D01*
X0102345Y0132243D01*
X0102206Y0132327D01*
X0102069Y0132414D01*
X0101934Y0132505D01*
X0101801Y0132599D01*
X0101671Y0132696D01*
X0101543Y0132796D01*
X0101418Y0132899D01*
X0101295Y0133005D01*
X0101175Y0133114D01*
X0101057Y0133226D01*
X0100942Y0133341D01*
X0100830Y0133459D01*
X0100721Y0133579D01*
X0100615Y0133702D01*
X0100512Y0133827D01*
X0100412Y0133955D01*
X0100315Y0134085D01*
X0100221Y0134218D01*
X0100130Y0134353D01*
X0100043Y0134490D01*
X0099959Y0134629D01*
X0099878Y0134770D01*
X0099801Y0134913D01*
X0099727Y0135057D01*
X0099657Y0135204D01*
X0099590Y0135352D01*
X0099527Y0135502D01*
X0099468Y0135653D01*
X0099412Y0135805D01*
X0099360Y0135959D01*
X0099312Y0136114D01*
X0099267Y0136270D01*
X0099226Y0136428D01*
X0099189Y0136586D01*
X0099156Y0136745D01*
X0099127Y0136904D01*
X0099102Y0137065D01*
X0099080Y0137226D01*
X0099062Y0137387D01*
X0099049Y0137549D01*
X0099039Y0137711D01*
X0099033Y0137874D01*
X0099031Y0138036D01*
X0099031Y0150635D01*
X0099031Y0149425D02*
X0101787Y0149425D01*
X0101787Y0139189D01*
X0099031Y0139189D01*
X0099031Y0150635D02*
X0099033Y0150796D01*
X0099039Y0150957D01*
X0099049Y0151118D01*
X0099062Y0151278D01*
X0099080Y0151438D01*
X0099101Y0151598D01*
X0099126Y0151757D01*
X0099155Y0151916D01*
X0099188Y0152073D01*
X0099225Y0152230D01*
X0099265Y0152386D01*
X0099309Y0152541D01*
X0099357Y0152695D01*
X0099409Y0152847D01*
X0099464Y0152998D01*
X0099523Y0153148D01*
X0099586Y0153297D01*
X0099652Y0153444D01*
X0099721Y0153589D01*
X0099794Y0153732D01*
X0099871Y0153874D01*
X0099951Y0154014D01*
X0100034Y0154152D01*
X0100121Y0154288D01*
X0100211Y0154421D01*
X0100304Y0154553D01*
X0100400Y0154682D01*
X0100499Y0154809D01*
X0100602Y0154933D01*
X0100707Y0155055D01*
X0100815Y0155174D01*
X0100927Y0155291D01*
X0101040Y0155404D01*
X0101157Y0155516D01*
X0101276Y0155624D01*
X0101398Y0155729D01*
X0101522Y0155832D01*
X0101649Y0155931D01*
X0101778Y0156027D01*
X0101910Y0156120D01*
X0102043Y0156210D01*
X0102179Y0156297D01*
X0102317Y0156380D01*
X0102457Y0156460D01*
X0102599Y0156537D01*
X0102742Y0156610D01*
X0102887Y0156679D01*
X0103034Y0156745D01*
X0103183Y0156808D01*
X0103333Y0156867D01*
X0103484Y0156922D01*
X0103636Y0156974D01*
X0103790Y0157022D01*
X0103945Y0157066D01*
X0104101Y0157106D01*
X0104258Y0157143D01*
X0104415Y0157176D01*
X0104574Y0157205D01*
X0104733Y0157230D01*
X0104893Y0157251D01*
X0105053Y0157269D01*
X0105213Y0157282D01*
X0105374Y0157292D01*
X0105535Y0157298D01*
X0105696Y0157300D01*
X0105696Y0157299D02*
X0106512Y0157299D01*
X0106512Y0154543D01*
X0116748Y0154543D01*
X0116748Y0157299D01*
X0117507Y0157299D01*
X0116748Y0157299D02*
X0106512Y0157299D01*
X0117507Y0157299D02*
X0117669Y0157297D01*
X0117832Y0157291D01*
X0117994Y0157281D01*
X0118156Y0157268D01*
X0118317Y0157250D01*
X0118478Y0157228D01*
X0118639Y0157203D01*
X0118798Y0157174D01*
X0118957Y0157141D01*
X0119115Y0157104D01*
X0119273Y0157063D01*
X0119429Y0157018D01*
X0119584Y0156970D01*
X0119738Y0156918D01*
X0119890Y0156862D01*
X0120041Y0156803D01*
X0120191Y0156740D01*
X0120339Y0156673D01*
X0120486Y0156603D01*
X0120630Y0156529D01*
X0120773Y0156452D01*
X0120914Y0156371D01*
X0121053Y0156287D01*
X0121190Y0156200D01*
X0121325Y0156109D01*
X0121458Y0156015D01*
X0121588Y0155918D01*
X0121716Y0155818D01*
X0121841Y0155715D01*
X0121964Y0155609D01*
X0122084Y0155500D01*
X0122202Y0155388D01*
X0122317Y0155273D01*
X0122429Y0155155D01*
X0122538Y0155035D01*
X0122644Y0154912D01*
X0122747Y0154787D01*
X0122847Y0154659D01*
X0122944Y0154529D01*
X0123038Y0154396D01*
X0123129Y0154261D01*
X0123216Y0154124D01*
X0123300Y0153985D01*
X0123381Y0153844D01*
X0123458Y0153701D01*
X0123532Y0153557D01*
X0123602Y0153410D01*
X0123669Y0153262D01*
X0123732Y0153112D01*
X0123791Y0152961D01*
X0123847Y0152809D01*
X0123899Y0152655D01*
X0123947Y0152500D01*
X0123992Y0152344D01*
X0124033Y0152186D01*
X0124070Y0152028D01*
X0124103Y0151869D01*
X0124132Y0151710D01*
X0124157Y0151549D01*
X0124179Y0151388D01*
X0124197Y0151227D01*
X0124210Y0151065D01*
X0124220Y0150903D01*
X0124226Y0150740D01*
X0124228Y0150578D01*
X0138008Y0146474D02*
X0138001Y0147040D01*
X0137981Y0147606D01*
X0137946Y0148171D01*
X0137899Y0148735D01*
X0137837Y0149297D01*
X0137762Y0149858D01*
X0137674Y0150417D01*
X0137572Y0150974D01*
X0137456Y0151528D01*
X0137327Y0152079D01*
X0137185Y0152627D01*
X0137030Y0153172D01*
X0136862Y0153712D01*
X0136680Y0154248D01*
X0136486Y0154780D01*
X0136279Y0155307D01*
X0136059Y0155828D01*
X0135827Y0156344D01*
X0135582Y0156855D01*
X0135325Y0157359D01*
X0135056Y0157857D01*
X0134775Y0158349D01*
X0134482Y0158833D01*
X0134178Y0159310D01*
X0133862Y0159780D01*
X0133535Y0160242D01*
X0133196Y0160696D01*
X0132847Y0161141D01*
X0132488Y0161578D01*
X0132117Y0162006D01*
X0131737Y0162425D01*
X0131346Y0162835D01*
X0130946Y0163235D01*
X0130536Y0163626D01*
X0130117Y0164006D01*
X0129689Y0164377D01*
X0129252Y0164736D01*
X0128807Y0165085D01*
X0128353Y0165424D01*
X0127891Y0165751D01*
X0127421Y0166067D01*
X0126944Y0166371D01*
X0126460Y0166664D01*
X0125968Y0166945D01*
X0125470Y0167214D01*
X0124966Y0167471D01*
X0124455Y0167716D01*
X0123939Y0167948D01*
X0123418Y0168168D01*
X0122891Y0168375D01*
X0122359Y0168569D01*
X0121823Y0168751D01*
X0121283Y0168919D01*
X0120738Y0169074D01*
X0120190Y0169216D01*
X0119639Y0169345D01*
X0119085Y0169461D01*
X0118528Y0169563D01*
X0117969Y0169651D01*
X0117408Y0169726D01*
X0116846Y0169788D01*
X0116282Y0169835D01*
X0115717Y0169870D01*
X0115151Y0169890D01*
X0114585Y0169897D01*
X0114585Y0169898D02*
X0059069Y0169898D01*
X0059069Y0169897D02*
X0058503Y0169890D01*
X0057937Y0169870D01*
X0057372Y0169835D01*
X0056808Y0169788D01*
X0056246Y0169726D01*
X0055685Y0169651D01*
X0055126Y0169563D01*
X0054569Y0169461D01*
X0054015Y0169345D01*
X0053464Y0169216D01*
X0052916Y0169074D01*
X0052371Y0168919D01*
X0051831Y0168751D01*
X0051295Y0168569D01*
X0050763Y0168375D01*
X0050236Y0168168D01*
X0049715Y0167948D01*
X0049199Y0167716D01*
X0048688Y0167471D01*
X0048184Y0167214D01*
X0047686Y0166945D01*
X0047194Y0166664D01*
X0046710Y0166371D01*
X0046233Y0166067D01*
X0045763Y0165751D01*
X0045301Y0165424D01*
X0044847Y0165085D01*
X0044402Y0164736D01*
X0043965Y0164377D01*
X0043537Y0164006D01*
X0043118Y0163626D01*
X0042708Y0163235D01*
X0042308Y0162835D01*
X0041917Y0162425D01*
X0041537Y0162006D01*
X0041166Y0161578D01*
X0040807Y0161141D01*
X0040458Y0160696D01*
X0040119Y0160242D01*
X0039792Y0159780D01*
X0039476Y0159310D01*
X0039172Y0158833D01*
X0038879Y0158349D01*
X0038598Y0157857D01*
X0038329Y0157359D01*
X0038072Y0156855D01*
X0037827Y0156344D01*
X0037595Y0155828D01*
X0037375Y0155307D01*
X0037168Y0154780D01*
X0036974Y0154248D01*
X0036792Y0153712D01*
X0036624Y0153172D01*
X0036469Y0152627D01*
X0036327Y0152079D01*
X0036198Y0151528D01*
X0036082Y0150974D01*
X0035980Y0150417D01*
X0035892Y0149858D01*
X0035817Y0149297D01*
X0035755Y0148735D01*
X0035708Y0148171D01*
X0035673Y0147606D01*
X0035653Y0147040D01*
X0035646Y0146474D01*
X0035646Y0142140D01*
X0035653Y0141574D01*
X0035673Y0141008D01*
X0035708Y0140443D01*
X0035755Y0139879D01*
X0035817Y0139317D01*
X0035892Y0138756D01*
X0035980Y0138197D01*
X0036082Y0137640D01*
X0036198Y0137086D01*
X0036327Y0136535D01*
X0036469Y0135987D01*
X0036624Y0135442D01*
X0036792Y0134902D01*
X0036974Y0134366D01*
X0037168Y0133834D01*
X0037375Y0133307D01*
X0037595Y0132786D01*
X0037827Y0132270D01*
X0038072Y0131759D01*
X0038329Y0131255D01*
X0038598Y0130757D01*
X0038879Y0130265D01*
X0039172Y0129781D01*
X0039476Y0129304D01*
X0039792Y0128834D01*
X0040119Y0128372D01*
X0040458Y0127918D01*
X0040807Y0127473D01*
X0041166Y0127036D01*
X0041537Y0126608D01*
X0041917Y0126189D01*
X0042308Y0125779D01*
X0042708Y0125379D01*
X0043118Y0124988D01*
X0043537Y0124608D01*
X0043965Y0124237D01*
X0044402Y0123878D01*
X0044847Y0123529D01*
X0045301Y0123190D01*
X0045763Y0122863D01*
X0046233Y0122547D01*
X0046710Y0122243D01*
X0047194Y0121950D01*
X0047686Y0121669D01*
X0048184Y0121400D01*
X0048688Y0121143D01*
X0049199Y0120898D01*
X0049715Y0120666D01*
X0050236Y0120446D01*
X0050763Y0120239D01*
X0051295Y0120045D01*
X0051831Y0119863D01*
X0052371Y0119695D01*
X0052916Y0119540D01*
X0053464Y0119398D01*
X0054015Y0119269D01*
X0054569Y0119153D01*
X0055126Y0119051D01*
X0055685Y0118963D01*
X0056246Y0118888D01*
X0056808Y0118826D01*
X0057372Y0118779D01*
X0057937Y0118744D01*
X0058503Y0118724D01*
X0059069Y0118717D01*
X0048047Y0144307D02*
X0048051Y0144645D01*
X0048064Y0144983D01*
X0048084Y0145321D01*
X0048113Y0145658D01*
X0048151Y0145994D01*
X0048196Y0146329D01*
X0048250Y0146663D01*
X0048312Y0146995D01*
X0048382Y0147326D01*
X0048460Y0147655D01*
X0048546Y0147982D01*
X0048640Y0148307D01*
X0048743Y0148630D01*
X0048853Y0148949D01*
X0048970Y0149266D01*
X0049096Y0149580D01*
X0049229Y0149891D01*
X0049370Y0150199D01*
X0049518Y0150503D01*
X0049674Y0150803D01*
X0049837Y0151099D01*
X0050007Y0151391D01*
X0050185Y0151679D01*
X0050369Y0151963D01*
X0050561Y0152242D01*
X0050759Y0152516D01*
X0050964Y0152785D01*
X0051175Y0153049D01*
X0051393Y0153308D01*
X0051617Y0153561D01*
X0051847Y0153809D01*
X0052083Y0154051D01*
X0052325Y0154287D01*
X0052573Y0154517D01*
X0052826Y0154741D01*
X0053085Y0154959D01*
X0053349Y0155170D01*
X0053618Y0155375D01*
X0053892Y0155573D01*
X0054171Y0155765D01*
X0054455Y0155949D01*
X0054743Y0156127D01*
X0055035Y0156297D01*
X0055331Y0156460D01*
X0055631Y0156616D01*
X0055935Y0156764D01*
X0056243Y0156905D01*
X0056554Y0157038D01*
X0056868Y0157164D01*
X0057185Y0157281D01*
X0057504Y0157391D01*
X0057827Y0157494D01*
X0058152Y0157588D01*
X0058479Y0157674D01*
X0058808Y0157752D01*
X0059139Y0157822D01*
X0059471Y0157884D01*
X0059805Y0157938D01*
X0060140Y0157983D01*
X0060476Y0158021D01*
X0060813Y0158050D01*
X0061151Y0158070D01*
X0061489Y0158083D01*
X0061827Y0158087D01*
X0062165Y0158083D01*
X0062503Y0158070D01*
X0062841Y0158050D01*
X0063178Y0158021D01*
X0063514Y0157983D01*
X0063849Y0157938D01*
X0064183Y0157884D01*
X0064515Y0157822D01*
X0064846Y0157752D01*
X0065175Y0157674D01*
X0065502Y0157588D01*
X0065827Y0157494D01*
X0066150Y0157391D01*
X0066469Y0157281D01*
X0066786Y0157164D01*
X0067100Y0157038D01*
X0067411Y0156905D01*
X0067719Y0156764D01*
X0068023Y0156616D01*
X0068323Y0156460D01*
X0068619Y0156297D01*
X0068911Y0156127D01*
X0069199Y0155949D01*
X0069483Y0155765D01*
X0069762Y0155573D01*
X0070036Y0155375D01*
X0070305Y0155170D01*
X0070569Y0154959D01*
X0070828Y0154741D01*
X0071081Y0154517D01*
X0071329Y0154287D01*
X0071571Y0154051D01*
X0071807Y0153809D01*
X0072037Y0153561D01*
X0072261Y0153308D01*
X0072479Y0153049D01*
X0072690Y0152785D01*
X0072895Y0152516D01*
X0073093Y0152242D01*
X0073285Y0151963D01*
X0073469Y0151679D01*
X0073647Y0151391D01*
X0073817Y0151099D01*
X0073980Y0150803D01*
X0074136Y0150503D01*
X0074284Y0150199D01*
X0074425Y0149891D01*
X0074558Y0149580D01*
X0074684Y0149266D01*
X0074801Y0148949D01*
X0074911Y0148630D01*
X0075014Y0148307D01*
X0075108Y0147982D01*
X0075194Y0147655D01*
X0075272Y0147326D01*
X0075342Y0146995D01*
X0075404Y0146663D01*
X0075458Y0146329D01*
X0075503Y0145994D01*
X0075541Y0145658D01*
X0075570Y0145321D01*
X0075590Y0144983D01*
X0075603Y0144645D01*
X0075607Y0144307D01*
X0075603Y0143969D01*
X0075590Y0143631D01*
X0075570Y0143293D01*
X0075541Y0142956D01*
X0075503Y0142620D01*
X0075458Y0142285D01*
X0075404Y0141951D01*
X0075342Y0141619D01*
X0075272Y0141288D01*
X0075194Y0140959D01*
X0075108Y0140632D01*
X0075014Y0140307D01*
X0074911Y0139984D01*
X0074801Y0139665D01*
X0074684Y0139348D01*
X0074558Y0139034D01*
X0074425Y0138723D01*
X0074284Y0138415D01*
X0074136Y0138111D01*
X0073980Y0137811D01*
X0073817Y0137515D01*
X0073647Y0137223D01*
X0073469Y0136935D01*
X0073285Y0136651D01*
X0073093Y0136372D01*
X0072895Y0136098D01*
X0072690Y0135829D01*
X0072479Y0135565D01*
X0072261Y0135306D01*
X0072037Y0135053D01*
X0071807Y0134805D01*
X0071571Y0134563D01*
X0071329Y0134327D01*
X0071081Y0134097D01*
X0070828Y0133873D01*
X0070569Y0133655D01*
X0070305Y0133444D01*
X0070036Y0133239D01*
X0069762Y0133041D01*
X0069483Y0132849D01*
X0069199Y0132665D01*
X0068911Y0132487D01*
X0068619Y0132317D01*
X0068323Y0132154D01*
X0068023Y0131998D01*
X0067719Y0131850D01*
X0067411Y0131709D01*
X0067100Y0131576D01*
X0066786Y0131450D01*
X0066469Y0131333D01*
X0066150Y0131223D01*
X0065827Y0131120D01*
X0065502Y0131026D01*
X0065175Y0130940D01*
X0064846Y0130862D01*
X0064515Y0130792D01*
X0064183Y0130730D01*
X0063849Y0130676D01*
X0063514Y0130631D01*
X0063178Y0130593D01*
X0062841Y0130564D01*
X0062503Y0130544D01*
X0062165Y0130531D01*
X0061827Y0130527D01*
X0061489Y0130531D01*
X0061151Y0130544D01*
X0060813Y0130564D01*
X0060476Y0130593D01*
X0060140Y0130631D01*
X0059805Y0130676D01*
X0059471Y0130730D01*
X0059139Y0130792D01*
X0058808Y0130862D01*
X0058479Y0130940D01*
X0058152Y0131026D01*
X0057827Y0131120D01*
X0057504Y0131223D01*
X0057185Y0131333D01*
X0056868Y0131450D01*
X0056554Y0131576D01*
X0056243Y0131709D01*
X0055935Y0131850D01*
X0055631Y0131998D01*
X0055331Y0132154D01*
X0055035Y0132317D01*
X0054743Y0132487D01*
X0054455Y0132665D01*
X0054171Y0132849D01*
X0053892Y0133041D01*
X0053618Y0133239D01*
X0053349Y0133444D01*
X0053085Y0133655D01*
X0052826Y0133873D01*
X0052573Y0134097D01*
X0052325Y0134327D01*
X0052083Y0134563D01*
X0051847Y0134805D01*
X0051617Y0135053D01*
X0051393Y0135306D01*
X0051175Y0135565D01*
X0050964Y0135829D01*
X0050759Y0136098D01*
X0050561Y0136372D01*
X0050369Y0136651D01*
X0050185Y0136935D01*
X0050007Y0137223D01*
X0049837Y0137515D01*
X0049674Y0137811D01*
X0049518Y0138111D01*
X0049370Y0138415D01*
X0049229Y0138723D01*
X0049096Y0139034D01*
X0048970Y0139348D01*
X0048853Y0139665D01*
X0048743Y0139984D01*
X0048640Y0140307D01*
X0048546Y0140632D01*
X0048460Y0140959D01*
X0048382Y0141288D01*
X0048312Y0141619D01*
X0048250Y0141951D01*
X0048196Y0142285D01*
X0048151Y0142620D01*
X0048113Y0142956D01*
X0048084Y0143293D01*
X0048064Y0143631D01*
X0048051Y0143969D01*
X0048047Y0144307D01*
X0050016Y0144307D02*
X0050020Y0144597D01*
X0050030Y0144887D01*
X0050048Y0145176D01*
X0050073Y0145465D01*
X0050105Y0145753D01*
X0050144Y0146040D01*
X0050190Y0146326D01*
X0050243Y0146611D01*
X0050303Y0146895D01*
X0050370Y0147177D01*
X0050444Y0147457D01*
X0050525Y0147736D01*
X0050612Y0148012D01*
X0050706Y0148286D01*
X0050807Y0148558D01*
X0050915Y0148827D01*
X0051029Y0149093D01*
X0051150Y0149357D01*
X0051277Y0149617D01*
X0051411Y0149875D01*
X0051550Y0150129D01*
X0051696Y0150379D01*
X0051848Y0150626D01*
X0052007Y0150869D01*
X0052171Y0151108D01*
X0052340Y0151343D01*
X0052516Y0151574D01*
X0052697Y0151800D01*
X0052884Y0152022D01*
X0053076Y0152239D01*
X0053273Y0152451D01*
X0053475Y0152659D01*
X0053683Y0152861D01*
X0053895Y0153058D01*
X0054112Y0153250D01*
X0054334Y0153437D01*
X0054560Y0153618D01*
X0054791Y0153794D01*
X0055026Y0153963D01*
X0055265Y0154127D01*
X0055508Y0154286D01*
X0055755Y0154438D01*
X0056005Y0154584D01*
X0056259Y0154723D01*
X0056517Y0154857D01*
X0056777Y0154984D01*
X0057041Y0155105D01*
X0057307Y0155219D01*
X0057576Y0155327D01*
X0057848Y0155428D01*
X0058122Y0155522D01*
X0058398Y0155609D01*
X0058677Y0155690D01*
X0058957Y0155764D01*
X0059239Y0155831D01*
X0059523Y0155891D01*
X0059808Y0155944D01*
X0060094Y0155990D01*
X0060381Y0156029D01*
X0060669Y0156061D01*
X0060958Y0156086D01*
X0061247Y0156104D01*
X0061537Y0156114D01*
X0061827Y0156118D01*
X0062117Y0156114D01*
X0062407Y0156104D01*
X0062696Y0156086D01*
X0062985Y0156061D01*
X0063273Y0156029D01*
X0063560Y0155990D01*
X0063846Y0155944D01*
X0064131Y0155891D01*
X0064415Y0155831D01*
X0064697Y0155764D01*
X0064977Y0155690D01*
X0065256Y0155609D01*
X0065532Y0155522D01*
X0065806Y0155428D01*
X0066078Y0155327D01*
X0066347Y0155219D01*
X0066613Y0155105D01*
X0066877Y0154984D01*
X0067137Y0154857D01*
X0067395Y0154723D01*
X0067649Y0154584D01*
X0067899Y0154438D01*
X0068146Y0154286D01*
X0068389Y0154127D01*
X0068628Y0153963D01*
X0068863Y0153794D01*
X0069094Y0153618D01*
X0069320Y0153437D01*
X0069542Y0153250D01*
X0069759Y0153058D01*
X0069971Y0152861D01*
X0070179Y0152659D01*
X0070381Y0152451D01*
X0070578Y0152239D01*
X0070770Y0152022D01*
X0070957Y0151800D01*
X0071138Y0151574D01*
X0071314Y0151343D01*
X0071483Y0151108D01*
X0071647Y0150869D01*
X0071806Y0150626D01*
X0071958Y0150379D01*
X0072104Y0150129D01*
X0072243Y0149875D01*
X0072377Y0149617D01*
X0072504Y0149357D01*
X0072625Y0149093D01*
X0072739Y0148827D01*
X0072847Y0148558D01*
X0072948Y0148286D01*
X0073042Y0148012D01*
X0073129Y0147736D01*
X0073210Y0147457D01*
X0073284Y0147177D01*
X0073351Y0146895D01*
X0073411Y0146611D01*
X0073464Y0146326D01*
X0073510Y0146040D01*
X0073549Y0145753D01*
X0073581Y0145465D01*
X0073606Y0145176D01*
X0073624Y0144887D01*
X0073634Y0144597D01*
X0073638Y0144307D01*
X0073634Y0144017D01*
X0073624Y0143727D01*
X0073606Y0143438D01*
X0073581Y0143149D01*
X0073549Y0142861D01*
X0073510Y0142574D01*
X0073464Y0142288D01*
X0073411Y0142003D01*
X0073351Y0141719D01*
X0073284Y0141437D01*
X0073210Y0141157D01*
X0073129Y0140878D01*
X0073042Y0140602D01*
X0072948Y0140328D01*
X0072847Y0140056D01*
X0072739Y0139787D01*
X0072625Y0139521D01*
X0072504Y0139257D01*
X0072377Y0138997D01*
X0072243Y0138739D01*
X0072104Y0138485D01*
X0071958Y0138235D01*
X0071806Y0137988D01*
X0071647Y0137745D01*
X0071483Y0137506D01*
X0071314Y0137271D01*
X0071138Y0137040D01*
X0070957Y0136814D01*
X0070770Y0136592D01*
X0070578Y0136375D01*
X0070381Y0136163D01*
X0070179Y0135955D01*
X0069971Y0135753D01*
X0069759Y0135556D01*
X0069542Y0135364D01*
X0069320Y0135177D01*
X0069094Y0134996D01*
X0068863Y0134820D01*
X0068628Y0134651D01*
X0068389Y0134487D01*
X0068146Y0134328D01*
X0067899Y0134176D01*
X0067649Y0134030D01*
X0067395Y0133891D01*
X0067137Y0133757D01*
X0066877Y0133630D01*
X0066613Y0133509D01*
X0066347Y0133395D01*
X0066078Y0133287D01*
X0065806Y0133186D01*
X0065532Y0133092D01*
X0065256Y0133005D01*
X0064977Y0132924D01*
X0064697Y0132850D01*
X0064415Y0132783D01*
X0064131Y0132723D01*
X0063846Y0132670D01*
X0063560Y0132624D01*
X0063273Y0132585D01*
X0062985Y0132553D01*
X0062696Y0132528D01*
X0062407Y0132510D01*
X0062117Y0132500D01*
X0061827Y0132496D01*
X0061537Y0132500D01*
X0061247Y0132510D01*
X0060958Y0132528D01*
X0060669Y0132553D01*
X0060381Y0132585D01*
X0060094Y0132624D01*
X0059808Y0132670D01*
X0059523Y0132723D01*
X0059239Y0132783D01*
X0058957Y0132850D01*
X0058677Y0132924D01*
X0058398Y0133005D01*
X0058122Y0133092D01*
X0057848Y0133186D01*
X0057576Y0133287D01*
X0057307Y0133395D01*
X0057041Y0133509D01*
X0056777Y0133630D01*
X0056517Y0133757D01*
X0056259Y0133891D01*
X0056005Y0134030D01*
X0055755Y0134176D01*
X0055508Y0134328D01*
X0055265Y0134487D01*
X0055026Y0134651D01*
X0054791Y0134820D01*
X0054560Y0134996D01*
X0054334Y0135177D01*
X0054112Y0135364D01*
X0053895Y0135556D01*
X0053683Y0135753D01*
X0053475Y0135955D01*
X0053273Y0136163D01*
X0053076Y0136375D01*
X0052884Y0136592D01*
X0052697Y0136814D01*
X0052516Y0137040D01*
X0052340Y0137271D01*
X0052171Y0137506D01*
X0052007Y0137745D01*
X0051848Y0137988D01*
X0051696Y0138235D01*
X0051550Y0138485D01*
X0051411Y0138739D01*
X0051277Y0138997D01*
X0051150Y0139257D01*
X0051029Y0139521D01*
X0050915Y0139787D01*
X0050807Y0140056D01*
X0050706Y0140328D01*
X0050612Y0140602D01*
X0050525Y0140878D01*
X0050444Y0141157D01*
X0050370Y0141437D01*
X0050303Y0141719D01*
X0050243Y0142003D01*
X0050190Y0142288D01*
X0050144Y0142574D01*
X0050105Y0142861D01*
X0050073Y0143149D01*
X0050048Y0143438D01*
X0050030Y0143727D01*
X0050020Y0144017D01*
X0050016Y0144307D01*
X0138008Y0146474D02*
X0138008Y0142140D01*
X0098047Y0053756D02*
X0098051Y0054094D01*
X0098064Y0054432D01*
X0098084Y0054770D01*
X0098113Y0055107D01*
X0098151Y0055443D01*
X0098196Y0055778D01*
X0098250Y0056112D01*
X0098312Y0056444D01*
X0098382Y0056775D01*
X0098460Y0057104D01*
X0098546Y0057431D01*
X0098640Y0057756D01*
X0098743Y0058079D01*
X0098853Y0058398D01*
X0098970Y0058715D01*
X0099096Y0059029D01*
X0099229Y0059340D01*
X0099370Y0059648D01*
X0099518Y0059952D01*
X0099674Y0060252D01*
X0099837Y0060548D01*
X0100007Y0060840D01*
X0100185Y0061128D01*
X0100369Y0061412D01*
X0100561Y0061691D01*
X0100759Y0061965D01*
X0100964Y0062234D01*
X0101175Y0062498D01*
X0101393Y0062757D01*
X0101617Y0063010D01*
X0101847Y0063258D01*
X0102083Y0063500D01*
X0102325Y0063736D01*
X0102573Y0063966D01*
X0102826Y0064190D01*
X0103085Y0064408D01*
X0103349Y0064619D01*
X0103618Y0064824D01*
X0103892Y0065022D01*
X0104171Y0065214D01*
X0104455Y0065398D01*
X0104743Y0065576D01*
X0105035Y0065746D01*
X0105331Y0065909D01*
X0105631Y0066065D01*
X0105935Y0066213D01*
X0106243Y0066354D01*
X0106554Y0066487D01*
X0106868Y0066613D01*
X0107185Y0066730D01*
X0107504Y0066840D01*
X0107827Y0066943D01*
X0108152Y0067037D01*
X0108479Y0067123D01*
X0108808Y0067201D01*
X0109139Y0067271D01*
X0109471Y0067333D01*
X0109805Y0067387D01*
X0110140Y0067432D01*
X0110476Y0067470D01*
X0110813Y0067499D01*
X0111151Y0067519D01*
X0111489Y0067532D01*
X0111827Y0067536D01*
X0112165Y0067532D01*
X0112503Y0067519D01*
X0112841Y0067499D01*
X0113178Y0067470D01*
X0113514Y0067432D01*
X0113849Y0067387D01*
X0114183Y0067333D01*
X0114515Y0067271D01*
X0114846Y0067201D01*
X0115175Y0067123D01*
X0115502Y0067037D01*
X0115827Y0066943D01*
X0116150Y0066840D01*
X0116469Y0066730D01*
X0116786Y0066613D01*
X0117100Y0066487D01*
X0117411Y0066354D01*
X0117719Y0066213D01*
X0118023Y0066065D01*
X0118323Y0065909D01*
X0118619Y0065746D01*
X0118911Y0065576D01*
X0119199Y0065398D01*
X0119483Y0065214D01*
X0119762Y0065022D01*
X0120036Y0064824D01*
X0120305Y0064619D01*
X0120569Y0064408D01*
X0120828Y0064190D01*
X0121081Y0063966D01*
X0121329Y0063736D01*
X0121571Y0063500D01*
X0121807Y0063258D01*
X0122037Y0063010D01*
X0122261Y0062757D01*
X0122479Y0062498D01*
X0122690Y0062234D01*
X0122895Y0061965D01*
X0123093Y0061691D01*
X0123285Y0061412D01*
X0123469Y0061128D01*
X0123647Y0060840D01*
X0123817Y0060548D01*
X0123980Y0060252D01*
X0124136Y0059952D01*
X0124284Y0059648D01*
X0124425Y0059340D01*
X0124558Y0059029D01*
X0124684Y0058715D01*
X0124801Y0058398D01*
X0124911Y0058079D01*
X0125014Y0057756D01*
X0125108Y0057431D01*
X0125194Y0057104D01*
X0125272Y0056775D01*
X0125342Y0056444D01*
X0125404Y0056112D01*
X0125458Y0055778D01*
X0125503Y0055443D01*
X0125541Y0055107D01*
X0125570Y0054770D01*
X0125590Y0054432D01*
X0125603Y0054094D01*
X0125607Y0053756D01*
X0125603Y0053418D01*
X0125590Y0053080D01*
X0125570Y0052742D01*
X0125541Y0052405D01*
X0125503Y0052069D01*
X0125458Y0051734D01*
X0125404Y0051400D01*
X0125342Y0051068D01*
X0125272Y0050737D01*
X0125194Y0050408D01*
X0125108Y0050081D01*
X0125014Y0049756D01*
X0124911Y0049433D01*
X0124801Y0049114D01*
X0124684Y0048797D01*
X0124558Y0048483D01*
X0124425Y0048172D01*
X0124284Y0047864D01*
X0124136Y0047560D01*
X0123980Y0047260D01*
X0123817Y0046964D01*
X0123647Y0046672D01*
X0123469Y0046384D01*
X0123285Y0046100D01*
X0123093Y0045821D01*
X0122895Y0045547D01*
X0122690Y0045278D01*
X0122479Y0045014D01*
X0122261Y0044755D01*
X0122037Y0044502D01*
X0121807Y0044254D01*
X0121571Y0044012D01*
X0121329Y0043776D01*
X0121081Y0043546D01*
X0120828Y0043322D01*
X0120569Y0043104D01*
X0120305Y0042893D01*
X0120036Y0042688D01*
X0119762Y0042490D01*
X0119483Y0042298D01*
X0119199Y0042114D01*
X0118911Y0041936D01*
X0118619Y0041766D01*
X0118323Y0041603D01*
X0118023Y0041447D01*
X0117719Y0041299D01*
X0117411Y0041158D01*
X0117100Y0041025D01*
X0116786Y0040899D01*
X0116469Y0040782D01*
X0116150Y0040672D01*
X0115827Y0040569D01*
X0115502Y0040475D01*
X0115175Y0040389D01*
X0114846Y0040311D01*
X0114515Y0040241D01*
X0114183Y0040179D01*
X0113849Y0040125D01*
X0113514Y0040080D01*
X0113178Y0040042D01*
X0112841Y0040013D01*
X0112503Y0039993D01*
X0112165Y0039980D01*
X0111827Y0039976D01*
X0111489Y0039980D01*
X0111151Y0039993D01*
X0110813Y0040013D01*
X0110476Y0040042D01*
X0110140Y0040080D01*
X0109805Y0040125D01*
X0109471Y0040179D01*
X0109139Y0040241D01*
X0108808Y0040311D01*
X0108479Y0040389D01*
X0108152Y0040475D01*
X0107827Y0040569D01*
X0107504Y0040672D01*
X0107185Y0040782D01*
X0106868Y0040899D01*
X0106554Y0041025D01*
X0106243Y0041158D01*
X0105935Y0041299D01*
X0105631Y0041447D01*
X0105331Y0041603D01*
X0105035Y0041766D01*
X0104743Y0041936D01*
X0104455Y0042114D01*
X0104171Y0042298D01*
X0103892Y0042490D01*
X0103618Y0042688D01*
X0103349Y0042893D01*
X0103085Y0043104D01*
X0102826Y0043322D01*
X0102573Y0043546D01*
X0102325Y0043776D01*
X0102083Y0044012D01*
X0101847Y0044254D01*
X0101617Y0044502D01*
X0101393Y0044755D01*
X0101175Y0045014D01*
X0100964Y0045278D01*
X0100759Y0045547D01*
X0100561Y0045821D01*
X0100369Y0046100D01*
X0100185Y0046384D01*
X0100007Y0046672D01*
X0099837Y0046964D01*
X0099674Y0047260D01*
X0099518Y0047560D01*
X0099370Y0047864D01*
X0099229Y0048172D01*
X0099096Y0048483D01*
X0098970Y0048797D01*
X0098853Y0049114D01*
X0098743Y0049433D01*
X0098640Y0049756D01*
X0098546Y0050081D01*
X0098460Y0050408D01*
X0098382Y0050737D01*
X0098312Y0051068D01*
X0098250Y0051400D01*
X0098196Y0051734D01*
X0098151Y0052069D01*
X0098113Y0052405D01*
X0098084Y0052742D01*
X0098064Y0053080D01*
X0098051Y0053418D01*
X0098047Y0053756D01*
X0100016Y0053756D02*
X0100020Y0054046D01*
X0100030Y0054336D01*
X0100048Y0054625D01*
X0100073Y0054914D01*
X0100105Y0055202D01*
X0100144Y0055489D01*
X0100190Y0055775D01*
X0100243Y0056060D01*
X0100303Y0056344D01*
X0100370Y0056626D01*
X0100444Y0056906D01*
X0100525Y0057185D01*
X0100612Y0057461D01*
X0100706Y0057735D01*
X0100807Y0058007D01*
X0100915Y0058276D01*
X0101029Y0058542D01*
X0101150Y0058806D01*
X0101277Y0059066D01*
X0101411Y0059324D01*
X0101550Y0059578D01*
X0101696Y0059828D01*
X0101848Y0060075D01*
X0102007Y0060318D01*
X0102171Y0060557D01*
X0102340Y0060792D01*
X0102516Y0061023D01*
X0102697Y0061249D01*
X0102884Y0061471D01*
X0103076Y0061688D01*
X0103273Y0061900D01*
X0103475Y0062108D01*
X0103683Y0062310D01*
X0103895Y0062507D01*
X0104112Y0062699D01*
X0104334Y0062886D01*
X0104560Y0063067D01*
X0104791Y0063243D01*
X0105026Y0063412D01*
X0105265Y0063576D01*
X0105508Y0063735D01*
X0105755Y0063887D01*
X0106005Y0064033D01*
X0106259Y0064172D01*
X0106517Y0064306D01*
X0106777Y0064433D01*
X0107041Y0064554D01*
X0107307Y0064668D01*
X0107576Y0064776D01*
X0107848Y0064877D01*
X0108122Y0064971D01*
X0108398Y0065058D01*
X0108677Y0065139D01*
X0108957Y0065213D01*
X0109239Y0065280D01*
X0109523Y0065340D01*
X0109808Y0065393D01*
X0110094Y0065439D01*
X0110381Y0065478D01*
X0110669Y0065510D01*
X0110958Y0065535D01*
X0111247Y0065553D01*
X0111537Y0065563D01*
X0111827Y0065567D01*
X0112117Y0065563D01*
X0112407Y0065553D01*
X0112696Y0065535D01*
X0112985Y0065510D01*
X0113273Y0065478D01*
X0113560Y0065439D01*
X0113846Y0065393D01*
X0114131Y0065340D01*
X0114415Y0065280D01*
X0114697Y0065213D01*
X0114977Y0065139D01*
X0115256Y0065058D01*
X0115532Y0064971D01*
X0115806Y0064877D01*
X0116078Y0064776D01*
X0116347Y0064668D01*
X0116613Y0064554D01*
X0116877Y0064433D01*
X0117137Y0064306D01*
X0117395Y0064172D01*
X0117649Y0064033D01*
X0117899Y0063887D01*
X0118146Y0063735D01*
X0118389Y0063576D01*
X0118628Y0063412D01*
X0118863Y0063243D01*
X0119094Y0063067D01*
X0119320Y0062886D01*
X0119542Y0062699D01*
X0119759Y0062507D01*
X0119971Y0062310D01*
X0120179Y0062108D01*
X0120381Y0061900D01*
X0120578Y0061688D01*
X0120770Y0061471D01*
X0120957Y0061249D01*
X0121138Y0061023D01*
X0121314Y0060792D01*
X0121483Y0060557D01*
X0121647Y0060318D01*
X0121806Y0060075D01*
X0121958Y0059828D01*
X0122104Y0059578D01*
X0122243Y0059324D01*
X0122377Y0059066D01*
X0122504Y0058806D01*
X0122625Y0058542D01*
X0122739Y0058276D01*
X0122847Y0058007D01*
X0122948Y0057735D01*
X0123042Y0057461D01*
X0123129Y0057185D01*
X0123210Y0056906D01*
X0123284Y0056626D01*
X0123351Y0056344D01*
X0123411Y0056060D01*
X0123464Y0055775D01*
X0123510Y0055489D01*
X0123549Y0055202D01*
X0123581Y0054914D01*
X0123606Y0054625D01*
X0123624Y0054336D01*
X0123634Y0054046D01*
X0123638Y0053756D01*
X0123634Y0053466D01*
X0123624Y0053176D01*
X0123606Y0052887D01*
X0123581Y0052598D01*
X0123549Y0052310D01*
X0123510Y0052023D01*
X0123464Y0051737D01*
X0123411Y0051452D01*
X0123351Y0051168D01*
X0123284Y0050886D01*
X0123210Y0050606D01*
X0123129Y0050327D01*
X0123042Y0050051D01*
X0122948Y0049777D01*
X0122847Y0049505D01*
X0122739Y0049236D01*
X0122625Y0048970D01*
X0122504Y0048706D01*
X0122377Y0048446D01*
X0122243Y0048188D01*
X0122104Y0047934D01*
X0121958Y0047684D01*
X0121806Y0047437D01*
X0121647Y0047194D01*
X0121483Y0046955D01*
X0121314Y0046720D01*
X0121138Y0046489D01*
X0120957Y0046263D01*
X0120770Y0046041D01*
X0120578Y0045824D01*
X0120381Y0045612D01*
X0120179Y0045404D01*
X0119971Y0045202D01*
X0119759Y0045005D01*
X0119542Y0044813D01*
X0119320Y0044626D01*
X0119094Y0044445D01*
X0118863Y0044269D01*
X0118628Y0044100D01*
X0118389Y0043936D01*
X0118146Y0043777D01*
X0117899Y0043625D01*
X0117649Y0043479D01*
X0117395Y0043340D01*
X0117137Y0043206D01*
X0116877Y0043079D01*
X0116613Y0042958D01*
X0116347Y0042844D01*
X0116078Y0042736D01*
X0115806Y0042635D01*
X0115532Y0042541D01*
X0115256Y0042454D01*
X0114977Y0042373D01*
X0114697Y0042299D01*
X0114415Y0042232D01*
X0114131Y0042172D01*
X0113846Y0042119D01*
X0113560Y0042073D01*
X0113273Y0042034D01*
X0112985Y0042002D01*
X0112696Y0041977D01*
X0112407Y0041959D01*
X0112117Y0041949D01*
X0111827Y0041945D01*
X0111537Y0041949D01*
X0111247Y0041959D01*
X0110958Y0041977D01*
X0110669Y0042002D01*
X0110381Y0042034D01*
X0110094Y0042073D01*
X0109808Y0042119D01*
X0109523Y0042172D01*
X0109239Y0042232D01*
X0108957Y0042299D01*
X0108677Y0042373D01*
X0108398Y0042454D01*
X0108122Y0042541D01*
X0107848Y0042635D01*
X0107576Y0042736D01*
X0107307Y0042844D01*
X0107041Y0042958D01*
X0106777Y0043079D01*
X0106517Y0043206D01*
X0106259Y0043340D01*
X0106005Y0043479D01*
X0105755Y0043625D01*
X0105508Y0043777D01*
X0105265Y0043936D01*
X0105026Y0044100D01*
X0104791Y0044269D01*
X0104560Y0044445D01*
X0104334Y0044626D01*
X0104112Y0044813D01*
X0103895Y0045005D01*
X0103683Y0045202D01*
X0103475Y0045404D01*
X0103273Y0045612D01*
X0103076Y0045824D01*
X0102884Y0046041D01*
X0102697Y0046263D01*
X0102516Y0046489D01*
X0102340Y0046720D01*
X0102171Y0046955D01*
X0102007Y0047194D01*
X0101848Y0047437D01*
X0101696Y0047684D01*
X0101550Y0047934D01*
X0101411Y0048188D01*
X0101277Y0048446D01*
X0101150Y0048706D01*
X0101029Y0048970D01*
X0100915Y0049236D01*
X0100807Y0049505D01*
X0100706Y0049777D01*
X0100612Y0050051D01*
X0100525Y0050327D01*
X0100444Y0050606D01*
X0100370Y0050886D01*
X0100303Y0051168D01*
X0100243Y0051452D01*
X0100190Y0051737D01*
X0100144Y0052023D01*
X0100105Y0052310D01*
X0100073Y0052598D01*
X0100048Y0052887D01*
X0100030Y0053176D01*
X0100020Y0053466D01*
X0100016Y0053756D01*
D11*
X0085949Y0049519D02*
X0085949Y0047109D01*
X0085947Y0047050D01*
X0085941Y0046990D01*
X0085932Y0046932D01*
X0085919Y0046874D01*
X0085902Y0046817D01*
X0085881Y0046761D01*
X0085857Y0046707D01*
X0085830Y0046654D01*
X0085799Y0046603D01*
X0085765Y0046555D01*
X0085728Y0046508D01*
X0085688Y0046464D01*
X0085645Y0046423D01*
X0085600Y0046384D01*
X0085552Y0046349D01*
X0085503Y0046316D01*
X0085451Y0046287D01*
X0085397Y0046261D01*
X0085342Y0046239D01*
X0085286Y0046220D01*
X0085228Y0046205D01*
X0085170Y0046194D01*
X0085111Y0046186D01*
X0085052Y0046182D01*
X0084992Y0046182D01*
X0084933Y0046186D01*
X0084874Y0046194D01*
X0084816Y0046205D01*
X0084758Y0046220D01*
X0084702Y0046239D01*
X0084647Y0046261D01*
X0084593Y0046287D01*
X0084541Y0046316D01*
X0084492Y0046349D01*
X0084444Y0046384D01*
X0084399Y0046423D01*
X0084356Y0046464D01*
X0084316Y0046508D01*
X0084279Y0046555D01*
X0084245Y0046603D01*
X0084214Y0046654D01*
X0084187Y0046707D01*
X0084163Y0046761D01*
X0084142Y0046817D01*
X0084125Y0046874D01*
X0084112Y0046932D01*
X0084103Y0046990D01*
X0084097Y0047050D01*
X0084095Y0047109D01*
X0084095Y0049519D01*
X0082288Y0048777D02*
X0081361Y0049519D01*
X0081361Y0046182D01*
X0082288Y0046182D02*
X0080434Y0046182D01*
X0084948Y0148544D02*
X0086802Y0148544D01*
X0085227Y0150398D01*
X0085783Y0151881D02*
X0085847Y0151879D01*
X0085911Y0151873D01*
X0085975Y0151864D01*
X0086037Y0151850D01*
X0086099Y0151833D01*
X0086160Y0151813D01*
X0086219Y0151788D01*
X0086277Y0151760D01*
X0086333Y0151729D01*
X0086387Y0151694D01*
X0086439Y0151657D01*
X0086489Y0151616D01*
X0086536Y0151572D01*
X0086580Y0151526D01*
X0086622Y0151477D01*
X0086660Y0151425D01*
X0086695Y0151372D01*
X0086727Y0151316D01*
X0086756Y0151259D01*
X0086781Y0151200D01*
X0086803Y0151139D01*
X0085227Y0150398D02*
X0085188Y0150438D01*
X0085151Y0150480D01*
X0085117Y0150524D01*
X0085086Y0150571D01*
X0085058Y0150619D01*
X0085033Y0150669D01*
X0085011Y0150720D01*
X0084992Y0150772D01*
X0084977Y0150826D01*
X0084965Y0150881D01*
X0084956Y0150936D01*
X0084951Y0150991D01*
X0084949Y0151047D01*
X0084951Y0151104D01*
X0084957Y0151161D01*
X0084966Y0151217D01*
X0084980Y0151272D01*
X0084997Y0151326D01*
X0085018Y0151379D01*
X0085043Y0151431D01*
X0085070Y0151480D01*
X0085102Y0151528D01*
X0085136Y0151573D01*
X0085173Y0151616D01*
X0085214Y0151657D01*
X0085257Y0151694D01*
X0085302Y0151728D01*
X0085350Y0151760D01*
X0085399Y0151787D01*
X0085451Y0151812D01*
X0085504Y0151833D01*
X0085558Y0151850D01*
X0085613Y0151864D01*
X0085669Y0151873D01*
X0085726Y0151879D01*
X0085783Y0151881D01*
X0088610Y0151881D02*
X0088610Y0149471D01*
X0088612Y0149412D01*
X0088618Y0149352D01*
X0088627Y0149294D01*
X0088640Y0149236D01*
X0088657Y0149179D01*
X0088678Y0149123D01*
X0088702Y0149069D01*
X0088729Y0149016D01*
X0088760Y0148965D01*
X0088794Y0148917D01*
X0088831Y0148870D01*
X0088871Y0148826D01*
X0088914Y0148785D01*
X0088959Y0148746D01*
X0089007Y0148711D01*
X0089056Y0148678D01*
X0089108Y0148649D01*
X0089162Y0148623D01*
X0089217Y0148601D01*
X0089273Y0148582D01*
X0089331Y0148567D01*
X0089389Y0148556D01*
X0089448Y0148548D01*
X0089507Y0148544D01*
X0089567Y0148544D01*
X0089626Y0148548D01*
X0089685Y0148556D01*
X0089743Y0148567D01*
X0089801Y0148582D01*
X0089857Y0148601D01*
X0089912Y0148623D01*
X0089966Y0148649D01*
X0090018Y0148678D01*
X0090067Y0148711D01*
X0090115Y0148746D01*
X0090160Y0148785D01*
X0090203Y0148826D01*
X0090243Y0148870D01*
X0090280Y0148917D01*
X0090314Y0148965D01*
X0090345Y0149016D01*
X0090372Y0149069D01*
X0090396Y0149123D01*
X0090417Y0149179D01*
X0090434Y0149236D01*
X0090447Y0149294D01*
X0090456Y0149352D01*
X0090462Y0149412D01*
X0090464Y0149471D01*
X0090464Y0151881D01*
D12*
X0090414Y0143497D02*
X0090414Y0143314D01*
X0090413Y0143314D02*
X0090411Y0143262D01*
X0090406Y0143210D01*
X0090396Y0143158D01*
X0090383Y0143107D01*
X0090367Y0143058D01*
X0090347Y0143010D01*
X0090323Y0142963D01*
X0090297Y0142918D01*
X0090267Y0142875D01*
X0090234Y0142834D01*
X0090198Y0142796D01*
X0090160Y0142760D01*
X0090119Y0142727D01*
X0090076Y0142697D01*
X0090031Y0142671D01*
X0089985Y0142647D01*
X0089936Y0142627D01*
X0089887Y0142611D01*
X0089836Y0142598D01*
X0089784Y0142588D01*
X0089732Y0142583D01*
X0089680Y0142581D01*
X0089680Y0142580D02*
X0088580Y0142580D01*
X0088580Y0143497D01*
X0088582Y0143556D01*
X0088588Y0143614D01*
X0088597Y0143672D01*
X0088610Y0143730D01*
X0088627Y0143786D01*
X0088647Y0143841D01*
X0088671Y0143895D01*
X0088698Y0143947D01*
X0088728Y0143997D01*
X0088762Y0144045D01*
X0088799Y0144091D01*
X0088838Y0144135D01*
X0088881Y0144176D01*
X0088925Y0144214D01*
X0088972Y0144249D01*
X0089022Y0144281D01*
X0089073Y0144310D01*
X0089126Y0144336D01*
X0089180Y0144358D01*
X0089236Y0144376D01*
X0089293Y0144391D01*
X0089351Y0144402D01*
X0089409Y0144410D01*
X0089468Y0144414D01*
X0089526Y0144414D01*
X0089585Y0144410D01*
X0089643Y0144402D01*
X0089701Y0144391D01*
X0089758Y0144376D01*
X0089814Y0144358D01*
X0089868Y0144336D01*
X0089921Y0144310D01*
X0089972Y0144281D01*
X0090022Y0144249D01*
X0090069Y0144214D01*
X0090113Y0144176D01*
X0090156Y0144135D01*
X0090195Y0144091D01*
X0090232Y0144045D01*
X0090266Y0143997D01*
X0090296Y0143947D01*
X0090323Y0143895D01*
X0090347Y0143841D01*
X0090367Y0143786D01*
X0090384Y0143730D01*
X0090397Y0143672D01*
X0090406Y0143614D01*
X0090412Y0143556D01*
X0090414Y0143497D01*
X0088580Y0142580D02*
X0088582Y0142506D01*
X0088588Y0142432D01*
X0088597Y0142358D01*
X0088610Y0142285D01*
X0088627Y0142212D01*
X0088647Y0142141D01*
X0088671Y0142071D01*
X0088699Y0142001D01*
X0088730Y0141934D01*
X0088764Y0141868D01*
X0088802Y0141804D01*
X0088843Y0141742D01*
X0088887Y0141682D01*
X0088934Y0141624D01*
X0088984Y0141569D01*
X0089036Y0141517D01*
X0089091Y0141467D01*
X0089149Y0141420D01*
X0089209Y0141376D01*
X0089271Y0141335D01*
X0089335Y0141297D01*
X0089401Y0141263D01*
X0089468Y0141232D01*
X0089538Y0141204D01*
X0089608Y0141180D01*
X0089679Y0141160D01*
X0089752Y0141143D01*
X0089825Y0141130D01*
X0089899Y0141121D01*
X0089973Y0141115D01*
X0090047Y0141113D01*
X0086814Y0142030D02*
X0086814Y0142947D01*
X0085714Y0142947D01*
X0086814Y0142947D02*
X0086812Y0143021D01*
X0086806Y0143095D01*
X0086797Y0143169D01*
X0086784Y0143242D01*
X0086767Y0143315D01*
X0086747Y0143386D01*
X0086723Y0143456D01*
X0086695Y0143526D01*
X0086664Y0143593D01*
X0086630Y0143659D01*
X0086592Y0143723D01*
X0086551Y0143785D01*
X0086507Y0143845D01*
X0086460Y0143903D01*
X0086410Y0143958D01*
X0086358Y0144010D01*
X0086303Y0144060D01*
X0086245Y0144107D01*
X0086185Y0144151D01*
X0086123Y0144192D01*
X0086059Y0144230D01*
X0085993Y0144264D01*
X0085926Y0144295D01*
X0085856Y0144323D01*
X0085786Y0144347D01*
X0085715Y0144367D01*
X0085642Y0144384D01*
X0085569Y0144397D01*
X0085495Y0144406D01*
X0085421Y0144412D01*
X0085347Y0144414D01*
X0084980Y0142214D02*
X0084980Y0142030D01*
X0084981Y0142214D02*
X0084983Y0142266D01*
X0084988Y0142318D01*
X0084998Y0142370D01*
X0085011Y0142421D01*
X0085027Y0142470D01*
X0085047Y0142519D01*
X0085071Y0142565D01*
X0085097Y0142610D01*
X0085127Y0142653D01*
X0085160Y0142694D01*
X0085196Y0142732D01*
X0085234Y0142768D01*
X0085275Y0142801D01*
X0085318Y0142831D01*
X0085363Y0142857D01*
X0085410Y0142881D01*
X0085458Y0142901D01*
X0085507Y0142917D01*
X0085558Y0142930D01*
X0085610Y0142940D01*
X0085662Y0142945D01*
X0085714Y0142947D01*
X0084980Y0142030D02*
X0084982Y0141971D01*
X0084988Y0141913D01*
X0084997Y0141855D01*
X0085010Y0141797D01*
X0085027Y0141741D01*
X0085047Y0141686D01*
X0085071Y0141632D01*
X0085098Y0141580D01*
X0085128Y0141530D01*
X0085162Y0141482D01*
X0085199Y0141436D01*
X0085238Y0141392D01*
X0085281Y0141351D01*
X0085325Y0141313D01*
X0085372Y0141278D01*
X0085422Y0141246D01*
X0085473Y0141217D01*
X0085526Y0141191D01*
X0085580Y0141169D01*
X0085636Y0141151D01*
X0085693Y0141136D01*
X0085751Y0141125D01*
X0085809Y0141117D01*
X0085868Y0141113D01*
X0085926Y0141113D01*
X0085985Y0141117D01*
X0086043Y0141125D01*
X0086101Y0141136D01*
X0086158Y0141151D01*
X0086214Y0141169D01*
X0086268Y0141191D01*
X0086321Y0141217D01*
X0086372Y0141246D01*
X0086422Y0141278D01*
X0086469Y0141313D01*
X0086513Y0141351D01*
X0086556Y0141392D01*
X0086595Y0141436D01*
X0086632Y0141482D01*
X0086666Y0141530D01*
X0086696Y0141580D01*
X0086723Y0141632D01*
X0086747Y0141686D01*
X0086767Y0141741D01*
X0086784Y0141797D01*
X0086797Y0141855D01*
X0086806Y0141913D01*
X0086812Y0141971D01*
X0086814Y0142030D01*
X0083214Y0142030D02*
X0083212Y0141971D01*
X0083206Y0141913D01*
X0083197Y0141855D01*
X0083184Y0141797D01*
X0083167Y0141741D01*
X0083147Y0141686D01*
X0083123Y0141632D01*
X0083096Y0141580D01*
X0083066Y0141530D01*
X0083032Y0141482D01*
X0082995Y0141436D01*
X0082956Y0141392D01*
X0082913Y0141351D01*
X0082869Y0141313D01*
X0082822Y0141278D01*
X0082772Y0141246D01*
X0082721Y0141217D01*
X0082668Y0141191D01*
X0082614Y0141169D01*
X0082558Y0141151D01*
X0082501Y0141136D01*
X0082443Y0141125D01*
X0082385Y0141117D01*
X0082326Y0141113D01*
X0082268Y0141113D01*
X0082209Y0141117D01*
X0082151Y0141125D01*
X0082093Y0141136D01*
X0082036Y0141151D01*
X0081980Y0141169D01*
X0081926Y0141191D01*
X0081873Y0141217D01*
X0081822Y0141246D01*
X0081772Y0141278D01*
X0081725Y0141313D01*
X0081681Y0141351D01*
X0081638Y0141392D01*
X0081599Y0141436D01*
X0081562Y0141482D01*
X0081528Y0141530D01*
X0081498Y0141580D01*
X0081471Y0141632D01*
X0081447Y0141686D01*
X0081427Y0141741D01*
X0081410Y0141797D01*
X0081397Y0141855D01*
X0081388Y0141913D01*
X0081382Y0141971D01*
X0081380Y0142030D01*
X0081382Y0142089D01*
X0081388Y0142147D01*
X0081397Y0142205D01*
X0081410Y0142263D01*
X0081427Y0142319D01*
X0081447Y0142374D01*
X0081471Y0142428D01*
X0081498Y0142480D01*
X0081528Y0142530D01*
X0081562Y0142578D01*
X0081599Y0142624D01*
X0081638Y0142668D01*
X0081681Y0142709D01*
X0081725Y0142747D01*
X0081772Y0142782D01*
X0081822Y0142814D01*
X0081873Y0142843D01*
X0081926Y0142869D01*
X0081980Y0142891D01*
X0082036Y0142909D01*
X0082093Y0142924D01*
X0082151Y0142935D01*
X0082209Y0142943D01*
X0082268Y0142947D01*
X0082326Y0142947D01*
X0082385Y0142943D01*
X0082443Y0142935D01*
X0082501Y0142924D01*
X0082558Y0142909D01*
X0082614Y0142891D01*
X0082668Y0142869D01*
X0082721Y0142843D01*
X0082772Y0142814D01*
X0082822Y0142782D01*
X0082869Y0142747D01*
X0082913Y0142709D01*
X0082956Y0142668D01*
X0082995Y0142624D01*
X0083032Y0142578D01*
X0083066Y0142530D01*
X0083096Y0142480D01*
X0083123Y0142428D01*
X0083147Y0142374D01*
X0083167Y0142319D01*
X0083184Y0142263D01*
X0083197Y0142205D01*
X0083206Y0142147D01*
X0083212Y0142089D01*
X0083214Y0142030D01*
X0083030Y0143680D02*
X0083028Y0143628D01*
X0083023Y0143576D01*
X0083013Y0143524D01*
X0083000Y0143473D01*
X0082984Y0143424D01*
X0082964Y0143376D01*
X0082940Y0143329D01*
X0082914Y0143284D01*
X0082884Y0143241D01*
X0082851Y0143200D01*
X0082815Y0143162D01*
X0082777Y0143126D01*
X0082736Y0143093D01*
X0082693Y0143063D01*
X0082648Y0143037D01*
X0082601Y0143013D01*
X0082553Y0142993D01*
X0082504Y0142977D01*
X0082453Y0142964D01*
X0082401Y0142954D01*
X0082349Y0142949D01*
X0082297Y0142947D01*
X0082245Y0142949D01*
X0082193Y0142954D01*
X0082141Y0142964D01*
X0082090Y0142977D01*
X0082041Y0142993D01*
X0081993Y0143013D01*
X0081946Y0143037D01*
X0081901Y0143063D01*
X0081858Y0143093D01*
X0081817Y0143126D01*
X0081779Y0143162D01*
X0081743Y0143200D01*
X0081710Y0143241D01*
X0081680Y0143284D01*
X0081654Y0143329D01*
X0081630Y0143376D01*
X0081610Y0143424D01*
X0081594Y0143473D01*
X0081581Y0143524D01*
X0081571Y0143576D01*
X0081566Y0143628D01*
X0081564Y0143680D01*
X0081566Y0143732D01*
X0081571Y0143784D01*
X0081581Y0143836D01*
X0081594Y0143887D01*
X0081610Y0143936D01*
X0081630Y0143984D01*
X0081654Y0144031D01*
X0081680Y0144076D01*
X0081710Y0144119D01*
X0081743Y0144160D01*
X0081779Y0144198D01*
X0081817Y0144234D01*
X0081858Y0144267D01*
X0081901Y0144297D01*
X0081946Y0144323D01*
X0081993Y0144347D01*
X0082041Y0144367D01*
X0082090Y0144383D01*
X0082141Y0144396D01*
X0082193Y0144406D01*
X0082245Y0144411D01*
X0082297Y0144413D01*
X0082349Y0144411D01*
X0082401Y0144406D01*
X0082453Y0144396D01*
X0082504Y0144383D01*
X0082553Y0144367D01*
X0082601Y0144347D01*
X0082648Y0144323D01*
X0082693Y0144297D01*
X0082736Y0144267D01*
X0082777Y0144234D01*
X0082815Y0144198D01*
X0082851Y0144160D01*
X0082884Y0144119D01*
X0082914Y0144076D01*
X0082940Y0144031D01*
X0082964Y0143984D01*
X0082984Y0143936D01*
X0083000Y0143887D01*
X0083013Y0143836D01*
X0083023Y0143784D01*
X0083028Y0143732D01*
X0083030Y0143680D01*
X0082921Y0042436D02*
X0082919Y0042384D01*
X0082914Y0042332D01*
X0082904Y0042280D01*
X0082891Y0042229D01*
X0082875Y0042180D01*
X0082855Y0042132D01*
X0082831Y0042085D01*
X0082805Y0042040D01*
X0082775Y0041997D01*
X0082742Y0041956D01*
X0082706Y0041918D01*
X0082668Y0041882D01*
X0082627Y0041849D01*
X0082584Y0041819D01*
X0082539Y0041793D01*
X0082492Y0041769D01*
X0082444Y0041749D01*
X0082395Y0041733D01*
X0082344Y0041720D01*
X0082292Y0041710D01*
X0082240Y0041705D01*
X0082188Y0041703D01*
X0082136Y0041705D01*
X0082084Y0041710D01*
X0082032Y0041720D01*
X0081981Y0041733D01*
X0081932Y0041749D01*
X0081884Y0041769D01*
X0081837Y0041793D01*
X0081792Y0041819D01*
X0081749Y0041849D01*
X0081708Y0041882D01*
X0081670Y0041918D01*
X0081634Y0041956D01*
X0081601Y0041997D01*
X0081571Y0042040D01*
X0081545Y0042085D01*
X0081521Y0042132D01*
X0081501Y0042180D01*
X0081485Y0042229D01*
X0081472Y0042280D01*
X0081462Y0042332D01*
X0081457Y0042384D01*
X0081455Y0042436D01*
X0081457Y0042488D01*
X0081462Y0042540D01*
X0081472Y0042592D01*
X0081485Y0042643D01*
X0081501Y0042692D01*
X0081521Y0042740D01*
X0081545Y0042787D01*
X0081571Y0042832D01*
X0081601Y0042875D01*
X0081634Y0042916D01*
X0081670Y0042954D01*
X0081708Y0042990D01*
X0081749Y0043023D01*
X0081792Y0043053D01*
X0081837Y0043079D01*
X0081884Y0043103D01*
X0081932Y0043123D01*
X0081981Y0043139D01*
X0082032Y0043152D01*
X0082084Y0043162D01*
X0082136Y0043167D01*
X0082188Y0043169D01*
X0082240Y0043167D01*
X0082292Y0043162D01*
X0082344Y0043152D01*
X0082395Y0043139D01*
X0082444Y0043123D01*
X0082492Y0043103D01*
X0082539Y0043079D01*
X0082584Y0043053D01*
X0082627Y0043023D01*
X0082668Y0042990D01*
X0082706Y0042954D01*
X0082742Y0042916D01*
X0082775Y0042875D01*
X0082805Y0042832D01*
X0082831Y0042787D01*
X0082855Y0042740D01*
X0082875Y0042692D01*
X0082891Y0042643D01*
X0082904Y0042592D01*
X0082914Y0042540D01*
X0082919Y0042488D01*
X0082921Y0042436D01*
X0083105Y0040786D02*
X0083103Y0040727D01*
X0083097Y0040669D01*
X0083088Y0040611D01*
X0083075Y0040553D01*
X0083058Y0040497D01*
X0083038Y0040442D01*
X0083014Y0040388D01*
X0082987Y0040336D01*
X0082957Y0040286D01*
X0082923Y0040238D01*
X0082886Y0040192D01*
X0082847Y0040148D01*
X0082804Y0040107D01*
X0082760Y0040069D01*
X0082713Y0040034D01*
X0082663Y0040002D01*
X0082612Y0039973D01*
X0082559Y0039947D01*
X0082505Y0039925D01*
X0082449Y0039907D01*
X0082392Y0039892D01*
X0082334Y0039881D01*
X0082276Y0039873D01*
X0082217Y0039869D01*
X0082159Y0039869D01*
X0082100Y0039873D01*
X0082042Y0039881D01*
X0081984Y0039892D01*
X0081927Y0039907D01*
X0081871Y0039925D01*
X0081817Y0039947D01*
X0081764Y0039973D01*
X0081713Y0040002D01*
X0081663Y0040034D01*
X0081616Y0040069D01*
X0081572Y0040107D01*
X0081529Y0040148D01*
X0081490Y0040192D01*
X0081453Y0040238D01*
X0081419Y0040286D01*
X0081389Y0040336D01*
X0081362Y0040388D01*
X0081338Y0040442D01*
X0081318Y0040497D01*
X0081301Y0040553D01*
X0081288Y0040611D01*
X0081279Y0040669D01*
X0081273Y0040727D01*
X0081271Y0040786D01*
X0081273Y0040845D01*
X0081279Y0040903D01*
X0081288Y0040961D01*
X0081301Y0041019D01*
X0081318Y0041075D01*
X0081338Y0041130D01*
X0081362Y0041184D01*
X0081389Y0041236D01*
X0081419Y0041286D01*
X0081453Y0041334D01*
X0081490Y0041380D01*
X0081529Y0041424D01*
X0081572Y0041465D01*
X0081616Y0041503D01*
X0081663Y0041538D01*
X0081713Y0041570D01*
X0081764Y0041599D01*
X0081817Y0041625D01*
X0081871Y0041647D01*
X0081927Y0041665D01*
X0081984Y0041680D01*
X0082042Y0041691D01*
X0082100Y0041699D01*
X0082159Y0041703D01*
X0082217Y0041703D01*
X0082276Y0041699D01*
X0082334Y0041691D01*
X0082392Y0041680D01*
X0082449Y0041665D01*
X0082505Y0041647D01*
X0082559Y0041625D01*
X0082612Y0041599D01*
X0082663Y0041570D01*
X0082713Y0041538D01*
X0082760Y0041503D01*
X0082804Y0041465D01*
X0082847Y0041424D01*
X0082886Y0041380D01*
X0082923Y0041334D01*
X0082957Y0041286D01*
X0082987Y0041236D01*
X0083014Y0041184D01*
X0083038Y0041130D01*
X0083058Y0041075D01*
X0083075Y0041019D01*
X0083088Y0040961D01*
X0083097Y0040903D01*
X0083103Y0040845D01*
X0083105Y0040786D01*
X0084871Y0040786D02*
X0084871Y0040970D01*
X0084872Y0040970D02*
X0084874Y0041022D01*
X0084879Y0041074D01*
X0084889Y0041126D01*
X0084902Y0041177D01*
X0084918Y0041226D01*
X0084938Y0041275D01*
X0084962Y0041321D01*
X0084988Y0041366D01*
X0085018Y0041409D01*
X0085051Y0041450D01*
X0085087Y0041488D01*
X0085125Y0041524D01*
X0085166Y0041557D01*
X0085209Y0041587D01*
X0085254Y0041613D01*
X0085301Y0041637D01*
X0085349Y0041657D01*
X0085398Y0041673D01*
X0085449Y0041686D01*
X0085501Y0041696D01*
X0085553Y0041701D01*
X0085605Y0041703D01*
X0086705Y0041703D01*
X0086705Y0040786D01*
X0086703Y0040727D01*
X0086697Y0040669D01*
X0086688Y0040611D01*
X0086675Y0040553D01*
X0086658Y0040497D01*
X0086638Y0040442D01*
X0086614Y0040388D01*
X0086587Y0040336D01*
X0086557Y0040286D01*
X0086523Y0040238D01*
X0086486Y0040192D01*
X0086447Y0040148D01*
X0086404Y0040107D01*
X0086360Y0040069D01*
X0086313Y0040034D01*
X0086263Y0040002D01*
X0086212Y0039973D01*
X0086159Y0039947D01*
X0086105Y0039925D01*
X0086049Y0039907D01*
X0085992Y0039892D01*
X0085934Y0039881D01*
X0085876Y0039873D01*
X0085817Y0039869D01*
X0085759Y0039869D01*
X0085700Y0039873D01*
X0085642Y0039881D01*
X0085584Y0039892D01*
X0085527Y0039907D01*
X0085471Y0039925D01*
X0085417Y0039947D01*
X0085364Y0039973D01*
X0085313Y0040002D01*
X0085263Y0040034D01*
X0085216Y0040069D01*
X0085172Y0040107D01*
X0085129Y0040148D01*
X0085090Y0040192D01*
X0085053Y0040238D01*
X0085019Y0040286D01*
X0084989Y0040336D01*
X0084962Y0040388D01*
X0084938Y0040442D01*
X0084918Y0040497D01*
X0084901Y0040553D01*
X0084888Y0040611D01*
X0084879Y0040669D01*
X0084873Y0040727D01*
X0084871Y0040786D01*
X0086705Y0041703D02*
X0086703Y0041777D01*
X0086697Y0041851D01*
X0086688Y0041925D01*
X0086675Y0041998D01*
X0086658Y0042071D01*
X0086638Y0042142D01*
X0086614Y0042212D01*
X0086586Y0042282D01*
X0086555Y0042349D01*
X0086521Y0042415D01*
X0086483Y0042479D01*
X0086442Y0042541D01*
X0086398Y0042601D01*
X0086351Y0042659D01*
X0086301Y0042714D01*
X0086249Y0042766D01*
X0086194Y0042816D01*
X0086136Y0042863D01*
X0086076Y0042907D01*
X0086014Y0042948D01*
X0085950Y0042986D01*
X0085884Y0043020D01*
X0085817Y0043051D01*
X0085747Y0043079D01*
X0085677Y0043103D01*
X0085606Y0043123D01*
X0085533Y0043140D01*
X0085460Y0043153D01*
X0085386Y0043162D01*
X0085312Y0043168D01*
X0085238Y0043170D01*
X0088471Y0042253D02*
X0088471Y0041336D01*
X0089571Y0041336D01*
X0088471Y0041336D02*
X0088473Y0041262D01*
X0088479Y0041188D01*
X0088488Y0041114D01*
X0088501Y0041041D01*
X0088518Y0040968D01*
X0088538Y0040897D01*
X0088562Y0040827D01*
X0088590Y0040757D01*
X0088621Y0040690D01*
X0088655Y0040624D01*
X0088693Y0040560D01*
X0088734Y0040498D01*
X0088778Y0040438D01*
X0088825Y0040380D01*
X0088875Y0040325D01*
X0088927Y0040273D01*
X0088982Y0040223D01*
X0089040Y0040176D01*
X0089100Y0040132D01*
X0089162Y0040091D01*
X0089226Y0040053D01*
X0089292Y0040019D01*
X0089359Y0039988D01*
X0089429Y0039960D01*
X0089499Y0039936D01*
X0089570Y0039916D01*
X0089643Y0039899D01*
X0089716Y0039886D01*
X0089790Y0039877D01*
X0089864Y0039871D01*
X0089938Y0039869D01*
X0090305Y0042070D02*
X0090305Y0042253D01*
X0090304Y0042070D02*
X0090302Y0042018D01*
X0090297Y0041966D01*
X0090287Y0041914D01*
X0090274Y0041863D01*
X0090258Y0041814D01*
X0090238Y0041766D01*
X0090214Y0041719D01*
X0090188Y0041674D01*
X0090158Y0041631D01*
X0090125Y0041590D01*
X0090089Y0041552D01*
X0090051Y0041516D01*
X0090010Y0041483D01*
X0089967Y0041453D01*
X0089922Y0041427D01*
X0089876Y0041403D01*
X0089827Y0041383D01*
X0089778Y0041367D01*
X0089727Y0041354D01*
X0089675Y0041344D01*
X0089623Y0041339D01*
X0089571Y0041337D01*
X0090305Y0042253D02*
X0090303Y0042312D01*
X0090297Y0042370D01*
X0090288Y0042428D01*
X0090275Y0042486D01*
X0090258Y0042542D01*
X0090238Y0042597D01*
X0090214Y0042651D01*
X0090187Y0042703D01*
X0090157Y0042753D01*
X0090123Y0042801D01*
X0090086Y0042847D01*
X0090047Y0042891D01*
X0090004Y0042932D01*
X0089960Y0042970D01*
X0089913Y0043005D01*
X0089863Y0043037D01*
X0089812Y0043066D01*
X0089759Y0043092D01*
X0089705Y0043114D01*
X0089649Y0043132D01*
X0089592Y0043147D01*
X0089534Y0043158D01*
X0089476Y0043166D01*
X0089417Y0043170D01*
X0089359Y0043170D01*
X0089300Y0043166D01*
X0089242Y0043158D01*
X0089184Y0043147D01*
X0089127Y0043132D01*
X0089071Y0043114D01*
X0089017Y0043092D01*
X0088964Y0043066D01*
X0088913Y0043037D01*
X0088863Y0043005D01*
X0088816Y0042970D01*
X0088772Y0042932D01*
X0088729Y0042891D01*
X0088690Y0042847D01*
X0088653Y0042801D01*
X0088619Y0042753D01*
X0088589Y0042703D01*
X0088562Y0042651D01*
X0088538Y0042597D01*
X0088518Y0042542D01*
X0088501Y0042486D01*
X0088488Y0042428D01*
X0088479Y0042370D01*
X0088473Y0042312D01*
X0088471Y0042253D01*
M02*
