%
M48
M72
T01C0.01378
T02C0.03150
T03C0.03200
T04C0.03600
T05C0.04331
T06C0.04724
T07C0.08583
T08C0.13780
%
T01
X59268Y67142
X69898Y68323
X77772Y77378
X89976Y81709
X64780Y87220
X55331Y79346
X79740Y45488
X88402Y50213
X91551Y40764
T02
X25409Y23244
X25409Y33087
X41157Y33087
X41157Y23244
X56906Y23244
X56906Y33087
T03
X129425Y52614
X139425Y52614
T04
X78205Y110843
X68205Y110843
X58205Y110843
X48205Y110843
T05
X106512Y115724
X106512Y105724
X108559Y28165
X98559Y28165
X88559Y28165
X78559Y28165
X128559Y28165
X138559Y28165
T06
X65173Y28165
X17142Y28165
T07
X52378Y49819
X102378Y49819
X102378Y140370
X52378Y140370
T08
X19898Y156512
X42339Y89976
X138795Y156512
M30
