G75*
%MOIN*%
%OFA0B0*%
%FSLAX25Y25*%
%IPPOS*%
%LPD*%
%AMOC8*
5,1,8,0,0,1.08239X$1,22.5*
%
%ADD10C,0.00900*%
%ADD11C,0.00787*%
%ADD12C,0.00500*%
%ADD13C,0.00600*%
%ADD14C,0.00700*%
%ADD15C,0.01000*%
D10*
X0028231Y0009404D02*
X0028231Y0011493D01*
X0028230Y0011493D02*
X0028232Y0011564D01*
X0028238Y0011634D01*
X0028247Y0011704D01*
X0028261Y0011774D01*
X0028278Y0011842D01*
X0028298Y0011910D01*
X0028323Y0011976D01*
X0028351Y0012041D01*
X0028382Y0012105D01*
X0028417Y0012166D01*
X0028455Y0012226D01*
X0028496Y0012283D01*
X0028541Y0012338D01*
X0028588Y0012391D01*
X0028638Y0012441D01*
X0028691Y0012488D01*
X0028746Y0012533D01*
X0028803Y0012574D01*
X0028863Y0012612D01*
X0028924Y0012647D01*
X0028988Y0012678D01*
X0029053Y0012706D01*
X0029119Y0012731D01*
X0029187Y0012751D01*
X0029255Y0012768D01*
X0029325Y0012782D01*
X0029395Y0012791D01*
X0029465Y0012797D01*
X0029536Y0012799D01*
X0029607Y0012797D01*
X0029677Y0012791D01*
X0029747Y0012782D01*
X0029817Y0012768D01*
X0029885Y0012751D01*
X0029953Y0012731D01*
X0030019Y0012706D01*
X0030084Y0012678D01*
X0030148Y0012647D01*
X0030209Y0012612D01*
X0030269Y0012574D01*
X0030326Y0012533D01*
X0030381Y0012488D01*
X0030434Y0012441D01*
X0030484Y0012391D01*
X0030531Y0012338D01*
X0030576Y0012283D01*
X0030617Y0012226D01*
X0030655Y0012166D01*
X0030690Y0012105D01*
X0030721Y0012041D01*
X0030749Y0011976D01*
X0030774Y0011910D01*
X0030794Y0011842D01*
X0030811Y0011774D01*
X0030825Y0011704D01*
X0030834Y0011634D01*
X0030840Y0011564D01*
X0030842Y0011493D01*
X0030842Y0009404D01*
X0030840Y0009333D01*
X0030834Y0009263D01*
X0030825Y0009193D01*
X0030811Y0009123D01*
X0030794Y0009055D01*
X0030774Y0008987D01*
X0030749Y0008921D01*
X0030721Y0008856D01*
X0030690Y0008792D01*
X0030655Y0008731D01*
X0030617Y0008671D01*
X0030576Y0008614D01*
X0030531Y0008559D01*
X0030484Y0008506D01*
X0030434Y0008456D01*
X0030381Y0008409D01*
X0030326Y0008364D01*
X0030269Y0008323D01*
X0030209Y0008285D01*
X0030148Y0008250D01*
X0030084Y0008219D01*
X0030019Y0008191D01*
X0029953Y0008166D01*
X0029885Y0008146D01*
X0029817Y0008129D01*
X0029747Y0008115D01*
X0029677Y0008106D01*
X0029607Y0008100D01*
X0029536Y0008098D01*
X0029465Y0008100D01*
X0029395Y0008106D01*
X0029325Y0008115D01*
X0029255Y0008129D01*
X0029187Y0008146D01*
X0029119Y0008166D01*
X0029053Y0008191D01*
X0028988Y0008219D01*
X0028924Y0008250D01*
X0028863Y0008285D01*
X0028803Y0008323D01*
X0028746Y0008364D01*
X0028691Y0008409D01*
X0028638Y0008456D01*
X0028588Y0008506D01*
X0028541Y0008559D01*
X0028496Y0008614D01*
X0028455Y0008671D01*
X0028417Y0008731D01*
X0028382Y0008792D01*
X0028351Y0008856D01*
X0028323Y0008921D01*
X0028298Y0008987D01*
X0028278Y0009055D01*
X0028261Y0009123D01*
X0028247Y0009193D01*
X0028238Y0009263D01*
X0028232Y0009333D01*
X0028230Y0009404D01*
X0033454Y0008099D02*
X0033454Y0012799D01*
X0035543Y0012799D01*
X0035543Y0010710D02*
X0033454Y0010710D01*
X0037822Y0010710D02*
X0039911Y0010710D01*
X0039911Y0012799D02*
X0037822Y0012799D01*
X0037822Y0008099D01*
X0047878Y0009404D02*
X0047878Y0011493D01*
X0047877Y0011493D02*
X0047879Y0011564D01*
X0047885Y0011634D01*
X0047894Y0011704D01*
X0047908Y0011774D01*
X0047925Y0011842D01*
X0047945Y0011910D01*
X0047970Y0011976D01*
X0047998Y0012041D01*
X0048029Y0012105D01*
X0048064Y0012166D01*
X0048102Y0012226D01*
X0048143Y0012283D01*
X0048188Y0012338D01*
X0048235Y0012391D01*
X0048285Y0012441D01*
X0048338Y0012488D01*
X0048393Y0012533D01*
X0048450Y0012574D01*
X0048510Y0012612D01*
X0048571Y0012647D01*
X0048635Y0012678D01*
X0048700Y0012706D01*
X0048766Y0012731D01*
X0048834Y0012751D01*
X0048902Y0012768D01*
X0048972Y0012782D01*
X0049042Y0012791D01*
X0049112Y0012797D01*
X0049183Y0012799D01*
X0049254Y0012797D01*
X0049324Y0012791D01*
X0049394Y0012782D01*
X0049464Y0012768D01*
X0049532Y0012751D01*
X0049600Y0012731D01*
X0049666Y0012706D01*
X0049731Y0012678D01*
X0049795Y0012647D01*
X0049856Y0012612D01*
X0049916Y0012574D01*
X0049973Y0012533D01*
X0050028Y0012488D01*
X0050081Y0012441D01*
X0050131Y0012391D01*
X0050178Y0012338D01*
X0050223Y0012283D01*
X0050264Y0012226D01*
X0050302Y0012166D01*
X0050337Y0012105D01*
X0050368Y0012041D01*
X0050396Y0011976D01*
X0050421Y0011910D01*
X0050441Y0011842D01*
X0050458Y0011774D01*
X0050472Y0011704D01*
X0050481Y0011634D01*
X0050487Y0011564D01*
X0050489Y0011493D01*
X0050489Y0009404D01*
X0050487Y0009333D01*
X0050481Y0009263D01*
X0050472Y0009193D01*
X0050458Y0009123D01*
X0050441Y0009055D01*
X0050421Y0008987D01*
X0050396Y0008921D01*
X0050368Y0008856D01*
X0050337Y0008792D01*
X0050302Y0008731D01*
X0050264Y0008671D01*
X0050223Y0008614D01*
X0050178Y0008559D01*
X0050131Y0008506D01*
X0050081Y0008456D01*
X0050028Y0008409D01*
X0049973Y0008364D01*
X0049916Y0008323D01*
X0049856Y0008285D01*
X0049795Y0008250D01*
X0049731Y0008219D01*
X0049666Y0008191D01*
X0049600Y0008166D01*
X0049532Y0008146D01*
X0049464Y0008129D01*
X0049394Y0008115D01*
X0049324Y0008106D01*
X0049254Y0008100D01*
X0049183Y0008098D01*
X0049112Y0008100D01*
X0049042Y0008106D01*
X0048972Y0008115D01*
X0048902Y0008129D01*
X0048834Y0008146D01*
X0048766Y0008166D01*
X0048700Y0008191D01*
X0048635Y0008219D01*
X0048571Y0008250D01*
X0048510Y0008285D01*
X0048450Y0008323D01*
X0048393Y0008364D01*
X0048338Y0008409D01*
X0048285Y0008456D01*
X0048235Y0008506D01*
X0048188Y0008559D01*
X0048143Y0008614D01*
X0048102Y0008671D01*
X0048064Y0008731D01*
X0048029Y0008792D01*
X0047998Y0008856D01*
X0047970Y0008921D01*
X0047945Y0008987D01*
X0047925Y0009055D01*
X0047908Y0009123D01*
X0047894Y0009193D01*
X0047885Y0009263D01*
X0047879Y0009333D01*
X0047877Y0009404D01*
X0053086Y0008099D02*
X0053086Y0012799D01*
X0055697Y0008099D01*
X0055697Y0012799D01*
X0075092Y0012799D02*
X0076658Y0008099D01*
X0078225Y0012799D01*
X0080468Y0009927D02*
X0083601Y0009927D01*
X0087626Y0009143D02*
X0087626Y0011754D01*
X0087628Y0011817D01*
X0087634Y0011880D01*
X0087643Y0011942D01*
X0087656Y0012004D01*
X0087673Y0012065D01*
X0087694Y0012124D01*
X0087718Y0012182D01*
X0087746Y0012239D01*
X0087777Y0012294D01*
X0087811Y0012347D01*
X0087848Y0012398D01*
X0087889Y0012446D01*
X0087932Y0012492D01*
X0087978Y0012535D01*
X0088026Y0012576D01*
X0088077Y0012613D01*
X0088130Y0012647D01*
X0088185Y0012678D01*
X0088242Y0012706D01*
X0088300Y0012730D01*
X0088359Y0012751D01*
X0088420Y0012768D01*
X0088482Y0012781D01*
X0088544Y0012790D01*
X0088607Y0012796D01*
X0088670Y0012798D01*
X0088670Y0012799D02*
X0090237Y0012799D01*
X0090237Y0010710D02*
X0089453Y0010710D01*
X0090237Y0010710D02*
X0090237Y0008099D01*
X0088670Y0008099D01*
X0088607Y0008101D01*
X0088544Y0008107D01*
X0088482Y0008116D01*
X0088420Y0008129D01*
X0088359Y0008146D01*
X0088300Y0008167D01*
X0088242Y0008191D01*
X0088185Y0008219D01*
X0088130Y0008250D01*
X0088077Y0008284D01*
X0088026Y0008321D01*
X0087978Y0008362D01*
X0087932Y0008405D01*
X0087889Y0008451D01*
X0087848Y0008499D01*
X0087811Y0008550D01*
X0087777Y0008603D01*
X0087746Y0008658D01*
X0087718Y0008715D01*
X0087694Y0008773D01*
X0087673Y0008832D01*
X0087656Y0008893D01*
X0087643Y0008955D01*
X0087634Y0009017D01*
X0087628Y0009080D01*
X0087626Y0009143D01*
X0093002Y0008099D02*
X0093002Y0012799D01*
X0095613Y0008099D01*
X0095613Y0012799D01*
X0098378Y0012799D02*
X0099683Y0012799D01*
X0098378Y0012799D02*
X0098378Y0008099D01*
X0099683Y0008099D01*
X0099683Y0008098D02*
X0099754Y0008100D01*
X0099824Y0008106D01*
X0099894Y0008115D01*
X0099964Y0008129D01*
X0100032Y0008146D01*
X0100100Y0008166D01*
X0100166Y0008191D01*
X0100231Y0008219D01*
X0100295Y0008250D01*
X0100356Y0008285D01*
X0100416Y0008323D01*
X0100473Y0008364D01*
X0100528Y0008409D01*
X0100581Y0008456D01*
X0100631Y0008506D01*
X0100678Y0008559D01*
X0100723Y0008614D01*
X0100764Y0008671D01*
X0100802Y0008731D01*
X0100837Y0008792D01*
X0100868Y0008856D01*
X0100896Y0008921D01*
X0100921Y0008987D01*
X0100941Y0009055D01*
X0100958Y0009123D01*
X0100972Y0009193D01*
X0100981Y0009263D01*
X0100987Y0009333D01*
X0100989Y0009404D01*
X0100989Y0011493D01*
X0100987Y0011564D01*
X0100981Y0011634D01*
X0100972Y0011704D01*
X0100958Y0011774D01*
X0100941Y0011842D01*
X0100921Y0011910D01*
X0100896Y0011976D01*
X0100868Y0012041D01*
X0100837Y0012105D01*
X0100802Y0012166D01*
X0100764Y0012226D01*
X0100723Y0012283D01*
X0100678Y0012338D01*
X0100631Y0012391D01*
X0100581Y0012441D01*
X0100528Y0012488D01*
X0100473Y0012533D01*
X0100416Y0012574D01*
X0100356Y0012612D01*
X0100295Y0012647D01*
X0100231Y0012678D01*
X0100166Y0012706D01*
X0100100Y0012731D01*
X0100032Y0012751D01*
X0099964Y0012768D01*
X0099894Y0012782D01*
X0099824Y0012791D01*
X0099754Y0012797D01*
X0099683Y0012799D01*
X0106588Y0012799D02*
X0108155Y0008099D01*
X0109721Y0012799D01*
X0111964Y0009927D02*
X0115097Y0009927D01*
X0113531Y0011493D02*
X0113531Y0008360D01*
X0122214Y0009404D02*
X0122214Y0011493D01*
X0122213Y0011493D02*
X0122215Y0011564D01*
X0122221Y0011634D01*
X0122230Y0011704D01*
X0122244Y0011774D01*
X0122261Y0011842D01*
X0122281Y0011910D01*
X0122306Y0011976D01*
X0122334Y0012041D01*
X0122365Y0012105D01*
X0122400Y0012166D01*
X0122438Y0012226D01*
X0122479Y0012283D01*
X0122524Y0012338D01*
X0122571Y0012391D01*
X0122621Y0012441D01*
X0122674Y0012488D01*
X0122729Y0012533D01*
X0122786Y0012574D01*
X0122846Y0012612D01*
X0122907Y0012647D01*
X0122971Y0012678D01*
X0123036Y0012706D01*
X0123102Y0012731D01*
X0123170Y0012751D01*
X0123238Y0012768D01*
X0123308Y0012782D01*
X0123378Y0012791D01*
X0123448Y0012797D01*
X0123519Y0012799D01*
X0123590Y0012797D01*
X0123660Y0012791D01*
X0123730Y0012782D01*
X0123800Y0012768D01*
X0123868Y0012751D01*
X0123936Y0012731D01*
X0124002Y0012706D01*
X0124067Y0012678D01*
X0124131Y0012647D01*
X0124192Y0012612D01*
X0124252Y0012574D01*
X0124309Y0012533D01*
X0124364Y0012488D01*
X0124417Y0012441D01*
X0124467Y0012391D01*
X0124514Y0012338D01*
X0124559Y0012283D01*
X0124600Y0012226D01*
X0124638Y0012166D01*
X0124673Y0012105D01*
X0124704Y0012041D01*
X0124732Y0011976D01*
X0124757Y0011910D01*
X0124777Y0011842D01*
X0124794Y0011774D01*
X0124808Y0011704D01*
X0124817Y0011634D01*
X0124823Y0011564D01*
X0124825Y0011493D01*
X0124825Y0009404D01*
X0124823Y0009333D01*
X0124817Y0009263D01*
X0124808Y0009193D01*
X0124794Y0009123D01*
X0124777Y0009055D01*
X0124757Y0008987D01*
X0124732Y0008921D01*
X0124704Y0008856D01*
X0124673Y0008792D01*
X0124638Y0008731D01*
X0124600Y0008671D01*
X0124559Y0008614D01*
X0124514Y0008559D01*
X0124467Y0008506D01*
X0124417Y0008456D01*
X0124364Y0008409D01*
X0124309Y0008364D01*
X0124252Y0008323D01*
X0124192Y0008285D01*
X0124131Y0008250D01*
X0124067Y0008219D01*
X0124002Y0008191D01*
X0123936Y0008166D01*
X0123868Y0008146D01*
X0123800Y0008129D01*
X0123730Y0008115D01*
X0123660Y0008106D01*
X0123590Y0008100D01*
X0123519Y0008098D01*
X0123448Y0008100D01*
X0123378Y0008106D01*
X0123308Y0008115D01*
X0123238Y0008129D01*
X0123170Y0008146D01*
X0123102Y0008166D01*
X0123036Y0008191D01*
X0122971Y0008219D01*
X0122907Y0008250D01*
X0122846Y0008285D01*
X0122786Y0008323D01*
X0122729Y0008364D01*
X0122674Y0008409D01*
X0122621Y0008456D01*
X0122571Y0008506D01*
X0122524Y0008559D01*
X0122479Y0008614D01*
X0122438Y0008671D01*
X0122400Y0008731D01*
X0122365Y0008792D01*
X0122334Y0008856D01*
X0122306Y0008921D01*
X0122281Y0008987D01*
X0122261Y0009055D01*
X0122244Y0009123D01*
X0122230Y0009193D01*
X0122221Y0009263D01*
X0122215Y0009333D01*
X0122213Y0009404D01*
X0127422Y0009404D02*
X0127422Y0012799D01*
X0130033Y0012799D02*
X0130033Y0009404D01*
X0130031Y0009333D01*
X0130025Y0009263D01*
X0130016Y0009193D01*
X0130002Y0009123D01*
X0129985Y0009055D01*
X0129965Y0008987D01*
X0129940Y0008921D01*
X0129912Y0008856D01*
X0129881Y0008792D01*
X0129846Y0008731D01*
X0129808Y0008671D01*
X0129767Y0008614D01*
X0129722Y0008559D01*
X0129675Y0008506D01*
X0129625Y0008456D01*
X0129572Y0008409D01*
X0129517Y0008364D01*
X0129460Y0008323D01*
X0129400Y0008285D01*
X0129339Y0008250D01*
X0129275Y0008219D01*
X0129210Y0008191D01*
X0129144Y0008166D01*
X0129076Y0008146D01*
X0129008Y0008129D01*
X0128938Y0008115D01*
X0128868Y0008106D01*
X0128798Y0008100D01*
X0128727Y0008098D01*
X0128656Y0008100D01*
X0128586Y0008106D01*
X0128516Y0008115D01*
X0128446Y0008129D01*
X0128378Y0008146D01*
X0128310Y0008166D01*
X0128244Y0008191D01*
X0128179Y0008219D01*
X0128115Y0008250D01*
X0128054Y0008285D01*
X0127994Y0008323D01*
X0127937Y0008364D01*
X0127882Y0008409D01*
X0127829Y0008456D01*
X0127779Y0008506D01*
X0127732Y0008559D01*
X0127687Y0008614D01*
X0127646Y0008671D01*
X0127608Y0008731D01*
X0127573Y0008792D01*
X0127542Y0008856D01*
X0127514Y0008921D01*
X0127489Y0008987D01*
X0127469Y0009055D01*
X0127452Y0009123D01*
X0127438Y0009193D01*
X0127429Y0009263D01*
X0127423Y0009333D01*
X0127421Y0009404D01*
X0132294Y0012799D02*
X0134905Y0012799D01*
X0133599Y0012799D02*
X0133599Y0008099D01*
X0141033Y0009143D02*
X0141033Y0011754D01*
X0141035Y0011817D01*
X0141041Y0011880D01*
X0141050Y0011942D01*
X0141063Y0012004D01*
X0141080Y0012065D01*
X0141101Y0012124D01*
X0141125Y0012182D01*
X0141153Y0012239D01*
X0141184Y0012294D01*
X0141218Y0012347D01*
X0141255Y0012398D01*
X0141296Y0012446D01*
X0141339Y0012492D01*
X0141385Y0012535D01*
X0141433Y0012576D01*
X0141484Y0012613D01*
X0141537Y0012647D01*
X0141592Y0012678D01*
X0141649Y0012706D01*
X0141707Y0012730D01*
X0141766Y0012751D01*
X0141827Y0012768D01*
X0141889Y0012781D01*
X0141951Y0012790D01*
X0142014Y0012796D01*
X0142077Y0012798D01*
X0142077Y0012799D02*
X0143644Y0012799D01*
X0143644Y0010710D02*
X0142861Y0010710D01*
X0143644Y0010710D02*
X0143644Y0008099D01*
X0142077Y0008099D01*
X0142014Y0008101D01*
X0141951Y0008107D01*
X0141889Y0008116D01*
X0141827Y0008129D01*
X0141766Y0008146D01*
X0141707Y0008167D01*
X0141649Y0008191D01*
X0141592Y0008219D01*
X0141537Y0008250D01*
X0141484Y0008284D01*
X0141433Y0008321D01*
X0141385Y0008362D01*
X0141339Y0008405D01*
X0141296Y0008451D01*
X0141255Y0008499D01*
X0141218Y0008550D01*
X0141184Y0008603D01*
X0141153Y0008658D01*
X0141125Y0008715D01*
X0141101Y0008773D01*
X0141080Y0008832D01*
X0141063Y0008893D01*
X0141050Y0008955D01*
X0141041Y0009017D01*
X0141035Y0009080D01*
X0141033Y0009143D01*
X0134583Y0076192D02*
X0134583Y0076714D01*
X0134581Y0076777D01*
X0134575Y0076840D01*
X0134566Y0076902D01*
X0134553Y0076964D01*
X0134536Y0077025D01*
X0134515Y0077084D01*
X0134491Y0077142D01*
X0134463Y0077199D01*
X0134432Y0077254D01*
X0134398Y0077307D01*
X0134361Y0077358D01*
X0134320Y0077406D01*
X0134277Y0077452D01*
X0134231Y0077495D01*
X0134183Y0077536D01*
X0134132Y0077573D01*
X0134079Y0077607D01*
X0134024Y0077638D01*
X0133967Y0077666D01*
X0133909Y0077690D01*
X0133850Y0077711D01*
X0133789Y0077728D01*
X0133727Y0077741D01*
X0133665Y0077750D01*
X0133602Y0077756D01*
X0133539Y0077758D01*
X0133539Y0077759D02*
X0129883Y0077759D01*
X0129883Y0080605D02*
X0129883Y0081911D01*
X0129885Y0081982D01*
X0129891Y0082052D01*
X0129900Y0082122D01*
X0129914Y0082192D01*
X0129931Y0082260D01*
X0129951Y0082328D01*
X0129976Y0082394D01*
X0130004Y0082459D01*
X0130035Y0082523D01*
X0130070Y0082584D01*
X0130108Y0082644D01*
X0130149Y0082701D01*
X0130194Y0082756D01*
X0130241Y0082809D01*
X0130291Y0082859D01*
X0130344Y0082906D01*
X0130399Y0082951D01*
X0130456Y0082992D01*
X0130516Y0083030D01*
X0130577Y0083065D01*
X0130641Y0083096D01*
X0130706Y0083124D01*
X0130772Y0083149D01*
X0130840Y0083169D01*
X0130908Y0083186D01*
X0130978Y0083200D01*
X0131048Y0083209D01*
X0131118Y0083215D01*
X0131189Y0083217D01*
X0131260Y0083215D01*
X0131330Y0083209D01*
X0131400Y0083200D01*
X0131470Y0083186D01*
X0131538Y0083169D01*
X0131606Y0083149D01*
X0131672Y0083124D01*
X0131737Y0083096D01*
X0131801Y0083065D01*
X0131862Y0083030D01*
X0131922Y0082992D01*
X0131979Y0082951D01*
X0132034Y0082906D01*
X0132087Y0082859D01*
X0132137Y0082809D01*
X0132184Y0082756D01*
X0132229Y0082701D01*
X0132270Y0082644D01*
X0132308Y0082584D01*
X0132343Y0082523D01*
X0132374Y0082459D01*
X0132402Y0082394D01*
X0132427Y0082328D01*
X0132447Y0082260D01*
X0132464Y0082192D01*
X0132478Y0082122D01*
X0132487Y0082052D01*
X0132493Y0081982D01*
X0132495Y0081911D01*
X0132494Y0081911D02*
X0132494Y0080605D01*
X0134583Y0080605D02*
X0129883Y0080605D01*
X0129883Y0085533D02*
X0134583Y0088144D01*
X0129883Y0088144D01*
X0129883Y0085533D02*
X0134583Y0085533D01*
X0138283Y0086046D02*
X0138283Y0087352D01*
X0138285Y0087423D01*
X0138291Y0087493D01*
X0138300Y0087563D01*
X0138314Y0087633D01*
X0138331Y0087701D01*
X0138351Y0087769D01*
X0138376Y0087835D01*
X0138404Y0087900D01*
X0138435Y0087964D01*
X0138470Y0088025D01*
X0138508Y0088085D01*
X0138549Y0088142D01*
X0138594Y0088197D01*
X0138641Y0088250D01*
X0138691Y0088300D01*
X0138744Y0088347D01*
X0138799Y0088392D01*
X0138856Y0088433D01*
X0138916Y0088471D01*
X0138977Y0088506D01*
X0139041Y0088537D01*
X0139106Y0088565D01*
X0139172Y0088590D01*
X0139240Y0088610D01*
X0139308Y0088627D01*
X0139378Y0088641D01*
X0139448Y0088650D01*
X0139518Y0088656D01*
X0139589Y0088658D01*
X0139660Y0088656D01*
X0139730Y0088650D01*
X0139800Y0088641D01*
X0139870Y0088627D01*
X0139938Y0088610D01*
X0140006Y0088590D01*
X0140072Y0088565D01*
X0140137Y0088537D01*
X0140201Y0088506D01*
X0140262Y0088471D01*
X0140322Y0088433D01*
X0140379Y0088392D01*
X0140434Y0088347D01*
X0140487Y0088300D01*
X0140537Y0088250D01*
X0140584Y0088197D01*
X0140629Y0088142D01*
X0140670Y0088085D01*
X0140708Y0088025D01*
X0140743Y0087964D01*
X0140774Y0087900D01*
X0140802Y0087835D01*
X0140827Y0087769D01*
X0140847Y0087701D01*
X0140864Y0087633D01*
X0140878Y0087563D01*
X0140887Y0087493D01*
X0140893Y0087423D01*
X0140895Y0087352D01*
X0140894Y0087352D02*
X0140894Y0086046D01*
X0140894Y0087613D02*
X0142983Y0088657D01*
X0142983Y0091205D02*
X0138283Y0091205D01*
X0142983Y0093816D01*
X0138283Y0093816D01*
X0134583Y0095688D02*
X0129883Y0095688D01*
X0132494Y0097254D01*
X0129883Y0098821D01*
X0134583Y0098821D01*
X0134583Y0101268D02*
X0134583Y0102312D01*
X0134583Y0101790D02*
X0129883Y0101790D01*
X0129883Y0101268D02*
X0129883Y0102312D01*
X0129883Y0104181D02*
X0129883Y0106792D01*
X0129883Y0105486D02*
X0134583Y0105486D01*
X0134583Y0108519D02*
X0134322Y0108519D01*
X0134322Y0108780D01*
X0134583Y0108780D01*
X0135628Y0108389D01*
X0134583Y0108519D02*
X0134583Y0108780D01*
X0138283Y0109700D02*
X0142983Y0109700D01*
X0142983Y0111789D01*
X0139850Y0116330D02*
X0142983Y0117375D01*
X0139850Y0118419D01*
X0139328Y0120605D02*
X0138283Y0121911D01*
X0142983Y0121911D01*
X0142983Y0123216D02*
X0142983Y0120605D01*
X0142983Y0125308D02*
X0142983Y0125569D01*
X0142722Y0125569D01*
X0142722Y0125308D01*
X0142983Y0125308D01*
X0142983Y0127661D02*
X0142983Y0130272D01*
X0142983Y0127661D02*
X0140372Y0129881D01*
X0138283Y0129097D02*
X0138285Y0129021D01*
X0138291Y0128945D01*
X0138300Y0128870D01*
X0138313Y0128795D01*
X0138331Y0128721D01*
X0138351Y0128648D01*
X0138376Y0128576D01*
X0138404Y0128506D01*
X0138435Y0128436D01*
X0138470Y0128369D01*
X0138508Y0128303D01*
X0138550Y0128240D01*
X0138595Y0128178D01*
X0138642Y0128119D01*
X0138693Y0128063D01*
X0138746Y0128009D01*
X0138802Y0127957D01*
X0138861Y0127909D01*
X0138922Y0127864D01*
X0138985Y0127821D01*
X0139050Y0127782D01*
X0139117Y0127747D01*
X0139186Y0127714D01*
X0139256Y0127686D01*
X0139328Y0127660D01*
X0140372Y0129880D02*
X0140324Y0129928D01*
X0140273Y0129974D01*
X0140220Y0130016D01*
X0140164Y0130056D01*
X0140107Y0130093D01*
X0140047Y0130126D01*
X0139986Y0130156D01*
X0139924Y0130183D01*
X0139860Y0130206D01*
X0139795Y0130226D01*
X0139728Y0130243D01*
X0139662Y0130255D01*
X0139594Y0130265D01*
X0139526Y0130270D01*
X0139458Y0130272D01*
X0139392Y0130270D01*
X0139326Y0130265D01*
X0139261Y0130255D01*
X0139197Y0130243D01*
X0139133Y0130226D01*
X0139070Y0130206D01*
X0139008Y0130183D01*
X0138948Y0130156D01*
X0138890Y0130125D01*
X0138833Y0130092D01*
X0138778Y0130055D01*
X0138725Y0130016D01*
X0138675Y0129973D01*
X0138627Y0129928D01*
X0138582Y0129880D01*
X0138539Y0129830D01*
X0138500Y0129777D01*
X0138463Y0129722D01*
X0138430Y0129665D01*
X0138399Y0129607D01*
X0138372Y0129547D01*
X0138349Y0129485D01*
X0138329Y0129422D01*
X0138312Y0129358D01*
X0138300Y0129294D01*
X0138290Y0129229D01*
X0138285Y0129163D01*
X0138283Y0129097D01*
X0134583Y0126280D02*
X0134583Y0123669D01*
X0134583Y0124974D02*
X0129883Y0124974D01*
X0130928Y0123669D01*
X0132233Y0118629D02*
X0132350Y0118631D01*
X0132467Y0118636D01*
X0132584Y0118645D01*
X0132700Y0118657D01*
X0132816Y0118673D01*
X0132932Y0118693D01*
X0133047Y0118715D01*
X0133161Y0118742D01*
X0133274Y0118772D01*
X0133386Y0118805D01*
X0133498Y0118841D01*
X0133608Y0118881D01*
X0133717Y0118924D01*
X0133824Y0118971D01*
X0133930Y0119021D01*
X0133539Y0118890D02*
X0130928Y0120979D01*
X0130536Y0120848D02*
X0130480Y0120827D01*
X0130425Y0120802D01*
X0130372Y0120774D01*
X0130321Y0120743D01*
X0130272Y0120709D01*
X0130225Y0120671D01*
X0130180Y0120631D01*
X0130138Y0120588D01*
X0130099Y0120543D01*
X0130063Y0120495D01*
X0130030Y0120446D01*
X0130000Y0120394D01*
X0129973Y0120340D01*
X0129949Y0120285D01*
X0129929Y0120229D01*
X0129913Y0120171D01*
X0129900Y0120113D01*
X0129890Y0120054D01*
X0129885Y0119994D01*
X0129883Y0119934D01*
X0129885Y0119874D01*
X0129890Y0119814D01*
X0129900Y0119755D01*
X0129913Y0119697D01*
X0129929Y0119639D01*
X0129949Y0119583D01*
X0129973Y0119528D01*
X0130000Y0119474D01*
X0130030Y0119422D01*
X0130063Y0119373D01*
X0130099Y0119325D01*
X0130138Y0119280D01*
X0130180Y0119237D01*
X0130225Y0119197D01*
X0130272Y0119159D01*
X0130321Y0119125D01*
X0130372Y0119094D01*
X0130425Y0119066D01*
X0130480Y0119041D01*
X0130536Y0119020D01*
X0130536Y0120848D02*
X0130642Y0120898D01*
X0130749Y0120945D01*
X0130858Y0120988D01*
X0130968Y0121028D01*
X0131080Y0121064D01*
X0131192Y0121097D01*
X0131305Y0121127D01*
X0131419Y0121154D01*
X0131534Y0121176D01*
X0131650Y0121196D01*
X0131766Y0121212D01*
X0131882Y0121224D01*
X0131999Y0121233D01*
X0132116Y0121238D01*
X0132233Y0121240D01*
X0132233Y0118629D02*
X0132116Y0118631D01*
X0131999Y0118636D01*
X0131882Y0118645D01*
X0131766Y0118657D01*
X0131650Y0118673D01*
X0131534Y0118693D01*
X0131419Y0118715D01*
X0131305Y0118742D01*
X0131192Y0118772D01*
X0131080Y0118805D01*
X0130968Y0118841D01*
X0130858Y0118881D01*
X0130749Y0118924D01*
X0130642Y0118971D01*
X0130536Y0119021D01*
X0132233Y0121240D02*
X0132350Y0121238D01*
X0132467Y0121233D01*
X0132584Y0121224D01*
X0132700Y0121212D01*
X0132816Y0121196D01*
X0132932Y0121176D01*
X0133047Y0121154D01*
X0133161Y0121127D01*
X0133274Y0121097D01*
X0133386Y0121064D01*
X0133498Y0121028D01*
X0133608Y0120988D01*
X0133717Y0120945D01*
X0133824Y0120898D01*
X0133930Y0120848D01*
X0133986Y0120827D01*
X0134041Y0120802D01*
X0134094Y0120774D01*
X0134145Y0120743D01*
X0134194Y0120709D01*
X0134241Y0120671D01*
X0134286Y0120631D01*
X0134328Y0120588D01*
X0134367Y0120543D01*
X0134403Y0120495D01*
X0134436Y0120446D01*
X0134467Y0120394D01*
X0134493Y0120340D01*
X0134517Y0120285D01*
X0134537Y0120229D01*
X0134553Y0120171D01*
X0134566Y0120113D01*
X0134576Y0120054D01*
X0134581Y0119994D01*
X0134583Y0119934D01*
X0134581Y0119874D01*
X0134576Y0119814D01*
X0134566Y0119755D01*
X0134553Y0119697D01*
X0134537Y0119639D01*
X0134517Y0119583D01*
X0134493Y0119528D01*
X0134467Y0119474D01*
X0134436Y0119422D01*
X0134403Y0119373D01*
X0134367Y0119325D01*
X0134328Y0119280D01*
X0134286Y0119237D01*
X0134241Y0119197D01*
X0134194Y0119159D01*
X0134145Y0119125D01*
X0134094Y0119094D01*
X0134041Y0119066D01*
X0133986Y0119041D01*
X0133930Y0119020D01*
X0134583Y0116200D02*
X0134583Y0113589D01*
X0131972Y0115808D01*
X0129883Y0115025D02*
X0129885Y0114949D01*
X0129891Y0114873D01*
X0129900Y0114798D01*
X0129913Y0114723D01*
X0129931Y0114649D01*
X0129951Y0114576D01*
X0129976Y0114504D01*
X0130004Y0114434D01*
X0130035Y0114364D01*
X0130070Y0114297D01*
X0130108Y0114231D01*
X0130150Y0114168D01*
X0130195Y0114106D01*
X0130242Y0114047D01*
X0130293Y0113991D01*
X0130346Y0113937D01*
X0130402Y0113885D01*
X0130461Y0113837D01*
X0130522Y0113792D01*
X0130585Y0113749D01*
X0130650Y0113710D01*
X0130717Y0113675D01*
X0130786Y0113642D01*
X0130856Y0113614D01*
X0130928Y0113588D01*
X0131972Y0115808D02*
X0131924Y0115856D01*
X0131873Y0115902D01*
X0131820Y0115944D01*
X0131764Y0115984D01*
X0131707Y0116021D01*
X0131647Y0116054D01*
X0131586Y0116084D01*
X0131524Y0116111D01*
X0131460Y0116134D01*
X0131395Y0116154D01*
X0131328Y0116171D01*
X0131262Y0116183D01*
X0131194Y0116193D01*
X0131126Y0116198D01*
X0131058Y0116200D01*
X0130992Y0116198D01*
X0130926Y0116193D01*
X0130861Y0116183D01*
X0130797Y0116171D01*
X0130733Y0116154D01*
X0130670Y0116134D01*
X0130608Y0116111D01*
X0130548Y0116084D01*
X0130490Y0116053D01*
X0130433Y0116020D01*
X0130378Y0115983D01*
X0130325Y0115944D01*
X0130275Y0115901D01*
X0130227Y0115856D01*
X0130182Y0115808D01*
X0130139Y0115758D01*
X0130100Y0115705D01*
X0130063Y0115650D01*
X0130030Y0115593D01*
X0129999Y0115535D01*
X0129972Y0115475D01*
X0129949Y0115413D01*
X0129929Y0115350D01*
X0129912Y0115286D01*
X0129900Y0115222D01*
X0129890Y0115157D01*
X0129885Y0115091D01*
X0129883Y0115025D01*
X0121995Y0114394D02*
X0121995Y0117527D01*
X0121606Y0125422D02*
X0120300Y0125422D01*
X0120300Y0130122D01*
X0121606Y0130122D01*
X0121606Y0130121D02*
X0121669Y0130119D01*
X0121732Y0130113D01*
X0121794Y0130104D01*
X0121856Y0130091D01*
X0121917Y0130074D01*
X0121976Y0130053D01*
X0122034Y0130029D01*
X0122091Y0130001D01*
X0122146Y0129970D01*
X0122199Y0129936D01*
X0122250Y0129899D01*
X0122298Y0129858D01*
X0122344Y0129815D01*
X0122387Y0129769D01*
X0122428Y0129721D01*
X0122465Y0129670D01*
X0122499Y0129617D01*
X0122530Y0129562D01*
X0122558Y0129505D01*
X0122582Y0129447D01*
X0122603Y0129388D01*
X0122620Y0129327D01*
X0122633Y0129265D01*
X0122642Y0129203D01*
X0122648Y0129140D01*
X0122650Y0129077D01*
X0122648Y0129014D01*
X0122642Y0128951D01*
X0122633Y0128889D01*
X0122620Y0128827D01*
X0122603Y0128766D01*
X0122582Y0128707D01*
X0122558Y0128649D01*
X0122530Y0128592D01*
X0122499Y0128537D01*
X0122465Y0128484D01*
X0122428Y0128433D01*
X0122387Y0128385D01*
X0122344Y0128339D01*
X0122298Y0128296D01*
X0122250Y0128255D01*
X0122199Y0128218D01*
X0122146Y0128184D01*
X0122091Y0128153D01*
X0122034Y0128125D01*
X0121976Y0128101D01*
X0121917Y0128080D01*
X0121856Y0128063D01*
X0121794Y0128050D01*
X0121732Y0128041D01*
X0121669Y0128035D01*
X0121606Y0128033D01*
X0120300Y0128033D01*
X0121606Y0128033D02*
X0121677Y0128031D01*
X0121747Y0128025D01*
X0121817Y0128016D01*
X0121887Y0128002D01*
X0121955Y0127985D01*
X0122023Y0127965D01*
X0122089Y0127940D01*
X0122154Y0127912D01*
X0122218Y0127881D01*
X0122279Y0127846D01*
X0122339Y0127808D01*
X0122396Y0127767D01*
X0122451Y0127722D01*
X0122504Y0127675D01*
X0122554Y0127625D01*
X0122601Y0127572D01*
X0122646Y0127517D01*
X0122687Y0127460D01*
X0122725Y0127400D01*
X0122760Y0127339D01*
X0122791Y0127275D01*
X0122819Y0127210D01*
X0122844Y0127144D01*
X0122864Y0127076D01*
X0122881Y0127008D01*
X0122895Y0126938D01*
X0122904Y0126868D01*
X0122910Y0126798D01*
X0122912Y0126727D01*
X0122910Y0126656D01*
X0122904Y0126586D01*
X0122895Y0126516D01*
X0122881Y0126446D01*
X0122864Y0126378D01*
X0122844Y0126310D01*
X0122819Y0126244D01*
X0122791Y0126179D01*
X0122760Y0126115D01*
X0122725Y0126054D01*
X0122687Y0125994D01*
X0122646Y0125937D01*
X0122601Y0125882D01*
X0122554Y0125829D01*
X0122504Y0125779D01*
X0122451Y0125732D01*
X0122396Y0125687D01*
X0122339Y0125646D01*
X0122279Y0125608D01*
X0122218Y0125573D01*
X0122154Y0125542D01*
X0122089Y0125514D01*
X0122023Y0125489D01*
X0121955Y0125469D01*
X0121887Y0125452D01*
X0121817Y0125438D01*
X0121747Y0125429D01*
X0121677Y0125423D01*
X0121606Y0125421D01*
X0117516Y0127249D02*
X0114383Y0127249D01*
X0112215Y0130122D02*
X0109604Y0130122D01*
X0110910Y0130122D02*
X0110910Y0125422D01*
X0107343Y0126727D02*
X0107343Y0130122D01*
X0104732Y0130122D02*
X0104732Y0126727D01*
X0104734Y0126656D01*
X0104740Y0126586D01*
X0104749Y0126516D01*
X0104763Y0126446D01*
X0104780Y0126378D01*
X0104800Y0126310D01*
X0104825Y0126244D01*
X0104853Y0126179D01*
X0104884Y0126115D01*
X0104919Y0126054D01*
X0104957Y0125994D01*
X0104998Y0125937D01*
X0105043Y0125882D01*
X0105090Y0125829D01*
X0105140Y0125779D01*
X0105193Y0125732D01*
X0105248Y0125687D01*
X0105305Y0125646D01*
X0105365Y0125608D01*
X0105426Y0125573D01*
X0105490Y0125542D01*
X0105555Y0125514D01*
X0105621Y0125489D01*
X0105689Y0125469D01*
X0105757Y0125452D01*
X0105827Y0125438D01*
X0105897Y0125429D01*
X0105967Y0125423D01*
X0106038Y0125421D01*
X0106109Y0125423D01*
X0106179Y0125429D01*
X0106249Y0125438D01*
X0106319Y0125452D01*
X0106387Y0125469D01*
X0106455Y0125489D01*
X0106521Y0125514D01*
X0106586Y0125542D01*
X0106650Y0125573D01*
X0106711Y0125608D01*
X0106771Y0125646D01*
X0106828Y0125687D01*
X0106883Y0125732D01*
X0106936Y0125779D01*
X0106986Y0125829D01*
X0107033Y0125882D01*
X0107078Y0125937D01*
X0107119Y0125994D01*
X0107157Y0126054D01*
X0107192Y0126115D01*
X0107223Y0126179D01*
X0107251Y0126244D01*
X0107276Y0126310D01*
X0107296Y0126378D01*
X0107313Y0126446D01*
X0107327Y0126516D01*
X0107336Y0126586D01*
X0107342Y0126656D01*
X0107344Y0126727D01*
X0101110Y0127511D02*
X0099804Y0127511D01*
X0101110Y0127510D02*
X0101181Y0127512D01*
X0101251Y0127518D01*
X0101321Y0127527D01*
X0101391Y0127541D01*
X0101459Y0127558D01*
X0101527Y0127578D01*
X0101593Y0127603D01*
X0101658Y0127631D01*
X0101722Y0127662D01*
X0101783Y0127697D01*
X0101843Y0127735D01*
X0101900Y0127776D01*
X0101955Y0127821D01*
X0102008Y0127868D01*
X0102058Y0127918D01*
X0102105Y0127971D01*
X0102150Y0128026D01*
X0102191Y0128083D01*
X0102229Y0128143D01*
X0102264Y0128204D01*
X0102295Y0128268D01*
X0102323Y0128333D01*
X0102348Y0128399D01*
X0102368Y0128467D01*
X0102385Y0128535D01*
X0102399Y0128605D01*
X0102408Y0128675D01*
X0102414Y0128745D01*
X0102416Y0128816D01*
X0102414Y0128887D01*
X0102408Y0128957D01*
X0102399Y0129027D01*
X0102385Y0129097D01*
X0102368Y0129165D01*
X0102348Y0129233D01*
X0102323Y0129299D01*
X0102295Y0129364D01*
X0102264Y0129428D01*
X0102229Y0129489D01*
X0102191Y0129549D01*
X0102150Y0129606D01*
X0102105Y0129661D01*
X0102058Y0129714D01*
X0102008Y0129764D01*
X0101955Y0129811D01*
X0101900Y0129856D01*
X0101843Y0129897D01*
X0101783Y0129935D01*
X0101722Y0129970D01*
X0101658Y0130001D01*
X0101593Y0130029D01*
X0101527Y0130054D01*
X0101459Y0130074D01*
X0101391Y0130091D01*
X0101321Y0130105D01*
X0101251Y0130114D01*
X0101181Y0130120D01*
X0101110Y0130122D01*
X0099804Y0130122D01*
X0099804Y0125422D01*
X0096927Y0125422D02*
X0096927Y0130122D01*
X0094316Y0130122D02*
X0096927Y0125422D01*
X0094316Y0125422D02*
X0094316Y0130122D01*
X0091944Y0130122D02*
X0090899Y0130122D01*
X0091422Y0130122D02*
X0091422Y0125422D01*
X0091944Y0125422D02*
X0090899Y0125422D01*
X0079201Y0125422D02*
X0077634Y0130122D01*
X0076068Y0125422D01*
X0076459Y0126597D02*
X0078809Y0126597D01*
X0073825Y0127249D02*
X0070692Y0127249D01*
X0067218Y0125422D02*
X0067218Y0130122D01*
X0065913Y0130122D02*
X0068524Y0130122D01*
X0063652Y0130122D02*
X0063652Y0126727D01*
X0063650Y0126656D01*
X0063644Y0126586D01*
X0063635Y0126516D01*
X0063621Y0126446D01*
X0063604Y0126378D01*
X0063584Y0126310D01*
X0063559Y0126244D01*
X0063531Y0126179D01*
X0063500Y0126115D01*
X0063465Y0126054D01*
X0063427Y0125994D01*
X0063386Y0125937D01*
X0063341Y0125882D01*
X0063294Y0125829D01*
X0063244Y0125779D01*
X0063191Y0125732D01*
X0063136Y0125687D01*
X0063079Y0125646D01*
X0063019Y0125608D01*
X0062958Y0125573D01*
X0062894Y0125542D01*
X0062829Y0125514D01*
X0062763Y0125489D01*
X0062695Y0125469D01*
X0062627Y0125452D01*
X0062557Y0125438D01*
X0062487Y0125429D01*
X0062417Y0125423D01*
X0062346Y0125421D01*
X0062275Y0125423D01*
X0062205Y0125429D01*
X0062135Y0125438D01*
X0062065Y0125452D01*
X0061997Y0125469D01*
X0061929Y0125489D01*
X0061863Y0125514D01*
X0061798Y0125542D01*
X0061734Y0125573D01*
X0061673Y0125608D01*
X0061613Y0125646D01*
X0061556Y0125687D01*
X0061501Y0125732D01*
X0061448Y0125779D01*
X0061398Y0125829D01*
X0061351Y0125882D01*
X0061306Y0125937D01*
X0061265Y0125994D01*
X0061227Y0126054D01*
X0061192Y0126115D01*
X0061161Y0126179D01*
X0061133Y0126244D01*
X0061108Y0126310D01*
X0061088Y0126378D01*
X0061071Y0126446D01*
X0061057Y0126516D01*
X0061048Y0126586D01*
X0061042Y0126656D01*
X0061040Y0126727D01*
X0061041Y0126727D02*
X0061041Y0130122D01*
X0057419Y0130122D02*
X0056113Y0130122D01*
X0056113Y0125422D01*
X0053236Y0125422D02*
X0053236Y0130122D01*
X0056113Y0127511D02*
X0057419Y0127511D01*
X0057419Y0127510D02*
X0057490Y0127512D01*
X0057560Y0127518D01*
X0057630Y0127527D01*
X0057700Y0127541D01*
X0057768Y0127558D01*
X0057836Y0127578D01*
X0057902Y0127603D01*
X0057967Y0127631D01*
X0058031Y0127662D01*
X0058092Y0127697D01*
X0058152Y0127735D01*
X0058209Y0127776D01*
X0058264Y0127821D01*
X0058317Y0127868D01*
X0058367Y0127918D01*
X0058414Y0127971D01*
X0058459Y0128026D01*
X0058500Y0128083D01*
X0058538Y0128143D01*
X0058573Y0128204D01*
X0058604Y0128268D01*
X0058632Y0128333D01*
X0058657Y0128399D01*
X0058677Y0128467D01*
X0058694Y0128535D01*
X0058708Y0128605D01*
X0058717Y0128675D01*
X0058723Y0128745D01*
X0058725Y0128816D01*
X0058723Y0128887D01*
X0058717Y0128957D01*
X0058708Y0129027D01*
X0058694Y0129097D01*
X0058677Y0129165D01*
X0058657Y0129233D01*
X0058632Y0129299D01*
X0058604Y0129364D01*
X0058573Y0129428D01*
X0058538Y0129489D01*
X0058500Y0129549D01*
X0058459Y0129606D01*
X0058414Y0129661D01*
X0058367Y0129714D01*
X0058317Y0129764D01*
X0058264Y0129811D01*
X0058209Y0129856D01*
X0058152Y0129897D01*
X0058092Y0129935D01*
X0058031Y0129970D01*
X0057967Y0130001D01*
X0057902Y0130029D01*
X0057836Y0130054D01*
X0057768Y0130074D01*
X0057700Y0130091D01*
X0057630Y0130105D01*
X0057560Y0130114D01*
X0057490Y0130120D01*
X0057419Y0130122D01*
X0053236Y0125422D02*
X0050625Y0130122D01*
X0050625Y0125422D01*
X0048253Y0125422D02*
X0047208Y0125422D01*
X0047731Y0125422D02*
X0047731Y0130122D01*
X0048253Y0130122D02*
X0047208Y0130122D01*
X0051796Y0120950D02*
X0054929Y0120950D01*
X0071874Y0120950D02*
X0075008Y0120950D01*
X0073441Y0119384D02*
X0073441Y0122517D01*
X0026185Y0122754D02*
X0021485Y0122754D01*
X0021485Y0122232D02*
X0021485Y0123277D01*
X0021485Y0125664D02*
X0021485Y0127753D01*
X0021485Y0129624D02*
X0021485Y0130668D01*
X0021485Y0130146D02*
X0026185Y0130146D01*
X0026185Y0129624D02*
X0026185Y0130668D01*
X0023574Y0127753D02*
X0023574Y0125664D01*
X0021485Y0125664D02*
X0026185Y0125664D01*
X0026185Y0123277D02*
X0026185Y0122232D01*
X0026185Y0120361D02*
X0026185Y0118272D01*
X0021485Y0118272D01*
X0021485Y0114635D02*
X0021485Y0113329D01*
X0026185Y0113329D01*
X0024096Y0113329D02*
X0024096Y0114635D01*
X0024094Y0114706D01*
X0024088Y0114776D01*
X0024079Y0114846D01*
X0024065Y0114916D01*
X0024048Y0114984D01*
X0024028Y0115052D01*
X0024003Y0115118D01*
X0023975Y0115183D01*
X0023944Y0115247D01*
X0023909Y0115308D01*
X0023871Y0115368D01*
X0023830Y0115425D01*
X0023785Y0115480D01*
X0023738Y0115533D01*
X0023688Y0115583D01*
X0023635Y0115630D01*
X0023580Y0115675D01*
X0023523Y0115716D01*
X0023463Y0115754D01*
X0023402Y0115789D01*
X0023338Y0115820D01*
X0023273Y0115848D01*
X0023207Y0115873D01*
X0023139Y0115893D01*
X0023071Y0115910D01*
X0023001Y0115924D01*
X0022931Y0115933D01*
X0022861Y0115939D01*
X0022790Y0115941D01*
X0022719Y0115939D01*
X0022649Y0115933D01*
X0022579Y0115924D01*
X0022509Y0115910D01*
X0022441Y0115893D01*
X0022373Y0115873D01*
X0022307Y0115848D01*
X0022242Y0115820D01*
X0022178Y0115789D01*
X0022117Y0115754D01*
X0022057Y0115716D01*
X0022000Y0115675D01*
X0021945Y0115630D01*
X0021892Y0115583D01*
X0021842Y0115533D01*
X0021795Y0115480D01*
X0021750Y0115425D01*
X0021709Y0115368D01*
X0021671Y0115308D01*
X0021636Y0115247D01*
X0021605Y0115183D01*
X0021577Y0115118D01*
X0021552Y0115052D01*
X0021532Y0114984D01*
X0021515Y0114916D01*
X0021501Y0114846D01*
X0021492Y0114776D01*
X0021486Y0114706D01*
X0021484Y0114635D01*
X0021485Y0110377D02*
X0026185Y0110377D01*
X0024096Y0108810D02*
X0021485Y0110377D01*
X0024096Y0108810D02*
X0021485Y0107244D01*
X0026185Y0107244D01*
X0026185Y0104833D02*
X0021485Y0103266D01*
X0026185Y0101700D01*
X0025010Y0102091D02*
X0025010Y0104441D01*
X0026185Y0096601D02*
X0021485Y0096601D01*
X0024096Y0095034D01*
X0021485Y0093468D01*
X0026185Y0093468D01*
X0026185Y0091129D02*
X0026185Y0089040D01*
X0021485Y0089040D01*
X0021485Y0086653D02*
X0021485Y0085608D01*
X0021485Y0086130D02*
X0026185Y0086130D01*
X0026185Y0085608D02*
X0026185Y0086653D01*
X0023574Y0083737D02*
X0023574Y0081648D01*
X0021485Y0081648D02*
X0021485Y0083737D01*
X0021485Y0081648D02*
X0026185Y0081648D01*
X0024879Y0079036D02*
X0022790Y0079036D01*
X0022719Y0079034D01*
X0022649Y0079028D01*
X0022579Y0079019D01*
X0022509Y0079005D01*
X0022441Y0078988D01*
X0022373Y0078968D01*
X0022307Y0078943D01*
X0022242Y0078915D01*
X0022178Y0078884D01*
X0022117Y0078849D01*
X0022057Y0078811D01*
X0022000Y0078770D01*
X0021945Y0078725D01*
X0021892Y0078678D01*
X0021842Y0078628D01*
X0021795Y0078575D01*
X0021750Y0078520D01*
X0021709Y0078463D01*
X0021671Y0078403D01*
X0021636Y0078342D01*
X0021605Y0078278D01*
X0021577Y0078213D01*
X0021552Y0078147D01*
X0021532Y0078079D01*
X0021515Y0078011D01*
X0021501Y0077941D01*
X0021492Y0077871D01*
X0021486Y0077801D01*
X0021484Y0077730D01*
X0021486Y0077659D01*
X0021492Y0077589D01*
X0021501Y0077519D01*
X0021515Y0077449D01*
X0021532Y0077381D01*
X0021552Y0077313D01*
X0021577Y0077247D01*
X0021605Y0077182D01*
X0021636Y0077118D01*
X0021671Y0077057D01*
X0021709Y0076997D01*
X0021750Y0076940D01*
X0021795Y0076885D01*
X0021842Y0076832D01*
X0021892Y0076782D01*
X0021945Y0076735D01*
X0022000Y0076690D01*
X0022057Y0076649D01*
X0022117Y0076611D01*
X0022178Y0076576D01*
X0022242Y0076545D01*
X0022307Y0076517D01*
X0022373Y0076492D01*
X0022441Y0076472D01*
X0022509Y0076455D01*
X0022579Y0076441D01*
X0022649Y0076432D01*
X0022719Y0076426D01*
X0022790Y0076424D01*
X0022790Y0076425D02*
X0024879Y0076425D01*
X0024879Y0076424D02*
X0024950Y0076426D01*
X0025020Y0076432D01*
X0025090Y0076441D01*
X0025160Y0076455D01*
X0025228Y0076472D01*
X0025296Y0076492D01*
X0025362Y0076517D01*
X0025427Y0076545D01*
X0025491Y0076576D01*
X0025552Y0076611D01*
X0025612Y0076649D01*
X0025669Y0076690D01*
X0025724Y0076735D01*
X0025777Y0076782D01*
X0025827Y0076832D01*
X0025874Y0076885D01*
X0025919Y0076940D01*
X0025960Y0076997D01*
X0025998Y0077057D01*
X0026033Y0077118D01*
X0026064Y0077182D01*
X0026092Y0077247D01*
X0026117Y0077313D01*
X0026137Y0077381D01*
X0026154Y0077449D01*
X0026168Y0077519D01*
X0026177Y0077589D01*
X0026183Y0077659D01*
X0026185Y0077730D01*
X0026183Y0077801D01*
X0026177Y0077871D01*
X0026168Y0077941D01*
X0026154Y0078011D01*
X0026137Y0078079D01*
X0026117Y0078147D01*
X0026092Y0078213D01*
X0026064Y0078278D01*
X0026033Y0078342D01*
X0025998Y0078403D01*
X0025960Y0078463D01*
X0025919Y0078520D01*
X0025874Y0078575D01*
X0025827Y0078628D01*
X0025777Y0078678D01*
X0025724Y0078725D01*
X0025669Y0078770D01*
X0025612Y0078811D01*
X0025552Y0078849D01*
X0025491Y0078884D01*
X0025427Y0078915D01*
X0025362Y0078943D01*
X0025296Y0078968D01*
X0025228Y0078988D01*
X0025160Y0079005D01*
X0025090Y0079019D01*
X0025020Y0079028D01*
X0024950Y0079034D01*
X0024879Y0079036D01*
X0026185Y0074164D02*
X0026185Y0071553D01*
X0021485Y0074164D01*
X0021485Y0071553D01*
X0021485Y0069625D02*
X0021485Y0067536D01*
X0026185Y0067536D01*
X0026185Y0069625D01*
X0023574Y0069102D02*
X0023574Y0067536D01*
X0021485Y0065149D02*
X0021485Y0064104D01*
X0021485Y0064626D02*
X0026185Y0064626D01*
X0026185Y0064104D02*
X0026185Y0065149D01*
X0024096Y0060875D02*
X0024096Y0059569D01*
X0024096Y0060875D02*
X0024094Y0060946D01*
X0024088Y0061016D01*
X0024079Y0061086D01*
X0024065Y0061156D01*
X0024048Y0061224D01*
X0024028Y0061292D01*
X0024003Y0061358D01*
X0023975Y0061423D01*
X0023944Y0061487D01*
X0023909Y0061548D01*
X0023871Y0061608D01*
X0023830Y0061665D01*
X0023785Y0061720D01*
X0023738Y0061773D01*
X0023688Y0061823D01*
X0023635Y0061870D01*
X0023580Y0061915D01*
X0023523Y0061956D01*
X0023463Y0061994D01*
X0023402Y0062029D01*
X0023338Y0062060D01*
X0023273Y0062088D01*
X0023207Y0062113D01*
X0023139Y0062133D01*
X0023071Y0062150D01*
X0023001Y0062164D01*
X0022931Y0062173D01*
X0022861Y0062179D01*
X0022790Y0062181D01*
X0022719Y0062179D01*
X0022649Y0062173D01*
X0022579Y0062164D01*
X0022509Y0062150D01*
X0022441Y0062133D01*
X0022373Y0062113D01*
X0022307Y0062088D01*
X0022242Y0062060D01*
X0022178Y0062029D01*
X0022117Y0061994D01*
X0022057Y0061956D01*
X0022000Y0061915D01*
X0021945Y0061870D01*
X0021892Y0061823D01*
X0021842Y0061773D01*
X0021795Y0061720D01*
X0021750Y0061665D01*
X0021709Y0061608D01*
X0021671Y0061548D01*
X0021636Y0061487D01*
X0021605Y0061423D01*
X0021577Y0061358D01*
X0021552Y0061292D01*
X0021532Y0061224D01*
X0021515Y0061156D01*
X0021501Y0061086D01*
X0021492Y0061016D01*
X0021486Y0060946D01*
X0021484Y0060875D01*
X0021485Y0060875D02*
X0021485Y0059569D01*
X0026185Y0059569D01*
X0026185Y0133056D02*
X0021485Y0133056D01*
X0021485Y0135145D01*
X0023574Y0134622D02*
X0023574Y0133056D01*
X0026185Y0133056D02*
X0026185Y0135145D01*
X0026185Y0137458D02*
X0021485Y0137458D01*
X0021485Y0138763D01*
X0021484Y0138763D02*
X0021486Y0138834D01*
X0021492Y0138904D01*
X0021501Y0138974D01*
X0021515Y0139044D01*
X0021532Y0139112D01*
X0021552Y0139180D01*
X0021577Y0139246D01*
X0021605Y0139311D01*
X0021636Y0139375D01*
X0021671Y0139436D01*
X0021709Y0139496D01*
X0021750Y0139553D01*
X0021795Y0139608D01*
X0021842Y0139661D01*
X0021892Y0139711D01*
X0021945Y0139758D01*
X0022000Y0139803D01*
X0022057Y0139844D01*
X0022117Y0139882D01*
X0022178Y0139917D01*
X0022242Y0139948D01*
X0022307Y0139976D01*
X0022373Y0140001D01*
X0022441Y0140021D01*
X0022509Y0140038D01*
X0022579Y0140052D01*
X0022649Y0140061D01*
X0022719Y0140067D01*
X0022790Y0140069D01*
X0022861Y0140067D01*
X0022931Y0140061D01*
X0023001Y0140052D01*
X0023071Y0140038D01*
X0023139Y0140021D01*
X0023207Y0140001D01*
X0023273Y0139976D01*
X0023338Y0139948D01*
X0023402Y0139917D01*
X0023463Y0139882D01*
X0023523Y0139844D01*
X0023580Y0139803D01*
X0023635Y0139758D01*
X0023688Y0139711D01*
X0023738Y0139661D01*
X0023785Y0139608D01*
X0023830Y0139553D01*
X0023871Y0139496D01*
X0023909Y0139436D01*
X0023944Y0139375D01*
X0023975Y0139311D01*
X0024003Y0139246D01*
X0024028Y0139180D01*
X0024048Y0139112D01*
X0024065Y0139044D01*
X0024079Y0138974D01*
X0024088Y0138904D01*
X0024094Y0138834D01*
X0024096Y0138763D01*
X0024096Y0137458D01*
X0024096Y0139024D02*
X0026185Y0140069D01*
X0120693Y0104021D02*
X0123827Y0104021D01*
X0122260Y0102454D02*
X0122260Y0105588D01*
X0134322Y0090636D02*
X0134583Y0090636D01*
X0135628Y0090245D01*
X0134583Y0090375D02*
X0134322Y0090375D01*
X0134322Y0090636D01*
X0134583Y0090636D02*
X0134583Y0090375D01*
X0138283Y0086046D02*
X0142983Y0086046D01*
X0142983Y0083733D02*
X0142983Y0081644D01*
X0138283Y0081644D01*
X0138283Y0083733D01*
X0140372Y0083211D02*
X0140372Y0081644D01*
X0138283Y0079328D02*
X0138283Y0078284D01*
X0138284Y0078284D02*
X0138286Y0078221D01*
X0138292Y0078158D01*
X0138301Y0078096D01*
X0138314Y0078034D01*
X0138331Y0077973D01*
X0138352Y0077914D01*
X0138376Y0077856D01*
X0138404Y0077799D01*
X0138435Y0077744D01*
X0138469Y0077691D01*
X0138506Y0077640D01*
X0138547Y0077592D01*
X0138590Y0077546D01*
X0138636Y0077503D01*
X0138684Y0077462D01*
X0138735Y0077425D01*
X0138788Y0077391D01*
X0138843Y0077360D01*
X0138900Y0077332D01*
X0138958Y0077308D01*
X0139017Y0077287D01*
X0139078Y0077270D01*
X0139140Y0077257D01*
X0139202Y0077248D01*
X0139265Y0077242D01*
X0139328Y0077240D01*
X0139328Y0077239D02*
X0141939Y0077239D01*
X0141939Y0077240D02*
X0142002Y0077242D01*
X0142065Y0077248D01*
X0142127Y0077257D01*
X0142189Y0077270D01*
X0142250Y0077287D01*
X0142309Y0077308D01*
X0142367Y0077332D01*
X0142424Y0077360D01*
X0142479Y0077391D01*
X0142532Y0077425D01*
X0142583Y0077462D01*
X0142631Y0077503D01*
X0142677Y0077546D01*
X0142720Y0077592D01*
X0142761Y0077640D01*
X0142798Y0077691D01*
X0142832Y0077744D01*
X0142863Y0077799D01*
X0142891Y0077856D01*
X0142915Y0077914D01*
X0142936Y0077973D01*
X0142953Y0078034D01*
X0142966Y0078096D01*
X0142975Y0078158D01*
X0142981Y0078221D01*
X0142983Y0078284D01*
X0142983Y0079328D01*
X0141678Y0099101D02*
X0139589Y0099101D01*
X0139518Y0099103D01*
X0139448Y0099109D01*
X0139378Y0099118D01*
X0139308Y0099132D01*
X0139240Y0099149D01*
X0139172Y0099169D01*
X0139106Y0099194D01*
X0139041Y0099222D01*
X0138977Y0099253D01*
X0138916Y0099288D01*
X0138856Y0099326D01*
X0138799Y0099367D01*
X0138744Y0099412D01*
X0138691Y0099459D01*
X0138641Y0099509D01*
X0138594Y0099562D01*
X0138549Y0099617D01*
X0138508Y0099674D01*
X0138470Y0099734D01*
X0138435Y0099795D01*
X0138404Y0099859D01*
X0138376Y0099924D01*
X0138351Y0099990D01*
X0138331Y0100058D01*
X0138314Y0100126D01*
X0138300Y0100196D01*
X0138291Y0100266D01*
X0138285Y0100336D01*
X0138283Y0100407D01*
X0138285Y0100478D01*
X0138291Y0100548D01*
X0138300Y0100618D01*
X0138314Y0100688D01*
X0138331Y0100756D01*
X0138351Y0100824D01*
X0138376Y0100890D01*
X0138404Y0100955D01*
X0138435Y0101019D01*
X0138470Y0101080D01*
X0138508Y0101140D01*
X0138549Y0101197D01*
X0138594Y0101252D01*
X0138641Y0101305D01*
X0138691Y0101355D01*
X0138744Y0101402D01*
X0138799Y0101447D01*
X0138856Y0101488D01*
X0138916Y0101526D01*
X0138977Y0101561D01*
X0139041Y0101592D01*
X0139106Y0101620D01*
X0139172Y0101645D01*
X0139240Y0101665D01*
X0139308Y0101682D01*
X0139378Y0101696D01*
X0139448Y0101705D01*
X0139518Y0101711D01*
X0139589Y0101713D01*
X0139589Y0101712D02*
X0141678Y0101712D01*
X0141678Y0101713D02*
X0141749Y0101711D01*
X0141819Y0101705D01*
X0141889Y0101696D01*
X0141959Y0101682D01*
X0142027Y0101665D01*
X0142095Y0101645D01*
X0142161Y0101620D01*
X0142226Y0101592D01*
X0142290Y0101561D01*
X0142351Y0101526D01*
X0142411Y0101488D01*
X0142468Y0101447D01*
X0142523Y0101402D01*
X0142576Y0101355D01*
X0142626Y0101305D01*
X0142673Y0101252D01*
X0142718Y0101197D01*
X0142759Y0101140D01*
X0142797Y0101080D01*
X0142832Y0101019D01*
X0142863Y0100955D01*
X0142891Y0100890D01*
X0142916Y0100824D01*
X0142936Y0100756D01*
X0142953Y0100688D01*
X0142967Y0100618D01*
X0142976Y0100548D01*
X0142982Y0100478D01*
X0142984Y0100407D01*
X0142982Y0100336D01*
X0142976Y0100266D01*
X0142967Y0100196D01*
X0142953Y0100126D01*
X0142936Y0100058D01*
X0142916Y0099990D01*
X0142891Y0099924D01*
X0142863Y0099859D01*
X0142832Y0099795D01*
X0142797Y0099734D01*
X0142759Y0099674D01*
X0142718Y0099617D01*
X0142673Y0099562D01*
X0142626Y0099509D01*
X0142576Y0099459D01*
X0142523Y0099412D01*
X0142468Y0099367D01*
X0142411Y0099326D01*
X0142351Y0099288D01*
X0142290Y0099253D01*
X0142226Y0099222D01*
X0142161Y0099194D01*
X0142095Y0099169D01*
X0142027Y0099149D01*
X0141959Y0099132D01*
X0141889Y0099118D01*
X0141819Y0099109D01*
X0141749Y0099103D01*
X0141678Y0099101D01*
X0142983Y0104309D02*
X0138283Y0104309D01*
X0140372Y0104309D02*
X0140372Y0106920D01*
X0138283Y0106920D02*
X0142983Y0106920D01*
X0133278Y0128708D02*
X0133349Y0128710D01*
X0133419Y0128716D01*
X0133489Y0128725D01*
X0133559Y0128739D01*
X0133627Y0128756D01*
X0133695Y0128776D01*
X0133761Y0128801D01*
X0133826Y0128829D01*
X0133890Y0128860D01*
X0133951Y0128895D01*
X0134011Y0128933D01*
X0134068Y0128974D01*
X0134123Y0129019D01*
X0134176Y0129066D01*
X0134226Y0129116D01*
X0134273Y0129169D01*
X0134318Y0129224D01*
X0134359Y0129281D01*
X0134397Y0129341D01*
X0134432Y0129402D01*
X0134463Y0129466D01*
X0134491Y0129531D01*
X0134516Y0129597D01*
X0134536Y0129665D01*
X0134553Y0129733D01*
X0134567Y0129803D01*
X0134576Y0129873D01*
X0134582Y0129943D01*
X0134584Y0130014D01*
X0134582Y0130085D01*
X0134576Y0130155D01*
X0134567Y0130225D01*
X0134553Y0130295D01*
X0134536Y0130363D01*
X0134516Y0130431D01*
X0134491Y0130497D01*
X0134463Y0130562D01*
X0134432Y0130626D01*
X0134397Y0130687D01*
X0134359Y0130747D01*
X0134318Y0130804D01*
X0134273Y0130859D01*
X0134226Y0130912D01*
X0134176Y0130962D01*
X0134123Y0131009D01*
X0134068Y0131054D01*
X0134011Y0131095D01*
X0133951Y0131133D01*
X0133890Y0131168D01*
X0133826Y0131199D01*
X0133761Y0131227D01*
X0133695Y0131252D01*
X0133627Y0131272D01*
X0133559Y0131289D01*
X0133489Y0131303D01*
X0133419Y0131312D01*
X0133349Y0131318D01*
X0133278Y0131320D01*
X0133207Y0131318D01*
X0133137Y0131312D01*
X0133067Y0131303D01*
X0132997Y0131289D01*
X0132929Y0131272D01*
X0132861Y0131252D01*
X0132795Y0131227D01*
X0132730Y0131199D01*
X0132666Y0131168D01*
X0132605Y0131133D01*
X0132545Y0131095D01*
X0132488Y0131054D01*
X0132433Y0131009D01*
X0132380Y0130962D01*
X0132330Y0130912D01*
X0132283Y0130859D01*
X0132238Y0130804D01*
X0132197Y0130747D01*
X0132159Y0130687D01*
X0132124Y0130626D01*
X0132093Y0130562D01*
X0132065Y0130497D01*
X0132040Y0130431D01*
X0132020Y0130363D01*
X0132003Y0130295D01*
X0131989Y0130225D01*
X0131980Y0130155D01*
X0131974Y0130085D01*
X0131972Y0130014D01*
X0131974Y0129943D01*
X0131980Y0129873D01*
X0131989Y0129803D01*
X0132003Y0129733D01*
X0132020Y0129665D01*
X0132040Y0129597D01*
X0132065Y0129531D01*
X0132093Y0129466D01*
X0132124Y0129402D01*
X0132159Y0129341D01*
X0132197Y0129281D01*
X0132238Y0129224D01*
X0132283Y0129169D01*
X0132330Y0129116D01*
X0132380Y0129066D01*
X0132433Y0129019D01*
X0132488Y0128974D01*
X0132545Y0128933D01*
X0132605Y0128895D01*
X0132666Y0128860D01*
X0132730Y0128829D01*
X0132795Y0128801D01*
X0132861Y0128776D01*
X0132929Y0128756D01*
X0132997Y0128739D01*
X0133067Y0128725D01*
X0133137Y0128716D01*
X0133207Y0128710D01*
X0133278Y0128708D01*
X0130928Y0128970D02*
X0130991Y0128972D01*
X0131054Y0128978D01*
X0131116Y0128987D01*
X0131178Y0129000D01*
X0131239Y0129017D01*
X0131298Y0129038D01*
X0131356Y0129062D01*
X0131413Y0129090D01*
X0131468Y0129121D01*
X0131521Y0129155D01*
X0131572Y0129192D01*
X0131620Y0129233D01*
X0131666Y0129276D01*
X0131709Y0129322D01*
X0131750Y0129370D01*
X0131787Y0129421D01*
X0131821Y0129474D01*
X0131852Y0129529D01*
X0131880Y0129586D01*
X0131904Y0129644D01*
X0131925Y0129703D01*
X0131942Y0129764D01*
X0131955Y0129826D01*
X0131964Y0129888D01*
X0131970Y0129951D01*
X0131972Y0130014D01*
X0131970Y0130077D01*
X0131964Y0130140D01*
X0131955Y0130202D01*
X0131942Y0130264D01*
X0131925Y0130325D01*
X0131904Y0130384D01*
X0131880Y0130442D01*
X0131852Y0130499D01*
X0131821Y0130554D01*
X0131787Y0130607D01*
X0131750Y0130658D01*
X0131709Y0130706D01*
X0131666Y0130752D01*
X0131620Y0130795D01*
X0131572Y0130836D01*
X0131521Y0130873D01*
X0131468Y0130907D01*
X0131413Y0130938D01*
X0131356Y0130966D01*
X0131298Y0130990D01*
X0131239Y0131011D01*
X0131178Y0131028D01*
X0131116Y0131041D01*
X0131054Y0131050D01*
X0130991Y0131056D01*
X0130928Y0131058D01*
X0130865Y0131056D01*
X0130802Y0131050D01*
X0130740Y0131041D01*
X0130678Y0131028D01*
X0130617Y0131011D01*
X0130558Y0130990D01*
X0130500Y0130966D01*
X0130443Y0130938D01*
X0130388Y0130907D01*
X0130335Y0130873D01*
X0130284Y0130836D01*
X0130236Y0130795D01*
X0130190Y0130752D01*
X0130147Y0130706D01*
X0130106Y0130658D01*
X0130069Y0130607D01*
X0130035Y0130554D01*
X0130004Y0130499D01*
X0129976Y0130442D01*
X0129952Y0130384D01*
X0129931Y0130325D01*
X0129914Y0130264D01*
X0129901Y0130202D01*
X0129892Y0130140D01*
X0129886Y0130077D01*
X0129884Y0130014D01*
X0129886Y0129951D01*
X0129892Y0129888D01*
X0129901Y0129826D01*
X0129914Y0129764D01*
X0129931Y0129703D01*
X0129952Y0129644D01*
X0129976Y0129586D01*
X0130004Y0129529D01*
X0130035Y0129474D01*
X0130069Y0129421D01*
X0130106Y0129370D01*
X0130147Y0129322D01*
X0130190Y0129276D01*
X0130236Y0129233D01*
X0130284Y0129192D01*
X0130335Y0129155D01*
X0130388Y0129121D01*
X0130443Y0129090D01*
X0130500Y0129062D01*
X0130558Y0129038D01*
X0130617Y0129017D01*
X0130678Y0129000D01*
X0130740Y0128987D01*
X0130802Y0128978D01*
X0130865Y0128972D01*
X0130928Y0128970D01*
D11*
X0016354Y0023835D02*
X0016354Y0014780D01*
X0032890Y0014780D01*
X0065961Y0014780D01*
X0065961Y0024228D01*
X0065961Y0032102D02*
X0065961Y0041551D01*
X0016551Y0041551D01*
X0016354Y0041551D02*
X0016354Y0032496D01*
X0017142Y0054543D02*
X0017142Y0143913D01*
X0029740Y0143913D01*
X0029740Y0054543D01*
X0017142Y0054543D01*
X0085646Y0066748D02*
X0095488Y0063205D01*
X0126591Y0073441D02*
X0126591Y0134465D01*
X0146276Y0134465D01*
X0146276Y0073441D01*
X0126591Y0073441D01*
D12*
X0124219Y0053108D02*
X0111719Y0053108D01*
X0111719Y0046608D01*
X0124219Y0046608D01*
X0124219Y0053108D01*
X0121059Y0040665D02*
X0146059Y0040665D01*
X0146059Y0015665D01*
X0121059Y0015665D01*
X0121059Y0040665D01*
X0116059Y0040665D02*
X0116059Y0015665D01*
X0071059Y0015665D01*
X0071059Y0040665D01*
X0116059Y0040665D01*
X0093069Y0067545D02*
X0086569Y0067545D01*
X0086569Y0080045D01*
X0093069Y0080045D01*
X0093069Y0067545D01*
X0086778Y0060943D02*
X0086778Y0054443D01*
X0074278Y0054443D01*
X0074278Y0060943D01*
X0086778Y0060943D01*
X0086778Y0053069D02*
X0086778Y0046569D01*
X0074278Y0046569D01*
X0074278Y0053069D01*
X0086778Y0053069D01*
X0072604Y0060742D02*
X0072604Y0067242D01*
X0060104Y0067242D01*
X0060104Y0060742D01*
X0072604Y0060742D01*
X0071573Y0059612D02*
X0065073Y0059612D01*
X0065073Y0047112D01*
X0071573Y0047112D01*
X0071573Y0059612D01*
X0071967Y0069553D02*
X0065467Y0069553D01*
X0065467Y0082053D01*
X0071967Y0082053D01*
X0071967Y0069553D01*
X0064093Y0069553D02*
X0057593Y0069553D01*
X0057593Y0082053D01*
X0064093Y0082053D01*
X0064093Y0069553D01*
X0068569Y0087868D02*
X0068569Y0094368D01*
X0081069Y0094368D01*
X0081069Y0087868D01*
X0068569Y0087868D01*
X0077427Y0095388D02*
X0077427Y0101888D01*
X0089927Y0101888D01*
X0089927Y0095388D01*
X0077427Y0095388D01*
X0085301Y0094407D02*
X0085301Y0087907D01*
X0097801Y0087907D01*
X0097801Y0094407D01*
X0085301Y0094407D01*
X0094012Y0098224D02*
X0094012Y0123224D01*
X0119012Y0123224D01*
X0119012Y0098224D01*
X0094012Y0098224D01*
D13*
X0092039Y0103662D02*
X0092039Y0105516D01*
X0092039Y0104589D02*
X0088702Y0104589D01*
X0089443Y0103662D01*
X0087720Y0104416D02*
X0087720Y0105157D01*
X0087720Y0104416D02*
X0087718Y0104363D01*
X0087712Y0104310D01*
X0087703Y0104258D01*
X0087690Y0104207D01*
X0087673Y0104157D01*
X0087653Y0104108D01*
X0087629Y0104060D01*
X0087602Y0104015D01*
X0087572Y0103971D01*
X0087539Y0103930D01*
X0087503Y0103891D01*
X0087464Y0103855D01*
X0087423Y0103822D01*
X0087379Y0103792D01*
X0087334Y0103765D01*
X0087286Y0103741D01*
X0087237Y0103721D01*
X0087187Y0103704D01*
X0087136Y0103691D01*
X0087084Y0103682D01*
X0087031Y0103676D01*
X0086978Y0103674D01*
X0085124Y0103674D01*
X0085071Y0103676D01*
X0085018Y0103682D01*
X0084966Y0103691D01*
X0084915Y0103704D01*
X0084865Y0103721D01*
X0084816Y0103741D01*
X0084768Y0103765D01*
X0084723Y0103792D01*
X0084679Y0103822D01*
X0084638Y0103855D01*
X0084599Y0103891D01*
X0084563Y0103930D01*
X0084530Y0103971D01*
X0084500Y0104015D01*
X0084473Y0104060D01*
X0084449Y0104108D01*
X0084429Y0104157D01*
X0084412Y0104207D01*
X0084399Y0104258D01*
X0084390Y0104310D01*
X0084384Y0104363D01*
X0084382Y0104416D01*
X0084383Y0104416D02*
X0084383Y0105157D01*
X0083205Y0104843D02*
X0082205Y0103843D01*
X0074205Y0103843D01*
X0073205Y0104843D01*
X0072205Y0103843D01*
X0064205Y0103843D01*
X0063205Y0104843D01*
X0062205Y0103843D01*
X0054205Y0103843D01*
X0053205Y0104843D01*
X0052205Y0103843D01*
X0044205Y0103843D01*
X0043205Y0104843D01*
X0043205Y0116843D01*
X0044205Y0117843D01*
X0052205Y0117843D01*
X0053205Y0116843D01*
X0054205Y0117843D01*
X0062205Y0117843D01*
X0063205Y0116843D01*
X0064205Y0117843D01*
X0072205Y0117843D01*
X0073205Y0116843D01*
X0074205Y0117843D01*
X0082205Y0117843D01*
X0083205Y0116843D01*
X0083205Y0104843D01*
X0084383Y0106770D02*
X0084383Y0108253D01*
X0085866Y0108253D02*
X0085866Y0106770D01*
X0084383Y0106770D02*
X0087720Y0106770D01*
X0088701Y0108132D02*
X0088703Y0108182D01*
X0088708Y0108232D01*
X0088717Y0108281D01*
X0088730Y0108329D01*
X0088746Y0108377D01*
X0088766Y0108423D01*
X0088789Y0108467D01*
X0088815Y0108510D01*
X0088844Y0108551D01*
X0088876Y0108589D01*
X0088910Y0108625D01*
X0088948Y0108659D01*
X0088987Y0108689D01*
X0089029Y0108717D01*
X0089073Y0108742D01*
X0089118Y0108763D01*
X0089165Y0108781D01*
X0089443Y0108874D02*
X0091297Y0107391D01*
X0092039Y0108132D02*
X0092037Y0108182D01*
X0092032Y0108232D01*
X0092023Y0108281D01*
X0092010Y0108329D01*
X0091994Y0108377D01*
X0091974Y0108423D01*
X0091951Y0108467D01*
X0091925Y0108510D01*
X0091896Y0108551D01*
X0091864Y0108589D01*
X0091830Y0108625D01*
X0091792Y0108659D01*
X0091753Y0108689D01*
X0091711Y0108717D01*
X0091667Y0108742D01*
X0091622Y0108763D01*
X0091575Y0108781D01*
X0092039Y0108132D02*
X0092037Y0108082D01*
X0092032Y0108032D01*
X0092023Y0107983D01*
X0092010Y0107935D01*
X0091994Y0107887D01*
X0091974Y0107841D01*
X0091951Y0107797D01*
X0091925Y0107754D01*
X0091896Y0107713D01*
X0091864Y0107675D01*
X0091830Y0107639D01*
X0091792Y0107605D01*
X0091753Y0107575D01*
X0091711Y0107547D01*
X0091667Y0107522D01*
X0091622Y0107501D01*
X0091575Y0107483D01*
X0090370Y0109060D02*
X0090266Y0109058D01*
X0090162Y0109052D01*
X0090059Y0109042D01*
X0089956Y0109029D01*
X0089853Y0109011D01*
X0089752Y0108990D01*
X0089651Y0108964D01*
X0089551Y0108935D01*
X0089452Y0108902D01*
X0089355Y0108866D01*
X0089259Y0108826D01*
X0089165Y0108782D01*
X0088702Y0108132D02*
X0088704Y0108082D01*
X0088709Y0108032D01*
X0088718Y0107983D01*
X0088731Y0107935D01*
X0088747Y0107887D01*
X0088767Y0107841D01*
X0088790Y0107797D01*
X0088816Y0107754D01*
X0088845Y0107713D01*
X0088877Y0107675D01*
X0088911Y0107639D01*
X0088949Y0107605D01*
X0088988Y0107575D01*
X0089030Y0107547D01*
X0089074Y0107522D01*
X0089119Y0107501D01*
X0089166Y0107483D01*
X0090370Y0109060D02*
X0090474Y0109058D01*
X0090578Y0109052D01*
X0090681Y0109042D01*
X0090784Y0109029D01*
X0090887Y0109011D01*
X0090988Y0108990D01*
X0091089Y0108964D01*
X0091189Y0108935D01*
X0091288Y0108902D01*
X0091385Y0108866D01*
X0091481Y0108826D01*
X0091575Y0108782D01*
X0090370Y0107205D02*
X0090266Y0107207D01*
X0090162Y0107213D01*
X0090059Y0107223D01*
X0089956Y0107236D01*
X0089853Y0107254D01*
X0089752Y0107275D01*
X0089651Y0107301D01*
X0089551Y0107330D01*
X0089452Y0107363D01*
X0089355Y0107399D01*
X0089259Y0107439D01*
X0089165Y0107483D01*
X0090370Y0107206D02*
X0090474Y0107208D01*
X0090578Y0107214D01*
X0090681Y0107224D01*
X0090784Y0107237D01*
X0090887Y0107255D01*
X0090988Y0107276D01*
X0091089Y0107302D01*
X0091189Y0107331D01*
X0091288Y0107364D01*
X0091385Y0107400D01*
X0091481Y0107440D01*
X0091575Y0107484D01*
X0092039Y0110843D02*
X0092039Y0111770D01*
X0092038Y0111770D02*
X0092036Y0111816D01*
X0092030Y0111862D01*
X0092021Y0111906D01*
X0092008Y0111951D01*
X0091991Y0111993D01*
X0091971Y0112035D01*
X0091947Y0112074D01*
X0091921Y0112112D01*
X0091891Y0112147D01*
X0091859Y0112179D01*
X0091824Y0112209D01*
X0091786Y0112235D01*
X0091747Y0112259D01*
X0091705Y0112279D01*
X0091663Y0112296D01*
X0091618Y0112309D01*
X0091574Y0112318D01*
X0091528Y0112324D01*
X0091482Y0112326D01*
X0090370Y0112326D01*
X0090324Y0112324D01*
X0090278Y0112318D01*
X0090234Y0112309D01*
X0090189Y0112296D01*
X0090147Y0112279D01*
X0090105Y0112259D01*
X0090066Y0112235D01*
X0090029Y0112209D01*
X0089993Y0112179D01*
X0089961Y0112147D01*
X0089931Y0112112D01*
X0089905Y0112074D01*
X0089881Y0112035D01*
X0089861Y0111993D01*
X0089844Y0111951D01*
X0089831Y0111906D01*
X0089822Y0111862D01*
X0089816Y0111816D01*
X0089814Y0111770D01*
X0089814Y0110843D01*
X0093151Y0110843D01*
X0092039Y0114066D02*
X0088702Y0114066D01*
X0088702Y0115549D01*
X0090185Y0115549D02*
X0090185Y0114066D01*
X0076742Y0097670D02*
X0075259Y0096558D01*
X0075908Y0097021D02*
X0076742Y0095446D01*
X0075259Y0095446D02*
X0075259Y0098783D01*
X0071587Y0097114D02*
X0071589Y0097010D01*
X0071595Y0096906D01*
X0071605Y0096803D01*
X0071618Y0096700D01*
X0071636Y0096597D01*
X0071657Y0096496D01*
X0071683Y0096395D01*
X0071712Y0096295D01*
X0071745Y0096196D01*
X0071781Y0096099D01*
X0071821Y0096003D01*
X0071865Y0095909D01*
X0071773Y0096187D02*
X0073256Y0098041D01*
X0073163Y0098319D02*
X0073145Y0098366D01*
X0073124Y0098411D01*
X0073099Y0098455D01*
X0073071Y0098497D01*
X0073041Y0098536D01*
X0073007Y0098574D01*
X0072971Y0098608D01*
X0072933Y0098640D01*
X0072892Y0098669D01*
X0072849Y0098695D01*
X0072805Y0098718D01*
X0072759Y0098738D01*
X0072711Y0098754D01*
X0072663Y0098767D01*
X0072614Y0098776D01*
X0072564Y0098781D01*
X0072514Y0098783D01*
X0072464Y0098781D01*
X0072414Y0098776D01*
X0072365Y0098767D01*
X0072317Y0098754D01*
X0072269Y0098738D01*
X0072223Y0098718D01*
X0072179Y0098695D01*
X0072136Y0098669D01*
X0072095Y0098640D01*
X0072057Y0098608D01*
X0072021Y0098574D01*
X0071987Y0098536D01*
X0071957Y0098497D01*
X0071929Y0098455D01*
X0071904Y0098411D01*
X0071883Y0098366D01*
X0071865Y0098319D01*
X0071554Y0099753D02*
X0073408Y0099753D01*
X0072481Y0099753D02*
X0072481Y0103090D01*
X0071554Y0102348D01*
X0068971Y0103090D02*
X0069030Y0103088D01*
X0069090Y0103082D01*
X0069148Y0103073D01*
X0069206Y0103060D01*
X0069263Y0103043D01*
X0069319Y0103022D01*
X0069373Y0102998D01*
X0069426Y0102971D01*
X0069477Y0102940D01*
X0069525Y0102906D01*
X0069572Y0102869D01*
X0069616Y0102829D01*
X0069657Y0102786D01*
X0069696Y0102741D01*
X0069731Y0102693D01*
X0069764Y0102644D01*
X0069793Y0102592D01*
X0069819Y0102538D01*
X0069841Y0102483D01*
X0069860Y0102427D01*
X0069875Y0102369D01*
X0069886Y0102311D01*
X0069894Y0102252D01*
X0069898Y0102193D01*
X0069898Y0102133D01*
X0069894Y0102074D01*
X0069886Y0102015D01*
X0069875Y0101957D01*
X0069860Y0101899D01*
X0069841Y0101843D01*
X0069819Y0101788D01*
X0069793Y0101734D01*
X0069764Y0101682D01*
X0069731Y0101633D01*
X0069696Y0101585D01*
X0069657Y0101540D01*
X0069616Y0101497D01*
X0069572Y0101457D01*
X0069525Y0101420D01*
X0069477Y0101386D01*
X0069426Y0101355D01*
X0069373Y0101328D01*
X0069319Y0101304D01*
X0069263Y0101283D01*
X0069206Y0101266D01*
X0069148Y0101253D01*
X0069090Y0101244D01*
X0069030Y0101238D01*
X0068971Y0101236D01*
X0068044Y0101236D01*
X0069156Y0101236D02*
X0069898Y0099753D01*
X0068971Y0098783D02*
X0068044Y0098041D01*
X0068971Y0098783D02*
X0068971Y0095446D01*
X0068044Y0095446D02*
X0069898Y0095446D01*
X0073163Y0095909D02*
X0073207Y0096003D01*
X0073247Y0096099D01*
X0073283Y0096196D01*
X0073316Y0096295D01*
X0073345Y0096395D01*
X0073371Y0096496D01*
X0073392Y0096597D01*
X0073410Y0096700D01*
X0073423Y0096803D01*
X0073433Y0096906D01*
X0073439Y0097010D01*
X0073441Y0097114D01*
X0071587Y0097114D02*
X0071589Y0097218D01*
X0071595Y0097322D01*
X0071605Y0097425D01*
X0071618Y0097528D01*
X0071636Y0097631D01*
X0071657Y0097732D01*
X0071683Y0097833D01*
X0071712Y0097933D01*
X0071745Y0098032D01*
X0071781Y0098129D01*
X0071821Y0098225D01*
X0071865Y0098319D01*
X0073163Y0098319D02*
X0073207Y0098225D01*
X0073247Y0098129D01*
X0073283Y0098032D01*
X0073316Y0097933D01*
X0073345Y0097833D01*
X0073371Y0097732D01*
X0073392Y0097631D01*
X0073410Y0097528D01*
X0073423Y0097425D01*
X0073433Y0097322D01*
X0073439Y0097218D01*
X0073441Y0097114D01*
X0072514Y0095446D02*
X0072464Y0095448D01*
X0072414Y0095453D01*
X0072365Y0095462D01*
X0072317Y0095475D01*
X0072269Y0095491D01*
X0072223Y0095511D01*
X0072179Y0095534D01*
X0072136Y0095560D01*
X0072095Y0095589D01*
X0072057Y0095621D01*
X0072021Y0095655D01*
X0071987Y0095693D01*
X0071957Y0095732D01*
X0071929Y0095774D01*
X0071904Y0095818D01*
X0071883Y0095863D01*
X0071865Y0095910D01*
X0072514Y0095446D02*
X0072564Y0095448D01*
X0072614Y0095453D01*
X0072663Y0095462D01*
X0072711Y0095475D01*
X0072759Y0095491D01*
X0072805Y0095511D01*
X0072849Y0095534D01*
X0072892Y0095560D01*
X0072933Y0095589D01*
X0072971Y0095621D01*
X0073007Y0095655D01*
X0073041Y0095693D01*
X0073071Y0095732D01*
X0073099Y0095774D01*
X0073124Y0095818D01*
X0073145Y0095863D01*
X0073163Y0095910D01*
X0067224Y0095928D02*
X0063887Y0095928D01*
X0063887Y0097411D01*
X0065370Y0097411D02*
X0065370Y0095928D01*
X0064999Y0094043D02*
X0067224Y0094043D01*
X0067224Y0093116D01*
X0067223Y0093116D02*
X0067221Y0093070D01*
X0067215Y0093024D01*
X0067206Y0092980D01*
X0067193Y0092935D01*
X0067176Y0092893D01*
X0067156Y0092851D01*
X0067132Y0092812D01*
X0067106Y0092775D01*
X0067076Y0092739D01*
X0067044Y0092707D01*
X0067009Y0092677D01*
X0066971Y0092651D01*
X0066932Y0092627D01*
X0066890Y0092607D01*
X0066848Y0092590D01*
X0066803Y0092577D01*
X0066759Y0092568D01*
X0066713Y0092562D01*
X0066667Y0092560D01*
X0064999Y0092560D01*
X0067224Y0090803D02*
X0067224Y0088950D01*
X0067224Y0089877D02*
X0063887Y0089877D01*
X0064628Y0088950D01*
X0063310Y0088254D02*
X0061827Y0088254D01*
X0062569Y0088811D02*
X0062569Y0086957D01*
X0059973Y0087698D01*
X0059973Y0085472D02*
X0059973Y0084731D01*
X0059975Y0084678D01*
X0059981Y0084625D01*
X0059990Y0084573D01*
X0060003Y0084522D01*
X0060020Y0084472D01*
X0060040Y0084423D01*
X0060064Y0084375D01*
X0060091Y0084330D01*
X0060121Y0084286D01*
X0060154Y0084245D01*
X0060190Y0084206D01*
X0060229Y0084170D01*
X0060270Y0084137D01*
X0060314Y0084107D01*
X0060359Y0084080D01*
X0060407Y0084056D01*
X0060456Y0084036D01*
X0060506Y0084019D01*
X0060557Y0084006D01*
X0060609Y0083997D01*
X0060662Y0083991D01*
X0060715Y0083989D01*
X0062569Y0083989D01*
X0062622Y0083991D01*
X0062675Y0083997D01*
X0062727Y0084006D01*
X0062778Y0084019D01*
X0062828Y0084036D01*
X0062877Y0084056D01*
X0062925Y0084080D01*
X0062970Y0084107D01*
X0063014Y0084137D01*
X0063055Y0084170D01*
X0063094Y0084206D01*
X0063130Y0084245D01*
X0063163Y0084286D01*
X0063193Y0084330D01*
X0063220Y0084375D01*
X0063244Y0084423D01*
X0063264Y0084472D01*
X0063281Y0084522D01*
X0063294Y0084573D01*
X0063303Y0084625D01*
X0063309Y0084678D01*
X0063311Y0084731D01*
X0063310Y0084731D02*
X0063310Y0085472D01*
X0064628Y0085657D02*
X0066482Y0084174D01*
X0067224Y0084916D02*
X0067222Y0084966D01*
X0067217Y0085016D01*
X0067208Y0085065D01*
X0067195Y0085113D01*
X0067179Y0085161D01*
X0067159Y0085207D01*
X0067136Y0085251D01*
X0067110Y0085294D01*
X0067081Y0085335D01*
X0067049Y0085373D01*
X0067015Y0085409D01*
X0066977Y0085443D01*
X0066938Y0085473D01*
X0066896Y0085501D01*
X0066852Y0085526D01*
X0066807Y0085547D01*
X0066760Y0085565D01*
X0067224Y0084916D02*
X0067222Y0084866D01*
X0067217Y0084816D01*
X0067208Y0084767D01*
X0067195Y0084719D01*
X0067179Y0084671D01*
X0067159Y0084625D01*
X0067136Y0084581D01*
X0067110Y0084538D01*
X0067081Y0084497D01*
X0067049Y0084459D01*
X0067015Y0084423D01*
X0066977Y0084389D01*
X0066938Y0084359D01*
X0066896Y0084331D01*
X0066852Y0084306D01*
X0066807Y0084285D01*
X0066760Y0084267D01*
X0065555Y0085843D02*
X0065451Y0085841D01*
X0065347Y0085835D01*
X0065244Y0085825D01*
X0065141Y0085812D01*
X0065038Y0085794D01*
X0064937Y0085773D01*
X0064836Y0085747D01*
X0064736Y0085718D01*
X0064637Y0085685D01*
X0064540Y0085649D01*
X0064444Y0085609D01*
X0064350Y0085565D01*
X0064351Y0085565D02*
X0064304Y0085547D01*
X0064259Y0085526D01*
X0064215Y0085501D01*
X0064173Y0085473D01*
X0064134Y0085443D01*
X0064096Y0085409D01*
X0064062Y0085373D01*
X0064030Y0085335D01*
X0064001Y0085294D01*
X0063975Y0085251D01*
X0063952Y0085207D01*
X0063932Y0085161D01*
X0063916Y0085113D01*
X0063903Y0085065D01*
X0063894Y0085016D01*
X0063889Y0084966D01*
X0063887Y0084916D01*
X0063889Y0084866D01*
X0063894Y0084816D01*
X0063903Y0084767D01*
X0063916Y0084719D01*
X0063932Y0084671D01*
X0063952Y0084625D01*
X0063975Y0084581D01*
X0064001Y0084538D01*
X0064030Y0084497D01*
X0064062Y0084459D01*
X0064096Y0084423D01*
X0064134Y0084389D01*
X0064173Y0084359D01*
X0064215Y0084331D01*
X0064259Y0084306D01*
X0064304Y0084285D01*
X0064351Y0084267D01*
X0065555Y0085843D02*
X0065659Y0085841D01*
X0065763Y0085835D01*
X0065866Y0085825D01*
X0065969Y0085812D01*
X0066072Y0085794D01*
X0066173Y0085773D01*
X0066274Y0085747D01*
X0066374Y0085718D01*
X0066473Y0085685D01*
X0066570Y0085649D01*
X0066666Y0085609D01*
X0066760Y0085565D01*
X0065555Y0083989D02*
X0065451Y0083991D01*
X0065347Y0083997D01*
X0065244Y0084007D01*
X0065141Y0084020D01*
X0065038Y0084038D01*
X0064937Y0084059D01*
X0064836Y0084085D01*
X0064736Y0084114D01*
X0064637Y0084147D01*
X0064540Y0084183D01*
X0064444Y0084223D01*
X0064350Y0084267D01*
X0065555Y0083989D02*
X0065659Y0083991D01*
X0065763Y0083997D01*
X0065866Y0084007D01*
X0065969Y0084020D01*
X0066072Y0084038D01*
X0066173Y0084059D01*
X0066274Y0084085D01*
X0066374Y0084114D01*
X0066473Y0084147D01*
X0066570Y0084183D01*
X0066666Y0084223D01*
X0066760Y0084267D01*
X0067038Y0087304D02*
X0067038Y0087489D01*
X0067224Y0087489D01*
X0067224Y0087304D01*
X0067038Y0087304D01*
X0072889Y0080686D02*
X0072889Y0068086D01*
X0063680Y0057503D02*
X0060343Y0057503D01*
X0060343Y0058986D01*
X0061826Y0058986D02*
X0061826Y0057503D01*
X0062012Y0055618D02*
X0063680Y0055618D01*
X0063680Y0054135D02*
X0061456Y0054135D01*
X0061456Y0055062D01*
X0061458Y0055108D01*
X0061464Y0055154D01*
X0061473Y0055198D01*
X0061486Y0055243D01*
X0061503Y0055285D01*
X0061523Y0055327D01*
X0061547Y0055366D01*
X0061573Y0055404D01*
X0061603Y0055439D01*
X0061635Y0055471D01*
X0061671Y0055501D01*
X0061708Y0055527D01*
X0061747Y0055551D01*
X0061789Y0055571D01*
X0061831Y0055588D01*
X0061876Y0055601D01*
X0061920Y0055610D01*
X0061966Y0055616D01*
X0062012Y0055618D01*
X0062753Y0052378D02*
X0062812Y0052376D01*
X0062872Y0052370D01*
X0062930Y0052361D01*
X0062988Y0052348D01*
X0063045Y0052331D01*
X0063101Y0052310D01*
X0063155Y0052286D01*
X0063208Y0052259D01*
X0063259Y0052228D01*
X0063307Y0052194D01*
X0063354Y0052157D01*
X0063398Y0052117D01*
X0063439Y0052074D01*
X0063478Y0052029D01*
X0063513Y0051981D01*
X0063546Y0051932D01*
X0063575Y0051880D01*
X0063601Y0051826D01*
X0063623Y0051771D01*
X0063642Y0051715D01*
X0063657Y0051657D01*
X0063668Y0051599D01*
X0063676Y0051540D01*
X0063680Y0051481D01*
X0063680Y0051421D01*
X0063676Y0051362D01*
X0063668Y0051303D01*
X0063657Y0051245D01*
X0063642Y0051187D01*
X0063623Y0051131D01*
X0063601Y0051076D01*
X0063575Y0051022D01*
X0063546Y0050970D01*
X0063513Y0050921D01*
X0063478Y0050873D01*
X0063439Y0050828D01*
X0063398Y0050785D01*
X0063354Y0050745D01*
X0063307Y0050708D01*
X0063259Y0050674D01*
X0063208Y0050643D01*
X0063155Y0050616D01*
X0063101Y0050592D01*
X0063045Y0050571D01*
X0062988Y0050554D01*
X0062930Y0050541D01*
X0062872Y0050532D01*
X0062812Y0050526D01*
X0062753Y0050524D01*
X0062694Y0050526D01*
X0062634Y0050532D01*
X0062576Y0050541D01*
X0062518Y0050554D01*
X0062461Y0050571D01*
X0062405Y0050592D01*
X0062351Y0050616D01*
X0062298Y0050643D01*
X0062247Y0050674D01*
X0062199Y0050708D01*
X0062152Y0050745D01*
X0062108Y0050785D01*
X0062067Y0050828D01*
X0062028Y0050873D01*
X0061993Y0050921D01*
X0061960Y0050970D01*
X0061931Y0051022D01*
X0061905Y0051076D01*
X0061883Y0051131D01*
X0061864Y0051187D01*
X0061849Y0051245D01*
X0061838Y0051303D01*
X0061830Y0051362D01*
X0061826Y0051421D01*
X0061826Y0051481D01*
X0061830Y0051540D01*
X0061838Y0051599D01*
X0061849Y0051657D01*
X0061864Y0051715D01*
X0061883Y0051771D01*
X0061905Y0051826D01*
X0061931Y0051880D01*
X0061960Y0051932D01*
X0061993Y0051981D01*
X0062028Y0052029D01*
X0062067Y0052074D01*
X0062108Y0052117D01*
X0062152Y0052157D01*
X0062199Y0052194D01*
X0062247Y0052228D01*
X0062298Y0052259D01*
X0062351Y0052286D01*
X0062405Y0052310D01*
X0062461Y0052331D01*
X0062518Y0052348D01*
X0062576Y0052361D01*
X0062634Y0052370D01*
X0062694Y0052376D01*
X0062753Y0052378D01*
X0061085Y0052193D02*
X0061138Y0052191D01*
X0061191Y0052185D01*
X0061243Y0052176D01*
X0061294Y0052163D01*
X0061344Y0052146D01*
X0061393Y0052126D01*
X0061441Y0052102D01*
X0061486Y0052075D01*
X0061530Y0052045D01*
X0061571Y0052012D01*
X0061610Y0051976D01*
X0061646Y0051937D01*
X0061679Y0051896D01*
X0061709Y0051852D01*
X0061736Y0051807D01*
X0061760Y0051759D01*
X0061780Y0051710D01*
X0061797Y0051660D01*
X0061810Y0051609D01*
X0061819Y0051557D01*
X0061825Y0051504D01*
X0061827Y0051451D01*
X0061825Y0051398D01*
X0061819Y0051345D01*
X0061810Y0051293D01*
X0061797Y0051242D01*
X0061780Y0051192D01*
X0061760Y0051143D01*
X0061736Y0051095D01*
X0061709Y0051050D01*
X0061679Y0051006D01*
X0061646Y0050965D01*
X0061610Y0050926D01*
X0061571Y0050890D01*
X0061530Y0050857D01*
X0061486Y0050827D01*
X0061441Y0050800D01*
X0061393Y0050776D01*
X0061344Y0050756D01*
X0061294Y0050739D01*
X0061243Y0050726D01*
X0061191Y0050717D01*
X0061138Y0050711D01*
X0061085Y0050709D01*
X0061032Y0050711D01*
X0060979Y0050717D01*
X0060927Y0050726D01*
X0060876Y0050739D01*
X0060826Y0050756D01*
X0060777Y0050776D01*
X0060729Y0050800D01*
X0060684Y0050827D01*
X0060640Y0050857D01*
X0060599Y0050890D01*
X0060560Y0050926D01*
X0060524Y0050965D01*
X0060491Y0051006D01*
X0060461Y0051050D01*
X0060434Y0051095D01*
X0060410Y0051143D01*
X0060390Y0051192D01*
X0060373Y0051242D01*
X0060360Y0051293D01*
X0060351Y0051345D01*
X0060345Y0051398D01*
X0060343Y0051451D01*
X0060345Y0051504D01*
X0060351Y0051557D01*
X0060360Y0051609D01*
X0060373Y0051660D01*
X0060390Y0051710D01*
X0060410Y0051759D01*
X0060434Y0051807D01*
X0060461Y0051852D01*
X0060491Y0051896D01*
X0060524Y0051937D01*
X0060560Y0051976D01*
X0060599Y0052012D01*
X0060640Y0052045D01*
X0060684Y0052075D01*
X0060729Y0052102D01*
X0060777Y0052126D01*
X0060826Y0052146D01*
X0060876Y0052163D01*
X0060927Y0052176D01*
X0060979Y0052185D01*
X0061032Y0052191D01*
X0061085Y0052193D01*
X0062568Y0048835D02*
X0062753Y0048835D01*
X0062568Y0048835D02*
X0062515Y0048833D01*
X0062462Y0048827D01*
X0062410Y0048818D01*
X0062359Y0048805D01*
X0062309Y0048788D01*
X0062260Y0048768D01*
X0062212Y0048744D01*
X0062167Y0048717D01*
X0062123Y0048687D01*
X0062082Y0048654D01*
X0062043Y0048618D01*
X0062007Y0048579D01*
X0061974Y0048538D01*
X0061944Y0048494D01*
X0061917Y0048449D01*
X0061893Y0048401D01*
X0061873Y0048352D01*
X0061856Y0048302D01*
X0061843Y0048251D01*
X0061834Y0048199D01*
X0061828Y0048146D01*
X0061826Y0048093D01*
X0061826Y0046981D01*
X0062753Y0046981D01*
X0062812Y0046983D01*
X0062872Y0046989D01*
X0062930Y0046998D01*
X0062988Y0047011D01*
X0063045Y0047028D01*
X0063101Y0047049D01*
X0063155Y0047073D01*
X0063208Y0047100D01*
X0063259Y0047131D01*
X0063307Y0047165D01*
X0063354Y0047202D01*
X0063398Y0047242D01*
X0063439Y0047285D01*
X0063478Y0047330D01*
X0063513Y0047378D01*
X0063546Y0047427D01*
X0063575Y0047479D01*
X0063601Y0047533D01*
X0063623Y0047588D01*
X0063642Y0047644D01*
X0063657Y0047702D01*
X0063668Y0047760D01*
X0063676Y0047819D01*
X0063680Y0047878D01*
X0063680Y0047938D01*
X0063676Y0047997D01*
X0063668Y0048056D01*
X0063657Y0048114D01*
X0063642Y0048172D01*
X0063623Y0048228D01*
X0063601Y0048283D01*
X0063575Y0048337D01*
X0063546Y0048389D01*
X0063513Y0048438D01*
X0063478Y0048486D01*
X0063439Y0048531D01*
X0063398Y0048574D01*
X0063354Y0048614D01*
X0063307Y0048651D01*
X0063259Y0048685D01*
X0063208Y0048716D01*
X0063155Y0048743D01*
X0063101Y0048767D01*
X0063045Y0048788D01*
X0062988Y0048805D01*
X0062930Y0048818D01*
X0062872Y0048827D01*
X0062812Y0048833D01*
X0062753Y0048835D01*
X0061826Y0046981D02*
X0061751Y0046983D01*
X0061676Y0046989D01*
X0061601Y0046998D01*
X0061527Y0047011D01*
X0061454Y0047028D01*
X0061382Y0047049D01*
X0061311Y0047073D01*
X0061241Y0047101D01*
X0061173Y0047133D01*
X0061106Y0047167D01*
X0061042Y0047205D01*
X0060979Y0047247D01*
X0060918Y0047291D01*
X0060860Y0047339D01*
X0060804Y0047389D01*
X0060751Y0047442D01*
X0060701Y0047498D01*
X0060653Y0047556D01*
X0060609Y0047617D01*
X0060567Y0047680D01*
X0060529Y0047744D01*
X0060495Y0047811D01*
X0060463Y0047879D01*
X0060435Y0047949D01*
X0060411Y0048020D01*
X0060390Y0048092D01*
X0060373Y0048165D01*
X0060360Y0048239D01*
X0060351Y0048314D01*
X0060345Y0048389D01*
X0060343Y0048464D01*
X0065879Y0045222D02*
X0065879Y0043368D01*
X0065878Y0043368D02*
X0065880Y0043315D01*
X0065886Y0043262D01*
X0065895Y0043210D01*
X0065908Y0043159D01*
X0065925Y0043109D01*
X0065945Y0043060D01*
X0065969Y0043012D01*
X0065996Y0042967D01*
X0066026Y0042923D01*
X0066059Y0042882D01*
X0066095Y0042843D01*
X0066134Y0042807D01*
X0066175Y0042774D01*
X0066219Y0042744D01*
X0066264Y0042717D01*
X0066312Y0042693D01*
X0066361Y0042673D01*
X0066411Y0042656D01*
X0066462Y0042643D01*
X0066514Y0042634D01*
X0066567Y0042628D01*
X0066620Y0042626D01*
X0066620Y0042627D02*
X0067362Y0042627D01*
X0068846Y0042627D02*
X0070700Y0042627D01*
X0069773Y0042627D02*
X0069773Y0045964D01*
X0068846Y0045222D01*
X0067362Y0045964D02*
X0066620Y0045964D01*
X0066567Y0045962D01*
X0066514Y0045956D01*
X0066462Y0045947D01*
X0066411Y0045934D01*
X0066361Y0045917D01*
X0066312Y0045897D01*
X0066264Y0045873D01*
X0066219Y0045846D01*
X0066175Y0045816D01*
X0066134Y0045783D01*
X0066095Y0045747D01*
X0066059Y0045708D01*
X0066026Y0045667D01*
X0065996Y0045623D01*
X0065969Y0045578D01*
X0065945Y0045530D01*
X0065925Y0045481D01*
X0065908Y0045431D01*
X0065895Y0045380D01*
X0065886Y0045328D01*
X0065880Y0045275D01*
X0065878Y0045222D01*
X0074540Y0045176D02*
X0074540Y0041839D01*
X0074540Y0043322D02*
X0075467Y0043322D01*
X0075652Y0043322D02*
X0076394Y0041839D01*
X0078245Y0041839D02*
X0078245Y0045176D01*
X0079172Y0045176D01*
X0079172Y0045177D02*
X0079225Y0045175D01*
X0079278Y0045169D01*
X0079330Y0045160D01*
X0079381Y0045147D01*
X0079431Y0045130D01*
X0079480Y0045110D01*
X0079528Y0045086D01*
X0079573Y0045059D01*
X0079617Y0045029D01*
X0079658Y0044996D01*
X0079697Y0044960D01*
X0079733Y0044921D01*
X0079766Y0044880D01*
X0079796Y0044836D01*
X0079823Y0044791D01*
X0079847Y0044743D01*
X0079867Y0044694D01*
X0079884Y0044644D01*
X0079897Y0044593D01*
X0079906Y0044541D01*
X0079912Y0044488D01*
X0079914Y0044435D01*
X0079912Y0044382D01*
X0079906Y0044329D01*
X0079897Y0044277D01*
X0079884Y0044226D01*
X0079867Y0044176D01*
X0079847Y0044127D01*
X0079823Y0044079D01*
X0079796Y0044034D01*
X0079766Y0043990D01*
X0079733Y0043949D01*
X0079697Y0043910D01*
X0079658Y0043874D01*
X0079617Y0043841D01*
X0079573Y0043811D01*
X0079528Y0043784D01*
X0079480Y0043760D01*
X0079431Y0043740D01*
X0079381Y0043723D01*
X0079330Y0043710D01*
X0079278Y0043701D01*
X0079225Y0043695D01*
X0079172Y0043693D01*
X0078245Y0043693D01*
X0079172Y0043693D02*
X0079231Y0043691D01*
X0079291Y0043685D01*
X0079349Y0043676D01*
X0079407Y0043663D01*
X0079464Y0043646D01*
X0079520Y0043625D01*
X0079574Y0043601D01*
X0079627Y0043574D01*
X0079678Y0043543D01*
X0079726Y0043509D01*
X0079773Y0043472D01*
X0079817Y0043432D01*
X0079858Y0043389D01*
X0079897Y0043344D01*
X0079932Y0043296D01*
X0079965Y0043247D01*
X0079994Y0043195D01*
X0080020Y0043141D01*
X0080042Y0043086D01*
X0080061Y0043030D01*
X0080076Y0042972D01*
X0080087Y0042914D01*
X0080095Y0042855D01*
X0080099Y0042796D01*
X0080099Y0042736D01*
X0080095Y0042677D01*
X0080087Y0042618D01*
X0080076Y0042560D01*
X0080061Y0042502D01*
X0080042Y0042446D01*
X0080020Y0042391D01*
X0079994Y0042337D01*
X0079965Y0042285D01*
X0079932Y0042236D01*
X0079897Y0042188D01*
X0079858Y0042143D01*
X0079817Y0042100D01*
X0079773Y0042060D01*
X0079726Y0042023D01*
X0079678Y0041989D01*
X0079627Y0041958D01*
X0079574Y0041931D01*
X0079520Y0041907D01*
X0079464Y0041886D01*
X0079407Y0041869D01*
X0079349Y0041856D01*
X0079291Y0041847D01*
X0079231Y0041841D01*
X0079172Y0041839D01*
X0078245Y0041839D01*
X0075467Y0043322D02*
X0075526Y0043324D01*
X0075586Y0043330D01*
X0075644Y0043339D01*
X0075702Y0043352D01*
X0075759Y0043369D01*
X0075815Y0043390D01*
X0075869Y0043414D01*
X0075922Y0043441D01*
X0075973Y0043472D01*
X0076021Y0043506D01*
X0076068Y0043543D01*
X0076112Y0043583D01*
X0076153Y0043626D01*
X0076192Y0043671D01*
X0076227Y0043719D01*
X0076260Y0043768D01*
X0076289Y0043820D01*
X0076315Y0043874D01*
X0076337Y0043929D01*
X0076356Y0043985D01*
X0076371Y0044043D01*
X0076382Y0044101D01*
X0076390Y0044160D01*
X0076394Y0044219D01*
X0076394Y0044279D01*
X0076390Y0044338D01*
X0076382Y0044397D01*
X0076371Y0044455D01*
X0076356Y0044513D01*
X0076337Y0044569D01*
X0076315Y0044624D01*
X0076289Y0044678D01*
X0076260Y0044730D01*
X0076227Y0044779D01*
X0076192Y0044827D01*
X0076153Y0044872D01*
X0076112Y0044915D01*
X0076068Y0044955D01*
X0076021Y0044992D01*
X0075973Y0045026D01*
X0075922Y0045057D01*
X0075869Y0045084D01*
X0075815Y0045108D01*
X0075759Y0045129D01*
X0075702Y0045146D01*
X0075644Y0045159D01*
X0075586Y0045168D01*
X0075526Y0045174D01*
X0075467Y0045176D01*
X0074540Y0045176D01*
X0083202Y0044458D02*
X0084129Y0045200D01*
X0084129Y0041863D01*
X0085055Y0041863D02*
X0083202Y0041863D01*
X0086873Y0041863D02*
X0086873Y0045200D01*
X0088356Y0044088D02*
X0086873Y0042975D01*
X0087522Y0043439D02*
X0088356Y0041863D01*
X0088308Y0053269D02*
X0090162Y0053269D01*
X0089235Y0053269D02*
X0089235Y0056606D01*
X0088308Y0055864D01*
X0088308Y0057993D02*
X0088308Y0061330D01*
X0089235Y0061330D01*
X0089294Y0061328D01*
X0089354Y0061322D01*
X0089412Y0061313D01*
X0089470Y0061300D01*
X0089527Y0061283D01*
X0089583Y0061262D01*
X0089637Y0061238D01*
X0089690Y0061211D01*
X0089741Y0061180D01*
X0089789Y0061146D01*
X0089836Y0061109D01*
X0089880Y0061069D01*
X0089921Y0061026D01*
X0089960Y0060981D01*
X0089995Y0060933D01*
X0090028Y0060884D01*
X0090057Y0060832D01*
X0090083Y0060778D01*
X0090105Y0060723D01*
X0090124Y0060667D01*
X0090139Y0060609D01*
X0090150Y0060551D01*
X0090158Y0060492D01*
X0090162Y0060433D01*
X0090162Y0060373D01*
X0090158Y0060314D01*
X0090150Y0060255D01*
X0090139Y0060197D01*
X0090124Y0060139D01*
X0090105Y0060083D01*
X0090083Y0060028D01*
X0090057Y0059974D01*
X0090028Y0059922D01*
X0089995Y0059873D01*
X0089960Y0059825D01*
X0089921Y0059780D01*
X0089880Y0059737D01*
X0089836Y0059697D01*
X0089789Y0059660D01*
X0089741Y0059626D01*
X0089690Y0059595D01*
X0089637Y0059568D01*
X0089583Y0059544D01*
X0089527Y0059523D01*
X0089470Y0059506D01*
X0089412Y0059493D01*
X0089354Y0059484D01*
X0089294Y0059478D01*
X0089235Y0059476D01*
X0088308Y0059476D01*
X0089420Y0059476D02*
X0090162Y0057993D01*
X0091633Y0057993D02*
X0092745Y0061330D01*
X0093857Y0057993D01*
X0093579Y0058827D02*
X0091911Y0058827D01*
X0091979Y0056606D02*
X0091979Y0053269D01*
X0091979Y0054381D02*
X0093463Y0055493D01*
X0092628Y0054844D02*
X0093463Y0053269D01*
X0101024Y0063505D02*
X0101951Y0063505D01*
X0102010Y0063507D01*
X0102070Y0063513D01*
X0102128Y0063522D01*
X0102186Y0063535D01*
X0102243Y0063552D01*
X0102299Y0063573D01*
X0102353Y0063597D01*
X0102406Y0063624D01*
X0102457Y0063655D01*
X0102505Y0063689D01*
X0102552Y0063726D01*
X0102596Y0063766D01*
X0102637Y0063809D01*
X0102676Y0063854D01*
X0102711Y0063902D01*
X0102744Y0063951D01*
X0102773Y0064003D01*
X0102799Y0064057D01*
X0102821Y0064112D01*
X0102840Y0064168D01*
X0102855Y0064226D01*
X0102866Y0064284D01*
X0102874Y0064343D01*
X0102878Y0064402D01*
X0102878Y0064462D01*
X0102874Y0064521D01*
X0102866Y0064580D01*
X0102855Y0064638D01*
X0102840Y0064696D01*
X0102821Y0064752D01*
X0102799Y0064807D01*
X0102773Y0064861D01*
X0102744Y0064913D01*
X0102711Y0064962D01*
X0102676Y0065010D01*
X0102637Y0065055D01*
X0102596Y0065098D01*
X0102552Y0065138D01*
X0102505Y0065175D01*
X0102457Y0065209D01*
X0102406Y0065240D01*
X0102353Y0065267D01*
X0102299Y0065291D01*
X0102243Y0065312D01*
X0102186Y0065329D01*
X0102128Y0065342D01*
X0102070Y0065351D01*
X0102010Y0065357D01*
X0101951Y0065359D01*
X0102137Y0065359D02*
X0101395Y0065359D01*
X0102137Y0065358D02*
X0102190Y0065360D01*
X0102243Y0065366D01*
X0102295Y0065375D01*
X0102346Y0065388D01*
X0102396Y0065405D01*
X0102445Y0065425D01*
X0102493Y0065449D01*
X0102538Y0065476D01*
X0102582Y0065506D01*
X0102623Y0065539D01*
X0102662Y0065575D01*
X0102698Y0065614D01*
X0102731Y0065655D01*
X0102761Y0065699D01*
X0102788Y0065744D01*
X0102812Y0065792D01*
X0102832Y0065841D01*
X0102849Y0065891D01*
X0102862Y0065942D01*
X0102871Y0065994D01*
X0102877Y0066047D01*
X0102879Y0066100D01*
X0102877Y0066153D01*
X0102871Y0066206D01*
X0102862Y0066258D01*
X0102849Y0066309D01*
X0102832Y0066359D01*
X0102812Y0066408D01*
X0102788Y0066456D01*
X0102761Y0066501D01*
X0102731Y0066545D01*
X0102698Y0066586D01*
X0102662Y0066625D01*
X0102623Y0066661D01*
X0102582Y0066694D01*
X0102538Y0066724D01*
X0102493Y0066751D01*
X0102445Y0066775D01*
X0102396Y0066795D01*
X0102346Y0066812D01*
X0102295Y0066825D01*
X0102243Y0066834D01*
X0102190Y0066840D01*
X0102137Y0066842D01*
X0101024Y0066842D01*
X0099217Y0066842D02*
X0099217Y0064432D01*
X0099215Y0064373D01*
X0099209Y0064313D01*
X0099200Y0064255D01*
X0099187Y0064197D01*
X0099170Y0064140D01*
X0099149Y0064084D01*
X0099125Y0064030D01*
X0099098Y0063977D01*
X0099067Y0063926D01*
X0099033Y0063878D01*
X0098996Y0063831D01*
X0098956Y0063787D01*
X0098913Y0063746D01*
X0098868Y0063707D01*
X0098820Y0063672D01*
X0098771Y0063639D01*
X0098719Y0063610D01*
X0098665Y0063584D01*
X0098610Y0063562D01*
X0098554Y0063543D01*
X0098496Y0063528D01*
X0098438Y0063517D01*
X0098379Y0063509D01*
X0098320Y0063505D01*
X0098260Y0063505D01*
X0098201Y0063509D01*
X0098142Y0063517D01*
X0098084Y0063528D01*
X0098026Y0063543D01*
X0097970Y0063562D01*
X0097915Y0063584D01*
X0097861Y0063610D01*
X0097809Y0063639D01*
X0097760Y0063672D01*
X0097712Y0063707D01*
X0097667Y0063746D01*
X0097624Y0063787D01*
X0097584Y0063831D01*
X0097547Y0063878D01*
X0097513Y0063926D01*
X0097482Y0063977D01*
X0097455Y0064030D01*
X0097431Y0064084D01*
X0097410Y0064140D01*
X0097393Y0064197D01*
X0097380Y0064255D01*
X0097371Y0064313D01*
X0097365Y0064373D01*
X0097363Y0064432D01*
X0097363Y0066842D01*
X0098367Y0069265D02*
X0098552Y0069265D01*
X0098552Y0069450D01*
X0098367Y0069450D01*
X0098367Y0069265D01*
X0100013Y0069265D02*
X0101866Y0069265D01*
X0100940Y0069265D02*
X0100940Y0072602D01*
X0100013Y0071860D01*
X0098895Y0073741D02*
X0097968Y0073741D01*
X0098895Y0073741D02*
X0098954Y0073743D01*
X0099014Y0073749D01*
X0099072Y0073758D01*
X0099130Y0073771D01*
X0099187Y0073788D01*
X0099243Y0073809D01*
X0099297Y0073833D01*
X0099350Y0073860D01*
X0099401Y0073891D01*
X0099449Y0073925D01*
X0099496Y0073962D01*
X0099540Y0074002D01*
X0099581Y0074045D01*
X0099620Y0074090D01*
X0099655Y0074138D01*
X0099688Y0074187D01*
X0099717Y0074239D01*
X0099743Y0074293D01*
X0099765Y0074348D01*
X0099784Y0074404D01*
X0099799Y0074462D01*
X0099810Y0074520D01*
X0099818Y0074579D01*
X0099822Y0074638D01*
X0099822Y0074698D01*
X0099818Y0074757D01*
X0099810Y0074816D01*
X0099799Y0074874D01*
X0099784Y0074932D01*
X0099765Y0074988D01*
X0099743Y0075043D01*
X0099717Y0075097D01*
X0099688Y0075149D01*
X0099655Y0075198D01*
X0099620Y0075246D01*
X0099581Y0075291D01*
X0099540Y0075334D01*
X0099496Y0075374D01*
X0099449Y0075411D01*
X0099401Y0075445D01*
X0099350Y0075476D01*
X0099297Y0075503D01*
X0099243Y0075527D01*
X0099187Y0075548D01*
X0099130Y0075565D01*
X0099072Y0075578D01*
X0099014Y0075587D01*
X0098954Y0075593D01*
X0098895Y0075595D01*
X0099081Y0075595D02*
X0098339Y0075595D01*
X0099081Y0075594D02*
X0099134Y0075596D01*
X0099187Y0075602D01*
X0099239Y0075611D01*
X0099290Y0075624D01*
X0099340Y0075641D01*
X0099389Y0075661D01*
X0099437Y0075685D01*
X0099482Y0075712D01*
X0099526Y0075742D01*
X0099567Y0075775D01*
X0099606Y0075811D01*
X0099642Y0075850D01*
X0099675Y0075891D01*
X0099705Y0075935D01*
X0099732Y0075980D01*
X0099756Y0076028D01*
X0099776Y0076077D01*
X0099793Y0076127D01*
X0099806Y0076178D01*
X0099815Y0076230D01*
X0099821Y0076283D01*
X0099823Y0076336D01*
X0099821Y0076389D01*
X0099815Y0076442D01*
X0099806Y0076494D01*
X0099793Y0076545D01*
X0099776Y0076595D01*
X0099756Y0076644D01*
X0099732Y0076692D01*
X0099705Y0076737D01*
X0099675Y0076781D01*
X0099642Y0076822D01*
X0099606Y0076861D01*
X0099567Y0076897D01*
X0099526Y0076930D01*
X0099482Y0076960D01*
X0099437Y0076987D01*
X0099389Y0077011D01*
X0099340Y0077031D01*
X0099290Y0077048D01*
X0099239Y0077061D01*
X0099187Y0077070D01*
X0099134Y0077076D01*
X0099081Y0077078D01*
X0097968Y0077078D01*
X0096484Y0077078D02*
X0095742Y0077078D01*
X0095689Y0077076D01*
X0095636Y0077070D01*
X0095584Y0077061D01*
X0095533Y0077048D01*
X0095483Y0077031D01*
X0095434Y0077011D01*
X0095386Y0076987D01*
X0095341Y0076960D01*
X0095297Y0076930D01*
X0095256Y0076897D01*
X0095217Y0076861D01*
X0095181Y0076822D01*
X0095148Y0076781D01*
X0095118Y0076737D01*
X0095091Y0076692D01*
X0095067Y0076644D01*
X0095047Y0076595D01*
X0095030Y0076545D01*
X0095017Y0076494D01*
X0095008Y0076442D01*
X0095002Y0076389D01*
X0095000Y0076336D01*
X0095001Y0076336D02*
X0095001Y0074482D01*
X0095000Y0074482D02*
X0095002Y0074429D01*
X0095008Y0074376D01*
X0095017Y0074324D01*
X0095030Y0074273D01*
X0095047Y0074223D01*
X0095067Y0074174D01*
X0095091Y0074126D01*
X0095118Y0074081D01*
X0095148Y0074037D01*
X0095181Y0073996D01*
X0095217Y0073957D01*
X0095256Y0073921D01*
X0095297Y0073888D01*
X0095341Y0073858D01*
X0095386Y0073831D01*
X0095434Y0073807D01*
X0095483Y0073787D01*
X0095533Y0073770D01*
X0095584Y0073757D01*
X0095636Y0073748D01*
X0095689Y0073742D01*
X0095742Y0073740D01*
X0095742Y0073741D02*
X0096484Y0073741D01*
X0095979Y0072602D02*
X0096029Y0072600D01*
X0096079Y0072595D01*
X0096128Y0072586D01*
X0096176Y0072573D01*
X0096224Y0072557D01*
X0096270Y0072537D01*
X0096314Y0072514D01*
X0096357Y0072488D01*
X0096398Y0072459D01*
X0096436Y0072427D01*
X0096472Y0072393D01*
X0096506Y0072355D01*
X0096536Y0072316D01*
X0096564Y0072274D01*
X0096589Y0072230D01*
X0096610Y0072185D01*
X0096628Y0072138D01*
X0096720Y0071860D02*
X0095237Y0070006D01*
X0095979Y0069264D02*
X0096029Y0069266D01*
X0096079Y0069271D01*
X0096128Y0069280D01*
X0096176Y0069293D01*
X0096224Y0069309D01*
X0096270Y0069329D01*
X0096314Y0069352D01*
X0096357Y0069378D01*
X0096398Y0069407D01*
X0096436Y0069439D01*
X0096472Y0069473D01*
X0096506Y0069511D01*
X0096536Y0069550D01*
X0096564Y0069592D01*
X0096589Y0069636D01*
X0096610Y0069681D01*
X0096628Y0069728D01*
X0095979Y0069265D02*
X0095929Y0069267D01*
X0095879Y0069272D01*
X0095830Y0069281D01*
X0095782Y0069294D01*
X0095734Y0069310D01*
X0095688Y0069330D01*
X0095644Y0069353D01*
X0095601Y0069379D01*
X0095560Y0069408D01*
X0095522Y0069440D01*
X0095486Y0069474D01*
X0095452Y0069512D01*
X0095422Y0069551D01*
X0095394Y0069593D01*
X0095369Y0069637D01*
X0095348Y0069682D01*
X0095330Y0069729D01*
X0096906Y0070933D02*
X0096904Y0071037D01*
X0096898Y0071141D01*
X0096888Y0071244D01*
X0096875Y0071347D01*
X0096857Y0071450D01*
X0096836Y0071551D01*
X0096810Y0071652D01*
X0096781Y0071752D01*
X0096748Y0071851D01*
X0096712Y0071948D01*
X0096672Y0072044D01*
X0096628Y0072138D01*
X0095979Y0072602D02*
X0095929Y0072600D01*
X0095879Y0072595D01*
X0095830Y0072586D01*
X0095782Y0072573D01*
X0095734Y0072557D01*
X0095688Y0072537D01*
X0095644Y0072514D01*
X0095601Y0072488D01*
X0095560Y0072459D01*
X0095522Y0072427D01*
X0095486Y0072393D01*
X0095452Y0072355D01*
X0095422Y0072316D01*
X0095394Y0072274D01*
X0095369Y0072230D01*
X0095348Y0072185D01*
X0095330Y0072138D01*
X0096906Y0070933D02*
X0096904Y0070829D01*
X0096898Y0070725D01*
X0096888Y0070622D01*
X0096875Y0070519D01*
X0096857Y0070416D01*
X0096836Y0070315D01*
X0096810Y0070214D01*
X0096781Y0070114D01*
X0096748Y0070015D01*
X0096712Y0069918D01*
X0096672Y0069822D01*
X0096628Y0069728D01*
X0095052Y0070933D02*
X0095054Y0071037D01*
X0095060Y0071141D01*
X0095070Y0071244D01*
X0095083Y0071347D01*
X0095101Y0071450D01*
X0095122Y0071551D01*
X0095148Y0071652D01*
X0095177Y0071752D01*
X0095210Y0071851D01*
X0095246Y0071948D01*
X0095286Y0072044D01*
X0095330Y0072138D01*
X0095052Y0070933D02*
X0095054Y0070829D01*
X0095060Y0070725D01*
X0095070Y0070622D01*
X0095083Y0070519D01*
X0095101Y0070416D01*
X0095122Y0070315D01*
X0095148Y0070214D01*
X0095177Y0070114D01*
X0095210Y0070015D01*
X0095246Y0069918D01*
X0095286Y0069822D01*
X0095330Y0069728D01*
X0103623Y0069821D02*
X0103623Y0071489D01*
X0105106Y0071489D02*
X0105106Y0069265D01*
X0104179Y0069265D01*
X0104133Y0069267D01*
X0104087Y0069273D01*
X0104043Y0069282D01*
X0103998Y0069295D01*
X0103956Y0069312D01*
X0103914Y0069332D01*
X0103875Y0069356D01*
X0103837Y0069382D01*
X0103802Y0069412D01*
X0103770Y0069444D01*
X0103740Y0069479D01*
X0103714Y0069517D01*
X0103690Y0069556D01*
X0103670Y0069598D01*
X0103653Y0069640D01*
X0103640Y0069685D01*
X0103631Y0069729D01*
X0103625Y0069775D01*
X0103623Y0069821D01*
X0106991Y0069265D02*
X0106991Y0072602D01*
X0108474Y0072602D01*
X0108474Y0071118D02*
X0106991Y0071118D01*
X0115524Y0057420D02*
X0116451Y0057420D01*
X0116451Y0057421D02*
X0116510Y0057419D01*
X0116570Y0057413D01*
X0116628Y0057404D01*
X0116686Y0057391D01*
X0116743Y0057374D01*
X0116799Y0057353D01*
X0116853Y0057329D01*
X0116906Y0057302D01*
X0116957Y0057271D01*
X0117005Y0057237D01*
X0117052Y0057200D01*
X0117096Y0057160D01*
X0117137Y0057117D01*
X0117176Y0057072D01*
X0117211Y0057024D01*
X0117244Y0056975D01*
X0117273Y0056923D01*
X0117299Y0056869D01*
X0117321Y0056814D01*
X0117340Y0056758D01*
X0117355Y0056700D01*
X0117366Y0056642D01*
X0117374Y0056583D01*
X0117378Y0056524D01*
X0117378Y0056464D01*
X0117374Y0056405D01*
X0117366Y0056346D01*
X0117355Y0056288D01*
X0117340Y0056230D01*
X0117321Y0056174D01*
X0117299Y0056119D01*
X0117273Y0056065D01*
X0117244Y0056013D01*
X0117211Y0055964D01*
X0117176Y0055916D01*
X0117137Y0055871D01*
X0117096Y0055828D01*
X0117052Y0055788D01*
X0117005Y0055751D01*
X0116957Y0055717D01*
X0116906Y0055686D01*
X0116853Y0055659D01*
X0116799Y0055635D01*
X0116743Y0055614D01*
X0116686Y0055597D01*
X0116628Y0055584D01*
X0116570Y0055575D01*
X0116510Y0055569D01*
X0116451Y0055567D01*
X0115524Y0055567D01*
X0116637Y0055567D02*
X0117378Y0054083D01*
X0119035Y0054083D02*
X0119962Y0054083D01*
X0120021Y0054085D01*
X0120081Y0054091D01*
X0120139Y0054100D01*
X0120197Y0054113D01*
X0120254Y0054130D01*
X0120310Y0054151D01*
X0120364Y0054175D01*
X0120417Y0054202D01*
X0120468Y0054233D01*
X0120516Y0054267D01*
X0120563Y0054304D01*
X0120607Y0054344D01*
X0120648Y0054387D01*
X0120687Y0054432D01*
X0120722Y0054480D01*
X0120755Y0054529D01*
X0120784Y0054581D01*
X0120810Y0054635D01*
X0120832Y0054690D01*
X0120851Y0054746D01*
X0120866Y0054804D01*
X0120877Y0054862D01*
X0120885Y0054921D01*
X0120889Y0054980D01*
X0120889Y0055040D01*
X0120885Y0055099D01*
X0120877Y0055158D01*
X0120866Y0055216D01*
X0120851Y0055274D01*
X0120832Y0055330D01*
X0120810Y0055385D01*
X0120784Y0055439D01*
X0120755Y0055491D01*
X0120722Y0055540D01*
X0120687Y0055588D01*
X0120648Y0055633D01*
X0120607Y0055676D01*
X0120563Y0055716D01*
X0120516Y0055753D01*
X0120468Y0055787D01*
X0120417Y0055818D01*
X0120364Y0055845D01*
X0120310Y0055869D01*
X0120254Y0055890D01*
X0120197Y0055907D01*
X0120139Y0055920D01*
X0120081Y0055929D01*
X0120021Y0055935D01*
X0119962Y0055937D01*
X0120147Y0055937D02*
X0119405Y0055937D01*
X0120147Y0055937D02*
X0120200Y0055939D01*
X0120253Y0055945D01*
X0120305Y0055954D01*
X0120356Y0055967D01*
X0120406Y0055984D01*
X0120455Y0056004D01*
X0120503Y0056028D01*
X0120548Y0056055D01*
X0120592Y0056085D01*
X0120633Y0056118D01*
X0120672Y0056154D01*
X0120708Y0056193D01*
X0120741Y0056234D01*
X0120771Y0056278D01*
X0120798Y0056323D01*
X0120822Y0056371D01*
X0120842Y0056420D01*
X0120859Y0056470D01*
X0120872Y0056521D01*
X0120881Y0056573D01*
X0120887Y0056626D01*
X0120889Y0056679D01*
X0120887Y0056732D01*
X0120881Y0056785D01*
X0120872Y0056837D01*
X0120859Y0056888D01*
X0120842Y0056938D01*
X0120822Y0056987D01*
X0120798Y0057035D01*
X0120771Y0057080D01*
X0120741Y0057124D01*
X0120708Y0057165D01*
X0120672Y0057204D01*
X0120633Y0057240D01*
X0120592Y0057273D01*
X0120548Y0057303D01*
X0120503Y0057330D01*
X0120455Y0057354D01*
X0120406Y0057374D01*
X0120356Y0057391D01*
X0120305Y0057404D01*
X0120253Y0057413D01*
X0120200Y0057419D01*
X0120147Y0057421D01*
X0120147Y0057420D02*
X0119035Y0057420D01*
X0115524Y0057420D02*
X0115524Y0054083D01*
X0115270Y0045633D02*
X0114343Y0044892D01*
X0115270Y0045633D02*
X0115270Y0042296D01*
X0114343Y0042296D02*
X0116197Y0042296D01*
X0119463Y0042760D02*
X0119507Y0042854D01*
X0119547Y0042950D01*
X0119583Y0043047D01*
X0119616Y0043146D01*
X0119645Y0043246D01*
X0119671Y0043347D01*
X0119692Y0043448D01*
X0119710Y0043551D01*
X0119723Y0043654D01*
X0119733Y0043757D01*
X0119739Y0043861D01*
X0119741Y0043965D01*
X0117887Y0043965D02*
X0117889Y0044069D01*
X0117895Y0044173D01*
X0117905Y0044276D01*
X0117918Y0044379D01*
X0117936Y0044482D01*
X0117957Y0044583D01*
X0117983Y0044684D01*
X0118012Y0044784D01*
X0118045Y0044883D01*
X0118081Y0044980D01*
X0118121Y0045076D01*
X0118165Y0045170D01*
X0118814Y0045633D02*
X0118864Y0045631D01*
X0118914Y0045626D01*
X0118963Y0045617D01*
X0119011Y0045604D01*
X0119059Y0045588D01*
X0119105Y0045568D01*
X0119149Y0045545D01*
X0119192Y0045519D01*
X0119233Y0045490D01*
X0119271Y0045458D01*
X0119307Y0045424D01*
X0119341Y0045386D01*
X0119371Y0045347D01*
X0119399Y0045305D01*
X0119424Y0045261D01*
X0119445Y0045216D01*
X0119463Y0045169D01*
X0119555Y0044892D02*
X0118072Y0043038D01*
X0118814Y0042296D02*
X0118864Y0042298D01*
X0118914Y0042303D01*
X0118963Y0042312D01*
X0119011Y0042325D01*
X0119059Y0042341D01*
X0119105Y0042361D01*
X0119149Y0042384D01*
X0119192Y0042410D01*
X0119233Y0042439D01*
X0119271Y0042471D01*
X0119307Y0042505D01*
X0119341Y0042543D01*
X0119371Y0042582D01*
X0119399Y0042624D01*
X0119424Y0042668D01*
X0119445Y0042713D01*
X0119463Y0042760D01*
X0118814Y0042296D02*
X0118764Y0042298D01*
X0118714Y0042303D01*
X0118665Y0042312D01*
X0118617Y0042325D01*
X0118569Y0042341D01*
X0118523Y0042361D01*
X0118479Y0042384D01*
X0118436Y0042410D01*
X0118395Y0042439D01*
X0118357Y0042471D01*
X0118321Y0042505D01*
X0118287Y0042543D01*
X0118257Y0042582D01*
X0118229Y0042624D01*
X0118204Y0042668D01*
X0118183Y0042713D01*
X0118165Y0042760D01*
X0119741Y0043965D02*
X0119739Y0044069D01*
X0119733Y0044173D01*
X0119723Y0044276D01*
X0119710Y0044379D01*
X0119692Y0044482D01*
X0119671Y0044583D01*
X0119645Y0044684D01*
X0119616Y0044784D01*
X0119583Y0044883D01*
X0119547Y0044980D01*
X0119507Y0045076D01*
X0119463Y0045170D01*
X0118814Y0045633D02*
X0118764Y0045631D01*
X0118714Y0045626D01*
X0118665Y0045617D01*
X0118617Y0045604D01*
X0118569Y0045588D01*
X0118523Y0045568D01*
X0118479Y0045545D01*
X0118436Y0045519D01*
X0118395Y0045490D01*
X0118357Y0045458D01*
X0118321Y0045424D01*
X0118287Y0045386D01*
X0118257Y0045347D01*
X0118229Y0045305D01*
X0118204Y0045261D01*
X0118183Y0045216D01*
X0118165Y0045169D01*
X0117887Y0043965D02*
X0117889Y0043861D01*
X0117895Y0043757D01*
X0117905Y0043654D01*
X0117918Y0043551D01*
X0117936Y0043448D01*
X0117957Y0043347D01*
X0117983Y0043246D01*
X0118012Y0043146D01*
X0118045Y0043047D01*
X0118081Y0042950D01*
X0118121Y0042854D01*
X0118165Y0042760D01*
X0121558Y0042296D02*
X0121558Y0045633D01*
X0123041Y0044521D02*
X0121558Y0043408D01*
X0122207Y0043872D02*
X0123041Y0042296D01*
X0134425Y0058614D02*
X0134579Y0058612D01*
X0134733Y0058606D01*
X0134887Y0058596D01*
X0135041Y0058582D01*
X0135194Y0058565D01*
X0135346Y0058543D01*
X0135498Y0058517D01*
X0135650Y0058488D01*
X0135800Y0058454D01*
X0135950Y0058417D01*
X0136098Y0058376D01*
X0136246Y0058331D01*
X0136392Y0058282D01*
X0136537Y0058230D01*
X0136680Y0058174D01*
X0136823Y0058114D01*
X0136963Y0058051D01*
X0137102Y0057984D01*
X0137239Y0057913D01*
X0137374Y0057839D01*
X0137507Y0057762D01*
X0137639Y0057681D01*
X0137768Y0057597D01*
X0137895Y0057509D01*
X0138019Y0057418D01*
X0138141Y0057325D01*
X0138261Y0057227D01*
X0138378Y0057127D01*
X0138493Y0057024D01*
X0138605Y0056918D01*
X0138714Y0056810D01*
X0138820Y0056698D01*
X0138924Y0056584D01*
X0139024Y0056467D01*
X0139122Y0056348D01*
X0139216Y0056226D01*
X0139307Y0056101D01*
X0134425Y0046614D02*
X0134273Y0046616D01*
X0134122Y0046622D01*
X0133971Y0046631D01*
X0133819Y0046645D01*
X0133669Y0046662D01*
X0133519Y0046683D01*
X0133369Y0046708D01*
X0133220Y0046736D01*
X0133072Y0046769D01*
X0132925Y0046805D01*
X0132778Y0046844D01*
X0132633Y0046888D01*
X0132489Y0046935D01*
X0132346Y0046986D01*
X0132205Y0047040D01*
X0132064Y0047098D01*
X0131926Y0047159D01*
X0131789Y0047224D01*
X0131653Y0047293D01*
X0131520Y0047364D01*
X0131388Y0047439D01*
X0131258Y0047518D01*
X0131131Y0047599D01*
X0131005Y0047684D01*
X0130881Y0047772D01*
X0130760Y0047863D01*
X0130641Y0047957D01*
X0130525Y0048055D01*
X0130411Y0048155D01*
X0130299Y0048257D01*
X0130191Y0048363D01*
X0130085Y0048471D01*
X0129981Y0048582D01*
X0129881Y0048696D01*
X0129783Y0048812D01*
X0129689Y0048931D01*
X0134425Y0046614D02*
X0134577Y0046616D01*
X0134728Y0046622D01*
X0134879Y0046631D01*
X0135031Y0046645D01*
X0135181Y0046662D01*
X0135331Y0046683D01*
X0135481Y0046708D01*
X0135630Y0046736D01*
X0135778Y0046769D01*
X0135925Y0046805D01*
X0136072Y0046844D01*
X0136217Y0046888D01*
X0136361Y0046935D01*
X0136504Y0046986D01*
X0136645Y0047040D01*
X0136786Y0047098D01*
X0136924Y0047159D01*
X0137061Y0047224D01*
X0137197Y0047293D01*
X0137330Y0047364D01*
X0137462Y0047439D01*
X0137592Y0047518D01*
X0137719Y0047599D01*
X0137845Y0047684D01*
X0137969Y0047772D01*
X0138090Y0047863D01*
X0138209Y0047957D01*
X0138325Y0048055D01*
X0138439Y0048155D01*
X0138551Y0048257D01*
X0138659Y0048363D01*
X0138765Y0048471D01*
X0138869Y0048582D01*
X0138969Y0048696D01*
X0139067Y0048812D01*
X0139161Y0048931D01*
X0134425Y0058614D02*
X0134275Y0058612D01*
X0134124Y0058606D01*
X0133974Y0058597D01*
X0133825Y0058584D01*
X0133675Y0058567D01*
X0133526Y0058546D01*
X0133378Y0058522D01*
X0133230Y0058494D01*
X0133083Y0058462D01*
X0132937Y0058427D01*
X0132792Y0058387D01*
X0132648Y0058345D01*
X0132505Y0058298D01*
X0132363Y0058248D01*
X0132222Y0058195D01*
X0132083Y0058138D01*
X0131945Y0058078D01*
X0131809Y0058014D01*
X0131675Y0057947D01*
X0131542Y0057876D01*
X0131411Y0057802D01*
X0131282Y0057725D01*
X0131155Y0057644D01*
X0131030Y0057561D01*
X0130907Y0057474D01*
X0130786Y0057385D01*
X0130668Y0057292D01*
X0130552Y0057196D01*
X0130438Y0057098D01*
X0130327Y0056997D01*
X0130218Y0056892D01*
X0130113Y0056786D01*
X0130009Y0056676D01*
X0129909Y0056564D01*
X0129811Y0056450D01*
X0129717Y0056333D01*
X0129625Y0056214D01*
X0131989Y0062288D02*
X0132916Y0062288D01*
X0131989Y0062288D02*
X0131989Y0065625D01*
X0132916Y0065625D01*
X0132974Y0065623D01*
X0133032Y0065618D01*
X0133090Y0065609D01*
X0133147Y0065596D01*
X0133202Y0065580D01*
X0133257Y0065560D01*
X0133311Y0065537D01*
X0133363Y0065510D01*
X0133413Y0065481D01*
X0133461Y0065448D01*
X0133507Y0065412D01*
X0133551Y0065374D01*
X0133592Y0065333D01*
X0133630Y0065289D01*
X0133666Y0065243D01*
X0133699Y0065195D01*
X0133728Y0065145D01*
X0133755Y0065093D01*
X0133778Y0065039D01*
X0133798Y0064984D01*
X0133814Y0064929D01*
X0133827Y0064872D01*
X0133836Y0064814D01*
X0133841Y0064756D01*
X0133843Y0064698D01*
X0133843Y0063215D01*
X0133841Y0063157D01*
X0133836Y0063099D01*
X0133827Y0063041D01*
X0133814Y0062984D01*
X0133798Y0062929D01*
X0133778Y0062874D01*
X0133755Y0062820D01*
X0133728Y0062768D01*
X0133699Y0062718D01*
X0133666Y0062670D01*
X0133630Y0062624D01*
X0133592Y0062580D01*
X0133551Y0062539D01*
X0133507Y0062501D01*
X0133461Y0062465D01*
X0133413Y0062432D01*
X0133363Y0062403D01*
X0133311Y0062376D01*
X0133257Y0062353D01*
X0133202Y0062333D01*
X0133147Y0062317D01*
X0133090Y0062304D01*
X0133032Y0062295D01*
X0132974Y0062290D01*
X0132916Y0062288D01*
X0135650Y0062288D02*
X0137504Y0062288D01*
X0136577Y0062288D02*
X0136577Y0065625D01*
X0135650Y0064884D01*
X0104859Y0092906D02*
X0103375Y0092906D01*
X0103375Y0094389D02*
X0103375Y0091052D01*
X0101591Y0091052D02*
X0100849Y0092535D01*
X0100664Y0092535D02*
X0099737Y0092535D01*
X0100664Y0092535D02*
X0100723Y0092537D01*
X0100783Y0092543D01*
X0100841Y0092552D01*
X0100899Y0092565D01*
X0100956Y0092582D01*
X0101012Y0092603D01*
X0101066Y0092627D01*
X0101119Y0092654D01*
X0101170Y0092685D01*
X0101218Y0092719D01*
X0101265Y0092756D01*
X0101309Y0092796D01*
X0101350Y0092839D01*
X0101389Y0092884D01*
X0101424Y0092932D01*
X0101457Y0092981D01*
X0101486Y0093033D01*
X0101512Y0093087D01*
X0101534Y0093142D01*
X0101553Y0093198D01*
X0101568Y0093256D01*
X0101579Y0093314D01*
X0101587Y0093373D01*
X0101591Y0093432D01*
X0101591Y0093492D01*
X0101587Y0093551D01*
X0101579Y0093610D01*
X0101568Y0093668D01*
X0101553Y0093726D01*
X0101534Y0093782D01*
X0101512Y0093837D01*
X0101486Y0093891D01*
X0101457Y0093943D01*
X0101424Y0093992D01*
X0101389Y0094040D01*
X0101350Y0094085D01*
X0101309Y0094128D01*
X0101265Y0094168D01*
X0101218Y0094205D01*
X0101170Y0094239D01*
X0101119Y0094270D01*
X0101066Y0094297D01*
X0101012Y0094321D01*
X0100956Y0094342D01*
X0100899Y0094359D01*
X0100841Y0094372D01*
X0100783Y0094381D01*
X0100723Y0094387D01*
X0100664Y0094389D01*
X0099737Y0094389D01*
X0099737Y0091052D01*
X0103375Y0094389D02*
X0104859Y0094389D01*
X0116409Y0109269D02*
X0116407Y0109322D01*
X0116401Y0109375D01*
X0116392Y0109427D01*
X0116379Y0109478D01*
X0116362Y0109528D01*
X0116342Y0109577D01*
X0116318Y0109625D01*
X0116291Y0109670D01*
X0116261Y0109714D01*
X0116228Y0109755D01*
X0116192Y0109794D01*
X0116153Y0109830D01*
X0116112Y0109863D01*
X0116068Y0109893D01*
X0116023Y0109920D01*
X0115975Y0109944D01*
X0115926Y0109964D01*
X0115876Y0109981D01*
X0115825Y0109994D01*
X0115773Y0110003D01*
X0115720Y0110009D01*
X0115667Y0110011D01*
X0113072Y0110011D01*
X0114555Y0111797D02*
X0115482Y0111797D01*
X0114555Y0111797D02*
X0114555Y0112910D01*
X0114555Y0111797D02*
X0114480Y0111799D01*
X0114405Y0111805D01*
X0114330Y0111814D01*
X0114256Y0111827D01*
X0114183Y0111844D01*
X0114111Y0111865D01*
X0114040Y0111889D01*
X0113970Y0111917D01*
X0113902Y0111949D01*
X0113835Y0111983D01*
X0113771Y0112021D01*
X0113708Y0112063D01*
X0113647Y0112107D01*
X0113589Y0112155D01*
X0113533Y0112205D01*
X0113480Y0112258D01*
X0113430Y0112314D01*
X0113382Y0112372D01*
X0113338Y0112433D01*
X0113296Y0112496D01*
X0113258Y0112560D01*
X0113224Y0112627D01*
X0113192Y0112695D01*
X0113164Y0112765D01*
X0113140Y0112836D01*
X0113119Y0112908D01*
X0113102Y0112981D01*
X0113089Y0113055D01*
X0113080Y0113130D01*
X0113074Y0113205D01*
X0113072Y0113280D01*
X0114554Y0112910D02*
X0114556Y0112963D01*
X0114562Y0113016D01*
X0114571Y0113068D01*
X0114584Y0113119D01*
X0114601Y0113169D01*
X0114621Y0113218D01*
X0114645Y0113266D01*
X0114672Y0113311D01*
X0114702Y0113355D01*
X0114735Y0113396D01*
X0114771Y0113435D01*
X0114810Y0113471D01*
X0114851Y0113504D01*
X0114895Y0113534D01*
X0114940Y0113561D01*
X0114988Y0113585D01*
X0115037Y0113605D01*
X0115087Y0113622D01*
X0115138Y0113635D01*
X0115190Y0113644D01*
X0115243Y0113650D01*
X0115296Y0113652D01*
X0115296Y0113651D02*
X0115482Y0113651D01*
X0115541Y0113649D01*
X0115601Y0113643D01*
X0115659Y0113634D01*
X0115717Y0113621D01*
X0115774Y0113604D01*
X0115830Y0113583D01*
X0115884Y0113559D01*
X0115937Y0113532D01*
X0115988Y0113501D01*
X0116036Y0113467D01*
X0116083Y0113430D01*
X0116127Y0113390D01*
X0116168Y0113347D01*
X0116207Y0113302D01*
X0116242Y0113254D01*
X0116275Y0113205D01*
X0116304Y0113153D01*
X0116330Y0113099D01*
X0116352Y0113044D01*
X0116371Y0112988D01*
X0116386Y0112930D01*
X0116397Y0112872D01*
X0116405Y0112813D01*
X0116409Y0112754D01*
X0116409Y0112694D01*
X0116405Y0112635D01*
X0116397Y0112576D01*
X0116386Y0112518D01*
X0116371Y0112460D01*
X0116352Y0112404D01*
X0116330Y0112349D01*
X0116304Y0112295D01*
X0116275Y0112243D01*
X0116242Y0112194D01*
X0116207Y0112146D01*
X0116168Y0112101D01*
X0116127Y0112058D01*
X0116083Y0112018D01*
X0116036Y0111981D01*
X0115988Y0111947D01*
X0115937Y0111916D01*
X0115884Y0111889D01*
X0115830Y0111865D01*
X0115774Y0111844D01*
X0115717Y0111827D01*
X0115659Y0111814D01*
X0115601Y0111805D01*
X0115541Y0111799D01*
X0115482Y0111797D01*
X0116409Y0109269D02*
X0116409Y0108898D01*
X0085489Y0080686D02*
X0085489Y0075586D01*
X0085489Y0073186D01*
X0085489Y0068086D01*
X0085189Y0072386D02*
X0085101Y0072388D01*
X0085012Y0072394D01*
X0084924Y0072404D01*
X0084837Y0072417D01*
X0084750Y0072435D01*
X0084664Y0072456D01*
X0084579Y0072481D01*
X0084496Y0072510D01*
X0084413Y0072543D01*
X0084333Y0072579D01*
X0084254Y0072618D01*
X0084176Y0072661D01*
X0084101Y0072708D01*
X0084028Y0072758D01*
X0083957Y0072811D01*
X0083888Y0072867D01*
X0083822Y0072926D01*
X0083759Y0072988D01*
X0083699Y0073052D01*
X0083641Y0073119D01*
X0083587Y0073189D01*
X0083535Y0073261D01*
X0083487Y0073335D01*
X0083442Y0073412D01*
X0083401Y0073490D01*
X0083363Y0073570D01*
X0083329Y0073651D01*
X0083298Y0073734D01*
X0083271Y0073819D01*
X0083248Y0073904D01*
X0083229Y0073990D01*
X0083213Y0074078D01*
X0083201Y0074165D01*
X0083193Y0074253D01*
X0083189Y0074342D01*
X0083189Y0074430D01*
X0083193Y0074519D01*
X0083201Y0074607D01*
X0083213Y0074694D01*
X0083229Y0074782D01*
X0083248Y0074868D01*
X0083271Y0074953D01*
X0083298Y0075038D01*
X0083329Y0075121D01*
X0083363Y0075202D01*
X0083401Y0075282D01*
X0083442Y0075360D01*
X0083487Y0075437D01*
X0083535Y0075511D01*
X0083587Y0075583D01*
X0083641Y0075653D01*
X0083699Y0075720D01*
X0083759Y0075784D01*
X0083822Y0075846D01*
X0083888Y0075905D01*
X0083957Y0075961D01*
X0084028Y0076014D01*
X0084101Y0076064D01*
X0084176Y0076111D01*
X0084254Y0076154D01*
X0084333Y0076193D01*
X0084413Y0076229D01*
X0084496Y0076262D01*
X0084579Y0076291D01*
X0084664Y0076316D01*
X0084750Y0076337D01*
X0084837Y0076355D01*
X0084924Y0076368D01*
X0085012Y0076378D01*
X0085101Y0076384D01*
X0085189Y0076386D01*
X0068044Y0099753D02*
X0068044Y0103090D01*
X0068971Y0103090D01*
X0060244Y0101881D02*
X0060244Y0098544D01*
X0059317Y0098544D02*
X0061171Y0098544D01*
X0059317Y0101140D02*
X0060244Y0101881D01*
X0057530Y0101881D02*
X0057530Y0099286D01*
X0057531Y0099286D02*
X0057529Y0099233D01*
X0057523Y0099180D01*
X0057514Y0099128D01*
X0057501Y0099077D01*
X0057484Y0099027D01*
X0057464Y0098978D01*
X0057440Y0098930D01*
X0057413Y0098885D01*
X0057383Y0098841D01*
X0057350Y0098800D01*
X0057314Y0098761D01*
X0057275Y0098725D01*
X0057234Y0098692D01*
X0057190Y0098662D01*
X0057145Y0098635D01*
X0057097Y0098611D01*
X0057048Y0098591D01*
X0056998Y0098574D01*
X0056947Y0098561D01*
X0056895Y0098552D01*
X0056842Y0098546D01*
X0056789Y0098544D01*
X0056418Y0098544D01*
X0055806Y0079301D02*
X0054230Y0078467D01*
X0054694Y0077818D02*
X0053582Y0079301D01*
X0052469Y0077818D02*
X0055806Y0077818D01*
X0055343Y0074424D02*
X0055249Y0074380D01*
X0055153Y0074340D01*
X0055056Y0074304D01*
X0054957Y0074271D01*
X0054857Y0074242D01*
X0054756Y0074216D01*
X0054655Y0074195D01*
X0054552Y0074177D01*
X0054449Y0074164D01*
X0054346Y0074154D01*
X0054242Y0074148D01*
X0054138Y0074146D01*
X0054138Y0076000D02*
X0054034Y0075998D01*
X0053930Y0075992D01*
X0053827Y0075982D01*
X0053724Y0075969D01*
X0053621Y0075951D01*
X0053520Y0075930D01*
X0053419Y0075904D01*
X0053319Y0075875D01*
X0053220Y0075842D01*
X0053123Y0075806D01*
X0053027Y0075766D01*
X0052933Y0075722D01*
X0053211Y0075815D02*
X0055065Y0074332D01*
X0055806Y0075073D02*
X0055804Y0075123D01*
X0055799Y0075173D01*
X0055790Y0075222D01*
X0055777Y0075270D01*
X0055761Y0075318D01*
X0055741Y0075364D01*
X0055718Y0075408D01*
X0055692Y0075451D01*
X0055663Y0075492D01*
X0055631Y0075530D01*
X0055597Y0075566D01*
X0055559Y0075600D01*
X0055520Y0075630D01*
X0055478Y0075658D01*
X0055434Y0075683D01*
X0055389Y0075704D01*
X0055342Y0075722D01*
X0055806Y0075073D02*
X0055804Y0075023D01*
X0055799Y0074973D01*
X0055790Y0074924D01*
X0055777Y0074876D01*
X0055761Y0074828D01*
X0055741Y0074782D01*
X0055718Y0074738D01*
X0055692Y0074695D01*
X0055663Y0074654D01*
X0055631Y0074616D01*
X0055597Y0074580D01*
X0055559Y0074546D01*
X0055520Y0074516D01*
X0055478Y0074488D01*
X0055434Y0074463D01*
X0055389Y0074442D01*
X0055342Y0074424D01*
X0055343Y0075722D02*
X0055249Y0075766D01*
X0055153Y0075806D01*
X0055056Y0075842D01*
X0054957Y0075875D01*
X0054857Y0075904D01*
X0054756Y0075930D01*
X0054655Y0075951D01*
X0054552Y0075969D01*
X0054449Y0075982D01*
X0054346Y0075992D01*
X0054242Y0075998D01*
X0054138Y0076000D01*
X0054138Y0074146D02*
X0054034Y0074148D01*
X0053930Y0074154D01*
X0053827Y0074164D01*
X0053724Y0074177D01*
X0053621Y0074195D01*
X0053520Y0074216D01*
X0053419Y0074242D01*
X0053319Y0074271D01*
X0053220Y0074304D01*
X0053123Y0074340D01*
X0053027Y0074380D01*
X0052933Y0074424D01*
X0052469Y0075073D02*
X0052471Y0075123D01*
X0052476Y0075173D01*
X0052485Y0075222D01*
X0052498Y0075270D01*
X0052514Y0075318D01*
X0052534Y0075364D01*
X0052557Y0075408D01*
X0052583Y0075451D01*
X0052612Y0075492D01*
X0052644Y0075530D01*
X0052678Y0075566D01*
X0052716Y0075600D01*
X0052755Y0075630D01*
X0052797Y0075658D01*
X0052841Y0075683D01*
X0052886Y0075704D01*
X0052933Y0075722D01*
X0052469Y0075073D02*
X0052471Y0075023D01*
X0052476Y0074973D01*
X0052485Y0074924D01*
X0052498Y0074876D01*
X0052514Y0074828D01*
X0052534Y0074782D01*
X0052557Y0074738D01*
X0052583Y0074695D01*
X0052612Y0074654D01*
X0052644Y0074616D01*
X0052678Y0074580D01*
X0052716Y0074546D01*
X0052755Y0074516D01*
X0052797Y0074488D01*
X0052841Y0074463D01*
X0052886Y0074442D01*
X0052933Y0074424D01*
X0050712Y0074113D02*
X0050712Y0075967D01*
X0050712Y0074113D02*
X0048858Y0075689D01*
X0047375Y0075133D02*
X0047377Y0075069D01*
X0047383Y0075005D01*
X0047392Y0074941D01*
X0047406Y0074879D01*
X0047423Y0074817D01*
X0047443Y0074756D01*
X0047468Y0074697D01*
X0047496Y0074639D01*
X0047527Y0074583D01*
X0047562Y0074529D01*
X0047599Y0074477D01*
X0047640Y0074427D01*
X0047684Y0074380D01*
X0047730Y0074336D01*
X0047779Y0074294D01*
X0047831Y0074256D01*
X0047884Y0074221D01*
X0047940Y0074189D01*
X0047997Y0074160D01*
X0048056Y0074135D01*
X0048117Y0074113D01*
X0048858Y0075689D02*
X0048818Y0075728D01*
X0048776Y0075765D01*
X0048732Y0075799D01*
X0048685Y0075830D01*
X0048637Y0075858D01*
X0048587Y0075883D01*
X0048536Y0075905D01*
X0048484Y0075924D01*
X0048430Y0075939D01*
X0048375Y0075951D01*
X0048320Y0075960D01*
X0048265Y0075965D01*
X0048209Y0075967D01*
X0048152Y0075965D01*
X0048095Y0075959D01*
X0048039Y0075950D01*
X0047984Y0075936D01*
X0047930Y0075919D01*
X0047877Y0075898D01*
X0047825Y0075873D01*
X0047776Y0075846D01*
X0047728Y0075814D01*
X0047683Y0075780D01*
X0047640Y0075743D01*
X0047599Y0075702D01*
X0047562Y0075659D01*
X0047528Y0075614D01*
X0047496Y0075566D01*
X0047469Y0075517D01*
X0047444Y0075465D01*
X0047423Y0075412D01*
X0047406Y0075358D01*
X0047392Y0075303D01*
X0047383Y0075247D01*
X0047377Y0075190D01*
X0047375Y0075133D01*
X0047375Y0071530D02*
X0047375Y0070603D01*
X0050712Y0070603D01*
X0049229Y0070603D02*
X0049229Y0071530D01*
X0049229Y0071715D02*
X0050712Y0072457D01*
X0052469Y0071530D02*
X0055806Y0071530D01*
X0055806Y0070603D02*
X0055806Y0072457D01*
X0053211Y0070603D02*
X0052469Y0071530D01*
X0053301Y0067641D02*
X0054043Y0067641D01*
X0053301Y0067641D02*
X0053248Y0067639D01*
X0053195Y0067633D01*
X0053143Y0067624D01*
X0053092Y0067611D01*
X0053042Y0067594D01*
X0052993Y0067574D01*
X0052945Y0067550D01*
X0052900Y0067523D01*
X0052856Y0067493D01*
X0052815Y0067460D01*
X0052776Y0067424D01*
X0052740Y0067385D01*
X0052707Y0067344D01*
X0052677Y0067300D01*
X0052650Y0067255D01*
X0052626Y0067207D01*
X0052606Y0067158D01*
X0052589Y0067108D01*
X0052576Y0067057D01*
X0052567Y0067005D01*
X0052561Y0066952D01*
X0052559Y0066899D01*
X0052560Y0066899D02*
X0052560Y0065045D01*
X0052559Y0065045D02*
X0052561Y0064992D01*
X0052567Y0064939D01*
X0052576Y0064887D01*
X0052589Y0064836D01*
X0052606Y0064786D01*
X0052626Y0064737D01*
X0052650Y0064689D01*
X0052677Y0064644D01*
X0052707Y0064600D01*
X0052740Y0064559D01*
X0052776Y0064520D01*
X0052815Y0064484D01*
X0052856Y0064451D01*
X0052900Y0064421D01*
X0052945Y0064394D01*
X0052993Y0064370D01*
X0053042Y0064350D01*
X0053092Y0064333D01*
X0053143Y0064320D01*
X0053195Y0064311D01*
X0053248Y0064305D01*
X0053301Y0064303D01*
X0053301Y0064304D02*
X0054043Y0064304D01*
X0055527Y0064304D02*
X0057381Y0064304D01*
X0057381Y0063287D02*
X0055898Y0063287D01*
X0055898Y0059950D01*
X0055898Y0061803D02*
X0057381Y0061803D01*
X0055527Y0064304D02*
X0057103Y0066158D01*
X0056547Y0067641D02*
X0056483Y0067639D01*
X0056419Y0067633D01*
X0056355Y0067624D01*
X0056293Y0067610D01*
X0056231Y0067593D01*
X0056170Y0067573D01*
X0056111Y0067548D01*
X0056053Y0067520D01*
X0055997Y0067489D01*
X0055943Y0067454D01*
X0055891Y0067417D01*
X0055841Y0067376D01*
X0055794Y0067332D01*
X0055750Y0067286D01*
X0055708Y0067237D01*
X0055670Y0067185D01*
X0055635Y0067132D01*
X0055603Y0067076D01*
X0055574Y0067019D01*
X0055549Y0066960D01*
X0055527Y0066899D01*
X0057103Y0066158D02*
X0057142Y0066198D01*
X0057179Y0066240D01*
X0057213Y0066284D01*
X0057244Y0066331D01*
X0057272Y0066379D01*
X0057297Y0066429D01*
X0057319Y0066480D01*
X0057338Y0066532D01*
X0057353Y0066586D01*
X0057365Y0066641D01*
X0057374Y0066696D01*
X0057379Y0066751D01*
X0057381Y0066807D01*
X0057379Y0066864D01*
X0057373Y0066921D01*
X0057364Y0066977D01*
X0057350Y0067032D01*
X0057333Y0067086D01*
X0057312Y0067139D01*
X0057287Y0067191D01*
X0057260Y0067240D01*
X0057228Y0067288D01*
X0057194Y0067333D01*
X0057157Y0067376D01*
X0057116Y0067417D01*
X0057073Y0067454D01*
X0057028Y0067488D01*
X0056980Y0067520D01*
X0056931Y0067547D01*
X0056879Y0067572D01*
X0056826Y0067593D01*
X0056772Y0067610D01*
X0056717Y0067624D01*
X0056661Y0067633D01*
X0056604Y0067639D01*
X0056547Y0067641D01*
X0053457Y0062174D02*
X0052530Y0062174D01*
X0052530Y0059950D01*
X0054013Y0059950D02*
X0054013Y0061618D01*
X0054011Y0061664D01*
X0054005Y0061710D01*
X0053996Y0061754D01*
X0053983Y0061799D01*
X0053966Y0061841D01*
X0053946Y0061883D01*
X0053922Y0061922D01*
X0053896Y0061960D01*
X0053866Y0061995D01*
X0053834Y0062027D01*
X0053799Y0062057D01*
X0053761Y0062083D01*
X0053722Y0062107D01*
X0053680Y0062127D01*
X0053638Y0062144D01*
X0053593Y0062157D01*
X0053549Y0062166D01*
X0053503Y0062172D01*
X0053457Y0062174D01*
X0050588Y0062545D02*
X0050586Y0062492D01*
X0050580Y0062439D01*
X0050571Y0062387D01*
X0050558Y0062336D01*
X0050541Y0062286D01*
X0050521Y0062237D01*
X0050497Y0062189D01*
X0050470Y0062144D01*
X0050440Y0062100D01*
X0050407Y0062059D01*
X0050371Y0062020D01*
X0050332Y0061984D01*
X0050291Y0061951D01*
X0050247Y0061921D01*
X0050202Y0061894D01*
X0050154Y0061870D01*
X0050105Y0061850D01*
X0050055Y0061833D01*
X0050004Y0061820D01*
X0049952Y0061811D01*
X0049899Y0061805D01*
X0049846Y0061803D01*
X0049793Y0061805D01*
X0049740Y0061811D01*
X0049688Y0061820D01*
X0049637Y0061833D01*
X0049587Y0061850D01*
X0049538Y0061870D01*
X0049490Y0061894D01*
X0049445Y0061921D01*
X0049401Y0061951D01*
X0049360Y0061984D01*
X0049321Y0062020D01*
X0049285Y0062059D01*
X0049252Y0062100D01*
X0049222Y0062144D01*
X0049195Y0062189D01*
X0049171Y0062237D01*
X0049151Y0062286D01*
X0049134Y0062336D01*
X0049121Y0062387D01*
X0049112Y0062439D01*
X0049106Y0062492D01*
X0049104Y0062545D01*
X0049106Y0062598D01*
X0049112Y0062651D01*
X0049121Y0062703D01*
X0049134Y0062754D01*
X0049151Y0062804D01*
X0049171Y0062853D01*
X0049195Y0062901D01*
X0049222Y0062946D01*
X0049252Y0062990D01*
X0049285Y0063031D01*
X0049321Y0063070D01*
X0049360Y0063106D01*
X0049401Y0063139D01*
X0049445Y0063169D01*
X0049490Y0063196D01*
X0049538Y0063220D01*
X0049587Y0063240D01*
X0049637Y0063257D01*
X0049688Y0063270D01*
X0049740Y0063279D01*
X0049793Y0063285D01*
X0049846Y0063287D01*
X0049899Y0063285D01*
X0049952Y0063279D01*
X0050004Y0063270D01*
X0050055Y0063257D01*
X0050105Y0063240D01*
X0050154Y0063220D01*
X0050202Y0063196D01*
X0050247Y0063169D01*
X0050291Y0063139D01*
X0050332Y0063106D01*
X0050371Y0063070D01*
X0050407Y0063031D01*
X0050440Y0062990D01*
X0050470Y0062946D01*
X0050497Y0062901D01*
X0050521Y0062853D01*
X0050541Y0062804D01*
X0050558Y0062754D01*
X0050571Y0062703D01*
X0050580Y0062651D01*
X0050586Y0062598D01*
X0050588Y0062545D01*
X0050773Y0060877D02*
X0050771Y0060818D01*
X0050765Y0060758D01*
X0050756Y0060700D01*
X0050743Y0060642D01*
X0050726Y0060585D01*
X0050705Y0060529D01*
X0050681Y0060475D01*
X0050654Y0060422D01*
X0050623Y0060371D01*
X0050589Y0060323D01*
X0050552Y0060276D01*
X0050512Y0060232D01*
X0050469Y0060191D01*
X0050424Y0060152D01*
X0050376Y0060117D01*
X0050327Y0060084D01*
X0050275Y0060055D01*
X0050221Y0060029D01*
X0050166Y0060007D01*
X0050110Y0059988D01*
X0050052Y0059973D01*
X0049994Y0059962D01*
X0049935Y0059954D01*
X0049876Y0059950D01*
X0049816Y0059950D01*
X0049757Y0059954D01*
X0049698Y0059962D01*
X0049640Y0059973D01*
X0049582Y0059988D01*
X0049526Y0060007D01*
X0049471Y0060029D01*
X0049417Y0060055D01*
X0049365Y0060084D01*
X0049316Y0060117D01*
X0049268Y0060152D01*
X0049223Y0060191D01*
X0049180Y0060232D01*
X0049140Y0060276D01*
X0049103Y0060323D01*
X0049069Y0060371D01*
X0049038Y0060422D01*
X0049011Y0060475D01*
X0048987Y0060529D01*
X0048966Y0060585D01*
X0048949Y0060642D01*
X0048936Y0060700D01*
X0048927Y0060758D01*
X0048921Y0060818D01*
X0048919Y0060877D01*
X0048921Y0060936D01*
X0048927Y0060996D01*
X0048936Y0061054D01*
X0048949Y0061112D01*
X0048966Y0061169D01*
X0048987Y0061225D01*
X0049011Y0061279D01*
X0049038Y0061332D01*
X0049069Y0061383D01*
X0049103Y0061431D01*
X0049140Y0061478D01*
X0049180Y0061522D01*
X0049223Y0061563D01*
X0049268Y0061602D01*
X0049316Y0061637D01*
X0049365Y0061670D01*
X0049417Y0061699D01*
X0049471Y0061725D01*
X0049526Y0061747D01*
X0049582Y0061766D01*
X0049640Y0061781D01*
X0049698Y0061792D01*
X0049757Y0061800D01*
X0049816Y0061804D01*
X0049876Y0061804D01*
X0049935Y0061800D01*
X0049994Y0061792D01*
X0050052Y0061781D01*
X0050110Y0061766D01*
X0050166Y0061747D01*
X0050221Y0061725D01*
X0050275Y0061699D01*
X0050327Y0061670D01*
X0050376Y0061637D01*
X0050424Y0061602D01*
X0050469Y0061563D01*
X0050512Y0061522D01*
X0050552Y0061478D01*
X0050589Y0061431D01*
X0050623Y0061383D01*
X0050654Y0061332D01*
X0050681Y0061279D01*
X0050705Y0061225D01*
X0050726Y0061169D01*
X0050743Y0061112D01*
X0050756Y0061054D01*
X0050765Y0060996D01*
X0050771Y0060936D01*
X0050773Y0060877D01*
X0047230Y0060877D02*
X0047230Y0061062D01*
X0047228Y0061115D01*
X0047222Y0061168D01*
X0047213Y0061220D01*
X0047200Y0061271D01*
X0047183Y0061321D01*
X0047163Y0061370D01*
X0047139Y0061418D01*
X0047112Y0061463D01*
X0047082Y0061507D01*
X0047049Y0061548D01*
X0047013Y0061587D01*
X0046974Y0061623D01*
X0046933Y0061656D01*
X0046889Y0061686D01*
X0046844Y0061713D01*
X0046796Y0061737D01*
X0046747Y0061757D01*
X0046697Y0061774D01*
X0046646Y0061787D01*
X0046594Y0061796D01*
X0046541Y0061802D01*
X0046488Y0061804D01*
X0046488Y0061803D02*
X0045376Y0061803D01*
X0045376Y0060877D01*
X0045378Y0060818D01*
X0045384Y0060758D01*
X0045393Y0060700D01*
X0045406Y0060642D01*
X0045423Y0060585D01*
X0045444Y0060529D01*
X0045468Y0060475D01*
X0045495Y0060422D01*
X0045526Y0060371D01*
X0045560Y0060323D01*
X0045597Y0060276D01*
X0045637Y0060232D01*
X0045680Y0060191D01*
X0045725Y0060152D01*
X0045773Y0060117D01*
X0045822Y0060084D01*
X0045874Y0060055D01*
X0045928Y0060029D01*
X0045983Y0060007D01*
X0046039Y0059988D01*
X0046097Y0059973D01*
X0046155Y0059962D01*
X0046214Y0059954D01*
X0046273Y0059950D01*
X0046333Y0059950D01*
X0046392Y0059954D01*
X0046451Y0059962D01*
X0046509Y0059973D01*
X0046567Y0059988D01*
X0046623Y0060007D01*
X0046678Y0060029D01*
X0046732Y0060055D01*
X0046784Y0060084D01*
X0046833Y0060117D01*
X0046881Y0060152D01*
X0046926Y0060191D01*
X0046969Y0060232D01*
X0047009Y0060276D01*
X0047046Y0060323D01*
X0047080Y0060371D01*
X0047111Y0060422D01*
X0047138Y0060475D01*
X0047162Y0060529D01*
X0047183Y0060585D01*
X0047200Y0060642D01*
X0047213Y0060700D01*
X0047222Y0060758D01*
X0047228Y0060818D01*
X0047230Y0060877D01*
X0045376Y0061803D02*
X0045378Y0061878D01*
X0045384Y0061953D01*
X0045393Y0062028D01*
X0045406Y0062102D01*
X0045423Y0062175D01*
X0045444Y0062247D01*
X0045468Y0062318D01*
X0045496Y0062388D01*
X0045528Y0062456D01*
X0045562Y0062523D01*
X0045600Y0062587D01*
X0045642Y0062650D01*
X0045686Y0062711D01*
X0045734Y0062769D01*
X0045784Y0062825D01*
X0045837Y0062878D01*
X0045893Y0062928D01*
X0045951Y0062976D01*
X0046012Y0063020D01*
X0046075Y0063062D01*
X0046139Y0063100D01*
X0046206Y0063134D01*
X0046274Y0063166D01*
X0046344Y0063194D01*
X0046415Y0063218D01*
X0046487Y0063239D01*
X0046560Y0063256D01*
X0046634Y0063269D01*
X0046709Y0063278D01*
X0046784Y0063284D01*
X0046859Y0063286D01*
X0047375Y0071530D02*
X0047377Y0071589D01*
X0047383Y0071649D01*
X0047392Y0071707D01*
X0047405Y0071765D01*
X0047422Y0071822D01*
X0047443Y0071878D01*
X0047467Y0071932D01*
X0047494Y0071985D01*
X0047525Y0072036D01*
X0047559Y0072084D01*
X0047596Y0072131D01*
X0047636Y0072175D01*
X0047679Y0072216D01*
X0047724Y0072255D01*
X0047772Y0072290D01*
X0047821Y0072323D01*
X0047873Y0072352D01*
X0047927Y0072378D01*
X0047982Y0072400D01*
X0048038Y0072419D01*
X0048096Y0072434D01*
X0048154Y0072445D01*
X0048213Y0072453D01*
X0048272Y0072457D01*
X0048332Y0072457D01*
X0048391Y0072453D01*
X0048450Y0072445D01*
X0048508Y0072434D01*
X0048566Y0072419D01*
X0048622Y0072400D01*
X0048677Y0072378D01*
X0048731Y0072352D01*
X0048783Y0072323D01*
X0048832Y0072290D01*
X0048880Y0072255D01*
X0048925Y0072216D01*
X0048968Y0072175D01*
X0049008Y0072131D01*
X0049045Y0072084D01*
X0049079Y0072036D01*
X0049110Y0071985D01*
X0049137Y0071932D01*
X0049161Y0071878D01*
X0049182Y0071822D01*
X0049199Y0071765D01*
X0049212Y0071707D01*
X0049221Y0071649D01*
X0049227Y0071589D01*
X0049229Y0071530D01*
X0095050Y0021606D02*
X0095050Y0019010D01*
X0095051Y0019010D02*
X0095049Y0018957D01*
X0095043Y0018904D01*
X0095034Y0018852D01*
X0095021Y0018801D01*
X0095004Y0018751D01*
X0094984Y0018702D01*
X0094960Y0018654D01*
X0094933Y0018609D01*
X0094903Y0018565D01*
X0094870Y0018524D01*
X0094834Y0018485D01*
X0094795Y0018449D01*
X0094754Y0018416D01*
X0094710Y0018386D01*
X0094665Y0018359D01*
X0094617Y0018335D01*
X0094568Y0018315D01*
X0094518Y0018298D01*
X0094467Y0018285D01*
X0094415Y0018276D01*
X0094362Y0018270D01*
X0094309Y0018268D01*
X0094309Y0018269D02*
X0093938Y0018269D01*
X0096837Y0018269D02*
X0097949Y0018269D01*
X0097949Y0018268D02*
X0098002Y0018270D01*
X0098055Y0018276D01*
X0098107Y0018285D01*
X0098158Y0018298D01*
X0098208Y0018315D01*
X0098257Y0018335D01*
X0098305Y0018359D01*
X0098350Y0018386D01*
X0098394Y0018416D01*
X0098435Y0018449D01*
X0098474Y0018485D01*
X0098510Y0018524D01*
X0098543Y0018565D01*
X0098573Y0018609D01*
X0098600Y0018654D01*
X0098624Y0018702D01*
X0098644Y0018751D01*
X0098661Y0018801D01*
X0098674Y0018852D01*
X0098683Y0018904D01*
X0098689Y0018957D01*
X0098691Y0019010D01*
X0098691Y0019381D01*
X0098689Y0019434D01*
X0098683Y0019487D01*
X0098674Y0019539D01*
X0098661Y0019590D01*
X0098644Y0019640D01*
X0098624Y0019689D01*
X0098600Y0019737D01*
X0098573Y0019782D01*
X0098543Y0019826D01*
X0098510Y0019867D01*
X0098474Y0019906D01*
X0098435Y0019942D01*
X0098394Y0019975D01*
X0098350Y0020005D01*
X0098305Y0020032D01*
X0098257Y0020056D01*
X0098208Y0020076D01*
X0098158Y0020093D01*
X0098107Y0020106D01*
X0098055Y0020115D01*
X0098002Y0020121D01*
X0097949Y0020123D01*
X0097949Y0020122D02*
X0096837Y0020122D01*
X0096837Y0021606D01*
X0098691Y0021606D01*
X0131733Y0017875D02*
X0132104Y0017875D01*
X0132104Y0017874D02*
X0132157Y0017876D01*
X0132210Y0017882D01*
X0132262Y0017891D01*
X0132313Y0017904D01*
X0132363Y0017921D01*
X0132412Y0017941D01*
X0132460Y0017965D01*
X0132505Y0017992D01*
X0132549Y0018022D01*
X0132590Y0018055D01*
X0132629Y0018091D01*
X0132665Y0018130D01*
X0132698Y0018171D01*
X0132728Y0018215D01*
X0132755Y0018260D01*
X0132779Y0018308D01*
X0132799Y0018357D01*
X0132816Y0018407D01*
X0132829Y0018458D01*
X0132838Y0018510D01*
X0132844Y0018563D01*
X0132846Y0018616D01*
X0132845Y0018616D02*
X0132845Y0021212D01*
X0134632Y0021212D02*
X0135744Y0021212D01*
X0135797Y0021210D01*
X0135850Y0021204D01*
X0135902Y0021195D01*
X0135953Y0021182D01*
X0136003Y0021165D01*
X0136052Y0021145D01*
X0136100Y0021121D01*
X0136145Y0021094D01*
X0136189Y0021064D01*
X0136230Y0021031D01*
X0136269Y0020995D01*
X0136305Y0020956D01*
X0136338Y0020915D01*
X0136368Y0020871D01*
X0136395Y0020826D01*
X0136419Y0020778D01*
X0136439Y0020729D01*
X0136456Y0020679D01*
X0136469Y0020628D01*
X0136478Y0020576D01*
X0136484Y0020523D01*
X0136486Y0020470D01*
X0136484Y0020417D01*
X0136478Y0020364D01*
X0136469Y0020312D01*
X0136456Y0020261D01*
X0136439Y0020211D01*
X0136419Y0020162D01*
X0136395Y0020114D01*
X0136368Y0020069D01*
X0136338Y0020025D01*
X0136305Y0019984D01*
X0136269Y0019945D01*
X0136230Y0019909D01*
X0136189Y0019876D01*
X0136145Y0019846D01*
X0136100Y0019819D01*
X0136052Y0019795D01*
X0136003Y0019775D01*
X0135953Y0019758D01*
X0135902Y0019745D01*
X0135850Y0019736D01*
X0135797Y0019730D01*
X0135744Y0019728D01*
X0135744Y0019729D02*
X0135003Y0019729D01*
X0135559Y0019729D02*
X0135618Y0019727D01*
X0135678Y0019721D01*
X0135736Y0019712D01*
X0135794Y0019699D01*
X0135851Y0019682D01*
X0135907Y0019661D01*
X0135961Y0019637D01*
X0136014Y0019610D01*
X0136065Y0019579D01*
X0136113Y0019545D01*
X0136160Y0019508D01*
X0136204Y0019468D01*
X0136245Y0019425D01*
X0136284Y0019380D01*
X0136319Y0019332D01*
X0136352Y0019283D01*
X0136381Y0019231D01*
X0136407Y0019177D01*
X0136429Y0019122D01*
X0136448Y0019066D01*
X0136463Y0019008D01*
X0136474Y0018950D01*
X0136482Y0018891D01*
X0136486Y0018832D01*
X0136486Y0018772D01*
X0136482Y0018713D01*
X0136474Y0018654D01*
X0136463Y0018596D01*
X0136448Y0018538D01*
X0136429Y0018482D01*
X0136407Y0018427D01*
X0136381Y0018373D01*
X0136352Y0018321D01*
X0136319Y0018272D01*
X0136284Y0018224D01*
X0136245Y0018179D01*
X0136204Y0018136D01*
X0136160Y0018096D01*
X0136113Y0018059D01*
X0136065Y0018025D01*
X0136014Y0017994D01*
X0135961Y0017967D01*
X0135907Y0017943D01*
X0135851Y0017922D01*
X0135794Y0017905D01*
X0135736Y0017892D01*
X0135678Y0017883D01*
X0135618Y0017877D01*
X0135559Y0017875D01*
X0134632Y0017875D01*
D14*
X0109139Y0034555D02*
X0109096Y0034646D01*
X0109057Y0034739D01*
X0109022Y0034834D01*
X0108990Y0034929D01*
X0108962Y0035026D01*
X0108937Y0035124D01*
X0108917Y0035223D01*
X0108899Y0035322D01*
X0108886Y0035422D01*
X0108877Y0035522D01*
X0108871Y0035623D01*
X0108869Y0035724D01*
X0110669Y0035724D02*
X0110667Y0035825D01*
X0110661Y0035926D01*
X0110652Y0036026D01*
X0110639Y0036126D01*
X0110621Y0036225D01*
X0110601Y0036324D01*
X0110576Y0036422D01*
X0110548Y0036519D01*
X0110516Y0036614D01*
X0110481Y0036709D01*
X0110442Y0036802D01*
X0110399Y0036893D01*
X0110488Y0036624D02*
X0109050Y0034825D01*
X0109769Y0034106D02*
X0109817Y0034108D01*
X0109866Y0034113D01*
X0109913Y0034122D01*
X0109960Y0034134D01*
X0110006Y0034150D01*
X0110051Y0034169D01*
X0110094Y0034191D01*
X0110136Y0034216D01*
X0110175Y0034244D01*
X0110212Y0034275D01*
X0110247Y0034309D01*
X0110280Y0034345D01*
X0110309Y0034383D01*
X0110336Y0034424D01*
X0110360Y0034466D01*
X0110381Y0034510D01*
X0110398Y0034555D01*
X0109769Y0034106D02*
X0109721Y0034108D01*
X0109672Y0034113D01*
X0109625Y0034122D01*
X0109578Y0034134D01*
X0109532Y0034150D01*
X0109487Y0034169D01*
X0109444Y0034191D01*
X0109402Y0034216D01*
X0109363Y0034244D01*
X0109326Y0034275D01*
X0109291Y0034309D01*
X0109258Y0034345D01*
X0109229Y0034383D01*
X0109202Y0034424D01*
X0109178Y0034466D01*
X0109157Y0034510D01*
X0109140Y0034555D01*
X0110398Y0034555D02*
X0110441Y0034646D01*
X0110480Y0034739D01*
X0110515Y0034834D01*
X0110547Y0034929D01*
X0110575Y0035026D01*
X0110600Y0035124D01*
X0110620Y0035223D01*
X0110638Y0035322D01*
X0110651Y0035422D01*
X0110660Y0035522D01*
X0110666Y0035623D01*
X0110668Y0035724D01*
X0108870Y0035724D02*
X0108872Y0035825D01*
X0108878Y0035925D01*
X0108887Y0036026D01*
X0108900Y0036126D01*
X0108917Y0036225D01*
X0108938Y0036324D01*
X0108963Y0036421D01*
X0108991Y0036518D01*
X0109023Y0036614D01*
X0109058Y0036708D01*
X0109097Y0036801D01*
X0109140Y0036893D01*
X0109769Y0037343D02*
X0109817Y0037341D01*
X0109866Y0037336D01*
X0109913Y0037327D01*
X0109960Y0037315D01*
X0110006Y0037299D01*
X0110051Y0037280D01*
X0110094Y0037258D01*
X0110136Y0037233D01*
X0110175Y0037205D01*
X0110212Y0037174D01*
X0110247Y0037140D01*
X0110280Y0037104D01*
X0110309Y0037066D01*
X0110336Y0037025D01*
X0110360Y0036983D01*
X0110381Y0036939D01*
X0110398Y0036894D01*
X0109769Y0037343D02*
X0109721Y0037341D01*
X0109672Y0037336D01*
X0109625Y0037327D01*
X0109578Y0037315D01*
X0109532Y0037299D01*
X0109487Y0037280D01*
X0109444Y0037258D01*
X0109402Y0037233D01*
X0109363Y0037205D01*
X0109326Y0037174D01*
X0109291Y0037140D01*
X0109258Y0037104D01*
X0109229Y0037066D01*
X0109202Y0037025D01*
X0109178Y0036983D01*
X0109157Y0036939D01*
X0109140Y0036894D01*
X0107125Y0037343D02*
X0105326Y0037343D01*
X0105326Y0035904D01*
X0106405Y0035904D01*
X0106456Y0035902D01*
X0106507Y0035897D01*
X0106558Y0035888D01*
X0106608Y0035875D01*
X0106656Y0035859D01*
X0106704Y0035839D01*
X0106750Y0035816D01*
X0106794Y0035790D01*
X0106836Y0035761D01*
X0106876Y0035728D01*
X0106913Y0035693D01*
X0106948Y0035656D01*
X0106981Y0035616D01*
X0107010Y0035574D01*
X0107036Y0035530D01*
X0107059Y0035484D01*
X0107079Y0035436D01*
X0107095Y0035388D01*
X0107108Y0035338D01*
X0107117Y0035287D01*
X0107122Y0035236D01*
X0107124Y0035185D01*
X0107125Y0035185D02*
X0107125Y0034825D01*
X0107124Y0034825D02*
X0107122Y0034774D01*
X0107117Y0034723D01*
X0107108Y0034672D01*
X0107095Y0034622D01*
X0107079Y0034574D01*
X0107059Y0034526D01*
X0107036Y0034480D01*
X0107010Y0034436D01*
X0106981Y0034394D01*
X0106948Y0034354D01*
X0106913Y0034317D01*
X0106876Y0034282D01*
X0106836Y0034249D01*
X0106794Y0034220D01*
X0106750Y0034194D01*
X0106704Y0034171D01*
X0106656Y0034151D01*
X0106608Y0034135D01*
X0106558Y0034122D01*
X0106507Y0034113D01*
X0106456Y0034108D01*
X0106405Y0034106D01*
X0105326Y0034106D01*
X0103581Y0034106D02*
X0101783Y0034106D01*
X0102682Y0034106D02*
X0102682Y0037343D01*
X0101783Y0036624D01*
X0099948Y0034915D02*
X0098330Y0034915D01*
X0098060Y0034106D02*
X0099139Y0037343D01*
X0100218Y0034106D01*
X0096495Y0034825D02*
X0094696Y0034825D01*
X0095416Y0037343D01*
X0095955Y0035545D02*
X0095955Y0034106D01*
X0091423Y0034555D02*
X0091380Y0034646D01*
X0091341Y0034739D01*
X0091306Y0034834D01*
X0091274Y0034929D01*
X0091246Y0035026D01*
X0091221Y0035124D01*
X0091201Y0035223D01*
X0091183Y0035322D01*
X0091170Y0035422D01*
X0091161Y0035522D01*
X0091155Y0035623D01*
X0091153Y0035724D01*
X0092952Y0035724D02*
X0092950Y0035825D01*
X0092944Y0035926D01*
X0092935Y0036026D01*
X0092922Y0036126D01*
X0092904Y0036225D01*
X0092884Y0036324D01*
X0092859Y0036422D01*
X0092831Y0036519D01*
X0092799Y0036614D01*
X0092764Y0036709D01*
X0092725Y0036802D01*
X0092682Y0036893D01*
X0092772Y0036624D02*
X0091333Y0034825D01*
X0092052Y0034106D02*
X0092100Y0034108D01*
X0092149Y0034113D01*
X0092196Y0034122D01*
X0092243Y0034134D01*
X0092289Y0034150D01*
X0092334Y0034169D01*
X0092377Y0034191D01*
X0092419Y0034216D01*
X0092458Y0034244D01*
X0092495Y0034275D01*
X0092530Y0034309D01*
X0092563Y0034345D01*
X0092592Y0034383D01*
X0092619Y0034424D01*
X0092643Y0034466D01*
X0092664Y0034510D01*
X0092681Y0034555D01*
X0092052Y0034106D02*
X0092004Y0034108D01*
X0091955Y0034113D01*
X0091908Y0034122D01*
X0091861Y0034134D01*
X0091815Y0034150D01*
X0091770Y0034169D01*
X0091727Y0034191D01*
X0091685Y0034216D01*
X0091646Y0034244D01*
X0091609Y0034275D01*
X0091574Y0034309D01*
X0091541Y0034345D01*
X0091512Y0034383D01*
X0091485Y0034424D01*
X0091461Y0034466D01*
X0091440Y0034510D01*
X0091423Y0034555D01*
X0092682Y0034555D02*
X0092725Y0034646D01*
X0092764Y0034739D01*
X0092799Y0034834D01*
X0092831Y0034929D01*
X0092859Y0035026D01*
X0092884Y0035124D01*
X0092904Y0035223D01*
X0092922Y0035322D01*
X0092935Y0035422D01*
X0092944Y0035522D01*
X0092950Y0035623D01*
X0092952Y0035724D01*
X0091154Y0035724D02*
X0091156Y0035825D01*
X0091162Y0035925D01*
X0091171Y0036026D01*
X0091184Y0036126D01*
X0091201Y0036225D01*
X0091222Y0036324D01*
X0091247Y0036421D01*
X0091275Y0036518D01*
X0091307Y0036614D01*
X0091342Y0036708D01*
X0091381Y0036801D01*
X0091424Y0036893D01*
X0092052Y0037343D02*
X0092100Y0037341D01*
X0092149Y0037336D01*
X0092196Y0037327D01*
X0092243Y0037315D01*
X0092289Y0037299D01*
X0092334Y0037280D01*
X0092377Y0037258D01*
X0092419Y0037233D01*
X0092458Y0037205D01*
X0092495Y0037174D01*
X0092530Y0037140D01*
X0092563Y0037104D01*
X0092592Y0037066D01*
X0092619Y0037025D01*
X0092643Y0036983D01*
X0092664Y0036939D01*
X0092681Y0036894D01*
X0092052Y0037343D02*
X0092004Y0037341D01*
X0091955Y0037336D01*
X0091908Y0037327D01*
X0091861Y0037315D01*
X0091815Y0037299D01*
X0091770Y0037280D01*
X0091727Y0037258D01*
X0091685Y0037233D01*
X0091646Y0037205D01*
X0091609Y0037174D01*
X0091574Y0037140D01*
X0091541Y0037104D01*
X0091512Y0037066D01*
X0091485Y0037025D01*
X0091461Y0036983D01*
X0091440Y0036939D01*
X0091423Y0036894D01*
X0089290Y0037343D02*
X0089290Y0034106D01*
X0087492Y0037343D01*
X0087492Y0034106D01*
X0084729Y0034106D02*
X0083650Y0037343D01*
X0082322Y0037343D02*
X0080523Y0037343D01*
X0081422Y0037343D02*
X0081422Y0034106D01*
X0084729Y0034106D02*
X0085808Y0037343D01*
X0078773Y0035455D02*
X0077784Y0035994D01*
X0078144Y0037343D02*
X0078216Y0037341D01*
X0078288Y0037335D01*
X0078360Y0037326D01*
X0078431Y0037312D01*
X0078501Y0037295D01*
X0078571Y0037274D01*
X0078639Y0037249D01*
X0078705Y0037221D01*
X0078770Y0037189D01*
X0078833Y0037154D01*
X0078894Y0037115D01*
X0078953Y0037073D01*
X0077784Y0035994D02*
X0077741Y0036021D01*
X0077701Y0036051D01*
X0077662Y0036084D01*
X0077626Y0036120D01*
X0077592Y0036157D01*
X0077561Y0036197D01*
X0077533Y0036240D01*
X0077508Y0036284D01*
X0077486Y0036329D01*
X0077467Y0036376D01*
X0077452Y0036424D01*
X0077440Y0036473D01*
X0077431Y0036523D01*
X0077426Y0036573D01*
X0077424Y0036624D01*
X0077425Y0036624D02*
X0077427Y0036675D01*
X0077432Y0036726D01*
X0077441Y0036777D01*
X0077454Y0036827D01*
X0077470Y0036875D01*
X0077490Y0036923D01*
X0077513Y0036969D01*
X0077539Y0037013D01*
X0077568Y0037055D01*
X0077601Y0037095D01*
X0077636Y0037132D01*
X0077673Y0037167D01*
X0077713Y0037200D01*
X0077755Y0037229D01*
X0077799Y0037255D01*
X0077845Y0037278D01*
X0077893Y0037298D01*
X0077941Y0037314D01*
X0077991Y0037327D01*
X0078042Y0037336D01*
X0078093Y0037341D01*
X0078144Y0037343D01*
X0077334Y0034555D02*
X0077388Y0034503D01*
X0077444Y0034454D01*
X0077503Y0034407D01*
X0077565Y0034364D01*
X0077628Y0034324D01*
X0077693Y0034286D01*
X0077760Y0034252D01*
X0077828Y0034222D01*
X0077898Y0034195D01*
X0077969Y0034171D01*
X0078042Y0034151D01*
X0078115Y0034135D01*
X0078189Y0034122D01*
X0078263Y0034112D01*
X0078338Y0034107D01*
X0078413Y0034105D01*
X0078413Y0034106D02*
X0078464Y0034108D01*
X0078515Y0034113D01*
X0078566Y0034122D01*
X0078616Y0034135D01*
X0078664Y0034151D01*
X0078712Y0034171D01*
X0078758Y0034194D01*
X0078802Y0034220D01*
X0078844Y0034249D01*
X0078884Y0034282D01*
X0078921Y0034317D01*
X0078956Y0034354D01*
X0078989Y0034394D01*
X0079018Y0034436D01*
X0079044Y0034480D01*
X0079067Y0034526D01*
X0079087Y0034574D01*
X0079103Y0034622D01*
X0079116Y0034672D01*
X0079125Y0034723D01*
X0079130Y0034774D01*
X0079132Y0034825D01*
X0079133Y0034825D02*
X0079131Y0034876D01*
X0079126Y0034926D01*
X0079117Y0034976D01*
X0079105Y0035025D01*
X0079090Y0035073D01*
X0079071Y0035120D01*
X0079049Y0035165D01*
X0079024Y0035209D01*
X0078996Y0035252D01*
X0078965Y0035292D01*
X0078931Y0035329D01*
X0078895Y0035365D01*
X0078856Y0035398D01*
X0078816Y0035428D01*
X0078773Y0035455D01*
X0075707Y0035005D02*
X0075707Y0036444D01*
X0075705Y0036503D01*
X0075699Y0036561D01*
X0075690Y0036619D01*
X0075676Y0036677D01*
X0075659Y0036733D01*
X0075639Y0036788D01*
X0075614Y0036842D01*
X0075587Y0036894D01*
X0075555Y0036943D01*
X0075521Y0036991D01*
X0075484Y0037037D01*
X0075444Y0037080D01*
X0075401Y0037120D01*
X0075355Y0037157D01*
X0075307Y0037191D01*
X0075258Y0037223D01*
X0075206Y0037250D01*
X0075152Y0037275D01*
X0075097Y0037295D01*
X0075041Y0037312D01*
X0074983Y0037326D01*
X0074925Y0037335D01*
X0074867Y0037341D01*
X0074808Y0037343D01*
X0074749Y0037341D01*
X0074691Y0037335D01*
X0074633Y0037326D01*
X0074575Y0037312D01*
X0074519Y0037295D01*
X0074464Y0037275D01*
X0074410Y0037250D01*
X0074359Y0037223D01*
X0074309Y0037191D01*
X0074261Y0037157D01*
X0074215Y0037120D01*
X0074172Y0037080D01*
X0074132Y0037037D01*
X0074095Y0036991D01*
X0074061Y0036943D01*
X0074029Y0036894D01*
X0074002Y0036842D01*
X0073977Y0036788D01*
X0073957Y0036733D01*
X0073940Y0036677D01*
X0073926Y0036619D01*
X0073917Y0036561D01*
X0073911Y0036503D01*
X0073909Y0036444D01*
X0073909Y0035005D01*
X0073911Y0034946D01*
X0073917Y0034888D01*
X0073926Y0034830D01*
X0073940Y0034772D01*
X0073957Y0034716D01*
X0073977Y0034661D01*
X0074002Y0034607D01*
X0074029Y0034556D01*
X0074061Y0034506D01*
X0074095Y0034458D01*
X0074132Y0034412D01*
X0074172Y0034369D01*
X0074215Y0034329D01*
X0074261Y0034292D01*
X0074309Y0034258D01*
X0074359Y0034226D01*
X0074410Y0034199D01*
X0074464Y0034174D01*
X0074519Y0034154D01*
X0074575Y0034137D01*
X0074633Y0034123D01*
X0074691Y0034114D01*
X0074749Y0034108D01*
X0074808Y0034106D01*
X0074867Y0034108D01*
X0074925Y0034114D01*
X0074983Y0034123D01*
X0075041Y0034137D01*
X0075097Y0034154D01*
X0075152Y0034174D01*
X0075206Y0034199D01*
X0075258Y0034226D01*
X0075307Y0034258D01*
X0075355Y0034292D01*
X0075401Y0034329D01*
X0075444Y0034369D01*
X0075484Y0034412D01*
X0075521Y0034458D01*
X0075555Y0034506D01*
X0075587Y0034556D01*
X0075614Y0034607D01*
X0075639Y0034661D01*
X0075659Y0034716D01*
X0075676Y0034772D01*
X0075690Y0034830D01*
X0075699Y0034888D01*
X0075705Y0034946D01*
X0075707Y0035005D01*
X0097413Y0059224D02*
X0098513Y0062524D01*
X0099613Y0059224D01*
X0099338Y0060049D02*
X0097688Y0060049D01*
X0101316Y0059224D02*
X0101316Y0062524D01*
X0102233Y0062524D01*
X0102291Y0062522D01*
X0102348Y0062517D01*
X0102405Y0062508D01*
X0102461Y0062495D01*
X0102516Y0062479D01*
X0102571Y0062460D01*
X0102623Y0062437D01*
X0102675Y0062411D01*
X0102724Y0062381D01*
X0102772Y0062349D01*
X0102818Y0062314D01*
X0102861Y0062275D01*
X0102901Y0062235D01*
X0102940Y0062192D01*
X0102975Y0062146D01*
X0103007Y0062098D01*
X0103037Y0062049D01*
X0103063Y0061997D01*
X0103086Y0061945D01*
X0103105Y0061890D01*
X0103121Y0061835D01*
X0103134Y0061779D01*
X0103143Y0061722D01*
X0103148Y0061665D01*
X0103150Y0061607D01*
X0103150Y0060141D01*
X0103148Y0060083D01*
X0103143Y0060026D01*
X0103134Y0059969D01*
X0103121Y0059913D01*
X0103105Y0059858D01*
X0103086Y0059803D01*
X0103063Y0059751D01*
X0103037Y0059699D01*
X0103007Y0059650D01*
X0102975Y0059602D01*
X0102940Y0059556D01*
X0102901Y0059513D01*
X0102861Y0059473D01*
X0102818Y0059434D01*
X0102772Y0059399D01*
X0102724Y0059367D01*
X0102675Y0059337D01*
X0102623Y0059311D01*
X0102571Y0059288D01*
X0102516Y0059269D01*
X0102461Y0059253D01*
X0102405Y0059240D01*
X0102348Y0059231D01*
X0102291Y0059226D01*
X0102233Y0059224D01*
X0101316Y0059224D01*
X0105036Y0060141D02*
X0105038Y0060082D01*
X0105044Y0060024D01*
X0105053Y0059966D01*
X0105066Y0059908D01*
X0105083Y0059852D01*
X0105103Y0059797D01*
X0105127Y0059743D01*
X0105154Y0059691D01*
X0105184Y0059641D01*
X0105218Y0059593D01*
X0105255Y0059547D01*
X0105294Y0059503D01*
X0105337Y0059462D01*
X0105381Y0059424D01*
X0105428Y0059389D01*
X0105478Y0059357D01*
X0105529Y0059328D01*
X0105582Y0059302D01*
X0105636Y0059280D01*
X0105692Y0059262D01*
X0105749Y0059247D01*
X0105807Y0059236D01*
X0105865Y0059228D01*
X0105924Y0059224D01*
X0105982Y0059224D01*
X0106041Y0059228D01*
X0106099Y0059236D01*
X0106157Y0059247D01*
X0106214Y0059262D01*
X0106270Y0059280D01*
X0106324Y0059302D01*
X0106377Y0059328D01*
X0106428Y0059357D01*
X0106478Y0059389D01*
X0106525Y0059424D01*
X0106569Y0059462D01*
X0106612Y0059503D01*
X0106651Y0059547D01*
X0106688Y0059593D01*
X0106722Y0059641D01*
X0106752Y0059691D01*
X0106779Y0059743D01*
X0106803Y0059797D01*
X0106823Y0059852D01*
X0106840Y0059908D01*
X0106853Y0059966D01*
X0106862Y0060024D01*
X0106868Y0060082D01*
X0106870Y0060141D01*
X0106868Y0060200D01*
X0106862Y0060258D01*
X0106853Y0060316D01*
X0106840Y0060374D01*
X0106823Y0060430D01*
X0106803Y0060485D01*
X0106779Y0060539D01*
X0106752Y0060591D01*
X0106722Y0060641D01*
X0106688Y0060689D01*
X0106651Y0060735D01*
X0106612Y0060779D01*
X0106569Y0060820D01*
X0106525Y0060858D01*
X0106478Y0060893D01*
X0106428Y0060925D01*
X0106377Y0060954D01*
X0106324Y0060980D01*
X0106270Y0061002D01*
X0106214Y0061020D01*
X0106157Y0061035D01*
X0106099Y0061046D01*
X0106041Y0061054D01*
X0105982Y0061058D01*
X0105924Y0061058D01*
X0105865Y0061054D01*
X0105807Y0061046D01*
X0105749Y0061035D01*
X0105692Y0061020D01*
X0105636Y0061002D01*
X0105582Y0060980D01*
X0105529Y0060954D01*
X0105478Y0060925D01*
X0105428Y0060893D01*
X0105381Y0060858D01*
X0105337Y0060820D01*
X0105294Y0060779D01*
X0105255Y0060735D01*
X0105218Y0060689D01*
X0105184Y0060641D01*
X0105154Y0060591D01*
X0105127Y0060539D01*
X0105103Y0060485D01*
X0105083Y0060430D01*
X0105066Y0060374D01*
X0105053Y0060316D01*
X0105044Y0060258D01*
X0105038Y0060200D01*
X0105036Y0060141D01*
X0105220Y0061791D02*
X0105222Y0061739D01*
X0105227Y0061687D01*
X0105237Y0061635D01*
X0105250Y0061584D01*
X0105266Y0061535D01*
X0105286Y0061487D01*
X0105310Y0061440D01*
X0105336Y0061395D01*
X0105366Y0061352D01*
X0105399Y0061311D01*
X0105435Y0061273D01*
X0105473Y0061237D01*
X0105514Y0061204D01*
X0105557Y0061174D01*
X0105602Y0061148D01*
X0105649Y0061124D01*
X0105697Y0061104D01*
X0105746Y0061088D01*
X0105797Y0061075D01*
X0105849Y0061065D01*
X0105901Y0061060D01*
X0105953Y0061058D01*
X0106005Y0061060D01*
X0106057Y0061065D01*
X0106109Y0061075D01*
X0106160Y0061088D01*
X0106209Y0061104D01*
X0106257Y0061124D01*
X0106304Y0061148D01*
X0106349Y0061174D01*
X0106392Y0061204D01*
X0106433Y0061237D01*
X0106471Y0061273D01*
X0106507Y0061311D01*
X0106540Y0061352D01*
X0106570Y0061395D01*
X0106596Y0061440D01*
X0106620Y0061487D01*
X0106640Y0061535D01*
X0106656Y0061584D01*
X0106669Y0061635D01*
X0106679Y0061687D01*
X0106684Y0061739D01*
X0106686Y0061791D01*
X0106684Y0061843D01*
X0106679Y0061895D01*
X0106669Y0061947D01*
X0106656Y0061998D01*
X0106640Y0062047D01*
X0106620Y0062095D01*
X0106596Y0062142D01*
X0106570Y0062187D01*
X0106540Y0062230D01*
X0106507Y0062271D01*
X0106471Y0062309D01*
X0106433Y0062345D01*
X0106392Y0062378D01*
X0106349Y0062408D01*
X0106304Y0062434D01*
X0106257Y0062458D01*
X0106209Y0062478D01*
X0106160Y0062494D01*
X0106109Y0062507D01*
X0106057Y0062517D01*
X0106005Y0062522D01*
X0105953Y0062524D01*
X0105901Y0062522D01*
X0105849Y0062517D01*
X0105797Y0062507D01*
X0105746Y0062494D01*
X0105697Y0062478D01*
X0105649Y0062458D01*
X0105602Y0062434D01*
X0105557Y0062408D01*
X0105514Y0062378D01*
X0105473Y0062345D01*
X0105435Y0062309D01*
X0105399Y0062271D01*
X0105366Y0062230D01*
X0105336Y0062187D01*
X0105310Y0062142D01*
X0105286Y0062095D01*
X0105266Y0062047D01*
X0105250Y0061998D01*
X0105237Y0061947D01*
X0105227Y0061895D01*
X0105222Y0061843D01*
X0105220Y0061791D01*
X0108636Y0061057D02*
X0108636Y0062524D01*
X0110470Y0062524D01*
X0109736Y0061057D02*
X0108636Y0061057D01*
X0109736Y0061057D02*
X0109788Y0061055D01*
X0109840Y0061050D01*
X0109892Y0061040D01*
X0109943Y0061027D01*
X0109992Y0061011D01*
X0110040Y0060991D01*
X0110087Y0060967D01*
X0110132Y0060941D01*
X0110175Y0060911D01*
X0110216Y0060878D01*
X0110254Y0060842D01*
X0110290Y0060804D01*
X0110323Y0060763D01*
X0110353Y0060720D01*
X0110379Y0060675D01*
X0110403Y0060628D01*
X0110423Y0060580D01*
X0110439Y0060531D01*
X0110452Y0060480D01*
X0110462Y0060428D01*
X0110467Y0060376D01*
X0110469Y0060324D01*
X0110470Y0060324D02*
X0110470Y0059957D01*
X0110469Y0059957D02*
X0110467Y0059905D01*
X0110462Y0059853D01*
X0110452Y0059801D01*
X0110439Y0059750D01*
X0110423Y0059701D01*
X0110403Y0059653D01*
X0110379Y0059606D01*
X0110353Y0059561D01*
X0110323Y0059518D01*
X0110290Y0059477D01*
X0110254Y0059439D01*
X0110216Y0059403D01*
X0110175Y0059370D01*
X0110132Y0059340D01*
X0110087Y0059314D01*
X0110041Y0059290D01*
X0109992Y0059270D01*
X0109943Y0059254D01*
X0109892Y0059241D01*
X0109840Y0059231D01*
X0109788Y0059226D01*
X0109736Y0059224D01*
X0108636Y0059224D01*
X0112236Y0059224D02*
X0114070Y0059224D01*
X0113153Y0059224D02*
X0113153Y0062524D01*
X0112236Y0061791D01*
X0115836Y0059224D02*
X0117670Y0059224D01*
X0115836Y0059224D02*
X0117395Y0061057D01*
X0116845Y0062524D02*
X0116782Y0062522D01*
X0116718Y0062516D01*
X0116656Y0062507D01*
X0116594Y0062494D01*
X0116532Y0062477D01*
X0116472Y0062456D01*
X0116414Y0062432D01*
X0116356Y0062405D01*
X0116301Y0062374D01*
X0116247Y0062340D01*
X0116196Y0062302D01*
X0116147Y0062262D01*
X0116101Y0062219D01*
X0116057Y0062173D01*
X0116016Y0062124D01*
X0115978Y0062074D01*
X0115943Y0062021D01*
X0115911Y0061966D01*
X0115883Y0061909D01*
X0115858Y0061850D01*
X0115837Y0061791D01*
X0117394Y0061057D02*
X0117433Y0061097D01*
X0117469Y0061138D01*
X0117503Y0061182D01*
X0117533Y0061228D01*
X0117561Y0061276D01*
X0117586Y0061325D01*
X0117608Y0061376D01*
X0117626Y0061427D01*
X0117642Y0061481D01*
X0117654Y0061534D01*
X0117662Y0061589D01*
X0117667Y0061644D01*
X0117669Y0061699D01*
X0117670Y0061699D02*
X0117668Y0061755D01*
X0117662Y0061811D01*
X0117653Y0061867D01*
X0117639Y0061922D01*
X0117622Y0061975D01*
X0117602Y0062028D01*
X0117578Y0062079D01*
X0117550Y0062128D01*
X0117519Y0062175D01*
X0117485Y0062220D01*
X0117448Y0062262D01*
X0117408Y0062302D01*
X0117366Y0062339D01*
X0117321Y0062373D01*
X0117274Y0062404D01*
X0117225Y0062432D01*
X0117174Y0062456D01*
X0117121Y0062476D01*
X0117068Y0062493D01*
X0117013Y0062507D01*
X0116957Y0062516D01*
X0116901Y0062522D01*
X0116845Y0062524D01*
X0112964Y0086370D02*
X0112964Y0089670D01*
X0111864Y0087836D01*
X0110764Y0089670D01*
X0110764Y0086370D01*
X0107262Y0086829D02*
X0107219Y0086922D01*
X0107179Y0087017D01*
X0107143Y0087113D01*
X0107110Y0087210D01*
X0107082Y0087309D01*
X0107057Y0087409D01*
X0107035Y0087509D01*
X0107018Y0087610D01*
X0107004Y0087712D01*
X0106995Y0087815D01*
X0106989Y0087917D01*
X0106987Y0088020D01*
X0103662Y0086829D02*
X0103619Y0086922D01*
X0103579Y0087017D01*
X0103543Y0087113D01*
X0103510Y0087210D01*
X0103482Y0087309D01*
X0103457Y0087409D01*
X0103435Y0087509D01*
X0103418Y0087610D01*
X0103404Y0087712D01*
X0103395Y0087815D01*
X0103389Y0087917D01*
X0103387Y0088020D01*
X0105220Y0088020D02*
X0105218Y0088123D01*
X0105212Y0088225D01*
X0105203Y0088328D01*
X0105189Y0088430D01*
X0105172Y0088531D01*
X0105150Y0088631D01*
X0105125Y0088731D01*
X0105097Y0088830D01*
X0105064Y0088927D01*
X0105028Y0089023D01*
X0104988Y0089118D01*
X0104945Y0089211D01*
X0105037Y0088936D02*
X0103570Y0087103D01*
X0104304Y0086370D02*
X0104353Y0086372D01*
X0104403Y0086377D01*
X0104451Y0086386D01*
X0104499Y0086399D01*
X0104546Y0086415D01*
X0104591Y0086434D01*
X0104635Y0086457D01*
X0104678Y0086482D01*
X0104718Y0086511D01*
X0104756Y0086543D01*
X0104792Y0086577D01*
X0104825Y0086614D01*
X0104855Y0086653D01*
X0104882Y0086694D01*
X0104907Y0086737D01*
X0104928Y0086782D01*
X0104945Y0086828D01*
X0104304Y0086370D02*
X0104255Y0086372D01*
X0104205Y0086377D01*
X0104157Y0086386D01*
X0104109Y0086399D01*
X0104062Y0086415D01*
X0104017Y0086434D01*
X0103973Y0086457D01*
X0103930Y0086482D01*
X0103890Y0086511D01*
X0103852Y0086543D01*
X0103816Y0086577D01*
X0103783Y0086614D01*
X0103753Y0086653D01*
X0103726Y0086694D01*
X0103701Y0086737D01*
X0103680Y0086782D01*
X0103663Y0086828D01*
X0104945Y0086829D02*
X0104988Y0086922D01*
X0105028Y0087017D01*
X0105064Y0087113D01*
X0105097Y0087210D01*
X0105125Y0087309D01*
X0105150Y0087409D01*
X0105172Y0087509D01*
X0105189Y0087610D01*
X0105203Y0087712D01*
X0105212Y0087815D01*
X0105218Y0087917D01*
X0105220Y0088020D01*
X0108545Y0086829D02*
X0108588Y0086922D01*
X0108628Y0087017D01*
X0108664Y0087113D01*
X0108697Y0087210D01*
X0108725Y0087309D01*
X0108750Y0087409D01*
X0108772Y0087509D01*
X0108789Y0087610D01*
X0108803Y0087712D01*
X0108812Y0087815D01*
X0108818Y0087917D01*
X0108820Y0088020D01*
X0106987Y0088020D02*
X0106989Y0088123D01*
X0106995Y0088225D01*
X0107004Y0088328D01*
X0107018Y0088430D01*
X0107035Y0088531D01*
X0107057Y0088631D01*
X0107082Y0088731D01*
X0107110Y0088830D01*
X0107143Y0088927D01*
X0107179Y0089023D01*
X0107219Y0089118D01*
X0107262Y0089211D01*
X0107904Y0089669D02*
X0107953Y0089667D01*
X0108003Y0089662D01*
X0108051Y0089653D01*
X0108099Y0089640D01*
X0108146Y0089624D01*
X0108191Y0089605D01*
X0108235Y0089582D01*
X0108278Y0089557D01*
X0108318Y0089528D01*
X0108356Y0089496D01*
X0108392Y0089462D01*
X0108425Y0089425D01*
X0108455Y0089386D01*
X0108482Y0089345D01*
X0108507Y0089302D01*
X0108528Y0089257D01*
X0108545Y0089211D01*
X0108637Y0088936D02*
X0107170Y0087103D01*
X0107904Y0086370D02*
X0107953Y0086372D01*
X0108003Y0086377D01*
X0108051Y0086386D01*
X0108099Y0086399D01*
X0108146Y0086415D01*
X0108191Y0086434D01*
X0108235Y0086457D01*
X0108278Y0086482D01*
X0108318Y0086511D01*
X0108356Y0086543D01*
X0108392Y0086577D01*
X0108425Y0086614D01*
X0108455Y0086653D01*
X0108482Y0086694D01*
X0108507Y0086737D01*
X0108528Y0086782D01*
X0108545Y0086828D01*
X0107904Y0086370D02*
X0107855Y0086372D01*
X0107805Y0086377D01*
X0107757Y0086386D01*
X0107709Y0086399D01*
X0107662Y0086415D01*
X0107617Y0086434D01*
X0107573Y0086457D01*
X0107530Y0086482D01*
X0107490Y0086511D01*
X0107452Y0086543D01*
X0107416Y0086577D01*
X0107383Y0086614D01*
X0107353Y0086653D01*
X0107326Y0086694D01*
X0107301Y0086737D01*
X0107280Y0086782D01*
X0107263Y0086828D01*
X0103387Y0088020D02*
X0103389Y0088123D01*
X0103395Y0088225D01*
X0103404Y0088328D01*
X0103418Y0088430D01*
X0103435Y0088531D01*
X0103457Y0088631D01*
X0103482Y0088731D01*
X0103510Y0088830D01*
X0103543Y0088927D01*
X0103579Y0089023D01*
X0103619Y0089118D01*
X0103662Y0089211D01*
X0104304Y0089669D02*
X0104353Y0089667D01*
X0104403Y0089662D01*
X0104451Y0089653D01*
X0104499Y0089640D01*
X0104546Y0089624D01*
X0104591Y0089605D01*
X0104635Y0089582D01*
X0104678Y0089557D01*
X0104718Y0089528D01*
X0104756Y0089496D01*
X0104792Y0089462D01*
X0104825Y0089425D01*
X0104855Y0089386D01*
X0104882Y0089345D01*
X0104907Y0089302D01*
X0104928Y0089257D01*
X0104945Y0089211D01*
X0104304Y0089669D02*
X0104255Y0089667D01*
X0104205Y0089662D01*
X0104157Y0089653D01*
X0104109Y0089640D01*
X0104062Y0089624D01*
X0104017Y0089605D01*
X0103973Y0089582D01*
X0103930Y0089557D01*
X0103890Y0089528D01*
X0103852Y0089496D01*
X0103816Y0089462D01*
X0103783Y0089425D01*
X0103753Y0089386D01*
X0103726Y0089345D01*
X0103701Y0089302D01*
X0103680Y0089257D01*
X0103663Y0089211D01*
X0108545Y0089211D02*
X0108588Y0089118D01*
X0108628Y0089023D01*
X0108664Y0088927D01*
X0108697Y0088830D01*
X0108725Y0088731D01*
X0108750Y0088631D01*
X0108772Y0088531D01*
X0108789Y0088430D01*
X0108803Y0088328D01*
X0108812Y0088225D01*
X0108818Y0088123D01*
X0108820Y0088020D01*
X0107904Y0089669D02*
X0107855Y0089667D01*
X0107805Y0089662D01*
X0107757Y0089653D01*
X0107709Y0089640D01*
X0107662Y0089624D01*
X0107617Y0089605D01*
X0107573Y0089582D01*
X0107530Y0089557D01*
X0107490Y0089528D01*
X0107452Y0089496D01*
X0107416Y0089462D01*
X0107383Y0089425D01*
X0107353Y0089386D01*
X0107326Y0089345D01*
X0107301Y0089302D01*
X0107280Y0089257D01*
X0107263Y0089211D01*
X0101620Y0086370D02*
X0099787Y0086370D01*
X0100704Y0086370D02*
X0100704Y0089670D01*
X0099787Y0088936D01*
X0043389Y0045126D02*
X0043391Y0045023D01*
X0043397Y0044921D01*
X0043406Y0044818D01*
X0043420Y0044716D01*
X0043437Y0044615D01*
X0043459Y0044515D01*
X0043484Y0044415D01*
X0043512Y0044316D01*
X0043545Y0044219D01*
X0043581Y0044123D01*
X0043621Y0044028D01*
X0043664Y0043935D01*
X0043571Y0044209D02*
X0045038Y0046043D01*
X0044946Y0046318D02*
X0044929Y0046364D01*
X0044908Y0046409D01*
X0044883Y0046452D01*
X0044856Y0046493D01*
X0044826Y0046532D01*
X0044793Y0046569D01*
X0044757Y0046603D01*
X0044719Y0046635D01*
X0044679Y0046664D01*
X0044636Y0046689D01*
X0044592Y0046712D01*
X0044547Y0046731D01*
X0044500Y0046747D01*
X0044452Y0046760D01*
X0044404Y0046769D01*
X0044354Y0046774D01*
X0044305Y0046776D01*
X0044256Y0046774D01*
X0044206Y0046769D01*
X0044158Y0046760D01*
X0044110Y0046747D01*
X0044063Y0046731D01*
X0044018Y0046712D01*
X0043974Y0046689D01*
X0043931Y0046664D01*
X0043891Y0046635D01*
X0043853Y0046603D01*
X0043817Y0046569D01*
X0043784Y0046532D01*
X0043754Y0046493D01*
X0043727Y0046452D01*
X0043702Y0046409D01*
X0043681Y0046364D01*
X0043664Y0046318D01*
X0044946Y0046317D02*
X0044989Y0046224D01*
X0045029Y0046129D01*
X0045065Y0046033D01*
X0045098Y0045936D01*
X0045126Y0045837D01*
X0045151Y0045737D01*
X0045173Y0045637D01*
X0045190Y0045536D01*
X0045204Y0045434D01*
X0045213Y0045331D01*
X0045219Y0045229D01*
X0045221Y0045126D01*
X0043388Y0045126D02*
X0043390Y0045229D01*
X0043396Y0045331D01*
X0043405Y0045434D01*
X0043419Y0045536D01*
X0043436Y0045637D01*
X0043458Y0045737D01*
X0043483Y0045837D01*
X0043511Y0045936D01*
X0043544Y0046033D01*
X0043580Y0046129D01*
X0043620Y0046224D01*
X0043663Y0046317D01*
X0045221Y0045126D02*
X0045219Y0045023D01*
X0045213Y0044921D01*
X0045204Y0044818D01*
X0045190Y0044716D01*
X0045173Y0044615D01*
X0045151Y0044515D01*
X0045126Y0044415D01*
X0045098Y0044316D01*
X0045065Y0044219D01*
X0045029Y0044123D01*
X0044989Y0044028D01*
X0044946Y0043935D01*
X0044946Y0043934D02*
X0044929Y0043888D01*
X0044908Y0043843D01*
X0044883Y0043800D01*
X0044856Y0043759D01*
X0044826Y0043720D01*
X0044793Y0043683D01*
X0044757Y0043649D01*
X0044719Y0043617D01*
X0044679Y0043588D01*
X0044636Y0043563D01*
X0044592Y0043540D01*
X0044547Y0043521D01*
X0044500Y0043505D01*
X0044452Y0043492D01*
X0044404Y0043483D01*
X0044354Y0043478D01*
X0044305Y0043476D01*
X0044256Y0043478D01*
X0044206Y0043483D01*
X0044158Y0043492D01*
X0044110Y0043505D01*
X0044063Y0043521D01*
X0044018Y0043540D01*
X0043974Y0043563D01*
X0043931Y0043588D01*
X0043891Y0043617D01*
X0043853Y0043649D01*
X0043817Y0043683D01*
X0043784Y0043720D01*
X0043754Y0043759D01*
X0043727Y0043800D01*
X0043702Y0043843D01*
X0043681Y0043888D01*
X0043664Y0043934D01*
X0041621Y0043476D02*
X0039788Y0043476D01*
X0040705Y0043476D02*
X0040705Y0046776D01*
X0039788Y0046043D01*
X0037746Y0045309D02*
X0036188Y0043476D01*
X0038021Y0043476D01*
X0036188Y0046043D02*
X0036209Y0046102D01*
X0036234Y0046161D01*
X0036262Y0046218D01*
X0036294Y0046273D01*
X0036329Y0046326D01*
X0036367Y0046376D01*
X0036408Y0046425D01*
X0036452Y0046471D01*
X0036498Y0046514D01*
X0036547Y0046554D01*
X0036598Y0046592D01*
X0036652Y0046626D01*
X0036707Y0046657D01*
X0036765Y0046684D01*
X0036823Y0046708D01*
X0036883Y0046729D01*
X0036945Y0046746D01*
X0037007Y0046759D01*
X0037069Y0046768D01*
X0037133Y0046774D01*
X0037196Y0046776D01*
X0037252Y0046774D01*
X0037308Y0046768D01*
X0037364Y0046759D01*
X0037419Y0046745D01*
X0037472Y0046728D01*
X0037525Y0046708D01*
X0037576Y0046684D01*
X0037625Y0046656D01*
X0037672Y0046625D01*
X0037717Y0046591D01*
X0037759Y0046554D01*
X0037799Y0046514D01*
X0037836Y0046472D01*
X0037870Y0046427D01*
X0037901Y0046380D01*
X0037929Y0046331D01*
X0037953Y0046280D01*
X0037973Y0046227D01*
X0037990Y0046174D01*
X0038004Y0046119D01*
X0038013Y0046063D01*
X0038019Y0046007D01*
X0038021Y0045951D01*
X0038019Y0045896D01*
X0038014Y0045841D01*
X0038006Y0045786D01*
X0037994Y0045733D01*
X0037978Y0045679D01*
X0037960Y0045628D01*
X0037938Y0045577D01*
X0037913Y0045528D01*
X0037885Y0045480D01*
X0037855Y0045434D01*
X0037821Y0045390D01*
X0037785Y0045349D01*
X0037746Y0045309D01*
X0034146Y0045309D02*
X0032588Y0043476D01*
X0034421Y0043476D01*
X0032588Y0046043D02*
X0032609Y0046102D01*
X0032634Y0046161D01*
X0032662Y0046218D01*
X0032694Y0046273D01*
X0032729Y0046326D01*
X0032767Y0046376D01*
X0032808Y0046425D01*
X0032852Y0046471D01*
X0032898Y0046514D01*
X0032947Y0046554D01*
X0032998Y0046592D01*
X0033052Y0046626D01*
X0033107Y0046657D01*
X0033165Y0046684D01*
X0033223Y0046708D01*
X0033283Y0046729D01*
X0033345Y0046746D01*
X0033407Y0046759D01*
X0033469Y0046768D01*
X0033533Y0046774D01*
X0033596Y0046776D01*
X0033652Y0046774D01*
X0033708Y0046768D01*
X0033764Y0046759D01*
X0033819Y0046745D01*
X0033872Y0046728D01*
X0033925Y0046708D01*
X0033976Y0046684D01*
X0034025Y0046656D01*
X0034072Y0046625D01*
X0034117Y0046591D01*
X0034159Y0046554D01*
X0034199Y0046514D01*
X0034236Y0046472D01*
X0034270Y0046427D01*
X0034301Y0046380D01*
X0034329Y0046331D01*
X0034353Y0046280D01*
X0034373Y0046227D01*
X0034390Y0046174D01*
X0034404Y0046119D01*
X0034413Y0046063D01*
X0034419Y0046007D01*
X0034421Y0045951D01*
X0034419Y0045896D01*
X0034414Y0045841D01*
X0034406Y0045786D01*
X0034394Y0045733D01*
X0034378Y0045679D01*
X0034360Y0045628D01*
X0034338Y0045577D01*
X0034313Y0045528D01*
X0034285Y0045480D01*
X0034255Y0045434D01*
X0034221Y0045390D01*
X0034185Y0045349D01*
X0034146Y0045309D01*
X0030701Y0045309D02*
X0030701Y0043476D01*
X0029601Y0043476D01*
X0029549Y0043478D01*
X0029497Y0043483D01*
X0029445Y0043493D01*
X0029394Y0043506D01*
X0029345Y0043522D01*
X0029297Y0043542D01*
X0029250Y0043566D01*
X0029205Y0043592D01*
X0029162Y0043622D01*
X0029121Y0043655D01*
X0029083Y0043691D01*
X0029047Y0043729D01*
X0029014Y0043770D01*
X0028984Y0043813D01*
X0028958Y0043858D01*
X0028934Y0043905D01*
X0028914Y0043953D01*
X0028898Y0044002D01*
X0028885Y0044053D01*
X0028875Y0044105D01*
X0028870Y0044157D01*
X0028868Y0044209D01*
X0028868Y0046043D01*
X0028870Y0046095D01*
X0028875Y0046147D01*
X0028885Y0046199D01*
X0028898Y0046250D01*
X0028914Y0046299D01*
X0028934Y0046347D01*
X0028958Y0046394D01*
X0028984Y0046439D01*
X0029014Y0046482D01*
X0029047Y0046523D01*
X0029083Y0046561D01*
X0029121Y0046597D01*
X0029162Y0046630D01*
X0029205Y0046660D01*
X0029250Y0046686D01*
X0029296Y0046710D01*
X0029345Y0046730D01*
X0029394Y0046746D01*
X0029445Y0046759D01*
X0029497Y0046769D01*
X0029549Y0046774D01*
X0029601Y0046776D01*
X0030701Y0046776D01*
X0030701Y0045309D02*
X0030151Y0045309D01*
X0027226Y0046776D02*
X0025759Y0046776D01*
X0025759Y0043476D01*
X0027226Y0043476D01*
X0026859Y0045309D02*
X0025759Y0045309D01*
X0022805Y0043476D02*
X0020972Y0043476D01*
X0021888Y0043476D02*
X0021888Y0046776D01*
X0020972Y0046043D01*
X0018958Y0044851D02*
X0017950Y0045401D01*
X0018317Y0046776D02*
X0018391Y0046774D01*
X0018464Y0046768D01*
X0018537Y0046758D01*
X0018610Y0046744D01*
X0018681Y0046727D01*
X0018752Y0046705D01*
X0018821Y0046680D01*
X0018889Y0046651D01*
X0018955Y0046619D01*
X0019020Y0046583D01*
X0019082Y0046544D01*
X0019142Y0046501D01*
X0017950Y0045401D02*
X0017906Y0045429D01*
X0017865Y0045459D01*
X0017826Y0045493D01*
X0017789Y0045529D01*
X0017754Y0045568D01*
X0017723Y0045608D01*
X0017694Y0045651D01*
X0017669Y0045696D01*
X0017646Y0045742D01*
X0017627Y0045790D01*
X0017611Y0045839D01*
X0017599Y0045889D01*
X0017590Y0045940D01*
X0017585Y0045991D01*
X0017583Y0046043D01*
X0017584Y0046043D02*
X0017586Y0046095D01*
X0017591Y0046147D01*
X0017601Y0046199D01*
X0017614Y0046250D01*
X0017630Y0046299D01*
X0017650Y0046347D01*
X0017674Y0046394D01*
X0017700Y0046439D01*
X0017730Y0046482D01*
X0017763Y0046523D01*
X0017799Y0046561D01*
X0017837Y0046597D01*
X0017878Y0046630D01*
X0017921Y0046660D01*
X0017966Y0046686D01*
X0018013Y0046710D01*
X0018061Y0046730D01*
X0018110Y0046746D01*
X0018161Y0046759D01*
X0018213Y0046769D01*
X0018265Y0046774D01*
X0018317Y0046776D01*
X0017492Y0043934D02*
X0017547Y0043881D01*
X0017605Y0043831D01*
X0017665Y0043784D01*
X0017727Y0043740D01*
X0017792Y0043699D01*
X0017858Y0043661D01*
X0017926Y0043626D01*
X0017996Y0043595D01*
X0018067Y0043568D01*
X0018140Y0043543D01*
X0018214Y0043523D01*
X0018288Y0043506D01*
X0018364Y0043493D01*
X0018439Y0043484D01*
X0018516Y0043478D01*
X0018592Y0043476D01*
X0018644Y0043478D01*
X0018696Y0043483D01*
X0018748Y0043493D01*
X0018799Y0043506D01*
X0018848Y0043522D01*
X0018897Y0043542D01*
X0018943Y0043566D01*
X0018988Y0043592D01*
X0019031Y0043622D01*
X0019072Y0043655D01*
X0019110Y0043691D01*
X0019146Y0043729D01*
X0019179Y0043770D01*
X0019209Y0043813D01*
X0019235Y0043858D01*
X0019259Y0043905D01*
X0019279Y0043953D01*
X0019295Y0044002D01*
X0019308Y0044053D01*
X0019318Y0044105D01*
X0019323Y0044157D01*
X0019325Y0044209D01*
X0019323Y0044261D01*
X0019318Y0044312D01*
X0019309Y0044363D01*
X0019297Y0044413D01*
X0019281Y0044462D01*
X0019262Y0044510D01*
X0019239Y0044556D01*
X0019214Y0044601D01*
X0019185Y0044644D01*
X0019154Y0044684D01*
X0019119Y0044723D01*
X0019082Y0044759D01*
X0019043Y0044793D01*
X0019002Y0044823D01*
X0018958Y0044851D01*
D15*
X0127479Y0048645D02*
X0127578Y0048476D01*
X0127682Y0048310D01*
X0127789Y0048146D01*
X0127900Y0047985D01*
X0128015Y0047827D01*
X0128134Y0047672D01*
X0128257Y0047519D01*
X0128383Y0047370D01*
X0128513Y0047224D01*
X0128647Y0047081D01*
X0128784Y0046941D01*
X0128924Y0046805D01*
X0129068Y0046672D01*
X0129215Y0046543D01*
X0129365Y0046417D01*
X0129518Y0046296D01*
X0129674Y0046177D01*
X0129833Y0046063D01*
X0129994Y0045953D01*
X0130159Y0045847D01*
X0130325Y0045744D01*
X0130495Y0045646D01*
X0130666Y0045552D01*
X0130840Y0045462D01*
X0131016Y0045377D01*
X0131194Y0045295D01*
X0131374Y0045219D01*
X0131556Y0045146D01*
X0131739Y0045078D01*
X0131924Y0045015D01*
X0132111Y0044956D01*
X0132299Y0044902D01*
X0132488Y0044852D01*
X0132678Y0044807D01*
X0132870Y0044767D01*
X0133062Y0044731D01*
X0133255Y0044700D01*
X0133449Y0044674D01*
X0133644Y0044652D01*
X0133839Y0044636D01*
X0134034Y0044624D01*
X0134230Y0044616D01*
X0134425Y0044614D01*
X0127366Y0056379D02*
X0127459Y0056547D01*
X0127555Y0056713D01*
X0127655Y0056877D01*
X0127760Y0057038D01*
X0127868Y0057197D01*
X0127980Y0057353D01*
X0128096Y0057507D01*
X0128215Y0057657D01*
X0128338Y0057805D01*
X0128464Y0057950D01*
X0128594Y0058091D01*
X0128727Y0058230D01*
X0128864Y0058365D01*
X0129004Y0058497D01*
X0129146Y0058625D01*
X0129292Y0058750D01*
X0129441Y0058872D01*
X0129593Y0058990D01*
X0129747Y0059104D01*
X0129905Y0059214D01*
X0130064Y0059321D01*
X0130227Y0059424D01*
X0130392Y0059523D01*
X0130559Y0059618D01*
X0130728Y0059708D01*
X0130899Y0059795D01*
X0131073Y0059878D01*
X0131248Y0059956D01*
X0131426Y0060030D01*
X0131605Y0060100D01*
X0131785Y0060166D01*
X0131967Y0060227D01*
X0132151Y0060284D01*
X0132336Y0060336D01*
X0132522Y0060384D01*
X0132709Y0060428D01*
X0132897Y0060467D01*
X0133086Y0060501D01*
X0133276Y0060531D01*
X0133466Y0060556D01*
X0133657Y0060577D01*
X0133849Y0060593D01*
X0134041Y0060605D01*
X0134233Y0060612D01*
X0134425Y0060614D01*
X0140532Y0047446D02*
X0140405Y0047300D01*
X0140276Y0047158D01*
X0140142Y0047018D01*
X0140006Y0046882D01*
X0139866Y0046749D01*
X0139723Y0046619D01*
X0139576Y0046493D01*
X0139427Y0046371D01*
X0139275Y0046252D01*
X0139120Y0046137D01*
X0138963Y0046025D01*
X0138803Y0045918D01*
X0138640Y0045814D01*
X0138474Y0045715D01*
X0138307Y0045619D01*
X0138137Y0045527D01*
X0137965Y0045440D01*
X0137791Y0045356D01*
X0137615Y0045277D01*
X0137437Y0045203D01*
X0137257Y0045132D01*
X0137076Y0045066D01*
X0136893Y0045004D01*
X0136709Y0044947D01*
X0136523Y0044894D01*
X0136336Y0044846D01*
X0136148Y0044802D01*
X0135959Y0044763D01*
X0135769Y0044728D01*
X0135579Y0044698D01*
X0135388Y0044672D01*
X0135196Y0044651D01*
X0135003Y0044635D01*
X0134811Y0044623D01*
X0134618Y0044616D01*
X0134425Y0044614D01*
X0140571Y0057736D02*
X0140444Y0057884D01*
X0140314Y0058029D01*
X0140181Y0058170D01*
X0140044Y0058309D01*
X0139904Y0058444D01*
X0139760Y0058575D01*
X0139613Y0058703D01*
X0139464Y0058828D01*
X0139311Y0058949D01*
X0139156Y0059066D01*
X0138997Y0059179D01*
X0138836Y0059288D01*
X0138672Y0059393D01*
X0138506Y0059495D01*
X0138337Y0059592D01*
X0138167Y0059685D01*
X0137993Y0059774D01*
X0137818Y0059859D01*
X0137641Y0059939D01*
X0137462Y0060015D01*
X0137281Y0060087D01*
X0137098Y0060154D01*
X0136914Y0060217D01*
X0136728Y0060275D01*
X0136541Y0060329D01*
X0136353Y0060378D01*
X0136163Y0060423D01*
X0135973Y0060463D01*
X0135781Y0060498D01*
X0135589Y0060529D01*
X0135396Y0060555D01*
X0135202Y0060576D01*
X0135008Y0060593D01*
X0134814Y0060605D01*
X0134620Y0060612D01*
X0134425Y0060614D01*
M02*
