G75*
%MOIN*%
%OFA0B0*%
%FSLAX25Y25*%
%IPPOS*%
%LPD*%
%AMOC8*
5,1,8,0,0,1.08239X$1,22.5*
%
%ADD10C,0.00000*%
D10*
X0010055Y0012417D02*
X0013992Y0008480D01*
X0147850Y0008480D01*
X0151787Y0012417D01*
X0151787Y0167929D01*
X0147850Y0171866D01*
X0013992Y0171866D01*
X0010055Y0167929D01*
X0010055Y0012417D01*
X0016355Y0032102D02*
X0016357Y0032199D01*
X0016363Y0032296D01*
X0016373Y0032392D01*
X0016387Y0032488D01*
X0016405Y0032584D01*
X0016426Y0032678D01*
X0016452Y0032772D01*
X0016481Y0032864D01*
X0016515Y0032955D01*
X0016551Y0033045D01*
X0016592Y0033133D01*
X0016636Y0033219D01*
X0016684Y0033304D01*
X0016735Y0033386D01*
X0016789Y0033467D01*
X0016847Y0033545D01*
X0016908Y0033620D01*
X0016971Y0033693D01*
X0017038Y0033764D01*
X0017108Y0033831D01*
X0017180Y0033896D01*
X0017255Y0033957D01*
X0017333Y0034016D01*
X0017412Y0034071D01*
X0017494Y0034123D01*
X0017578Y0034171D01*
X0017664Y0034216D01*
X0017752Y0034258D01*
X0017841Y0034296D01*
X0017932Y0034330D01*
X0018024Y0034360D01*
X0018117Y0034387D01*
X0018212Y0034409D01*
X0018307Y0034428D01*
X0018403Y0034443D01*
X0018499Y0034454D01*
X0018596Y0034461D01*
X0018693Y0034464D01*
X0018790Y0034463D01*
X0018887Y0034458D01*
X0018983Y0034449D01*
X0019079Y0034436D01*
X0019175Y0034419D01*
X0019270Y0034398D01*
X0019363Y0034374D01*
X0019456Y0034345D01*
X0019548Y0034313D01*
X0019638Y0034277D01*
X0019726Y0034238D01*
X0019813Y0034194D01*
X0019898Y0034148D01*
X0019981Y0034097D01*
X0020062Y0034044D01*
X0020140Y0033987D01*
X0020217Y0033927D01*
X0020290Y0033864D01*
X0020361Y0033798D01*
X0020429Y0033729D01*
X0020495Y0033657D01*
X0020557Y0033583D01*
X0020616Y0033506D01*
X0020672Y0033427D01*
X0020725Y0033345D01*
X0020775Y0033262D01*
X0020820Y0033176D01*
X0020863Y0033089D01*
X0020902Y0033000D01*
X0020937Y0032910D01*
X0020968Y0032818D01*
X0020995Y0032725D01*
X0021019Y0032631D01*
X0021039Y0032536D01*
X0021055Y0032440D01*
X0021067Y0032344D01*
X0021075Y0032247D01*
X0021079Y0032150D01*
X0021079Y0032054D01*
X0021075Y0031957D01*
X0021067Y0031860D01*
X0021055Y0031764D01*
X0021039Y0031668D01*
X0021019Y0031573D01*
X0020995Y0031479D01*
X0020968Y0031386D01*
X0020937Y0031294D01*
X0020902Y0031204D01*
X0020863Y0031115D01*
X0020820Y0031028D01*
X0020775Y0030942D01*
X0020725Y0030859D01*
X0020672Y0030777D01*
X0020616Y0030698D01*
X0020557Y0030621D01*
X0020495Y0030547D01*
X0020429Y0030475D01*
X0020361Y0030406D01*
X0020290Y0030340D01*
X0020217Y0030277D01*
X0020140Y0030217D01*
X0020062Y0030160D01*
X0019981Y0030107D01*
X0019898Y0030056D01*
X0019813Y0030010D01*
X0019726Y0029966D01*
X0019638Y0029927D01*
X0019548Y0029891D01*
X0019456Y0029859D01*
X0019363Y0029830D01*
X0019270Y0029806D01*
X0019175Y0029785D01*
X0019079Y0029768D01*
X0018983Y0029755D01*
X0018887Y0029746D01*
X0018790Y0029741D01*
X0018693Y0029740D01*
X0018596Y0029743D01*
X0018499Y0029750D01*
X0018403Y0029761D01*
X0018307Y0029776D01*
X0018212Y0029795D01*
X0018117Y0029817D01*
X0018024Y0029844D01*
X0017932Y0029874D01*
X0017841Y0029908D01*
X0017752Y0029946D01*
X0017664Y0029988D01*
X0017578Y0030033D01*
X0017494Y0030081D01*
X0017412Y0030133D01*
X0017333Y0030188D01*
X0017255Y0030247D01*
X0017180Y0030308D01*
X0017108Y0030373D01*
X0017038Y0030440D01*
X0016971Y0030511D01*
X0016908Y0030584D01*
X0016847Y0030659D01*
X0016789Y0030737D01*
X0016735Y0030818D01*
X0016684Y0030900D01*
X0016636Y0030985D01*
X0016592Y0031071D01*
X0016551Y0031159D01*
X0016515Y0031249D01*
X0016481Y0031340D01*
X0016452Y0031432D01*
X0016426Y0031526D01*
X0016405Y0031620D01*
X0016387Y0031716D01*
X0016373Y0031812D01*
X0016363Y0031908D01*
X0016357Y0032005D01*
X0016355Y0032102D01*
X0064386Y0032102D02*
X0064388Y0032199D01*
X0064394Y0032296D01*
X0064404Y0032392D01*
X0064418Y0032488D01*
X0064436Y0032584D01*
X0064457Y0032678D01*
X0064483Y0032772D01*
X0064512Y0032864D01*
X0064546Y0032955D01*
X0064582Y0033045D01*
X0064623Y0033133D01*
X0064667Y0033219D01*
X0064715Y0033304D01*
X0064766Y0033386D01*
X0064820Y0033467D01*
X0064878Y0033545D01*
X0064939Y0033620D01*
X0065002Y0033693D01*
X0065069Y0033764D01*
X0065139Y0033831D01*
X0065211Y0033896D01*
X0065286Y0033957D01*
X0065364Y0034016D01*
X0065443Y0034071D01*
X0065525Y0034123D01*
X0065609Y0034171D01*
X0065695Y0034216D01*
X0065783Y0034258D01*
X0065872Y0034296D01*
X0065963Y0034330D01*
X0066055Y0034360D01*
X0066148Y0034387D01*
X0066243Y0034409D01*
X0066338Y0034428D01*
X0066434Y0034443D01*
X0066530Y0034454D01*
X0066627Y0034461D01*
X0066724Y0034464D01*
X0066821Y0034463D01*
X0066918Y0034458D01*
X0067014Y0034449D01*
X0067110Y0034436D01*
X0067206Y0034419D01*
X0067301Y0034398D01*
X0067394Y0034374D01*
X0067487Y0034345D01*
X0067579Y0034313D01*
X0067669Y0034277D01*
X0067757Y0034238D01*
X0067844Y0034194D01*
X0067929Y0034148D01*
X0068012Y0034097D01*
X0068093Y0034044D01*
X0068171Y0033987D01*
X0068248Y0033927D01*
X0068321Y0033864D01*
X0068392Y0033798D01*
X0068460Y0033729D01*
X0068526Y0033657D01*
X0068588Y0033583D01*
X0068647Y0033506D01*
X0068703Y0033427D01*
X0068756Y0033345D01*
X0068806Y0033262D01*
X0068851Y0033176D01*
X0068894Y0033089D01*
X0068933Y0033000D01*
X0068968Y0032910D01*
X0068999Y0032818D01*
X0069026Y0032725D01*
X0069050Y0032631D01*
X0069070Y0032536D01*
X0069086Y0032440D01*
X0069098Y0032344D01*
X0069106Y0032247D01*
X0069110Y0032150D01*
X0069110Y0032054D01*
X0069106Y0031957D01*
X0069098Y0031860D01*
X0069086Y0031764D01*
X0069070Y0031668D01*
X0069050Y0031573D01*
X0069026Y0031479D01*
X0068999Y0031386D01*
X0068968Y0031294D01*
X0068933Y0031204D01*
X0068894Y0031115D01*
X0068851Y0031028D01*
X0068806Y0030942D01*
X0068756Y0030859D01*
X0068703Y0030777D01*
X0068647Y0030698D01*
X0068588Y0030621D01*
X0068526Y0030547D01*
X0068460Y0030475D01*
X0068392Y0030406D01*
X0068321Y0030340D01*
X0068248Y0030277D01*
X0068171Y0030217D01*
X0068093Y0030160D01*
X0068012Y0030107D01*
X0067929Y0030056D01*
X0067844Y0030010D01*
X0067757Y0029966D01*
X0067669Y0029927D01*
X0067579Y0029891D01*
X0067487Y0029859D01*
X0067394Y0029830D01*
X0067301Y0029806D01*
X0067206Y0029785D01*
X0067110Y0029768D01*
X0067014Y0029755D01*
X0066918Y0029746D01*
X0066821Y0029741D01*
X0066724Y0029740D01*
X0066627Y0029743D01*
X0066530Y0029750D01*
X0066434Y0029761D01*
X0066338Y0029776D01*
X0066243Y0029795D01*
X0066148Y0029817D01*
X0066055Y0029844D01*
X0065963Y0029874D01*
X0065872Y0029908D01*
X0065783Y0029946D01*
X0065695Y0029988D01*
X0065609Y0030033D01*
X0065525Y0030081D01*
X0065443Y0030133D01*
X0065364Y0030188D01*
X0065286Y0030247D01*
X0065211Y0030308D01*
X0065139Y0030373D01*
X0065069Y0030440D01*
X0065002Y0030511D01*
X0064939Y0030584D01*
X0064878Y0030659D01*
X0064820Y0030737D01*
X0064766Y0030818D01*
X0064715Y0030900D01*
X0064667Y0030985D01*
X0064623Y0031071D01*
X0064582Y0031159D01*
X0064546Y0031249D01*
X0064512Y0031340D01*
X0064483Y0031432D01*
X0064457Y0031526D01*
X0064436Y0031620D01*
X0064418Y0031716D01*
X0064404Y0031812D01*
X0064394Y0031908D01*
X0064388Y0032005D01*
X0064386Y0032102D01*
X0034267Y0093126D02*
X0034269Y0093295D01*
X0034275Y0093464D01*
X0034286Y0093633D01*
X0034300Y0093801D01*
X0034319Y0093969D01*
X0034342Y0094137D01*
X0034368Y0094304D01*
X0034399Y0094470D01*
X0034434Y0094636D01*
X0034473Y0094800D01*
X0034517Y0094964D01*
X0034564Y0095126D01*
X0034615Y0095287D01*
X0034670Y0095447D01*
X0034729Y0095606D01*
X0034791Y0095763D01*
X0034858Y0095918D01*
X0034929Y0096072D01*
X0035003Y0096224D01*
X0035081Y0096374D01*
X0035162Y0096522D01*
X0035247Y0096668D01*
X0035336Y0096812D01*
X0035428Y0096954D01*
X0035524Y0097093D01*
X0035623Y0097230D01*
X0035725Y0097365D01*
X0035831Y0097497D01*
X0035940Y0097626D01*
X0036052Y0097753D01*
X0036167Y0097877D01*
X0036285Y0097998D01*
X0036406Y0098116D01*
X0036530Y0098231D01*
X0036657Y0098343D01*
X0036786Y0098452D01*
X0036918Y0098558D01*
X0037053Y0098660D01*
X0037190Y0098759D01*
X0037329Y0098855D01*
X0037471Y0098947D01*
X0037615Y0099036D01*
X0037761Y0099121D01*
X0037909Y0099202D01*
X0038059Y0099280D01*
X0038211Y0099354D01*
X0038365Y0099425D01*
X0038520Y0099492D01*
X0038677Y0099554D01*
X0038836Y0099613D01*
X0038996Y0099668D01*
X0039157Y0099719D01*
X0039319Y0099766D01*
X0039483Y0099810D01*
X0039647Y0099849D01*
X0039813Y0099884D01*
X0039979Y0099915D01*
X0040146Y0099941D01*
X0040314Y0099964D01*
X0040482Y0099983D01*
X0040650Y0099997D01*
X0040819Y0100008D01*
X0040988Y0100014D01*
X0041157Y0100016D01*
X0041326Y0100014D01*
X0041495Y0100008D01*
X0041664Y0099997D01*
X0041832Y0099983D01*
X0042000Y0099964D01*
X0042168Y0099941D01*
X0042335Y0099915D01*
X0042501Y0099884D01*
X0042667Y0099849D01*
X0042831Y0099810D01*
X0042995Y0099766D01*
X0043157Y0099719D01*
X0043318Y0099668D01*
X0043478Y0099613D01*
X0043637Y0099554D01*
X0043794Y0099492D01*
X0043949Y0099425D01*
X0044103Y0099354D01*
X0044255Y0099280D01*
X0044405Y0099202D01*
X0044553Y0099121D01*
X0044699Y0099036D01*
X0044843Y0098947D01*
X0044985Y0098855D01*
X0045124Y0098759D01*
X0045261Y0098660D01*
X0045396Y0098558D01*
X0045528Y0098452D01*
X0045657Y0098343D01*
X0045784Y0098231D01*
X0045908Y0098116D01*
X0046029Y0097998D01*
X0046147Y0097877D01*
X0046262Y0097753D01*
X0046374Y0097626D01*
X0046483Y0097497D01*
X0046589Y0097365D01*
X0046691Y0097230D01*
X0046790Y0097093D01*
X0046886Y0096954D01*
X0046978Y0096812D01*
X0047067Y0096668D01*
X0047152Y0096522D01*
X0047233Y0096374D01*
X0047311Y0096224D01*
X0047385Y0096072D01*
X0047456Y0095918D01*
X0047523Y0095763D01*
X0047585Y0095606D01*
X0047644Y0095447D01*
X0047699Y0095287D01*
X0047750Y0095126D01*
X0047797Y0094964D01*
X0047841Y0094800D01*
X0047880Y0094636D01*
X0047915Y0094470D01*
X0047946Y0094304D01*
X0047972Y0094137D01*
X0047995Y0093969D01*
X0048014Y0093801D01*
X0048028Y0093633D01*
X0048039Y0093464D01*
X0048045Y0093295D01*
X0048047Y0093126D01*
X0048045Y0092957D01*
X0048039Y0092788D01*
X0048028Y0092619D01*
X0048014Y0092451D01*
X0047995Y0092283D01*
X0047972Y0092115D01*
X0047946Y0091948D01*
X0047915Y0091782D01*
X0047880Y0091616D01*
X0047841Y0091452D01*
X0047797Y0091288D01*
X0047750Y0091126D01*
X0047699Y0090965D01*
X0047644Y0090805D01*
X0047585Y0090646D01*
X0047523Y0090489D01*
X0047456Y0090334D01*
X0047385Y0090180D01*
X0047311Y0090028D01*
X0047233Y0089878D01*
X0047152Y0089730D01*
X0047067Y0089584D01*
X0046978Y0089440D01*
X0046886Y0089298D01*
X0046790Y0089159D01*
X0046691Y0089022D01*
X0046589Y0088887D01*
X0046483Y0088755D01*
X0046374Y0088626D01*
X0046262Y0088499D01*
X0046147Y0088375D01*
X0046029Y0088254D01*
X0045908Y0088136D01*
X0045784Y0088021D01*
X0045657Y0087909D01*
X0045528Y0087800D01*
X0045396Y0087694D01*
X0045261Y0087592D01*
X0045124Y0087493D01*
X0044985Y0087397D01*
X0044843Y0087305D01*
X0044699Y0087216D01*
X0044553Y0087131D01*
X0044405Y0087050D01*
X0044255Y0086972D01*
X0044103Y0086898D01*
X0043949Y0086827D01*
X0043794Y0086760D01*
X0043637Y0086698D01*
X0043478Y0086639D01*
X0043318Y0086584D01*
X0043157Y0086533D01*
X0042995Y0086486D01*
X0042831Y0086442D01*
X0042667Y0086403D01*
X0042501Y0086368D01*
X0042335Y0086337D01*
X0042168Y0086311D01*
X0042000Y0086288D01*
X0041832Y0086269D01*
X0041664Y0086255D01*
X0041495Y0086244D01*
X0041326Y0086238D01*
X0041157Y0086236D01*
X0040988Y0086238D01*
X0040819Y0086244D01*
X0040650Y0086255D01*
X0040482Y0086269D01*
X0040314Y0086288D01*
X0040146Y0086311D01*
X0039979Y0086337D01*
X0039813Y0086368D01*
X0039647Y0086403D01*
X0039483Y0086442D01*
X0039319Y0086486D01*
X0039157Y0086533D01*
X0038996Y0086584D01*
X0038836Y0086639D01*
X0038677Y0086698D01*
X0038520Y0086760D01*
X0038365Y0086827D01*
X0038211Y0086898D01*
X0038059Y0086972D01*
X0037909Y0087050D01*
X0037761Y0087131D01*
X0037615Y0087216D01*
X0037471Y0087305D01*
X0037329Y0087397D01*
X0037190Y0087493D01*
X0037053Y0087592D01*
X0036918Y0087694D01*
X0036786Y0087800D01*
X0036657Y0087909D01*
X0036530Y0088021D01*
X0036406Y0088136D01*
X0036285Y0088254D01*
X0036167Y0088375D01*
X0036052Y0088499D01*
X0035940Y0088626D01*
X0035831Y0088755D01*
X0035725Y0088887D01*
X0035623Y0089022D01*
X0035524Y0089159D01*
X0035428Y0089298D01*
X0035336Y0089440D01*
X0035247Y0089584D01*
X0035162Y0089730D01*
X0035081Y0089878D01*
X0035003Y0090028D01*
X0034929Y0090180D01*
X0034858Y0090334D01*
X0034791Y0090489D01*
X0034729Y0090646D01*
X0034670Y0090805D01*
X0034615Y0090965D01*
X0034564Y0091126D01*
X0034517Y0091288D01*
X0034473Y0091452D01*
X0034434Y0091616D01*
X0034399Y0091782D01*
X0034368Y0091948D01*
X0034342Y0092115D01*
X0034319Y0092283D01*
X0034300Y0092451D01*
X0034286Y0092619D01*
X0034275Y0092788D01*
X0034269Y0092957D01*
X0034267Y0093126D01*
X0014582Y0160449D02*
X0014584Y0160618D01*
X0014590Y0160787D01*
X0014601Y0160956D01*
X0014615Y0161124D01*
X0014634Y0161292D01*
X0014657Y0161460D01*
X0014683Y0161627D01*
X0014714Y0161793D01*
X0014749Y0161959D01*
X0014788Y0162123D01*
X0014832Y0162287D01*
X0014879Y0162449D01*
X0014930Y0162610D01*
X0014985Y0162770D01*
X0015044Y0162929D01*
X0015106Y0163086D01*
X0015173Y0163241D01*
X0015244Y0163395D01*
X0015318Y0163547D01*
X0015396Y0163697D01*
X0015477Y0163845D01*
X0015562Y0163991D01*
X0015651Y0164135D01*
X0015743Y0164277D01*
X0015839Y0164416D01*
X0015938Y0164553D01*
X0016040Y0164688D01*
X0016146Y0164820D01*
X0016255Y0164949D01*
X0016367Y0165076D01*
X0016482Y0165200D01*
X0016600Y0165321D01*
X0016721Y0165439D01*
X0016845Y0165554D01*
X0016972Y0165666D01*
X0017101Y0165775D01*
X0017233Y0165881D01*
X0017368Y0165983D01*
X0017505Y0166082D01*
X0017644Y0166178D01*
X0017786Y0166270D01*
X0017930Y0166359D01*
X0018076Y0166444D01*
X0018224Y0166525D01*
X0018374Y0166603D01*
X0018526Y0166677D01*
X0018680Y0166748D01*
X0018835Y0166815D01*
X0018992Y0166877D01*
X0019151Y0166936D01*
X0019311Y0166991D01*
X0019472Y0167042D01*
X0019634Y0167089D01*
X0019798Y0167133D01*
X0019962Y0167172D01*
X0020128Y0167207D01*
X0020294Y0167238D01*
X0020461Y0167264D01*
X0020629Y0167287D01*
X0020797Y0167306D01*
X0020965Y0167320D01*
X0021134Y0167331D01*
X0021303Y0167337D01*
X0021472Y0167339D01*
X0021641Y0167337D01*
X0021810Y0167331D01*
X0021979Y0167320D01*
X0022147Y0167306D01*
X0022315Y0167287D01*
X0022483Y0167264D01*
X0022650Y0167238D01*
X0022816Y0167207D01*
X0022982Y0167172D01*
X0023146Y0167133D01*
X0023310Y0167089D01*
X0023472Y0167042D01*
X0023633Y0166991D01*
X0023793Y0166936D01*
X0023952Y0166877D01*
X0024109Y0166815D01*
X0024264Y0166748D01*
X0024418Y0166677D01*
X0024570Y0166603D01*
X0024720Y0166525D01*
X0024868Y0166444D01*
X0025014Y0166359D01*
X0025158Y0166270D01*
X0025300Y0166178D01*
X0025439Y0166082D01*
X0025576Y0165983D01*
X0025711Y0165881D01*
X0025843Y0165775D01*
X0025972Y0165666D01*
X0026099Y0165554D01*
X0026223Y0165439D01*
X0026344Y0165321D01*
X0026462Y0165200D01*
X0026577Y0165076D01*
X0026689Y0164949D01*
X0026798Y0164820D01*
X0026904Y0164688D01*
X0027006Y0164553D01*
X0027105Y0164416D01*
X0027201Y0164277D01*
X0027293Y0164135D01*
X0027382Y0163991D01*
X0027467Y0163845D01*
X0027548Y0163697D01*
X0027626Y0163547D01*
X0027700Y0163395D01*
X0027771Y0163241D01*
X0027838Y0163086D01*
X0027900Y0162929D01*
X0027959Y0162770D01*
X0028014Y0162610D01*
X0028065Y0162449D01*
X0028112Y0162287D01*
X0028156Y0162123D01*
X0028195Y0161959D01*
X0028230Y0161793D01*
X0028261Y0161627D01*
X0028287Y0161460D01*
X0028310Y0161292D01*
X0028329Y0161124D01*
X0028343Y0160956D01*
X0028354Y0160787D01*
X0028360Y0160618D01*
X0028362Y0160449D01*
X0028360Y0160280D01*
X0028354Y0160111D01*
X0028343Y0159942D01*
X0028329Y0159774D01*
X0028310Y0159606D01*
X0028287Y0159438D01*
X0028261Y0159271D01*
X0028230Y0159105D01*
X0028195Y0158939D01*
X0028156Y0158775D01*
X0028112Y0158611D01*
X0028065Y0158449D01*
X0028014Y0158288D01*
X0027959Y0158128D01*
X0027900Y0157969D01*
X0027838Y0157812D01*
X0027771Y0157657D01*
X0027700Y0157503D01*
X0027626Y0157351D01*
X0027548Y0157201D01*
X0027467Y0157053D01*
X0027382Y0156907D01*
X0027293Y0156763D01*
X0027201Y0156621D01*
X0027105Y0156482D01*
X0027006Y0156345D01*
X0026904Y0156210D01*
X0026798Y0156078D01*
X0026689Y0155949D01*
X0026577Y0155822D01*
X0026462Y0155698D01*
X0026344Y0155577D01*
X0026223Y0155459D01*
X0026099Y0155344D01*
X0025972Y0155232D01*
X0025843Y0155123D01*
X0025711Y0155017D01*
X0025576Y0154915D01*
X0025439Y0154816D01*
X0025300Y0154720D01*
X0025158Y0154628D01*
X0025014Y0154539D01*
X0024868Y0154454D01*
X0024720Y0154373D01*
X0024570Y0154295D01*
X0024418Y0154221D01*
X0024264Y0154150D01*
X0024109Y0154083D01*
X0023952Y0154021D01*
X0023793Y0153962D01*
X0023633Y0153907D01*
X0023472Y0153856D01*
X0023310Y0153809D01*
X0023146Y0153765D01*
X0022982Y0153726D01*
X0022816Y0153691D01*
X0022650Y0153660D01*
X0022483Y0153634D01*
X0022315Y0153611D01*
X0022147Y0153592D01*
X0021979Y0153578D01*
X0021810Y0153567D01*
X0021641Y0153561D01*
X0021472Y0153559D01*
X0021303Y0153561D01*
X0021134Y0153567D01*
X0020965Y0153578D01*
X0020797Y0153592D01*
X0020629Y0153611D01*
X0020461Y0153634D01*
X0020294Y0153660D01*
X0020128Y0153691D01*
X0019962Y0153726D01*
X0019798Y0153765D01*
X0019634Y0153809D01*
X0019472Y0153856D01*
X0019311Y0153907D01*
X0019151Y0153962D01*
X0018992Y0154021D01*
X0018835Y0154083D01*
X0018680Y0154150D01*
X0018526Y0154221D01*
X0018374Y0154295D01*
X0018224Y0154373D01*
X0018076Y0154454D01*
X0017930Y0154539D01*
X0017786Y0154628D01*
X0017644Y0154720D01*
X0017505Y0154816D01*
X0017368Y0154915D01*
X0017233Y0155017D01*
X0017101Y0155123D01*
X0016972Y0155232D01*
X0016845Y0155344D01*
X0016721Y0155459D01*
X0016600Y0155577D01*
X0016482Y0155698D01*
X0016367Y0155822D01*
X0016255Y0155949D01*
X0016146Y0156078D01*
X0016040Y0156210D01*
X0015938Y0156345D01*
X0015839Y0156482D01*
X0015743Y0156621D01*
X0015651Y0156763D01*
X0015562Y0156907D01*
X0015477Y0157053D01*
X0015396Y0157201D01*
X0015318Y0157351D01*
X0015244Y0157503D01*
X0015173Y0157657D01*
X0015106Y0157812D01*
X0015044Y0157969D01*
X0014985Y0158128D01*
X0014930Y0158288D01*
X0014879Y0158449D01*
X0014832Y0158611D01*
X0014788Y0158775D01*
X0014749Y0158939D01*
X0014714Y0159105D01*
X0014683Y0159271D01*
X0014657Y0159438D01*
X0014634Y0159606D01*
X0014615Y0159774D01*
X0014601Y0159942D01*
X0014590Y0160111D01*
X0014584Y0160280D01*
X0014582Y0160449D01*
X0133480Y0160449D02*
X0133482Y0160618D01*
X0133488Y0160787D01*
X0133499Y0160956D01*
X0133513Y0161124D01*
X0133532Y0161292D01*
X0133555Y0161460D01*
X0133581Y0161627D01*
X0133612Y0161793D01*
X0133647Y0161959D01*
X0133686Y0162123D01*
X0133730Y0162287D01*
X0133777Y0162449D01*
X0133828Y0162610D01*
X0133883Y0162770D01*
X0133942Y0162929D01*
X0134004Y0163086D01*
X0134071Y0163241D01*
X0134142Y0163395D01*
X0134216Y0163547D01*
X0134294Y0163697D01*
X0134375Y0163845D01*
X0134460Y0163991D01*
X0134549Y0164135D01*
X0134641Y0164277D01*
X0134737Y0164416D01*
X0134836Y0164553D01*
X0134938Y0164688D01*
X0135044Y0164820D01*
X0135153Y0164949D01*
X0135265Y0165076D01*
X0135380Y0165200D01*
X0135498Y0165321D01*
X0135619Y0165439D01*
X0135743Y0165554D01*
X0135870Y0165666D01*
X0135999Y0165775D01*
X0136131Y0165881D01*
X0136266Y0165983D01*
X0136403Y0166082D01*
X0136542Y0166178D01*
X0136684Y0166270D01*
X0136828Y0166359D01*
X0136974Y0166444D01*
X0137122Y0166525D01*
X0137272Y0166603D01*
X0137424Y0166677D01*
X0137578Y0166748D01*
X0137733Y0166815D01*
X0137890Y0166877D01*
X0138049Y0166936D01*
X0138209Y0166991D01*
X0138370Y0167042D01*
X0138532Y0167089D01*
X0138696Y0167133D01*
X0138860Y0167172D01*
X0139026Y0167207D01*
X0139192Y0167238D01*
X0139359Y0167264D01*
X0139527Y0167287D01*
X0139695Y0167306D01*
X0139863Y0167320D01*
X0140032Y0167331D01*
X0140201Y0167337D01*
X0140370Y0167339D01*
X0140539Y0167337D01*
X0140708Y0167331D01*
X0140877Y0167320D01*
X0141045Y0167306D01*
X0141213Y0167287D01*
X0141381Y0167264D01*
X0141548Y0167238D01*
X0141714Y0167207D01*
X0141880Y0167172D01*
X0142044Y0167133D01*
X0142208Y0167089D01*
X0142370Y0167042D01*
X0142531Y0166991D01*
X0142691Y0166936D01*
X0142850Y0166877D01*
X0143007Y0166815D01*
X0143162Y0166748D01*
X0143316Y0166677D01*
X0143468Y0166603D01*
X0143618Y0166525D01*
X0143766Y0166444D01*
X0143912Y0166359D01*
X0144056Y0166270D01*
X0144198Y0166178D01*
X0144337Y0166082D01*
X0144474Y0165983D01*
X0144609Y0165881D01*
X0144741Y0165775D01*
X0144870Y0165666D01*
X0144997Y0165554D01*
X0145121Y0165439D01*
X0145242Y0165321D01*
X0145360Y0165200D01*
X0145475Y0165076D01*
X0145587Y0164949D01*
X0145696Y0164820D01*
X0145802Y0164688D01*
X0145904Y0164553D01*
X0146003Y0164416D01*
X0146099Y0164277D01*
X0146191Y0164135D01*
X0146280Y0163991D01*
X0146365Y0163845D01*
X0146446Y0163697D01*
X0146524Y0163547D01*
X0146598Y0163395D01*
X0146669Y0163241D01*
X0146736Y0163086D01*
X0146798Y0162929D01*
X0146857Y0162770D01*
X0146912Y0162610D01*
X0146963Y0162449D01*
X0147010Y0162287D01*
X0147054Y0162123D01*
X0147093Y0161959D01*
X0147128Y0161793D01*
X0147159Y0161627D01*
X0147185Y0161460D01*
X0147208Y0161292D01*
X0147227Y0161124D01*
X0147241Y0160956D01*
X0147252Y0160787D01*
X0147258Y0160618D01*
X0147260Y0160449D01*
X0147258Y0160280D01*
X0147252Y0160111D01*
X0147241Y0159942D01*
X0147227Y0159774D01*
X0147208Y0159606D01*
X0147185Y0159438D01*
X0147159Y0159271D01*
X0147128Y0159105D01*
X0147093Y0158939D01*
X0147054Y0158775D01*
X0147010Y0158611D01*
X0146963Y0158449D01*
X0146912Y0158288D01*
X0146857Y0158128D01*
X0146798Y0157969D01*
X0146736Y0157812D01*
X0146669Y0157657D01*
X0146598Y0157503D01*
X0146524Y0157351D01*
X0146446Y0157201D01*
X0146365Y0157053D01*
X0146280Y0156907D01*
X0146191Y0156763D01*
X0146099Y0156621D01*
X0146003Y0156482D01*
X0145904Y0156345D01*
X0145802Y0156210D01*
X0145696Y0156078D01*
X0145587Y0155949D01*
X0145475Y0155822D01*
X0145360Y0155698D01*
X0145242Y0155577D01*
X0145121Y0155459D01*
X0144997Y0155344D01*
X0144870Y0155232D01*
X0144741Y0155123D01*
X0144609Y0155017D01*
X0144474Y0154915D01*
X0144337Y0154816D01*
X0144198Y0154720D01*
X0144056Y0154628D01*
X0143912Y0154539D01*
X0143766Y0154454D01*
X0143618Y0154373D01*
X0143468Y0154295D01*
X0143316Y0154221D01*
X0143162Y0154150D01*
X0143007Y0154083D01*
X0142850Y0154021D01*
X0142691Y0153962D01*
X0142531Y0153907D01*
X0142370Y0153856D01*
X0142208Y0153809D01*
X0142044Y0153765D01*
X0141880Y0153726D01*
X0141714Y0153691D01*
X0141548Y0153660D01*
X0141381Y0153634D01*
X0141213Y0153611D01*
X0141045Y0153592D01*
X0140877Y0153578D01*
X0140708Y0153567D01*
X0140539Y0153561D01*
X0140370Y0153559D01*
X0140201Y0153561D01*
X0140032Y0153567D01*
X0139863Y0153578D01*
X0139695Y0153592D01*
X0139527Y0153611D01*
X0139359Y0153634D01*
X0139192Y0153660D01*
X0139026Y0153691D01*
X0138860Y0153726D01*
X0138696Y0153765D01*
X0138532Y0153809D01*
X0138370Y0153856D01*
X0138209Y0153907D01*
X0138049Y0153962D01*
X0137890Y0154021D01*
X0137733Y0154083D01*
X0137578Y0154150D01*
X0137424Y0154221D01*
X0137272Y0154295D01*
X0137122Y0154373D01*
X0136974Y0154454D01*
X0136828Y0154539D01*
X0136684Y0154628D01*
X0136542Y0154720D01*
X0136403Y0154816D01*
X0136266Y0154915D01*
X0136131Y0155017D01*
X0135999Y0155123D01*
X0135870Y0155232D01*
X0135743Y0155344D01*
X0135619Y0155459D01*
X0135498Y0155577D01*
X0135380Y0155698D01*
X0135265Y0155822D01*
X0135153Y0155949D01*
X0135044Y0156078D01*
X0134938Y0156210D01*
X0134836Y0156345D01*
X0134737Y0156482D01*
X0134641Y0156621D01*
X0134549Y0156763D01*
X0134460Y0156907D01*
X0134375Y0157053D01*
X0134294Y0157201D01*
X0134216Y0157351D01*
X0134142Y0157503D01*
X0134071Y0157657D01*
X0134004Y0157812D01*
X0133942Y0157969D01*
X0133883Y0158128D01*
X0133828Y0158288D01*
X0133777Y0158449D01*
X0133730Y0158611D01*
X0133686Y0158775D01*
X0133647Y0158939D01*
X0133612Y0159105D01*
X0133581Y0159271D01*
X0133555Y0159438D01*
X0133532Y0159606D01*
X0133513Y0159774D01*
X0133499Y0159942D01*
X0133488Y0160111D01*
X0133482Y0160280D01*
X0133480Y0160449D01*
M02*
