%
M48
M72
T01C0.01378
T02C0.03150
T03C0.03200
T04C0.03600
T05C0.04331
T06C0.04724
T07C0.08583
T08C0.13780
%
T01
X26984Y12811
X15961Y28559
X15961Y52181
X47850Y68717
X64780Y83283
X72654Y91157
X79740Y93913
X88008Y82496
X95094Y86433
X98244Y82496
X99425Y100678
X117535Y83677
X130134Y87614
X157693Y69504
X154937Y36433
X128165Y13992
X101000Y44701
X97850Y54150
X89189Y49425
X79346Y72260
X68717Y71079
X63205Y95094
X54937Y103362
X40370Y118323
X15173Y127378
X53362Y163992
X90764Y163205
X91551Y141945
X133677Y160055
X141945Y142732
X157693Y143126
X78953Y13205
X13992Y86827
T02
X34858Y37024
X34858Y27181
X50606Y27181
X50606Y37024
X66354Y37024
X66354Y27181
T03
X138874Y56551
X148874Y56551
T04
X87654Y114780
X77654Y114780
X67654Y114780
X57654Y114780
T05
X115961Y119661
X115961Y109661
X118008Y32102
X108008Y32102
X98008Y32102
X88008Y32102
X138008Y32102
X148008Y32102
T06
X74622Y32102
X26591Y32102
T07
X61827Y53756
X111827Y53756
X111827Y144307
X61827Y144307
T08
X21472Y160449
X49031Y93126
X152181Y160449
M30
