G75*
%MOIN*%
%OFA0B0*%
%FSLAX25Y25*%
%IPPOS*%
%LPD*%
%AMOC8*
5,1,8,0,0,1.08239X$1,22.5*
%
%ADD10R,0.04200X0.03500*%
%ADD11R,0.03500X0.04200*%
%ADD12OC8,0.05200*%
%ADD13C,0.05600*%
%ADD14C,0.12583*%
%ADD15OC8,0.06496*%
%ADD16R,0.06496X0.06496*%
%ADD17C,0.05150*%
%ADD18R,0.02500X0.07000*%
%ADD19C,0.00787*%
%ADD20C,0.02000*%
%ADD21C,0.01969*%
%ADD22C,0.02578*%
%ADD23C,0.02756*%
D10*
X0077772Y0053899D03*
X0077772Y0060699D03*
X0078165Y0076340D03*
X0078165Y0083140D03*
X0070291Y0083140D03*
X0070291Y0076340D03*
X0107535Y0074332D03*
X0107535Y0081132D03*
X0107693Y0088939D03*
X0107693Y0095739D03*
D11*
X0095739Y0101000D03*
X0088939Y0101000D03*
X0079794Y0100961D03*
X0072994Y0100961D03*
X0072403Y0067929D03*
X0079203Y0067929D03*
X0086576Y0061630D03*
X0093376Y0061630D03*
X0093376Y0053756D03*
X0086576Y0053756D03*
X0124017Y0053795D03*
X0130817Y0053795D03*
D12*
X0138874Y0056551D03*
X0148874Y0056551D03*
D13*
X0087654Y0111980D02*
X0087654Y0117580D01*
X0077654Y0117580D02*
X0077654Y0111980D01*
X0067654Y0111980D02*
X0067654Y0117580D01*
X0057654Y0117580D02*
X0057654Y0111980D01*
D14*
X0061827Y0144307D03*
X0111827Y0144307D03*
X0111827Y0053756D03*
X0061827Y0053756D03*
D15*
X0098008Y0032102D03*
X0108008Y0032102D03*
X0118008Y0032102D03*
X0148008Y0032102D03*
X0115961Y0119661D03*
D16*
X0115961Y0109661D03*
X0138008Y0032102D03*
X0088008Y0032102D03*
D17*
X0066354Y0027181D03*
X0066354Y0037024D03*
X0050606Y0037024D03*
X0050606Y0027181D03*
X0034858Y0027181D03*
X0034858Y0037024D03*
D18*
X0084839Y0069821D03*
X0089839Y0069821D03*
X0094839Y0069821D03*
X0099839Y0069921D03*
X0099839Y0092021D03*
X0094839Y0092021D03*
X0089839Y0092021D03*
X0084839Y0092021D03*
D19*
X0012019Y0012425D02*
X0161635Y0012425D01*
X0162205Y0012995D02*
X0159084Y0009874D01*
X0014569Y0009874D01*
X0011449Y0012995D01*
X0011449Y0167352D01*
X0014569Y0170472D01*
X0159084Y0170472D01*
X0162205Y0167352D01*
X0162205Y0012995D01*
X0162205Y0013211D02*
X0011449Y0013211D01*
X0011449Y0013997D02*
X0162205Y0013997D01*
X0162205Y0014783D02*
X0011449Y0014783D01*
X0011449Y0015568D02*
X0162205Y0015568D01*
X0162205Y0016354D02*
X0011449Y0016354D01*
X0011449Y0017140D02*
X0162205Y0017140D01*
X0162205Y0017926D02*
X0011449Y0017926D01*
X0011449Y0018712D02*
X0162205Y0018712D01*
X0162205Y0019498D02*
X0108201Y0019498D01*
X0108063Y0019361D02*
X0109222Y0020519D01*
X0116563Y0027861D01*
X0119765Y0027861D01*
X0122250Y0030345D01*
X0122250Y0033859D01*
X0119765Y0036344D01*
X0116251Y0036344D01*
X0113766Y0033859D01*
X0113766Y0030658D01*
X0106425Y0023317D01*
X0079023Y0023317D01*
X0082788Y0027081D01*
X0083946Y0028240D01*
X0083946Y0028262D01*
X0084348Y0027861D01*
X0091668Y0027861D01*
X0092250Y0028443D01*
X0092250Y0035762D01*
X0091668Y0036344D01*
X0084909Y0036344D01*
X0087252Y0038687D01*
X0091485Y0038687D01*
X0103394Y0050597D01*
X0103394Y0050597D01*
X0104553Y0051755D01*
X0104553Y0060811D01*
X0105363Y0061620D01*
X0114354Y0061620D01*
X0121274Y0054701D01*
X0121274Y0051284D01*
X0121856Y0050702D01*
X0126179Y0050702D01*
X0126761Y0051284D01*
X0126761Y0056307D01*
X0126179Y0056889D01*
X0124680Y0056889D01*
X0117151Y0064418D01*
X0115993Y0065576D01*
X0109671Y0065576D01*
X0109671Y0071589D01*
X0110047Y0071589D01*
X0110629Y0072171D01*
X0110629Y0076494D01*
X0110047Y0077076D01*
X0105024Y0077076D01*
X0104442Y0076494D01*
X0104442Y0076310D01*
X0103430Y0076310D01*
X0101518Y0074398D01*
X0101500Y0074415D01*
X0098177Y0074415D01*
X0097595Y0073833D01*
X0097595Y0066010D01*
X0098177Y0065428D01*
X0101500Y0065428D01*
X0102082Y0066010D01*
X0102082Y0069368D01*
X0104663Y0071949D01*
X0105024Y0071589D01*
X0105715Y0071589D01*
X0105715Y0065576D01*
X0103724Y0065576D01*
X0101755Y0063608D01*
X0100597Y0062449D01*
X0100597Y0053394D01*
X0099238Y0052035D01*
X0099238Y0052309D01*
X0100133Y0053204D01*
X0100133Y0055095D01*
X0099238Y0055990D01*
X0099238Y0057731D01*
X0096120Y0060848D01*
X0096120Y0062145D01*
X0096226Y0062329D01*
X0096226Y0065328D01*
X0096500Y0065328D01*
X0097082Y0065910D01*
X0097082Y0073733D01*
X0096500Y0074315D01*
X0093177Y0074315D01*
X0092595Y0073733D01*
X0092595Y0065910D01*
X0093177Y0065328D01*
X0093451Y0065328D01*
X0093451Y0064724D01*
X0091226Y0064724D01*
X0091226Y0065328D01*
X0091500Y0065328D01*
X0092082Y0065910D01*
X0092082Y0073733D01*
X0091500Y0074315D01*
X0088177Y0074315D01*
X0087595Y0073733D01*
X0087595Y0065910D01*
X0088177Y0065328D01*
X0088312Y0065328D01*
X0087708Y0064724D01*
X0084415Y0064724D01*
X0083833Y0064142D01*
X0083833Y0059118D01*
X0084415Y0058536D01*
X0085189Y0058536D01*
X0085189Y0056850D01*
X0084415Y0056850D01*
X0083833Y0056268D01*
X0083833Y0051244D01*
X0084415Y0050662D01*
X0088738Y0050662D01*
X0089320Y0051244D01*
X0089320Y0056268D01*
X0088738Y0056850D01*
X0087964Y0056850D01*
X0087964Y0058536D01*
X0088738Y0058536D01*
X0089320Y0059118D01*
X0089320Y0062412D01*
X0090633Y0063724D01*
X0090633Y0059118D01*
X0091215Y0058536D01*
X0094508Y0058536D01*
X0096463Y0056581D01*
X0096463Y0055990D01*
X0095568Y0055095D01*
X0095568Y0053204D01*
X0096043Y0052729D01*
X0091370Y0048057D01*
X0082283Y0048057D01*
X0079184Y0051156D01*
X0080283Y0051156D01*
X0080865Y0051738D01*
X0080865Y0056061D01*
X0080283Y0056643D01*
X0075260Y0056643D01*
X0074678Y0056061D01*
X0074678Y0051738D01*
X0075260Y0051156D01*
X0076384Y0051156D01*
X0076384Y0050032D01*
X0080321Y0046095D01*
X0081134Y0045282D01*
X0092485Y0045282D01*
X0089846Y0042643D01*
X0085614Y0042643D01*
X0081149Y0038179D01*
X0079991Y0037020D01*
X0079991Y0029879D01*
X0076846Y0026734D01*
X0072398Y0026734D01*
X0069973Y0029159D01*
X0069398Y0029159D01*
X0069380Y0029202D01*
X0068376Y0030206D01*
X0067064Y0030750D01*
X0065645Y0030750D01*
X0064333Y0030206D01*
X0063329Y0029202D01*
X0062786Y0027891D01*
X0062786Y0026471D01*
X0063329Y0025160D01*
X0064333Y0024156D01*
X0065645Y0023613D01*
X0067064Y0023613D01*
X0068376Y0024156D01*
X0068879Y0024659D01*
X0069601Y0023937D01*
X0070221Y0023317D01*
X0057268Y0023317D01*
X0054157Y0026428D01*
X0054175Y0026471D01*
X0054175Y0026574D01*
X0059693Y0032093D01*
X0060852Y0033252D01*
X0060852Y0046471D01*
X0063276Y0046471D01*
X0065953Y0047580D01*
X0068003Y0049629D01*
X0069101Y0052280D01*
X0069101Y0042567D01*
X0067108Y0040574D01*
X0067064Y0040592D01*
X0065645Y0040592D01*
X0064333Y0040049D01*
X0063329Y0039045D01*
X0062786Y0037733D01*
X0062786Y0036314D01*
X0063329Y0035002D01*
X0064333Y0033998D01*
X0065645Y0033455D01*
X0067064Y0033455D01*
X0068376Y0033998D01*
X0069380Y0035002D01*
X0069923Y0036314D01*
X0069923Y0037733D01*
X0069905Y0037777D01*
X0071898Y0039770D01*
X0073057Y0040929D01*
X0073057Y0058512D01*
X0071898Y0059671D01*
X0060458Y0071111D01*
X0060458Y0080889D01*
X0062497Y0082928D01*
X0062497Y0082338D01*
X0063392Y0081443D01*
X0063392Y0069723D01*
X0064205Y0068910D01*
X0073803Y0059312D01*
X0074678Y0059312D01*
X0074678Y0058538D01*
X0075260Y0057956D01*
X0080283Y0057956D01*
X0080865Y0058538D01*
X0080865Y0062861D01*
X0080283Y0063443D01*
X0075260Y0063443D01*
X0074678Y0062861D01*
X0074678Y0062361D01*
X0066167Y0070872D01*
X0066167Y0081443D01*
X0066620Y0081896D01*
X0067198Y0081896D01*
X0067198Y0080979D01*
X0067780Y0080396D01*
X0072803Y0080396D01*
X0073385Y0080979D01*
X0073385Y0085243D01*
X0074590Y0085243D01*
X0075072Y0084761D01*
X0075072Y0080979D01*
X0075654Y0080396D01*
X0080677Y0080396D01*
X0081259Y0080979D01*
X0081259Y0081146D01*
X0083572Y0081146D01*
X0084740Y0082314D01*
X0086831Y0084406D01*
X0086831Y0086057D01*
X0086817Y0086072D01*
X0086817Y0087844D01*
X0087082Y0088110D01*
X0087082Y0095933D01*
X0086500Y0096515D01*
X0083177Y0096515D01*
X0082595Y0095933D01*
X0082595Y0088110D01*
X0082861Y0087844D01*
X0082861Y0086074D01*
X0081921Y0085134D01*
X0081259Y0085134D01*
X0081259Y0085302D01*
X0080677Y0085884D01*
X0079543Y0085884D01*
X0076229Y0089198D01*
X0073923Y0089198D01*
X0074936Y0090212D01*
X0074936Y0092103D01*
X0074381Y0092658D01*
X0074381Y0097867D01*
X0075155Y0097867D01*
X0075737Y0098449D01*
X0075737Y0103472D01*
X0075155Y0104054D01*
X0070832Y0104054D01*
X0070250Y0103472D01*
X0070250Y0098449D01*
X0070832Y0097867D01*
X0071606Y0097867D01*
X0071606Y0093338D01*
X0070371Y0092103D01*
X0070371Y0090212D01*
X0071384Y0089198D01*
X0063173Y0089198D01*
X0057661Y0083687D01*
X0056502Y0082528D01*
X0056502Y0069472D01*
X0069101Y0056874D01*
X0069101Y0055232D01*
X0068003Y0057883D01*
X0065953Y0059932D01*
X0063276Y0061041D01*
X0060378Y0061041D01*
X0057700Y0059932D01*
X0055651Y0057883D01*
X0054542Y0055205D01*
X0054542Y0052307D01*
X0055651Y0049629D01*
X0056896Y0048384D01*
X0056896Y0034890D01*
X0052334Y0030328D01*
X0051316Y0030750D01*
X0049896Y0030750D01*
X0048585Y0030206D01*
X0047581Y0029202D01*
X0047038Y0027891D01*
X0047038Y0026471D01*
X0047581Y0025160D01*
X0048585Y0024156D01*
X0049896Y0023613D01*
X0051316Y0023613D01*
X0051360Y0023631D01*
X0054471Y0020519D01*
X0055630Y0019361D01*
X0108063Y0019361D01*
X0108987Y0020284D02*
X0162205Y0020284D01*
X0162205Y0021070D02*
X0109773Y0021070D01*
X0110558Y0021856D02*
X0162205Y0021856D01*
X0162205Y0022642D02*
X0111344Y0022642D01*
X0112130Y0023428D02*
X0162205Y0023428D01*
X0162205Y0024213D02*
X0112916Y0024213D01*
X0113702Y0024999D02*
X0162205Y0024999D01*
X0162205Y0025785D02*
X0114488Y0025785D01*
X0115274Y0026571D02*
X0162205Y0026571D01*
X0162205Y0027357D02*
X0116060Y0027357D01*
X0113609Y0030501D02*
X0092250Y0030501D01*
X0092250Y0031287D02*
X0113766Y0031287D01*
X0113766Y0032073D02*
X0092250Y0032073D01*
X0092250Y0032859D02*
X0113766Y0032859D01*
X0113766Y0033644D02*
X0092250Y0033644D01*
X0092250Y0034430D02*
X0114337Y0034430D01*
X0115123Y0035216D02*
X0092250Y0035216D01*
X0092009Y0036002D02*
X0115909Y0036002D01*
X0120107Y0036002D02*
X0132146Y0036002D01*
X0132932Y0035216D02*
X0120893Y0035216D01*
X0121679Y0034430D02*
X0133718Y0034430D01*
X0133766Y0034382D02*
X0133766Y0028443D01*
X0134348Y0027861D01*
X0141668Y0027861D01*
X0142250Y0028443D01*
X0142250Y0035762D01*
X0141668Y0036344D01*
X0135728Y0036344D01*
X0126797Y0045275D01*
X0125984Y0046088D01*
X0102841Y0046088D01*
X0101946Y0046983D01*
X0100054Y0046983D01*
X0098717Y0045646D01*
X0098717Y0043755D01*
X0100054Y0042418D01*
X0101946Y0042418D01*
X0102841Y0043313D01*
X0124835Y0043313D01*
X0133766Y0034382D01*
X0133766Y0033644D02*
X0122250Y0033644D01*
X0122250Y0032859D02*
X0133766Y0032859D01*
X0133766Y0032073D02*
X0122250Y0032073D01*
X0122250Y0031287D02*
X0133766Y0031287D01*
X0133766Y0030501D02*
X0122250Y0030501D01*
X0121619Y0029715D02*
X0133766Y0029715D01*
X0133766Y0028929D02*
X0120833Y0028929D01*
X0120047Y0028143D02*
X0134066Y0028143D01*
X0138008Y0032102D02*
X0125409Y0044701D01*
X0101000Y0044701D01*
X0102603Y0043075D02*
X0125073Y0043075D01*
X0125859Y0042289D02*
X0095087Y0042289D01*
X0094301Y0041504D02*
X0126645Y0041504D01*
X0127431Y0040718D02*
X0093515Y0040718D01*
X0092729Y0039932D02*
X0128216Y0039932D01*
X0129002Y0039146D02*
X0091943Y0039146D01*
X0090278Y0043075D02*
X0073057Y0043075D01*
X0073057Y0042289D02*
X0085260Y0042289D01*
X0084474Y0041504D02*
X0073057Y0041504D01*
X0072846Y0040718D02*
X0083688Y0040718D01*
X0082902Y0039932D02*
X0072060Y0039932D01*
X0071274Y0039146D02*
X0082116Y0039146D01*
X0081330Y0038360D02*
X0070488Y0038360D01*
X0069923Y0037574D02*
X0080544Y0037574D01*
X0079991Y0036788D02*
X0069923Y0036788D01*
X0069794Y0036002D02*
X0079991Y0036002D01*
X0079991Y0035216D02*
X0076820Y0035216D01*
X0076750Y0035286D02*
X0075369Y0035858D01*
X0073875Y0035858D01*
X0072494Y0035286D01*
X0071438Y0034230D01*
X0070866Y0032849D01*
X0070866Y0031355D01*
X0071438Y0029975D01*
X0072494Y0028918D01*
X0073875Y0028346D01*
X0075369Y0028346D01*
X0076750Y0028918D01*
X0077806Y0029975D01*
X0078378Y0031355D01*
X0078378Y0032849D01*
X0077806Y0034230D01*
X0076750Y0035286D01*
X0077606Y0034430D02*
X0079991Y0034430D01*
X0079991Y0033644D02*
X0078049Y0033644D01*
X0078374Y0032859D02*
X0079991Y0032859D01*
X0079991Y0032073D02*
X0078378Y0032073D01*
X0078350Y0031287D02*
X0079991Y0031287D01*
X0079991Y0030501D02*
X0078024Y0030501D01*
X0077546Y0029715D02*
X0079827Y0029715D01*
X0079041Y0028929D02*
X0076760Y0028929D01*
X0078255Y0028143D02*
X0070989Y0028143D01*
X0070203Y0028929D02*
X0072484Y0028929D01*
X0071698Y0029715D02*
X0068867Y0029715D01*
X0067665Y0030501D02*
X0071220Y0030501D01*
X0070895Y0031287D02*
X0058887Y0031287D01*
X0059673Y0032073D02*
X0070866Y0032073D01*
X0070870Y0032859D02*
X0060459Y0032859D01*
X0060852Y0033644D02*
X0065187Y0033644D01*
X0063901Y0034430D02*
X0060852Y0034430D01*
X0060852Y0035216D02*
X0063240Y0035216D01*
X0062915Y0036002D02*
X0060852Y0036002D01*
X0060852Y0036788D02*
X0062786Y0036788D01*
X0062786Y0037574D02*
X0060852Y0037574D01*
X0060852Y0038360D02*
X0063045Y0038360D01*
X0063430Y0039146D02*
X0060852Y0039146D01*
X0060852Y0039932D02*
X0064216Y0039932D01*
X0067251Y0040718D02*
X0060852Y0040718D01*
X0060852Y0041504D02*
X0068037Y0041504D01*
X0068823Y0042289D02*
X0060852Y0042289D01*
X0060852Y0043075D02*
X0069101Y0043075D01*
X0069101Y0043861D02*
X0060852Y0043861D01*
X0060852Y0044647D02*
X0069101Y0044647D01*
X0069101Y0045433D02*
X0060852Y0045433D01*
X0060852Y0046219D02*
X0069101Y0046219D01*
X0069101Y0047005D02*
X0064565Y0047005D01*
X0066164Y0047791D02*
X0069101Y0047791D01*
X0069101Y0048577D02*
X0066950Y0048577D01*
X0067736Y0049363D02*
X0069101Y0049363D01*
X0069101Y0050149D02*
X0068218Y0050149D01*
X0068543Y0050934D02*
X0069101Y0050934D01*
X0069101Y0051720D02*
X0068869Y0051720D01*
X0068927Y0055650D02*
X0069101Y0055650D01*
X0069101Y0056436D02*
X0068602Y0056436D01*
X0068753Y0057222D02*
X0068276Y0057222D01*
X0067967Y0058008D02*
X0067878Y0058008D01*
X0067181Y0058794D02*
X0067092Y0058794D01*
X0066395Y0059580D02*
X0066306Y0059580D01*
X0065609Y0060365D02*
X0064907Y0060365D01*
X0064823Y0061151D02*
X0033293Y0061151D01*
X0033293Y0060365D02*
X0058747Y0060365D01*
X0057348Y0059580D02*
X0033293Y0059580D01*
X0033293Y0058794D02*
X0056562Y0058794D01*
X0055776Y0058008D02*
X0033293Y0058008D01*
X0033293Y0057691D02*
X0033293Y0134270D01*
X0040959Y0141935D01*
X0054924Y0141935D01*
X0055651Y0140180D01*
X0057700Y0138131D01*
X0060378Y0137022D01*
X0063276Y0137022D01*
X0065953Y0138131D01*
X0068003Y0140180D01*
X0069112Y0142858D01*
X0069112Y0145756D01*
X0068003Y0148434D01*
X0065953Y0150483D01*
X0063276Y0151592D01*
X0060378Y0151592D01*
X0057700Y0150483D01*
X0055651Y0148434D01*
X0054924Y0146679D01*
X0038994Y0146679D01*
X0028550Y0136234D01*
X0028550Y0055726D01*
X0029939Y0054337D01*
X0047038Y0037238D01*
X0047038Y0036314D01*
X0047581Y0035002D01*
X0048585Y0033998D01*
X0049896Y0033455D01*
X0051316Y0033455D01*
X0052628Y0033998D01*
X0053632Y0035002D01*
X0054175Y0036314D01*
X0054175Y0037733D01*
X0053632Y0039045D01*
X0052628Y0040049D01*
X0051316Y0040592D01*
X0050392Y0040592D01*
X0033293Y0057691D01*
X0033762Y0057222D02*
X0055377Y0057222D01*
X0055052Y0056436D02*
X0034548Y0056436D01*
X0035334Y0055650D02*
X0054726Y0055650D01*
X0054542Y0054864D02*
X0036120Y0054864D01*
X0036906Y0054078D02*
X0054542Y0054078D01*
X0054542Y0053292D02*
X0037692Y0053292D01*
X0038478Y0052506D02*
X0054542Y0052506D01*
X0054785Y0051720D02*
X0039264Y0051720D01*
X0040049Y0050934D02*
X0055110Y0050934D01*
X0055436Y0050149D02*
X0040835Y0050149D01*
X0041621Y0049363D02*
X0055917Y0049363D01*
X0056703Y0048577D02*
X0042407Y0048577D01*
X0043193Y0047791D02*
X0056896Y0047791D01*
X0056896Y0047005D02*
X0043979Y0047005D01*
X0044765Y0046219D02*
X0056896Y0046219D01*
X0056896Y0045433D02*
X0045551Y0045433D01*
X0046337Y0044647D02*
X0056896Y0044647D01*
X0056896Y0043861D02*
X0047123Y0043861D01*
X0047909Y0043075D02*
X0056896Y0043075D01*
X0056896Y0042289D02*
X0048694Y0042289D01*
X0049480Y0041504D02*
X0056896Y0041504D01*
X0056896Y0040718D02*
X0050266Y0040718D01*
X0052745Y0039932D02*
X0056896Y0039932D01*
X0056896Y0039146D02*
X0053531Y0039146D01*
X0053915Y0038360D02*
X0056896Y0038360D01*
X0056896Y0037574D02*
X0054175Y0037574D01*
X0054175Y0036788D02*
X0056896Y0036788D01*
X0056896Y0036002D02*
X0054046Y0036002D01*
X0053720Y0035216D02*
X0056896Y0035216D01*
X0056436Y0034430D02*
X0053060Y0034430D01*
X0051773Y0033644D02*
X0055650Y0033644D01*
X0054864Y0032859D02*
X0030343Y0032859D01*
X0030346Y0032849D02*
X0029775Y0034230D01*
X0028718Y0035286D01*
X0027338Y0035858D01*
X0025843Y0035858D01*
X0024463Y0035286D01*
X0023406Y0034230D01*
X0022835Y0032849D01*
X0022835Y0031355D01*
X0023406Y0029975D01*
X0024463Y0028918D01*
X0025843Y0028346D01*
X0027338Y0028346D01*
X0028718Y0028918D01*
X0029775Y0029975D01*
X0030346Y0031355D01*
X0030346Y0032849D01*
X0030346Y0032073D02*
X0054079Y0032073D01*
X0053293Y0031287D02*
X0030318Y0031287D01*
X0029992Y0030501D02*
X0033548Y0030501D01*
X0034148Y0030750D02*
X0032837Y0030206D01*
X0031833Y0029202D01*
X0031290Y0027891D01*
X0031290Y0026471D01*
X0031833Y0025160D01*
X0032837Y0024156D01*
X0034148Y0023613D01*
X0035568Y0023613D01*
X0036880Y0024156D01*
X0037883Y0025160D01*
X0038427Y0026471D01*
X0038427Y0027891D01*
X0037883Y0029202D01*
X0036880Y0030206D01*
X0035568Y0030750D01*
X0034148Y0030750D01*
X0032345Y0029715D02*
X0029515Y0029715D01*
X0028729Y0028929D02*
X0031720Y0028929D01*
X0031394Y0028143D02*
X0011449Y0028143D01*
X0011449Y0027357D02*
X0031290Y0027357D01*
X0031290Y0026571D02*
X0011449Y0026571D01*
X0011449Y0025785D02*
X0031574Y0025785D01*
X0031993Y0024999D02*
X0011449Y0024999D01*
X0011449Y0024213D02*
X0032779Y0024213D01*
X0036937Y0024213D02*
X0048527Y0024213D01*
X0047741Y0024999D02*
X0037723Y0024999D01*
X0038143Y0025785D02*
X0047322Y0025785D01*
X0047038Y0026571D02*
X0038427Y0026571D01*
X0038427Y0027357D02*
X0047038Y0027357D01*
X0047142Y0028143D02*
X0038322Y0028143D01*
X0037997Y0028929D02*
X0047468Y0028929D01*
X0048093Y0029715D02*
X0037371Y0029715D01*
X0036169Y0030501D02*
X0049296Y0030501D01*
X0051917Y0030501D02*
X0052507Y0030501D01*
X0054957Y0027357D02*
X0062786Y0027357D01*
X0062786Y0026571D02*
X0054175Y0026571D01*
X0054799Y0025785D02*
X0063070Y0025785D01*
X0063489Y0024999D02*
X0055585Y0024999D01*
X0056371Y0024213D02*
X0064275Y0024213D01*
X0068433Y0024213D02*
X0069324Y0024213D01*
X0070110Y0023428D02*
X0057157Y0023428D01*
X0054706Y0020284D02*
X0011449Y0020284D01*
X0011449Y0021070D02*
X0053920Y0021070D01*
X0053134Y0021856D02*
X0011449Y0021856D01*
X0011449Y0022642D02*
X0052349Y0022642D01*
X0051563Y0023428D02*
X0011449Y0023428D01*
X0011449Y0019498D02*
X0055492Y0019498D01*
X0055743Y0028143D02*
X0062890Y0028143D01*
X0063216Y0028929D02*
X0056529Y0028929D01*
X0057315Y0029715D02*
X0063841Y0029715D01*
X0065044Y0030501D02*
X0058101Y0030501D01*
X0049439Y0033644D02*
X0036025Y0033644D01*
X0035568Y0033455D02*
X0036880Y0033998D01*
X0037883Y0035002D01*
X0038427Y0036314D01*
X0038427Y0037733D01*
X0037883Y0039045D01*
X0036880Y0040049D01*
X0035568Y0040592D01*
X0034148Y0040592D01*
X0032837Y0040049D01*
X0031833Y0039045D01*
X0031290Y0037733D01*
X0031290Y0036314D01*
X0031833Y0035002D01*
X0032837Y0033998D01*
X0034148Y0033455D01*
X0035568Y0033455D01*
X0033691Y0033644D02*
X0030017Y0033644D01*
X0029574Y0034430D02*
X0032405Y0034430D01*
X0031744Y0035216D02*
X0028788Y0035216D01*
X0031419Y0036002D02*
X0011449Y0036002D01*
X0011449Y0035216D02*
X0024393Y0035216D01*
X0023607Y0034430D02*
X0011449Y0034430D01*
X0011449Y0033644D02*
X0023164Y0033644D01*
X0022838Y0032859D02*
X0011449Y0032859D01*
X0011449Y0032073D02*
X0022835Y0032073D01*
X0022863Y0031287D02*
X0011449Y0031287D01*
X0011449Y0030501D02*
X0023189Y0030501D01*
X0023666Y0029715D02*
X0011449Y0029715D01*
X0011449Y0028929D02*
X0024452Y0028929D01*
X0031290Y0036788D02*
X0011449Y0036788D01*
X0011449Y0037574D02*
X0031290Y0037574D01*
X0031549Y0038360D02*
X0011449Y0038360D01*
X0011449Y0039146D02*
X0031934Y0039146D01*
X0032720Y0039932D02*
X0011449Y0039932D01*
X0011449Y0040718D02*
X0043558Y0040718D01*
X0042772Y0041504D02*
X0011449Y0041504D01*
X0011449Y0042289D02*
X0041986Y0042289D01*
X0041201Y0043075D02*
X0011449Y0043075D01*
X0011449Y0043861D02*
X0040415Y0043861D01*
X0039629Y0044647D02*
X0011449Y0044647D01*
X0011449Y0045433D02*
X0038843Y0045433D01*
X0038057Y0046219D02*
X0011449Y0046219D01*
X0011449Y0047005D02*
X0037271Y0047005D01*
X0036485Y0047791D02*
X0011449Y0047791D01*
X0011449Y0048577D02*
X0035699Y0048577D01*
X0034913Y0049363D02*
X0011449Y0049363D01*
X0011449Y0050149D02*
X0034127Y0050149D01*
X0033341Y0050934D02*
X0011449Y0050934D01*
X0011449Y0051720D02*
X0032555Y0051720D01*
X0031770Y0052506D02*
X0011449Y0052506D01*
X0011449Y0053292D02*
X0030984Y0053292D01*
X0030198Y0054078D02*
X0011449Y0054078D01*
X0011449Y0054864D02*
X0029412Y0054864D01*
X0028626Y0055650D02*
X0011449Y0055650D01*
X0011449Y0056436D02*
X0028550Y0056436D01*
X0028550Y0057222D02*
X0011449Y0057222D01*
X0011449Y0058008D02*
X0028550Y0058008D01*
X0028550Y0058794D02*
X0011449Y0058794D01*
X0011449Y0059580D02*
X0028550Y0059580D01*
X0028550Y0060365D02*
X0011449Y0060365D01*
X0011449Y0061151D02*
X0028550Y0061151D01*
X0028550Y0061937D02*
X0011449Y0061937D01*
X0011449Y0062723D02*
X0028550Y0062723D01*
X0028550Y0063509D02*
X0011449Y0063509D01*
X0011449Y0064295D02*
X0028550Y0064295D01*
X0028550Y0065081D02*
X0011449Y0065081D01*
X0011449Y0065867D02*
X0028550Y0065867D01*
X0028550Y0066653D02*
X0011449Y0066653D01*
X0011449Y0067439D02*
X0028550Y0067439D01*
X0028550Y0068225D02*
X0011449Y0068225D01*
X0011449Y0069010D02*
X0028550Y0069010D01*
X0028550Y0069796D02*
X0011449Y0069796D01*
X0011449Y0070582D02*
X0028550Y0070582D01*
X0028550Y0071368D02*
X0011449Y0071368D01*
X0011449Y0072154D02*
X0028550Y0072154D01*
X0028550Y0072940D02*
X0011449Y0072940D01*
X0011449Y0073726D02*
X0028550Y0073726D01*
X0028550Y0074512D02*
X0011449Y0074512D01*
X0011449Y0075298D02*
X0028550Y0075298D01*
X0028550Y0076084D02*
X0011449Y0076084D01*
X0011449Y0076870D02*
X0028550Y0076870D01*
X0028550Y0077656D02*
X0011449Y0077656D01*
X0011449Y0078441D02*
X0028550Y0078441D01*
X0028550Y0079227D02*
X0011449Y0079227D01*
X0011449Y0080013D02*
X0028550Y0080013D01*
X0028550Y0080799D02*
X0011449Y0080799D01*
X0011449Y0081585D02*
X0028550Y0081585D01*
X0028550Y0082371D02*
X0011449Y0082371D01*
X0011449Y0083157D02*
X0028550Y0083157D01*
X0028550Y0083943D02*
X0011449Y0083943D01*
X0011449Y0084729D02*
X0028550Y0084729D01*
X0028550Y0085515D02*
X0011449Y0085515D01*
X0011449Y0086301D02*
X0028550Y0086301D01*
X0028550Y0087086D02*
X0011449Y0087086D01*
X0011449Y0087872D02*
X0028550Y0087872D01*
X0028550Y0088658D02*
X0011449Y0088658D01*
X0011449Y0089444D02*
X0028550Y0089444D01*
X0028550Y0090230D02*
X0011449Y0090230D01*
X0011449Y0091016D02*
X0028550Y0091016D01*
X0028550Y0091802D02*
X0011449Y0091802D01*
X0011449Y0092588D02*
X0028550Y0092588D01*
X0028550Y0093374D02*
X0011449Y0093374D01*
X0011449Y0094160D02*
X0028550Y0094160D01*
X0028550Y0094946D02*
X0011449Y0094946D01*
X0011449Y0095732D02*
X0028550Y0095732D01*
X0028550Y0096517D02*
X0011449Y0096517D01*
X0011449Y0097303D02*
X0028550Y0097303D01*
X0028550Y0098089D02*
X0011449Y0098089D01*
X0011449Y0098875D02*
X0028550Y0098875D01*
X0028550Y0099661D02*
X0011449Y0099661D01*
X0011449Y0100447D02*
X0028550Y0100447D01*
X0028550Y0101233D02*
X0011449Y0101233D01*
X0011449Y0102019D02*
X0028550Y0102019D01*
X0028550Y0102805D02*
X0011449Y0102805D01*
X0011449Y0103591D02*
X0028550Y0103591D01*
X0028550Y0104377D02*
X0011449Y0104377D01*
X0011449Y0105162D02*
X0028550Y0105162D01*
X0028550Y0105948D02*
X0011449Y0105948D01*
X0011449Y0106734D02*
X0028550Y0106734D01*
X0028550Y0107520D02*
X0011449Y0107520D01*
X0011449Y0108306D02*
X0028550Y0108306D01*
X0028550Y0109092D02*
X0011449Y0109092D01*
X0011449Y0109878D02*
X0028550Y0109878D01*
X0028550Y0110664D02*
X0011449Y0110664D01*
X0011449Y0111450D02*
X0028550Y0111450D01*
X0028550Y0112236D02*
X0011449Y0112236D01*
X0011449Y0113022D02*
X0028550Y0113022D01*
X0028550Y0113808D02*
X0011449Y0113808D01*
X0011449Y0114593D02*
X0028550Y0114593D01*
X0028550Y0115379D02*
X0011449Y0115379D01*
X0011449Y0116165D02*
X0028550Y0116165D01*
X0028550Y0116951D02*
X0011449Y0116951D01*
X0011449Y0117737D02*
X0028550Y0117737D01*
X0028550Y0118523D02*
X0011449Y0118523D01*
X0011449Y0119309D02*
X0028550Y0119309D01*
X0028550Y0120095D02*
X0011449Y0120095D01*
X0011449Y0120881D02*
X0028550Y0120881D01*
X0028550Y0121667D02*
X0011449Y0121667D01*
X0011449Y0122453D02*
X0028550Y0122453D01*
X0028550Y0123238D02*
X0011449Y0123238D01*
X0011449Y0124024D02*
X0028550Y0124024D01*
X0028550Y0124810D02*
X0011449Y0124810D01*
X0011449Y0125596D02*
X0028550Y0125596D01*
X0028550Y0126382D02*
X0011449Y0126382D01*
X0011449Y0127168D02*
X0028550Y0127168D01*
X0028550Y0127954D02*
X0011449Y0127954D01*
X0011449Y0128740D02*
X0028550Y0128740D01*
X0028550Y0129526D02*
X0011449Y0129526D01*
X0011449Y0130312D02*
X0028550Y0130312D01*
X0028550Y0131098D02*
X0011449Y0131098D01*
X0011449Y0131884D02*
X0028550Y0131884D01*
X0028550Y0132669D02*
X0011449Y0132669D01*
X0011449Y0133455D02*
X0028550Y0133455D01*
X0028550Y0134241D02*
X0011449Y0134241D01*
X0011449Y0135027D02*
X0028550Y0135027D01*
X0028550Y0135813D02*
X0011449Y0135813D01*
X0011449Y0136599D02*
X0028914Y0136599D01*
X0029700Y0137385D02*
X0011449Y0137385D01*
X0011449Y0138171D02*
X0030486Y0138171D01*
X0031272Y0138957D02*
X0011449Y0138957D01*
X0011449Y0139743D02*
X0032058Y0139743D01*
X0032844Y0140529D02*
X0011449Y0140529D01*
X0011449Y0141314D02*
X0033630Y0141314D01*
X0034416Y0142100D02*
X0011449Y0142100D01*
X0011449Y0142886D02*
X0035202Y0142886D01*
X0035987Y0143672D02*
X0011449Y0143672D01*
X0011449Y0144458D02*
X0036773Y0144458D01*
X0037559Y0145244D02*
X0011449Y0145244D01*
X0011449Y0146030D02*
X0038345Y0146030D01*
X0040338Y0141314D02*
X0055181Y0141314D01*
X0055507Y0140529D02*
X0039552Y0140529D01*
X0038766Y0139743D02*
X0056089Y0139743D01*
X0056875Y0138957D02*
X0037980Y0138957D01*
X0037194Y0138171D02*
X0057660Y0138171D01*
X0059502Y0137385D02*
X0036408Y0137385D01*
X0035622Y0136599D02*
X0162205Y0136599D01*
X0162205Y0135813D02*
X0034836Y0135813D01*
X0034050Y0135027D02*
X0162205Y0135027D01*
X0162205Y0134241D02*
X0033293Y0134241D01*
X0033293Y0133455D02*
X0162205Y0133455D01*
X0162205Y0132669D02*
X0033293Y0132669D01*
X0033293Y0131884D02*
X0162205Y0131884D01*
X0162205Y0131098D02*
X0033293Y0131098D01*
X0033293Y0130312D02*
X0162205Y0130312D01*
X0162205Y0129526D02*
X0033293Y0129526D01*
X0033293Y0128740D02*
X0162205Y0128740D01*
X0162205Y0127954D02*
X0033293Y0127954D01*
X0033293Y0127168D02*
X0162205Y0127168D01*
X0162205Y0126382D02*
X0033293Y0126382D01*
X0033293Y0125596D02*
X0162205Y0125596D01*
X0162205Y0124810D02*
X0033293Y0124810D01*
X0033293Y0124024D02*
X0162205Y0124024D01*
X0162205Y0123238D02*
X0033293Y0123238D01*
X0033293Y0122453D02*
X0162205Y0122453D01*
X0162205Y0121667D02*
X0033293Y0121667D01*
X0033293Y0120881D02*
X0075710Y0120881D01*
X0075505Y0120796D02*
X0074437Y0119728D01*
X0073860Y0118334D01*
X0073860Y0111225D01*
X0074437Y0109831D01*
X0075505Y0108763D01*
X0076899Y0108186D01*
X0078408Y0108186D01*
X0079802Y0108763D01*
X0080870Y0109831D01*
X0081447Y0111225D01*
X0081447Y0113392D01*
X0083860Y0113392D01*
X0083860Y0111225D01*
X0084437Y0109831D01*
X0085505Y0108763D01*
X0086899Y0108186D01*
X0088408Y0108186D01*
X0089802Y0108763D01*
X0090755Y0109716D01*
X0094351Y0106120D01*
X0094351Y0104094D01*
X0093577Y0104094D01*
X0092995Y0103512D01*
X0092995Y0098488D01*
X0093033Y0098450D01*
X0092913Y0098450D01*
X0091682Y0099681D01*
X0091682Y0103512D01*
X0091100Y0104094D01*
X0086777Y0104094D01*
X0086195Y0103512D01*
X0086195Y0102348D01*
X0082537Y0102348D01*
X0082537Y0103472D01*
X0081955Y0104054D01*
X0077632Y0104054D01*
X0077050Y0103472D01*
X0077050Y0098449D01*
X0077632Y0097867D01*
X0081955Y0097867D01*
X0082537Y0098449D01*
X0082537Y0099573D01*
X0086195Y0099573D01*
X0086195Y0098488D01*
X0086777Y0097906D01*
X0089533Y0097906D01*
X0090951Y0096488D01*
X0091764Y0095676D01*
X0092595Y0095676D01*
X0092595Y0088110D01*
X0093069Y0087636D01*
X0092812Y0087379D01*
X0092812Y0085488D01*
X0094149Y0084150D01*
X0096040Y0084150D01*
X0097377Y0085488D01*
X0097377Y0087379D01*
X0096864Y0087892D01*
X0097082Y0088110D01*
X0097082Y0095676D01*
X0097595Y0095676D01*
X0097595Y0088110D01*
X0098177Y0087528D01*
X0101500Y0087528D01*
X0101524Y0087551D01*
X0104599Y0087551D01*
X0104599Y0086777D01*
X0105181Y0086195D01*
X0110205Y0086195D01*
X0110787Y0086777D01*
X0110787Y0091100D01*
X0110205Y0091682D01*
X0105181Y0091682D01*
X0104599Y0091100D01*
X0104599Y0090326D01*
X0102082Y0090326D01*
X0102082Y0095933D01*
X0101500Y0096515D01*
X0101148Y0096515D01*
X0099268Y0098395D01*
X0100371Y0098395D01*
X0101266Y0099291D01*
X0102716Y0099291D01*
X0104599Y0097407D01*
X0104599Y0093577D01*
X0105181Y0092995D01*
X0110205Y0092995D01*
X0110787Y0093577D01*
X0110787Y0097900D01*
X0110205Y0098482D01*
X0109080Y0098482D01*
X0109080Y0100819D01*
X0113681Y0105420D01*
X0119620Y0105420D01*
X0120202Y0106002D01*
X0120202Y0113321D01*
X0119620Y0113903D01*
X0112301Y0113903D01*
X0111719Y0113321D01*
X0111719Y0107382D01*
X0107118Y0102781D01*
X0106306Y0101968D01*
X0106306Y0099625D01*
X0103865Y0102065D01*
X0101266Y0102065D01*
X0100371Y0102961D01*
X0098482Y0102961D01*
X0098482Y0103512D01*
X0097900Y0104094D01*
X0097126Y0104094D01*
X0097126Y0107269D01*
X0091447Y0112948D01*
X0091447Y0118334D01*
X0090870Y0119728D01*
X0089802Y0120796D01*
X0088408Y0121373D01*
X0086899Y0121373D01*
X0085505Y0120796D01*
X0084437Y0119728D01*
X0083860Y0118334D01*
X0083860Y0116167D01*
X0081447Y0116167D01*
X0081447Y0118334D01*
X0080870Y0119728D01*
X0079802Y0120796D01*
X0078408Y0121373D01*
X0076899Y0121373D01*
X0075505Y0120796D01*
X0074804Y0120095D02*
X0033293Y0120095D01*
X0033293Y0119309D02*
X0074264Y0119309D01*
X0073938Y0118523D02*
X0033293Y0118523D01*
X0033293Y0117737D02*
X0073860Y0117737D01*
X0073860Y0116951D02*
X0033293Y0116951D01*
X0033293Y0116165D02*
X0073860Y0116165D01*
X0073860Y0115379D02*
X0033293Y0115379D01*
X0033293Y0114593D02*
X0073860Y0114593D01*
X0073860Y0113808D02*
X0033293Y0113808D01*
X0033293Y0113022D02*
X0073860Y0113022D01*
X0073860Y0112236D02*
X0033293Y0112236D01*
X0033293Y0111450D02*
X0073860Y0111450D01*
X0074092Y0110664D02*
X0033293Y0110664D01*
X0033293Y0109878D02*
X0074418Y0109878D01*
X0075176Y0109092D02*
X0033293Y0109092D01*
X0033293Y0108306D02*
X0076608Y0108306D01*
X0078699Y0108306D02*
X0086608Y0108306D01*
X0085176Y0109092D02*
X0080131Y0109092D01*
X0080889Y0109878D02*
X0084418Y0109878D01*
X0084092Y0110664D02*
X0081215Y0110664D01*
X0081447Y0111450D02*
X0083860Y0111450D01*
X0083860Y0112236D02*
X0081447Y0112236D01*
X0081447Y0113022D02*
X0083860Y0113022D01*
X0083860Y0116951D02*
X0081447Y0116951D01*
X0081447Y0117737D02*
X0083860Y0117737D01*
X0083938Y0118523D02*
X0081369Y0118523D01*
X0081043Y0119309D02*
X0084264Y0119309D01*
X0084804Y0120095D02*
X0080503Y0120095D01*
X0079597Y0120881D02*
X0085710Y0120881D01*
X0089597Y0120881D02*
X0162205Y0120881D01*
X0162205Y0120095D02*
X0090503Y0120095D01*
X0091043Y0119309D02*
X0162205Y0119309D01*
X0162205Y0118523D02*
X0091369Y0118523D01*
X0091447Y0117737D02*
X0162205Y0117737D01*
X0162205Y0116951D02*
X0091447Y0116951D01*
X0091447Y0116165D02*
X0162205Y0116165D01*
X0162205Y0115379D02*
X0091447Y0115379D01*
X0091447Y0114593D02*
X0162205Y0114593D01*
X0162205Y0113808D02*
X0119716Y0113808D01*
X0120202Y0113022D02*
X0162205Y0113022D01*
X0162205Y0112236D02*
X0120202Y0112236D01*
X0120202Y0111450D02*
X0162205Y0111450D01*
X0162205Y0110664D02*
X0120202Y0110664D01*
X0120202Y0109878D02*
X0162205Y0109878D01*
X0162205Y0109092D02*
X0120202Y0109092D01*
X0120202Y0108306D02*
X0162205Y0108306D01*
X0162205Y0107520D02*
X0120202Y0107520D01*
X0120202Y0106734D02*
X0162205Y0106734D01*
X0162205Y0105948D02*
X0120149Y0105948D01*
X0115961Y0109661D02*
X0107693Y0101394D01*
X0107693Y0095739D01*
X0107836Y0096132D01*
X0103291Y0100678D01*
X0099425Y0100678D01*
X0096061Y0100678D01*
X0095739Y0101000D01*
X0095739Y0106694D01*
X0087654Y0114780D01*
X0077654Y0114780D01*
X0077168Y0103591D02*
X0075619Y0103591D01*
X0075737Y0102805D02*
X0077050Y0102805D01*
X0077050Y0102019D02*
X0075737Y0102019D01*
X0075737Y0101233D02*
X0077050Y0101233D01*
X0077050Y0100447D02*
X0075737Y0100447D01*
X0075737Y0099661D02*
X0077050Y0099661D01*
X0077050Y0098875D02*
X0075737Y0098875D01*
X0075378Y0098089D02*
X0077410Y0098089D01*
X0074381Y0097303D02*
X0090136Y0097303D01*
X0090922Y0096517D02*
X0074381Y0096517D01*
X0074381Y0095732D02*
X0082595Y0095732D01*
X0082595Y0094946D02*
X0074381Y0094946D01*
X0074381Y0094160D02*
X0082595Y0094160D01*
X0082595Y0093374D02*
X0074381Y0093374D01*
X0074451Y0092588D02*
X0082595Y0092588D01*
X0082595Y0091802D02*
X0074936Y0091802D01*
X0074936Y0091016D02*
X0082595Y0091016D01*
X0082595Y0090230D02*
X0074936Y0090230D01*
X0074168Y0089444D02*
X0082595Y0089444D01*
X0082595Y0088658D02*
X0076769Y0088658D01*
X0077555Y0087872D02*
X0082832Y0087872D01*
X0082861Y0087086D02*
X0078341Y0087086D01*
X0079127Y0086301D02*
X0082861Y0086301D01*
X0082301Y0085515D02*
X0081046Y0085515D01*
X0084797Y0082371D02*
X0162205Y0082371D01*
X0162205Y0081585D02*
X0084011Y0081585D01*
X0085583Y0083157D02*
X0162205Y0083157D01*
X0162205Y0083943D02*
X0086369Y0083943D01*
X0086831Y0084729D02*
X0093571Y0084729D01*
X0092812Y0085515D02*
X0086831Y0085515D01*
X0086817Y0086301D02*
X0092812Y0086301D01*
X0092812Y0087086D02*
X0086817Y0087086D01*
X0086845Y0087872D02*
X0092832Y0087872D01*
X0092595Y0088658D02*
X0087082Y0088658D01*
X0087082Y0089444D02*
X0092595Y0089444D01*
X0092595Y0090230D02*
X0087082Y0090230D01*
X0087082Y0091016D02*
X0092595Y0091016D01*
X0092595Y0091802D02*
X0087082Y0091802D01*
X0087082Y0092588D02*
X0092595Y0092588D01*
X0092595Y0093374D02*
X0087082Y0093374D01*
X0087082Y0094160D02*
X0092595Y0094160D01*
X0092595Y0094946D02*
X0087082Y0094946D01*
X0087082Y0095732D02*
X0091708Y0095732D01*
X0092339Y0097063D02*
X0098638Y0097063D01*
X0099839Y0095862D01*
X0099839Y0092021D01*
X0099839Y0089583D01*
X0100483Y0088939D01*
X0107693Y0088939D01*
X0110787Y0088658D02*
X0162205Y0088658D01*
X0162205Y0087872D02*
X0110787Y0087872D01*
X0110787Y0087086D02*
X0162205Y0087086D01*
X0162205Y0086301D02*
X0110310Y0086301D01*
X0110787Y0089444D02*
X0162205Y0089444D01*
X0162205Y0090230D02*
X0110787Y0090230D01*
X0110787Y0091016D02*
X0162205Y0091016D01*
X0162205Y0091802D02*
X0102082Y0091802D01*
X0102082Y0092588D02*
X0162205Y0092588D01*
X0162205Y0093374D02*
X0110583Y0093374D01*
X0110787Y0094160D02*
X0162205Y0094160D01*
X0162205Y0094946D02*
X0110787Y0094946D01*
X0110787Y0095732D02*
X0162205Y0095732D01*
X0162205Y0096517D02*
X0110787Y0096517D01*
X0110787Y0097303D02*
X0162205Y0097303D01*
X0162205Y0098089D02*
X0110598Y0098089D01*
X0109080Y0098875D02*
X0162205Y0098875D01*
X0162205Y0099661D02*
X0109080Y0099661D01*
X0109080Y0100447D02*
X0162205Y0100447D01*
X0162205Y0101233D02*
X0109494Y0101233D01*
X0110280Y0102019D02*
X0162205Y0102019D01*
X0162205Y0102805D02*
X0111066Y0102805D01*
X0111852Y0103591D02*
X0162205Y0103591D01*
X0162205Y0104377D02*
X0112638Y0104377D01*
X0113424Y0105162D02*
X0162205Y0105162D01*
X0162205Y0085515D02*
X0097377Y0085515D01*
X0097377Y0086301D02*
X0105076Y0086301D01*
X0104599Y0087086D02*
X0097377Y0087086D01*
X0097832Y0087872D02*
X0096883Y0087872D01*
X0097082Y0088658D02*
X0097595Y0088658D01*
X0097595Y0089444D02*
X0097082Y0089444D01*
X0097082Y0090230D02*
X0097595Y0090230D01*
X0097595Y0091016D02*
X0097082Y0091016D01*
X0097082Y0091802D02*
X0097595Y0091802D01*
X0097595Y0092588D02*
X0097082Y0092588D01*
X0097082Y0093374D02*
X0097595Y0093374D01*
X0097595Y0094160D02*
X0097082Y0094160D01*
X0097082Y0094946D02*
X0097595Y0094946D01*
X0100359Y0097303D02*
X0104599Y0097303D01*
X0104599Y0096517D02*
X0101145Y0096517D01*
X0102082Y0095732D02*
X0104599Y0095732D01*
X0104599Y0094946D02*
X0102082Y0094946D01*
X0102082Y0094160D02*
X0104599Y0094160D01*
X0104802Y0093374D02*
X0102082Y0093374D01*
X0102082Y0091016D02*
X0104599Y0091016D01*
X0103917Y0098089D02*
X0099574Y0098089D01*
X0100851Y0098875D02*
X0103131Y0098875D01*
X0105484Y0100447D02*
X0106306Y0100447D01*
X0106269Y0099661D02*
X0106306Y0099661D01*
X0106306Y0101233D02*
X0104698Y0101233D01*
X0103912Y0102019D02*
X0106356Y0102019D01*
X0107142Y0102805D02*
X0100527Y0102805D01*
X0098403Y0103591D02*
X0107928Y0103591D01*
X0108714Y0104377D02*
X0097126Y0104377D01*
X0097126Y0105162D02*
X0109500Y0105162D01*
X0110286Y0105948D02*
X0097126Y0105948D01*
X0097126Y0106734D02*
X0111071Y0106734D01*
X0111719Y0107520D02*
X0096875Y0107520D01*
X0096089Y0108306D02*
X0111719Y0108306D01*
X0111719Y0109092D02*
X0095303Y0109092D01*
X0094517Y0109878D02*
X0111719Y0109878D01*
X0111719Y0110664D02*
X0093731Y0110664D01*
X0092945Y0111450D02*
X0111719Y0111450D01*
X0111719Y0112236D02*
X0092159Y0112236D01*
X0091447Y0113022D02*
X0111719Y0113022D01*
X0112205Y0113808D02*
X0091447Y0113808D01*
X0091379Y0109092D02*
X0090131Y0109092D01*
X0088699Y0108306D02*
X0092165Y0108306D01*
X0092951Y0107520D02*
X0033293Y0107520D01*
X0033293Y0106734D02*
X0093737Y0106734D01*
X0094351Y0105948D02*
X0033293Y0105948D01*
X0033293Y0105162D02*
X0094351Y0105162D01*
X0094351Y0104377D02*
X0033293Y0104377D01*
X0033293Y0103591D02*
X0070368Y0103591D01*
X0070250Y0102805D02*
X0033293Y0102805D01*
X0033293Y0102019D02*
X0070250Y0102019D01*
X0070250Y0101233D02*
X0051105Y0101233D01*
X0050679Y0101409D02*
X0047384Y0101409D01*
X0044339Y0100148D01*
X0042009Y0097818D01*
X0040748Y0094774D01*
X0040748Y0091478D01*
X0042009Y0088434D01*
X0044339Y0086104D01*
X0047384Y0084843D01*
X0050679Y0084843D01*
X0053724Y0086104D01*
X0056054Y0088434D01*
X0057315Y0091478D01*
X0057315Y0094774D01*
X0056054Y0097818D01*
X0053724Y0100148D01*
X0050679Y0101409D01*
X0053003Y0100447D02*
X0070250Y0100447D01*
X0070250Y0099661D02*
X0054211Y0099661D01*
X0054997Y0098875D02*
X0070250Y0098875D01*
X0070610Y0098089D02*
X0055783Y0098089D01*
X0056267Y0097303D02*
X0071606Y0097303D01*
X0071606Y0096517D02*
X0056593Y0096517D01*
X0056918Y0095732D02*
X0071606Y0095732D01*
X0071606Y0094946D02*
X0057244Y0094946D01*
X0057315Y0094160D02*
X0071606Y0094160D01*
X0071606Y0093374D02*
X0057315Y0093374D01*
X0057315Y0092588D02*
X0070856Y0092588D01*
X0070371Y0091802D02*
X0057315Y0091802D01*
X0057123Y0091016D02*
X0070371Y0091016D01*
X0070371Y0090230D02*
X0056798Y0090230D01*
X0056472Y0089444D02*
X0071139Y0089444D01*
X0072654Y0091157D02*
X0072994Y0091498D01*
X0072994Y0100961D01*
X0079794Y0100961D02*
X0088441Y0100961D01*
X0092339Y0097063D01*
X0092488Y0098875D02*
X0092995Y0098875D01*
X0092995Y0099661D02*
X0091703Y0099661D01*
X0091682Y0100447D02*
X0092995Y0100447D01*
X0092995Y0101233D02*
X0091682Y0101233D01*
X0091682Y0102019D02*
X0092995Y0102019D01*
X0092995Y0102805D02*
X0091682Y0102805D01*
X0091603Y0103591D02*
X0093074Y0103591D01*
X0095739Y0101000D02*
X0095417Y0100678D01*
X0099425Y0100678D01*
X0095417Y0100678D02*
X0094839Y0100100D01*
X0088939Y0101000D02*
X0088899Y0100961D01*
X0088441Y0100961D01*
X0086195Y0102805D02*
X0082537Y0102805D01*
X0082419Y0103591D02*
X0086274Y0103591D01*
X0086195Y0098875D02*
X0082537Y0098875D01*
X0082178Y0098089D02*
X0086594Y0098089D01*
X0094839Y0092021D02*
X0094839Y0086689D01*
X0095094Y0086433D01*
X0096618Y0084729D02*
X0162205Y0084729D01*
X0162205Y0080799D02*
X0081080Y0080799D01*
X0078165Y0076340D02*
X0078165Y0073441D01*
X0079346Y0072260D01*
X0078173Y0071023D02*
X0074949Y0074247D01*
X0074949Y0074257D01*
X0074136Y0075069D01*
X0073385Y0075820D01*
X0073385Y0078502D01*
X0072803Y0079084D01*
X0067780Y0079084D01*
X0067198Y0078502D01*
X0067198Y0074179D01*
X0067780Y0073596D01*
X0071685Y0073596D01*
X0072174Y0073107D01*
X0072174Y0073098D01*
X0076459Y0068812D01*
X0076459Y0065418D01*
X0077042Y0064835D01*
X0081365Y0064835D01*
X0081947Y0065418D01*
X0081947Y0066542D01*
X0082595Y0066542D01*
X0082595Y0065910D01*
X0083177Y0065328D01*
X0086500Y0065328D01*
X0087082Y0065910D01*
X0087082Y0073733D01*
X0086500Y0074315D01*
X0083177Y0074315D01*
X0082595Y0073733D01*
X0082595Y0069317D01*
X0081947Y0069317D01*
X0081947Y0070441D01*
X0081365Y0071023D01*
X0078173Y0071023D01*
X0077828Y0071368D02*
X0082595Y0071368D01*
X0082595Y0070582D02*
X0081805Y0070582D01*
X0081947Y0069796D02*
X0082595Y0069796D01*
X0083283Y0067929D02*
X0084839Y0069484D01*
X0084839Y0069821D01*
X0084044Y0067929D02*
X0083283Y0067929D01*
X0079203Y0067929D01*
X0078566Y0068668D01*
X0073561Y0073673D01*
X0073561Y0073682D01*
X0072107Y0075136D01*
X0071495Y0075136D01*
X0070291Y0076340D01*
X0067198Y0076084D02*
X0066167Y0076084D01*
X0066167Y0076870D02*
X0067198Y0076870D01*
X0067198Y0077656D02*
X0066167Y0077656D01*
X0066167Y0078441D02*
X0067198Y0078441D01*
X0066167Y0079227D02*
X0162205Y0079227D01*
X0162205Y0078441D02*
X0073385Y0078441D01*
X0073385Y0077656D02*
X0162205Y0077656D01*
X0162205Y0076870D02*
X0110253Y0076870D01*
X0110629Y0076084D02*
X0162205Y0076084D01*
X0162205Y0075298D02*
X0110629Y0075298D01*
X0110629Y0074512D02*
X0162205Y0074512D01*
X0162205Y0073726D02*
X0110629Y0073726D01*
X0110629Y0072940D02*
X0162205Y0072940D01*
X0162205Y0072154D02*
X0110613Y0072154D01*
X0109671Y0071368D02*
X0162205Y0071368D01*
X0162205Y0070582D02*
X0109671Y0070582D01*
X0109671Y0069796D02*
X0162205Y0069796D01*
X0162205Y0069010D02*
X0109671Y0069010D01*
X0109671Y0068225D02*
X0162205Y0068225D01*
X0162205Y0067439D02*
X0109671Y0067439D01*
X0109671Y0066653D02*
X0162205Y0066653D01*
X0162205Y0065867D02*
X0109671Y0065867D01*
X0105715Y0065867D02*
X0101939Y0065867D01*
X0102082Y0066653D02*
X0105715Y0066653D01*
X0105715Y0067439D02*
X0102082Y0067439D01*
X0102082Y0068225D02*
X0105715Y0068225D01*
X0105715Y0069010D02*
X0102082Y0069010D01*
X0102511Y0069796D02*
X0105715Y0069796D01*
X0105715Y0070582D02*
X0103297Y0070582D01*
X0104083Y0071368D02*
X0105715Y0071368D01*
X0102418Y0075298D02*
X0073908Y0075298D01*
X0073385Y0076084D02*
X0103204Y0076084D01*
X0104817Y0076870D02*
X0073385Y0076870D01*
X0074694Y0074512D02*
X0101632Y0074512D01*
X0097595Y0073726D02*
X0097082Y0073726D01*
X0097082Y0072940D02*
X0097595Y0072940D01*
X0097595Y0072154D02*
X0097082Y0072154D01*
X0097082Y0071368D02*
X0097595Y0071368D01*
X0097595Y0070582D02*
X0097082Y0070582D01*
X0097082Y0069796D02*
X0097595Y0069796D01*
X0097595Y0069010D02*
X0097082Y0069010D01*
X0097082Y0068225D02*
X0097595Y0068225D01*
X0097595Y0067439D02*
X0097082Y0067439D01*
X0097082Y0066653D02*
X0097595Y0066653D01*
X0097738Y0065867D02*
X0097039Y0065867D01*
X0096226Y0065081D02*
X0103229Y0065081D01*
X0102443Y0064295D02*
X0096226Y0064295D01*
X0096226Y0063509D02*
X0101657Y0063509D01*
X0100871Y0062723D02*
X0096226Y0062723D01*
X0096120Y0061937D02*
X0100597Y0061937D01*
X0100597Y0061151D02*
X0096120Y0061151D01*
X0096603Y0060365D02*
X0100597Y0060365D01*
X0100597Y0059580D02*
X0097389Y0059580D01*
X0098175Y0058794D02*
X0100597Y0058794D01*
X0100597Y0058008D02*
X0098961Y0058008D01*
X0099238Y0057222D02*
X0100597Y0057222D01*
X0100597Y0056436D02*
X0099238Y0056436D01*
X0099578Y0055650D02*
X0100597Y0055650D01*
X0100597Y0054864D02*
X0100133Y0054864D01*
X0100133Y0054078D02*
X0100597Y0054078D01*
X0100495Y0053292D02*
X0100133Y0053292D01*
X0099709Y0052506D02*
X0099435Y0052506D01*
X0097850Y0052575D02*
X0097850Y0054150D01*
X0097850Y0057156D01*
X0093376Y0061630D01*
X0093450Y0061632D01*
X0093524Y0061638D01*
X0093597Y0061647D01*
X0093670Y0061660D01*
X0093742Y0061677D01*
X0093814Y0061697D01*
X0093884Y0061721D01*
X0093953Y0061748D01*
X0094020Y0061779D01*
X0094086Y0061814D01*
X0094149Y0061851D01*
X0094211Y0061892D01*
X0094271Y0061936D01*
X0094328Y0061983D01*
X0094383Y0062032D01*
X0094436Y0062085D01*
X0094485Y0062140D01*
X0094532Y0062197D01*
X0094576Y0062257D01*
X0094617Y0062319D01*
X0094654Y0062382D01*
X0094689Y0062448D01*
X0094720Y0062515D01*
X0094747Y0062584D01*
X0094771Y0062654D01*
X0094791Y0062726D01*
X0094808Y0062798D01*
X0094821Y0062871D01*
X0094830Y0062944D01*
X0094836Y0063018D01*
X0094838Y0063092D01*
X0094839Y0063092D02*
X0094839Y0069821D01*
X0092595Y0069796D02*
X0092082Y0069796D01*
X0092082Y0069010D02*
X0092595Y0069010D01*
X0092595Y0068225D02*
X0092082Y0068225D01*
X0092082Y0067439D02*
X0092595Y0067439D01*
X0092595Y0066653D02*
X0092082Y0066653D01*
X0092039Y0065867D02*
X0092638Y0065867D01*
X0093451Y0065081D02*
X0091226Y0065081D01*
X0089839Y0064892D02*
X0086576Y0061630D01*
X0087338Y0061630D01*
X0086576Y0061630D02*
X0086576Y0053756D01*
X0083833Y0054078D02*
X0080865Y0054078D01*
X0080865Y0053292D02*
X0083833Y0053292D01*
X0083833Y0052506D02*
X0080865Y0052506D01*
X0080848Y0051720D02*
X0083833Y0051720D01*
X0084142Y0050934D02*
X0079406Y0050934D01*
X0080191Y0050149D02*
X0093462Y0050149D01*
X0094248Y0050934D02*
X0089010Y0050934D01*
X0089320Y0051720D02*
X0095034Y0051720D01*
X0095820Y0052506D02*
X0089320Y0052506D01*
X0089320Y0053292D02*
X0095568Y0053292D01*
X0095568Y0054078D02*
X0089320Y0054078D01*
X0089320Y0054864D02*
X0095568Y0054864D01*
X0096123Y0055650D02*
X0089320Y0055650D01*
X0089152Y0056436D02*
X0096463Y0056436D01*
X0095822Y0057222D02*
X0087964Y0057222D01*
X0087964Y0058008D02*
X0095036Y0058008D01*
X0090957Y0058794D02*
X0088995Y0058794D01*
X0089320Y0059580D02*
X0090633Y0059580D01*
X0090633Y0060365D02*
X0089320Y0060365D01*
X0089320Y0061151D02*
X0090633Y0061151D01*
X0090633Y0061937D02*
X0089320Y0061937D01*
X0089632Y0062723D02*
X0090633Y0062723D01*
X0090633Y0063509D02*
X0090418Y0063509D01*
X0089839Y0064892D02*
X0089839Y0069821D01*
X0087595Y0069796D02*
X0087082Y0069796D01*
X0087082Y0069010D02*
X0087595Y0069010D01*
X0087595Y0068225D02*
X0087082Y0068225D01*
X0087082Y0067439D02*
X0087595Y0067439D01*
X0087595Y0066653D02*
X0087082Y0066653D01*
X0087039Y0065867D02*
X0087638Y0065867D01*
X0088065Y0065081D02*
X0081610Y0065081D01*
X0081947Y0065867D02*
X0082638Y0065867D01*
X0083986Y0064295D02*
X0072744Y0064295D01*
X0071958Y0065081D02*
X0076796Y0065081D01*
X0076459Y0065867D02*
X0071172Y0065867D01*
X0070386Y0066653D02*
X0076459Y0066653D01*
X0076459Y0067439D02*
X0069600Y0067439D01*
X0068814Y0068225D02*
X0076459Y0068225D01*
X0076261Y0069010D02*
X0068029Y0069010D01*
X0067243Y0069796D02*
X0075475Y0069796D01*
X0074690Y0070582D02*
X0066457Y0070582D01*
X0066167Y0071368D02*
X0073904Y0071368D01*
X0073118Y0072154D02*
X0066167Y0072154D01*
X0066167Y0072940D02*
X0072332Y0072940D01*
X0075470Y0073726D02*
X0082595Y0073726D01*
X0082595Y0072940D02*
X0076256Y0072940D01*
X0077042Y0072154D02*
X0082595Y0072154D01*
X0087082Y0072154D02*
X0087595Y0072154D01*
X0087595Y0071368D02*
X0087082Y0071368D01*
X0087082Y0070582D02*
X0087595Y0070582D01*
X0087595Y0072940D02*
X0087082Y0072940D01*
X0087082Y0073726D02*
X0087595Y0073726D01*
X0092082Y0073726D02*
X0092595Y0073726D01*
X0092595Y0072940D02*
X0092082Y0072940D01*
X0092082Y0072154D02*
X0092595Y0072154D01*
X0092595Y0071368D02*
X0092082Y0071368D01*
X0092082Y0070582D02*
X0092595Y0070582D01*
X0083833Y0063509D02*
X0073530Y0063509D01*
X0074316Y0062723D02*
X0074678Y0062723D01*
X0074378Y0060699D02*
X0064780Y0070297D01*
X0064780Y0083283D01*
X0070148Y0083283D01*
X0070291Y0083140D01*
X0067198Y0081585D02*
X0066309Y0081585D01*
X0066167Y0080799D02*
X0067377Y0080799D01*
X0066167Y0080013D02*
X0162205Y0080013D01*
X0162205Y0065081D02*
X0116488Y0065081D01*
X0117151Y0064418D02*
X0117151Y0064418D01*
X0117274Y0064295D02*
X0162205Y0064295D01*
X0162205Y0063509D02*
X0118060Y0063509D01*
X0118846Y0062723D02*
X0162205Y0062723D01*
X0162205Y0061937D02*
X0119632Y0061937D01*
X0120418Y0061151D02*
X0162205Y0061151D01*
X0162205Y0060365D02*
X0121203Y0060365D01*
X0121989Y0059580D02*
X0136820Y0059580D01*
X0137385Y0060145D02*
X0135280Y0058040D01*
X0135280Y0055773D01*
X0133561Y0055773D01*
X0133561Y0056307D01*
X0132979Y0056889D01*
X0128656Y0056889D01*
X0128074Y0056307D01*
X0128074Y0051284D01*
X0128656Y0050702D01*
X0132979Y0050702D01*
X0133561Y0051284D01*
X0133561Y0051817D01*
X0136937Y0051817D01*
X0138078Y0052957D01*
X0140363Y0052957D01*
X0142468Y0055063D01*
X0142468Y0058040D01*
X0140363Y0060145D01*
X0137385Y0060145D01*
X0136034Y0058794D02*
X0122775Y0058794D01*
X0123561Y0058008D02*
X0135280Y0058008D01*
X0135280Y0057222D02*
X0124347Y0057222D01*
X0126632Y0056436D02*
X0128203Y0056436D01*
X0128074Y0055650D02*
X0126761Y0055650D01*
X0126761Y0054864D02*
X0128074Y0054864D01*
X0128074Y0054078D02*
X0126761Y0054078D01*
X0126761Y0053292D02*
X0128074Y0053292D01*
X0128074Y0052506D02*
X0126761Y0052506D01*
X0126761Y0051720D02*
X0128074Y0051720D01*
X0128423Y0050934D02*
X0126412Y0050934D01*
X0121623Y0050934D02*
X0103732Y0050934D01*
X0102946Y0050149D02*
X0162205Y0050149D01*
X0162205Y0050934D02*
X0133212Y0050934D01*
X0133561Y0051720D02*
X0162205Y0051720D01*
X0162205Y0052506D02*
X0137626Y0052506D01*
X0140697Y0053292D02*
X0162205Y0053292D01*
X0162205Y0054078D02*
X0141483Y0054078D01*
X0142269Y0054864D02*
X0162205Y0054864D01*
X0162205Y0055650D02*
X0142468Y0055650D01*
X0142468Y0056436D02*
X0162205Y0056436D01*
X0162205Y0057222D02*
X0142468Y0057222D01*
X0142468Y0058008D02*
X0162205Y0058008D01*
X0162205Y0058794D02*
X0141714Y0058794D01*
X0140928Y0059580D02*
X0162205Y0059580D01*
X0162205Y0049363D02*
X0102160Y0049363D01*
X0101374Y0048577D02*
X0162205Y0048577D01*
X0162205Y0047791D02*
X0100588Y0047791D01*
X0099802Y0047005D02*
X0162205Y0047005D01*
X0162205Y0046219D02*
X0102710Y0046219D01*
X0099290Y0046219D02*
X0099016Y0046219D01*
X0098717Y0045433D02*
X0098230Y0045433D01*
X0098717Y0044647D02*
X0097444Y0044647D01*
X0096659Y0043861D02*
X0098717Y0043861D01*
X0099397Y0043075D02*
X0095873Y0043075D01*
X0091850Y0044647D02*
X0073057Y0044647D01*
X0073057Y0043861D02*
X0091064Y0043861D01*
X0091945Y0046669D02*
X0097850Y0052575D01*
X0093376Y0053613D02*
X0093376Y0053756D01*
X0093376Y0053613D02*
X0089189Y0049425D01*
X0091890Y0048577D02*
X0081763Y0048577D01*
X0080977Y0049363D02*
X0092676Y0049363D01*
X0091945Y0046669D02*
X0081709Y0046669D01*
X0077772Y0050606D01*
X0077772Y0053899D01*
X0074678Y0054078D02*
X0073057Y0054078D01*
X0073057Y0053292D02*
X0074678Y0053292D01*
X0074678Y0052506D02*
X0073057Y0052506D01*
X0073057Y0051720D02*
X0074695Y0051720D01*
X0073057Y0050934D02*
X0076384Y0050934D01*
X0076384Y0050149D02*
X0073057Y0050149D01*
X0073057Y0049363D02*
X0077053Y0049363D01*
X0077839Y0048577D02*
X0073057Y0048577D01*
X0073057Y0047791D02*
X0078625Y0047791D01*
X0079411Y0047005D02*
X0073057Y0047005D01*
X0073057Y0046219D02*
X0080197Y0046219D01*
X0080983Y0045433D02*
X0073057Y0045433D01*
X0073057Y0054864D02*
X0074678Y0054864D01*
X0074678Y0055650D02*
X0073057Y0055650D01*
X0073057Y0056436D02*
X0075053Y0056436D01*
X0075208Y0058008D02*
X0073057Y0058008D01*
X0073057Y0057222D02*
X0085189Y0057222D01*
X0085189Y0058008D02*
X0080335Y0058008D01*
X0080865Y0058794D02*
X0084157Y0058794D01*
X0083833Y0059580D02*
X0080865Y0059580D01*
X0080865Y0060365D02*
X0083833Y0060365D01*
X0083833Y0061151D02*
X0080865Y0061151D01*
X0080865Y0061937D02*
X0083833Y0061937D01*
X0083833Y0062723D02*
X0080865Y0062723D01*
X0077772Y0060699D02*
X0074378Y0060699D01*
X0073535Y0059580D02*
X0071989Y0059580D01*
X0072749Y0060365D02*
X0071203Y0060365D01*
X0071964Y0061151D02*
X0070418Y0061151D01*
X0071178Y0061937D02*
X0069632Y0061937D01*
X0070392Y0062723D02*
X0068846Y0062723D01*
X0069606Y0063509D02*
X0068060Y0063509D01*
X0068820Y0064295D02*
X0067274Y0064295D01*
X0068034Y0065081D02*
X0066488Y0065081D01*
X0067248Y0065867D02*
X0065702Y0065867D01*
X0066462Y0066653D02*
X0064916Y0066653D01*
X0065676Y0067439D02*
X0064130Y0067439D01*
X0064890Y0068225D02*
X0063344Y0068225D01*
X0064104Y0069010D02*
X0062558Y0069010D01*
X0061772Y0069796D02*
X0063392Y0069796D01*
X0063392Y0070582D02*
X0060987Y0070582D01*
X0060458Y0071368D02*
X0063392Y0071368D01*
X0063392Y0072154D02*
X0060458Y0072154D01*
X0060458Y0072940D02*
X0063392Y0072940D01*
X0063392Y0073726D02*
X0060458Y0073726D01*
X0060458Y0074512D02*
X0063392Y0074512D01*
X0063392Y0075298D02*
X0060458Y0075298D01*
X0060458Y0076084D02*
X0063392Y0076084D01*
X0063392Y0076870D02*
X0060458Y0076870D01*
X0060458Y0077656D02*
X0063392Y0077656D01*
X0063392Y0078441D02*
X0060458Y0078441D01*
X0060458Y0079227D02*
X0063392Y0079227D01*
X0063392Y0080013D02*
X0060458Y0080013D01*
X0060458Y0080799D02*
X0063392Y0080799D01*
X0063250Y0081585D02*
X0061154Y0081585D01*
X0061940Y0082371D02*
X0062497Y0082371D01*
X0059489Y0085515D02*
X0052302Y0085515D01*
X0053921Y0086301D02*
X0060275Y0086301D01*
X0061061Y0087086D02*
X0054707Y0087086D01*
X0055492Y0087872D02*
X0061847Y0087872D01*
X0062633Y0088658D02*
X0056147Y0088658D01*
X0058703Y0084729D02*
X0033293Y0084729D01*
X0033293Y0085515D02*
X0045761Y0085515D01*
X0044142Y0086301D02*
X0033293Y0086301D01*
X0033293Y0087086D02*
X0043356Y0087086D01*
X0042570Y0087872D02*
X0033293Y0087872D01*
X0033293Y0088658D02*
X0041916Y0088658D01*
X0041591Y0089444D02*
X0033293Y0089444D01*
X0033293Y0090230D02*
X0041265Y0090230D01*
X0040939Y0091016D02*
X0033293Y0091016D01*
X0033293Y0091802D02*
X0040748Y0091802D01*
X0040748Y0092588D02*
X0033293Y0092588D01*
X0033293Y0093374D02*
X0040748Y0093374D01*
X0040748Y0094160D02*
X0033293Y0094160D01*
X0033293Y0094946D02*
X0040819Y0094946D01*
X0041145Y0095732D02*
X0033293Y0095732D01*
X0033293Y0096517D02*
X0041470Y0096517D01*
X0041796Y0097303D02*
X0033293Y0097303D01*
X0033293Y0098089D02*
X0042280Y0098089D01*
X0043066Y0098875D02*
X0033293Y0098875D01*
X0033293Y0099661D02*
X0043852Y0099661D01*
X0045060Y0100447D02*
X0033293Y0100447D01*
X0033293Y0101233D02*
X0046958Y0101233D01*
X0057917Y0083943D02*
X0033293Y0083943D01*
X0033293Y0083157D02*
X0057131Y0083157D01*
X0056502Y0082371D02*
X0033293Y0082371D01*
X0033293Y0081585D02*
X0056502Y0081585D01*
X0056502Y0080799D02*
X0033293Y0080799D01*
X0033293Y0080013D02*
X0056502Y0080013D01*
X0056502Y0079227D02*
X0033293Y0079227D01*
X0033293Y0078441D02*
X0056502Y0078441D01*
X0056502Y0077656D02*
X0033293Y0077656D01*
X0033293Y0076870D02*
X0056502Y0076870D01*
X0056502Y0076084D02*
X0033293Y0076084D01*
X0033293Y0075298D02*
X0056502Y0075298D01*
X0056502Y0074512D02*
X0033293Y0074512D01*
X0033293Y0073726D02*
X0056502Y0073726D01*
X0056502Y0072940D02*
X0033293Y0072940D01*
X0033293Y0072154D02*
X0056502Y0072154D01*
X0056502Y0071368D02*
X0033293Y0071368D01*
X0033293Y0070582D02*
X0056502Y0070582D01*
X0056502Y0069796D02*
X0033293Y0069796D01*
X0033293Y0069010D02*
X0056964Y0069010D01*
X0057750Y0068225D02*
X0033293Y0068225D01*
X0033293Y0067439D02*
X0058536Y0067439D01*
X0059322Y0066653D02*
X0033293Y0066653D01*
X0033293Y0065867D02*
X0060108Y0065867D01*
X0060893Y0065081D02*
X0033293Y0065081D01*
X0033293Y0064295D02*
X0061679Y0064295D01*
X0062465Y0063509D02*
X0033293Y0063509D01*
X0033293Y0062723D02*
X0063251Y0062723D01*
X0064037Y0061937D02*
X0033293Y0061937D01*
X0036997Y0039932D02*
X0044344Y0039932D01*
X0045130Y0039146D02*
X0037783Y0039146D01*
X0038167Y0038360D02*
X0045916Y0038360D01*
X0046702Y0037574D02*
X0038427Y0037574D01*
X0038427Y0036788D02*
X0047038Y0036788D01*
X0047167Y0036002D02*
X0038298Y0036002D01*
X0037972Y0035216D02*
X0047492Y0035216D01*
X0048153Y0034430D02*
X0037312Y0034430D01*
X0013590Y0010853D02*
X0160063Y0010853D01*
X0160849Y0011639D02*
X0012805Y0011639D01*
X0014376Y0010067D02*
X0159277Y0010067D01*
X0162205Y0028143D02*
X0141950Y0028143D01*
X0142250Y0028929D02*
X0162205Y0028929D01*
X0162205Y0029715D02*
X0142250Y0029715D01*
X0142250Y0030501D02*
X0162205Y0030501D01*
X0162205Y0031287D02*
X0142250Y0031287D01*
X0142250Y0032073D02*
X0162205Y0032073D01*
X0162205Y0032859D02*
X0142250Y0032859D01*
X0142250Y0033644D02*
X0162205Y0033644D01*
X0162205Y0034430D02*
X0142250Y0034430D01*
X0142250Y0035216D02*
X0162205Y0035216D01*
X0162205Y0036002D02*
X0142009Y0036002D01*
X0135284Y0036788D02*
X0162205Y0036788D01*
X0162205Y0037574D02*
X0134498Y0037574D01*
X0133712Y0038360D02*
X0162205Y0038360D01*
X0162205Y0039146D02*
X0132927Y0039146D01*
X0132141Y0039932D02*
X0162205Y0039932D01*
X0162205Y0040718D02*
X0131355Y0040718D01*
X0130569Y0041504D02*
X0162205Y0041504D01*
X0162205Y0042289D02*
X0129783Y0042289D01*
X0128997Y0043075D02*
X0162205Y0043075D01*
X0162205Y0043861D02*
X0128211Y0043861D01*
X0127425Y0044647D02*
X0162205Y0044647D01*
X0162205Y0045433D02*
X0126639Y0045433D01*
X0121274Y0051720D02*
X0104518Y0051720D01*
X0104553Y0052506D02*
X0121274Y0052506D01*
X0121274Y0053292D02*
X0104553Y0053292D01*
X0104553Y0054078D02*
X0121274Y0054078D01*
X0121110Y0054864D02*
X0104553Y0054864D01*
X0104553Y0055650D02*
X0120324Y0055650D01*
X0119539Y0056436D02*
X0104553Y0056436D01*
X0104553Y0057222D02*
X0118753Y0057222D01*
X0117967Y0058008D02*
X0104553Y0058008D01*
X0104553Y0058794D02*
X0117181Y0058794D01*
X0116395Y0059580D02*
X0104553Y0059580D01*
X0104553Y0060365D02*
X0115609Y0060365D01*
X0114823Y0061151D02*
X0104893Y0061151D01*
X0084001Y0056436D02*
X0080490Y0056436D01*
X0080865Y0055650D02*
X0083833Y0055650D01*
X0083833Y0054864D02*
X0080865Y0054864D01*
X0074678Y0058794D02*
X0072775Y0058794D01*
X0072403Y0067929D02*
X0071079Y0069254D01*
X0068717Y0071079D01*
X0067650Y0073726D02*
X0066167Y0073726D01*
X0066167Y0074512D02*
X0067198Y0074512D01*
X0067198Y0075298D02*
X0066167Y0075298D01*
X0073206Y0080799D02*
X0075251Y0080799D01*
X0075072Y0081585D02*
X0073385Y0081585D01*
X0073385Y0082371D02*
X0075072Y0082371D01*
X0075072Y0083157D02*
X0073385Y0083157D01*
X0073385Y0083943D02*
X0075072Y0083943D01*
X0075072Y0084729D02*
X0073385Y0084729D01*
X0086925Y0038360D02*
X0129788Y0038360D01*
X0130574Y0037574D02*
X0086139Y0037574D01*
X0085353Y0036788D02*
X0131360Y0036788D01*
X0112823Y0029715D02*
X0092250Y0029715D01*
X0092250Y0028929D02*
X0112037Y0028929D01*
X0111251Y0028143D02*
X0091950Y0028143D01*
X0084066Y0028143D02*
X0083849Y0028143D01*
X0083064Y0027357D02*
X0110465Y0027357D01*
X0109679Y0026571D02*
X0082278Y0026571D01*
X0081492Y0025785D02*
X0108894Y0025785D01*
X0108108Y0024999D02*
X0080706Y0024999D01*
X0079920Y0024213D02*
X0107322Y0024213D01*
X0106536Y0023428D02*
X0079134Y0023428D01*
X0077469Y0027357D02*
X0071775Y0027357D01*
X0071195Y0033644D02*
X0067521Y0033644D01*
X0068808Y0034430D02*
X0071638Y0034430D01*
X0072424Y0035216D02*
X0069468Y0035216D01*
X0133432Y0056436D02*
X0135280Y0056436D01*
X0162205Y0137385D02*
X0064152Y0137385D01*
X0065993Y0138171D02*
X0162205Y0138171D01*
X0162205Y0138957D02*
X0066779Y0138957D01*
X0067565Y0139743D02*
X0162205Y0139743D01*
X0162205Y0140529D02*
X0068147Y0140529D01*
X0068472Y0141314D02*
X0162205Y0141314D01*
X0162205Y0142100D02*
X0068798Y0142100D01*
X0069112Y0142886D02*
X0162205Y0142886D01*
X0162205Y0143672D02*
X0069112Y0143672D01*
X0069112Y0144458D02*
X0162205Y0144458D01*
X0162205Y0145244D02*
X0069112Y0145244D01*
X0068998Y0146030D02*
X0162205Y0146030D01*
X0162205Y0146816D02*
X0068673Y0146816D01*
X0068347Y0147602D02*
X0162205Y0147602D01*
X0162205Y0148388D02*
X0068022Y0148388D01*
X0067263Y0149174D02*
X0162205Y0149174D01*
X0162205Y0149960D02*
X0066477Y0149960D01*
X0065320Y0150745D02*
X0162205Y0150745D01*
X0162205Y0151531D02*
X0063423Y0151531D01*
X0060231Y0151531D02*
X0011449Y0151531D01*
X0011449Y0150745D02*
X0058334Y0150745D01*
X0057177Y0149960D02*
X0011449Y0149960D01*
X0011449Y0149174D02*
X0056391Y0149174D01*
X0055632Y0148388D02*
X0011449Y0148388D01*
X0011449Y0147602D02*
X0055306Y0147602D01*
X0054981Y0146816D02*
X0011449Y0146816D01*
X0011449Y0152317D02*
X0019458Y0152317D01*
X0019825Y0152165D02*
X0023120Y0152165D01*
X0026165Y0153426D01*
X0028495Y0155757D01*
X0029756Y0158801D01*
X0029756Y0162097D01*
X0028495Y0165141D01*
X0026165Y0167471D01*
X0023120Y0168732D01*
X0019825Y0168732D01*
X0016780Y0167471D01*
X0014450Y0165141D01*
X0013189Y0162097D01*
X0013189Y0158801D01*
X0014450Y0155757D01*
X0016780Y0153426D01*
X0019825Y0152165D01*
X0017561Y0153103D02*
X0011449Y0153103D01*
X0011449Y0153889D02*
X0016318Y0153889D01*
X0015532Y0154675D02*
X0011449Y0154675D01*
X0011449Y0155461D02*
X0014746Y0155461D01*
X0014247Y0156247D02*
X0011449Y0156247D01*
X0011449Y0157033D02*
X0013921Y0157033D01*
X0013596Y0157819D02*
X0011449Y0157819D01*
X0011449Y0158605D02*
X0013270Y0158605D01*
X0013189Y0159390D02*
X0011449Y0159390D01*
X0011449Y0160176D02*
X0013189Y0160176D01*
X0013189Y0160962D02*
X0011449Y0160962D01*
X0011449Y0161748D02*
X0013189Y0161748D01*
X0013370Y0162534D02*
X0011449Y0162534D01*
X0011449Y0163320D02*
X0013696Y0163320D01*
X0014021Y0164106D02*
X0011449Y0164106D01*
X0011449Y0164892D02*
X0014347Y0164892D01*
X0014987Y0165678D02*
X0011449Y0165678D01*
X0011449Y0166464D02*
X0015773Y0166464D01*
X0016559Y0167250D02*
X0011449Y0167250D01*
X0012132Y0168036D02*
X0018143Y0168036D01*
X0014490Y0170393D02*
X0159163Y0170393D01*
X0159949Y0169607D02*
X0013704Y0169607D01*
X0012918Y0168821D02*
X0160735Y0168821D01*
X0161521Y0168036D02*
X0155511Y0168036D01*
X0156873Y0167471D02*
X0153829Y0168732D01*
X0150533Y0168732D01*
X0147489Y0167471D01*
X0145159Y0165141D01*
X0143898Y0162097D01*
X0143898Y0158801D01*
X0145159Y0155757D01*
X0147489Y0153426D01*
X0150533Y0152165D01*
X0153829Y0152165D01*
X0156873Y0153426D01*
X0159203Y0155757D01*
X0160465Y0158801D01*
X0160465Y0162097D01*
X0159203Y0165141D01*
X0156873Y0167471D01*
X0157095Y0167250D02*
X0162205Y0167250D01*
X0162205Y0166464D02*
X0157881Y0166464D01*
X0158667Y0165678D02*
X0162205Y0165678D01*
X0162205Y0164892D02*
X0159307Y0164892D01*
X0159632Y0164106D02*
X0162205Y0164106D01*
X0162205Y0163320D02*
X0159958Y0163320D01*
X0160283Y0162534D02*
X0162205Y0162534D01*
X0162205Y0161748D02*
X0160465Y0161748D01*
X0160465Y0160962D02*
X0162205Y0160962D01*
X0162205Y0160176D02*
X0160465Y0160176D01*
X0160465Y0159390D02*
X0162205Y0159390D01*
X0162205Y0158605D02*
X0160383Y0158605D01*
X0160058Y0157819D02*
X0162205Y0157819D01*
X0162205Y0157033D02*
X0159732Y0157033D01*
X0159407Y0156247D02*
X0162205Y0156247D01*
X0162205Y0155461D02*
X0158908Y0155461D01*
X0158122Y0154675D02*
X0162205Y0154675D01*
X0162205Y0153889D02*
X0157336Y0153889D01*
X0156093Y0153103D02*
X0162205Y0153103D01*
X0162205Y0152317D02*
X0154196Y0152317D01*
X0150167Y0152317D02*
X0023487Y0152317D01*
X0025384Y0153103D02*
X0148269Y0153103D01*
X0147026Y0153889D02*
X0026627Y0153889D01*
X0027413Y0154675D02*
X0146240Y0154675D01*
X0145454Y0155461D02*
X0028199Y0155461D01*
X0028698Y0156247D02*
X0144956Y0156247D01*
X0144630Y0157033D02*
X0029023Y0157033D01*
X0029349Y0157819D02*
X0144305Y0157819D01*
X0143979Y0158605D02*
X0029674Y0158605D01*
X0029756Y0159390D02*
X0143898Y0159390D01*
X0143898Y0160176D02*
X0029756Y0160176D01*
X0029756Y0160962D02*
X0143898Y0160962D01*
X0143898Y0161748D02*
X0029756Y0161748D01*
X0029575Y0162534D02*
X0144079Y0162534D01*
X0144404Y0163320D02*
X0029249Y0163320D01*
X0028924Y0164106D02*
X0144730Y0164106D01*
X0145056Y0164892D02*
X0028598Y0164892D01*
X0027958Y0165678D02*
X0145695Y0165678D01*
X0146481Y0166464D02*
X0027172Y0166464D01*
X0026386Y0167250D02*
X0147267Y0167250D01*
X0148851Y0168036D02*
X0024802Y0168036D01*
D20*
X0084838Y0085231D02*
X0082746Y0083140D01*
X0078165Y0083140D01*
D21*
X0078165Y0084465D01*
X0075409Y0087220D01*
X0063992Y0087220D01*
X0058480Y0081709D01*
X0058480Y0070291D01*
X0071079Y0057693D01*
X0071079Y0041748D01*
X0066354Y0037024D01*
X0058874Y0034071D02*
X0058874Y0050803D01*
X0061827Y0053756D01*
X0058874Y0034071D02*
X0051984Y0027181D01*
X0050606Y0027181D01*
X0056449Y0021339D01*
X0107244Y0021339D01*
X0118008Y0032102D01*
X0124017Y0053795D02*
X0124017Y0054754D01*
X0115173Y0063598D01*
X0107693Y0063598D01*
X0107693Y0074175D01*
X0107535Y0074332D01*
X0104250Y0074332D01*
X0099839Y0069921D01*
X0104543Y0063598D02*
X0102575Y0061630D01*
X0102575Y0052575D01*
X0090665Y0040665D01*
X0086433Y0040665D01*
X0081969Y0036201D01*
X0081969Y0029059D01*
X0077665Y0024756D01*
X0071579Y0024756D01*
X0069154Y0027181D01*
X0066354Y0027181D01*
X0104543Y0063598D02*
X0107693Y0063598D01*
X0130817Y0053795D02*
X0136118Y0053795D01*
X0138874Y0056551D01*
X0084839Y0085232D02*
X0084838Y0085231D01*
X0084839Y0085232D02*
X0084839Y0092021D01*
D22*
X0079740Y0093913D03*
X0072654Y0091157D03*
X0064780Y0083283D03*
X0063205Y0095094D03*
X0054937Y0103362D03*
X0040370Y0118323D03*
X0015173Y0127378D03*
X0053362Y0163992D03*
X0090764Y0163205D03*
X0091551Y0141945D03*
X0133677Y0160055D03*
X0141945Y0142732D03*
X0157693Y0143126D03*
X0099425Y0100678D03*
X0095094Y0086433D03*
X0098244Y0082496D03*
X0088008Y0082496D03*
X0079346Y0072260D03*
X0068717Y0071079D03*
X0047850Y0068717D03*
X0015961Y0052181D03*
X0015961Y0028559D03*
X0026984Y0012811D03*
X0078953Y0013205D03*
X0101000Y0044701D03*
X0097850Y0054150D03*
X0089189Y0049425D03*
X0117535Y0083677D03*
X0130134Y0087614D03*
X0157693Y0069504D03*
X0154937Y0036433D03*
X0128165Y0013992D03*
X0013992Y0086827D03*
D23*
X0030921Y0056709D02*
X0030921Y0135252D01*
X0039976Y0144307D01*
X0061827Y0144307D01*
X0030921Y0056709D02*
X0050606Y0037024D01*
M02*
