G75*
%MOIN*%
%OFA0B0*%
%FSLAX25Y25*%
%IPPOS*%
%LPD*%
%AMOC8*
5,1,8,0,0,1.08239X$1,22.5*
%
%ADD10C,0.00000*%
D10*
X0010055Y0012417D02*
X0013992Y0008480D01*
X0159661Y0008480D01*
X0163598Y0012417D01*
X0163598Y0167929D01*
X0159661Y0171866D01*
X0013992Y0171866D01*
X0010055Y0167929D01*
X0010055Y0012417D01*
X0024229Y0032102D02*
X0024231Y0032199D01*
X0024237Y0032296D01*
X0024247Y0032392D01*
X0024261Y0032488D01*
X0024279Y0032584D01*
X0024300Y0032678D01*
X0024326Y0032772D01*
X0024355Y0032864D01*
X0024389Y0032955D01*
X0024425Y0033045D01*
X0024466Y0033133D01*
X0024510Y0033219D01*
X0024558Y0033304D01*
X0024609Y0033386D01*
X0024663Y0033467D01*
X0024721Y0033545D01*
X0024782Y0033620D01*
X0024845Y0033693D01*
X0024912Y0033764D01*
X0024982Y0033831D01*
X0025054Y0033896D01*
X0025129Y0033957D01*
X0025207Y0034016D01*
X0025286Y0034071D01*
X0025368Y0034123D01*
X0025452Y0034171D01*
X0025538Y0034216D01*
X0025626Y0034258D01*
X0025715Y0034296D01*
X0025806Y0034330D01*
X0025898Y0034360D01*
X0025991Y0034387D01*
X0026086Y0034409D01*
X0026181Y0034428D01*
X0026277Y0034443D01*
X0026373Y0034454D01*
X0026470Y0034461D01*
X0026567Y0034464D01*
X0026664Y0034463D01*
X0026761Y0034458D01*
X0026857Y0034449D01*
X0026953Y0034436D01*
X0027049Y0034419D01*
X0027144Y0034398D01*
X0027237Y0034374D01*
X0027330Y0034345D01*
X0027422Y0034313D01*
X0027512Y0034277D01*
X0027600Y0034238D01*
X0027687Y0034194D01*
X0027772Y0034148D01*
X0027855Y0034097D01*
X0027936Y0034044D01*
X0028014Y0033987D01*
X0028091Y0033927D01*
X0028164Y0033864D01*
X0028235Y0033798D01*
X0028303Y0033729D01*
X0028369Y0033657D01*
X0028431Y0033583D01*
X0028490Y0033506D01*
X0028546Y0033427D01*
X0028599Y0033345D01*
X0028649Y0033262D01*
X0028694Y0033176D01*
X0028737Y0033089D01*
X0028776Y0033000D01*
X0028811Y0032910D01*
X0028842Y0032818D01*
X0028869Y0032725D01*
X0028893Y0032631D01*
X0028913Y0032536D01*
X0028929Y0032440D01*
X0028941Y0032344D01*
X0028949Y0032247D01*
X0028953Y0032150D01*
X0028953Y0032054D01*
X0028949Y0031957D01*
X0028941Y0031860D01*
X0028929Y0031764D01*
X0028913Y0031668D01*
X0028893Y0031573D01*
X0028869Y0031479D01*
X0028842Y0031386D01*
X0028811Y0031294D01*
X0028776Y0031204D01*
X0028737Y0031115D01*
X0028694Y0031028D01*
X0028649Y0030942D01*
X0028599Y0030859D01*
X0028546Y0030777D01*
X0028490Y0030698D01*
X0028431Y0030621D01*
X0028369Y0030547D01*
X0028303Y0030475D01*
X0028235Y0030406D01*
X0028164Y0030340D01*
X0028091Y0030277D01*
X0028014Y0030217D01*
X0027936Y0030160D01*
X0027855Y0030107D01*
X0027772Y0030056D01*
X0027687Y0030010D01*
X0027600Y0029966D01*
X0027512Y0029927D01*
X0027422Y0029891D01*
X0027330Y0029859D01*
X0027237Y0029830D01*
X0027144Y0029806D01*
X0027049Y0029785D01*
X0026953Y0029768D01*
X0026857Y0029755D01*
X0026761Y0029746D01*
X0026664Y0029741D01*
X0026567Y0029740D01*
X0026470Y0029743D01*
X0026373Y0029750D01*
X0026277Y0029761D01*
X0026181Y0029776D01*
X0026086Y0029795D01*
X0025991Y0029817D01*
X0025898Y0029844D01*
X0025806Y0029874D01*
X0025715Y0029908D01*
X0025626Y0029946D01*
X0025538Y0029988D01*
X0025452Y0030033D01*
X0025368Y0030081D01*
X0025286Y0030133D01*
X0025207Y0030188D01*
X0025129Y0030247D01*
X0025054Y0030308D01*
X0024982Y0030373D01*
X0024912Y0030440D01*
X0024845Y0030511D01*
X0024782Y0030584D01*
X0024721Y0030659D01*
X0024663Y0030737D01*
X0024609Y0030818D01*
X0024558Y0030900D01*
X0024510Y0030985D01*
X0024466Y0031071D01*
X0024425Y0031159D01*
X0024389Y0031249D01*
X0024355Y0031340D01*
X0024326Y0031432D01*
X0024300Y0031526D01*
X0024279Y0031620D01*
X0024261Y0031716D01*
X0024247Y0031812D01*
X0024237Y0031908D01*
X0024231Y0032005D01*
X0024229Y0032102D01*
X0072260Y0032102D02*
X0072262Y0032199D01*
X0072268Y0032296D01*
X0072278Y0032392D01*
X0072292Y0032488D01*
X0072310Y0032584D01*
X0072331Y0032678D01*
X0072357Y0032772D01*
X0072386Y0032864D01*
X0072420Y0032955D01*
X0072456Y0033045D01*
X0072497Y0033133D01*
X0072541Y0033219D01*
X0072589Y0033304D01*
X0072640Y0033386D01*
X0072694Y0033467D01*
X0072752Y0033545D01*
X0072813Y0033620D01*
X0072876Y0033693D01*
X0072943Y0033764D01*
X0073013Y0033831D01*
X0073085Y0033896D01*
X0073160Y0033957D01*
X0073238Y0034016D01*
X0073317Y0034071D01*
X0073399Y0034123D01*
X0073483Y0034171D01*
X0073569Y0034216D01*
X0073657Y0034258D01*
X0073746Y0034296D01*
X0073837Y0034330D01*
X0073929Y0034360D01*
X0074022Y0034387D01*
X0074117Y0034409D01*
X0074212Y0034428D01*
X0074308Y0034443D01*
X0074404Y0034454D01*
X0074501Y0034461D01*
X0074598Y0034464D01*
X0074695Y0034463D01*
X0074792Y0034458D01*
X0074888Y0034449D01*
X0074984Y0034436D01*
X0075080Y0034419D01*
X0075175Y0034398D01*
X0075268Y0034374D01*
X0075361Y0034345D01*
X0075453Y0034313D01*
X0075543Y0034277D01*
X0075631Y0034238D01*
X0075718Y0034194D01*
X0075803Y0034148D01*
X0075886Y0034097D01*
X0075967Y0034044D01*
X0076045Y0033987D01*
X0076122Y0033927D01*
X0076195Y0033864D01*
X0076266Y0033798D01*
X0076334Y0033729D01*
X0076400Y0033657D01*
X0076462Y0033583D01*
X0076521Y0033506D01*
X0076577Y0033427D01*
X0076630Y0033345D01*
X0076680Y0033262D01*
X0076725Y0033176D01*
X0076768Y0033089D01*
X0076807Y0033000D01*
X0076842Y0032910D01*
X0076873Y0032818D01*
X0076900Y0032725D01*
X0076924Y0032631D01*
X0076944Y0032536D01*
X0076960Y0032440D01*
X0076972Y0032344D01*
X0076980Y0032247D01*
X0076984Y0032150D01*
X0076984Y0032054D01*
X0076980Y0031957D01*
X0076972Y0031860D01*
X0076960Y0031764D01*
X0076944Y0031668D01*
X0076924Y0031573D01*
X0076900Y0031479D01*
X0076873Y0031386D01*
X0076842Y0031294D01*
X0076807Y0031204D01*
X0076768Y0031115D01*
X0076725Y0031028D01*
X0076680Y0030942D01*
X0076630Y0030859D01*
X0076577Y0030777D01*
X0076521Y0030698D01*
X0076462Y0030621D01*
X0076400Y0030547D01*
X0076334Y0030475D01*
X0076266Y0030406D01*
X0076195Y0030340D01*
X0076122Y0030277D01*
X0076045Y0030217D01*
X0075967Y0030160D01*
X0075886Y0030107D01*
X0075803Y0030056D01*
X0075718Y0030010D01*
X0075631Y0029966D01*
X0075543Y0029927D01*
X0075453Y0029891D01*
X0075361Y0029859D01*
X0075268Y0029830D01*
X0075175Y0029806D01*
X0075080Y0029785D01*
X0074984Y0029768D01*
X0074888Y0029755D01*
X0074792Y0029746D01*
X0074695Y0029741D01*
X0074598Y0029740D01*
X0074501Y0029743D01*
X0074404Y0029750D01*
X0074308Y0029761D01*
X0074212Y0029776D01*
X0074117Y0029795D01*
X0074022Y0029817D01*
X0073929Y0029844D01*
X0073837Y0029874D01*
X0073746Y0029908D01*
X0073657Y0029946D01*
X0073569Y0029988D01*
X0073483Y0030033D01*
X0073399Y0030081D01*
X0073317Y0030133D01*
X0073238Y0030188D01*
X0073160Y0030247D01*
X0073085Y0030308D01*
X0073013Y0030373D01*
X0072943Y0030440D01*
X0072876Y0030511D01*
X0072813Y0030584D01*
X0072752Y0030659D01*
X0072694Y0030737D01*
X0072640Y0030818D01*
X0072589Y0030900D01*
X0072541Y0030985D01*
X0072497Y0031071D01*
X0072456Y0031159D01*
X0072420Y0031249D01*
X0072386Y0031340D01*
X0072357Y0031432D01*
X0072331Y0031526D01*
X0072310Y0031620D01*
X0072292Y0031716D01*
X0072278Y0031812D01*
X0072268Y0031908D01*
X0072262Y0032005D01*
X0072260Y0032102D01*
X0042141Y0093126D02*
X0042143Y0093295D01*
X0042149Y0093464D01*
X0042160Y0093633D01*
X0042174Y0093801D01*
X0042193Y0093969D01*
X0042216Y0094137D01*
X0042242Y0094304D01*
X0042273Y0094470D01*
X0042308Y0094636D01*
X0042347Y0094800D01*
X0042391Y0094964D01*
X0042438Y0095126D01*
X0042489Y0095287D01*
X0042544Y0095447D01*
X0042603Y0095606D01*
X0042665Y0095763D01*
X0042732Y0095918D01*
X0042803Y0096072D01*
X0042877Y0096224D01*
X0042955Y0096374D01*
X0043036Y0096522D01*
X0043121Y0096668D01*
X0043210Y0096812D01*
X0043302Y0096954D01*
X0043398Y0097093D01*
X0043497Y0097230D01*
X0043599Y0097365D01*
X0043705Y0097497D01*
X0043814Y0097626D01*
X0043926Y0097753D01*
X0044041Y0097877D01*
X0044159Y0097998D01*
X0044280Y0098116D01*
X0044404Y0098231D01*
X0044531Y0098343D01*
X0044660Y0098452D01*
X0044792Y0098558D01*
X0044927Y0098660D01*
X0045064Y0098759D01*
X0045203Y0098855D01*
X0045345Y0098947D01*
X0045489Y0099036D01*
X0045635Y0099121D01*
X0045783Y0099202D01*
X0045933Y0099280D01*
X0046085Y0099354D01*
X0046239Y0099425D01*
X0046394Y0099492D01*
X0046551Y0099554D01*
X0046710Y0099613D01*
X0046870Y0099668D01*
X0047031Y0099719D01*
X0047193Y0099766D01*
X0047357Y0099810D01*
X0047521Y0099849D01*
X0047687Y0099884D01*
X0047853Y0099915D01*
X0048020Y0099941D01*
X0048188Y0099964D01*
X0048356Y0099983D01*
X0048524Y0099997D01*
X0048693Y0100008D01*
X0048862Y0100014D01*
X0049031Y0100016D01*
X0049200Y0100014D01*
X0049369Y0100008D01*
X0049538Y0099997D01*
X0049706Y0099983D01*
X0049874Y0099964D01*
X0050042Y0099941D01*
X0050209Y0099915D01*
X0050375Y0099884D01*
X0050541Y0099849D01*
X0050705Y0099810D01*
X0050869Y0099766D01*
X0051031Y0099719D01*
X0051192Y0099668D01*
X0051352Y0099613D01*
X0051511Y0099554D01*
X0051668Y0099492D01*
X0051823Y0099425D01*
X0051977Y0099354D01*
X0052129Y0099280D01*
X0052279Y0099202D01*
X0052427Y0099121D01*
X0052573Y0099036D01*
X0052717Y0098947D01*
X0052859Y0098855D01*
X0052998Y0098759D01*
X0053135Y0098660D01*
X0053270Y0098558D01*
X0053402Y0098452D01*
X0053531Y0098343D01*
X0053658Y0098231D01*
X0053782Y0098116D01*
X0053903Y0097998D01*
X0054021Y0097877D01*
X0054136Y0097753D01*
X0054248Y0097626D01*
X0054357Y0097497D01*
X0054463Y0097365D01*
X0054565Y0097230D01*
X0054664Y0097093D01*
X0054760Y0096954D01*
X0054852Y0096812D01*
X0054941Y0096668D01*
X0055026Y0096522D01*
X0055107Y0096374D01*
X0055185Y0096224D01*
X0055259Y0096072D01*
X0055330Y0095918D01*
X0055397Y0095763D01*
X0055459Y0095606D01*
X0055518Y0095447D01*
X0055573Y0095287D01*
X0055624Y0095126D01*
X0055671Y0094964D01*
X0055715Y0094800D01*
X0055754Y0094636D01*
X0055789Y0094470D01*
X0055820Y0094304D01*
X0055846Y0094137D01*
X0055869Y0093969D01*
X0055888Y0093801D01*
X0055902Y0093633D01*
X0055913Y0093464D01*
X0055919Y0093295D01*
X0055921Y0093126D01*
X0055919Y0092957D01*
X0055913Y0092788D01*
X0055902Y0092619D01*
X0055888Y0092451D01*
X0055869Y0092283D01*
X0055846Y0092115D01*
X0055820Y0091948D01*
X0055789Y0091782D01*
X0055754Y0091616D01*
X0055715Y0091452D01*
X0055671Y0091288D01*
X0055624Y0091126D01*
X0055573Y0090965D01*
X0055518Y0090805D01*
X0055459Y0090646D01*
X0055397Y0090489D01*
X0055330Y0090334D01*
X0055259Y0090180D01*
X0055185Y0090028D01*
X0055107Y0089878D01*
X0055026Y0089730D01*
X0054941Y0089584D01*
X0054852Y0089440D01*
X0054760Y0089298D01*
X0054664Y0089159D01*
X0054565Y0089022D01*
X0054463Y0088887D01*
X0054357Y0088755D01*
X0054248Y0088626D01*
X0054136Y0088499D01*
X0054021Y0088375D01*
X0053903Y0088254D01*
X0053782Y0088136D01*
X0053658Y0088021D01*
X0053531Y0087909D01*
X0053402Y0087800D01*
X0053270Y0087694D01*
X0053135Y0087592D01*
X0052998Y0087493D01*
X0052859Y0087397D01*
X0052717Y0087305D01*
X0052573Y0087216D01*
X0052427Y0087131D01*
X0052279Y0087050D01*
X0052129Y0086972D01*
X0051977Y0086898D01*
X0051823Y0086827D01*
X0051668Y0086760D01*
X0051511Y0086698D01*
X0051352Y0086639D01*
X0051192Y0086584D01*
X0051031Y0086533D01*
X0050869Y0086486D01*
X0050705Y0086442D01*
X0050541Y0086403D01*
X0050375Y0086368D01*
X0050209Y0086337D01*
X0050042Y0086311D01*
X0049874Y0086288D01*
X0049706Y0086269D01*
X0049538Y0086255D01*
X0049369Y0086244D01*
X0049200Y0086238D01*
X0049031Y0086236D01*
X0048862Y0086238D01*
X0048693Y0086244D01*
X0048524Y0086255D01*
X0048356Y0086269D01*
X0048188Y0086288D01*
X0048020Y0086311D01*
X0047853Y0086337D01*
X0047687Y0086368D01*
X0047521Y0086403D01*
X0047357Y0086442D01*
X0047193Y0086486D01*
X0047031Y0086533D01*
X0046870Y0086584D01*
X0046710Y0086639D01*
X0046551Y0086698D01*
X0046394Y0086760D01*
X0046239Y0086827D01*
X0046085Y0086898D01*
X0045933Y0086972D01*
X0045783Y0087050D01*
X0045635Y0087131D01*
X0045489Y0087216D01*
X0045345Y0087305D01*
X0045203Y0087397D01*
X0045064Y0087493D01*
X0044927Y0087592D01*
X0044792Y0087694D01*
X0044660Y0087800D01*
X0044531Y0087909D01*
X0044404Y0088021D01*
X0044280Y0088136D01*
X0044159Y0088254D01*
X0044041Y0088375D01*
X0043926Y0088499D01*
X0043814Y0088626D01*
X0043705Y0088755D01*
X0043599Y0088887D01*
X0043497Y0089022D01*
X0043398Y0089159D01*
X0043302Y0089298D01*
X0043210Y0089440D01*
X0043121Y0089584D01*
X0043036Y0089730D01*
X0042955Y0089878D01*
X0042877Y0090028D01*
X0042803Y0090180D01*
X0042732Y0090334D01*
X0042665Y0090489D01*
X0042603Y0090646D01*
X0042544Y0090805D01*
X0042489Y0090965D01*
X0042438Y0091126D01*
X0042391Y0091288D01*
X0042347Y0091452D01*
X0042308Y0091616D01*
X0042273Y0091782D01*
X0042242Y0091948D01*
X0042216Y0092115D01*
X0042193Y0092283D01*
X0042174Y0092451D01*
X0042160Y0092619D01*
X0042149Y0092788D01*
X0042143Y0092957D01*
X0042141Y0093126D01*
X0014582Y0160449D02*
X0014584Y0160618D01*
X0014590Y0160787D01*
X0014601Y0160956D01*
X0014615Y0161124D01*
X0014634Y0161292D01*
X0014657Y0161460D01*
X0014683Y0161627D01*
X0014714Y0161793D01*
X0014749Y0161959D01*
X0014788Y0162123D01*
X0014832Y0162287D01*
X0014879Y0162449D01*
X0014930Y0162610D01*
X0014985Y0162770D01*
X0015044Y0162929D01*
X0015106Y0163086D01*
X0015173Y0163241D01*
X0015244Y0163395D01*
X0015318Y0163547D01*
X0015396Y0163697D01*
X0015477Y0163845D01*
X0015562Y0163991D01*
X0015651Y0164135D01*
X0015743Y0164277D01*
X0015839Y0164416D01*
X0015938Y0164553D01*
X0016040Y0164688D01*
X0016146Y0164820D01*
X0016255Y0164949D01*
X0016367Y0165076D01*
X0016482Y0165200D01*
X0016600Y0165321D01*
X0016721Y0165439D01*
X0016845Y0165554D01*
X0016972Y0165666D01*
X0017101Y0165775D01*
X0017233Y0165881D01*
X0017368Y0165983D01*
X0017505Y0166082D01*
X0017644Y0166178D01*
X0017786Y0166270D01*
X0017930Y0166359D01*
X0018076Y0166444D01*
X0018224Y0166525D01*
X0018374Y0166603D01*
X0018526Y0166677D01*
X0018680Y0166748D01*
X0018835Y0166815D01*
X0018992Y0166877D01*
X0019151Y0166936D01*
X0019311Y0166991D01*
X0019472Y0167042D01*
X0019634Y0167089D01*
X0019798Y0167133D01*
X0019962Y0167172D01*
X0020128Y0167207D01*
X0020294Y0167238D01*
X0020461Y0167264D01*
X0020629Y0167287D01*
X0020797Y0167306D01*
X0020965Y0167320D01*
X0021134Y0167331D01*
X0021303Y0167337D01*
X0021472Y0167339D01*
X0021641Y0167337D01*
X0021810Y0167331D01*
X0021979Y0167320D01*
X0022147Y0167306D01*
X0022315Y0167287D01*
X0022483Y0167264D01*
X0022650Y0167238D01*
X0022816Y0167207D01*
X0022982Y0167172D01*
X0023146Y0167133D01*
X0023310Y0167089D01*
X0023472Y0167042D01*
X0023633Y0166991D01*
X0023793Y0166936D01*
X0023952Y0166877D01*
X0024109Y0166815D01*
X0024264Y0166748D01*
X0024418Y0166677D01*
X0024570Y0166603D01*
X0024720Y0166525D01*
X0024868Y0166444D01*
X0025014Y0166359D01*
X0025158Y0166270D01*
X0025300Y0166178D01*
X0025439Y0166082D01*
X0025576Y0165983D01*
X0025711Y0165881D01*
X0025843Y0165775D01*
X0025972Y0165666D01*
X0026099Y0165554D01*
X0026223Y0165439D01*
X0026344Y0165321D01*
X0026462Y0165200D01*
X0026577Y0165076D01*
X0026689Y0164949D01*
X0026798Y0164820D01*
X0026904Y0164688D01*
X0027006Y0164553D01*
X0027105Y0164416D01*
X0027201Y0164277D01*
X0027293Y0164135D01*
X0027382Y0163991D01*
X0027467Y0163845D01*
X0027548Y0163697D01*
X0027626Y0163547D01*
X0027700Y0163395D01*
X0027771Y0163241D01*
X0027838Y0163086D01*
X0027900Y0162929D01*
X0027959Y0162770D01*
X0028014Y0162610D01*
X0028065Y0162449D01*
X0028112Y0162287D01*
X0028156Y0162123D01*
X0028195Y0161959D01*
X0028230Y0161793D01*
X0028261Y0161627D01*
X0028287Y0161460D01*
X0028310Y0161292D01*
X0028329Y0161124D01*
X0028343Y0160956D01*
X0028354Y0160787D01*
X0028360Y0160618D01*
X0028362Y0160449D01*
X0028360Y0160280D01*
X0028354Y0160111D01*
X0028343Y0159942D01*
X0028329Y0159774D01*
X0028310Y0159606D01*
X0028287Y0159438D01*
X0028261Y0159271D01*
X0028230Y0159105D01*
X0028195Y0158939D01*
X0028156Y0158775D01*
X0028112Y0158611D01*
X0028065Y0158449D01*
X0028014Y0158288D01*
X0027959Y0158128D01*
X0027900Y0157969D01*
X0027838Y0157812D01*
X0027771Y0157657D01*
X0027700Y0157503D01*
X0027626Y0157351D01*
X0027548Y0157201D01*
X0027467Y0157053D01*
X0027382Y0156907D01*
X0027293Y0156763D01*
X0027201Y0156621D01*
X0027105Y0156482D01*
X0027006Y0156345D01*
X0026904Y0156210D01*
X0026798Y0156078D01*
X0026689Y0155949D01*
X0026577Y0155822D01*
X0026462Y0155698D01*
X0026344Y0155577D01*
X0026223Y0155459D01*
X0026099Y0155344D01*
X0025972Y0155232D01*
X0025843Y0155123D01*
X0025711Y0155017D01*
X0025576Y0154915D01*
X0025439Y0154816D01*
X0025300Y0154720D01*
X0025158Y0154628D01*
X0025014Y0154539D01*
X0024868Y0154454D01*
X0024720Y0154373D01*
X0024570Y0154295D01*
X0024418Y0154221D01*
X0024264Y0154150D01*
X0024109Y0154083D01*
X0023952Y0154021D01*
X0023793Y0153962D01*
X0023633Y0153907D01*
X0023472Y0153856D01*
X0023310Y0153809D01*
X0023146Y0153765D01*
X0022982Y0153726D01*
X0022816Y0153691D01*
X0022650Y0153660D01*
X0022483Y0153634D01*
X0022315Y0153611D01*
X0022147Y0153592D01*
X0021979Y0153578D01*
X0021810Y0153567D01*
X0021641Y0153561D01*
X0021472Y0153559D01*
X0021303Y0153561D01*
X0021134Y0153567D01*
X0020965Y0153578D01*
X0020797Y0153592D01*
X0020629Y0153611D01*
X0020461Y0153634D01*
X0020294Y0153660D01*
X0020128Y0153691D01*
X0019962Y0153726D01*
X0019798Y0153765D01*
X0019634Y0153809D01*
X0019472Y0153856D01*
X0019311Y0153907D01*
X0019151Y0153962D01*
X0018992Y0154021D01*
X0018835Y0154083D01*
X0018680Y0154150D01*
X0018526Y0154221D01*
X0018374Y0154295D01*
X0018224Y0154373D01*
X0018076Y0154454D01*
X0017930Y0154539D01*
X0017786Y0154628D01*
X0017644Y0154720D01*
X0017505Y0154816D01*
X0017368Y0154915D01*
X0017233Y0155017D01*
X0017101Y0155123D01*
X0016972Y0155232D01*
X0016845Y0155344D01*
X0016721Y0155459D01*
X0016600Y0155577D01*
X0016482Y0155698D01*
X0016367Y0155822D01*
X0016255Y0155949D01*
X0016146Y0156078D01*
X0016040Y0156210D01*
X0015938Y0156345D01*
X0015839Y0156482D01*
X0015743Y0156621D01*
X0015651Y0156763D01*
X0015562Y0156907D01*
X0015477Y0157053D01*
X0015396Y0157201D01*
X0015318Y0157351D01*
X0015244Y0157503D01*
X0015173Y0157657D01*
X0015106Y0157812D01*
X0015044Y0157969D01*
X0014985Y0158128D01*
X0014930Y0158288D01*
X0014879Y0158449D01*
X0014832Y0158611D01*
X0014788Y0158775D01*
X0014749Y0158939D01*
X0014714Y0159105D01*
X0014683Y0159271D01*
X0014657Y0159438D01*
X0014634Y0159606D01*
X0014615Y0159774D01*
X0014601Y0159942D01*
X0014590Y0160111D01*
X0014584Y0160280D01*
X0014582Y0160449D01*
X0145291Y0160449D02*
X0145293Y0160618D01*
X0145299Y0160787D01*
X0145310Y0160956D01*
X0145324Y0161124D01*
X0145343Y0161292D01*
X0145366Y0161460D01*
X0145392Y0161627D01*
X0145423Y0161793D01*
X0145458Y0161959D01*
X0145497Y0162123D01*
X0145541Y0162287D01*
X0145588Y0162449D01*
X0145639Y0162610D01*
X0145694Y0162770D01*
X0145753Y0162929D01*
X0145815Y0163086D01*
X0145882Y0163241D01*
X0145953Y0163395D01*
X0146027Y0163547D01*
X0146105Y0163697D01*
X0146186Y0163845D01*
X0146271Y0163991D01*
X0146360Y0164135D01*
X0146452Y0164277D01*
X0146548Y0164416D01*
X0146647Y0164553D01*
X0146749Y0164688D01*
X0146855Y0164820D01*
X0146964Y0164949D01*
X0147076Y0165076D01*
X0147191Y0165200D01*
X0147309Y0165321D01*
X0147430Y0165439D01*
X0147554Y0165554D01*
X0147681Y0165666D01*
X0147810Y0165775D01*
X0147942Y0165881D01*
X0148077Y0165983D01*
X0148214Y0166082D01*
X0148353Y0166178D01*
X0148495Y0166270D01*
X0148639Y0166359D01*
X0148785Y0166444D01*
X0148933Y0166525D01*
X0149083Y0166603D01*
X0149235Y0166677D01*
X0149389Y0166748D01*
X0149544Y0166815D01*
X0149701Y0166877D01*
X0149860Y0166936D01*
X0150020Y0166991D01*
X0150181Y0167042D01*
X0150343Y0167089D01*
X0150507Y0167133D01*
X0150671Y0167172D01*
X0150837Y0167207D01*
X0151003Y0167238D01*
X0151170Y0167264D01*
X0151338Y0167287D01*
X0151506Y0167306D01*
X0151674Y0167320D01*
X0151843Y0167331D01*
X0152012Y0167337D01*
X0152181Y0167339D01*
X0152350Y0167337D01*
X0152519Y0167331D01*
X0152688Y0167320D01*
X0152856Y0167306D01*
X0153024Y0167287D01*
X0153192Y0167264D01*
X0153359Y0167238D01*
X0153525Y0167207D01*
X0153691Y0167172D01*
X0153855Y0167133D01*
X0154019Y0167089D01*
X0154181Y0167042D01*
X0154342Y0166991D01*
X0154502Y0166936D01*
X0154661Y0166877D01*
X0154818Y0166815D01*
X0154973Y0166748D01*
X0155127Y0166677D01*
X0155279Y0166603D01*
X0155429Y0166525D01*
X0155577Y0166444D01*
X0155723Y0166359D01*
X0155867Y0166270D01*
X0156009Y0166178D01*
X0156148Y0166082D01*
X0156285Y0165983D01*
X0156420Y0165881D01*
X0156552Y0165775D01*
X0156681Y0165666D01*
X0156808Y0165554D01*
X0156932Y0165439D01*
X0157053Y0165321D01*
X0157171Y0165200D01*
X0157286Y0165076D01*
X0157398Y0164949D01*
X0157507Y0164820D01*
X0157613Y0164688D01*
X0157715Y0164553D01*
X0157814Y0164416D01*
X0157910Y0164277D01*
X0158002Y0164135D01*
X0158091Y0163991D01*
X0158176Y0163845D01*
X0158257Y0163697D01*
X0158335Y0163547D01*
X0158409Y0163395D01*
X0158480Y0163241D01*
X0158547Y0163086D01*
X0158609Y0162929D01*
X0158668Y0162770D01*
X0158723Y0162610D01*
X0158774Y0162449D01*
X0158821Y0162287D01*
X0158865Y0162123D01*
X0158904Y0161959D01*
X0158939Y0161793D01*
X0158970Y0161627D01*
X0158996Y0161460D01*
X0159019Y0161292D01*
X0159038Y0161124D01*
X0159052Y0160956D01*
X0159063Y0160787D01*
X0159069Y0160618D01*
X0159071Y0160449D01*
X0159069Y0160280D01*
X0159063Y0160111D01*
X0159052Y0159942D01*
X0159038Y0159774D01*
X0159019Y0159606D01*
X0158996Y0159438D01*
X0158970Y0159271D01*
X0158939Y0159105D01*
X0158904Y0158939D01*
X0158865Y0158775D01*
X0158821Y0158611D01*
X0158774Y0158449D01*
X0158723Y0158288D01*
X0158668Y0158128D01*
X0158609Y0157969D01*
X0158547Y0157812D01*
X0158480Y0157657D01*
X0158409Y0157503D01*
X0158335Y0157351D01*
X0158257Y0157201D01*
X0158176Y0157053D01*
X0158091Y0156907D01*
X0158002Y0156763D01*
X0157910Y0156621D01*
X0157814Y0156482D01*
X0157715Y0156345D01*
X0157613Y0156210D01*
X0157507Y0156078D01*
X0157398Y0155949D01*
X0157286Y0155822D01*
X0157171Y0155698D01*
X0157053Y0155577D01*
X0156932Y0155459D01*
X0156808Y0155344D01*
X0156681Y0155232D01*
X0156552Y0155123D01*
X0156420Y0155017D01*
X0156285Y0154915D01*
X0156148Y0154816D01*
X0156009Y0154720D01*
X0155867Y0154628D01*
X0155723Y0154539D01*
X0155577Y0154454D01*
X0155429Y0154373D01*
X0155279Y0154295D01*
X0155127Y0154221D01*
X0154973Y0154150D01*
X0154818Y0154083D01*
X0154661Y0154021D01*
X0154502Y0153962D01*
X0154342Y0153907D01*
X0154181Y0153856D01*
X0154019Y0153809D01*
X0153855Y0153765D01*
X0153691Y0153726D01*
X0153525Y0153691D01*
X0153359Y0153660D01*
X0153192Y0153634D01*
X0153024Y0153611D01*
X0152856Y0153592D01*
X0152688Y0153578D01*
X0152519Y0153567D01*
X0152350Y0153561D01*
X0152181Y0153559D01*
X0152012Y0153561D01*
X0151843Y0153567D01*
X0151674Y0153578D01*
X0151506Y0153592D01*
X0151338Y0153611D01*
X0151170Y0153634D01*
X0151003Y0153660D01*
X0150837Y0153691D01*
X0150671Y0153726D01*
X0150507Y0153765D01*
X0150343Y0153809D01*
X0150181Y0153856D01*
X0150020Y0153907D01*
X0149860Y0153962D01*
X0149701Y0154021D01*
X0149544Y0154083D01*
X0149389Y0154150D01*
X0149235Y0154221D01*
X0149083Y0154295D01*
X0148933Y0154373D01*
X0148785Y0154454D01*
X0148639Y0154539D01*
X0148495Y0154628D01*
X0148353Y0154720D01*
X0148214Y0154816D01*
X0148077Y0154915D01*
X0147942Y0155017D01*
X0147810Y0155123D01*
X0147681Y0155232D01*
X0147554Y0155344D01*
X0147430Y0155459D01*
X0147309Y0155577D01*
X0147191Y0155698D01*
X0147076Y0155822D01*
X0146964Y0155949D01*
X0146855Y0156078D01*
X0146749Y0156210D01*
X0146647Y0156345D01*
X0146548Y0156482D01*
X0146452Y0156621D01*
X0146360Y0156763D01*
X0146271Y0156907D01*
X0146186Y0157053D01*
X0146105Y0157201D01*
X0146027Y0157351D01*
X0145953Y0157503D01*
X0145882Y0157657D01*
X0145815Y0157812D01*
X0145753Y0157969D01*
X0145694Y0158128D01*
X0145639Y0158288D01*
X0145588Y0158449D01*
X0145541Y0158611D01*
X0145497Y0158775D01*
X0145458Y0158939D01*
X0145423Y0159105D01*
X0145392Y0159271D01*
X0145366Y0159438D01*
X0145343Y0159606D01*
X0145324Y0159774D01*
X0145310Y0159942D01*
X0145299Y0160111D01*
X0145293Y0160280D01*
X0145291Y0160449D01*
M02*
