G75*
%MOIN*%
%OFA0B0*%
%FSLAX25Y25*%
%IPPOS*%
%LPD*%
%AMOC8*
5,1,8,0,0,1.08239X$1,22.5*
%
%ADD10C,0.00900*%
%ADD11C,0.00787*%
%ADD12C,0.00500*%
%ADD13C,0.00600*%
%ADD14C,0.00700*%
%ADD15C,0.01000*%
D10*
X0029806Y0013341D02*
X0029806Y0015430D01*
X0029805Y0015430D02*
X0029807Y0015501D01*
X0029813Y0015571D01*
X0029822Y0015641D01*
X0029836Y0015711D01*
X0029853Y0015779D01*
X0029873Y0015847D01*
X0029898Y0015913D01*
X0029926Y0015978D01*
X0029957Y0016042D01*
X0029992Y0016103D01*
X0030030Y0016163D01*
X0030071Y0016220D01*
X0030116Y0016275D01*
X0030163Y0016328D01*
X0030213Y0016378D01*
X0030266Y0016425D01*
X0030321Y0016470D01*
X0030378Y0016511D01*
X0030438Y0016549D01*
X0030499Y0016584D01*
X0030563Y0016615D01*
X0030628Y0016643D01*
X0030694Y0016668D01*
X0030762Y0016688D01*
X0030830Y0016705D01*
X0030900Y0016719D01*
X0030970Y0016728D01*
X0031040Y0016734D01*
X0031111Y0016736D01*
X0031182Y0016734D01*
X0031252Y0016728D01*
X0031322Y0016719D01*
X0031392Y0016705D01*
X0031460Y0016688D01*
X0031528Y0016668D01*
X0031594Y0016643D01*
X0031659Y0016615D01*
X0031723Y0016584D01*
X0031784Y0016549D01*
X0031844Y0016511D01*
X0031901Y0016470D01*
X0031956Y0016425D01*
X0032009Y0016378D01*
X0032059Y0016328D01*
X0032106Y0016275D01*
X0032151Y0016220D01*
X0032192Y0016163D01*
X0032230Y0016103D01*
X0032265Y0016042D01*
X0032296Y0015978D01*
X0032324Y0015913D01*
X0032349Y0015847D01*
X0032369Y0015779D01*
X0032386Y0015711D01*
X0032400Y0015641D01*
X0032409Y0015571D01*
X0032415Y0015501D01*
X0032417Y0015430D01*
X0032417Y0013341D01*
X0032415Y0013270D01*
X0032409Y0013200D01*
X0032400Y0013130D01*
X0032386Y0013060D01*
X0032369Y0012992D01*
X0032349Y0012924D01*
X0032324Y0012858D01*
X0032296Y0012793D01*
X0032265Y0012729D01*
X0032230Y0012668D01*
X0032192Y0012608D01*
X0032151Y0012551D01*
X0032106Y0012496D01*
X0032059Y0012443D01*
X0032009Y0012393D01*
X0031956Y0012346D01*
X0031901Y0012301D01*
X0031844Y0012260D01*
X0031784Y0012222D01*
X0031723Y0012187D01*
X0031659Y0012156D01*
X0031594Y0012128D01*
X0031528Y0012103D01*
X0031460Y0012083D01*
X0031392Y0012066D01*
X0031322Y0012052D01*
X0031252Y0012043D01*
X0031182Y0012037D01*
X0031111Y0012035D01*
X0031040Y0012037D01*
X0030970Y0012043D01*
X0030900Y0012052D01*
X0030830Y0012066D01*
X0030762Y0012083D01*
X0030694Y0012103D01*
X0030628Y0012128D01*
X0030563Y0012156D01*
X0030499Y0012187D01*
X0030438Y0012222D01*
X0030378Y0012260D01*
X0030321Y0012301D01*
X0030266Y0012346D01*
X0030213Y0012393D01*
X0030163Y0012443D01*
X0030116Y0012496D01*
X0030071Y0012551D01*
X0030030Y0012608D01*
X0029992Y0012668D01*
X0029957Y0012729D01*
X0029926Y0012793D01*
X0029898Y0012858D01*
X0029873Y0012924D01*
X0029853Y0012992D01*
X0029836Y0013060D01*
X0029822Y0013130D01*
X0029813Y0013200D01*
X0029807Y0013270D01*
X0029805Y0013341D01*
X0035029Y0012036D02*
X0035029Y0016736D01*
X0037118Y0016736D01*
X0037118Y0014647D02*
X0035029Y0014647D01*
X0039397Y0014647D02*
X0041486Y0014647D01*
X0041486Y0016736D02*
X0039397Y0016736D01*
X0039397Y0012036D01*
X0049453Y0013341D02*
X0049453Y0015430D01*
X0049452Y0015430D02*
X0049454Y0015501D01*
X0049460Y0015571D01*
X0049469Y0015641D01*
X0049483Y0015711D01*
X0049500Y0015779D01*
X0049520Y0015847D01*
X0049545Y0015913D01*
X0049573Y0015978D01*
X0049604Y0016042D01*
X0049639Y0016103D01*
X0049677Y0016163D01*
X0049718Y0016220D01*
X0049763Y0016275D01*
X0049810Y0016328D01*
X0049860Y0016378D01*
X0049913Y0016425D01*
X0049968Y0016470D01*
X0050025Y0016511D01*
X0050085Y0016549D01*
X0050146Y0016584D01*
X0050210Y0016615D01*
X0050275Y0016643D01*
X0050341Y0016668D01*
X0050409Y0016688D01*
X0050477Y0016705D01*
X0050547Y0016719D01*
X0050617Y0016728D01*
X0050687Y0016734D01*
X0050758Y0016736D01*
X0050829Y0016734D01*
X0050899Y0016728D01*
X0050969Y0016719D01*
X0051039Y0016705D01*
X0051107Y0016688D01*
X0051175Y0016668D01*
X0051241Y0016643D01*
X0051306Y0016615D01*
X0051370Y0016584D01*
X0051431Y0016549D01*
X0051491Y0016511D01*
X0051548Y0016470D01*
X0051603Y0016425D01*
X0051656Y0016378D01*
X0051706Y0016328D01*
X0051753Y0016275D01*
X0051798Y0016220D01*
X0051839Y0016163D01*
X0051877Y0016103D01*
X0051912Y0016042D01*
X0051943Y0015978D01*
X0051971Y0015913D01*
X0051996Y0015847D01*
X0052016Y0015779D01*
X0052033Y0015711D01*
X0052047Y0015641D01*
X0052056Y0015571D01*
X0052062Y0015501D01*
X0052064Y0015430D01*
X0052064Y0013341D01*
X0052062Y0013270D01*
X0052056Y0013200D01*
X0052047Y0013130D01*
X0052033Y0013060D01*
X0052016Y0012992D01*
X0051996Y0012924D01*
X0051971Y0012858D01*
X0051943Y0012793D01*
X0051912Y0012729D01*
X0051877Y0012668D01*
X0051839Y0012608D01*
X0051798Y0012551D01*
X0051753Y0012496D01*
X0051706Y0012443D01*
X0051656Y0012393D01*
X0051603Y0012346D01*
X0051548Y0012301D01*
X0051491Y0012260D01*
X0051431Y0012222D01*
X0051370Y0012187D01*
X0051306Y0012156D01*
X0051241Y0012128D01*
X0051175Y0012103D01*
X0051107Y0012083D01*
X0051039Y0012066D01*
X0050969Y0012052D01*
X0050899Y0012043D01*
X0050829Y0012037D01*
X0050758Y0012035D01*
X0050687Y0012037D01*
X0050617Y0012043D01*
X0050547Y0012052D01*
X0050477Y0012066D01*
X0050409Y0012083D01*
X0050341Y0012103D01*
X0050275Y0012128D01*
X0050210Y0012156D01*
X0050146Y0012187D01*
X0050085Y0012222D01*
X0050025Y0012260D01*
X0049968Y0012301D01*
X0049913Y0012346D01*
X0049860Y0012393D01*
X0049810Y0012443D01*
X0049763Y0012496D01*
X0049718Y0012551D01*
X0049677Y0012608D01*
X0049639Y0012668D01*
X0049604Y0012729D01*
X0049573Y0012793D01*
X0049545Y0012858D01*
X0049520Y0012924D01*
X0049500Y0012992D01*
X0049483Y0013060D01*
X0049469Y0013130D01*
X0049460Y0013200D01*
X0049454Y0013270D01*
X0049452Y0013341D01*
X0054661Y0012036D02*
X0054661Y0016736D01*
X0057272Y0012036D01*
X0057272Y0016736D01*
X0076667Y0016736D02*
X0078233Y0012036D01*
X0079800Y0016736D01*
X0082043Y0013864D02*
X0085176Y0013864D01*
X0089200Y0013080D02*
X0089200Y0015691D01*
X0089201Y0015691D02*
X0089203Y0015754D01*
X0089209Y0015817D01*
X0089218Y0015879D01*
X0089231Y0015941D01*
X0089248Y0016002D01*
X0089269Y0016061D01*
X0089293Y0016119D01*
X0089321Y0016176D01*
X0089352Y0016231D01*
X0089386Y0016284D01*
X0089423Y0016335D01*
X0089464Y0016383D01*
X0089507Y0016429D01*
X0089553Y0016472D01*
X0089601Y0016513D01*
X0089652Y0016550D01*
X0089705Y0016584D01*
X0089760Y0016615D01*
X0089817Y0016643D01*
X0089875Y0016667D01*
X0089934Y0016688D01*
X0089995Y0016705D01*
X0090057Y0016718D01*
X0090119Y0016727D01*
X0090182Y0016733D01*
X0090245Y0016735D01*
X0090245Y0016736D02*
X0091811Y0016736D01*
X0091811Y0014647D02*
X0091811Y0012036D01*
X0090245Y0012036D01*
X0090182Y0012038D01*
X0090119Y0012044D01*
X0090057Y0012053D01*
X0089995Y0012066D01*
X0089934Y0012083D01*
X0089875Y0012104D01*
X0089817Y0012128D01*
X0089760Y0012156D01*
X0089705Y0012187D01*
X0089652Y0012221D01*
X0089601Y0012258D01*
X0089553Y0012299D01*
X0089507Y0012342D01*
X0089464Y0012388D01*
X0089423Y0012436D01*
X0089386Y0012487D01*
X0089352Y0012540D01*
X0089321Y0012595D01*
X0089293Y0012652D01*
X0089269Y0012710D01*
X0089248Y0012769D01*
X0089231Y0012830D01*
X0089218Y0012892D01*
X0089209Y0012954D01*
X0089203Y0013017D01*
X0089201Y0013080D01*
X0091028Y0014647D02*
X0091811Y0014647D01*
X0094576Y0016736D02*
X0094576Y0012036D01*
X0097187Y0012036D02*
X0097187Y0016736D01*
X0094576Y0016736D02*
X0097187Y0012036D01*
X0099952Y0012036D02*
X0101258Y0012036D01*
X0101258Y0012035D02*
X0101329Y0012037D01*
X0101399Y0012043D01*
X0101469Y0012052D01*
X0101539Y0012066D01*
X0101607Y0012083D01*
X0101675Y0012103D01*
X0101741Y0012128D01*
X0101806Y0012156D01*
X0101870Y0012187D01*
X0101931Y0012222D01*
X0101991Y0012260D01*
X0102048Y0012301D01*
X0102103Y0012346D01*
X0102156Y0012393D01*
X0102206Y0012443D01*
X0102253Y0012496D01*
X0102298Y0012551D01*
X0102339Y0012608D01*
X0102377Y0012668D01*
X0102412Y0012729D01*
X0102443Y0012793D01*
X0102471Y0012858D01*
X0102496Y0012924D01*
X0102516Y0012992D01*
X0102533Y0013060D01*
X0102547Y0013130D01*
X0102556Y0013200D01*
X0102562Y0013270D01*
X0102564Y0013341D01*
X0102563Y0013341D02*
X0102563Y0015430D01*
X0102564Y0015430D02*
X0102562Y0015501D01*
X0102556Y0015571D01*
X0102547Y0015641D01*
X0102533Y0015711D01*
X0102516Y0015779D01*
X0102496Y0015847D01*
X0102471Y0015913D01*
X0102443Y0015978D01*
X0102412Y0016042D01*
X0102377Y0016103D01*
X0102339Y0016163D01*
X0102298Y0016220D01*
X0102253Y0016275D01*
X0102206Y0016328D01*
X0102156Y0016378D01*
X0102103Y0016425D01*
X0102048Y0016470D01*
X0101991Y0016511D01*
X0101931Y0016549D01*
X0101870Y0016584D01*
X0101806Y0016615D01*
X0101741Y0016643D01*
X0101675Y0016668D01*
X0101607Y0016688D01*
X0101539Y0016705D01*
X0101469Y0016719D01*
X0101399Y0016728D01*
X0101329Y0016734D01*
X0101258Y0016736D01*
X0099952Y0016736D01*
X0099952Y0012036D01*
X0108163Y0016736D02*
X0109729Y0012036D01*
X0111296Y0016736D01*
X0113539Y0013864D02*
X0116672Y0013864D01*
X0115105Y0015430D02*
X0115105Y0012297D01*
X0123788Y0013341D02*
X0123788Y0015430D01*
X0123790Y0015501D01*
X0123796Y0015571D01*
X0123805Y0015641D01*
X0123819Y0015711D01*
X0123836Y0015779D01*
X0123856Y0015847D01*
X0123881Y0015913D01*
X0123909Y0015978D01*
X0123940Y0016042D01*
X0123975Y0016103D01*
X0124013Y0016163D01*
X0124054Y0016220D01*
X0124099Y0016275D01*
X0124146Y0016328D01*
X0124196Y0016378D01*
X0124249Y0016425D01*
X0124304Y0016470D01*
X0124361Y0016511D01*
X0124421Y0016549D01*
X0124482Y0016584D01*
X0124546Y0016615D01*
X0124611Y0016643D01*
X0124677Y0016668D01*
X0124745Y0016688D01*
X0124813Y0016705D01*
X0124883Y0016719D01*
X0124953Y0016728D01*
X0125023Y0016734D01*
X0125094Y0016736D01*
X0125165Y0016734D01*
X0125235Y0016728D01*
X0125305Y0016719D01*
X0125375Y0016705D01*
X0125443Y0016688D01*
X0125511Y0016668D01*
X0125577Y0016643D01*
X0125642Y0016615D01*
X0125706Y0016584D01*
X0125767Y0016549D01*
X0125827Y0016511D01*
X0125884Y0016470D01*
X0125939Y0016425D01*
X0125992Y0016378D01*
X0126042Y0016328D01*
X0126089Y0016275D01*
X0126134Y0016220D01*
X0126175Y0016163D01*
X0126213Y0016103D01*
X0126248Y0016042D01*
X0126279Y0015978D01*
X0126307Y0015913D01*
X0126332Y0015847D01*
X0126352Y0015779D01*
X0126369Y0015711D01*
X0126383Y0015641D01*
X0126392Y0015571D01*
X0126398Y0015501D01*
X0126400Y0015430D01*
X0126399Y0015430D02*
X0126399Y0013341D01*
X0126400Y0013341D02*
X0126398Y0013270D01*
X0126392Y0013200D01*
X0126383Y0013130D01*
X0126369Y0013060D01*
X0126352Y0012992D01*
X0126332Y0012924D01*
X0126307Y0012858D01*
X0126279Y0012793D01*
X0126248Y0012729D01*
X0126213Y0012668D01*
X0126175Y0012608D01*
X0126134Y0012551D01*
X0126089Y0012496D01*
X0126042Y0012443D01*
X0125992Y0012393D01*
X0125939Y0012346D01*
X0125884Y0012301D01*
X0125827Y0012260D01*
X0125767Y0012222D01*
X0125706Y0012187D01*
X0125642Y0012156D01*
X0125577Y0012128D01*
X0125511Y0012103D01*
X0125443Y0012083D01*
X0125375Y0012066D01*
X0125305Y0012052D01*
X0125235Y0012043D01*
X0125165Y0012037D01*
X0125094Y0012035D01*
X0125023Y0012037D01*
X0124953Y0012043D01*
X0124883Y0012052D01*
X0124813Y0012066D01*
X0124745Y0012083D01*
X0124677Y0012103D01*
X0124611Y0012128D01*
X0124546Y0012156D01*
X0124482Y0012187D01*
X0124421Y0012222D01*
X0124361Y0012260D01*
X0124304Y0012301D01*
X0124249Y0012346D01*
X0124196Y0012393D01*
X0124146Y0012443D01*
X0124099Y0012496D01*
X0124054Y0012551D01*
X0124013Y0012608D01*
X0123975Y0012668D01*
X0123940Y0012729D01*
X0123909Y0012793D01*
X0123881Y0012858D01*
X0123856Y0012924D01*
X0123836Y0012992D01*
X0123819Y0013060D01*
X0123805Y0013130D01*
X0123796Y0013200D01*
X0123790Y0013270D01*
X0123788Y0013341D01*
X0128996Y0013341D02*
X0128996Y0016736D01*
X0131607Y0016736D02*
X0131607Y0013341D01*
X0131608Y0013341D02*
X0131606Y0013270D01*
X0131600Y0013200D01*
X0131591Y0013130D01*
X0131577Y0013060D01*
X0131560Y0012992D01*
X0131540Y0012924D01*
X0131515Y0012858D01*
X0131487Y0012793D01*
X0131456Y0012729D01*
X0131421Y0012668D01*
X0131383Y0012608D01*
X0131342Y0012551D01*
X0131297Y0012496D01*
X0131250Y0012443D01*
X0131200Y0012393D01*
X0131147Y0012346D01*
X0131092Y0012301D01*
X0131035Y0012260D01*
X0130975Y0012222D01*
X0130914Y0012187D01*
X0130850Y0012156D01*
X0130785Y0012128D01*
X0130719Y0012103D01*
X0130651Y0012083D01*
X0130583Y0012066D01*
X0130513Y0012052D01*
X0130443Y0012043D01*
X0130373Y0012037D01*
X0130302Y0012035D01*
X0130231Y0012037D01*
X0130161Y0012043D01*
X0130091Y0012052D01*
X0130021Y0012066D01*
X0129953Y0012083D01*
X0129885Y0012103D01*
X0129819Y0012128D01*
X0129754Y0012156D01*
X0129690Y0012187D01*
X0129629Y0012222D01*
X0129569Y0012260D01*
X0129512Y0012301D01*
X0129457Y0012346D01*
X0129404Y0012393D01*
X0129354Y0012443D01*
X0129307Y0012496D01*
X0129262Y0012551D01*
X0129221Y0012608D01*
X0129183Y0012668D01*
X0129148Y0012729D01*
X0129117Y0012793D01*
X0129089Y0012858D01*
X0129064Y0012924D01*
X0129044Y0012992D01*
X0129027Y0013060D01*
X0129013Y0013130D01*
X0129004Y0013200D01*
X0128998Y0013270D01*
X0128996Y0013341D01*
X0133868Y0016736D02*
X0136479Y0016736D01*
X0135174Y0016736D02*
X0135174Y0012036D01*
X0142608Y0013080D02*
X0142608Y0015691D01*
X0142610Y0015754D01*
X0142616Y0015817D01*
X0142625Y0015879D01*
X0142638Y0015941D01*
X0142655Y0016002D01*
X0142676Y0016061D01*
X0142700Y0016119D01*
X0142728Y0016176D01*
X0142759Y0016231D01*
X0142793Y0016284D01*
X0142830Y0016335D01*
X0142871Y0016383D01*
X0142914Y0016429D01*
X0142960Y0016472D01*
X0143008Y0016513D01*
X0143059Y0016550D01*
X0143112Y0016584D01*
X0143167Y0016615D01*
X0143224Y0016643D01*
X0143282Y0016667D01*
X0143341Y0016688D01*
X0143402Y0016705D01*
X0143464Y0016718D01*
X0143526Y0016727D01*
X0143589Y0016733D01*
X0143652Y0016735D01*
X0143652Y0016736D02*
X0145219Y0016736D01*
X0145219Y0014647D02*
X0144436Y0014647D01*
X0145219Y0014647D02*
X0145219Y0012036D01*
X0143652Y0012036D01*
X0143589Y0012038D01*
X0143526Y0012044D01*
X0143464Y0012053D01*
X0143402Y0012066D01*
X0143341Y0012083D01*
X0143282Y0012104D01*
X0143224Y0012128D01*
X0143167Y0012156D01*
X0143112Y0012187D01*
X0143059Y0012221D01*
X0143008Y0012258D01*
X0142960Y0012299D01*
X0142914Y0012342D01*
X0142871Y0012388D01*
X0142830Y0012436D01*
X0142793Y0012487D01*
X0142759Y0012540D01*
X0142728Y0012595D01*
X0142700Y0012652D01*
X0142676Y0012710D01*
X0142655Y0012769D01*
X0142638Y0012830D01*
X0142625Y0012892D01*
X0142616Y0012954D01*
X0142610Y0013017D01*
X0142608Y0013080D01*
X0136158Y0080129D02*
X0136158Y0080651D01*
X0136157Y0080651D02*
X0136155Y0080714D01*
X0136149Y0080777D01*
X0136140Y0080839D01*
X0136127Y0080901D01*
X0136110Y0080962D01*
X0136089Y0081021D01*
X0136065Y0081079D01*
X0136037Y0081136D01*
X0136006Y0081191D01*
X0135972Y0081244D01*
X0135935Y0081295D01*
X0135894Y0081343D01*
X0135851Y0081389D01*
X0135805Y0081432D01*
X0135757Y0081473D01*
X0135706Y0081510D01*
X0135653Y0081544D01*
X0135598Y0081575D01*
X0135541Y0081603D01*
X0135483Y0081627D01*
X0135424Y0081648D01*
X0135363Y0081665D01*
X0135301Y0081678D01*
X0135239Y0081687D01*
X0135176Y0081693D01*
X0135113Y0081695D01*
X0135113Y0081696D02*
X0131458Y0081696D01*
X0131458Y0084542D02*
X0131458Y0085848D01*
X0131457Y0085848D02*
X0131459Y0085919D01*
X0131465Y0085989D01*
X0131474Y0086059D01*
X0131488Y0086129D01*
X0131505Y0086197D01*
X0131525Y0086265D01*
X0131550Y0086331D01*
X0131578Y0086396D01*
X0131609Y0086460D01*
X0131644Y0086521D01*
X0131682Y0086581D01*
X0131723Y0086638D01*
X0131768Y0086693D01*
X0131815Y0086746D01*
X0131865Y0086796D01*
X0131918Y0086843D01*
X0131973Y0086888D01*
X0132030Y0086929D01*
X0132090Y0086967D01*
X0132151Y0087002D01*
X0132215Y0087033D01*
X0132280Y0087061D01*
X0132346Y0087086D01*
X0132414Y0087106D01*
X0132482Y0087123D01*
X0132552Y0087137D01*
X0132622Y0087146D01*
X0132692Y0087152D01*
X0132763Y0087154D01*
X0132834Y0087152D01*
X0132904Y0087146D01*
X0132974Y0087137D01*
X0133044Y0087123D01*
X0133112Y0087106D01*
X0133180Y0087086D01*
X0133246Y0087061D01*
X0133311Y0087033D01*
X0133375Y0087002D01*
X0133436Y0086967D01*
X0133496Y0086929D01*
X0133553Y0086888D01*
X0133608Y0086843D01*
X0133661Y0086796D01*
X0133711Y0086746D01*
X0133758Y0086693D01*
X0133803Y0086638D01*
X0133844Y0086581D01*
X0133882Y0086521D01*
X0133917Y0086460D01*
X0133948Y0086396D01*
X0133976Y0086331D01*
X0134001Y0086265D01*
X0134021Y0086197D01*
X0134038Y0086129D01*
X0134052Y0086059D01*
X0134061Y0085989D01*
X0134067Y0085919D01*
X0134069Y0085848D01*
X0134069Y0084542D01*
X0136158Y0084542D02*
X0131458Y0084542D01*
X0131458Y0089470D02*
X0136158Y0092081D01*
X0131458Y0092081D01*
X0131458Y0089470D02*
X0136158Y0089470D01*
X0139858Y0089983D02*
X0139858Y0091289D01*
X0139857Y0091289D02*
X0139859Y0091360D01*
X0139865Y0091430D01*
X0139874Y0091500D01*
X0139888Y0091570D01*
X0139905Y0091638D01*
X0139925Y0091706D01*
X0139950Y0091772D01*
X0139978Y0091837D01*
X0140009Y0091901D01*
X0140044Y0091962D01*
X0140082Y0092022D01*
X0140123Y0092079D01*
X0140168Y0092134D01*
X0140215Y0092187D01*
X0140265Y0092237D01*
X0140318Y0092284D01*
X0140373Y0092329D01*
X0140430Y0092370D01*
X0140490Y0092408D01*
X0140551Y0092443D01*
X0140615Y0092474D01*
X0140680Y0092502D01*
X0140746Y0092527D01*
X0140814Y0092547D01*
X0140882Y0092564D01*
X0140952Y0092578D01*
X0141022Y0092587D01*
X0141092Y0092593D01*
X0141163Y0092595D01*
X0141234Y0092593D01*
X0141304Y0092587D01*
X0141374Y0092578D01*
X0141444Y0092564D01*
X0141512Y0092547D01*
X0141580Y0092527D01*
X0141646Y0092502D01*
X0141711Y0092474D01*
X0141775Y0092443D01*
X0141836Y0092408D01*
X0141896Y0092370D01*
X0141953Y0092329D01*
X0142008Y0092284D01*
X0142061Y0092237D01*
X0142111Y0092187D01*
X0142158Y0092134D01*
X0142203Y0092079D01*
X0142244Y0092022D01*
X0142282Y0091962D01*
X0142317Y0091901D01*
X0142348Y0091837D01*
X0142376Y0091772D01*
X0142401Y0091706D01*
X0142421Y0091638D01*
X0142438Y0091570D01*
X0142452Y0091500D01*
X0142461Y0091430D01*
X0142467Y0091360D01*
X0142469Y0091289D01*
X0142469Y0089983D01*
X0142469Y0091550D02*
X0144558Y0092594D01*
X0144558Y0095142D02*
X0139858Y0095142D01*
X0144558Y0097754D01*
X0139858Y0097754D01*
X0136158Y0099625D02*
X0131458Y0099625D01*
X0134069Y0101191D01*
X0131458Y0102758D01*
X0136158Y0102758D01*
X0136158Y0105205D02*
X0136158Y0106249D01*
X0136158Y0105727D02*
X0131458Y0105727D01*
X0131458Y0105205D02*
X0131458Y0106249D01*
X0131458Y0108118D02*
X0131458Y0110729D01*
X0131458Y0109423D02*
X0136158Y0109423D01*
X0136158Y0112456D02*
X0135897Y0112456D01*
X0135897Y0112717D01*
X0136158Y0112717D01*
X0137202Y0112326D01*
X0136158Y0112456D02*
X0136158Y0112717D01*
X0139858Y0113637D02*
X0144558Y0113637D01*
X0144558Y0115726D01*
X0141425Y0120267D02*
X0144558Y0121312D01*
X0141425Y0122356D01*
X0140902Y0124542D02*
X0139858Y0125848D01*
X0144558Y0125848D01*
X0144558Y0127153D02*
X0144558Y0124542D01*
X0144558Y0129245D02*
X0144297Y0129245D01*
X0144297Y0129506D01*
X0144558Y0129506D01*
X0144558Y0129245D01*
X0144558Y0131598D02*
X0144558Y0134209D01*
X0144558Y0131598D02*
X0141947Y0133818D01*
X0139857Y0133034D02*
X0139859Y0132958D01*
X0139865Y0132882D01*
X0139874Y0132807D01*
X0139887Y0132732D01*
X0139905Y0132658D01*
X0139925Y0132585D01*
X0139950Y0132513D01*
X0139978Y0132443D01*
X0140009Y0132373D01*
X0140044Y0132306D01*
X0140082Y0132240D01*
X0140124Y0132177D01*
X0140169Y0132115D01*
X0140216Y0132056D01*
X0140267Y0132000D01*
X0140320Y0131946D01*
X0140376Y0131894D01*
X0140435Y0131846D01*
X0140496Y0131801D01*
X0140559Y0131758D01*
X0140624Y0131719D01*
X0140691Y0131684D01*
X0140760Y0131651D01*
X0140830Y0131623D01*
X0140902Y0131597D01*
X0141947Y0133817D02*
X0141899Y0133865D01*
X0141848Y0133911D01*
X0141795Y0133953D01*
X0141739Y0133993D01*
X0141682Y0134030D01*
X0141622Y0134063D01*
X0141561Y0134093D01*
X0141499Y0134120D01*
X0141435Y0134143D01*
X0141370Y0134163D01*
X0141303Y0134180D01*
X0141237Y0134192D01*
X0141169Y0134202D01*
X0141101Y0134207D01*
X0141033Y0134209D01*
X0140967Y0134207D01*
X0140901Y0134202D01*
X0140836Y0134192D01*
X0140772Y0134180D01*
X0140708Y0134163D01*
X0140645Y0134143D01*
X0140583Y0134120D01*
X0140523Y0134093D01*
X0140465Y0134062D01*
X0140408Y0134029D01*
X0140353Y0133992D01*
X0140300Y0133953D01*
X0140250Y0133910D01*
X0140202Y0133865D01*
X0140157Y0133817D01*
X0140114Y0133767D01*
X0140075Y0133714D01*
X0140038Y0133659D01*
X0140005Y0133602D01*
X0139974Y0133544D01*
X0139947Y0133484D01*
X0139924Y0133422D01*
X0139904Y0133359D01*
X0139887Y0133295D01*
X0139875Y0133231D01*
X0139865Y0133166D01*
X0139860Y0133100D01*
X0139858Y0133034D01*
X0136158Y0130217D02*
X0136158Y0127606D01*
X0136158Y0128911D02*
X0131458Y0128911D01*
X0132502Y0127606D01*
X0133808Y0122566D02*
X0133925Y0122568D01*
X0134042Y0122573D01*
X0134159Y0122582D01*
X0134275Y0122594D01*
X0134391Y0122610D01*
X0134507Y0122630D01*
X0134622Y0122652D01*
X0134736Y0122679D01*
X0134849Y0122709D01*
X0134961Y0122742D01*
X0135073Y0122778D01*
X0135183Y0122818D01*
X0135292Y0122861D01*
X0135399Y0122908D01*
X0135505Y0122958D01*
X0135113Y0122827D02*
X0132502Y0124916D01*
X0132111Y0124785D02*
X0132055Y0124764D01*
X0132000Y0124739D01*
X0131947Y0124711D01*
X0131896Y0124680D01*
X0131847Y0124646D01*
X0131800Y0124608D01*
X0131755Y0124568D01*
X0131713Y0124525D01*
X0131674Y0124480D01*
X0131638Y0124432D01*
X0131605Y0124383D01*
X0131575Y0124331D01*
X0131548Y0124277D01*
X0131524Y0124222D01*
X0131504Y0124166D01*
X0131488Y0124108D01*
X0131475Y0124050D01*
X0131465Y0123991D01*
X0131460Y0123931D01*
X0131458Y0123871D01*
X0131460Y0123811D01*
X0131465Y0123751D01*
X0131475Y0123692D01*
X0131488Y0123634D01*
X0131504Y0123576D01*
X0131524Y0123520D01*
X0131548Y0123465D01*
X0131575Y0123411D01*
X0131605Y0123359D01*
X0131638Y0123310D01*
X0131674Y0123262D01*
X0131713Y0123217D01*
X0131755Y0123174D01*
X0131800Y0123134D01*
X0131847Y0123096D01*
X0131896Y0123062D01*
X0131947Y0123031D01*
X0132000Y0123003D01*
X0132055Y0122978D01*
X0132111Y0122957D01*
X0132111Y0124785D02*
X0132217Y0124835D01*
X0132324Y0124882D01*
X0132433Y0124925D01*
X0132543Y0124965D01*
X0132655Y0125001D01*
X0132767Y0125034D01*
X0132880Y0125064D01*
X0132994Y0125091D01*
X0133109Y0125113D01*
X0133225Y0125133D01*
X0133341Y0125149D01*
X0133457Y0125161D01*
X0133574Y0125170D01*
X0133691Y0125175D01*
X0133808Y0125177D01*
X0133808Y0122566D02*
X0133691Y0122568D01*
X0133574Y0122573D01*
X0133457Y0122582D01*
X0133341Y0122594D01*
X0133225Y0122610D01*
X0133109Y0122630D01*
X0132994Y0122652D01*
X0132880Y0122679D01*
X0132767Y0122709D01*
X0132655Y0122742D01*
X0132543Y0122778D01*
X0132433Y0122818D01*
X0132324Y0122861D01*
X0132217Y0122908D01*
X0132111Y0122958D01*
X0133808Y0125177D02*
X0133925Y0125175D01*
X0134042Y0125170D01*
X0134159Y0125161D01*
X0134275Y0125149D01*
X0134391Y0125133D01*
X0134507Y0125113D01*
X0134622Y0125091D01*
X0134736Y0125064D01*
X0134849Y0125034D01*
X0134961Y0125001D01*
X0135073Y0124965D01*
X0135183Y0124925D01*
X0135292Y0124882D01*
X0135399Y0124835D01*
X0135505Y0124785D01*
X0135561Y0124764D01*
X0135616Y0124739D01*
X0135669Y0124711D01*
X0135720Y0124680D01*
X0135769Y0124646D01*
X0135816Y0124608D01*
X0135861Y0124568D01*
X0135903Y0124525D01*
X0135942Y0124480D01*
X0135978Y0124432D01*
X0136011Y0124383D01*
X0136042Y0124331D01*
X0136068Y0124277D01*
X0136092Y0124222D01*
X0136112Y0124166D01*
X0136128Y0124108D01*
X0136141Y0124050D01*
X0136151Y0123991D01*
X0136156Y0123931D01*
X0136158Y0123871D01*
X0136156Y0123811D01*
X0136151Y0123751D01*
X0136141Y0123692D01*
X0136128Y0123634D01*
X0136112Y0123576D01*
X0136092Y0123520D01*
X0136068Y0123465D01*
X0136042Y0123411D01*
X0136011Y0123359D01*
X0135978Y0123310D01*
X0135942Y0123262D01*
X0135903Y0123217D01*
X0135861Y0123174D01*
X0135816Y0123134D01*
X0135769Y0123096D01*
X0135720Y0123062D01*
X0135669Y0123031D01*
X0135616Y0123003D01*
X0135561Y0122978D01*
X0135505Y0122957D01*
X0136158Y0120137D02*
X0136158Y0117526D01*
X0133547Y0119745D01*
X0131457Y0118962D02*
X0131459Y0118886D01*
X0131465Y0118810D01*
X0131474Y0118735D01*
X0131487Y0118660D01*
X0131505Y0118586D01*
X0131525Y0118513D01*
X0131550Y0118441D01*
X0131578Y0118371D01*
X0131609Y0118301D01*
X0131644Y0118234D01*
X0131682Y0118168D01*
X0131724Y0118105D01*
X0131769Y0118043D01*
X0131816Y0117984D01*
X0131867Y0117928D01*
X0131920Y0117874D01*
X0131976Y0117822D01*
X0132035Y0117774D01*
X0132096Y0117729D01*
X0132159Y0117686D01*
X0132224Y0117647D01*
X0132291Y0117612D01*
X0132360Y0117579D01*
X0132430Y0117551D01*
X0132502Y0117525D01*
X0133547Y0119745D02*
X0133499Y0119793D01*
X0133448Y0119839D01*
X0133395Y0119881D01*
X0133339Y0119921D01*
X0133282Y0119958D01*
X0133222Y0119991D01*
X0133161Y0120021D01*
X0133099Y0120048D01*
X0133035Y0120071D01*
X0132970Y0120091D01*
X0132903Y0120108D01*
X0132837Y0120120D01*
X0132769Y0120130D01*
X0132701Y0120135D01*
X0132633Y0120137D01*
X0132567Y0120135D01*
X0132501Y0120130D01*
X0132436Y0120120D01*
X0132372Y0120108D01*
X0132308Y0120091D01*
X0132245Y0120071D01*
X0132183Y0120048D01*
X0132123Y0120021D01*
X0132065Y0119990D01*
X0132008Y0119957D01*
X0131953Y0119920D01*
X0131900Y0119881D01*
X0131850Y0119838D01*
X0131802Y0119793D01*
X0131757Y0119745D01*
X0131714Y0119695D01*
X0131675Y0119642D01*
X0131638Y0119587D01*
X0131605Y0119530D01*
X0131574Y0119472D01*
X0131547Y0119412D01*
X0131524Y0119350D01*
X0131504Y0119287D01*
X0131487Y0119223D01*
X0131475Y0119159D01*
X0131465Y0119094D01*
X0131460Y0119028D01*
X0131458Y0118962D01*
X0123569Y0118331D02*
X0123569Y0121464D01*
X0123181Y0129359D02*
X0121875Y0129359D01*
X0121875Y0134059D01*
X0123181Y0134059D01*
X0123181Y0134058D02*
X0123244Y0134056D01*
X0123307Y0134050D01*
X0123369Y0134041D01*
X0123431Y0134028D01*
X0123492Y0134011D01*
X0123551Y0133990D01*
X0123609Y0133966D01*
X0123666Y0133938D01*
X0123721Y0133907D01*
X0123774Y0133873D01*
X0123825Y0133836D01*
X0123873Y0133795D01*
X0123919Y0133752D01*
X0123962Y0133706D01*
X0124003Y0133658D01*
X0124040Y0133607D01*
X0124074Y0133554D01*
X0124105Y0133499D01*
X0124133Y0133442D01*
X0124157Y0133384D01*
X0124178Y0133325D01*
X0124195Y0133264D01*
X0124208Y0133202D01*
X0124217Y0133140D01*
X0124223Y0133077D01*
X0124225Y0133014D01*
X0124223Y0132951D01*
X0124217Y0132888D01*
X0124208Y0132826D01*
X0124195Y0132764D01*
X0124178Y0132703D01*
X0124157Y0132644D01*
X0124133Y0132586D01*
X0124105Y0132529D01*
X0124074Y0132474D01*
X0124040Y0132421D01*
X0124003Y0132370D01*
X0123962Y0132322D01*
X0123919Y0132276D01*
X0123873Y0132233D01*
X0123825Y0132192D01*
X0123774Y0132155D01*
X0123721Y0132121D01*
X0123666Y0132090D01*
X0123609Y0132062D01*
X0123551Y0132038D01*
X0123492Y0132017D01*
X0123431Y0132000D01*
X0123369Y0131987D01*
X0123307Y0131978D01*
X0123244Y0131972D01*
X0123181Y0131970D01*
X0121875Y0131970D01*
X0123181Y0131970D02*
X0123252Y0131968D01*
X0123322Y0131962D01*
X0123392Y0131953D01*
X0123462Y0131939D01*
X0123530Y0131922D01*
X0123598Y0131902D01*
X0123664Y0131877D01*
X0123729Y0131849D01*
X0123793Y0131818D01*
X0123854Y0131783D01*
X0123914Y0131745D01*
X0123971Y0131704D01*
X0124026Y0131659D01*
X0124079Y0131612D01*
X0124129Y0131562D01*
X0124176Y0131509D01*
X0124221Y0131454D01*
X0124262Y0131397D01*
X0124300Y0131337D01*
X0124335Y0131276D01*
X0124366Y0131212D01*
X0124394Y0131147D01*
X0124419Y0131081D01*
X0124439Y0131013D01*
X0124456Y0130945D01*
X0124470Y0130875D01*
X0124479Y0130805D01*
X0124485Y0130735D01*
X0124487Y0130664D01*
X0124485Y0130593D01*
X0124479Y0130523D01*
X0124470Y0130453D01*
X0124456Y0130383D01*
X0124439Y0130315D01*
X0124419Y0130247D01*
X0124394Y0130181D01*
X0124366Y0130116D01*
X0124335Y0130052D01*
X0124300Y0129991D01*
X0124262Y0129931D01*
X0124221Y0129874D01*
X0124176Y0129819D01*
X0124129Y0129766D01*
X0124079Y0129716D01*
X0124026Y0129669D01*
X0123971Y0129624D01*
X0123914Y0129583D01*
X0123854Y0129545D01*
X0123793Y0129510D01*
X0123729Y0129479D01*
X0123664Y0129451D01*
X0123598Y0129426D01*
X0123530Y0129406D01*
X0123462Y0129389D01*
X0123392Y0129375D01*
X0123322Y0129366D01*
X0123252Y0129360D01*
X0123181Y0129358D01*
X0119091Y0131186D02*
X0115958Y0131186D01*
X0113790Y0134059D02*
X0111179Y0134059D01*
X0112484Y0134059D02*
X0112484Y0129359D01*
X0108918Y0130664D02*
X0108918Y0134059D01*
X0106307Y0134059D02*
X0106307Y0130664D01*
X0106306Y0130664D02*
X0106308Y0130593D01*
X0106314Y0130523D01*
X0106323Y0130453D01*
X0106337Y0130383D01*
X0106354Y0130315D01*
X0106374Y0130247D01*
X0106399Y0130181D01*
X0106427Y0130116D01*
X0106458Y0130052D01*
X0106493Y0129991D01*
X0106531Y0129931D01*
X0106572Y0129874D01*
X0106617Y0129819D01*
X0106664Y0129766D01*
X0106714Y0129716D01*
X0106767Y0129669D01*
X0106822Y0129624D01*
X0106879Y0129583D01*
X0106939Y0129545D01*
X0107000Y0129510D01*
X0107064Y0129479D01*
X0107129Y0129451D01*
X0107195Y0129426D01*
X0107263Y0129406D01*
X0107331Y0129389D01*
X0107401Y0129375D01*
X0107471Y0129366D01*
X0107541Y0129360D01*
X0107612Y0129358D01*
X0107683Y0129360D01*
X0107753Y0129366D01*
X0107823Y0129375D01*
X0107893Y0129389D01*
X0107961Y0129406D01*
X0108029Y0129426D01*
X0108095Y0129451D01*
X0108160Y0129479D01*
X0108224Y0129510D01*
X0108285Y0129545D01*
X0108345Y0129583D01*
X0108402Y0129624D01*
X0108457Y0129669D01*
X0108510Y0129716D01*
X0108560Y0129766D01*
X0108607Y0129819D01*
X0108652Y0129874D01*
X0108693Y0129931D01*
X0108731Y0129991D01*
X0108766Y0130052D01*
X0108797Y0130116D01*
X0108825Y0130181D01*
X0108850Y0130247D01*
X0108870Y0130315D01*
X0108887Y0130383D01*
X0108901Y0130453D01*
X0108910Y0130523D01*
X0108916Y0130593D01*
X0108918Y0130664D01*
X0102685Y0131448D02*
X0101379Y0131448D01*
X0102685Y0131447D02*
X0102756Y0131449D01*
X0102826Y0131455D01*
X0102896Y0131464D01*
X0102966Y0131478D01*
X0103034Y0131495D01*
X0103102Y0131515D01*
X0103168Y0131540D01*
X0103233Y0131568D01*
X0103297Y0131599D01*
X0103358Y0131634D01*
X0103418Y0131672D01*
X0103475Y0131713D01*
X0103530Y0131758D01*
X0103583Y0131805D01*
X0103633Y0131855D01*
X0103680Y0131908D01*
X0103725Y0131963D01*
X0103766Y0132020D01*
X0103804Y0132080D01*
X0103839Y0132141D01*
X0103870Y0132205D01*
X0103898Y0132270D01*
X0103923Y0132336D01*
X0103943Y0132404D01*
X0103960Y0132472D01*
X0103974Y0132542D01*
X0103983Y0132612D01*
X0103989Y0132682D01*
X0103991Y0132753D01*
X0103989Y0132824D01*
X0103983Y0132894D01*
X0103974Y0132964D01*
X0103960Y0133034D01*
X0103943Y0133102D01*
X0103923Y0133170D01*
X0103898Y0133236D01*
X0103870Y0133301D01*
X0103839Y0133365D01*
X0103804Y0133426D01*
X0103766Y0133486D01*
X0103725Y0133543D01*
X0103680Y0133598D01*
X0103633Y0133651D01*
X0103583Y0133701D01*
X0103530Y0133748D01*
X0103475Y0133793D01*
X0103418Y0133834D01*
X0103358Y0133872D01*
X0103297Y0133907D01*
X0103233Y0133938D01*
X0103168Y0133966D01*
X0103102Y0133991D01*
X0103034Y0134011D01*
X0102966Y0134028D01*
X0102896Y0134042D01*
X0102826Y0134051D01*
X0102756Y0134057D01*
X0102685Y0134059D01*
X0101379Y0134059D01*
X0101379Y0129359D01*
X0098502Y0129359D02*
X0098502Y0134059D01*
X0095891Y0134059D02*
X0098502Y0129359D01*
X0095891Y0129359D02*
X0095891Y0134059D01*
X0093519Y0134059D02*
X0092474Y0134059D01*
X0092997Y0134059D02*
X0092997Y0129359D01*
X0093519Y0129359D02*
X0092474Y0129359D01*
X0080776Y0129359D02*
X0079209Y0134059D01*
X0077643Y0129359D01*
X0078034Y0130534D02*
X0080384Y0130534D01*
X0075400Y0131186D02*
X0072267Y0131186D01*
X0070099Y0134059D02*
X0067488Y0134059D01*
X0068793Y0134059D02*
X0068793Y0129359D01*
X0065227Y0130664D02*
X0065227Y0134059D01*
X0062616Y0134059D02*
X0062616Y0130664D01*
X0062615Y0130664D02*
X0062617Y0130593D01*
X0062623Y0130523D01*
X0062632Y0130453D01*
X0062646Y0130383D01*
X0062663Y0130315D01*
X0062683Y0130247D01*
X0062708Y0130181D01*
X0062736Y0130116D01*
X0062767Y0130052D01*
X0062802Y0129991D01*
X0062840Y0129931D01*
X0062881Y0129874D01*
X0062926Y0129819D01*
X0062973Y0129766D01*
X0063023Y0129716D01*
X0063076Y0129669D01*
X0063131Y0129624D01*
X0063188Y0129583D01*
X0063248Y0129545D01*
X0063309Y0129510D01*
X0063373Y0129479D01*
X0063438Y0129451D01*
X0063504Y0129426D01*
X0063572Y0129406D01*
X0063640Y0129389D01*
X0063710Y0129375D01*
X0063780Y0129366D01*
X0063850Y0129360D01*
X0063921Y0129358D01*
X0063992Y0129360D01*
X0064062Y0129366D01*
X0064132Y0129375D01*
X0064202Y0129389D01*
X0064270Y0129406D01*
X0064338Y0129426D01*
X0064404Y0129451D01*
X0064469Y0129479D01*
X0064533Y0129510D01*
X0064594Y0129545D01*
X0064654Y0129583D01*
X0064711Y0129624D01*
X0064766Y0129669D01*
X0064819Y0129716D01*
X0064869Y0129766D01*
X0064916Y0129819D01*
X0064961Y0129874D01*
X0065002Y0129931D01*
X0065040Y0129991D01*
X0065075Y0130052D01*
X0065106Y0130116D01*
X0065134Y0130181D01*
X0065159Y0130247D01*
X0065179Y0130315D01*
X0065196Y0130383D01*
X0065210Y0130453D01*
X0065219Y0130523D01*
X0065225Y0130593D01*
X0065227Y0130664D01*
X0058994Y0131448D02*
X0057688Y0131448D01*
X0058994Y0131447D02*
X0059065Y0131449D01*
X0059135Y0131455D01*
X0059205Y0131464D01*
X0059275Y0131478D01*
X0059343Y0131495D01*
X0059411Y0131515D01*
X0059477Y0131540D01*
X0059542Y0131568D01*
X0059606Y0131599D01*
X0059667Y0131634D01*
X0059727Y0131672D01*
X0059784Y0131713D01*
X0059839Y0131758D01*
X0059892Y0131805D01*
X0059942Y0131855D01*
X0059989Y0131908D01*
X0060034Y0131963D01*
X0060075Y0132020D01*
X0060113Y0132080D01*
X0060148Y0132141D01*
X0060179Y0132205D01*
X0060207Y0132270D01*
X0060232Y0132336D01*
X0060252Y0132404D01*
X0060269Y0132472D01*
X0060283Y0132542D01*
X0060292Y0132612D01*
X0060298Y0132682D01*
X0060300Y0132753D01*
X0060298Y0132824D01*
X0060292Y0132894D01*
X0060283Y0132964D01*
X0060269Y0133034D01*
X0060252Y0133102D01*
X0060232Y0133170D01*
X0060207Y0133236D01*
X0060179Y0133301D01*
X0060148Y0133365D01*
X0060113Y0133426D01*
X0060075Y0133486D01*
X0060034Y0133543D01*
X0059989Y0133598D01*
X0059942Y0133651D01*
X0059892Y0133701D01*
X0059839Y0133748D01*
X0059784Y0133793D01*
X0059727Y0133834D01*
X0059667Y0133872D01*
X0059606Y0133907D01*
X0059542Y0133938D01*
X0059477Y0133966D01*
X0059411Y0133991D01*
X0059343Y0134011D01*
X0059275Y0134028D01*
X0059205Y0134042D01*
X0059135Y0134051D01*
X0059065Y0134057D01*
X0058994Y0134059D01*
X0057688Y0134059D01*
X0057688Y0129359D01*
X0054811Y0129359D02*
X0054811Y0134059D01*
X0052200Y0134059D02*
X0054811Y0129359D01*
X0052200Y0129359D02*
X0052200Y0134059D01*
X0049828Y0134059D02*
X0048783Y0134059D01*
X0049305Y0134059D02*
X0049305Y0129359D01*
X0048783Y0129359D02*
X0049828Y0129359D01*
X0053370Y0124887D02*
X0056504Y0124887D01*
X0073449Y0124887D02*
X0076582Y0124887D01*
X0075016Y0123321D02*
X0075016Y0126454D01*
X0122268Y0107958D02*
X0125401Y0107958D01*
X0123835Y0106391D02*
X0123835Y0109525D01*
X0135897Y0094573D02*
X0136158Y0094573D01*
X0137202Y0094182D01*
X0136158Y0094312D02*
X0135897Y0094312D01*
X0135897Y0094573D01*
X0136158Y0094573D02*
X0136158Y0094312D01*
X0139858Y0089983D02*
X0144558Y0089983D01*
X0144558Y0087670D02*
X0144558Y0085581D01*
X0139858Y0085581D01*
X0139858Y0087670D01*
X0141947Y0087148D02*
X0141947Y0085581D01*
X0139858Y0083265D02*
X0139858Y0082221D01*
X0139860Y0082158D01*
X0139866Y0082095D01*
X0139875Y0082033D01*
X0139888Y0081971D01*
X0139905Y0081910D01*
X0139926Y0081851D01*
X0139950Y0081793D01*
X0139978Y0081736D01*
X0140009Y0081681D01*
X0140043Y0081628D01*
X0140080Y0081577D01*
X0140121Y0081529D01*
X0140164Y0081483D01*
X0140210Y0081440D01*
X0140258Y0081399D01*
X0140309Y0081362D01*
X0140362Y0081328D01*
X0140417Y0081297D01*
X0140474Y0081269D01*
X0140532Y0081245D01*
X0140591Y0081224D01*
X0140652Y0081207D01*
X0140714Y0081194D01*
X0140776Y0081185D01*
X0140839Y0081179D01*
X0140902Y0081177D01*
X0140902Y0081176D02*
X0143513Y0081176D01*
X0143513Y0081177D02*
X0143576Y0081179D01*
X0143639Y0081185D01*
X0143701Y0081194D01*
X0143763Y0081207D01*
X0143824Y0081224D01*
X0143883Y0081245D01*
X0143941Y0081269D01*
X0143998Y0081297D01*
X0144053Y0081328D01*
X0144106Y0081362D01*
X0144157Y0081399D01*
X0144205Y0081440D01*
X0144251Y0081483D01*
X0144294Y0081529D01*
X0144335Y0081577D01*
X0144372Y0081628D01*
X0144406Y0081681D01*
X0144437Y0081736D01*
X0144465Y0081793D01*
X0144489Y0081851D01*
X0144510Y0081910D01*
X0144527Y0081971D01*
X0144540Y0082033D01*
X0144549Y0082095D01*
X0144555Y0082158D01*
X0144557Y0082221D01*
X0144558Y0082221D02*
X0144558Y0083265D01*
X0143252Y0103038D02*
X0141163Y0103038D01*
X0141092Y0103040D01*
X0141022Y0103046D01*
X0140952Y0103055D01*
X0140882Y0103069D01*
X0140814Y0103086D01*
X0140746Y0103106D01*
X0140680Y0103131D01*
X0140615Y0103159D01*
X0140551Y0103190D01*
X0140490Y0103225D01*
X0140430Y0103263D01*
X0140373Y0103304D01*
X0140318Y0103349D01*
X0140265Y0103396D01*
X0140215Y0103446D01*
X0140168Y0103499D01*
X0140123Y0103554D01*
X0140082Y0103611D01*
X0140044Y0103671D01*
X0140009Y0103732D01*
X0139978Y0103796D01*
X0139950Y0103861D01*
X0139925Y0103927D01*
X0139905Y0103995D01*
X0139888Y0104063D01*
X0139874Y0104133D01*
X0139865Y0104203D01*
X0139859Y0104273D01*
X0139857Y0104344D01*
X0139859Y0104415D01*
X0139865Y0104485D01*
X0139874Y0104555D01*
X0139888Y0104625D01*
X0139905Y0104693D01*
X0139925Y0104761D01*
X0139950Y0104827D01*
X0139978Y0104892D01*
X0140009Y0104956D01*
X0140044Y0105017D01*
X0140082Y0105077D01*
X0140123Y0105134D01*
X0140168Y0105189D01*
X0140215Y0105242D01*
X0140265Y0105292D01*
X0140318Y0105339D01*
X0140373Y0105384D01*
X0140430Y0105425D01*
X0140490Y0105463D01*
X0140551Y0105498D01*
X0140615Y0105529D01*
X0140680Y0105557D01*
X0140746Y0105582D01*
X0140814Y0105602D01*
X0140882Y0105619D01*
X0140952Y0105633D01*
X0141022Y0105642D01*
X0141092Y0105648D01*
X0141163Y0105650D01*
X0141163Y0105649D02*
X0143252Y0105649D01*
X0143252Y0105650D02*
X0143323Y0105648D01*
X0143393Y0105642D01*
X0143463Y0105633D01*
X0143533Y0105619D01*
X0143601Y0105602D01*
X0143669Y0105582D01*
X0143735Y0105557D01*
X0143800Y0105529D01*
X0143864Y0105498D01*
X0143925Y0105463D01*
X0143985Y0105425D01*
X0144042Y0105384D01*
X0144097Y0105339D01*
X0144150Y0105292D01*
X0144200Y0105242D01*
X0144247Y0105189D01*
X0144292Y0105134D01*
X0144333Y0105077D01*
X0144371Y0105017D01*
X0144406Y0104956D01*
X0144437Y0104892D01*
X0144465Y0104827D01*
X0144490Y0104761D01*
X0144510Y0104693D01*
X0144527Y0104625D01*
X0144541Y0104555D01*
X0144550Y0104485D01*
X0144556Y0104415D01*
X0144558Y0104344D01*
X0144556Y0104273D01*
X0144550Y0104203D01*
X0144541Y0104133D01*
X0144527Y0104063D01*
X0144510Y0103995D01*
X0144490Y0103927D01*
X0144465Y0103861D01*
X0144437Y0103796D01*
X0144406Y0103732D01*
X0144371Y0103671D01*
X0144333Y0103611D01*
X0144292Y0103554D01*
X0144247Y0103499D01*
X0144200Y0103446D01*
X0144150Y0103396D01*
X0144097Y0103349D01*
X0144042Y0103304D01*
X0143985Y0103263D01*
X0143925Y0103225D01*
X0143864Y0103190D01*
X0143800Y0103159D01*
X0143735Y0103131D01*
X0143669Y0103106D01*
X0143601Y0103086D01*
X0143533Y0103069D01*
X0143463Y0103055D01*
X0143393Y0103046D01*
X0143323Y0103040D01*
X0143252Y0103038D01*
X0141947Y0108246D02*
X0141947Y0110857D01*
X0139858Y0110857D02*
X0144558Y0110857D01*
X0144558Y0108246D02*
X0139858Y0108246D01*
X0134852Y0132645D02*
X0134923Y0132647D01*
X0134993Y0132653D01*
X0135063Y0132662D01*
X0135133Y0132676D01*
X0135201Y0132693D01*
X0135269Y0132713D01*
X0135335Y0132738D01*
X0135400Y0132766D01*
X0135464Y0132797D01*
X0135525Y0132832D01*
X0135585Y0132870D01*
X0135642Y0132911D01*
X0135697Y0132956D01*
X0135750Y0133003D01*
X0135800Y0133053D01*
X0135847Y0133106D01*
X0135892Y0133161D01*
X0135933Y0133218D01*
X0135971Y0133278D01*
X0136006Y0133339D01*
X0136037Y0133403D01*
X0136065Y0133468D01*
X0136090Y0133534D01*
X0136110Y0133602D01*
X0136127Y0133670D01*
X0136141Y0133740D01*
X0136150Y0133810D01*
X0136156Y0133880D01*
X0136158Y0133951D01*
X0136156Y0134022D01*
X0136150Y0134092D01*
X0136141Y0134162D01*
X0136127Y0134232D01*
X0136110Y0134300D01*
X0136090Y0134368D01*
X0136065Y0134434D01*
X0136037Y0134499D01*
X0136006Y0134563D01*
X0135971Y0134624D01*
X0135933Y0134684D01*
X0135892Y0134741D01*
X0135847Y0134796D01*
X0135800Y0134849D01*
X0135750Y0134899D01*
X0135697Y0134946D01*
X0135642Y0134991D01*
X0135585Y0135032D01*
X0135525Y0135070D01*
X0135464Y0135105D01*
X0135400Y0135136D01*
X0135335Y0135164D01*
X0135269Y0135189D01*
X0135201Y0135209D01*
X0135133Y0135226D01*
X0135063Y0135240D01*
X0134993Y0135249D01*
X0134923Y0135255D01*
X0134852Y0135257D01*
X0134781Y0135255D01*
X0134711Y0135249D01*
X0134641Y0135240D01*
X0134571Y0135226D01*
X0134503Y0135209D01*
X0134435Y0135189D01*
X0134369Y0135164D01*
X0134304Y0135136D01*
X0134240Y0135105D01*
X0134179Y0135070D01*
X0134119Y0135032D01*
X0134062Y0134991D01*
X0134007Y0134946D01*
X0133954Y0134899D01*
X0133904Y0134849D01*
X0133857Y0134796D01*
X0133812Y0134741D01*
X0133771Y0134684D01*
X0133733Y0134624D01*
X0133698Y0134563D01*
X0133667Y0134499D01*
X0133639Y0134434D01*
X0133614Y0134368D01*
X0133594Y0134300D01*
X0133577Y0134232D01*
X0133563Y0134162D01*
X0133554Y0134092D01*
X0133548Y0134022D01*
X0133546Y0133951D01*
X0133548Y0133880D01*
X0133554Y0133810D01*
X0133563Y0133740D01*
X0133577Y0133670D01*
X0133594Y0133602D01*
X0133614Y0133534D01*
X0133639Y0133468D01*
X0133667Y0133403D01*
X0133698Y0133339D01*
X0133733Y0133278D01*
X0133771Y0133218D01*
X0133812Y0133161D01*
X0133857Y0133106D01*
X0133904Y0133053D01*
X0133954Y0133003D01*
X0134007Y0132956D01*
X0134062Y0132911D01*
X0134119Y0132870D01*
X0134179Y0132832D01*
X0134240Y0132797D01*
X0134304Y0132766D01*
X0134369Y0132738D01*
X0134435Y0132713D01*
X0134503Y0132693D01*
X0134571Y0132676D01*
X0134641Y0132662D01*
X0134711Y0132653D01*
X0134781Y0132647D01*
X0134852Y0132645D01*
X0132502Y0132907D02*
X0132565Y0132909D01*
X0132628Y0132915D01*
X0132690Y0132924D01*
X0132752Y0132937D01*
X0132813Y0132954D01*
X0132872Y0132975D01*
X0132930Y0132999D01*
X0132987Y0133027D01*
X0133042Y0133058D01*
X0133095Y0133092D01*
X0133146Y0133129D01*
X0133194Y0133170D01*
X0133240Y0133213D01*
X0133283Y0133259D01*
X0133324Y0133307D01*
X0133361Y0133358D01*
X0133395Y0133411D01*
X0133426Y0133466D01*
X0133454Y0133523D01*
X0133478Y0133581D01*
X0133499Y0133640D01*
X0133516Y0133701D01*
X0133529Y0133763D01*
X0133538Y0133825D01*
X0133544Y0133888D01*
X0133546Y0133951D01*
X0133544Y0134014D01*
X0133538Y0134077D01*
X0133529Y0134139D01*
X0133516Y0134201D01*
X0133499Y0134262D01*
X0133478Y0134321D01*
X0133454Y0134379D01*
X0133426Y0134436D01*
X0133395Y0134491D01*
X0133361Y0134544D01*
X0133324Y0134595D01*
X0133283Y0134643D01*
X0133240Y0134689D01*
X0133194Y0134732D01*
X0133146Y0134773D01*
X0133095Y0134810D01*
X0133042Y0134844D01*
X0132987Y0134875D01*
X0132930Y0134903D01*
X0132872Y0134927D01*
X0132813Y0134948D01*
X0132752Y0134965D01*
X0132690Y0134978D01*
X0132628Y0134987D01*
X0132565Y0134993D01*
X0132502Y0134995D01*
X0132439Y0134993D01*
X0132376Y0134987D01*
X0132314Y0134978D01*
X0132252Y0134965D01*
X0132191Y0134948D01*
X0132132Y0134927D01*
X0132074Y0134903D01*
X0132017Y0134875D01*
X0131962Y0134844D01*
X0131909Y0134810D01*
X0131858Y0134773D01*
X0131810Y0134732D01*
X0131764Y0134689D01*
X0131721Y0134643D01*
X0131680Y0134595D01*
X0131643Y0134544D01*
X0131609Y0134491D01*
X0131578Y0134436D01*
X0131550Y0134379D01*
X0131526Y0134321D01*
X0131505Y0134262D01*
X0131488Y0134201D01*
X0131475Y0134139D01*
X0131466Y0134077D01*
X0131460Y0134014D01*
X0131458Y0133951D01*
X0131460Y0133888D01*
X0131466Y0133825D01*
X0131475Y0133763D01*
X0131488Y0133701D01*
X0131505Y0133640D01*
X0131526Y0133581D01*
X0131550Y0133523D01*
X0131578Y0133466D01*
X0131609Y0133411D01*
X0131643Y0133358D01*
X0131680Y0133307D01*
X0131721Y0133259D01*
X0131764Y0133213D01*
X0131810Y0133170D01*
X0131858Y0133129D01*
X0131909Y0133092D01*
X0131962Y0133058D01*
X0132017Y0133027D01*
X0132074Y0132999D01*
X0132132Y0132975D01*
X0132191Y0132954D01*
X0132252Y0132937D01*
X0132314Y0132924D01*
X0132376Y0132915D01*
X0132439Y0132909D01*
X0132502Y0132907D01*
X0027759Y0133561D02*
X0027759Y0134605D01*
X0027759Y0134083D02*
X0023059Y0134083D01*
X0023059Y0133561D02*
X0023059Y0134605D01*
X0023059Y0136993D02*
X0023059Y0139082D01*
X0023059Y0136993D02*
X0027759Y0136993D01*
X0027759Y0139082D01*
X0025148Y0138559D02*
X0025148Y0136993D01*
X0025671Y0141395D02*
X0025671Y0142700D01*
X0025671Y0142961D02*
X0027759Y0144006D01*
X0027759Y0141395D02*
X0023059Y0141395D01*
X0023059Y0142700D01*
X0023061Y0142771D01*
X0023067Y0142841D01*
X0023076Y0142911D01*
X0023090Y0142981D01*
X0023107Y0143049D01*
X0023127Y0143117D01*
X0023152Y0143183D01*
X0023180Y0143248D01*
X0023211Y0143312D01*
X0023246Y0143373D01*
X0023284Y0143433D01*
X0023325Y0143490D01*
X0023370Y0143545D01*
X0023417Y0143598D01*
X0023467Y0143648D01*
X0023520Y0143695D01*
X0023575Y0143740D01*
X0023632Y0143781D01*
X0023692Y0143819D01*
X0023753Y0143854D01*
X0023817Y0143885D01*
X0023882Y0143913D01*
X0023948Y0143938D01*
X0024016Y0143958D01*
X0024084Y0143975D01*
X0024154Y0143989D01*
X0024224Y0143998D01*
X0024294Y0144004D01*
X0024365Y0144006D01*
X0024436Y0144004D01*
X0024506Y0143998D01*
X0024576Y0143989D01*
X0024646Y0143975D01*
X0024714Y0143958D01*
X0024782Y0143938D01*
X0024848Y0143913D01*
X0024913Y0143885D01*
X0024977Y0143854D01*
X0025038Y0143819D01*
X0025098Y0143781D01*
X0025155Y0143740D01*
X0025210Y0143695D01*
X0025263Y0143648D01*
X0025313Y0143598D01*
X0025360Y0143545D01*
X0025405Y0143490D01*
X0025446Y0143433D01*
X0025484Y0143373D01*
X0025519Y0143312D01*
X0025550Y0143248D01*
X0025578Y0143183D01*
X0025603Y0143117D01*
X0025623Y0143049D01*
X0025640Y0142981D01*
X0025654Y0142911D01*
X0025663Y0142841D01*
X0025669Y0142771D01*
X0025671Y0142700D01*
X0025148Y0131690D02*
X0025148Y0129601D01*
X0023059Y0129601D02*
X0027759Y0129601D01*
X0027759Y0127214D02*
X0027759Y0126169D01*
X0027759Y0126691D02*
X0023059Y0126691D01*
X0023059Y0126169D02*
X0023059Y0127214D01*
X0023059Y0129601D02*
X0023059Y0131690D01*
X0027759Y0124298D02*
X0027759Y0122209D01*
X0023059Y0122209D01*
X0023059Y0118572D02*
X0023059Y0117266D01*
X0027759Y0117266D01*
X0025671Y0117266D02*
X0025671Y0118572D01*
X0025669Y0118643D01*
X0025663Y0118713D01*
X0025654Y0118783D01*
X0025640Y0118853D01*
X0025623Y0118921D01*
X0025603Y0118989D01*
X0025578Y0119055D01*
X0025550Y0119120D01*
X0025519Y0119184D01*
X0025484Y0119245D01*
X0025446Y0119305D01*
X0025405Y0119362D01*
X0025360Y0119417D01*
X0025313Y0119470D01*
X0025263Y0119520D01*
X0025210Y0119567D01*
X0025155Y0119612D01*
X0025098Y0119653D01*
X0025038Y0119691D01*
X0024977Y0119726D01*
X0024913Y0119757D01*
X0024848Y0119785D01*
X0024782Y0119810D01*
X0024714Y0119830D01*
X0024646Y0119847D01*
X0024576Y0119861D01*
X0024506Y0119870D01*
X0024436Y0119876D01*
X0024365Y0119878D01*
X0024294Y0119876D01*
X0024224Y0119870D01*
X0024154Y0119861D01*
X0024084Y0119847D01*
X0024016Y0119830D01*
X0023948Y0119810D01*
X0023882Y0119785D01*
X0023817Y0119757D01*
X0023753Y0119726D01*
X0023692Y0119691D01*
X0023632Y0119653D01*
X0023575Y0119612D01*
X0023520Y0119567D01*
X0023467Y0119520D01*
X0023417Y0119470D01*
X0023370Y0119417D01*
X0023325Y0119362D01*
X0023284Y0119305D01*
X0023246Y0119245D01*
X0023211Y0119184D01*
X0023180Y0119120D01*
X0023152Y0119055D01*
X0023127Y0118989D01*
X0023107Y0118921D01*
X0023090Y0118853D01*
X0023076Y0118783D01*
X0023067Y0118713D01*
X0023061Y0118643D01*
X0023059Y0118572D01*
X0023059Y0114314D02*
X0027759Y0114314D01*
X0025671Y0112747D02*
X0023059Y0114314D01*
X0025671Y0112747D02*
X0023059Y0111181D01*
X0027759Y0111181D01*
X0027759Y0108770D02*
X0023059Y0107203D01*
X0027759Y0105637D01*
X0026584Y0106028D02*
X0026584Y0108378D01*
X0027759Y0100538D02*
X0023059Y0100538D01*
X0025671Y0098971D01*
X0023059Y0097405D01*
X0027759Y0097405D01*
X0027759Y0095066D02*
X0027759Y0092977D01*
X0023059Y0092977D01*
X0023059Y0090590D02*
X0023059Y0089545D01*
X0023059Y0090067D02*
X0027759Y0090067D01*
X0027759Y0089545D02*
X0027759Y0090590D01*
X0025148Y0087674D02*
X0025148Y0085585D01*
X0023059Y0085585D02*
X0027759Y0085585D01*
X0026454Y0082973D02*
X0024365Y0082973D01*
X0024294Y0082971D01*
X0024224Y0082965D01*
X0024154Y0082956D01*
X0024084Y0082942D01*
X0024016Y0082925D01*
X0023948Y0082905D01*
X0023882Y0082880D01*
X0023817Y0082852D01*
X0023753Y0082821D01*
X0023692Y0082786D01*
X0023632Y0082748D01*
X0023575Y0082707D01*
X0023520Y0082662D01*
X0023467Y0082615D01*
X0023417Y0082565D01*
X0023370Y0082512D01*
X0023325Y0082457D01*
X0023284Y0082400D01*
X0023246Y0082340D01*
X0023211Y0082279D01*
X0023180Y0082215D01*
X0023152Y0082150D01*
X0023127Y0082084D01*
X0023107Y0082016D01*
X0023090Y0081948D01*
X0023076Y0081878D01*
X0023067Y0081808D01*
X0023061Y0081738D01*
X0023059Y0081667D01*
X0023061Y0081596D01*
X0023067Y0081526D01*
X0023076Y0081456D01*
X0023090Y0081386D01*
X0023107Y0081318D01*
X0023127Y0081250D01*
X0023152Y0081184D01*
X0023180Y0081119D01*
X0023211Y0081055D01*
X0023246Y0080994D01*
X0023284Y0080934D01*
X0023325Y0080877D01*
X0023370Y0080822D01*
X0023417Y0080769D01*
X0023467Y0080719D01*
X0023520Y0080672D01*
X0023575Y0080627D01*
X0023632Y0080586D01*
X0023692Y0080548D01*
X0023753Y0080513D01*
X0023817Y0080482D01*
X0023882Y0080454D01*
X0023948Y0080429D01*
X0024016Y0080409D01*
X0024084Y0080392D01*
X0024154Y0080378D01*
X0024224Y0080369D01*
X0024294Y0080363D01*
X0024365Y0080361D01*
X0024365Y0080362D02*
X0026454Y0080362D01*
X0026454Y0080361D02*
X0026525Y0080363D01*
X0026595Y0080369D01*
X0026665Y0080378D01*
X0026735Y0080392D01*
X0026803Y0080409D01*
X0026871Y0080429D01*
X0026937Y0080454D01*
X0027002Y0080482D01*
X0027066Y0080513D01*
X0027127Y0080548D01*
X0027187Y0080586D01*
X0027244Y0080627D01*
X0027299Y0080672D01*
X0027352Y0080719D01*
X0027402Y0080769D01*
X0027449Y0080822D01*
X0027494Y0080877D01*
X0027535Y0080934D01*
X0027573Y0080994D01*
X0027608Y0081055D01*
X0027639Y0081119D01*
X0027667Y0081184D01*
X0027692Y0081250D01*
X0027712Y0081318D01*
X0027729Y0081386D01*
X0027743Y0081456D01*
X0027752Y0081526D01*
X0027758Y0081596D01*
X0027760Y0081667D01*
X0027758Y0081738D01*
X0027752Y0081808D01*
X0027743Y0081878D01*
X0027729Y0081948D01*
X0027712Y0082016D01*
X0027692Y0082084D01*
X0027667Y0082150D01*
X0027639Y0082215D01*
X0027608Y0082279D01*
X0027573Y0082340D01*
X0027535Y0082400D01*
X0027494Y0082457D01*
X0027449Y0082512D01*
X0027402Y0082565D01*
X0027352Y0082615D01*
X0027299Y0082662D01*
X0027244Y0082707D01*
X0027187Y0082748D01*
X0027127Y0082786D01*
X0027066Y0082821D01*
X0027002Y0082852D01*
X0026937Y0082880D01*
X0026871Y0082905D01*
X0026803Y0082925D01*
X0026735Y0082942D01*
X0026665Y0082956D01*
X0026595Y0082965D01*
X0026525Y0082971D01*
X0026454Y0082973D01*
X0023059Y0085585D02*
X0023059Y0087674D01*
X0023059Y0078101D02*
X0027759Y0075490D01*
X0027759Y0078101D01*
X0027759Y0073562D02*
X0027759Y0071473D01*
X0023059Y0071473D01*
X0023059Y0073562D01*
X0023059Y0075490D02*
X0023059Y0078101D01*
X0025148Y0073039D02*
X0025148Y0071473D01*
X0027759Y0069086D02*
X0027759Y0068041D01*
X0027759Y0068563D02*
X0023059Y0068563D01*
X0023059Y0068041D02*
X0023059Y0069086D01*
X0023059Y0064812D02*
X0023059Y0063506D01*
X0027759Y0063506D01*
X0025671Y0063506D02*
X0025671Y0064812D01*
X0025669Y0064883D01*
X0025663Y0064953D01*
X0025654Y0065023D01*
X0025640Y0065093D01*
X0025623Y0065161D01*
X0025603Y0065229D01*
X0025578Y0065295D01*
X0025550Y0065360D01*
X0025519Y0065424D01*
X0025484Y0065485D01*
X0025446Y0065545D01*
X0025405Y0065602D01*
X0025360Y0065657D01*
X0025313Y0065710D01*
X0025263Y0065760D01*
X0025210Y0065807D01*
X0025155Y0065852D01*
X0025098Y0065893D01*
X0025038Y0065931D01*
X0024977Y0065966D01*
X0024913Y0065997D01*
X0024848Y0066025D01*
X0024782Y0066050D01*
X0024714Y0066070D01*
X0024646Y0066087D01*
X0024576Y0066101D01*
X0024506Y0066110D01*
X0024436Y0066116D01*
X0024365Y0066118D01*
X0024294Y0066116D01*
X0024224Y0066110D01*
X0024154Y0066101D01*
X0024084Y0066087D01*
X0024016Y0066070D01*
X0023948Y0066050D01*
X0023882Y0066025D01*
X0023817Y0065997D01*
X0023753Y0065966D01*
X0023692Y0065931D01*
X0023632Y0065893D01*
X0023575Y0065852D01*
X0023520Y0065807D01*
X0023467Y0065760D01*
X0023417Y0065710D01*
X0023370Y0065657D01*
X0023325Y0065602D01*
X0023284Y0065545D01*
X0023246Y0065485D01*
X0023211Y0065424D01*
X0023180Y0065360D01*
X0023152Y0065295D01*
X0023127Y0065229D01*
X0023107Y0065161D01*
X0023090Y0065093D01*
X0023076Y0065023D01*
X0023067Y0064953D01*
X0023061Y0064883D01*
X0023059Y0064812D01*
D11*
X0017929Y0027772D02*
X0017929Y0018717D01*
X0034465Y0018717D01*
X0067535Y0018717D01*
X0067535Y0028165D01*
X0067535Y0036039D02*
X0067535Y0045488D01*
X0018126Y0045488D01*
X0017929Y0045488D02*
X0017929Y0036433D01*
X0018717Y0058480D02*
X0018717Y0147850D01*
X0031315Y0147850D01*
X0031315Y0058480D01*
X0018717Y0058480D01*
X0087220Y0070685D02*
X0097063Y0067142D01*
X0128165Y0077378D02*
X0128165Y0138402D01*
X0147850Y0138402D01*
X0147850Y0077378D01*
X0128165Y0077378D01*
D12*
X0125793Y0057045D02*
X0113293Y0057045D01*
X0113293Y0050545D01*
X0125793Y0050545D01*
X0125793Y0057045D01*
X0122634Y0044602D02*
X0147634Y0044602D01*
X0147634Y0019602D01*
X0122634Y0019602D01*
X0122634Y0044602D01*
X0117634Y0044602D02*
X0117634Y0019602D01*
X0072634Y0019602D01*
X0072634Y0044602D01*
X0117634Y0044602D01*
X0094644Y0071482D02*
X0088144Y0071482D01*
X0088144Y0083982D01*
X0094644Y0083982D01*
X0094644Y0071482D01*
X0088352Y0064880D02*
X0088352Y0058380D01*
X0075852Y0058380D01*
X0075852Y0064880D01*
X0088352Y0064880D01*
X0088352Y0057006D02*
X0088352Y0050506D01*
X0075852Y0050506D01*
X0075852Y0057006D01*
X0088352Y0057006D01*
X0074179Y0064679D02*
X0074179Y0071179D01*
X0061679Y0071179D01*
X0061679Y0064679D01*
X0074179Y0064679D01*
X0073148Y0063549D02*
X0066648Y0063549D01*
X0066648Y0051049D01*
X0073148Y0051049D01*
X0073148Y0063549D01*
X0073541Y0073490D02*
X0067041Y0073490D01*
X0067041Y0085990D01*
X0073541Y0085990D01*
X0073541Y0073490D01*
X0065667Y0073490D02*
X0059167Y0073490D01*
X0059167Y0085990D01*
X0065667Y0085990D01*
X0065667Y0073490D01*
X0070144Y0091805D02*
X0070144Y0098305D01*
X0082644Y0098305D01*
X0082644Y0091805D01*
X0070144Y0091805D01*
X0079002Y0099325D02*
X0079002Y0105825D01*
X0091502Y0105825D01*
X0091502Y0099325D01*
X0079002Y0099325D01*
X0086876Y0098344D02*
X0086876Y0091844D01*
X0099376Y0091844D01*
X0099376Y0098344D01*
X0086876Y0098344D01*
X0095587Y0102161D02*
X0095587Y0127161D01*
X0120587Y0127161D01*
X0120587Y0102161D01*
X0095587Y0102161D01*
D13*
X0093613Y0107599D02*
X0093613Y0109453D01*
X0093613Y0108526D02*
X0090276Y0108526D01*
X0091018Y0107599D01*
X0089294Y0108353D02*
X0089294Y0109094D01*
X0089295Y0108353D02*
X0089293Y0108300D01*
X0089287Y0108247D01*
X0089278Y0108195D01*
X0089265Y0108144D01*
X0089248Y0108094D01*
X0089228Y0108045D01*
X0089204Y0107997D01*
X0089177Y0107952D01*
X0089147Y0107908D01*
X0089114Y0107867D01*
X0089078Y0107828D01*
X0089039Y0107792D01*
X0088998Y0107759D01*
X0088954Y0107729D01*
X0088909Y0107702D01*
X0088861Y0107678D01*
X0088812Y0107658D01*
X0088762Y0107641D01*
X0088711Y0107628D01*
X0088659Y0107619D01*
X0088606Y0107613D01*
X0088553Y0107611D01*
X0086699Y0107611D01*
X0086646Y0107613D01*
X0086593Y0107619D01*
X0086541Y0107628D01*
X0086490Y0107641D01*
X0086440Y0107658D01*
X0086391Y0107678D01*
X0086343Y0107702D01*
X0086298Y0107729D01*
X0086254Y0107759D01*
X0086213Y0107792D01*
X0086174Y0107828D01*
X0086138Y0107867D01*
X0086105Y0107908D01*
X0086075Y0107952D01*
X0086048Y0107997D01*
X0086024Y0108045D01*
X0086004Y0108094D01*
X0085987Y0108144D01*
X0085974Y0108195D01*
X0085965Y0108247D01*
X0085959Y0108300D01*
X0085957Y0108353D01*
X0085957Y0109094D01*
X0084780Y0108780D02*
X0083780Y0107780D01*
X0075780Y0107780D01*
X0074780Y0108780D01*
X0073780Y0107780D01*
X0065780Y0107780D01*
X0064780Y0108780D01*
X0063780Y0107780D01*
X0055780Y0107780D01*
X0054780Y0108780D01*
X0053780Y0107780D01*
X0045780Y0107780D01*
X0044780Y0108780D01*
X0044780Y0120780D01*
X0045780Y0121780D01*
X0053780Y0121780D01*
X0054780Y0120780D01*
X0055780Y0121780D01*
X0063780Y0121780D01*
X0064780Y0120780D01*
X0065780Y0121780D01*
X0073780Y0121780D01*
X0074780Y0120780D01*
X0075780Y0121780D01*
X0083780Y0121780D01*
X0084780Y0120780D01*
X0084780Y0108780D01*
X0085957Y0110707D02*
X0085957Y0112190D01*
X0085957Y0110707D02*
X0089294Y0110707D01*
X0087441Y0110707D02*
X0087441Y0112190D01*
X0090276Y0112069D02*
X0090278Y0112119D01*
X0090283Y0112169D01*
X0090292Y0112218D01*
X0090305Y0112266D01*
X0090321Y0112314D01*
X0090341Y0112360D01*
X0090364Y0112404D01*
X0090390Y0112447D01*
X0090419Y0112488D01*
X0090451Y0112526D01*
X0090485Y0112562D01*
X0090523Y0112596D01*
X0090562Y0112626D01*
X0090604Y0112654D01*
X0090648Y0112679D01*
X0090693Y0112700D01*
X0090740Y0112718D01*
X0091018Y0112811D02*
X0092872Y0111328D01*
X0093613Y0112069D02*
X0093611Y0112119D01*
X0093606Y0112169D01*
X0093597Y0112218D01*
X0093584Y0112266D01*
X0093568Y0112314D01*
X0093548Y0112360D01*
X0093525Y0112404D01*
X0093499Y0112447D01*
X0093470Y0112488D01*
X0093438Y0112526D01*
X0093404Y0112562D01*
X0093366Y0112596D01*
X0093327Y0112626D01*
X0093285Y0112654D01*
X0093241Y0112679D01*
X0093196Y0112700D01*
X0093149Y0112718D01*
X0093613Y0112069D02*
X0093611Y0112019D01*
X0093606Y0111969D01*
X0093597Y0111920D01*
X0093584Y0111872D01*
X0093568Y0111824D01*
X0093548Y0111778D01*
X0093525Y0111734D01*
X0093499Y0111691D01*
X0093470Y0111650D01*
X0093438Y0111612D01*
X0093404Y0111576D01*
X0093366Y0111542D01*
X0093327Y0111512D01*
X0093285Y0111484D01*
X0093241Y0111459D01*
X0093196Y0111438D01*
X0093149Y0111420D01*
X0091945Y0112997D02*
X0091841Y0112995D01*
X0091737Y0112989D01*
X0091634Y0112979D01*
X0091531Y0112966D01*
X0091428Y0112948D01*
X0091327Y0112927D01*
X0091226Y0112901D01*
X0091126Y0112872D01*
X0091027Y0112839D01*
X0090930Y0112803D01*
X0090834Y0112763D01*
X0090740Y0112719D01*
X0090276Y0112069D02*
X0090278Y0112019D01*
X0090283Y0111969D01*
X0090292Y0111920D01*
X0090305Y0111872D01*
X0090321Y0111824D01*
X0090341Y0111778D01*
X0090364Y0111734D01*
X0090390Y0111691D01*
X0090419Y0111650D01*
X0090451Y0111612D01*
X0090485Y0111576D01*
X0090523Y0111542D01*
X0090562Y0111512D01*
X0090604Y0111484D01*
X0090648Y0111459D01*
X0090693Y0111438D01*
X0090740Y0111420D01*
X0091945Y0112997D02*
X0092049Y0112995D01*
X0092153Y0112989D01*
X0092256Y0112979D01*
X0092359Y0112966D01*
X0092462Y0112948D01*
X0092563Y0112927D01*
X0092664Y0112901D01*
X0092764Y0112872D01*
X0092863Y0112839D01*
X0092960Y0112803D01*
X0093056Y0112763D01*
X0093150Y0112719D01*
X0091945Y0111142D02*
X0091841Y0111144D01*
X0091737Y0111150D01*
X0091634Y0111160D01*
X0091531Y0111173D01*
X0091428Y0111191D01*
X0091327Y0111212D01*
X0091226Y0111238D01*
X0091126Y0111267D01*
X0091027Y0111300D01*
X0090930Y0111336D01*
X0090834Y0111376D01*
X0090740Y0111420D01*
X0091945Y0111143D02*
X0092049Y0111145D01*
X0092153Y0111151D01*
X0092256Y0111161D01*
X0092359Y0111174D01*
X0092462Y0111192D01*
X0092563Y0111213D01*
X0092664Y0111239D01*
X0092764Y0111268D01*
X0092863Y0111301D01*
X0092960Y0111337D01*
X0093056Y0111377D01*
X0093150Y0111421D01*
X0093613Y0114780D02*
X0093613Y0115707D01*
X0093611Y0115753D01*
X0093605Y0115799D01*
X0093596Y0115843D01*
X0093583Y0115888D01*
X0093566Y0115930D01*
X0093546Y0115972D01*
X0093522Y0116011D01*
X0093496Y0116049D01*
X0093466Y0116084D01*
X0093434Y0116116D01*
X0093399Y0116146D01*
X0093361Y0116172D01*
X0093322Y0116196D01*
X0093280Y0116216D01*
X0093238Y0116233D01*
X0093193Y0116246D01*
X0093149Y0116255D01*
X0093103Y0116261D01*
X0093057Y0116263D01*
X0091945Y0116263D01*
X0091899Y0116261D01*
X0091853Y0116255D01*
X0091809Y0116246D01*
X0091764Y0116233D01*
X0091722Y0116216D01*
X0091680Y0116196D01*
X0091641Y0116172D01*
X0091604Y0116146D01*
X0091568Y0116116D01*
X0091536Y0116084D01*
X0091506Y0116049D01*
X0091480Y0116011D01*
X0091456Y0115972D01*
X0091436Y0115930D01*
X0091419Y0115888D01*
X0091406Y0115843D01*
X0091397Y0115799D01*
X0091391Y0115753D01*
X0091389Y0115707D01*
X0091389Y0114780D01*
X0094726Y0114780D01*
X0093613Y0118003D02*
X0090276Y0118003D01*
X0090276Y0119486D01*
X0091759Y0119486D02*
X0091759Y0118003D01*
X0078317Y0101607D02*
X0076834Y0100495D01*
X0077483Y0100958D02*
X0078317Y0099383D01*
X0076834Y0099383D02*
X0076834Y0102720D01*
X0073162Y0101051D02*
X0073164Y0100947D01*
X0073170Y0100843D01*
X0073180Y0100740D01*
X0073193Y0100637D01*
X0073211Y0100534D01*
X0073232Y0100433D01*
X0073258Y0100332D01*
X0073287Y0100232D01*
X0073320Y0100133D01*
X0073356Y0100036D01*
X0073396Y0099940D01*
X0073440Y0099846D01*
X0073348Y0100124D02*
X0074831Y0101978D01*
X0074089Y0102720D02*
X0074039Y0102718D01*
X0073989Y0102713D01*
X0073940Y0102704D01*
X0073892Y0102691D01*
X0073844Y0102675D01*
X0073798Y0102655D01*
X0073754Y0102632D01*
X0073711Y0102606D01*
X0073670Y0102577D01*
X0073632Y0102545D01*
X0073596Y0102511D01*
X0073562Y0102473D01*
X0073532Y0102434D01*
X0073504Y0102392D01*
X0073479Y0102348D01*
X0073458Y0102303D01*
X0073440Y0102256D01*
X0074089Y0102720D02*
X0074139Y0102718D01*
X0074189Y0102713D01*
X0074238Y0102704D01*
X0074286Y0102691D01*
X0074334Y0102675D01*
X0074380Y0102655D01*
X0074424Y0102632D01*
X0074467Y0102606D01*
X0074508Y0102577D01*
X0074546Y0102545D01*
X0074582Y0102511D01*
X0074616Y0102473D01*
X0074646Y0102434D01*
X0074674Y0102392D01*
X0074699Y0102348D01*
X0074720Y0102303D01*
X0074738Y0102256D01*
X0074983Y0103690D02*
X0073129Y0103690D01*
X0074056Y0103690D02*
X0074056Y0107027D01*
X0073129Y0106285D01*
X0070546Y0107027D02*
X0070605Y0107025D01*
X0070665Y0107019D01*
X0070723Y0107010D01*
X0070781Y0106997D01*
X0070838Y0106980D01*
X0070894Y0106959D01*
X0070948Y0106935D01*
X0071001Y0106908D01*
X0071052Y0106877D01*
X0071100Y0106843D01*
X0071147Y0106806D01*
X0071191Y0106766D01*
X0071232Y0106723D01*
X0071271Y0106678D01*
X0071306Y0106630D01*
X0071339Y0106581D01*
X0071368Y0106529D01*
X0071394Y0106475D01*
X0071416Y0106420D01*
X0071435Y0106364D01*
X0071450Y0106306D01*
X0071461Y0106248D01*
X0071469Y0106189D01*
X0071473Y0106130D01*
X0071473Y0106070D01*
X0071469Y0106011D01*
X0071461Y0105952D01*
X0071450Y0105894D01*
X0071435Y0105836D01*
X0071416Y0105780D01*
X0071394Y0105725D01*
X0071368Y0105671D01*
X0071339Y0105619D01*
X0071306Y0105570D01*
X0071271Y0105522D01*
X0071232Y0105477D01*
X0071191Y0105434D01*
X0071147Y0105394D01*
X0071100Y0105357D01*
X0071052Y0105323D01*
X0071001Y0105292D01*
X0070948Y0105265D01*
X0070894Y0105241D01*
X0070838Y0105220D01*
X0070781Y0105203D01*
X0070723Y0105190D01*
X0070665Y0105181D01*
X0070605Y0105175D01*
X0070546Y0105173D01*
X0069619Y0105173D01*
X0070731Y0105173D02*
X0071473Y0103690D01*
X0070546Y0102720D02*
X0070546Y0099383D01*
X0069619Y0099383D02*
X0071473Y0099383D01*
X0074738Y0099846D02*
X0074782Y0099940D01*
X0074822Y0100036D01*
X0074858Y0100133D01*
X0074891Y0100232D01*
X0074920Y0100332D01*
X0074946Y0100433D01*
X0074967Y0100534D01*
X0074985Y0100637D01*
X0074998Y0100740D01*
X0075008Y0100843D01*
X0075014Y0100947D01*
X0075016Y0101051D01*
X0073162Y0101051D02*
X0073164Y0101155D01*
X0073170Y0101259D01*
X0073180Y0101362D01*
X0073193Y0101465D01*
X0073211Y0101568D01*
X0073232Y0101669D01*
X0073258Y0101770D01*
X0073287Y0101870D01*
X0073320Y0101969D01*
X0073356Y0102066D01*
X0073396Y0102162D01*
X0073440Y0102256D01*
X0074738Y0102256D02*
X0074782Y0102162D01*
X0074822Y0102066D01*
X0074858Y0101969D01*
X0074891Y0101870D01*
X0074920Y0101770D01*
X0074946Y0101669D01*
X0074967Y0101568D01*
X0074985Y0101465D01*
X0074998Y0101362D01*
X0075008Y0101259D01*
X0075014Y0101155D01*
X0075016Y0101051D01*
X0074089Y0099383D02*
X0074039Y0099385D01*
X0073989Y0099390D01*
X0073940Y0099399D01*
X0073892Y0099412D01*
X0073844Y0099428D01*
X0073798Y0099448D01*
X0073754Y0099471D01*
X0073711Y0099497D01*
X0073670Y0099526D01*
X0073632Y0099558D01*
X0073596Y0099592D01*
X0073562Y0099630D01*
X0073532Y0099669D01*
X0073504Y0099711D01*
X0073479Y0099755D01*
X0073458Y0099800D01*
X0073440Y0099847D01*
X0074089Y0099383D02*
X0074139Y0099385D01*
X0074189Y0099390D01*
X0074238Y0099399D01*
X0074286Y0099412D01*
X0074334Y0099428D01*
X0074380Y0099448D01*
X0074424Y0099471D01*
X0074467Y0099497D01*
X0074508Y0099526D01*
X0074546Y0099558D01*
X0074582Y0099592D01*
X0074616Y0099630D01*
X0074646Y0099669D01*
X0074674Y0099711D01*
X0074699Y0099755D01*
X0074720Y0099800D01*
X0074738Y0099847D01*
X0070546Y0102720D02*
X0069619Y0101978D01*
X0069619Y0103690D02*
X0069619Y0107027D01*
X0070546Y0107027D01*
X0066945Y0101348D02*
X0066945Y0099865D01*
X0065461Y0099865D02*
X0065461Y0101348D01*
X0065461Y0099865D02*
X0068798Y0099865D01*
X0068798Y0097980D02*
X0066574Y0097980D01*
X0066574Y0096497D02*
X0068242Y0096497D01*
X0068288Y0096499D01*
X0068334Y0096505D01*
X0068378Y0096514D01*
X0068423Y0096527D01*
X0068465Y0096544D01*
X0068507Y0096564D01*
X0068546Y0096588D01*
X0068584Y0096614D01*
X0068619Y0096644D01*
X0068651Y0096676D01*
X0068681Y0096712D01*
X0068707Y0096749D01*
X0068731Y0096788D01*
X0068751Y0096830D01*
X0068768Y0096872D01*
X0068781Y0096917D01*
X0068790Y0096961D01*
X0068796Y0097007D01*
X0068798Y0097053D01*
X0068798Y0097980D01*
X0068798Y0094741D02*
X0068798Y0092887D01*
X0068798Y0093814D02*
X0065461Y0093814D01*
X0066203Y0092887D01*
X0064885Y0092191D02*
X0063402Y0092191D01*
X0064143Y0092748D02*
X0064143Y0090894D01*
X0061548Y0091635D01*
X0061548Y0089409D02*
X0061548Y0088668D01*
X0061550Y0088615D01*
X0061556Y0088562D01*
X0061565Y0088510D01*
X0061578Y0088459D01*
X0061595Y0088409D01*
X0061615Y0088360D01*
X0061639Y0088312D01*
X0061666Y0088267D01*
X0061696Y0088223D01*
X0061729Y0088182D01*
X0061765Y0088143D01*
X0061804Y0088107D01*
X0061845Y0088074D01*
X0061889Y0088044D01*
X0061934Y0088017D01*
X0061982Y0087993D01*
X0062031Y0087973D01*
X0062081Y0087956D01*
X0062132Y0087943D01*
X0062184Y0087934D01*
X0062237Y0087928D01*
X0062290Y0087926D01*
X0064143Y0087926D01*
X0064196Y0087928D01*
X0064249Y0087934D01*
X0064301Y0087943D01*
X0064352Y0087956D01*
X0064402Y0087973D01*
X0064451Y0087993D01*
X0064499Y0088017D01*
X0064544Y0088044D01*
X0064588Y0088074D01*
X0064629Y0088107D01*
X0064668Y0088143D01*
X0064704Y0088182D01*
X0064737Y0088223D01*
X0064767Y0088267D01*
X0064794Y0088312D01*
X0064818Y0088360D01*
X0064838Y0088409D01*
X0064855Y0088459D01*
X0064868Y0088510D01*
X0064877Y0088562D01*
X0064883Y0088615D01*
X0064885Y0088668D01*
X0064885Y0089409D01*
X0066203Y0089594D02*
X0068057Y0088111D01*
X0068799Y0088853D02*
X0068797Y0088903D01*
X0068792Y0088953D01*
X0068783Y0089002D01*
X0068770Y0089050D01*
X0068754Y0089098D01*
X0068734Y0089144D01*
X0068711Y0089188D01*
X0068685Y0089231D01*
X0068656Y0089272D01*
X0068624Y0089310D01*
X0068590Y0089346D01*
X0068552Y0089380D01*
X0068513Y0089410D01*
X0068471Y0089438D01*
X0068427Y0089463D01*
X0068382Y0089484D01*
X0068335Y0089502D01*
X0068798Y0088853D02*
X0068796Y0088803D01*
X0068791Y0088753D01*
X0068782Y0088704D01*
X0068769Y0088656D01*
X0068753Y0088608D01*
X0068733Y0088562D01*
X0068710Y0088518D01*
X0068684Y0088475D01*
X0068655Y0088434D01*
X0068623Y0088396D01*
X0068589Y0088360D01*
X0068551Y0088326D01*
X0068512Y0088296D01*
X0068470Y0088268D01*
X0068426Y0088243D01*
X0068381Y0088222D01*
X0068334Y0088204D01*
X0067130Y0089780D02*
X0067026Y0089778D01*
X0066922Y0089772D01*
X0066819Y0089762D01*
X0066716Y0089749D01*
X0066613Y0089731D01*
X0066512Y0089710D01*
X0066411Y0089684D01*
X0066311Y0089655D01*
X0066212Y0089622D01*
X0066115Y0089586D01*
X0066019Y0089546D01*
X0065925Y0089502D01*
X0065878Y0089484D01*
X0065833Y0089463D01*
X0065789Y0089438D01*
X0065747Y0089410D01*
X0065708Y0089380D01*
X0065670Y0089346D01*
X0065636Y0089310D01*
X0065604Y0089272D01*
X0065575Y0089231D01*
X0065549Y0089188D01*
X0065526Y0089144D01*
X0065506Y0089098D01*
X0065490Y0089050D01*
X0065477Y0089002D01*
X0065468Y0088953D01*
X0065463Y0088903D01*
X0065461Y0088853D01*
X0065463Y0088803D01*
X0065468Y0088753D01*
X0065477Y0088704D01*
X0065490Y0088656D01*
X0065506Y0088608D01*
X0065526Y0088562D01*
X0065549Y0088518D01*
X0065575Y0088475D01*
X0065604Y0088434D01*
X0065636Y0088396D01*
X0065670Y0088360D01*
X0065708Y0088326D01*
X0065747Y0088296D01*
X0065789Y0088268D01*
X0065833Y0088243D01*
X0065878Y0088222D01*
X0065925Y0088204D01*
X0067130Y0089780D02*
X0067234Y0089778D01*
X0067338Y0089772D01*
X0067441Y0089762D01*
X0067544Y0089749D01*
X0067647Y0089731D01*
X0067748Y0089710D01*
X0067849Y0089684D01*
X0067949Y0089655D01*
X0068048Y0089622D01*
X0068145Y0089586D01*
X0068241Y0089546D01*
X0068335Y0089502D01*
X0067130Y0087926D02*
X0067026Y0087928D01*
X0066922Y0087934D01*
X0066819Y0087944D01*
X0066716Y0087957D01*
X0066613Y0087975D01*
X0066512Y0087996D01*
X0066411Y0088022D01*
X0066311Y0088051D01*
X0066212Y0088084D01*
X0066115Y0088120D01*
X0066019Y0088160D01*
X0065925Y0088204D01*
X0067130Y0087926D02*
X0067234Y0087928D01*
X0067338Y0087934D01*
X0067441Y0087944D01*
X0067544Y0087957D01*
X0067647Y0087975D01*
X0067748Y0087996D01*
X0067849Y0088022D01*
X0067949Y0088051D01*
X0068048Y0088084D01*
X0068145Y0088120D01*
X0068241Y0088160D01*
X0068335Y0088204D01*
X0068613Y0091241D02*
X0068613Y0091426D01*
X0068798Y0091426D01*
X0068798Y0091241D01*
X0068613Y0091241D01*
X0074464Y0084623D02*
X0074464Y0072023D01*
X0065255Y0061440D02*
X0061918Y0061440D01*
X0061918Y0062923D01*
X0063401Y0062923D02*
X0063401Y0061440D01*
X0063587Y0059555D02*
X0065255Y0059555D01*
X0065255Y0058072D02*
X0063030Y0058072D01*
X0063030Y0058999D01*
X0063031Y0058999D02*
X0063033Y0059045D01*
X0063039Y0059091D01*
X0063048Y0059135D01*
X0063061Y0059180D01*
X0063078Y0059222D01*
X0063098Y0059264D01*
X0063122Y0059303D01*
X0063148Y0059341D01*
X0063178Y0059376D01*
X0063210Y0059408D01*
X0063246Y0059438D01*
X0063283Y0059464D01*
X0063322Y0059488D01*
X0063364Y0059508D01*
X0063406Y0059525D01*
X0063451Y0059538D01*
X0063495Y0059547D01*
X0063541Y0059553D01*
X0063587Y0059555D01*
X0064328Y0056315D02*
X0064387Y0056313D01*
X0064447Y0056307D01*
X0064505Y0056298D01*
X0064563Y0056285D01*
X0064620Y0056268D01*
X0064676Y0056247D01*
X0064730Y0056223D01*
X0064783Y0056196D01*
X0064834Y0056165D01*
X0064882Y0056131D01*
X0064929Y0056094D01*
X0064973Y0056054D01*
X0065014Y0056011D01*
X0065053Y0055966D01*
X0065088Y0055918D01*
X0065121Y0055869D01*
X0065150Y0055817D01*
X0065176Y0055763D01*
X0065198Y0055708D01*
X0065217Y0055652D01*
X0065232Y0055594D01*
X0065243Y0055536D01*
X0065251Y0055477D01*
X0065255Y0055418D01*
X0065255Y0055358D01*
X0065251Y0055299D01*
X0065243Y0055240D01*
X0065232Y0055182D01*
X0065217Y0055124D01*
X0065198Y0055068D01*
X0065176Y0055013D01*
X0065150Y0054959D01*
X0065121Y0054907D01*
X0065088Y0054858D01*
X0065053Y0054810D01*
X0065014Y0054765D01*
X0064973Y0054722D01*
X0064929Y0054682D01*
X0064882Y0054645D01*
X0064834Y0054611D01*
X0064783Y0054580D01*
X0064730Y0054553D01*
X0064676Y0054529D01*
X0064620Y0054508D01*
X0064563Y0054491D01*
X0064505Y0054478D01*
X0064447Y0054469D01*
X0064387Y0054463D01*
X0064328Y0054461D01*
X0064269Y0054463D01*
X0064209Y0054469D01*
X0064151Y0054478D01*
X0064093Y0054491D01*
X0064036Y0054508D01*
X0063980Y0054529D01*
X0063926Y0054553D01*
X0063873Y0054580D01*
X0063822Y0054611D01*
X0063774Y0054645D01*
X0063727Y0054682D01*
X0063683Y0054722D01*
X0063642Y0054765D01*
X0063603Y0054810D01*
X0063568Y0054858D01*
X0063535Y0054907D01*
X0063506Y0054959D01*
X0063480Y0055013D01*
X0063458Y0055068D01*
X0063439Y0055124D01*
X0063424Y0055182D01*
X0063413Y0055240D01*
X0063405Y0055299D01*
X0063401Y0055358D01*
X0063401Y0055418D01*
X0063405Y0055477D01*
X0063413Y0055536D01*
X0063424Y0055594D01*
X0063439Y0055652D01*
X0063458Y0055708D01*
X0063480Y0055763D01*
X0063506Y0055817D01*
X0063535Y0055869D01*
X0063568Y0055918D01*
X0063603Y0055966D01*
X0063642Y0056011D01*
X0063683Y0056054D01*
X0063727Y0056094D01*
X0063774Y0056131D01*
X0063822Y0056165D01*
X0063873Y0056196D01*
X0063926Y0056223D01*
X0063980Y0056247D01*
X0064036Y0056268D01*
X0064093Y0056285D01*
X0064151Y0056298D01*
X0064209Y0056307D01*
X0064269Y0056313D01*
X0064328Y0056315D01*
X0062660Y0056130D02*
X0062713Y0056128D01*
X0062766Y0056122D01*
X0062818Y0056113D01*
X0062869Y0056100D01*
X0062919Y0056083D01*
X0062968Y0056063D01*
X0063016Y0056039D01*
X0063061Y0056012D01*
X0063105Y0055982D01*
X0063146Y0055949D01*
X0063185Y0055913D01*
X0063221Y0055874D01*
X0063254Y0055833D01*
X0063284Y0055789D01*
X0063311Y0055744D01*
X0063335Y0055696D01*
X0063355Y0055647D01*
X0063372Y0055597D01*
X0063385Y0055546D01*
X0063394Y0055494D01*
X0063400Y0055441D01*
X0063402Y0055388D01*
X0063400Y0055335D01*
X0063394Y0055282D01*
X0063385Y0055230D01*
X0063372Y0055179D01*
X0063355Y0055129D01*
X0063335Y0055080D01*
X0063311Y0055032D01*
X0063284Y0054987D01*
X0063254Y0054943D01*
X0063221Y0054902D01*
X0063185Y0054863D01*
X0063146Y0054827D01*
X0063105Y0054794D01*
X0063061Y0054764D01*
X0063016Y0054737D01*
X0062968Y0054713D01*
X0062919Y0054693D01*
X0062869Y0054676D01*
X0062818Y0054663D01*
X0062766Y0054654D01*
X0062713Y0054648D01*
X0062660Y0054646D01*
X0062607Y0054648D01*
X0062554Y0054654D01*
X0062502Y0054663D01*
X0062451Y0054676D01*
X0062401Y0054693D01*
X0062352Y0054713D01*
X0062304Y0054737D01*
X0062259Y0054764D01*
X0062215Y0054794D01*
X0062174Y0054827D01*
X0062135Y0054863D01*
X0062099Y0054902D01*
X0062066Y0054943D01*
X0062036Y0054987D01*
X0062009Y0055032D01*
X0061985Y0055080D01*
X0061965Y0055129D01*
X0061948Y0055179D01*
X0061935Y0055230D01*
X0061926Y0055282D01*
X0061920Y0055335D01*
X0061918Y0055388D01*
X0061920Y0055441D01*
X0061926Y0055494D01*
X0061935Y0055546D01*
X0061948Y0055597D01*
X0061965Y0055647D01*
X0061985Y0055696D01*
X0062009Y0055744D01*
X0062036Y0055789D01*
X0062066Y0055833D01*
X0062099Y0055874D01*
X0062135Y0055913D01*
X0062174Y0055949D01*
X0062215Y0055982D01*
X0062259Y0056012D01*
X0062304Y0056039D01*
X0062352Y0056063D01*
X0062401Y0056083D01*
X0062451Y0056100D01*
X0062502Y0056113D01*
X0062554Y0056122D01*
X0062607Y0056128D01*
X0062660Y0056130D01*
X0064143Y0052772D02*
X0064328Y0052772D01*
X0064143Y0052772D02*
X0064090Y0052770D01*
X0064037Y0052764D01*
X0063985Y0052755D01*
X0063934Y0052742D01*
X0063884Y0052725D01*
X0063835Y0052705D01*
X0063787Y0052681D01*
X0063742Y0052654D01*
X0063698Y0052624D01*
X0063657Y0052591D01*
X0063618Y0052555D01*
X0063582Y0052516D01*
X0063549Y0052475D01*
X0063519Y0052431D01*
X0063492Y0052386D01*
X0063468Y0052338D01*
X0063448Y0052289D01*
X0063431Y0052239D01*
X0063418Y0052188D01*
X0063409Y0052136D01*
X0063403Y0052083D01*
X0063401Y0052030D01*
X0063401Y0050918D01*
X0064328Y0050918D01*
X0064387Y0050920D01*
X0064447Y0050926D01*
X0064505Y0050935D01*
X0064563Y0050948D01*
X0064620Y0050965D01*
X0064676Y0050986D01*
X0064730Y0051010D01*
X0064783Y0051037D01*
X0064834Y0051068D01*
X0064882Y0051102D01*
X0064929Y0051139D01*
X0064973Y0051179D01*
X0065014Y0051222D01*
X0065053Y0051267D01*
X0065088Y0051315D01*
X0065121Y0051364D01*
X0065150Y0051416D01*
X0065176Y0051470D01*
X0065198Y0051525D01*
X0065217Y0051581D01*
X0065232Y0051639D01*
X0065243Y0051697D01*
X0065251Y0051756D01*
X0065255Y0051815D01*
X0065255Y0051875D01*
X0065251Y0051934D01*
X0065243Y0051993D01*
X0065232Y0052051D01*
X0065217Y0052109D01*
X0065198Y0052165D01*
X0065176Y0052220D01*
X0065150Y0052274D01*
X0065121Y0052326D01*
X0065088Y0052375D01*
X0065053Y0052423D01*
X0065014Y0052468D01*
X0064973Y0052511D01*
X0064929Y0052551D01*
X0064882Y0052588D01*
X0064834Y0052622D01*
X0064783Y0052653D01*
X0064730Y0052680D01*
X0064676Y0052704D01*
X0064620Y0052725D01*
X0064563Y0052742D01*
X0064505Y0052755D01*
X0064447Y0052764D01*
X0064387Y0052770D01*
X0064328Y0052772D01*
X0063401Y0050918D02*
X0063326Y0050920D01*
X0063251Y0050926D01*
X0063176Y0050935D01*
X0063102Y0050948D01*
X0063029Y0050965D01*
X0062957Y0050986D01*
X0062886Y0051010D01*
X0062816Y0051038D01*
X0062748Y0051070D01*
X0062681Y0051104D01*
X0062617Y0051142D01*
X0062554Y0051184D01*
X0062493Y0051228D01*
X0062435Y0051276D01*
X0062379Y0051326D01*
X0062326Y0051379D01*
X0062276Y0051435D01*
X0062228Y0051493D01*
X0062184Y0051554D01*
X0062142Y0051617D01*
X0062104Y0051681D01*
X0062070Y0051748D01*
X0062038Y0051816D01*
X0062010Y0051886D01*
X0061986Y0051957D01*
X0061965Y0052029D01*
X0061948Y0052102D01*
X0061935Y0052176D01*
X0061926Y0052251D01*
X0061920Y0052326D01*
X0061918Y0052401D01*
X0067454Y0049159D02*
X0067454Y0047305D01*
X0067453Y0047305D02*
X0067455Y0047252D01*
X0067461Y0047199D01*
X0067470Y0047147D01*
X0067483Y0047096D01*
X0067500Y0047046D01*
X0067520Y0046997D01*
X0067544Y0046949D01*
X0067571Y0046904D01*
X0067601Y0046860D01*
X0067634Y0046819D01*
X0067670Y0046780D01*
X0067709Y0046744D01*
X0067750Y0046711D01*
X0067794Y0046681D01*
X0067839Y0046654D01*
X0067887Y0046630D01*
X0067936Y0046610D01*
X0067986Y0046593D01*
X0068037Y0046580D01*
X0068089Y0046571D01*
X0068142Y0046565D01*
X0068195Y0046563D01*
X0068195Y0046564D02*
X0068937Y0046564D01*
X0070421Y0046564D02*
X0072275Y0046564D01*
X0071348Y0046564D02*
X0071348Y0049901D01*
X0070421Y0049159D01*
X0068937Y0049901D02*
X0068195Y0049901D01*
X0068142Y0049899D01*
X0068089Y0049893D01*
X0068037Y0049884D01*
X0067986Y0049871D01*
X0067936Y0049854D01*
X0067887Y0049834D01*
X0067839Y0049810D01*
X0067794Y0049783D01*
X0067750Y0049753D01*
X0067709Y0049720D01*
X0067670Y0049684D01*
X0067634Y0049645D01*
X0067601Y0049604D01*
X0067571Y0049560D01*
X0067544Y0049515D01*
X0067520Y0049467D01*
X0067500Y0049418D01*
X0067483Y0049368D01*
X0067470Y0049317D01*
X0067461Y0049265D01*
X0067455Y0049212D01*
X0067453Y0049159D01*
X0076115Y0049113D02*
X0076115Y0045776D01*
X0076115Y0047259D02*
X0077042Y0047259D01*
X0077227Y0047259D02*
X0077969Y0045776D01*
X0079819Y0045776D02*
X0079819Y0049113D01*
X0080746Y0049113D01*
X0080746Y0049114D02*
X0080799Y0049112D01*
X0080852Y0049106D01*
X0080904Y0049097D01*
X0080955Y0049084D01*
X0081005Y0049067D01*
X0081054Y0049047D01*
X0081102Y0049023D01*
X0081147Y0048996D01*
X0081191Y0048966D01*
X0081232Y0048933D01*
X0081271Y0048897D01*
X0081307Y0048858D01*
X0081340Y0048817D01*
X0081370Y0048773D01*
X0081397Y0048728D01*
X0081421Y0048680D01*
X0081441Y0048631D01*
X0081458Y0048581D01*
X0081471Y0048530D01*
X0081480Y0048478D01*
X0081486Y0048425D01*
X0081488Y0048372D01*
X0081486Y0048319D01*
X0081480Y0048266D01*
X0081471Y0048214D01*
X0081458Y0048163D01*
X0081441Y0048113D01*
X0081421Y0048064D01*
X0081397Y0048016D01*
X0081370Y0047971D01*
X0081340Y0047927D01*
X0081307Y0047886D01*
X0081271Y0047847D01*
X0081232Y0047811D01*
X0081191Y0047778D01*
X0081147Y0047748D01*
X0081102Y0047721D01*
X0081054Y0047697D01*
X0081005Y0047677D01*
X0080955Y0047660D01*
X0080904Y0047647D01*
X0080852Y0047638D01*
X0080799Y0047632D01*
X0080746Y0047630D01*
X0079819Y0047630D01*
X0080746Y0047630D02*
X0080805Y0047628D01*
X0080865Y0047622D01*
X0080923Y0047613D01*
X0080981Y0047600D01*
X0081038Y0047583D01*
X0081094Y0047562D01*
X0081148Y0047538D01*
X0081201Y0047511D01*
X0081252Y0047480D01*
X0081300Y0047446D01*
X0081347Y0047409D01*
X0081391Y0047369D01*
X0081432Y0047326D01*
X0081471Y0047281D01*
X0081506Y0047233D01*
X0081539Y0047184D01*
X0081568Y0047132D01*
X0081594Y0047078D01*
X0081616Y0047023D01*
X0081635Y0046967D01*
X0081650Y0046909D01*
X0081661Y0046851D01*
X0081669Y0046792D01*
X0081673Y0046733D01*
X0081673Y0046673D01*
X0081669Y0046614D01*
X0081661Y0046555D01*
X0081650Y0046497D01*
X0081635Y0046439D01*
X0081616Y0046383D01*
X0081594Y0046328D01*
X0081568Y0046274D01*
X0081539Y0046222D01*
X0081506Y0046173D01*
X0081471Y0046125D01*
X0081432Y0046080D01*
X0081391Y0046037D01*
X0081347Y0045997D01*
X0081300Y0045960D01*
X0081252Y0045926D01*
X0081201Y0045895D01*
X0081148Y0045868D01*
X0081094Y0045844D01*
X0081038Y0045823D01*
X0080981Y0045806D01*
X0080923Y0045793D01*
X0080865Y0045784D01*
X0080805Y0045778D01*
X0080746Y0045776D01*
X0079819Y0045776D01*
X0077042Y0047259D02*
X0077101Y0047261D01*
X0077161Y0047267D01*
X0077219Y0047276D01*
X0077277Y0047289D01*
X0077334Y0047306D01*
X0077390Y0047327D01*
X0077444Y0047351D01*
X0077497Y0047378D01*
X0077548Y0047409D01*
X0077596Y0047443D01*
X0077643Y0047480D01*
X0077687Y0047520D01*
X0077728Y0047563D01*
X0077767Y0047608D01*
X0077802Y0047656D01*
X0077835Y0047705D01*
X0077864Y0047757D01*
X0077890Y0047811D01*
X0077912Y0047866D01*
X0077931Y0047922D01*
X0077946Y0047980D01*
X0077957Y0048038D01*
X0077965Y0048097D01*
X0077969Y0048156D01*
X0077969Y0048216D01*
X0077965Y0048275D01*
X0077957Y0048334D01*
X0077946Y0048392D01*
X0077931Y0048450D01*
X0077912Y0048506D01*
X0077890Y0048561D01*
X0077864Y0048615D01*
X0077835Y0048667D01*
X0077802Y0048716D01*
X0077767Y0048764D01*
X0077728Y0048809D01*
X0077687Y0048852D01*
X0077643Y0048892D01*
X0077596Y0048929D01*
X0077548Y0048963D01*
X0077497Y0048994D01*
X0077444Y0049021D01*
X0077390Y0049045D01*
X0077334Y0049066D01*
X0077277Y0049083D01*
X0077219Y0049096D01*
X0077161Y0049105D01*
X0077101Y0049111D01*
X0077042Y0049113D01*
X0076115Y0049113D01*
X0084776Y0048395D02*
X0085703Y0049137D01*
X0085703Y0045800D01*
X0084776Y0045800D02*
X0086630Y0045800D01*
X0088448Y0045800D02*
X0088448Y0049137D01*
X0089931Y0048025D02*
X0088448Y0046912D01*
X0089097Y0047376D02*
X0089931Y0045800D01*
X0089883Y0057206D02*
X0091737Y0057206D01*
X0090810Y0057206D02*
X0090810Y0060543D01*
X0089883Y0059801D01*
X0089883Y0061930D02*
X0089883Y0065267D01*
X0090810Y0065267D01*
X0090869Y0065265D01*
X0090929Y0065259D01*
X0090987Y0065250D01*
X0091045Y0065237D01*
X0091102Y0065220D01*
X0091158Y0065199D01*
X0091212Y0065175D01*
X0091265Y0065148D01*
X0091316Y0065117D01*
X0091364Y0065083D01*
X0091411Y0065046D01*
X0091455Y0065006D01*
X0091496Y0064963D01*
X0091535Y0064918D01*
X0091570Y0064870D01*
X0091603Y0064821D01*
X0091632Y0064769D01*
X0091658Y0064715D01*
X0091680Y0064660D01*
X0091699Y0064604D01*
X0091714Y0064546D01*
X0091725Y0064488D01*
X0091733Y0064429D01*
X0091737Y0064370D01*
X0091737Y0064310D01*
X0091733Y0064251D01*
X0091725Y0064192D01*
X0091714Y0064134D01*
X0091699Y0064076D01*
X0091680Y0064020D01*
X0091658Y0063965D01*
X0091632Y0063911D01*
X0091603Y0063859D01*
X0091570Y0063810D01*
X0091535Y0063762D01*
X0091496Y0063717D01*
X0091455Y0063674D01*
X0091411Y0063634D01*
X0091364Y0063597D01*
X0091316Y0063563D01*
X0091265Y0063532D01*
X0091212Y0063505D01*
X0091158Y0063481D01*
X0091102Y0063460D01*
X0091045Y0063443D01*
X0090987Y0063430D01*
X0090929Y0063421D01*
X0090869Y0063415D01*
X0090810Y0063413D01*
X0089883Y0063413D01*
X0090995Y0063413D02*
X0091737Y0061930D01*
X0093207Y0061930D02*
X0094320Y0065267D01*
X0095432Y0061930D01*
X0095154Y0062764D02*
X0093486Y0062764D01*
X0093554Y0060543D02*
X0093554Y0057206D01*
X0093554Y0058318D02*
X0095037Y0059430D01*
X0094203Y0058781D02*
X0095037Y0057206D01*
X0098938Y0068369D02*
X0098938Y0070779D01*
X0100792Y0070779D02*
X0100792Y0068369D01*
X0100790Y0068310D01*
X0100784Y0068250D01*
X0100775Y0068192D01*
X0100762Y0068134D01*
X0100745Y0068077D01*
X0100724Y0068021D01*
X0100700Y0067967D01*
X0100673Y0067914D01*
X0100642Y0067863D01*
X0100608Y0067815D01*
X0100571Y0067768D01*
X0100531Y0067724D01*
X0100488Y0067683D01*
X0100443Y0067644D01*
X0100395Y0067609D01*
X0100346Y0067576D01*
X0100294Y0067547D01*
X0100240Y0067521D01*
X0100185Y0067499D01*
X0100129Y0067480D01*
X0100071Y0067465D01*
X0100013Y0067454D01*
X0099954Y0067446D01*
X0099895Y0067442D01*
X0099835Y0067442D01*
X0099776Y0067446D01*
X0099717Y0067454D01*
X0099659Y0067465D01*
X0099601Y0067480D01*
X0099545Y0067499D01*
X0099490Y0067521D01*
X0099436Y0067547D01*
X0099384Y0067576D01*
X0099335Y0067609D01*
X0099287Y0067644D01*
X0099242Y0067683D01*
X0099199Y0067724D01*
X0099159Y0067768D01*
X0099122Y0067815D01*
X0099088Y0067863D01*
X0099057Y0067914D01*
X0099030Y0067967D01*
X0099006Y0068021D01*
X0098985Y0068077D01*
X0098968Y0068134D01*
X0098955Y0068192D01*
X0098946Y0068250D01*
X0098940Y0068310D01*
X0098938Y0068369D01*
X0102599Y0067442D02*
X0103526Y0067442D01*
X0103585Y0067444D01*
X0103645Y0067450D01*
X0103703Y0067459D01*
X0103761Y0067472D01*
X0103818Y0067489D01*
X0103874Y0067510D01*
X0103928Y0067534D01*
X0103981Y0067561D01*
X0104032Y0067592D01*
X0104080Y0067626D01*
X0104127Y0067663D01*
X0104171Y0067703D01*
X0104212Y0067746D01*
X0104251Y0067791D01*
X0104286Y0067839D01*
X0104319Y0067888D01*
X0104348Y0067940D01*
X0104374Y0067994D01*
X0104396Y0068049D01*
X0104415Y0068105D01*
X0104430Y0068163D01*
X0104441Y0068221D01*
X0104449Y0068280D01*
X0104453Y0068339D01*
X0104453Y0068399D01*
X0104449Y0068458D01*
X0104441Y0068517D01*
X0104430Y0068575D01*
X0104415Y0068633D01*
X0104396Y0068689D01*
X0104374Y0068744D01*
X0104348Y0068798D01*
X0104319Y0068850D01*
X0104286Y0068899D01*
X0104251Y0068947D01*
X0104212Y0068992D01*
X0104171Y0069035D01*
X0104127Y0069075D01*
X0104080Y0069112D01*
X0104032Y0069146D01*
X0103981Y0069177D01*
X0103928Y0069204D01*
X0103874Y0069228D01*
X0103818Y0069249D01*
X0103761Y0069266D01*
X0103703Y0069279D01*
X0103645Y0069288D01*
X0103585Y0069294D01*
X0103526Y0069296D01*
X0103712Y0069296D02*
X0102970Y0069296D01*
X0103712Y0069295D02*
X0103765Y0069297D01*
X0103818Y0069303D01*
X0103870Y0069312D01*
X0103921Y0069325D01*
X0103971Y0069342D01*
X0104020Y0069362D01*
X0104068Y0069386D01*
X0104113Y0069413D01*
X0104157Y0069443D01*
X0104198Y0069476D01*
X0104237Y0069512D01*
X0104273Y0069551D01*
X0104306Y0069592D01*
X0104336Y0069636D01*
X0104363Y0069681D01*
X0104387Y0069729D01*
X0104407Y0069778D01*
X0104424Y0069828D01*
X0104437Y0069879D01*
X0104446Y0069931D01*
X0104452Y0069984D01*
X0104454Y0070037D01*
X0104452Y0070090D01*
X0104446Y0070143D01*
X0104437Y0070195D01*
X0104424Y0070246D01*
X0104407Y0070296D01*
X0104387Y0070345D01*
X0104363Y0070393D01*
X0104336Y0070438D01*
X0104306Y0070482D01*
X0104273Y0070523D01*
X0104237Y0070562D01*
X0104198Y0070598D01*
X0104157Y0070631D01*
X0104113Y0070661D01*
X0104068Y0070688D01*
X0104020Y0070712D01*
X0103971Y0070732D01*
X0103921Y0070749D01*
X0103870Y0070762D01*
X0103818Y0070771D01*
X0103765Y0070777D01*
X0103712Y0070779D01*
X0102599Y0070779D01*
X0102514Y0073202D02*
X0102514Y0076539D01*
X0101587Y0075797D01*
X0100470Y0077678D02*
X0099543Y0077678D01*
X0100470Y0077678D02*
X0100529Y0077680D01*
X0100589Y0077686D01*
X0100647Y0077695D01*
X0100705Y0077708D01*
X0100762Y0077725D01*
X0100818Y0077746D01*
X0100872Y0077770D01*
X0100925Y0077797D01*
X0100976Y0077828D01*
X0101024Y0077862D01*
X0101071Y0077899D01*
X0101115Y0077939D01*
X0101156Y0077982D01*
X0101195Y0078027D01*
X0101230Y0078075D01*
X0101263Y0078124D01*
X0101292Y0078176D01*
X0101318Y0078230D01*
X0101340Y0078285D01*
X0101359Y0078341D01*
X0101374Y0078399D01*
X0101385Y0078457D01*
X0101393Y0078516D01*
X0101397Y0078575D01*
X0101397Y0078635D01*
X0101393Y0078694D01*
X0101385Y0078753D01*
X0101374Y0078811D01*
X0101359Y0078869D01*
X0101340Y0078925D01*
X0101318Y0078980D01*
X0101292Y0079034D01*
X0101263Y0079086D01*
X0101230Y0079135D01*
X0101195Y0079183D01*
X0101156Y0079228D01*
X0101115Y0079271D01*
X0101071Y0079311D01*
X0101024Y0079348D01*
X0100976Y0079382D01*
X0100925Y0079413D01*
X0100872Y0079440D01*
X0100818Y0079464D01*
X0100762Y0079485D01*
X0100705Y0079502D01*
X0100647Y0079515D01*
X0100589Y0079524D01*
X0100529Y0079530D01*
X0100470Y0079532D01*
X0100656Y0079532D02*
X0099914Y0079532D01*
X0100656Y0079531D02*
X0100709Y0079533D01*
X0100762Y0079539D01*
X0100814Y0079548D01*
X0100865Y0079561D01*
X0100915Y0079578D01*
X0100964Y0079598D01*
X0101012Y0079622D01*
X0101057Y0079649D01*
X0101101Y0079679D01*
X0101142Y0079712D01*
X0101181Y0079748D01*
X0101217Y0079787D01*
X0101250Y0079828D01*
X0101280Y0079872D01*
X0101307Y0079917D01*
X0101331Y0079965D01*
X0101351Y0080014D01*
X0101368Y0080064D01*
X0101381Y0080115D01*
X0101390Y0080167D01*
X0101396Y0080220D01*
X0101398Y0080273D01*
X0101396Y0080326D01*
X0101390Y0080379D01*
X0101381Y0080431D01*
X0101368Y0080482D01*
X0101351Y0080532D01*
X0101331Y0080581D01*
X0101307Y0080629D01*
X0101280Y0080674D01*
X0101250Y0080718D01*
X0101217Y0080759D01*
X0101181Y0080798D01*
X0101142Y0080834D01*
X0101101Y0080867D01*
X0101057Y0080897D01*
X0101012Y0080924D01*
X0100964Y0080948D01*
X0100915Y0080968D01*
X0100865Y0080985D01*
X0100814Y0080998D01*
X0100762Y0081007D01*
X0100709Y0081013D01*
X0100656Y0081015D01*
X0099543Y0081015D01*
X0098059Y0081015D02*
X0097317Y0081015D01*
X0097264Y0081013D01*
X0097211Y0081007D01*
X0097159Y0080998D01*
X0097108Y0080985D01*
X0097058Y0080968D01*
X0097009Y0080948D01*
X0096961Y0080924D01*
X0096916Y0080897D01*
X0096872Y0080867D01*
X0096831Y0080834D01*
X0096792Y0080798D01*
X0096756Y0080759D01*
X0096723Y0080718D01*
X0096693Y0080674D01*
X0096666Y0080629D01*
X0096642Y0080581D01*
X0096622Y0080532D01*
X0096605Y0080482D01*
X0096592Y0080431D01*
X0096583Y0080379D01*
X0096577Y0080326D01*
X0096575Y0080273D01*
X0096576Y0080273D02*
X0096576Y0078420D01*
X0096575Y0078420D02*
X0096577Y0078367D01*
X0096583Y0078314D01*
X0096592Y0078262D01*
X0096605Y0078211D01*
X0096622Y0078161D01*
X0096642Y0078112D01*
X0096666Y0078064D01*
X0096693Y0078019D01*
X0096723Y0077975D01*
X0096756Y0077934D01*
X0096792Y0077895D01*
X0096831Y0077859D01*
X0096872Y0077826D01*
X0096916Y0077796D01*
X0096961Y0077769D01*
X0097009Y0077745D01*
X0097058Y0077725D01*
X0097108Y0077708D01*
X0097159Y0077695D01*
X0097211Y0077686D01*
X0097264Y0077680D01*
X0097317Y0077678D01*
X0098059Y0077678D01*
X0097554Y0076539D02*
X0097604Y0076537D01*
X0097654Y0076532D01*
X0097703Y0076523D01*
X0097751Y0076510D01*
X0097799Y0076494D01*
X0097845Y0076474D01*
X0097889Y0076451D01*
X0097932Y0076425D01*
X0097973Y0076396D01*
X0098011Y0076364D01*
X0098047Y0076330D01*
X0098081Y0076292D01*
X0098111Y0076253D01*
X0098139Y0076211D01*
X0098164Y0076167D01*
X0098185Y0076122D01*
X0098203Y0076075D01*
X0098295Y0075797D02*
X0096812Y0073943D01*
X0097554Y0073201D02*
X0097604Y0073203D01*
X0097654Y0073208D01*
X0097703Y0073217D01*
X0097751Y0073230D01*
X0097799Y0073246D01*
X0097845Y0073266D01*
X0097889Y0073289D01*
X0097932Y0073315D01*
X0097973Y0073344D01*
X0098011Y0073376D01*
X0098047Y0073410D01*
X0098081Y0073448D01*
X0098111Y0073487D01*
X0098139Y0073529D01*
X0098164Y0073573D01*
X0098185Y0073618D01*
X0098203Y0073665D01*
X0097554Y0073202D02*
X0097504Y0073204D01*
X0097454Y0073209D01*
X0097405Y0073218D01*
X0097357Y0073231D01*
X0097309Y0073247D01*
X0097263Y0073267D01*
X0097219Y0073290D01*
X0097176Y0073316D01*
X0097135Y0073345D01*
X0097097Y0073377D01*
X0097061Y0073411D01*
X0097027Y0073449D01*
X0096997Y0073488D01*
X0096969Y0073530D01*
X0096944Y0073574D01*
X0096923Y0073619D01*
X0096905Y0073666D01*
X0098481Y0074870D02*
X0098479Y0074974D01*
X0098473Y0075078D01*
X0098463Y0075181D01*
X0098450Y0075284D01*
X0098432Y0075387D01*
X0098411Y0075488D01*
X0098385Y0075589D01*
X0098356Y0075689D01*
X0098323Y0075788D01*
X0098287Y0075885D01*
X0098247Y0075981D01*
X0098203Y0076075D01*
X0097554Y0076539D02*
X0097504Y0076537D01*
X0097454Y0076532D01*
X0097405Y0076523D01*
X0097357Y0076510D01*
X0097309Y0076494D01*
X0097263Y0076474D01*
X0097219Y0076451D01*
X0097176Y0076425D01*
X0097135Y0076396D01*
X0097097Y0076364D01*
X0097061Y0076330D01*
X0097027Y0076292D01*
X0096997Y0076253D01*
X0096969Y0076211D01*
X0096944Y0076167D01*
X0096923Y0076122D01*
X0096905Y0076075D01*
X0098481Y0074870D02*
X0098479Y0074766D01*
X0098473Y0074662D01*
X0098463Y0074559D01*
X0098450Y0074456D01*
X0098432Y0074353D01*
X0098411Y0074252D01*
X0098385Y0074151D01*
X0098356Y0074051D01*
X0098323Y0073952D01*
X0098287Y0073855D01*
X0098247Y0073759D01*
X0098203Y0073665D01*
X0096627Y0074870D02*
X0096629Y0074974D01*
X0096635Y0075078D01*
X0096645Y0075181D01*
X0096658Y0075284D01*
X0096676Y0075387D01*
X0096697Y0075488D01*
X0096723Y0075589D01*
X0096752Y0075689D01*
X0096785Y0075788D01*
X0096821Y0075885D01*
X0096861Y0075981D01*
X0096905Y0076075D01*
X0096627Y0074870D02*
X0096629Y0074766D01*
X0096635Y0074662D01*
X0096645Y0074559D01*
X0096658Y0074456D01*
X0096676Y0074353D01*
X0096697Y0074252D01*
X0096723Y0074151D01*
X0096752Y0074051D01*
X0096785Y0073952D01*
X0096821Y0073855D01*
X0096861Y0073759D01*
X0096905Y0073665D01*
X0099941Y0073387D02*
X0100127Y0073387D01*
X0100127Y0073202D01*
X0099941Y0073202D01*
X0099941Y0073387D01*
X0101587Y0073202D02*
X0103441Y0073202D01*
X0105198Y0073758D02*
X0105198Y0075426D01*
X0106681Y0075426D02*
X0106681Y0073202D01*
X0105754Y0073202D01*
X0105708Y0073204D01*
X0105662Y0073210D01*
X0105618Y0073219D01*
X0105573Y0073232D01*
X0105531Y0073249D01*
X0105489Y0073269D01*
X0105450Y0073293D01*
X0105412Y0073319D01*
X0105377Y0073349D01*
X0105345Y0073381D01*
X0105315Y0073416D01*
X0105289Y0073454D01*
X0105265Y0073493D01*
X0105245Y0073535D01*
X0105228Y0073577D01*
X0105215Y0073622D01*
X0105206Y0073666D01*
X0105200Y0073712D01*
X0105198Y0073758D01*
X0108566Y0073202D02*
X0108566Y0076539D01*
X0110049Y0076539D01*
X0110049Y0075055D02*
X0108566Y0075055D01*
X0117099Y0061357D02*
X0118026Y0061357D01*
X0118026Y0061358D02*
X0118085Y0061356D01*
X0118145Y0061350D01*
X0118203Y0061341D01*
X0118261Y0061328D01*
X0118318Y0061311D01*
X0118374Y0061290D01*
X0118428Y0061266D01*
X0118481Y0061239D01*
X0118532Y0061208D01*
X0118580Y0061174D01*
X0118627Y0061137D01*
X0118671Y0061097D01*
X0118712Y0061054D01*
X0118751Y0061009D01*
X0118786Y0060961D01*
X0118819Y0060912D01*
X0118848Y0060860D01*
X0118874Y0060806D01*
X0118896Y0060751D01*
X0118915Y0060695D01*
X0118930Y0060637D01*
X0118941Y0060579D01*
X0118949Y0060520D01*
X0118953Y0060461D01*
X0118953Y0060401D01*
X0118949Y0060342D01*
X0118941Y0060283D01*
X0118930Y0060225D01*
X0118915Y0060167D01*
X0118896Y0060111D01*
X0118874Y0060056D01*
X0118848Y0060002D01*
X0118819Y0059950D01*
X0118786Y0059901D01*
X0118751Y0059853D01*
X0118712Y0059808D01*
X0118671Y0059765D01*
X0118627Y0059725D01*
X0118580Y0059688D01*
X0118532Y0059654D01*
X0118481Y0059623D01*
X0118428Y0059596D01*
X0118374Y0059572D01*
X0118318Y0059551D01*
X0118261Y0059534D01*
X0118203Y0059521D01*
X0118145Y0059512D01*
X0118085Y0059506D01*
X0118026Y0059504D01*
X0117099Y0059504D01*
X0118212Y0059504D02*
X0118953Y0058020D01*
X0120609Y0058020D02*
X0121536Y0058020D01*
X0121595Y0058022D01*
X0121655Y0058028D01*
X0121713Y0058037D01*
X0121771Y0058050D01*
X0121828Y0058067D01*
X0121884Y0058088D01*
X0121938Y0058112D01*
X0121991Y0058139D01*
X0122042Y0058170D01*
X0122090Y0058204D01*
X0122137Y0058241D01*
X0122181Y0058281D01*
X0122222Y0058324D01*
X0122261Y0058369D01*
X0122296Y0058417D01*
X0122329Y0058466D01*
X0122358Y0058518D01*
X0122384Y0058572D01*
X0122406Y0058627D01*
X0122425Y0058683D01*
X0122440Y0058741D01*
X0122451Y0058799D01*
X0122459Y0058858D01*
X0122463Y0058917D01*
X0122463Y0058977D01*
X0122459Y0059036D01*
X0122451Y0059095D01*
X0122440Y0059153D01*
X0122425Y0059211D01*
X0122406Y0059267D01*
X0122384Y0059322D01*
X0122358Y0059376D01*
X0122329Y0059428D01*
X0122296Y0059477D01*
X0122261Y0059525D01*
X0122222Y0059570D01*
X0122181Y0059613D01*
X0122137Y0059653D01*
X0122090Y0059690D01*
X0122042Y0059724D01*
X0121991Y0059755D01*
X0121938Y0059782D01*
X0121884Y0059806D01*
X0121828Y0059827D01*
X0121771Y0059844D01*
X0121713Y0059857D01*
X0121655Y0059866D01*
X0121595Y0059872D01*
X0121536Y0059874D01*
X0121722Y0059874D02*
X0120980Y0059874D01*
X0121722Y0059874D02*
X0121775Y0059876D01*
X0121828Y0059882D01*
X0121880Y0059891D01*
X0121931Y0059904D01*
X0121981Y0059921D01*
X0122030Y0059941D01*
X0122078Y0059965D01*
X0122123Y0059992D01*
X0122167Y0060022D01*
X0122208Y0060055D01*
X0122247Y0060091D01*
X0122283Y0060130D01*
X0122316Y0060171D01*
X0122346Y0060215D01*
X0122373Y0060260D01*
X0122397Y0060308D01*
X0122417Y0060357D01*
X0122434Y0060407D01*
X0122447Y0060458D01*
X0122456Y0060510D01*
X0122462Y0060563D01*
X0122464Y0060616D01*
X0122462Y0060669D01*
X0122456Y0060722D01*
X0122447Y0060774D01*
X0122434Y0060825D01*
X0122417Y0060875D01*
X0122397Y0060924D01*
X0122373Y0060972D01*
X0122346Y0061017D01*
X0122316Y0061061D01*
X0122283Y0061102D01*
X0122247Y0061141D01*
X0122208Y0061177D01*
X0122167Y0061210D01*
X0122123Y0061240D01*
X0122078Y0061267D01*
X0122030Y0061291D01*
X0121981Y0061311D01*
X0121931Y0061328D01*
X0121880Y0061341D01*
X0121828Y0061350D01*
X0121775Y0061356D01*
X0121722Y0061358D01*
X0121722Y0061357D02*
X0120609Y0061357D01*
X0117099Y0061357D02*
X0117099Y0058020D01*
X0116845Y0049570D02*
X0115918Y0048829D01*
X0116845Y0049570D02*
X0116845Y0046233D01*
X0115918Y0046233D02*
X0117772Y0046233D01*
X0121037Y0046697D02*
X0121081Y0046791D01*
X0121121Y0046887D01*
X0121157Y0046984D01*
X0121190Y0047083D01*
X0121219Y0047183D01*
X0121245Y0047284D01*
X0121266Y0047385D01*
X0121284Y0047488D01*
X0121297Y0047591D01*
X0121307Y0047694D01*
X0121313Y0047798D01*
X0121315Y0047902D01*
X0119461Y0047902D02*
X0119463Y0048006D01*
X0119469Y0048110D01*
X0119479Y0048213D01*
X0119492Y0048316D01*
X0119510Y0048419D01*
X0119531Y0048520D01*
X0119557Y0048621D01*
X0119586Y0048721D01*
X0119619Y0048820D01*
X0119655Y0048917D01*
X0119695Y0049013D01*
X0119739Y0049107D01*
X0120388Y0049570D02*
X0120438Y0049568D01*
X0120488Y0049563D01*
X0120537Y0049554D01*
X0120585Y0049541D01*
X0120633Y0049525D01*
X0120679Y0049505D01*
X0120723Y0049482D01*
X0120766Y0049456D01*
X0120807Y0049427D01*
X0120845Y0049395D01*
X0120881Y0049361D01*
X0120915Y0049323D01*
X0120945Y0049284D01*
X0120973Y0049242D01*
X0120998Y0049198D01*
X0121019Y0049153D01*
X0121037Y0049106D01*
X0121130Y0048829D02*
X0119647Y0046975D01*
X0120388Y0046233D02*
X0120438Y0046235D01*
X0120488Y0046240D01*
X0120537Y0046249D01*
X0120585Y0046262D01*
X0120633Y0046278D01*
X0120679Y0046298D01*
X0120723Y0046321D01*
X0120766Y0046347D01*
X0120807Y0046376D01*
X0120845Y0046408D01*
X0120881Y0046442D01*
X0120915Y0046480D01*
X0120945Y0046519D01*
X0120973Y0046561D01*
X0120998Y0046605D01*
X0121019Y0046650D01*
X0121037Y0046697D01*
X0120388Y0046233D02*
X0120338Y0046235D01*
X0120288Y0046240D01*
X0120239Y0046249D01*
X0120191Y0046262D01*
X0120143Y0046278D01*
X0120097Y0046298D01*
X0120053Y0046321D01*
X0120010Y0046347D01*
X0119969Y0046376D01*
X0119931Y0046408D01*
X0119895Y0046442D01*
X0119861Y0046480D01*
X0119831Y0046519D01*
X0119803Y0046561D01*
X0119778Y0046605D01*
X0119757Y0046650D01*
X0119739Y0046697D01*
X0121315Y0047902D02*
X0121313Y0048006D01*
X0121307Y0048110D01*
X0121297Y0048213D01*
X0121284Y0048316D01*
X0121266Y0048419D01*
X0121245Y0048520D01*
X0121219Y0048621D01*
X0121190Y0048721D01*
X0121157Y0048820D01*
X0121121Y0048917D01*
X0121081Y0049013D01*
X0121037Y0049107D01*
X0120388Y0049570D02*
X0120338Y0049568D01*
X0120288Y0049563D01*
X0120239Y0049554D01*
X0120191Y0049541D01*
X0120143Y0049525D01*
X0120097Y0049505D01*
X0120053Y0049482D01*
X0120010Y0049456D01*
X0119969Y0049427D01*
X0119931Y0049395D01*
X0119895Y0049361D01*
X0119861Y0049323D01*
X0119831Y0049284D01*
X0119803Y0049242D01*
X0119778Y0049198D01*
X0119757Y0049153D01*
X0119739Y0049106D01*
X0119461Y0047902D02*
X0119463Y0047798D01*
X0119469Y0047694D01*
X0119479Y0047591D01*
X0119492Y0047488D01*
X0119510Y0047385D01*
X0119531Y0047284D01*
X0119557Y0047183D01*
X0119586Y0047083D01*
X0119619Y0046984D01*
X0119655Y0046887D01*
X0119695Y0046791D01*
X0119739Y0046697D01*
X0123133Y0046233D02*
X0123133Y0049570D01*
X0124616Y0048458D02*
X0123133Y0047345D01*
X0123782Y0047809D02*
X0124616Y0046233D01*
X0136000Y0062551D02*
X0136154Y0062549D01*
X0136308Y0062543D01*
X0136462Y0062533D01*
X0136616Y0062519D01*
X0136769Y0062502D01*
X0136921Y0062480D01*
X0137073Y0062454D01*
X0137225Y0062425D01*
X0137375Y0062391D01*
X0137525Y0062354D01*
X0137673Y0062313D01*
X0137821Y0062268D01*
X0137967Y0062219D01*
X0138112Y0062167D01*
X0138255Y0062111D01*
X0138398Y0062051D01*
X0138538Y0061988D01*
X0138677Y0061921D01*
X0138814Y0061850D01*
X0138949Y0061776D01*
X0139082Y0061699D01*
X0139214Y0061618D01*
X0139343Y0061534D01*
X0139470Y0061446D01*
X0139594Y0061355D01*
X0139716Y0061262D01*
X0139836Y0061164D01*
X0139953Y0061064D01*
X0140068Y0060961D01*
X0140180Y0060855D01*
X0140289Y0060747D01*
X0140395Y0060635D01*
X0140499Y0060521D01*
X0140599Y0060404D01*
X0140697Y0060285D01*
X0140791Y0060163D01*
X0140882Y0060038D01*
X0136000Y0050551D02*
X0135848Y0050553D01*
X0135697Y0050559D01*
X0135546Y0050568D01*
X0135394Y0050582D01*
X0135244Y0050599D01*
X0135094Y0050620D01*
X0134944Y0050645D01*
X0134795Y0050673D01*
X0134647Y0050706D01*
X0134500Y0050742D01*
X0134353Y0050781D01*
X0134208Y0050825D01*
X0134064Y0050872D01*
X0133921Y0050923D01*
X0133780Y0050977D01*
X0133639Y0051035D01*
X0133501Y0051096D01*
X0133364Y0051161D01*
X0133228Y0051230D01*
X0133095Y0051301D01*
X0132963Y0051376D01*
X0132833Y0051455D01*
X0132706Y0051536D01*
X0132580Y0051621D01*
X0132456Y0051709D01*
X0132335Y0051800D01*
X0132216Y0051894D01*
X0132100Y0051992D01*
X0131986Y0052092D01*
X0131874Y0052194D01*
X0131766Y0052300D01*
X0131660Y0052408D01*
X0131556Y0052519D01*
X0131456Y0052633D01*
X0131358Y0052749D01*
X0131264Y0052868D01*
X0136000Y0050551D02*
X0136152Y0050553D01*
X0136303Y0050559D01*
X0136454Y0050568D01*
X0136606Y0050582D01*
X0136756Y0050599D01*
X0136906Y0050620D01*
X0137056Y0050645D01*
X0137205Y0050673D01*
X0137353Y0050706D01*
X0137500Y0050742D01*
X0137647Y0050781D01*
X0137792Y0050825D01*
X0137936Y0050872D01*
X0138079Y0050923D01*
X0138220Y0050977D01*
X0138361Y0051035D01*
X0138499Y0051096D01*
X0138636Y0051161D01*
X0138772Y0051230D01*
X0138905Y0051301D01*
X0139037Y0051376D01*
X0139167Y0051455D01*
X0139294Y0051536D01*
X0139420Y0051621D01*
X0139544Y0051709D01*
X0139665Y0051800D01*
X0139784Y0051894D01*
X0139900Y0051992D01*
X0140014Y0052092D01*
X0140126Y0052194D01*
X0140234Y0052300D01*
X0140340Y0052408D01*
X0140444Y0052519D01*
X0140544Y0052633D01*
X0140642Y0052749D01*
X0140736Y0052868D01*
X0136000Y0062551D02*
X0135850Y0062549D01*
X0135699Y0062543D01*
X0135549Y0062534D01*
X0135400Y0062521D01*
X0135250Y0062504D01*
X0135101Y0062483D01*
X0134953Y0062459D01*
X0134805Y0062431D01*
X0134658Y0062399D01*
X0134512Y0062364D01*
X0134367Y0062324D01*
X0134223Y0062282D01*
X0134080Y0062235D01*
X0133938Y0062185D01*
X0133797Y0062132D01*
X0133658Y0062075D01*
X0133520Y0062015D01*
X0133384Y0061951D01*
X0133250Y0061884D01*
X0133117Y0061813D01*
X0132986Y0061739D01*
X0132857Y0061662D01*
X0132730Y0061581D01*
X0132605Y0061498D01*
X0132482Y0061411D01*
X0132361Y0061322D01*
X0132243Y0061229D01*
X0132127Y0061133D01*
X0132013Y0061035D01*
X0131902Y0060934D01*
X0131793Y0060829D01*
X0131688Y0060723D01*
X0131584Y0060613D01*
X0131484Y0060501D01*
X0131386Y0060387D01*
X0131292Y0060270D01*
X0131200Y0060151D01*
X0133564Y0066225D02*
X0134491Y0066225D01*
X0134549Y0066227D01*
X0134607Y0066232D01*
X0134665Y0066241D01*
X0134722Y0066254D01*
X0134777Y0066270D01*
X0134832Y0066290D01*
X0134886Y0066313D01*
X0134938Y0066340D01*
X0134988Y0066369D01*
X0135036Y0066402D01*
X0135082Y0066438D01*
X0135126Y0066476D01*
X0135167Y0066517D01*
X0135205Y0066561D01*
X0135241Y0066607D01*
X0135274Y0066655D01*
X0135303Y0066705D01*
X0135330Y0066757D01*
X0135353Y0066811D01*
X0135373Y0066866D01*
X0135389Y0066921D01*
X0135402Y0066978D01*
X0135411Y0067036D01*
X0135416Y0067094D01*
X0135418Y0067152D01*
X0135418Y0068635D01*
X0135416Y0068693D01*
X0135411Y0068751D01*
X0135402Y0068809D01*
X0135389Y0068866D01*
X0135373Y0068921D01*
X0135353Y0068976D01*
X0135330Y0069030D01*
X0135303Y0069082D01*
X0135274Y0069132D01*
X0135241Y0069180D01*
X0135205Y0069226D01*
X0135167Y0069270D01*
X0135126Y0069311D01*
X0135082Y0069349D01*
X0135036Y0069385D01*
X0134988Y0069418D01*
X0134938Y0069447D01*
X0134886Y0069474D01*
X0134832Y0069497D01*
X0134777Y0069517D01*
X0134722Y0069533D01*
X0134665Y0069546D01*
X0134607Y0069555D01*
X0134549Y0069560D01*
X0134491Y0069562D01*
X0133564Y0069562D01*
X0133564Y0066225D01*
X0137225Y0066225D02*
X0139079Y0066225D01*
X0138152Y0066225D02*
X0138152Y0069562D01*
X0137225Y0068821D01*
X0106433Y0096843D02*
X0104950Y0096843D01*
X0104950Y0098326D02*
X0104950Y0094989D01*
X0103166Y0094989D02*
X0102424Y0096472D01*
X0102239Y0096472D02*
X0101312Y0096472D01*
X0102239Y0096472D02*
X0102298Y0096474D01*
X0102358Y0096480D01*
X0102416Y0096489D01*
X0102474Y0096502D01*
X0102531Y0096519D01*
X0102587Y0096540D01*
X0102641Y0096564D01*
X0102694Y0096591D01*
X0102745Y0096622D01*
X0102793Y0096656D01*
X0102840Y0096693D01*
X0102884Y0096733D01*
X0102925Y0096776D01*
X0102964Y0096821D01*
X0102999Y0096869D01*
X0103032Y0096918D01*
X0103061Y0096970D01*
X0103087Y0097024D01*
X0103109Y0097079D01*
X0103128Y0097135D01*
X0103143Y0097193D01*
X0103154Y0097251D01*
X0103162Y0097310D01*
X0103166Y0097369D01*
X0103166Y0097429D01*
X0103162Y0097488D01*
X0103154Y0097547D01*
X0103143Y0097605D01*
X0103128Y0097663D01*
X0103109Y0097719D01*
X0103087Y0097774D01*
X0103061Y0097828D01*
X0103032Y0097880D01*
X0102999Y0097929D01*
X0102964Y0097977D01*
X0102925Y0098022D01*
X0102884Y0098065D01*
X0102840Y0098105D01*
X0102793Y0098142D01*
X0102745Y0098176D01*
X0102694Y0098207D01*
X0102641Y0098234D01*
X0102587Y0098258D01*
X0102531Y0098279D01*
X0102474Y0098296D01*
X0102416Y0098309D01*
X0102358Y0098318D01*
X0102298Y0098324D01*
X0102239Y0098326D01*
X0101312Y0098326D01*
X0101312Y0094989D01*
X0104950Y0098326D02*
X0106433Y0098326D01*
X0117984Y0113206D02*
X0117982Y0113259D01*
X0117976Y0113312D01*
X0117967Y0113364D01*
X0117954Y0113415D01*
X0117937Y0113465D01*
X0117917Y0113514D01*
X0117893Y0113562D01*
X0117866Y0113607D01*
X0117836Y0113651D01*
X0117803Y0113692D01*
X0117767Y0113731D01*
X0117728Y0113767D01*
X0117687Y0113800D01*
X0117643Y0113830D01*
X0117598Y0113857D01*
X0117550Y0113881D01*
X0117501Y0113901D01*
X0117451Y0113918D01*
X0117400Y0113931D01*
X0117348Y0113940D01*
X0117295Y0113946D01*
X0117242Y0113948D01*
X0114646Y0113948D01*
X0116130Y0115734D02*
X0117057Y0115734D01*
X0117116Y0115736D01*
X0117176Y0115742D01*
X0117234Y0115751D01*
X0117292Y0115764D01*
X0117349Y0115781D01*
X0117405Y0115802D01*
X0117459Y0115826D01*
X0117512Y0115853D01*
X0117563Y0115884D01*
X0117611Y0115918D01*
X0117658Y0115955D01*
X0117702Y0115995D01*
X0117743Y0116038D01*
X0117782Y0116083D01*
X0117817Y0116131D01*
X0117850Y0116180D01*
X0117879Y0116232D01*
X0117905Y0116286D01*
X0117927Y0116341D01*
X0117946Y0116397D01*
X0117961Y0116455D01*
X0117972Y0116513D01*
X0117980Y0116572D01*
X0117984Y0116631D01*
X0117984Y0116691D01*
X0117980Y0116750D01*
X0117972Y0116809D01*
X0117961Y0116867D01*
X0117946Y0116925D01*
X0117927Y0116981D01*
X0117905Y0117036D01*
X0117879Y0117090D01*
X0117850Y0117142D01*
X0117817Y0117191D01*
X0117782Y0117239D01*
X0117743Y0117284D01*
X0117702Y0117327D01*
X0117658Y0117367D01*
X0117611Y0117404D01*
X0117563Y0117438D01*
X0117512Y0117469D01*
X0117459Y0117496D01*
X0117405Y0117520D01*
X0117349Y0117541D01*
X0117292Y0117558D01*
X0117234Y0117571D01*
X0117176Y0117580D01*
X0117116Y0117586D01*
X0117057Y0117588D01*
X0116871Y0117588D01*
X0116871Y0117589D02*
X0116818Y0117587D01*
X0116765Y0117581D01*
X0116713Y0117572D01*
X0116662Y0117559D01*
X0116612Y0117542D01*
X0116563Y0117522D01*
X0116515Y0117498D01*
X0116470Y0117471D01*
X0116426Y0117441D01*
X0116385Y0117408D01*
X0116346Y0117372D01*
X0116310Y0117333D01*
X0116277Y0117292D01*
X0116247Y0117248D01*
X0116220Y0117203D01*
X0116196Y0117155D01*
X0116176Y0117106D01*
X0116159Y0117056D01*
X0116146Y0117005D01*
X0116137Y0116953D01*
X0116131Y0116900D01*
X0116129Y0116847D01*
X0116130Y0116847D02*
X0116130Y0115734D01*
X0116055Y0115736D01*
X0115980Y0115742D01*
X0115905Y0115751D01*
X0115831Y0115764D01*
X0115758Y0115781D01*
X0115686Y0115802D01*
X0115615Y0115826D01*
X0115545Y0115854D01*
X0115477Y0115886D01*
X0115410Y0115920D01*
X0115346Y0115958D01*
X0115283Y0116000D01*
X0115222Y0116044D01*
X0115164Y0116092D01*
X0115108Y0116142D01*
X0115055Y0116195D01*
X0115005Y0116251D01*
X0114957Y0116309D01*
X0114913Y0116370D01*
X0114871Y0116433D01*
X0114833Y0116497D01*
X0114799Y0116564D01*
X0114767Y0116632D01*
X0114739Y0116702D01*
X0114715Y0116773D01*
X0114694Y0116845D01*
X0114677Y0116918D01*
X0114664Y0116992D01*
X0114655Y0117067D01*
X0114649Y0117142D01*
X0114647Y0117217D01*
X0117983Y0113206D02*
X0117983Y0112835D01*
X0087064Y0084623D02*
X0087064Y0079523D01*
X0087064Y0077123D01*
X0087064Y0072023D01*
X0086764Y0076323D02*
X0086676Y0076325D01*
X0086587Y0076331D01*
X0086499Y0076341D01*
X0086412Y0076354D01*
X0086325Y0076372D01*
X0086239Y0076393D01*
X0086154Y0076418D01*
X0086071Y0076447D01*
X0085988Y0076480D01*
X0085908Y0076516D01*
X0085829Y0076555D01*
X0085751Y0076598D01*
X0085676Y0076645D01*
X0085603Y0076695D01*
X0085532Y0076748D01*
X0085463Y0076804D01*
X0085397Y0076863D01*
X0085334Y0076925D01*
X0085274Y0076989D01*
X0085216Y0077056D01*
X0085162Y0077126D01*
X0085110Y0077198D01*
X0085062Y0077272D01*
X0085017Y0077349D01*
X0084976Y0077427D01*
X0084938Y0077507D01*
X0084904Y0077588D01*
X0084873Y0077671D01*
X0084846Y0077756D01*
X0084823Y0077841D01*
X0084804Y0077927D01*
X0084788Y0078015D01*
X0084776Y0078102D01*
X0084768Y0078190D01*
X0084764Y0078279D01*
X0084764Y0078367D01*
X0084768Y0078456D01*
X0084776Y0078544D01*
X0084788Y0078631D01*
X0084804Y0078719D01*
X0084823Y0078805D01*
X0084846Y0078890D01*
X0084873Y0078975D01*
X0084904Y0079058D01*
X0084938Y0079139D01*
X0084976Y0079219D01*
X0085017Y0079297D01*
X0085062Y0079374D01*
X0085110Y0079448D01*
X0085162Y0079520D01*
X0085216Y0079590D01*
X0085274Y0079657D01*
X0085334Y0079721D01*
X0085397Y0079783D01*
X0085463Y0079842D01*
X0085532Y0079898D01*
X0085603Y0079951D01*
X0085676Y0080001D01*
X0085751Y0080048D01*
X0085829Y0080091D01*
X0085908Y0080130D01*
X0085988Y0080166D01*
X0086071Y0080199D01*
X0086154Y0080228D01*
X0086239Y0080253D01*
X0086325Y0080274D01*
X0086412Y0080292D01*
X0086499Y0080305D01*
X0086587Y0080315D01*
X0086676Y0080321D01*
X0086764Y0080323D01*
X0062746Y0102481D02*
X0060892Y0102481D01*
X0061819Y0102481D02*
X0061819Y0105818D01*
X0060892Y0105077D01*
X0059105Y0105818D02*
X0059105Y0103223D01*
X0059106Y0103223D02*
X0059104Y0103170D01*
X0059098Y0103117D01*
X0059089Y0103065D01*
X0059076Y0103014D01*
X0059059Y0102964D01*
X0059039Y0102915D01*
X0059015Y0102867D01*
X0058988Y0102822D01*
X0058958Y0102778D01*
X0058925Y0102737D01*
X0058889Y0102698D01*
X0058850Y0102662D01*
X0058809Y0102629D01*
X0058765Y0102599D01*
X0058720Y0102572D01*
X0058672Y0102548D01*
X0058623Y0102528D01*
X0058573Y0102511D01*
X0058522Y0102498D01*
X0058470Y0102489D01*
X0058417Y0102483D01*
X0058364Y0102481D01*
X0057993Y0102481D01*
X0057381Y0083238D02*
X0055805Y0082404D01*
X0056269Y0081755D02*
X0055156Y0083238D01*
X0054044Y0081755D02*
X0057381Y0081755D01*
X0056918Y0078361D02*
X0056824Y0078317D01*
X0056728Y0078277D01*
X0056631Y0078241D01*
X0056532Y0078208D01*
X0056432Y0078179D01*
X0056331Y0078153D01*
X0056230Y0078132D01*
X0056127Y0078114D01*
X0056024Y0078101D01*
X0055921Y0078091D01*
X0055817Y0078085D01*
X0055713Y0078083D01*
X0055713Y0079937D02*
X0055609Y0079935D01*
X0055505Y0079929D01*
X0055402Y0079919D01*
X0055299Y0079906D01*
X0055196Y0079888D01*
X0055095Y0079867D01*
X0054994Y0079841D01*
X0054894Y0079812D01*
X0054795Y0079779D01*
X0054698Y0079743D01*
X0054602Y0079703D01*
X0054508Y0079659D01*
X0054786Y0079752D02*
X0056640Y0078269D01*
X0057381Y0079010D02*
X0057379Y0079060D01*
X0057374Y0079110D01*
X0057365Y0079159D01*
X0057352Y0079207D01*
X0057336Y0079255D01*
X0057316Y0079301D01*
X0057293Y0079345D01*
X0057267Y0079388D01*
X0057238Y0079429D01*
X0057206Y0079467D01*
X0057172Y0079503D01*
X0057134Y0079537D01*
X0057095Y0079567D01*
X0057053Y0079595D01*
X0057009Y0079620D01*
X0056964Y0079641D01*
X0056917Y0079659D01*
X0057381Y0079010D02*
X0057379Y0078960D01*
X0057374Y0078910D01*
X0057365Y0078861D01*
X0057352Y0078813D01*
X0057336Y0078765D01*
X0057316Y0078719D01*
X0057293Y0078675D01*
X0057267Y0078632D01*
X0057238Y0078591D01*
X0057206Y0078553D01*
X0057172Y0078517D01*
X0057134Y0078483D01*
X0057095Y0078453D01*
X0057053Y0078425D01*
X0057009Y0078400D01*
X0056964Y0078379D01*
X0056917Y0078361D01*
X0056918Y0079659D02*
X0056824Y0079703D01*
X0056728Y0079743D01*
X0056631Y0079779D01*
X0056532Y0079812D01*
X0056432Y0079841D01*
X0056331Y0079867D01*
X0056230Y0079888D01*
X0056127Y0079906D01*
X0056024Y0079919D01*
X0055921Y0079929D01*
X0055817Y0079935D01*
X0055713Y0079937D01*
X0055713Y0078083D02*
X0055609Y0078085D01*
X0055505Y0078091D01*
X0055402Y0078101D01*
X0055299Y0078114D01*
X0055196Y0078132D01*
X0055095Y0078153D01*
X0054994Y0078179D01*
X0054894Y0078208D01*
X0054795Y0078241D01*
X0054698Y0078277D01*
X0054602Y0078317D01*
X0054508Y0078361D01*
X0054044Y0079010D02*
X0054046Y0079060D01*
X0054051Y0079110D01*
X0054060Y0079159D01*
X0054073Y0079207D01*
X0054089Y0079255D01*
X0054109Y0079301D01*
X0054132Y0079345D01*
X0054158Y0079388D01*
X0054187Y0079429D01*
X0054219Y0079467D01*
X0054253Y0079503D01*
X0054291Y0079537D01*
X0054330Y0079567D01*
X0054372Y0079595D01*
X0054416Y0079620D01*
X0054461Y0079641D01*
X0054508Y0079659D01*
X0054044Y0079010D02*
X0054046Y0078960D01*
X0054051Y0078910D01*
X0054060Y0078861D01*
X0054073Y0078813D01*
X0054089Y0078765D01*
X0054109Y0078719D01*
X0054132Y0078675D01*
X0054158Y0078632D01*
X0054187Y0078591D01*
X0054219Y0078553D01*
X0054253Y0078517D01*
X0054291Y0078483D01*
X0054330Y0078453D01*
X0054372Y0078425D01*
X0054416Y0078400D01*
X0054461Y0078379D01*
X0054508Y0078361D01*
X0052287Y0078050D02*
X0052287Y0079904D01*
X0052287Y0078050D02*
X0050433Y0079626D01*
X0048949Y0079070D02*
X0048951Y0079006D01*
X0048957Y0078942D01*
X0048966Y0078878D01*
X0048980Y0078816D01*
X0048997Y0078754D01*
X0049017Y0078693D01*
X0049042Y0078634D01*
X0049070Y0078576D01*
X0049101Y0078520D01*
X0049136Y0078466D01*
X0049173Y0078414D01*
X0049214Y0078364D01*
X0049258Y0078317D01*
X0049304Y0078273D01*
X0049353Y0078231D01*
X0049405Y0078193D01*
X0049458Y0078158D01*
X0049514Y0078126D01*
X0049571Y0078097D01*
X0049630Y0078072D01*
X0049691Y0078050D01*
X0050433Y0079626D02*
X0050393Y0079665D01*
X0050351Y0079702D01*
X0050307Y0079736D01*
X0050260Y0079767D01*
X0050212Y0079795D01*
X0050162Y0079820D01*
X0050111Y0079842D01*
X0050059Y0079861D01*
X0050005Y0079876D01*
X0049950Y0079888D01*
X0049895Y0079897D01*
X0049840Y0079902D01*
X0049784Y0079904D01*
X0049727Y0079902D01*
X0049670Y0079896D01*
X0049614Y0079887D01*
X0049559Y0079873D01*
X0049505Y0079856D01*
X0049452Y0079835D01*
X0049400Y0079810D01*
X0049351Y0079783D01*
X0049303Y0079751D01*
X0049258Y0079717D01*
X0049215Y0079680D01*
X0049174Y0079639D01*
X0049137Y0079596D01*
X0049103Y0079551D01*
X0049071Y0079503D01*
X0049044Y0079454D01*
X0049019Y0079402D01*
X0048998Y0079349D01*
X0048981Y0079295D01*
X0048967Y0079240D01*
X0048958Y0079184D01*
X0048952Y0079127D01*
X0048950Y0079070D01*
X0048950Y0075467D02*
X0048950Y0074540D01*
X0052287Y0074540D01*
X0050804Y0074540D02*
X0050804Y0075467D01*
X0050804Y0075652D02*
X0052287Y0076394D01*
X0054044Y0075467D02*
X0057381Y0075467D01*
X0057381Y0074540D02*
X0057381Y0076394D01*
X0054786Y0074540D02*
X0054044Y0075467D01*
X0054876Y0071578D02*
X0055617Y0071578D01*
X0054876Y0071578D02*
X0054823Y0071576D01*
X0054770Y0071570D01*
X0054718Y0071561D01*
X0054667Y0071548D01*
X0054617Y0071531D01*
X0054568Y0071511D01*
X0054520Y0071487D01*
X0054475Y0071460D01*
X0054431Y0071430D01*
X0054390Y0071397D01*
X0054351Y0071361D01*
X0054315Y0071322D01*
X0054282Y0071281D01*
X0054252Y0071237D01*
X0054225Y0071192D01*
X0054201Y0071144D01*
X0054181Y0071095D01*
X0054164Y0071045D01*
X0054151Y0070994D01*
X0054142Y0070942D01*
X0054136Y0070889D01*
X0054134Y0070836D01*
X0054134Y0068982D01*
X0054136Y0068929D01*
X0054142Y0068876D01*
X0054151Y0068824D01*
X0054164Y0068773D01*
X0054181Y0068723D01*
X0054201Y0068674D01*
X0054225Y0068626D01*
X0054252Y0068581D01*
X0054282Y0068537D01*
X0054315Y0068496D01*
X0054351Y0068457D01*
X0054390Y0068421D01*
X0054431Y0068388D01*
X0054475Y0068358D01*
X0054520Y0068331D01*
X0054568Y0068307D01*
X0054617Y0068287D01*
X0054667Y0068270D01*
X0054718Y0068257D01*
X0054770Y0068248D01*
X0054823Y0068242D01*
X0054876Y0068240D01*
X0054876Y0068241D02*
X0055617Y0068241D01*
X0057102Y0068241D02*
X0058678Y0070095D01*
X0058122Y0071578D02*
X0058058Y0071576D01*
X0057994Y0071570D01*
X0057930Y0071561D01*
X0057868Y0071547D01*
X0057806Y0071530D01*
X0057745Y0071510D01*
X0057686Y0071485D01*
X0057628Y0071457D01*
X0057572Y0071426D01*
X0057518Y0071391D01*
X0057466Y0071354D01*
X0057416Y0071313D01*
X0057369Y0071269D01*
X0057325Y0071223D01*
X0057283Y0071174D01*
X0057245Y0071122D01*
X0057210Y0071069D01*
X0057178Y0071013D01*
X0057149Y0070956D01*
X0057124Y0070897D01*
X0057102Y0070836D01*
X0058678Y0070095D02*
X0058717Y0070135D01*
X0058754Y0070177D01*
X0058788Y0070221D01*
X0058819Y0070268D01*
X0058847Y0070316D01*
X0058872Y0070366D01*
X0058894Y0070417D01*
X0058913Y0070469D01*
X0058928Y0070523D01*
X0058940Y0070578D01*
X0058949Y0070633D01*
X0058954Y0070688D01*
X0058956Y0070744D01*
X0058954Y0070801D01*
X0058948Y0070858D01*
X0058939Y0070914D01*
X0058925Y0070969D01*
X0058908Y0071023D01*
X0058887Y0071076D01*
X0058862Y0071128D01*
X0058835Y0071177D01*
X0058803Y0071225D01*
X0058769Y0071270D01*
X0058732Y0071313D01*
X0058691Y0071354D01*
X0058648Y0071391D01*
X0058603Y0071425D01*
X0058555Y0071457D01*
X0058506Y0071484D01*
X0058454Y0071509D01*
X0058401Y0071530D01*
X0058347Y0071547D01*
X0058292Y0071561D01*
X0058236Y0071570D01*
X0058179Y0071576D01*
X0058122Y0071578D01*
X0058956Y0068241D02*
X0057102Y0068241D01*
X0057473Y0067224D02*
X0058956Y0067224D01*
X0057473Y0067224D02*
X0057473Y0063887D01*
X0057473Y0065741D02*
X0058956Y0065741D01*
X0055588Y0065555D02*
X0055588Y0063887D01*
X0054105Y0063887D02*
X0054105Y0066111D01*
X0055032Y0066111D01*
X0055078Y0066109D01*
X0055124Y0066103D01*
X0055168Y0066094D01*
X0055213Y0066081D01*
X0055255Y0066064D01*
X0055297Y0066044D01*
X0055336Y0066020D01*
X0055374Y0065994D01*
X0055409Y0065964D01*
X0055441Y0065932D01*
X0055471Y0065897D01*
X0055497Y0065859D01*
X0055521Y0065820D01*
X0055541Y0065778D01*
X0055558Y0065736D01*
X0055571Y0065691D01*
X0055580Y0065647D01*
X0055586Y0065601D01*
X0055588Y0065555D01*
X0052348Y0064814D02*
X0052346Y0064755D01*
X0052340Y0064695D01*
X0052331Y0064637D01*
X0052318Y0064579D01*
X0052301Y0064522D01*
X0052280Y0064466D01*
X0052256Y0064412D01*
X0052229Y0064359D01*
X0052198Y0064308D01*
X0052164Y0064260D01*
X0052127Y0064213D01*
X0052087Y0064169D01*
X0052044Y0064128D01*
X0051999Y0064089D01*
X0051951Y0064054D01*
X0051902Y0064021D01*
X0051850Y0063992D01*
X0051796Y0063966D01*
X0051741Y0063944D01*
X0051685Y0063925D01*
X0051627Y0063910D01*
X0051569Y0063899D01*
X0051510Y0063891D01*
X0051451Y0063887D01*
X0051391Y0063887D01*
X0051332Y0063891D01*
X0051273Y0063899D01*
X0051215Y0063910D01*
X0051157Y0063925D01*
X0051101Y0063944D01*
X0051046Y0063966D01*
X0050992Y0063992D01*
X0050940Y0064021D01*
X0050891Y0064054D01*
X0050843Y0064089D01*
X0050798Y0064128D01*
X0050755Y0064169D01*
X0050715Y0064213D01*
X0050678Y0064260D01*
X0050644Y0064308D01*
X0050613Y0064359D01*
X0050586Y0064412D01*
X0050562Y0064466D01*
X0050541Y0064522D01*
X0050524Y0064579D01*
X0050511Y0064637D01*
X0050502Y0064695D01*
X0050496Y0064755D01*
X0050494Y0064814D01*
X0050496Y0064873D01*
X0050502Y0064933D01*
X0050511Y0064991D01*
X0050524Y0065049D01*
X0050541Y0065106D01*
X0050562Y0065162D01*
X0050586Y0065216D01*
X0050613Y0065269D01*
X0050644Y0065320D01*
X0050678Y0065368D01*
X0050715Y0065415D01*
X0050755Y0065459D01*
X0050798Y0065500D01*
X0050843Y0065539D01*
X0050891Y0065574D01*
X0050940Y0065607D01*
X0050992Y0065636D01*
X0051046Y0065662D01*
X0051101Y0065684D01*
X0051157Y0065703D01*
X0051215Y0065718D01*
X0051273Y0065729D01*
X0051332Y0065737D01*
X0051391Y0065741D01*
X0051451Y0065741D01*
X0051510Y0065737D01*
X0051569Y0065729D01*
X0051627Y0065718D01*
X0051685Y0065703D01*
X0051741Y0065684D01*
X0051796Y0065662D01*
X0051850Y0065636D01*
X0051902Y0065607D01*
X0051951Y0065574D01*
X0051999Y0065539D01*
X0052044Y0065500D01*
X0052087Y0065459D01*
X0052127Y0065415D01*
X0052164Y0065368D01*
X0052198Y0065320D01*
X0052229Y0065269D01*
X0052256Y0065216D01*
X0052280Y0065162D01*
X0052301Y0065106D01*
X0052318Y0065049D01*
X0052331Y0064991D01*
X0052340Y0064933D01*
X0052346Y0064873D01*
X0052348Y0064814D01*
X0052163Y0066482D02*
X0052161Y0066429D01*
X0052155Y0066376D01*
X0052146Y0066324D01*
X0052133Y0066273D01*
X0052116Y0066223D01*
X0052096Y0066174D01*
X0052072Y0066126D01*
X0052045Y0066081D01*
X0052015Y0066037D01*
X0051982Y0065996D01*
X0051946Y0065957D01*
X0051907Y0065921D01*
X0051866Y0065888D01*
X0051822Y0065858D01*
X0051777Y0065831D01*
X0051729Y0065807D01*
X0051680Y0065787D01*
X0051630Y0065770D01*
X0051579Y0065757D01*
X0051527Y0065748D01*
X0051474Y0065742D01*
X0051421Y0065740D01*
X0051368Y0065742D01*
X0051315Y0065748D01*
X0051263Y0065757D01*
X0051212Y0065770D01*
X0051162Y0065787D01*
X0051113Y0065807D01*
X0051065Y0065831D01*
X0051020Y0065858D01*
X0050976Y0065888D01*
X0050935Y0065921D01*
X0050896Y0065957D01*
X0050860Y0065996D01*
X0050827Y0066037D01*
X0050797Y0066081D01*
X0050770Y0066126D01*
X0050746Y0066174D01*
X0050726Y0066223D01*
X0050709Y0066273D01*
X0050696Y0066324D01*
X0050687Y0066376D01*
X0050681Y0066429D01*
X0050679Y0066482D01*
X0050681Y0066535D01*
X0050687Y0066588D01*
X0050696Y0066640D01*
X0050709Y0066691D01*
X0050726Y0066741D01*
X0050746Y0066790D01*
X0050770Y0066838D01*
X0050797Y0066883D01*
X0050827Y0066927D01*
X0050860Y0066968D01*
X0050896Y0067007D01*
X0050935Y0067043D01*
X0050976Y0067076D01*
X0051020Y0067106D01*
X0051065Y0067133D01*
X0051113Y0067157D01*
X0051162Y0067177D01*
X0051212Y0067194D01*
X0051263Y0067207D01*
X0051315Y0067216D01*
X0051368Y0067222D01*
X0051421Y0067224D01*
X0051474Y0067222D01*
X0051527Y0067216D01*
X0051579Y0067207D01*
X0051630Y0067194D01*
X0051680Y0067177D01*
X0051729Y0067157D01*
X0051777Y0067133D01*
X0051822Y0067106D01*
X0051866Y0067076D01*
X0051907Y0067043D01*
X0051946Y0067007D01*
X0051982Y0066968D01*
X0052015Y0066927D01*
X0052045Y0066883D01*
X0052072Y0066838D01*
X0052096Y0066790D01*
X0052116Y0066741D01*
X0052133Y0066691D01*
X0052146Y0066640D01*
X0052155Y0066588D01*
X0052161Y0066535D01*
X0052163Y0066482D01*
X0048805Y0064999D02*
X0048805Y0064814D01*
X0048805Y0064999D02*
X0048803Y0065052D01*
X0048797Y0065105D01*
X0048788Y0065157D01*
X0048775Y0065208D01*
X0048758Y0065258D01*
X0048738Y0065307D01*
X0048714Y0065355D01*
X0048687Y0065400D01*
X0048657Y0065444D01*
X0048624Y0065485D01*
X0048588Y0065524D01*
X0048549Y0065560D01*
X0048508Y0065593D01*
X0048464Y0065623D01*
X0048419Y0065650D01*
X0048371Y0065674D01*
X0048322Y0065694D01*
X0048272Y0065711D01*
X0048221Y0065724D01*
X0048169Y0065733D01*
X0048116Y0065739D01*
X0048063Y0065741D01*
X0046951Y0065741D01*
X0046951Y0064814D01*
X0046953Y0064755D01*
X0046959Y0064695D01*
X0046968Y0064637D01*
X0046981Y0064579D01*
X0046998Y0064522D01*
X0047019Y0064466D01*
X0047043Y0064412D01*
X0047070Y0064359D01*
X0047101Y0064308D01*
X0047135Y0064260D01*
X0047172Y0064213D01*
X0047212Y0064169D01*
X0047255Y0064128D01*
X0047300Y0064089D01*
X0047348Y0064054D01*
X0047397Y0064021D01*
X0047449Y0063992D01*
X0047503Y0063966D01*
X0047558Y0063944D01*
X0047614Y0063925D01*
X0047672Y0063910D01*
X0047730Y0063899D01*
X0047789Y0063891D01*
X0047848Y0063887D01*
X0047908Y0063887D01*
X0047967Y0063891D01*
X0048026Y0063899D01*
X0048084Y0063910D01*
X0048142Y0063925D01*
X0048198Y0063944D01*
X0048253Y0063966D01*
X0048307Y0063992D01*
X0048359Y0064021D01*
X0048408Y0064054D01*
X0048456Y0064089D01*
X0048501Y0064128D01*
X0048544Y0064169D01*
X0048584Y0064213D01*
X0048621Y0064260D01*
X0048655Y0064308D01*
X0048686Y0064359D01*
X0048713Y0064412D01*
X0048737Y0064466D01*
X0048758Y0064522D01*
X0048775Y0064579D01*
X0048788Y0064637D01*
X0048797Y0064695D01*
X0048803Y0064755D01*
X0048805Y0064814D01*
X0046951Y0065741D02*
X0046953Y0065816D01*
X0046959Y0065891D01*
X0046968Y0065966D01*
X0046981Y0066040D01*
X0046998Y0066113D01*
X0047019Y0066185D01*
X0047043Y0066256D01*
X0047071Y0066326D01*
X0047103Y0066394D01*
X0047137Y0066461D01*
X0047175Y0066525D01*
X0047217Y0066588D01*
X0047261Y0066649D01*
X0047309Y0066707D01*
X0047359Y0066763D01*
X0047412Y0066816D01*
X0047468Y0066866D01*
X0047526Y0066914D01*
X0047587Y0066958D01*
X0047650Y0067000D01*
X0047714Y0067038D01*
X0047781Y0067072D01*
X0047849Y0067104D01*
X0047919Y0067132D01*
X0047990Y0067156D01*
X0048062Y0067177D01*
X0048135Y0067194D01*
X0048209Y0067207D01*
X0048284Y0067216D01*
X0048359Y0067222D01*
X0048434Y0067224D01*
X0048950Y0075467D02*
X0048952Y0075526D01*
X0048958Y0075586D01*
X0048967Y0075644D01*
X0048980Y0075702D01*
X0048997Y0075759D01*
X0049018Y0075815D01*
X0049042Y0075869D01*
X0049069Y0075922D01*
X0049100Y0075973D01*
X0049134Y0076021D01*
X0049171Y0076068D01*
X0049211Y0076112D01*
X0049254Y0076153D01*
X0049299Y0076192D01*
X0049347Y0076227D01*
X0049396Y0076260D01*
X0049448Y0076289D01*
X0049502Y0076315D01*
X0049557Y0076337D01*
X0049613Y0076356D01*
X0049671Y0076371D01*
X0049729Y0076382D01*
X0049788Y0076390D01*
X0049847Y0076394D01*
X0049907Y0076394D01*
X0049966Y0076390D01*
X0050025Y0076382D01*
X0050083Y0076371D01*
X0050141Y0076356D01*
X0050197Y0076337D01*
X0050252Y0076315D01*
X0050306Y0076289D01*
X0050358Y0076260D01*
X0050407Y0076227D01*
X0050455Y0076192D01*
X0050500Y0076153D01*
X0050543Y0076112D01*
X0050583Y0076068D01*
X0050620Y0076021D01*
X0050654Y0075973D01*
X0050685Y0075922D01*
X0050712Y0075869D01*
X0050736Y0075815D01*
X0050757Y0075759D01*
X0050774Y0075702D01*
X0050787Y0075644D01*
X0050796Y0075586D01*
X0050802Y0075526D01*
X0050804Y0075467D01*
X0096625Y0025543D02*
X0096625Y0022947D01*
X0096623Y0022894D01*
X0096617Y0022841D01*
X0096608Y0022789D01*
X0096595Y0022738D01*
X0096578Y0022688D01*
X0096558Y0022639D01*
X0096534Y0022591D01*
X0096507Y0022546D01*
X0096477Y0022502D01*
X0096444Y0022461D01*
X0096408Y0022422D01*
X0096369Y0022386D01*
X0096328Y0022353D01*
X0096284Y0022323D01*
X0096239Y0022296D01*
X0096191Y0022272D01*
X0096142Y0022252D01*
X0096092Y0022235D01*
X0096041Y0022222D01*
X0095989Y0022213D01*
X0095936Y0022207D01*
X0095883Y0022205D01*
X0095883Y0022206D02*
X0095513Y0022206D01*
X0098412Y0022206D02*
X0099524Y0022206D01*
X0099524Y0022205D02*
X0099577Y0022207D01*
X0099630Y0022213D01*
X0099682Y0022222D01*
X0099733Y0022235D01*
X0099783Y0022252D01*
X0099832Y0022272D01*
X0099880Y0022296D01*
X0099925Y0022323D01*
X0099969Y0022353D01*
X0100010Y0022386D01*
X0100049Y0022422D01*
X0100085Y0022461D01*
X0100118Y0022502D01*
X0100148Y0022546D01*
X0100175Y0022591D01*
X0100199Y0022639D01*
X0100219Y0022688D01*
X0100236Y0022738D01*
X0100249Y0022789D01*
X0100258Y0022841D01*
X0100264Y0022894D01*
X0100266Y0022947D01*
X0100265Y0022947D02*
X0100265Y0023318D01*
X0100266Y0023318D02*
X0100264Y0023371D01*
X0100258Y0023424D01*
X0100249Y0023476D01*
X0100236Y0023527D01*
X0100219Y0023577D01*
X0100199Y0023626D01*
X0100175Y0023674D01*
X0100148Y0023719D01*
X0100118Y0023763D01*
X0100085Y0023804D01*
X0100049Y0023843D01*
X0100010Y0023879D01*
X0099969Y0023912D01*
X0099925Y0023942D01*
X0099880Y0023969D01*
X0099832Y0023993D01*
X0099783Y0024013D01*
X0099733Y0024030D01*
X0099682Y0024043D01*
X0099630Y0024052D01*
X0099577Y0024058D01*
X0099524Y0024060D01*
X0099524Y0024059D02*
X0098412Y0024059D01*
X0098412Y0025543D01*
X0100265Y0025543D01*
X0133308Y0021812D02*
X0133679Y0021812D01*
X0133679Y0021811D02*
X0133732Y0021813D01*
X0133785Y0021819D01*
X0133837Y0021828D01*
X0133888Y0021841D01*
X0133938Y0021858D01*
X0133987Y0021878D01*
X0134035Y0021902D01*
X0134080Y0021929D01*
X0134124Y0021959D01*
X0134165Y0021992D01*
X0134204Y0022028D01*
X0134240Y0022067D01*
X0134273Y0022108D01*
X0134303Y0022152D01*
X0134330Y0022197D01*
X0134354Y0022245D01*
X0134374Y0022294D01*
X0134391Y0022344D01*
X0134404Y0022395D01*
X0134413Y0022447D01*
X0134419Y0022500D01*
X0134421Y0022553D01*
X0134420Y0022553D02*
X0134420Y0025149D01*
X0136207Y0025149D02*
X0137319Y0025149D01*
X0137372Y0025147D01*
X0137425Y0025141D01*
X0137477Y0025132D01*
X0137528Y0025119D01*
X0137578Y0025102D01*
X0137627Y0025082D01*
X0137675Y0025058D01*
X0137720Y0025031D01*
X0137764Y0025001D01*
X0137805Y0024968D01*
X0137844Y0024932D01*
X0137880Y0024893D01*
X0137913Y0024852D01*
X0137943Y0024808D01*
X0137970Y0024763D01*
X0137994Y0024715D01*
X0138014Y0024666D01*
X0138031Y0024616D01*
X0138044Y0024565D01*
X0138053Y0024513D01*
X0138059Y0024460D01*
X0138061Y0024407D01*
X0138059Y0024354D01*
X0138053Y0024301D01*
X0138044Y0024249D01*
X0138031Y0024198D01*
X0138014Y0024148D01*
X0137994Y0024099D01*
X0137970Y0024051D01*
X0137943Y0024006D01*
X0137913Y0023962D01*
X0137880Y0023921D01*
X0137844Y0023882D01*
X0137805Y0023846D01*
X0137764Y0023813D01*
X0137720Y0023783D01*
X0137675Y0023756D01*
X0137627Y0023732D01*
X0137578Y0023712D01*
X0137528Y0023695D01*
X0137477Y0023682D01*
X0137425Y0023673D01*
X0137372Y0023667D01*
X0137319Y0023665D01*
X0137319Y0023666D02*
X0136578Y0023666D01*
X0137134Y0023666D02*
X0137193Y0023664D01*
X0137253Y0023658D01*
X0137311Y0023649D01*
X0137369Y0023636D01*
X0137426Y0023619D01*
X0137482Y0023598D01*
X0137536Y0023574D01*
X0137589Y0023547D01*
X0137640Y0023516D01*
X0137688Y0023482D01*
X0137735Y0023445D01*
X0137779Y0023405D01*
X0137820Y0023362D01*
X0137859Y0023317D01*
X0137894Y0023269D01*
X0137927Y0023220D01*
X0137956Y0023168D01*
X0137982Y0023114D01*
X0138004Y0023059D01*
X0138023Y0023003D01*
X0138038Y0022945D01*
X0138049Y0022887D01*
X0138057Y0022828D01*
X0138061Y0022769D01*
X0138061Y0022709D01*
X0138057Y0022650D01*
X0138049Y0022591D01*
X0138038Y0022533D01*
X0138023Y0022475D01*
X0138004Y0022419D01*
X0137982Y0022364D01*
X0137956Y0022310D01*
X0137927Y0022258D01*
X0137894Y0022209D01*
X0137859Y0022161D01*
X0137820Y0022116D01*
X0137779Y0022073D01*
X0137735Y0022033D01*
X0137688Y0021996D01*
X0137640Y0021962D01*
X0137589Y0021931D01*
X0137536Y0021904D01*
X0137482Y0021880D01*
X0137426Y0021859D01*
X0137369Y0021842D01*
X0137311Y0021829D01*
X0137253Y0021820D01*
X0137193Y0021814D01*
X0137134Y0021812D01*
X0136207Y0021812D01*
D14*
X0110714Y0038492D02*
X0110671Y0038583D01*
X0110632Y0038676D01*
X0110597Y0038771D01*
X0110565Y0038866D01*
X0110537Y0038963D01*
X0110512Y0039061D01*
X0110492Y0039160D01*
X0110474Y0039259D01*
X0110461Y0039359D01*
X0110452Y0039459D01*
X0110446Y0039560D01*
X0110444Y0039661D01*
X0112243Y0039661D02*
X0112241Y0039762D01*
X0112235Y0039863D01*
X0112226Y0039963D01*
X0112213Y0040063D01*
X0112195Y0040162D01*
X0112175Y0040261D01*
X0112150Y0040359D01*
X0112122Y0040456D01*
X0112090Y0040551D01*
X0112055Y0040646D01*
X0112016Y0040739D01*
X0111973Y0040830D01*
X0112063Y0040561D02*
X0110624Y0038762D01*
X0111344Y0038043D02*
X0111392Y0038045D01*
X0111441Y0038050D01*
X0111488Y0038059D01*
X0111535Y0038071D01*
X0111581Y0038087D01*
X0111626Y0038106D01*
X0111669Y0038128D01*
X0111711Y0038153D01*
X0111750Y0038181D01*
X0111787Y0038212D01*
X0111822Y0038246D01*
X0111855Y0038282D01*
X0111884Y0038320D01*
X0111911Y0038361D01*
X0111935Y0038403D01*
X0111956Y0038447D01*
X0111973Y0038492D01*
X0111344Y0038043D02*
X0111296Y0038045D01*
X0111247Y0038050D01*
X0111200Y0038059D01*
X0111153Y0038071D01*
X0111107Y0038087D01*
X0111062Y0038106D01*
X0111019Y0038128D01*
X0110977Y0038153D01*
X0110938Y0038181D01*
X0110901Y0038212D01*
X0110866Y0038246D01*
X0110833Y0038282D01*
X0110804Y0038320D01*
X0110777Y0038361D01*
X0110753Y0038403D01*
X0110732Y0038447D01*
X0110715Y0038492D01*
X0111973Y0038492D02*
X0112016Y0038583D01*
X0112055Y0038676D01*
X0112090Y0038771D01*
X0112122Y0038866D01*
X0112150Y0038963D01*
X0112175Y0039061D01*
X0112195Y0039160D01*
X0112213Y0039259D01*
X0112226Y0039359D01*
X0112235Y0039459D01*
X0112241Y0039560D01*
X0112243Y0039661D01*
X0110445Y0039661D02*
X0110447Y0039762D01*
X0110453Y0039862D01*
X0110462Y0039963D01*
X0110475Y0040063D01*
X0110492Y0040162D01*
X0110513Y0040261D01*
X0110538Y0040358D01*
X0110566Y0040455D01*
X0110598Y0040551D01*
X0110633Y0040645D01*
X0110672Y0040738D01*
X0110715Y0040830D01*
X0111344Y0041280D02*
X0111392Y0041278D01*
X0111441Y0041273D01*
X0111488Y0041264D01*
X0111535Y0041252D01*
X0111581Y0041236D01*
X0111626Y0041217D01*
X0111669Y0041195D01*
X0111711Y0041170D01*
X0111750Y0041142D01*
X0111787Y0041111D01*
X0111822Y0041077D01*
X0111855Y0041041D01*
X0111884Y0041003D01*
X0111911Y0040962D01*
X0111935Y0040920D01*
X0111956Y0040876D01*
X0111973Y0040831D01*
X0111344Y0041280D02*
X0111296Y0041278D01*
X0111247Y0041273D01*
X0111200Y0041264D01*
X0111153Y0041252D01*
X0111107Y0041236D01*
X0111062Y0041217D01*
X0111019Y0041195D01*
X0110977Y0041170D01*
X0110938Y0041142D01*
X0110901Y0041111D01*
X0110866Y0041077D01*
X0110833Y0041041D01*
X0110804Y0041003D01*
X0110777Y0040962D01*
X0110753Y0040920D01*
X0110732Y0040876D01*
X0110715Y0040831D01*
X0108700Y0041280D02*
X0106901Y0041280D01*
X0106901Y0039841D01*
X0107980Y0039841D01*
X0108031Y0039839D01*
X0108082Y0039834D01*
X0108133Y0039825D01*
X0108183Y0039812D01*
X0108231Y0039796D01*
X0108279Y0039776D01*
X0108325Y0039753D01*
X0108369Y0039727D01*
X0108411Y0039698D01*
X0108451Y0039665D01*
X0108488Y0039630D01*
X0108523Y0039593D01*
X0108556Y0039553D01*
X0108585Y0039511D01*
X0108611Y0039467D01*
X0108634Y0039421D01*
X0108654Y0039373D01*
X0108670Y0039325D01*
X0108683Y0039275D01*
X0108692Y0039224D01*
X0108697Y0039173D01*
X0108699Y0039122D01*
X0108700Y0039122D02*
X0108700Y0038762D01*
X0108699Y0038762D02*
X0108697Y0038711D01*
X0108692Y0038660D01*
X0108683Y0038609D01*
X0108670Y0038559D01*
X0108654Y0038511D01*
X0108634Y0038463D01*
X0108611Y0038417D01*
X0108585Y0038373D01*
X0108556Y0038331D01*
X0108523Y0038291D01*
X0108488Y0038254D01*
X0108451Y0038219D01*
X0108411Y0038186D01*
X0108369Y0038157D01*
X0108325Y0038131D01*
X0108279Y0038108D01*
X0108231Y0038088D01*
X0108183Y0038072D01*
X0108133Y0038059D01*
X0108082Y0038050D01*
X0108031Y0038045D01*
X0107980Y0038043D01*
X0106901Y0038043D01*
X0105156Y0038043D02*
X0103358Y0038043D01*
X0104257Y0038043D02*
X0104257Y0041280D01*
X0103358Y0040561D01*
X0101523Y0038852D02*
X0099904Y0038852D01*
X0099635Y0038043D02*
X0100714Y0041280D01*
X0101793Y0038043D01*
X0098070Y0038762D02*
X0096271Y0038762D01*
X0096991Y0041280D01*
X0097530Y0039482D02*
X0097530Y0038043D01*
X0092998Y0038492D02*
X0092955Y0038583D01*
X0092916Y0038676D01*
X0092881Y0038771D01*
X0092849Y0038866D01*
X0092821Y0038963D01*
X0092796Y0039061D01*
X0092776Y0039160D01*
X0092758Y0039259D01*
X0092745Y0039359D01*
X0092736Y0039459D01*
X0092730Y0039560D01*
X0092728Y0039661D01*
X0094527Y0039661D02*
X0094525Y0039762D01*
X0094519Y0039863D01*
X0094510Y0039963D01*
X0094497Y0040063D01*
X0094479Y0040162D01*
X0094459Y0040261D01*
X0094434Y0040359D01*
X0094406Y0040456D01*
X0094374Y0040551D01*
X0094339Y0040646D01*
X0094300Y0040739D01*
X0094257Y0040830D01*
X0094346Y0040561D02*
X0092908Y0038762D01*
X0093627Y0038043D02*
X0093675Y0038045D01*
X0093724Y0038050D01*
X0093771Y0038059D01*
X0093818Y0038071D01*
X0093864Y0038087D01*
X0093909Y0038106D01*
X0093952Y0038128D01*
X0093994Y0038153D01*
X0094033Y0038181D01*
X0094070Y0038212D01*
X0094105Y0038246D01*
X0094138Y0038282D01*
X0094167Y0038320D01*
X0094194Y0038361D01*
X0094218Y0038403D01*
X0094239Y0038447D01*
X0094256Y0038492D01*
X0093627Y0038043D02*
X0093579Y0038045D01*
X0093530Y0038050D01*
X0093483Y0038059D01*
X0093436Y0038071D01*
X0093390Y0038087D01*
X0093345Y0038106D01*
X0093302Y0038128D01*
X0093260Y0038153D01*
X0093221Y0038181D01*
X0093184Y0038212D01*
X0093149Y0038246D01*
X0093116Y0038282D01*
X0093087Y0038320D01*
X0093060Y0038361D01*
X0093036Y0038403D01*
X0093015Y0038447D01*
X0092998Y0038492D01*
X0094257Y0038492D02*
X0094300Y0038583D01*
X0094339Y0038676D01*
X0094374Y0038771D01*
X0094406Y0038866D01*
X0094434Y0038963D01*
X0094459Y0039061D01*
X0094479Y0039160D01*
X0094497Y0039259D01*
X0094510Y0039359D01*
X0094519Y0039459D01*
X0094525Y0039560D01*
X0094527Y0039661D01*
X0092728Y0039661D02*
X0092730Y0039762D01*
X0092736Y0039862D01*
X0092745Y0039963D01*
X0092758Y0040063D01*
X0092775Y0040162D01*
X0092796Y0040261D01*
X0092821Y0040358D01*
X0092849Y0040455D01*
X0092881Y0040551D01*
X0092916Y0040645D01*
X0092955Y0040738D01*
X0092998Y0040830D01*
X0093627Y0041280D02*
X0093675Y0041278D01*
X0093724Y0041273D01*
X0093771Y0041264D01*
X0093818Y0041252D01*
X0093864Y0041236D01*
X0093909Y0041217D01*
X0093952Y0041195D01*
X0093994Y0041170D01*
X0094033Y0041142D01*
X0094070Y0041111D01*
X0094105Y0041077D01*
X0094138Y0041041D01*
X0094167Y0041003D01*
X0094194Y0040962D01*
X0094218Y0040920D01*
X0094239Y0040876D01*
X0094256Y0040831D01*
X0093627Y0041280D02*
X0093579Y0041278D01*
X0093530Y0041273D01*
X0093483Y0041264D01*
X0093436Y0041252D01*
X0093390Y0041236D01*
X0093345Y0041217D01*
X0093302Y0041195D01*
X0093260Y0041170D01*
X0093221Y0041142D01*
X0093184Y0041111D01*
X0093149Y0041077D01*
X0093116Y0041041D01*
X0093087Y0041003D01*
X0093060Y0040962D01*
X0093036Y0040920D01*
X0093015Y0040876D01*
X0092998Y0040831D01*
X0090865Y0041280D02*
X0090865Y0038043D01*
X0089067Y0041280D01*
X0089067Y0038043D01*
X0086304Y0038043D02*
X0087383Y0041280D01*
X0085225Y0041280D02*
X0086304Y0038043D01*
X0083896Y0041280D02*
X0082098Y0041280D01*
X0082997Y0041280D02*
X0082997Y0038043D01*
X0080348Y0039392D02*
X0079359Y0039931D01*
X0079718Y0041280D02*
X0079790Y0041278D01*
X0079862Y0041272D01*
X0079934Y0041263D01*
X0080005Y0041249D01*
X0080075Y0041232D01*
X0080145Y0041211D01*
X0080213Y0041186D01*
X0080279Y0041158D01*
X0080344Y0041126D01*
X0080407Y0041091D01*
X0080468Y0041052D01*
X0080527Y0041010D01*
X0079359Y0039931D02*
X0079316Y0039958D01*
X0079276Y0039988D01*
X0079237Y0040021D01*
X0079201Y0040057D01*
X0079167Y0040094D01*
X0079136Y0040134D01*
X0079108Y0040177D01*
X0079083Y0040221D01*
X0079061Y0040266D01*
X0079042Y0040313D01*
X0079027Y0040361D01*
X0079015Y0040410D01*
X0079006Y0040460D01*
X0079001Y0040510D01*
X0078999Y0040561D01*
X0079001Y0040612D01*
X0079006Y0040663D01*
X0079015Y0040714D01*
X0079028Y0040764D01*
X0079044Y0040812D01*
X0079064Y0040860D01*
X0079087Y0040906D01*
X0079113Y0040950D01*
X0079142Y0040992D01*
X0079175Y0041032D01*
X0079210Y0041069D01*
X0079247Y0041104D01*
X0079287Y0041137D01*
X0079329Y0041166D01*
X0079373Y0041192D01*
X0079419Y0041215D01*
X0079467Y0041235D01*
X0079515Y0041251D01*
X0079565Y0041264D01*
X0079616Y0041273D01*
X0079667Y0041278D01*
X0079718Y0041280D01*
X0078909Y0038492D02*
X0078963Y0038440D01*
X0079019Y0038391D01*
X0079078Y0038344D01*
X0079140Y0038301D01*
X0079203Y0038261D01*
X0079268Y0038223D01*
X0079335Y0038189D01*
X0079403Y0038159D01*
X0079473Y0038132D01*
X0079544Y0038108D01*
X0079617Y0038088D01*
X0079690Y0038072D01*
X0079764Y0038059D01*
X0079838Y0038049D01*
X0079913Y0038044D01*
X0079988Y0038042D01*
X0079988Y0038043D02*
X0080039Y0038045D01*
X0080090Y0038050D01*
X0080141Y0038059D01*
X0080191Y0038072D01*
X0080239Y0038088D01*
X0080287Y0038108D01*
X0080333Y0038131D01*
X0080377Y0038157D01*
X0080419Y0038186D01*
X0080459Y0038219D01*
X0080496Y0038254D01*
X0080531Y0038291D01*
X0080564Y0038331D01*
X0080593Y0038373D01*
X0080619Y0038417D01*
X0080642Y0038463D01*
X0080662Y0038511D01*
X0080678Y0038559D01*
X0080691Y0038609D01*
X0080700Y0038660D01*
X0080705Y0038711D01*
X0080707Y0038762D01*
X0080708Y0038762D02*
X0080706Y0038813D01*
X0080701Y0038863D01*
X0080692Y0038913D01*
X0080680Y0038962D01*
X0080665Y0039010D01*
X0080646Y0039057D01*
X0080624Y0039102D01*
X0080599Y0039146D01*
X0080571Y0039189D01*
X0080540Y0039229D01*
X0080506Y0039266D01*
X0080470Y0039302D01*
X0080431Y0039335D01*
X0080391Y0039365D01*
X0080348Y0039392D01*
X0077282Y0038942D02*
X0077282Y0040381D01*
X0077280Y0040440D01*
X0077274Y0040498D01*
X0077265Y0040556D01*
X0077251Y0040614D01*
X0077234Y0040670D01*
X0077214Y0040725D01*
X0077189Y0040779D01*
X0077162Y0040831D01*
X0077130Y0040880D01*
X0077096Y0040928D01*
X0077059Y0040974D01*
X0077019Y0041017D01*
X0076976Y0041057D01*
X0076930Y0041094D01*
X0076882Y0041128D01*
X0076833Y0041160D01*
X0076781Y0041187D01*
X0076727Y0041212D01*
X0076672Y0041232D01*
X0076616Y0041249D01*
X0076558Y0041263D01*
X0076500Y0041272D01*
X0076442Y0041278D01*
X0076383Y0041280D01*
X0076324Y0041278D01*
X0076266Y0041272D01*
X0076208Y0041263D01*
X0076150Y0041249D01*
X0076094Y0041232D01*
X0076039Y0041212D01*
X0075985Y0041187D01*
X0075934Y0041160D01*
X0075884Y0041128D01*
X0075836Y0041094D01*
X0075790Y0041057D01*
X0075747Y0041017D01*
X0075707Y0040974D01*
X0075670Y0040928D01*
X0075636Y0040880D01*
X0075604Y0040831D01*
X0075577Y0040779D01*
X0075552Y0040725D01*
X0075532Y0040670D01*
X0075515Y0040614D01*
X0075501Y0040556D01*
X0075492Y0040498D01*
X0075486Y0040440D01*
X0075484Y0040381D01*
X0075484Y0038942D01*
X0075486Y0038883D01*
X0075492Y0038825D01*
X0075501Y0038767D01*
X0075515Y0038709D01*
X0075532Y0038653D01*
X0075552Y0038598D01*
X0075577Y0038544D01*
X0075604Y0038493D01*
X0075636Y0038443D01*
X0075670Y0038395D01*
X0075707Y0038349D01*
X0075747Y0038306D01*
X0075790Y0038266D01*
X0075836Y0038229D01*
X0075884Y0038195D01*
X0075934Y0038163D01*
X0075985Y0038136D01*
X0076039Y0038111D01*
X0076094Y0038091D01*
X0076150Y0038074D01*
X0076208Y0038060D01*
X0076266Y0038051D01*
X0076324Y0038045D01*
X0076383Y0038043D01*
X0076442Y0038045D01*
X0076500Y0038051D01*
X0076558Y0038060D01*
X0076616Y0038074D01*
X0076672Y0038091D01*
X0076727Y0038111D01*
X0076781Y0038136D01*
X0076833Y0038163D01*
X0076882Y0038195D01*
X0076930Y0038229D01*
X0076976Y0038266D01*
X0077019Y0038306D01*
X0077059Y0038349D01*
X0077096Y0038395D01*
X0077130Y0038443D01*
X0077162Y0038493D01*
X0077189Y0038544D01*
X0077214Y0038598D01*
X0077234Y0038653D01*
X0077251Y0038709D01*
X0077265Y0038767D01*
X0077274Y0038825D01*
X0077280Y0038883D01*
X0077282Y0038942D01*
X0098988Y0063161D02*
X0100088Y0066461D01*
X0101188Y0063161D01*
X0100913Y0063986D02*
X0099263Y0063986D01*
X0102891Y0063161D02*
X0103808Y0063161D01*
X0103866Y0063163D01*
X0103923Y0063168D01*
X0103980Y0063177D01*
X0104036Y0063190D01*
X0104091Y0063206D01*
X0104146Y0063225D01*
X0104198Y0063248D01*
X0104250Y0063274D01*
X0104299Y0063304D01*
X0104347Y0063336D01*
X0104393Y0063371D01*
X0104436Y0063410D01*
X0104476Y0063450D01*
X0104515Y0063493D01*
X0104550Y0063539D01*
X0104582Y0063587D01*
X0104612Y0063636D01*
X0104638Y0063688D01*
X0104661Y0063740D01*
X0104680Y0063795D01*
X0104696Y0063850D01*
X0104709Y0063906D01*
X0104718Y0063963D01*
X0104723Y0064020D01*
X0104725Y0064078D01*
X0104724Y0064078D02*
X0104724Y0065544D01*
X0104725Y0065544D02*
X0104723Y0065602D01*
X0104718Y0065659D01*
X0104709Y0065716D01*
X0104696Y0065772D01*
X0104680Y0065827D01*
X0104661Y0065882D01*
X0104638Y0065934D01*
X0104612Y0065986D01*
X0104582Y0066035D01*
X0104550Y0066083D01*
X0104515Y0066129D01*
X0104476Y0066172D01*
X0104436Y0066212D01*
X0104393Y0066251D01*
X0104347Y0066286D01*
X0104299Y0066318D01*
X0104250Y0066348D01*
X0104198Y0066374D01*
X0104146Y0066397D01*
X0104091Y0066416D01*
X0104036Y0066432D01*
X0103980Y0066445D01*
X0103923Y0066454D01*
X0103866Y0066459D01*
X0103808Y0066461D01*
X0102891Y0066461D01*
X0102891Y0063161D01*
X0106611Y0064078D02*
X0106613Y0064019D01*
X0106619Y0063961D01*
X0106628Y0063903D01*
X0106641Y0063845D01*
X0106658Y0063789D01*
X0106678Y0063734D01*
X0106702Y0063680D01*
X0106729Y0063628D01*
X0106759Y0063578D01*
X0106793Y0063530D01*
X0106830Y0063484D01*
X0106869Y0063440D01*
X0106912Y0063399D01*
X0106956Y0063361D01*
X0107003Y0063326D01*
X0107053Y0063294D01*
X0107104Y0063265D01*
X0107157Y0063239D01*
X0107211Y0063217D01*
X0107267Y0063199D01*
X0107324Y0063184D01*
X0107382Y0063173D01*
X0107440Y0063165D01*
X0107499Y0063161D01*
X0107557Y0063161D01*
X0107616Y0063165D01*
X0107674Y0063173D01*
X0107732Y0063184D01*
X0107789Y0063199D01*
X0107845Y0063217D01*
X0107899Y0063239D01*
X0107952Y0063265D01*
X0108003Y0063294D01*
X0108053Y0063326D01*
X0108100Y0063361D01*
X0108144Y0063399D01*
X0108187Y0063440D01*
X0108226Y0063484D01*
X0108263Y0063530D01*
X0108297Y0063578D01*
X0108327Y0063628D01*
X0108354Y0063680D01*
X0108378Y0063734D01*
X0108398Y0063789D01*
X0108415Y0063845D01*
X0108428Y0063903D01*
X0108437Y0063961D01*
X0108443Y0064019D01*
X0108445Y0064078D01*
X0108443Y0064137D01*
X0108437Y0064195D01*
X0108428Y0064253D01*
X0108415Y0064311D01*
X0108398Y0064367D01*
X0108378Y0064422D01*
X0108354Y0064476D01*
X0108327Y0064528D01*
X0108297Y0064578D01*
X0108263Y0064626D01*
X0108226Y0064672D01*
X0108187Y0064716D01*
X0108144Y0064757D01*
X0108100Y0064795D01*
X0108053Y0064830D01*
X0108003Y0064862D01*
X0107952Y0064891D01*
X0107899Y0064917D01*
X0107845Y0064939D01*
X0107789Y0064957D01*
X0107732Y0064972D01*
X0107674Y0064983D01*
X0107616Y0064991D01*
X0107557Y0064995D01*
X0107499Y0064995D01*
X0107440Y0064991D01*
X0107382Y0064983D01*
X0107324Y0064972D01*
X0107267Y0064957D01*
X0107211Y0064939D01*
X0107157Y0064917D01*
X0107104Y0064891D01*
X0107053Y0064862D01*
X0107003Y0064830D01*
X0106956Y0064795D01*
X0106912Y0064757D01*
X0106869Y0064716D01*
X0106830Y0064672D01*
X0106793Y0064626D01*
X0106759Y0064578D01*
X0106729Y0064528D01*
X0106702Y0064476D01*
X0106678Y0064422D01*
X0106658Y0064367D01*
X0106641Y0064311D01*
X0106628Y0064253D01*
X0106619Y0064195D01*
X0106613Y0064137D01*
X0106611Y0064078D01*
X0106795Y0065728D02*
X0106797Y0065676D01*
X0106802Y0065624D01*
X0106812Y0065572D01*
X0106825Y0065521D01*
X0106841Y0065472D01*
X0106861Y0065424D01*
X0106885Y0065377D01*
X0106911Y0065332D01*
X0106941Y0065289D01*
X0106974Y0065248D01*
X0107010Y0065210D01*
X0107048Y0065174D01*
X0107089Y0065141D01*
X0107132Y0065111D01*
X0107177Y0065085D01*
X0107224Y0065061D01*
X0107272Y0065041D01*
X0107321Y0065025D01*
X0107372Y0065012D01*
X0107424Y0065002D01*
X0107476Y0064997D01*
X0107528Y0064995D01*
X0107580Y0064997D01*
X0107632Y0065002D01*
X0107684Y0065012D01*
X0107735Y0065025D01*
X0107784Y0065041D01*
X0107832Y0065061D01*
X0107879Y0065085D01*
X0107924Y0065111D01*
X0107967Y0065141D01*
X0108008Y0065174D01*
X0108046Y0065210D01*
X0108082Y0065248D01*
X0108115Y0065289D01*
X0108145Y0065332D01*
X0108171Y0065377D01*
X0108195Y0065424D01*
X0108215Y0065472D01*
X0108231Y0065521D01*
X0108244Y0065572D01*
X0108254Y0065624D01*
X0108259Y0065676D01*
X0108261Y0065728D01*
X0108259Y0065780D01*
X0108254Y0065832D01*
X0108244Y0065884D01*
X0108231Y0065935D01*
X0108215Y0065984D01*
X0108195Y0066032D01*
X0108171Y0066079D01*
X0108145Y0066124D01*
X0108115Y0066167D01*
X0108082Y0066208D01*
X0108046Y0066246D01*
X0108008Y0066282D01*
X0107967Y0066315D01*
X0107924Y0066345D01*
X0107879Y0066371D01*
X0107832Y0066395D01*
X0107784Y0066415D01*
X0107735Y0066431D01*
X0107684Y0066444D01*
X0107632Y0066454D01*
X0107580Y0066459D01*
X0107528Y0066461D01*
X0107476Y0066459D01*
X0107424Y0066454D01*
X0107372Y0066444D01*
X0107321Y0066431D01*
X0107272Y0066415D01*
X0107224Y0066395D01*
X0107177Y0066371D01*
X0107132Y0066345D01*
X0107089Y0066315D01*
X0107048Y0066282D01*
X0107010Y0066246D01*
X0106974Y0066208D01*
X0106941Y0066167D01*
X0106911Y0066124D01*
X0106885Y0066079D01*
X0106861Y0066032D01*
X0106841Y0065984D01*
X0106825Y0065935D01*
X0106812Y0065884D01*
X0106802Y0065832D01*
X0106797Y0065780D01*
X0106795Y0065728D01*
X0110211Y0064994D02*
X0110211Y0066461D01*
X0112044Y0066461D01*
X0111311Y0064994D02*
X0110211Y0064994D01*
X0111311Y0064994D02*
X0111363Y0064992D01*
X0111415Y0064987D01*
X0111467Y0064977D01*
X0111518Y0064964D01*
X0111567Y0064948D01*
X0111615Y0064928D01*
X0111662Y0064904D01*
X0111707Y0064878D01*
X0111750Y0064848D01*
X0111791Y0064815D01*
X0111829Y0064779D01*
X0111865Y0064741D01*
X0111898Y0064700D01*
X0111928Y0064657D01*
X0111954Y0064612D01*
X0111978Y0064565D01*
X0111998Y0064517D01*
X0112014Y0064468D01*
X0112027Y0064417D01*
X0112037Y0064365D01*
X0112042Y0064313D01*
X0112044Y0064261D01*
X0112044Y0063894D01*
X0112042Y0063842D01*
X0112037Y0063790D01*
X0112027Y0063738D01*
X0112014Y0063687D01*
X0111998Y0063638D01*
X0111978Y0063590D01*
X0111954Y0063543D01*
X0111928Y0063498D01*
X0111898Y0063455D01*
X0111865Y0063414D01*
X0111829Y0063376D01*
X0111791Y0063340D01*
X0111750Y0063307D01*
X0111707Y0063277D01*
X0111662Y0063251D01*
X0111616Y0063227D01*
X0111567Y0063207D01*
X0111518Y0063191D01*
X0111467Y0063178D01*
X0111415Y0063168D01*
X0111363Y0063163D01*
X0111311Y0063161D01*
X0110211Y0063161D01*
X0113811Y0063161D02*
X0115644Y0063161D01*
X0114728Y0063161D02*
X0114728Y0066461D01*
X0113811Y0065728D01*
X0117411Y0063161D02*
X0119244Y0063161D01*
X0117411Y0063161D02*
X0118969Y0064994D01*
X0118419Y0066461D02*
X0118356Y0066459D01*
X0118292Y0066453D01*
X0118230Y0066444D01*
X0118168Y0066431D01*
X0118106Y0066414D01*
X0118046Y0066393D01*
X0117988Y0066369D01*
X0117930Y0066342D01*
X0117875Y0066311D01*
X0117821Y0066277D01*
X0117770Y0066239D01*
X0117721Y0066199D01*
X0117675Y0066156D01*
X0117631Y0066110D01*
X0117590Y0066061D01*
X0117552Y0066011D01*
X0117517Y0065958D01*
X0117485Y0065903D01*
X0117457Y0065846D01*
X0117432Y0065787D01*
X0117411Y0065728D01*
X0118969Y0064994D02*
X0119008Y0065034D01*
X0119044Y0065075D01*
X0119078Y0065119D01*
X0119108Y0065165D01*
X0119136Y0065213D01*
X0119161Y0065262D01*
X0119183Y0065313D01*
X0119201Y0065364D01*
X0119217Y0065418D01*
X0119229Y0065471D01*
X0119237Y0065526D01*
X0119242Y0065581D01*
X0119244Y0065636D01*
X0119242Y0065692D01*
X0119236Y0065748D01*
X0119227Y0065804D01*
X0119213Y0065859D01*
X0119196Y0065912D01*
X0119176Y0065965D01*
X0119152Y0066016D01*
X0119124Y0066065D01*
X0119093Y0066112D01*
X0119059Y0066157D01*
X0119022Y0066199D01*
X0118982Y0066239D01*
X0118940Y0066276D01*
X0118895Y0066310D01*
X0118848Y0066341D01*
X0118799Y0066369D01*
X0118748Y0066393D01*
X0118695Y0066413D01*
X0118642Y0066430D01*
X0118587Y0066444D01*
X0118531Y0066453D01*
X0118475Y0066459D01*
X0118419Y0066461D01*
X0114538Y0090307D02*
X0114538Y0093607D01*
X0113438Y0091773D01*
X0112338Y0093607D01*
X0112338Y0090307D01*
X0108837Y0090766D02*
X0108794Y0090859D01*
X0108754Y0090954D01*
X0108718Y0091050D01*
X0108685Y0091147D01*
X0108657Y0091246D01*
X0108632Y0091346D01*
X0108610Y0091446D01*
X0108593Y0091547D01*
X0108579Y0091649D01*
X0108570Y0091752D01*
X0108564Y0091854D01*
X0108562Y0091957D01*
X0105237Y0090766D02*
X0105194Y0090859D01*
X0105154Y0090954D01*
X0105118Y0091050D01*
X0105085Y0091147D01*
X0105057Y0091246D01*
X0105032Y0091346D01*
X0105010Y0091446D01*
X0104993Y0091547D01*
X0104979Y0091649D01*
X0104970Y0091752D01*
X0104964Y0091854D01*
X0104962Y0091957D01*
X0106795Y0091957D02*
X0106793Y0092060D01*
X0106787Y0092162D01*
X0106778Y0092265D01*
X0106764Y0092367D01*
X0106747Y0092468D01*
X0106725Y0092568D01*
X0106700Y0092668D01*
X0106672Y0092767D01*
X0106639Y0092864D01*
X0106603Y0092960D01*
X0106563Y0093055D01*
X0106520Y0093148D01*
X0106612Y0092873D02*
X0105145Y0091040D01*
X0105878Y0090307D02*
X0105927Y0090309D01*
X0105977Y0090314D01*
X0106025Y0090323D01*
X0106073Y0090336D01*
X0106120Y0090352D01*
X0106165Y0090371D01*
X0106209Y0090394D01*
X0106252Y0090419D01*
X0106292Y0090448D01*
X0106330Y0090480D01*
X0106366Y0090514D01*
X0106399Y0090551D01*
X0106429Y0090590D01*
X0106456Y0090631D01*
X0106481Y0090674D01*
X0106502Y0090719D01*
X0106519Y0090765D01*
X0105878Y0090307D02*
X0105829Y0090309D01*
X0105779Y0090314D01*
X0105731Y0090323D01*
X0105683Y0090336D01*
X0105636Y0090352D01*
X0105591Y0090371D01*
X0105547Y0090394D01*
X0105504Y0090419D01*
X0105464Y0090448D01*
X0105426Y0090480D01*
X0105390Y0090514D01*
X0105357Y0090551D01*
X0105327Y0090590D01*
X0105300Y0090631D01*
X0105275Y0090674D01*
X0105254Y0090719D01*
X0105237Y0090765D01*
X0106520Y0090766D02*
X0106563Y0090859D01*
X0106603Y0090954D01*
X0106639Y0091050D01*
X0106672Y0091147D01*
X0106700Y0091246D01*
X0106725Y0091346D01*
X0106747Y0091446D01*
X0106764Y0091547D01*
X0106778Y0091649D01*
X0106787Y0091752D01*
X0106793Y0091854D01*
X0106795Y0091957D01*
X0110120Y0090766D02*
X0110163Y0090859D01*
X0110203Y0090954D01*
X0110239Y0091050D01*
X0110272Y0091147D01*
X0110300Y0091246D01*
X0110325Y0091346D01*
X0110347Y0091446D01*
X0110364Y0091547D01*
X0110378Y0091649D01*
X0110387Y0091752D01*
X0110393Y0091854D01*
X0110395Y0091957D01*
X0108562Y0091957D02*
X0108564Y0092060D01*
X0108570Y0092162D01*
X0108579Y0092265D01*
X0108593Y0092367D01*
X0108610Y0092468D01*
X0108632Y0092568D01*
X0108657Y0092668D01*
X0108685Y0092767D01*
X0108718Y0092864D01*
X0108754Y0092960D01*
X0108794Y0093055D01*
X0108837Y0093148D01*
X0109478Y0093606D02*
X0109527Y0093604D01*
X0109577Y0093599D01*
X0109625Y0093590D01*
X0109673Y0093577D01*
X0109720Y0093561D01*
X0109765Y0093542D01*
X0109809Y0093519D01*
X0109852Y0093494D01*
X0109892Y0093465D01*
X0109930Y0093433D01*
X0109966Y0093399D01*
X0109999Y0093362D01*
X0110029Y0093323D01*
X0110056Y0093282D01*
X0110081Y0093239D01*
X0110102Y0093194D01*
X0110119Y0093148D01*
X0110212Y0092873D02*
X0108745Y0091040D01*
X0109478Y0090307D02*
X0109527Y0090309D01*
X0109577Y0090314D01*
X0109625Y0090323D01*
X0109673Y0090336D01*
X0109720Y0090352D01*
X0109765Y0090371D01*
X0109809Y0090394D01*
X0109852Y0090419D01*
X0109892Y0090448D01*
X0109930Y0090480D01*
X0109966Y0090514D01*
X0109999Y0090551D01*
X0110029Y0090590D01*
X0110056Y0090631D01*
X0110081Y0090674D01*
X0110102Y0090719D01*
X0110119Y0090765D01*
X0109478Y0090307D02*
X0109429Y0090309D01*
X0109379Y0090314D01*
X0109331Y0090323D01*
X0109283Y0090336D01*
X0109236Y0090352D01*
X0109191Y0090371D01*
X0109147Y0090394D01*
X0109104Y0090419D01*
X0109064Y0090448D01*
X0109026Y0090480D01*
X0108990Y0090514D01*
X0108957Y0090551D01*
X0108927Y0090590D01*
X0108900Y0090631D01*
X0108875Y0090674D01*
X0108854Y0090719D01*
X0108837Y0090765D01*
X0104962Y0091957D02*
X0104964Y0092060D01*
X0104970Y0092162D01*
X0104979Y0092265D01*
X0104993Y0092367D01*
X0105010Y0092468D01*
X0105032Y0092568D01*
X0105057Y0092668D01*
X0105085Y0092767D01*
X0105118Y0092864D01*
X0105154Y0092960D01*
X0105194Y0093055D01*
X0105237Y0093148D01*
X0105878Y0093606D02*
X0105927Y0093604D01*
X0105977Y0093599D01*
X0106025Y0093590D01*
X0106073Y0093577D01*
X0106120Y0093561D01*
X0106165Y0093542D01*
X0106209Y0093519D01*
X0106252Y0093494D01*
X0106292Y0093465D01*
X0106330Y0093433D01*
X0106366Y0093399D01*
X0106399Y0093362D01*
X0106429Y0093323D01*
X0106456Y0093282D01*
X0106481Y0093239D01*
X0106502Y0093194D01*
X0106519Y0093148D01*
X0105878Y0093606D02*
X0105829Y0093604D01*
X0105779Y0093599D01*
X0105731Y0093590D01*
X0105683Y0093577D01*
X0105636Y0093561D01*
X0105591Y0093542D01*
X0105547Y0093519D01*
X0105504Y0093494D01*
X0105464Y0093465D01*
X0105426Y0093433D01*
X0105390Y0093399D01*
X0105357Y0093362D01*
X0105327Y0093323D01*
X0105300Y0093282D01*
X0105275Y0093239D01*
X0105254Y0093194D01*
X0105237Y0093148D01*
X0102278Y0093607D02*
X0102278Y0090307D01*
X0101362Y0090307D02*
X0103195Y0090307D01*
X0101362Y0092873D02*
X0102278Y0093607D01*
X0110120Y0093148D02*
X0110163Y0093055D01*
X0110203Y0092960D01*
X0110239Y0092864D01*
X0110272Y0092767D01*
X0110300Y0092668D01*
X0110325Y0092568D01*
X0110347Y0092468D01*
X0110364Y0092367D01*
X0110378Y0092265D01*
X0110387Y0092162D01*
X0110393Y0092060D01*
X0110395Y0091957D01*
X0109478Y0093606D02*
X0109429Y0093604D01*
X0109379Y0093599D01*
X0109331Y0093590D01*
X0109283Y0093577D01*
X0109236Y0093561D01*
X0109191Y0093542D01*
X0109147Y0093519D01*
X0109104Y0093494D01*
X0109064Y0093465D01*
X0109026Y0093433D01*
X0108990Y0093399D01*
X0108957Y0093362D01*
X0108927Y0093323D01*
X0108900Y0093282D01*
X0108875Y0093239D01*
X0108854Y0093194D01*
X0108837Y0093148D01*
X0044963Y0049063D02*
X0044965Y0048960D01*
X0044971Y0048858D01*
X0044980Y0048755D01*
X0044994Y0048653D01*
X0045011Y0048552D01*
X0045033Y0048452D01*
X0045058Y0048352D01*
X0045086Y0048253D01*
X0045119Y0048156D01*
X0045155Y0048060D01*
X0045195Y0047965D01*
X0045238Y0047872D01*
X0045146Y0048146D02*
X0046613Y0049980D01*
X0046521Y0050255D02*
X0046504Y0050301D01*
X0046483Y0050346D01*
X0046458Y0050389D01*
X0046431Y0050430D01*
X0046401Y0050469D01*
X0046368Y0050506D01*
X0046332Y0050540D01*
X0046294Y0050572D01*
X0046254Y0050601D01*
X0046211Y0050626D01*
X0046167Y0050649D01*
X0046122Y0050668D01*
X0046075Y0050684D01*
X0046027Y0050697D01*
X0045979Y0050706D01*
X0045929Y0050711D01*
X0045880Y0050713D01*
X0045831Y0050711D01*
X0045781Y0050706D01*
X0045733Y0050697D01*
X0045685Y0050684D01*
X0045638Y0050668D01*
X0045593Y0050649D01*
X0045549Y0050626D01*
X0045506Y0050601D01*
X0045466Y0050572D01*
X0045428Y0050540D01*
X0045392Y0050506D01*
X0045359Y0050469D01*
X0045329Y0050430D01*
X0045302Y0050389D01*
X0045277Y0050346D01*
X0045256Y0050301D01*
X0045239Y0050255D01*
X0046521Y0050254D02*
X0046564Y0050161D01*
X0046604Y0050066D01*
X0046640Y0049970D01*
X0046673Y0049873D01*
X0046701Y0049774D01*
X0046726Y0049674D01*
X0046748Y0049574D01*
X0046765Y0049473D01*
X0046779Y0049371D01*
X0046788Y0049268D01*
X0046794Y0049166D01*
X0046796Y0049063D01*
X0044963Y0049063D02*
X0044965Y0049166D01*
X0044971Y0049268D01*
X0044980Y0049371D01*
X0044994Y0049473D01*
X0045011Y0049574D01*
X0045033Y0049674D01*
X0045058Y0049774D01*
X0045086Y0049873D01*
X0045119Y0049970D01*
X0045155Y0050066D01*
X0045195Y0050161D01*
X0045238Y0050254D01*
X0046796Y0049063D02*
X0046794Y0048960D01*
X0046788Y0048858D01*
X0046779Y0048755D01*
X0046765Y0048653D01*
X0046748Y0048552D01*
X0046726Y0048452D01*
X0046701Y0048352D01*
X0046673Y0048253D01*
X0046640Y0048156D01*
X0046604Y0048060D01*
X0046564Y0047965D01*
X0046521Y0047872D01*
X0046521Y0047871D02*
X0046504Y0047825D01*
X0046483Y0047780D01*
X0046458Y0047737D01*
X0046431Y0047696D01*
X0046401Y0047657D01*
X0046368Y0047620D01*
X0046332Y0047586D01*
X0046294Y0047554D01*
X0046254Y0047525D01*
X0046211Y0047500D01*
X0046167Y0047477D01*
X0046122Y0047458D01*
X0046075Y0047442D01*
X0046027Y0047429D01*
X0045979Y0047420D01*
X0045929Y0047415D01*
X0045880Y0047413D01*
X0045831Y0047415D01*
X0045781Y0047420D01*
X0045733Y0047429D01*
X0045685Y0047442D01*
X0045638Y0047458D01*
X0045593Y0047477D01*
X0045549Y0047500D01*
X0045506Y0047525D01*
X0045466Y0047554D01*
X0045428Y0047586D01*
X0045392Y0047620D01*
X0045359Y0047657D01*
X0045329Y0047696D01*
X0045302Y0047737D01*
X0045277Y0047780D01*
X0045256Y0047825D01*
X0045239Y0047871D01*
X0043196Y0047413D02*
X0041363Y0047413D01*
X0042280Y0047413D02*
X0042280Y0050713D01*
X0041363Y0049980D01*
X0039321Y0049246D02*
X0037763Y0047413D01*
X0039596Y0047413D01*
X0037763Y0049980D02*
X0037784Y0050039D01*
X0037809Y0050098D01*
X0037837Y0050155D01*
X0037869Y0050210D01*
X0037904Y0050263D01*
X0037942Y0050313D01*
X0037983Y0050362D01*
X0038027Y0050408D01*
X0038073Y0050451D01*
X0038122Y0050491D01*
X0038173Y0050529D01*
X0038227Y0050563D01*
X0038282Y0050594D01*
X0038340Y0050621D01*
X0038398Y0050645D01*
X0038458Y0050666D01*
X0038520Y0050683D01*
X0038582Y0050696D01*
X0038644Y0050705D01*
X0038708Y0050711D01*
X0038771Y0050713D01*
X0038827Y0050711D01*
X0038883Y0050705D01*
X0038939Y0050696D01*
X0038994Y0050682D01*
X0039047Y0050665D01*
X0039100Y0050645D01*
X0039151Y0050621D01*
X0039200Y0050593D01*
X0039247Y0050562D01*
X0039292Y0050528D01*
X0039334Y0050491D01*
X0039374Y0050451D01*
X0039411Y0050409D01*
X0039445Y0050364D01*
X0039476Y0050317D01*
X0039504Y0050268D01*
X0039528Y0050217D01*
X0039548Y0050164D01*
X0039565Y0050111D01*
X0039579Y0050056D01*
X0039588Y0050000D01*
X0039594Y0049944D01*
X0039596Y0049888D01*
X0039594Y0049833D01*
X0039589Y0049778D01*
X0039581Y0049723D01*
X0039569Y0049670D01*
X0039553Y0049616D01*
X0039535Y0049565D01*
X0039513Y0049514D01*
X0039488Y0049465D01*
X0039460Y0049417D01*
X0039430Y0049371D01*
X0039396Y0049327D01*
X0039360Y0049286D01*
X0039321Y0049246D01*
X0035721Y0049246D02*
X0034163Y0047413D01*
X0035996Y0047413D01*
X0034163Y0049980D02*
X0034184Y0050039D01*
X0034209Y0050098D01*
X0034237Y0050155D01*
X0034269Y0050210D01*
X0034304Y0050263D01*
X0034342Y0050313D01*
X0034383Y0050362D01*
X0034427Y0050408D01*
X0034473Y0050451D01*
X0034522Y0050491D01*
X0034573Y0050529D01*
X0034627Y0050563D01*
X0034682Y0050594D01*
X0034740Y0050621D01*
X0034798Y0050645D01*
X0034858Y0050666D01*
X0034920Y0050683D01*
X0034982Y0050696D01*
X0035044Y0050705D01*
X0035108Y0050711D01*
X0035171Y0050713D01*
X0035227Y0050711D01*
X0035283Y0050705D01*
X0035339Y0050696D01*
X0035394Y0050682D01*
X0035447Y0050665D01*
X0035500Y0050645D01*
X0035551Y0050621D01*
X0035600Y0050593D01*
X0035647Y0050562D01*
X0035692Y0050528D01*
X0035734Y0050491D01*
X0035774Y0050451D01*
X0035811Y0050409D01*
X0035845Y0050364D01*
X0035876Y0050317D01*
X0035904Y0050268D01*
X0035928Y0050217D01*
X0035948Y0050164D01*
X0035965Y0050111D01*
X0035979Y0050056D01*
X0035988Y0050000D01*
X0035994Y0049944D01*
X0035996Y0049888D01*
X0035994Y0049833D01*
X0035989Y0049778D01*
X0035981Y0049723D01*
X0035969Y0049670D01*
X0035953Y0049616D01*
X0035935Y0049565D01*
X0035913Y0049514D01*
X0035888Y0049465D01*
X0035860Y0049417D01*
X0035830Y0049371D01*
X0035796Y0049327D01*
X0035760Y0049286D01*
X0035721Y0049246D01*
X0032276Y0049246D02*
X0032276Y0047413D01*
X0031176Y0047413D01*
X0031124Y0047415D01*
X0031072Y0047420D01*
X0031020Y0047430D01*
X0030969Y0047443D01*
X0030920Y0047459D01*
X0030872Y0047479D01*
X0030825Y0047503D01*
X0030780Y0047529D01*
X0030737Y0047559D01*
X0030696Y0047592D01*
X0030658Y0047628D01*
X0030622Y0047666D01*
X0030589Y0047707D01*
X0030559Y0047750D01*
X0030533Y0047795D01*
X0030509Y0047842D01*
X0030489Y0047890D01*
X0030473Y0047939D01*
X0030460Y0047990D01*
X0030450Y0048042D01*
X0030445Y0048094D01*
X0030443Y0048146D01*
X0030443Y0049980D01*
X0030445Y0050032D01*
X0030450Y0050084D01*
X0030460Y0050136D01*
X0030473Y0050187D01*
X0030489Y0050236D01*
X0030509Y0050284D01*
X0030533Y0050331D01*
X0030559Y0050376D01*
X0030589Y0050419D01*
X0030622Y0050460D01*
X0030658Y0050498D01*
X0030696Y0050534D01*
X0030737Y0050567D01*
X0030780Y0050597D01*
X0030825Y0050623D01*
X0030871Y0050647D01*
X0030920Y0050667D01*
X0030969Y0050683D01*
X0031020Y0050696D01*
X0031072Y0050706D01*
X0031124Y0050711D01*
X0031176Y0050713D01*
X0032276Y0050713D01*
X0032276Y0049246D02*
X0031726Y0049246D01*
X0028801Y0050713D02*
X0027334Y0050713D01*
X0027334Y0047413D01*
X0028801Y0047413D01*
X0028434Y0049246D02*
X0027334Y0049246D01*
X0024380Y0047413D02*
X0022547Y0047413D01*
X0023463Y0047413D02*
X0023463Y0050713D01*
X0022547Y0049980D01*
X0020533Y0048788D02*
X0019525Y0049338D01*
X0019892Y0050713D02*
X0019966Y0050711D01*
X0020039Y0050705D01*
X0020112Y0050695D01*
X0020185Y0050681D01*
X0020256Y0050664D01*
X0020327Y0050642D01*
X0020396Y0050617D01*
X0020464Y0050588D01*
X0020530Y0050556D01*
X0020595Y0050520D01*
X0020657Y0050481D01*
X0020717Y0050438D01*
X0019525Y0049338D02*
X0019481Y0049366D01*
X0019440Y0049396D01*
X0019401Y0049430D01*
X0019364Y0049466D01*
X0019329Y0049505D01*
X0019298Y0049545D01*
X0019269Y0049588D01*
X0019244Y0049633D01*
X0019221Y0049679D01*
X0019202Y0049727D01*
X0019186Y0049776D01*
X0019174Y0049826D01*
X0019165Y0049877D01*
X0019160Y0049928D01*
X0019158Y0049980D01*
X0019159Y0049980D02*
X0019161Y0050032D01*
X0019166Y0050084D01*
X0019176Y0050136D01*
X0019189Y0050187D01*
X0019205Y0050236D01*
X0019225Y0050284D01*
X0019249Y0050331D01*
X0019275Y0050376D01*
X0019305Y0050419D01*
X0019338Y0050460D01*
X0019374Y0050498D01*
X0019412Y0050534D01*
X0019453Y0050567D01*
X0019496Y0050597D01*
X0019541Y0050623D01*
X0019588Y0050647D01*
X0019636Y0050667D01*
X0019685Y0050683D01*
X0019736Y0050696D01*
X0019788Y0050706D01*
X0019840Y0050711D01*
X0019892Y0050713D01*
X0019067Y0047871D02*
X0019122Y0047818D01*
X0019180Y0047768D01*
X0019240Y0047721D01*
X0019302Y0047677D01*
X0019367Y0047636D01*
X0019433Y0047598D01*
X0019501Y0047563D01*
X0019571Y0047532D01*
X0019642Y0047505D01*
X0019715Y0047480D01*
X0019789Y0047460D01*
X0019863Y0047443D01*
X0019939Y0047430D01*
X0020014Y0047421D01*
X0020091Y0047415D01*
X0020167Y0047413D01*
X0020219Y0047415D01*
X0020271Y0047420D01*
X0020323Y0047430D01*
X0020374Y0047443D01*
X0020423Y0047459D01*
X0020472Y0047479D01*
X0020518Y0047503D01*
X0020563Y0047529D01*
X0020606Y0047559D01*
X0020647Y0047592D01*
X0020685Y0047628D01*
X0020721Y0047666D01*
X0020754Y0047707D01*
X0020784Y0047750D01*
X0020810Y0047795D01*
X0020834Y0047842D01*
X0020854Y0047890D01*
X0020870Y0047939D01*
X0020883Y0047990D01*
X0020893Y0048042D01*
X0020898Y0048094D01*
X0020900Y0048146D01*
X0020898Y0048198D01*
X0020893Y0048249D01*
X0020884Y0048300D01*
X0020872Y0048350D01*
X0020856Y0048399D01*
X0020837Y0048447D01*
X0020814Y0048493D01*
X0020789Y0048538D01*
X0020760Y0048581D01*
X0020729Y0048621D01*
X0020694Y0048660D01*
X0020657Y0048696D01*
X0020618Y0048730D01*
X0020577Y0048760D01*
X0020533Y0048788D01*
D15*
X0129054Y0052582D02*
X0129153Y0052413D01*
X0129257Y0052247D01*
X0129364Y0052083D01*
X0129475Y0051922D01*
X0129590Y0051764D01*
X0129709Y0051609D01*
X0129832Y0051456D01*
X0129958Y0051307D01*
X0130088Y0051161D01*
X0130222Y0051018D01*
X0130359Y0050878D01*
X0130499Y0050742D01*
X0130643Y0050609D01*
X0130790Y0050480D01*
X0130940Y0050354D01*
X0131093Y0050233D01*
X0131249Y0050114D01*
X0131408Y0050000D01*
X0131569Y0049890D01*
X0131734Y0049784D01*
X0131900Y0049681D01*
X0132070Y0049583D01*
X0132241Y0049489D01*
X0132415Y0049399D01*
X0132591Y0049314D01*
X0132769Y0049232D01*
X0132949Y0049156D01*
X0133131Y0049083D01*
X0133314Y0049015D01*
X0133499Y0048952D01*
X0133686Y0048893D01*
X0133874Y0048839D01*
X0134063Y0048789D01*
X0134253Y0048744D01*
X0134445Y0048704D01*
X0134637Y0048668D01*
X0134830Y0048637D01*
X0135024Y0048611D01*
X0135219Y0048589D01*
X0135414Y0048573D01*
X0135609Y0048561D01*
X0135805Y0048553D01*
X0136000Y0048551D01*
X0128941Y0060316D02*
X0129034Y0060484D01*
X0129130Y0060650D01*
X0129230Y0060814D01*
X0129335Y0060975D01*
X0129443Y0061134D01*
X0129555Y0061290D01*
X0129671Y0061444D01*
X0129790Y0061594D01*
X0129913Y0061742D01*
X0130039Y0061887D01*
X0130169Y0062028D01*
X0130302Y0062167D01*
X0130439Y0062302D01*
X0130579Y0062434D01*
X0130721Y0062562D01*
X0130867Y0062687D01*
X0131016Y0062809D01*
X0131168Y0062927D01*
X0131322Y0063041D01*
X0131480Y0063151D01*
X0131639Y0063258D01*
X0131802Y0063361D01*
X0131967Y0063460D01*
X0132134Y0063555D01*
X0132303Y0063645D01*
X0132474Y0063732D01*
X0132648Y0063815D01*
X0132823Y0063893D01*
X0133001Y0063967D01*
X0133180Y0064037D01*
X0133360Y0064103D01*
X0133542Y0064164D01*
X0133726Y0064221D01*
X0133911Y0064273D01*
X0134097Y0064321D01*
X0134284Y0064365D01*
X0134472Y0064404D01*
X0134661Y0064438D01*
X0134851Y0064468D01*
X0135041Y0064493D01*
X0135232Y0064514D01*
X0135424Y0064530D01*
X0135616Y0064542D01*
X0135808Y0064549D01*
X0136000Y0064551D01*
X0142107Y0051383D02*
X0141980Y0051237D01*
X0141851Y0051095D01*
X0141717Y0050955D01*
X0141581Y0050819D01*
X0141441Y0050686D01*
X0141298Y0050556D01*
X0141151Y0050430D01*
X0141002Y0050308D01*
X0140850Y0050189D01*
X0140695Y0050074D01*
X0140538Y0049962D01*
X0140378Y0049855D01*
X0140215Y0049751D01*
X0140049Y0049652D01*
X0139882Y0049556D01*
X0139712Y0049464D01*
X0139540Y0049377D01*
X0139366Y0049293D01*
X0139190Y0049214D01*
X0139012Y0049140D01*
X0138832Y0049069D01*
X0138651Y0049003D01*
X0138468Y0048941D01*
X0138284Y0048884D01*
X0138098Y0048831D01*
X0137911Y0048783D01*
X0137723Y0048739D01*
X0137534Y0048700D01*
X0137344Y0048665D01*
X0137154Y0048635D01*
X0136963Y0048609D01*
X0136771Y0048588D01*
X0136578Y0048572D01*
X0136386Y0048560D01*
X0136193Y0048553D01*
X0136000Y0048551D01*
X0142146Y0061673D02*
X0142019Y0061821D01*
X0141889Y0061966D01*
X0141756Y0062107D01*
X0141619Y0062246D01*
X0141479Y0062381D01*
X0141335Y0062512D01*
X0141188Y0062640D01*
X0141039Y0062765D01*
X0140886Y0062886D01*
X0140731Y0063003D01*
X0140572Y0063116D01*
X0140411Y0063225D01*
X0140247Y0063330D01*
X0140081Y0063432D01*
X0139912Y0063529D01*
X0139742Y0063622D01*
X0139568Y0063711D01*
X0139393Y0063796D01*
X0139216Y0063876D01*
X0139037Y0063952D01*
X0138856Y0064024D01*
X0138673Y0064091D01*
X0138489Y0064154D01*
X0138303Y0064212D01*
X0138116Y0064266D01*
X0137928Y0064315D01*
X0137738Y0064360D01*
X0137548Y0064400D01*
X0137356Y0064435D01*
X0137164Y0064466D01*
X0136971Y0064492D01*
X0136777Y0064513D01*
X0136583Y0064530D01*
X0136389Y0064542D01*
X0136195Y0064549D01*
X0136000Y0064551D01*
M02*
