%
M48
M72
T01C0.01378
T02C0.03150
T03C0.03200
T04C0.03600
T05C0.04331
T06C0.04724
T07C0.08583
T08C0.13780
%
T01
X19110Y12811
X15961Y52181
X39976Y68717
X56906Y83283
X55331Y95094
X66354Y91157
X79346Y81315
X71472Y72260
X60843Y71079
X81315Y49425
X89976Y54150
X93126Y44701
X71079Y13205
X120291Y13992
X147063Y36433
X145882Y69504
X109661Y83677
X91551Y85646
X83677Y141945
X82890Y163205
X45488Y163992
X15173Y127378
X13992Y86827
X125803Y160055
X145882Y143126
T02
X58480Y37024
X58480Y27181
X42732Y27181
X42732Y37024
X26984Y37024
X26984Y27181
T03
X131000Y56551
X141000Y56551
T04
X79780Y114780
X69780Y114780
X59780Y114780
X49780Y114780
T05
X108087Y119661
X108087Y109661
X110134Y32102
X100134Y32102
X90134Y32102
X80134Y32102
X130134Y32102
X140134Y32102
T06
X66748Y32102
X18717Y32102
T07
X53953Y53756
X103953Y53756
X103953Y144307
X53953Y144307
T08
X21472Y160449
X41157Y93126
X140370Y160449
M30
