G75*
%MOIN*%
%OFA0B0*%
%FSLAX25Y25*%
%IPPOS*%
%LPD*%
%AMOC8*
5,1,8,0,0,1.08239X$1,22.5*
%
%ADD10C,0.14180*%
%ADD11R,0.11811X0.11811*%
%ADD12R,0.04600X0.03900*%
%ADD13R,0.03900X0.04600*%
%ADD14OC8,0.05600*%
%ADD15C,0.06000*%
%ADD16C,0.12983*%
%ADD17OC8,0.06896*%
%ADD18R,0.06896X0.06896*%
%ADD19C,0.05550*%
%ADD20C,0.05124*%
%ADD21R,0.02900X0.07400*%
D10*
X0049031Y0093126D03*
X0021472Y0160449D03*
X0152181Y0160449D03*
D11*
X0130134Y0081315D03*
X0043520Y0065567D03*
X0043520Y0108874D03*
D12*
X0070291Y0083140D03*
X0070291Y0076340D03*
X0078165Y0076340D03*
X0078165Y0083140D03*
X0077772Y0060699D03*
X0077772Y0053899D03*
X0107535Y0074332D03*
X0107535Y0081132D03*
X0107693Y0088939D03*
X0107693Y0095739D03*
D13*
X0095739Y0101000D03*
X0088939Y0101000D03*
X0079794Y0100961D03*
X0072994Y0100961D03*
X0072403Y0067929D03*
X0079203Y0067929D03*
X0086576Y0061630D03*
X0093376Y0061630D03*
X0093376Y0053756D03*
X0086576Y0053756D03*
X0124017Y0053795D03*
X0130817Y0053795D03*
D14*
X0138874Y0056551D03*
X0148874Y0056551D03*
D15*
X0087654Y0111980D02*
X0087654Y0117580D01*
X0077654Y0117580D02*
X0077654Y0111980D01*
X0067654Y0111980D02*
X0067654Y0117580D01*
X0057654Y0117580D02*
X0057654Y0111980D01*
D16*
X0061827Y0144307D03*
X0111827Y0144307D03*
X0111827Y0053756D03*
X0061827Y0053756D03*
D17*
X0098008Y0032102D03*
X0108008Y0032102D03*
X0118008Y0032102D03*
X0148008Y0032102D03*
X0115961Y0119661D03*
D18*
X0115961Y0109661D03*
X0138008Y0032102D03*
X0088008Y0032102D03*
D19*
X0066354Y0027181D03*
X0066354Y0037024D03*
X0050606Y0037024D03*
X0050606Y0027181D03*
X0034858Y0027181D03*
X0034858Y0037024D03*
D20*
X0026591Y0032102D03*
X0074622Y0032102D03*
D21*
X0084839Y0069821D03*
X0089839Y0069821D03*
X0094839Y0069821D03*
X0099839Y0069921D03*
X0099839Y0092021D03*
X0094839Y0092021D03*
X0089839Y0092021D03*
X0084839Y0092021D03*
M02*
