G75*
%MOIN*%
%OFA0B0*%
%FSLAX25Y25*%
%IPPOS*%
%LPD*%
%AMOC8*
5,1,8,0,0,1.08239X$1,22.5*
%
%ADD10C,0.14180*%
%ADD11R,0.03900X0.04600*%
%ADD12R,0.04600X0.03900*%
%ADD13OC8,0.05600*%
%ADD14C,0.06000*%
%ADD15R,0.02100X0.06300*%
%ADD16C,0.12983*%
%ADD17OC8,0.06896*%
%ADD18R,0.06896X0.06896*%
%ADD19C,0.05550*%
%ADD20C,0.05124*%
D10*
X0042339Y0089976D03*
X0019898Y0156512D03*
X0138795Y0156512D03*
D11*
X0087077Y0098638D03*
X0080277Y0098638D03*
X0078219Y0091118D03*
X0071419Y0091118D03*
X0088151Y0091157D03*
X0094951Y0091157D03*
X0069754Y0063992D03*
X0062954Y0063992D03*
X0077128Y0057693D03*
X0083928Y0057693D03*
X0083928Y0049819D03*
X0077128Y0049819D03*
X0114569Y0049858D03*
X0121369Y0049858D03*
D12*
X0089819Y0070395D03*
X0089819Y0077195D03*
X0068717Y0079203D03*
X0068717Y0072403D03*
X0060843Y0072403D03*
X0060843Y0079203D03*
X0068323Y0056762D03*
X0068323Y0049962D03*
D13*
X0129425Y0052614D03*
X0139425Y0052614D03*
D14*
X0078205Y0108043D02*
X0078205Y0113643D01*
X0068205Y0113643D02*
X0068205Y0108043D01*
X0058205Y0108043D02*
X0058205Y0113643D01*
X0048205Y0113643D02*
X0048205Y0108043D01*
D15*
X0075389Y0083986D03*
X0077889Y0083986D03*
X0080489Y0083986D03*
X0082989Y0083986D03*
X0082989Y0064786D03*
X0080489Y0064786D03*
X0077889Y0064786D03*
X0075389Y0064786D03*
D16*
X0052378Y0049819D03*
X0102378Y0049819D03*
X0102378Y0140370D03*
X0052378Y0140370D03*
D17*
X0106512Y0115724D03*
X0108559Y0028165D03*
X0098559Y0028165D03*
X0088559Y0028165D03*
X0138559Y0028165D03*
D18*
X0128559Y0028165D03*
X0078559Y0028165D03*
X0106512Y0105724D03*
D19*
X0025409Y0023244D03*
X0025409Y0033087D03*
X0041157Y0033087D03*
X0041157Y0023244D03*
X0056906Y0023244D03*
X0056906Y0033087D03*
D20*
X0065173Y0028165D03*
X0017142Y0028165D03*
M02*
